<svg width="107" height="52" viewBox="0 0 107 52" fill="none" xmlns="http://www.w3.org/2000/svg">
<path d="M20.3107 41.141C20.3133 41.2824 20.3038 41.4238 20.2821 41.5636C20.2789 41.7199 20.2197 41.8699 20.1153 41.9863C20.0778 42.0149 20.0332 42.0326 19.9862 42.0377H16.4427V44.9575H19.7669C19.8183 44.9575 19.8674 44.9758 19.9063 45.0089C19.9489 45.0533 19.9823 45.1057 20.0045 45.1631C20.0388 45.2431 20.0616 45.3299 20.0696 45.4179C20.0868 45.555 20.0936 45.6943 20.0902 45.8337C20.0936 45.9742 20.0868 46.1158 20.0696 46.2563C20.0582 46.35 20.0365 46.4425 20.0045 46.5317C19.9833 46.5882 19.9497 46.6393 19.9063 46.6813C19.8676 46.7136 19.8185 46.7311 19.7681 46.7304H16.4439V50.7777C16.4469 50.8387 16.4296 50.8989 16.3948 50.949C16.3489 51.0029 16.2887 51.0425 16.2211 51.0633C16.1229 51.085 16.0155 51.1124 15.8739 51.133C15.6968 51.1512 15.5197 51.1592 15.3415 51.1581C15.1302 51.1581 14.96 51.1581 14.8161 51.133C14.7 51.1135 14.5846 51.0907 14.4699 51.0644C14.4015 51.0443 14.3408 51.0037 14.2963 50.9479C14.2554 50.9005 14.2341 50.8392 14.2369 50.7766V40.9308C14.2289 40.8332 14.2414 40.735 14.2737 40.6425C14.306 40.55 14.3573 40.4653 14.4242 40.3939C14.5547 40.2844 14.7199 40.2248 14.8903 40.226H19.9862C20.0319 40.2317 20.0776 40.2488 20.1153 40.2751C20.1565 40.3208 20.1919 40.3722 20.2193 40.4282C20.2593 40.5161 20.281 40.6109 20.2821 40.708C20.3027 40.8508 20.313 40.9959 20.3095 41.141H20.3107ZM28.5572 50.6532C28.5578 50.7171 28.5332 50.7787 28.4886 50.8245C28.4421 50.879 28.3798 50.9177 28.3104 50.9353C28.1962 50.965 28.0797 50.9879 27.9632 51.005C27.8238 51.005 27.6399 51.0302 27.4285 51.0302C27.2161 51.0302 27.039 51.0302 26.8928 51.005C26.7814 50.9894 26.6711 50.9666 26.5627 50.9365C26.499 50.916 26.4432 50.8766 26.4027 50.8234C26.3832 50.8031 26.368 50.7791 26.358 50.7528C26.348 50.7265 26.3434 50.6984 26.3445 50.6703V40.3905C26.3471 40.3331 26.3674 40.2781 26.4027 40.2328C26.4536 40.1796 26.5192 40.143 26.5912 40.1277C26.6986 40.0957 26.8083 40.0718 26.9214 40.0592C27.2766 40.0306 27.6342 40.0306 27.9906 40.0592C28.1082 40.0706 28.2248 40.0946 28.3378 40.1277C28.4052 40.1464 28.4663 40.1826 28.5149 40.2328C28.5464 40.28 28.566 40.3341 28.572 40.3905L28.5572 50.652V50.6532ZM42.384 40.9936C42.392 41.1341 42.392 41.2746 42.384 41.4163C42.3735 41.5082 42.3512 41.5985 42.3177 41.6847C42.2986 41.7442 42.2639 41.7975 42.2172 41.8389C42.1783 41.8666 42.1332 41.8843 42.0858 41.8904H39.3648V50.652C39.3668 50.6797 39.3633 50.7075 39.3545 50.7337C39.3456 50.76 39.3317 50.7843 39.3134 50.8051C39.266 50.8619 39.2008 50.901 39.1283 50.9159C39.0201 50.9455 38.9103 50.9688 38.7993 50.9856C38.6531 50.9856 38.4829 51.0107 38.2601 51.0107C38.0374 51.0107 37.8775 51.0107 37.7324 50.9856C37.5862 50.9628 37.4788 50.9376 37.3851 50.9171C37.3147 50.8995 37.2516 50.8604 37.2046 50.8051C37.172 50.7605 37.1559 50.706 37.1589 50.6509V41.8904H34.4493C34.3955 41.8882 34.3435 41.8703 34.2997 41.8389C34.2563 41.7954 34.2231 41.7427 34.2026 41.6847C34.1733 41.5976 34.1534 41.5076 34.1432 41.4163C34.1335 41.2756 34.1335 41.1343 34.1432 40.9936C34.1334 40.8491 34.1334 40.7041 34.1432 40.5595C34.1516 40.466 34.1716 40.374 34.2026 40.2854C34.2267 40.2282 34.2594 40.175 34.2997 40.1277C34.3448 40.1002 34.3956 40.0834 34.4482 40.0786H42.0927C42.1384 40.0866 42.1841 40.1026 42.224 40.1277C42.2674 40.1734 42.3017 40.226 42.3246 40.2842C42.36 40.3733 42.3817 40.4659 42.3908 40.5607C42.3965 40.7046 42.3942 40.8497 42.384 40.9936ZM56.5306 50.1928C56.5332 50.3127 56.5106 50.4318 56.4644 50.5424C56.4256 50.6407 56.3651 50.729 56.2873 50.8005C56.2057 50.8628 56.1157 50.9131 56.02 50.9502C55.9172 50.9776 55.8132 50.9936 55.707 50.9993H54.7726C54.6025 51.002 54.433 50.9789 54.2699 50.9308C54.1205 50.8952 53.9827 50.8216 53.8701 50.7172C53.7351 50.5916 53.6179 50.4483 53.5217 50.2911C53.3766 50.0753 53.2501 49.8475 53.1436 49.6102L50.4477 44.5223C50.3049 44.215 50.1415 43.9054 49.9713 43.5559C49.8011 43.2063 49.6629 42.8568 49.5373 42.5358C49.5373 42.9344 49.5795 43.332 49.5932 43.7272C49.6069 44.1213 49.5932 44.544 49.5932 44.9724V50.6578C49.5982 50.7133 49.5832 50.7688 49.551 50.8143C49.5155 50.8699 49.4611 50.9108 49.3979 50.9296C49.2979 50.9597 49.196 50.983 49.0929 50.9993C48.7671 51.0333 48.4386 51.0333 48.1128 50.9993C48.0095 50.9823 47.9073 50.9594 47.8066 50.9308C47.7449 50.8988 47.6855 50.8634 47.6684 50.8143C47.6357 50.7687 47.6185 50.7138 47.6193 50.6578V40.8805C47.6135 40.7719 47.6306 40.6633 47.6696 40.5617C47.7085 40.4602 47.7685 40.3679 47.8455 40.2911C48.0039 40.155 48.2067 40.0819 48.4155 40.0855H49.5898C49.7691 40.0877 49.9485 40.1083 50.1244 40.1483C50.2695 40.1746 50.4043 40.2397 50.5174 40.3368C50.643 40.4327 50.7515 40.5504 50.8372 40.6852C50.9537 40.86 51.0588 41.0439 51.1491 41.2335L53.2544 45.2031C53.3835 45.4441 53.5011 45.6852 53.6199 45.9022L53.9672 46.6002C54.07 46.8275 54.1854 47.0651 54.2871 47.2982C54.3876 47.5323 54.5018 47.7494 54.5989 47.9653C54.5989 47.5849 54.5715 47.1771 54.5612 46.743V40.4167C54.5561 40.3626 54.5694 40.3082 54.5989 40.2625C54.6462 40.207 54.7073 40.1648 54.776 40.1403C54.8718 40.1027 54.9727 40.0796 55.0753 40.0718C55.2375 40.0512 55.4008 40.0409 55.5653 40.0398C55.7264 40.0398 55.8875 40.0512 56.0474 40.0706C56.1523 40.0795 56.2554 40.1033 56.3535 40.1414C56.4107 40.1677 56.4609 40.21 56.4963 40.2625C56.5238 40.3082 56.5375 40.3631 56.534 40.4167L56.5306 50.1928ZM69.2425 50.0923C69.2425 50.2522 69.2425 50.3779 69.2219 50.5035C69.2094 50.5926 69.1877 50.6795 69.1591 50.7628C69.1356 50.8198 69.1015 50.8717 69.0586 50.9159C69.0152 50.9386 68.9679 50.9529 68.9192 50.9582H63.4863C63.3116 50.9604 63.1417 50.9009 63.0065 50.7903C62.9427 50.7171 62.8941 50.6319 62.8637 50.5397C62.8333 50.4475 62.8216 50.3501 62.8294 50.2534V40.7834C62.8221 40.6867 62.834 40.5895 62.8644 40.4973C62.8948 40.4052 62.9431 40.32 63.0065 40.2465C63.1416 40.1358 63.3116 40.0763 63.4863 40.0786H68.8781C68.9283 40.0843 68.9763 40.1015 69.0197 40.1277C69.0677 40.1643 69.0997 40.2191 69.1111 40.2774C69.1494 40.3622 69.1704 40.4539 69.1728 40.547C69.1922 40.6818 69.1991 40.8188 69.1934 40.9548C69.1991 41.0884 69.1911 41.2209 69.1728 41.3535C69.1711 41.4431 69.1497 41.5312 69.11 41.6116C69.0972 41.671 69.0655 41.7247 69.0197 41.7647C69.0004 41.7815 68.9779 41.7942 68.9536 41.802C68.9292 41.8099 68.9036 41.8127 68.8781 41.8104H65.0147V44.472H68.2875C68.3409 44.4765 68.3917 44.4967 68.4336 44.53C68.4755 44.5634 68.5065 44.6084 68.5228 44.6594C68.5605 44.7416 68.5834 44.8307 68.5891 44.9221C68.6264 45.1896 68.6264 45.4611 68.5891 45.7286C68.5817 45.8167 68.5593 45.9028 68.5228 45.9833C68.5056 46.0336 68.4743 46.0778 68.4325 46.1106C68.3908 46.1435 68.3404 46.1635 68.2875 46.1684H65.0147V49.2264H68.9192C68.9695 49.2264 69.0186 49.2424 69.0586 49.2721C69.0951 49.3155 69.1294 49.3635 69.1591 49.4115C69.1877 49.4983 69.2082 49.5862 69.2219 49.6765C69.2322 49.7953 69.2425 49.9392 69.2425 50.0923ZM81.871 47.698C81.879 48.2143 81.7682 48.7261 81.5477 49.1921C81.3494 49.6156 81.0544 49.9866 80.6864 50.2751C80.3084 50.5739 79.8769 50.798 79.415 50.9353C78.9142 51.0824 78.3947 51.1563 77.8728 51.1547C77.5221 51.1547 77.1737 51.1227 76.8299 51.061C76.542 51.0039 76.2587 50.9308 75.9788 50.844C75.767 50.7589 75.5606 50.6608 75.3608 50.5504C75.2349 50.4842 75.1179 50.4025 75.0124 50.3071C74.9331 50.22 74.878 50.1136 74.8525 49.9986C74.8221 49.8014 74.8106 49.6017 74.8182 49.4023V48.9625C74.8296 48.8654 74.8479 48.7695 74.8742 48.6769C74.9024 48.6212 74.9361 48.5684 74.9747 48.5193C75.0203 48.4954 75.072 48.4855 75.1232 48.4907C75.2452 48.4972 75.3617 48.5438 75.4545 48.6233C75.5996 48.7009 75.7801 48.8152 76.0028 48.9237C76.2621 49.0414 76.5283 49.143 76.799 49.2321C77.1486 49.3269 77.5095 49.3738 77.8728 49.3703C78.1184 49.3749 78.3629 49.3406 78.5982 49.2698C78.7912 49.2081 78.9729 49.1156 79.1362 48.9968C79.2847 48.8803 79.4024 48.7306 79.4846 48.5604C79.5646 48.3719 79.6057 48.1686 79.6023 47.9641C79.6082 47.7431 79.5367 47.5269 79.4001 47.353C79.2528 47.1599 79.07 46.9989 78.8632 46.8743C78.63 46.7252 78.3828 46.5989 78.1253 46.4974C77.8545 46.3717 77.5632 46.2426 77.2845 46.1067C77.0069 45.9696 76.7122 45.8303 76.43 45.6589C76.1582 45.4815 75.9128 45.2665 75.7012 45.0203C75.48 44.7748 75.3034 44.4927 75.1792 44.1864C75.047 43.8121 74.9835 43.417 74.9919 43.0201C74.9788 42.5464 75.0766 42.0763 75.2774 41.647C75.4625 41.2655 75.7309 40.9308 76.0622 40.6669C76.4049 40.3973 76.7944 40.1951 77.2125 40.0729C77.6706 39.9507 78.1447 39.8901 78.6188 39.8913C78.8769 39.8901 79.1351 39.9061 79.3898 39.9404C79.6331 39.9804 79.8742 40.0375 80.1095 40.1117C80.3151 40.1654 80.5162 40.242 80.7069 40.3379C80.8326 40.3905 80.9503 40.4601 81.0542 40.5481C81.0941 40.5883 81.1279 40.6341 81.1547 40.684C81.1829 40.732 81.2008 40.7853 81.2073 40.8405C81.2278 40.9205 81.2381 41.0005 81.2381 41.0816V41.8607C81.2381 41.9749 81.2073 42.0697 81.2004 42.1428C81.1791 42.2006 81.1473 42.254 81.1068 42.3004C81.0725 42.3427 81.0302 42.3496 80.9571 42.3496C80.857 42.3349 80.7618 42.2966 80.6795 42.2376C80.5367 42.1611 80.3699 42.0697 80.1792 41.9749C79.9539 41.8749 79.7218 41.7909 79.4846 41.7236C79.2125 41.6429 78.93 41.6033 78.6462 41.6059C78.4326 41.6059 78.2189 41.6333 78.011 41.6893C77.8465 41.744 77.6943 41.8305 77.5632 41.944C77.446 42.0457 77.3564 42.1754 77.3028 42.321C77.2429 42.465 77.2129 42.6197 77.2148 42.7757C77.207 43.001 77.2754 43.2223 77.409 43.4039C77.5541 43.5913 77.7334 43.7478 77.9379 43.8643C78.1744 44.0128 78.4223 44.1442 78.6782 44.2561C78.9592 44.3749 79.2482 44.504 79.5326 44.6468C79.8296 44.7805 80.1175 44.9324 80.3939 45.1037C80.6692 45.2728 80.9194 45.4807 81.1342 45.7217C81.3592 45.965 81.5374 46.2472 81.6596 46.5556C81.8081 46.9178 81.879 47.3073 81.871 47.698ZM93.9054 47.7014C93.9203 48.2177 93.8083 48.7318 93.5787 49.1944C93.3788 49.6171 93.0853 49.9872 92.7208 50.2774C92.3416 50.5744 91.9098 50.7983 91.4494 50.9376C90.9445 51.0861 90.4213 51.1592 89.8959 51.157C89.5465 51.1557 89.1979 51.1239 88.854 51.0621C88.5679 51.0052 88.285 50.9331 88.0064 50.8462C87.7943 50.762 87.5878 50.6639 87.3884 50.5527C87.264 50.4837 87.1472 50.4018 87.04 50.3082C86.9597 50.2233 86.9068 50.1163 86.8881 50.0009C86.8582 49.8035 86.843 49.6042 86.8424 49.4046C86.8367 49.2576 86.8447 49.1103 86.8664 48.9648C86.8679 48.8678 86.8821 48.7714 86.9087 48.6781C86.9316 48.6187 86.9671 48.565 87.0126 48.5204C87.0581 48.4962 87.11 48.4866 87.1611 48.493C87.2809 48.5004 87.3949 48.547 87.4855 48.6255C87.6272 48.7021 87.8157 48.8175 88.0304 48.926C88.2954 49.0436 88.5673 49.1464 88.8438 49.2333C89.1899 49.3292 89.5475 49.3761 89.9061 49.3726C90.1517 49.3783 90.3951 49.3441 90.6292 49.2721C90.8234 49.2127 91.0073 49.1213 91.1707 48.9991C91.3169 48.8814 91.4357 48.7318 91.5191 48.5627C91.5945 48.3731 91.6322 48.1698 91.6299 47.9653C91.6349 47.7432 91.5608 47.5266 91.4209 47.3541C91.2862 47.162 91.1136 46.9995 90.9137 46.8766C90.6804 46.731 90.4355 46.6049 90.1814 46.4997C89.8959 46.374 89.6148 46.2449 89.3407 46.1078C89.0481 45.9748 88.7628 45.8261 88.4862 45.6623C88.2148 45.4875 87.972 45.2717 87.7666 45.0226C87.5343 44.7841 87.3525 44.5013 87.2319 44.191C86.9407 43.3641 86.9717 42.4578 87.3188 41.6527C87.5004 41.2701 87.7677 40.9331 88.1001 40.6715C88.4435 40.402 88.8351 40.2004 89.2539 40.0775C89.961 39.8947 90.6966 39.849 91.4209 39.9461C91.6688 39.9838 91.9121 40.0409 92.152 40.1175C92.3564 40.1711 92.5552 40.2465 92.746 40.3436C92.8716 40.395 92.9882 40.4659 93.0921 40.5538C93.1378 40.5938 93.1766 40.6395 93.2109 40.6898C93.2303 40.74 93.2429 40.7926 93.2486 40.8463C93.2714 40.9251 93.2829 41.0062 93.2829 41.0873V41.8481C93.2826 41.944 93.2688 42.0394 93.2418 42.1314C93.2296 42.1926 93.1974 42.248 93.1504 42.289C93.1332 42.3077 93.1117 42.3218 93.0878 42.3302C93.0639 42.3385 93.0383 42.3409 93.0133 42.337C92.9066 42.3223 92.8045 42.2845 92.714 42.2262C92.5573 42.1308 92.3961 42.0431 92.2308 41.9635C92.0057 41.8628 91.7736 41.7788 91.5362 41.7121C91.2598 41.6315 90.9732 41.5915 90.6852 41.5933C90.475 41.5933 90.266 41.6208 90.0626 41.6779C89.8959 41.7293 89.7428 41.8161 89.6114 41.9326C89.4921 42.0331 89.4011 42.163 89.3475 42.3096C89.2915 42.454 89.2655 42.6083 89.271 42.7631C89.2629 42.9864 89.3261 43.2065 89.4515 43.3914C89.5954 43.5821 89.7771 43.7386 89.9861 43.8529C90.2226 44.0025 90.4705 44.1339 90.7263 44.2436C91.0073 44.3624 91.2998 44.4914 91.5842 44.6354C91.8778 44.769 92.1622 44.9221 92.4353 45.0923C92.7151 45.2579 92.9676 45.4659 93.1824 45.7092C93.4062 45.9548 93.5844 46.2369 93.7078 46.5442C93.8518 46.912 93.9192 47.305 93.9054 47.7003V47.7014ZM0 29.367L11.8643 0.54248H18.8782L30.7402 29.3658H23.604L20.8453 22.6695H9.93258L7.1807 29.3658H0V29.367ZM15.3941 7.46273L11.308 17.5255H19.4825L15.3929 7.46159L15.3941 7.46273ZM32.2366 0.543623H38.6394V16.6985C38.6394 19.1111 38.6394 21.0176 39.4036 22.2388C40.3483 23.7204 42.3908 24.223 46.0463 24.223H51.2565V29.3658H43.2521C41.9327 29.3658 36.8437 29.5406 34.2848 26.8835C32.0904 24.5966 32.2355 21.4894 32.2355 16.6985V0.543623H32.2366ZM75.6521 0.543623V5.68298H67.7072C64.4001 5.68298 63.0899 5.80521 61.4129 7.07891C60.4911 7.77801 59.5395 9.8068 59.5395 12.449H72.7106V17.6124H59.5384C59.5384 20.162 60.5116 21.7784 61.6894 22.7985C63.3572 24.2299 64.9999 24.223 67.9665 24.223H75.651V29.3658H67.7061C62.842 29.3658 60.2363 29.2436 56.8699 26.5523C54.0255 24.2859 52.6147 20.3757 52.6147 14.7954C52.6147 9.9633 53.8827 6.35353 56.3044 3.86667C58.9135 1.21303 61.5158 0.54248 65.3369 0.54248H75.6521V0.543623ZM88.8118 14.7954L79.3944 0.543623H86.8801L92.5118 10.0021L98.6233 0.543623H106.01L96.2998 14.7954L106.01 29.3658H98.8358L92.5118 19.4675L86.3204 29.3658H79.054L88.8129 14.7954H88.8118Z" fill="#B9B9B9"/>
</svg>
