<svg width="123" height="44" viewBox="0 0 123 44" fill="none" xmlns="http://www.w3.org/2000/svg">
<path d="M0.0955811 40.5023V3.28366C0.304629 2.7297 0.637949 2.23107 1.0699 1.82611C1.50185 1.42116 2.02092 1.12067 2.5872 0.947761H39.8058C40.3597 1.15687 40.8583 1.49017 41.2633 1.92209C41.6683 2.35401 41.9688 2.87304 42.1419 3.43927V40.6579C41.9329 41.2119 41.5997 41.7106 41.1677 42.1156C40.7357 42.5205 40.2166 42.821 39.6502 42.9938H2.43164C1.87757 42.7849 1.37882 42.4517 0.973816 42.0197C0.568812 41.5878 0.26835 41.0686 0.0955811 40.5023ZM20.0026 29.8725C20.0026 29.5261 20.0026 29.2462 20.0026 28.9662C20.0023 27.4359 20.0137 25.9055 19.9967 24.3753C20.0112 24.2194 19.9937 24.0622 19.9453 23.9133C19.897 23.7644 19.8188 23.6269 19.7155 23.5093C19.6122 23.3916 19.486 23.2962 19.3446 23.229C19.2032 23.1617 19.0496 23.124 18.8932 23.1181C18.7367 23.1161 18.5814 23.1461 18.4368 23.2062C18.2923 23.2662 18.1615 23.3552 18.0525 23.4675C17.9435 23.5799 17.8586 23.7133 17.8029 23.8596C17.7473 24.0059 17.722 24.162 17.7287 24.3183C17.7064 26.2115 17.6871 28.1061 17.739 29.9981C17.7378 30.2852 17.7946 30.5696 17.9061 30.8342C18.0177 31.0987 18.1816 31.338 18.3879 31.5377C18.5943 31.7373 18.839 31.8931 19.1071 31.9957C19.3753 32.0983 19.6614 32.1456 19.9484 32.1348C20.7259 32.155 21.505 32.1565 22.2825 32.1344C22.5698 32.1432 22.856 32.0944 23.1241 31.9909C23.3923 31.8875 23.637 31.7314 23.844 31.532C24.051 31.3325 24.216 31.0937 24.3293 30.8296C24.4426 30.5654 24.502 30.2813 24.5039 29.9939C24.5385 26.1814 24.5386 22.3686 24.5042 18.5556C24.5218 17.9995 24.3192 17.459 23.9405 17.0515C23.5618 16.6439 23.0376 16.4023 22.4817 16.3791C19.0066 16.3359 15.5307 16.3502 12.0552 16.3656C11.9106 16.3555 11.7654 16.3767 11.6298 16.4279C11.4941 16.479 11.3711 16.5589 11.2691 16.6619C11.1671 16.765 11.0886 16.8889 11.0389 17.0251C10.9892 17.1613 10.9695 17.3066 10.9811 17.4511C10.965 17.5946 10.9797 17.7398 11.0241 17.8771C11.0686 18.0144 11.1418 18.1407 11.239 18.2475C11.3361 18.3543 11.4549 18.4391 11.5874 18.4963C11.7199 18.5536 11.8631 18.5819 12.0074 18.5794C12.2403 18.5956 12.4738 18.5997 12.7071 18.5916C15.5862 18.5922 18.4653 18.5924 21.3444 18.592H22.1942V29.8728L20.0026 29.8725ZM29.039 14.0756C29.039 14.5506 29.0244 14.8868 29.042 15.2213C29.0339 15.3707 29.0566 15.5202 29.1086 15.6606C29.1606 15.8009 29.2409 15.929 29.3445 16.037C29.448 16.1451 29.5727 16.2307 29.7106 16.2886C29.8486 16.3465 29.997 16.3754 30.1467 16.3736C30.2959 16.3775 30.4442 16.3507 30.5826 16.2948C30.721 16.239 30.8464 16.1553 30.9511 16.0489C31.0558 15.9426 31.1376 15.8159 31.1913 15.6767C31.245 15.5374 31.2695 15.3887 31.2634 15.2396C31.2769 14.9808 31.2672 14.7207 31.2669 14.4612C31.2641 12.6638 30.4497 11.8387 28.6707 11.8383C23.2995 11.837 17.9283 11.8369 12.5571 11.8379C12.4015 11.8379 12.2453 11.8309 12.0902 11.84C11.9465 11.8304 11.8024 11.8508 11.6671 11.8999C11.5317 11.9489 11.408 12.0256 11.3039 12.1251C11.1997 12.2245 11.1174 12.3444 11.0621 12.4774C11.0068 12.6103 10.9797 12.7533 10.9826 12.8973C10.9637 13.0404 10.9754 13.1859 11.0169 13.3243C11.0583 13.4626 11.1285 13.5905 11.223 13.6997C11.3175 13.8089 11.434 13.8969 11.5649 13.9578C11.6958 14.0187 11.8382 14.0511 11.9826 14.053C12.2409 14.0768 12.5005 14.0841 12.7598 14.0749C17.8456 14.076 22.9313 14.0763 28.0171 14.0757L29.039 14.0756ZM55.7885 11.5237V3.2051H52.6133V1.0886H61.2596V3.2051H58.0845V11.5237H55.7885ZM71.6128 10.1298C71.0918 10.6477 70.4709 11.0541 69.788 11.3245C69.105 11.5948 68.3742 11.7234 67.6399 11.7025C66.9084 11.7245 66.1802 11.597 65.4996 11.3279C64.8191 11.0587 64.2006 10.6536 63.682 10.1373C63.1713 9.64054 62.7681 9.04411 62.4975 8.38502C62.227 7.72593 62.0948 7.01826 62.1092 6.30594C62.0968 5.59371 62.2313 4.88656 62.5045 4.22868C62.7777 3.57081 63.1837 2.97633 63.697 2.48243C64.2179 1.96453 64.8387 1.55801 65.5216 1.28759C66.2046 1.01716 66.9354 0.888493 67.6696 0.909407C68.4011 0.887439 69.1294 1.01495 69.81 1.28413C70.4905 1.55332 71.109 1.95852 71.6275 2.47494C72.1382 2.97163 72.5414 3.56802 72.8119 4.22705C73.0825 4.88608 73.2147 5.59368 73.2003 6.30594C73.2128 7.01823 73.0783 7.72544 72.8052 8.38339C72.532 9.04133 72.1261 9.63586 71.6127 10.1298H71.6128ZM65.4038 8.63145C65.6915 8.94294 66.0426 9.18923 66.4334 9.3538C66.8242 9.51836 67.2457 9.59739 67.6696 9.58556C68.0908 9.59855 68.5098 9.52071 68.8982 9.35737C69.2867 9.19402 69.6354 8.94899 69.9207 8.6389C70.5078 8.00624 70.8236 7.16869 70.8003 6.3059C70.8202 5.44315 70.4987 4.60744 69.9059 3.98036C69.6181 3.66895 69.267 3.42272 68.8762 3.25816C68.4854 3.0936 68.0639 3.01452 67.64 3.02626C67.2189 3.01332 66.7999 3.09115 66.4114 3.25449C66.023 3.41784 65.6743 3.66287 65.389 3.97292C64.8019 4.60559 64.4862 5.44312 64.5095 6.3059C64.4895 7.16865 64.8108 8.00443 65.4037 8.63148L65.4038 8.63145ZM75.2423 11.5236V1.08849H79.506C80.5725 1.03012 81.62 1.38811 82.4278 2.08701C82.785 2.4245 83.0656 2.8347 83.2508 3.28991C83.4359 3.74511 83.5212 4.23473 83.501 4.72573C83.528 5.23859 83.4341 5.75064 83.227 6.22058C83.0198 6.69052 82.7052 7.1052 82.3084 7.43124C81.4431 8.09567 80.3723 8.43593 79.2822 8.39286H77.538V11.5234L75.2423 11.5236ZM77.5382 6.35071H79.3568C79.8425 6.37876 80.3203 6.21857 80.6909 5.90348C80.8506 5.75597 80.9766 5.57573 81.0602 5.37505C81.1438 5.17437 81.1831 4.95798 81.1754 4.74071C81.1885 4.52101 81.1509 4.30126 81.0657 4.09836C80.9804 3.89547 80.8497 3.71485 80.6836 3.57048C80.2892 3.27605 79.8032 3.13085 79.312 3.16061H77.5381L77.5382 6.35071ZM57.0705 27.5463C55.4358 27.5745 53.8521 26.9772 52.643 25.8766L53.9997 24.2517C54.8552 25.0302 55.9594 25.4793 57.1153 25.519C57.5014 25.5398 57.8851 25.4464 58.2185 25.2506C58.3451 25.1726 58.4488 25.0626 58.5195 24.9318C58.5901 24.801 58.6251 24.6539 58.6209 24.5053C58.621 24.3587 58.5824 24.2147 58.5091 24.0878C58.4359 23.9609 58.3305 23.8555 58.2036 23.7822C57.6729 23.5036 57.1059 23.3004 56.519 23.1786C56.0284 23.0623 55.5455 22.9154 55.0731 22.739C54.7002 22.5922 54.3472 22.3993 54.0221 22.165C53.6989 21.9387 53.4458 21.6262 53.2916 21.2631C53.1278 20.8483 53.0493 20.4047 53.0605 19.9589C53.0457 19.526 53.13 19.0954 53.3069 18.7001C53.4839 18.3047 53.7489 17.955 54.0816 17.6777C54.8249 17.0801 55.7599 16.7729 56.7127 16.8132C58.1201 16.7881 59.4918 17.2576 60.5886 18.1399L59.396 19.8693C58.6175 19.2581 57.671 18.8991 56.683 18.8403C56.3331 18.8188 55.9856 18.9103 55.6916 19.1012C55.5818 19.1766 55.4924 19.278 55.4313 19.3963C55.3702 19.5146 55.3392 19.6462 55.3412 19.7794C55.3348 19.9339 55.3719 20.0872 55.4484 20.2216C55.5249 20.3561 55.6376 20.4663 55.7737 20.5398C56.3547 20.812 56.9649 21.0172 57.5923 21.1514C58.5019 21.3434 59.3574 21.7355 60.0967 22.2992C60.3719 22.5538 60.5869 22.8665 60.7262 23.2146C60.8654 23.5627 60.9253 23.9374 60.9016 24.3116C60.9236 24.7624 60.8401 25.212 60.6576 25.6248C60.4752 26.0376 60.199 26.4022 59.8508 26.6894C59.0532 27.2923 58.0691 27.5956 57.0705 27.5464L57.0705 27.5463ZM65.1056 27.3972V19.0788H61.9304V16.9623H70.5766V19.0788H67.4015V27.3974L65.1056 27.3972ZM72.3356 27.3972V16.9621H77.106C78.4276 16.9621 79.4413 17.3149 80.147 18.0204C80.4522 18.3412 80.6889 18.7208 80.8426 19.136C80.9964 19.5512 81.0641 19.9933 81.0415 20.4355C81.0866 21.1475 80.8905 21.854 80.4848 22.441C80.0791 23.0279 79.4875 23.461 78.8054 23.6703L81.3545 27.3972H78.6712L76.4052 24.0578H74.6313V27.3972L72.3356 27.3972ZM74.6315 22.0306H76.957C77.4252 22.0597 77.8874 21.9136 78.2538 21.6207C78.407 21.4835 78.5278 21.3141 78.6077 21.1246C78.6876 20.9351 78.7246 20.7302 78.7159 20.5248C78.7293 20.3152 78.6931 20.1055 78.6102 19.9125C78.5274 19.7196 78.4002 19.5489 78.239 19.4143C77.853 19.1401 77.3849 19.006 76.9122 19.0343H74.6315V22.0306ZM83.1133 27.3972V16.9621H90.9844V19.0046H85.3941V21.1215H90.3135V23.1637H85.3941V25.3552H91.0589V27.3974L83.1133 27.3972ZM95.5312 27.3972V19.0788H92.3561V16.9623H101.002V19.0788H97.8272V27.3974L95.5312 27.3972ZM107.204 27.5761C106.493 27.5951 105.786 27.4666 105.128 27.1985C104.47 26.9304 103.875 26.5287 103.38 26.0187C102.88 25.5148 102.486 24.915 102.224 24.2553C101.961 23.5956 101.835 22.8897 101.852 22.1799C101.836 21.4708 101.964 20.7659 102.228 20.1076C102.492 19.4492 102.886 18.851 103.387 18.3489C103.895 17.8321 104.504 17.4261 105.176 17.1567C105.848 16.8872 106.569 16.7601 107.293 16.7834C108.076 16.7592 108.855 16.9093 109.574 17.2229C110.226 17.5421 110.821 17.9679 111.333 18.4827L109.961 20.0628C109.588 19.7067 109.163 19.4079 108.702 19.176C108.253 18.981 107.767 18.8868 107.278 18.9002C106.869 18.89 106.463 18.9695 106.089 19.1331C105.714 19.2966 105.38 19.5402 105.109 19.8468C104.535 20.4857 104.228 21.321 104.252 22.1798C104.23 23.036 104.537 23.868 105.109 24.5054C105.378 24.8139 105.712 25.0593 106.087 25.2242C106.462 25.3891 106.869 25.4694 107.278 25.4595C107.777 25.4719 108.271 25.3699 108.724 25.1613C109.198 24.9161 109.635 24.6049 110.021 24.2371L111.482 25.8026C110.967 26.3716 110.34 26.8283 109.641 27.1443C108.866 27.4534 108.037 27.6004 107.203 27.5762L107.204 27.5761ZM113.316 27.3972V16.9621H115.611V21.0916H119.845V16.9623H122.141V27.3975H119.845V23.2085H115.611V27.3975L113.316 27.3972ZM95.8941 43.0425V32.6074H98.19V43.0425H95.8941ZM100.799 43.0425V32.6074H102.916L107.805 39.0323V32.6076H110.071V43.0428H108.118L103.065 36.4088V43.0428L100.799 43.0425ZM117.599 43.2213C116.871 43.2498 116.144 43.1297 115.464 42.8683C114.783 42.6069 114.163 42.2097 113.641 41.701C113.135 41.1938 112.738 40.5882 112.475 39.9214C112.212 39.2547 112.089 38.5411 112.113 37.8248C112.1 37.1145 112.232 36.409 112.501 35.7515C112.77 35.0941 113.171 34.4985 113.679 34.0013C114.187 33.4856 114.796 33.0798 115.468 32.8092C116.14 32.5386 116.86 32.409 117.584 32.4283C118.364 32.4087 119.141 32.5274 119.88 32.7788C120.539 33.0322 121.149 33.3978 121.684 33.8595L120.238 35.6038C119.859 35.2727 119.431 35.0012 118.971 34.7987C118.505 34.6193 118.009 34.5332 117.51 34.5452C117.107 34.5408 116.708 34.6246 116.341 34.7907C115.974 34.9569 115.648 35.2012 115.385 35.5067C114.807 36.1386 114.495 36.9688 114.513 37.8248C114.484 38.7011 114.803 39.5535 115.4 40.1952C115.691 40.504 116.044 40.7475 116.436 40.9095C116.828 41.0714 117.25 41.1481 117.673 41.1343C118.442 41.1598 119.199 40.9406 119.835 40.5084V39.0176H117.524V37.0351H122.056V41.5667C120.823 42.6445 119.237 43.2332 117.599 43.2215L117.599 43.2213ZM122.044 5.63164C122.044 5.37819 121.943 5.13514 121.764 4.95593C121.584 4.77672 121.341 4.67604 121.088 4.67604H89.445C89.1915 4.67604 88.9485 4.77672 88.7693 4.95593C88.5901 5.13514 88.4894 5.37819 88.4894 5.63164C88.4894 5.88508 88.5901 6.12813 88.7693 6.30734C88.9485 6.48655 89.1915 6.58723 89.445 6.58723H121.088C121.341 6.5872 121.584 6.48654 121.764 6.30737C121.943 6.12819 122.043 5.88517 122.043 5.63177L122.044 5.63164ZM90.1777 37.7289C90.1777 37.4754 90.077 37.2324 89.8978 37.0532C89.7186 36.874 89.4756 36.7733 89.2221 36.7733H53.5302C53.2768 36.7733 53.0337 36.874 52.8545 37.0532C52.6753 37.2324 52.5746 37.4754 52.5746 37.7289C52.5746 37.9823 52.6753 38.2254 52.8545 38.4046C53.0337 38.5838 53.2768 38.6845 53.5302 38.6845H89.2221C89.4755 38.6844 89.7185 38.5838 89.8977 38.4046C90.0769 38.2254 90.1776 37.9824 90.1776 37.729L90.1777 37.7289Z" fill="#B9B9B9"/>
</svg>
