<svg width="183" height="56" viewBox="0 0 183 56" fill="none" xmlns="http://www.w3.org/2000/svg">
<path fill-rule="evenodd" clip-rule="evenodd" d="M14.5377 28.3574C14.5377 30.4588 13.7513 32.2099 12.172 33.624C10.8239 34.8333 8.90101 35.4347 6.40978 35.4347H1.73125V44.7917H0.303871V24.1018C0.303871 23.1437 0.654289 22.4168 1.35463 21.9211C1.88983 21.5447 2.50445 21.3595 3.19818 21.3595H7.52652C9.62781 21.3595 11.3196 22.0005 12.6081 23.2759C13.8968 24.5512 14.5377 26.2428 14.5377 28.3574ZM13.031 28.3776C13.031 26.6462 12.5486 25.2585 11.5904 24.221C10.5926 23.1571 9.238 22.6285 7.51986 22.6285H3.04624C2.16746 22.7604 1.73125 23.2299 1.73125 24.0426V34.1265H6.91856C8.75565 34.1265 10.2226 33.6309 11.3129 32.6463C12.4561 31.6221 13.031 30.1947 13.031 28.3776ZM30.2649 28.3574C30.2649 30.4654 29.4785 32.2232 27.9058 33.624C27.4962 33.9942 27.007 34.3114 26.4454 34.5955L30.2649 44.7917H28.7846L25.1437 35.058C24.2582 35.3088 23.2537 35.4344 22.137 35.4344H17.4584V44.7914H16.0311V24.1016C16.0311 23.1435 16.3815 22.4166 17.0818 21.9209C17.6171 21.5445 18.2316 21.3593 18.9255 21.3593H23.2537C25.3551 21.3593 27.0467 22.0003 28.3353 23.2756C29.6238 24.5509 30.2649 26.2426 30.2649 28.3572V28.3574ZM28.7582 28.3776C28.7582 26.6527 28.2692 25.2652 27.2846 24.2144C26.3 23.1572 24.952 22.6285 23.2471 22.6285H18.7734C17.8946 22.7604 17.4584 23.2299 17.4584 24.0426V34.1265H22.6457C24.4828 34.1265 25.9498 33.6309 27.0401 32.6463C28.1832 31.6221 28.7582 30.1947 28.7582 28.3776ZM43.243 44.792H34.646C33.8398 44.792 33.1591 44.5341 32.5974 44.0188C32.0358 43.4968 31.7582 42.8426 31.7582 42.043V24.4127H31.7717C31.7717 23.5735 32.0426 22.9127 32.5713 22.417C33.1066 21.9214 33.8004 21.677 34.6463 21.677H43.2433V22.9854H34.4943C33.6221 23.1176 33.1857 23.5868 33.1857 24.393V32.5802H41.8292V33.8491H33.1857V42.076C33.1857 42.8822 33.6221 43.3514 34.4943 43.4836H43.2433L43.243 44.792ZM64.6069 44.792H63.1795V23.2629C63.1795 22.9192 63.0543 22.7475 62.8031 22.7475C62.6111 22.7475 62.4595 22.9193 62.3472 23.2629L56.565 42.7435C56.1555 44.1378 55.5276 44.8317 54.6752 44.8317C53.8228 44.8317 53.195 44.1377 52.7853 42.7501L47.0033 23.2629C46.8908 22.9192 46.7387 22.7475 46.5473 22.7475C46.2962 22.7475 46.1709 22.9193 46.1709 23.2629V44.8317H44.7436V23.3025C44.7436 22.0867 45.3383 21.4788 46.5278 21.4788C47.4662 21.4788 48.0806 21.9942 48.3847 23.0251L54.2658 42.8426C54.3783 43.1926 54.5165 43.3712 54.6821 43.3712C54.8405 43.3712 54.9728 43.199 55.0854 42.8625L60.9731 23.0251C61.2836 21.9942 61.9116 21.4788 62.863 21.4788C64.0261 21.4788 64.6075 22.08 64.6075 23.2893L64.6069 44.792ZM67.5343 44.792H66.1069V21.677H67.5343V44.792ZM84.365 36.6178C84.365 39.1288 83.7307 41.1509 82.4619 42.6906C81.0941 44.3558 79.1843 45.1884 76.7261 45.1884C74.2348 45.1884 72.3054 44.3625 70.9507 42.717C69.6886 41.2038 69.0608 39.1685 69.0608 36.6178V21.677H70.4881V36.0561C70.4881 41.2169 72.5697 43.8007 76.7261 43.8007C80.8694 43.8007 82.9377 41.2169 82.9377 36.0561V21.677H84.365V36.6178ZM105.735 44.792H104.308V23.2629C104.308 22.9192 104.183 22.7475 103.932 22.7475C103.74 22.7475 103.588 22.9193 103.476 23.2629L97.6937 42.7435C97.2841 44.1378 96.6562 44.8317 95.8037 44.8317C94.9513 44.8317 94.3235 44.1377 93.9139 42.7501L88.1318 23.2629C88.0193 22.9192 87.8672 22.7475 87.6759 22.7475C87.4251 22.7475 87.2995 22.9193 87.2995 23.2629V44.8317H85.8721V23.3025C85.8721 22.0867 86.4669 21.4788 87.6563 21.4788C88.5948 21.4788 89.2092 21.9942 89.5132 23.0251L95.3944 42.8426C95.5069 43.1926 95.6452 43.3712 95.8107 43.3712C95.9695 43.3712 96.1014 43.199 96.2139 42.8625L102.102 23.0251C102.412 21.9942 103.04 21.4788 103.992 21.4788C105.155 21.4788 105.736 22.08 105.736 23.2893L105.735 44.792ZM133.245 28.3577C133.245 30.459 132.458 32.2102 130.879 33.6243C129.531 34.8336 127.608 35.435 125.117 35.435H120.438V44.792H119.011V24.1021C119.011 23.144 119.361 22.4171 120.062 21.9215C120.597 21.545 121.212 21.3598 121.905 21.3598H126.234C128.335 21.3598 130.027 22.0009 131.315 23.2762C132.604 24.5515 133.245 26.2432 133.245 28.3577V28.3577ZM131.738 28.3812C131.738 26.6498 131.256 25.2621 130.298 24.2246C129.3 23.1608 127.945 22.632 126.227 22.632H121.753C120.875 22.764 120.438 23.2335 120.438 24.0463V34.1301H125.626C127.463 34.1301 128.93 33.6346 130.02 32.6499C131.163 31.6256 131.738 30.1984 131.738 28.3812ZM156.703 33.2116C156.703 37.0906 155.679 40.0112 153.631 41.9805C151.404 44.1215 148.774 45.1919 145.747 45.1919C142.384 45.1919 139.595 44.0291 137.375 41.703C135.617 39.8659 134.738 37.0377 134.738 33.2116C134.738 29.4054 135.63 26.5706 137.408 24.7202C139.602 22.4273 142.384 21.2841 145.747 21.2841C149.078 21.2841 151.846 22.447 154.067 24.7731C155.825 26.6102 156.703 29.4252 156.703 33.2116ZM155.197 33.1737C155.197 29.7376 154.477 27.2462 153.043 25.6934C151.126 23.6252 148.688 22.5942 145.747 22.5942C142.767 22.5942 140.322 23.6251 138.412 25.6803C136.965 27.233 136.245 29.731 136.245 33.1737C136.245 36.6232 136.965 39.1276 138.412 40.6871C140.335 42.7686 142.78 43.8061 145.747 43.8061C148.688 43.8061 151.126 42.762 153.043 40.6739C154.477 39.1078 155.197 36.6099 155.197 33.1737ZM169.675 44.7973H161.078C160.384 44.7973 159.77 44.6056 159.241 44.229C158.54 43.7401 158.19 43.0131 158.19 42.055V21.6824H159.618V42.0814C159.618 42.8942 160.054 43.3568 160.926 43.489H169.675V44.7973ZM182.66 44.7973H174.063C173.257 44.7973 172.576 44.5395 172.014 44.0242C171.453 43.5022 171.175 42.8479 171.175 42.0483V24.4181H171.188C171.188 23.5788 171.46 22.918 171.988 22.4224C172.523 21.9268 173.217 21.6824 174.063 21.6824H182.66V22.9907H173.911C173.039 23.123 172.603 23.5921 172.603 24.3982V32.5855H181.246V33.8544H172.603V42.0814C172.603 42.8875 173.039 43.3568 173.911 43.489H182.66L182.66 44.7973ZM109.624 0.105957H111.172V55.6219H109.624V0.105957Z" fill="#B9B9B9"/>
</svg>
