<svg width="167" height="72" viewBox="0 0 167 72" fill="none" xmlns="http://www.w3.org/2000/svg">
<path fill-rule="evenodd" clip-rule="evenodd" d="M37.3512 0L44.8086 23.1026L44.7254 23.3771C43.8616 25.0994 42.8327 25.5759 42.4303 27.7283C42.3797 27.9999 42.3294 28.3393 42.2583 28.6232C42.2091 28.6975 42.1635 28.7718 42.1203 28.8467L37.3512 14.0723L31.8115 31.2341L13.7778 31.1994L28.3877 41.7714L24.8497 52.5896C24.52 52.7841 24.1204 52.9563 23.8065 53.1031C22.0433 53.9265 20.5043 54.7928 19.5682 56.6001C19.2108 57.2901 18.766 57.8705 18.3637 58.5146L23.2986 43.4248L0.394043 26.8508L28.6662 26.9052L37.3512 0ZM54.9548 26.888L74.3083 26.8507L51.4038 43.4248L60.192 70.2964L38.9364 54.7908C39.2595 54.6446 39.587 54.4517 39.9451 54.1995C40.8343 53.5735 41.1203 53.3664 41.5493 52.5367C41.5565 52.533 41.5637 52.5292 41.5711 52.5254C41.8788 52.3625 42.1592 52.1919 42.436 51.9928L51.9201 58.9114L47.8273 46.397C48.1993 46.1653 48.5478 45.8779 48.8918 45.603C49.3346 45.2491 49.7182 45.0375 50.0725 44.5547C50.7071 43.6904 50.6869 42.7014 50.5279 41.6935C50.5251 41.6762 50.5223 41.6587 50.5194 41.6415C51.1583 41.4499 51.5718 41.0407 51.9064 40.3491C51.9133 40.3351 51.92 40.3209 51.9267 40.307C51.9286 40.3025 51.9309 40.298 51.9333 40.2939C52.0312 40.1533 52.12 40.0261 52.2063 39.8747L52.5361 39.2962L52.4165 38.641C52.3997 38.549 52.3793 38.4602 52.3546 38.3745C52.3827 38.2465 52.4004 38.1139 52.4072 37.9658C52.4165 37.7612 52.4053 37.5703 52.373 37.3875L60.9245 31.1995L55.3726 31.21C55.295 30.8363 55.154 30.4664 54.9925 30.0957C54.9441 29.9845 54.8746 29.8294 54.8183 29.6806C54.9759 29.2193 54.9683 28.7528 54.8414 28.2463C54.9256 27.9456 54.9621 27.6643 54.9582 27.3107C54.9569 27.181 54.9521 27.031 54.9548 26.888Z" fill="#B9B9B9"/>
<path fill-rule="evenodd" clip-rule="evenodd" d="M45.069 40.9248C45.3324 40.361 45.6555 40.1868 45.8954 39.6855C46.4651 38.4955 46.3714 38.0806 47.3359 36.9668C47.4597 36.824 47.731 36.534 47.8592 36.4725C48.0733 36.3705 48.4746 36.2933 48.7624 36.2399C48.9958 36.7057 49.0703 36.7352 48.7795 37.1439C48.4444 37.6152 48.5961 37.7708 48.9925 37.9797C48.9688 38.2423 48.8778 38.5324 48.762 38.7673C48.5783 39.141 48.3873 39.0867 48.3412 39.4786C48.5602 39.8027 49.1616 39.9609 49.6455 39.9396C49.6686 39.9385 49.6918 39.9374 49.7145 39.9355C50.1337 39.9015 50.1338 39.8165 50.2649 39.5426C50.2692 39.5345 50.2728 39.5261 50.2764 39.5178C50.4187 39.2254 50.4666 39.2337 50.6174 38.9693C50.5612 38.6622 50.4712 38.7902 50.4442 38.5164C50.4163 38.241 50.5677 38.1569 50.5801 37.8828C50.607 37.2914 50.118 37.5122 50.609 36.7542C51.1908 35.8562 50.6791 36.0604 51.8301 34.914C52.2354 34.5103 52.8969 33.8899 53.0703 33.0859C53.3401 31.8288 53.9774 32.3439 53.3158 30.8265C52.4161 28.7605 53.3613 29.6451 53.0347 28.5743C52.8311 27.9075 53.1374 28.0428 53.1294 27.3307C53.1151 25.9792 53.2126 26.546 53.2494 25.9086C53.2794 25.4009 53.021 25.1452 53.2883 24.6347C53.6887 23.8701 54.5421 24.0485 54.2657 22.6391C54.1074 21.8341 54.11 22.0978 54.6183 21.6718C54.629 21.3636 54.4616 21.0416 54.5367 20.8532C54.619 20.6481 54.8837 20.5465 54.9402 20.1531C55.0668 19.2654 54.5396 19.2196 55.3847 18.5292C55.443 17.9353 55.2811 17.9694 55.228 17.5466C55.1947 17.2833 55.2546 17.284 55.2062 17.021C55.1672 16.807 55.0942 16.7908 55.044 16.6304C54.893 16.1475 55.6675 15.7426 55.6371 15.1162C55.6123 14.6156 55.2959 14.778 55.4617 14.2158C55.6962 13.4243 55.7658 13.4067 55.9388 12.4539C56.0435 11.8765 56.2167 12.28 56.4647 11.8052C56.3279 11.5169 56.2893 11.5712 56.031 11.4463C56.0798 11.1753 56.1964 11.0578 56.1943 10.8556C56.1904 10.5536 56.0402 10.595 55.8986 10.3928C56.2399 9.77218 57.0954 8.96519 56.9156 8.14448C56.5892 7.94388 56.3091 8.00068 56.0507 7.68499C55.7467 7.31429 55.8768 7.21609 55.3996 6.99608C53.2767 6.01617 53.0967 7.02008 52.057 8.26856C51.842 8.52696 51.6284 8.69835 51.4569 9.00376C51.1872 9.48225 51.2803 9.47086 50.7641 9.72187C49.6605 10.2587 50.1655 10.5525 49.8086 11.4486C49.7173 11.6771 49.6576 11.665 49.7302 11.8792C49.9061 12.4008 50.17 12.7909 50.0314 13.6097C49.894 14.4239 50.0046 15.2792 49.8338 16.0818C49.6512 16.9427 49.1973 16.7295 49.1327 18.1311C48.7076 18.403 48.6039 18.4002 48.2856 18.8431C48.0248 19.2059 47.5868 19.3522 47.4156 19.6591C47.5156 19.9735 47.6156 19.974 47.789 20.2074C47.6043 20.9562 47.492 21.1586 46.9875 21.5233C46.9422 21.8575 46.9992 21.9839 46.9775 22.2549L46.4325 24.0498C45.3143 26.376 44.5741 26.213 44.228 28.0642C43.8349 30.1663 44.0129 28.9267 43.414 30.3729C42.7131 32.0669 42.2966 31.1456 42.2317 32.2804C42.193 32.9553 42.3014 32.9865 42.0078 33.5917C41.8144 33.9915 41.6273 34.1929 41.523 34.6702C41.3851 35.3062 41.422 35.3645 40.9882 35.7078C40.6978 35.9378 40.5096 36.3153 40.213 36.5058C39.769 36.7899 39.7148 36.795 39.3212 37.1896C38.8923 37.6207 38.4303 38.0088 37.9938 38.3706C37.1613 39.0621 36.423 39.6589 36.1893 40.2783C35.3618 42.4669 35.8839 41.0027 35.6502 42.4115C35.3163 42.6437 34.9771 42.8387 34.6793 43.0803C33.9345 43.6854 32.8758 44.0752 32.1694 44.7468C31.9876 44.9195 31.9336 45.0469 31.7469 45.1889C31.3191 45.5151 31.195 45.4648 30.9171 46.0176C30.5479 46.751 30.4372 46.3982 30.0417 46.8709C29.9003 47.0398 29.8878 47.1717 29.7406 47.3541C29.5312 47.6131 28.5898 48.5492 28.7891 48.7987C28.8384 48.861 28.8451 49.0543 29.3097 48.8142C29.5692 48.6805 29.496 48.6435 29.8335 48.5667C29.9674 48.7956 29.9899 48.7177 30.0968 48.9731C29.9584 49.2557 29.5918 49.4844 29.3805 49.7315C29.1018 50.056 29.106 50.2939 28.9086 50.7555C28.7413 51.1485 28.3751 51.1956 28.0865 51.4239C27.6507 51.7695 27.9228 51.8279 27.2826 52.1186C27.2554 52.6734 27.4626 52.6162 27.072 53.0022C26.8616 53.2102 26.6865 53.4425 26.5104 53.6202C26.421 53.7105 26.3208 53.7958 26.212 53.8781C25.7753 54.2049 25.198 54.4713 24.5804 54.76C23.3382 55.3399 21.9339 56.0089 21.1921 57.4413C20.6586 58.4713 19.9528 59.2009 19.4825 60.2868C19.0486 61.2886 18.8197 61.5347 18.5234 61.7788C18.3822 61.8949 18.2261 62.0106 18.0252 62.2075C17.8384 62.3909 17.6209 62.6593 17.4182 62.7835C16.7933 63.1655 16.4262 62.9206 16.0366 63.6909C15.5829 64.5881 15.7566 64.4019 14.6989 64.6219C13.8632 64.7963 13.8085 65.256 12.9223 65.1755C12.2067 65.1097 11.596 64.8232 11.144 65.5064C10.656 66.2451 10.7153 66.3544 9.77827 66.2877C7.35318 66.1153 5.12728 67.0768 3.65389 67.1279C3.03699 67.1494 2.14828 67.2284 2.25978 67.9547C2.31299 68.3004 2.55847 68.3869 2.80547 68.5223C3.56567 68.9394 3.27066 68.9709 4.28926 69.2998C4.65116 69.4167 4.72705 69.6182 5.03184 69.7459C5.37644 69.8905 5.49004 69.798 5.86204 70.0184C6.81772 70.5846 8.36423 70.8687 9.50132 70.9549C9.93111 70.9873 10.208 70.9018 10.6365 70.9611C13.2056 71.3157 12.065 70.2649 14.0448 70.0082C17.4113 69.5727 19.5222 67.7889 21.6698 67.3803C22.049 67.308 22.1113 67.1219 22.2844 66.794C22.4901 66.4046 22.9059 65.7449 23.2788 65.2491C23.4322 65.0455 23.5783 64.8699 23.6994 64.7515C23.9944 64.4634 24.095 64.4804 24.3372 64.1999C24.365 63.6731 24.0843 63.6146 24.1986 63.222C24.2329 63.1044 24.5176 62.637 24.6067 62.4416C24.9305 61.732 25.4219 61.9143 24.9832 60.7634C24.5718 59.6833 24.7849 59.7648 25.2186 58.9854C25.4834 58.5092 25.4485 58.7081 25.9423 58.5314C27.036 58.1392 26.9371 57.4327 28.4512 58.665C30.0899 59.9978 30.0983 57.3553 30.6922 56.6492C30.9528 56.3392 31.6966 55.9427 32.1512 55.6671C32.684 55.3447 33.2014 55.1842 33.7555 54.9061C34.5621 54.501 34.5475 54.1582 35.0989 53.8086C36.5683 52.8771 37.1091 53.9595 38.8921 52.7041C39.7467 52.1028 39.7049 52.1669 40.0584 51.4258C40.2376 51.0501 40.3904 51.0809 40.7157 50.9087C41.0269 50.7442 41.2353 50.6121 41.4882 50.4188C41.8056 50.1759 41.7828 50.1292 41.9933 49.7432C42.2869 49.2037 42.909 49.0284 42.9928 48.3018C43.0468 47.8305 42.7836 47.9403 42.5743 47.4672C42.7268 47.2697 43.1487 47.0728 43.4405 46.7996C44.0794 46.1997 44.9812 44.8993 45.7722 44.6117C46.2988 45.4567 46.816 44.9207 47.75 44.1743C48.5647 43.5232 48.9682 43.5467 48.7211 41.9784C48.6672 41.6382 48.543 41.1896 48.3584 40.7995C48.134 40.3267 47.8216 39.9389 47.4385 39.933C47.078 39.928 46.5913 40.2331 46.1645 40.3229C45.4473 40.4733 45.4879 40.7092 45.069 40.9248ZM36.0077 46.0323C35.7048 46.3998 35.5326 46.4705 35.1937 46.79C34.252 47.6775 34.9334 47.6256 33.1782 47.9282C31.7345 48.1772 31.1959 48.566 30.8537 48.6166C30.9922 48.1752 30.9699 48.5662 30.9064 48.0033C30.8204 47.2422 31.4655 47.5992 32.2356 47.0007C32.6232 46.7004 32.3887 46.8885 32.7939 46.8674C33.1013 46.8513 33.0334 46.7585 33.228 46.5749C33.4491 46.3668 34.8883 45.8128 35.2916 45.4822C35.6917 45.153 35.5684 44.9849 36.2053 44.8242C37.3101 44.5451 37.104 43.8905 37.7059 43.203C37.7454 43.2705 37.7262 43.1583 37.7409 43.3423L37.6544 44.5137C37.627 45.9372 37.0755 44.7367 36.0077 46.0323Z" fill="#B9B9B9"/>
<path d="M61.306 49.7545H75.0986V70.2965H70.6967V54.1564H65.7079V70.2965H61.306V49.7545ZM78.4146 49.7545H88.9498L90.9452 70.2965H86.5434L86.1032 65.4544H81.2612L80.821 70.2965H76.4191L78.4146 49.7545ZM81.6427 61.0526H85.7217L85.0761 54.1564H82.2883L81.6427 61.0526ZM90.1529 49.7545H103.945V54.1564H99.25V70.2965H94.8483V54.1564H90.1529L90.1529 49.7545ZM105.266 49.7545H119.058V64.1339H109.668V70.2965H105.266V49.7545ZM109.668 54.1564V59.732H114.657V54.1564H109.668ZM131.472 49.7545H135.874V70.2965H131.472V58.0301L125.661 70.2965H121.259V49.7545H125.661V62.021L131.472 49.7545ZM138.221 49.7545H152.014V70.2965H138.221V49.7545ZM142.623 54.1564V65.8946H147.612V54.1564H142.623ZM152.924 49.7545H166.716V54.1564H162.021V70.2965H157.619V54.1564H152.924L152.924 49.7545Z" fill="#B9B9B9"/>
<path d="M61.3061 39.3368H66.7951V47.512H65.0433V41.0886H63.0579V47.512H61.3061L61.3061 39.3368ZM68.1149 39.3368H72.3076L73.1017 47.512H71.3499L71.1747 45.585H69.2477L69.0725 47.512H67.3207L68.1149 39.3368ZM69.3995 43.8331H71.0229L70.766 41.0886H69.6565L69.3995 43.8331ZM73.6273 39.3368H79.1162V45.0594H75.379V47.512H73.6272L73.6273 39.3368ZM75.3791 41.0886V43.3076H77.3645V41.0886H75.3791ZM81.7441 44.2653V47.512H79.9923V39.3368H81.7441V42.5134H82.5499L84.0798 39.3368H85.925L83.9513 43.2842L86.0419 47.512H84.1149L82.5499 44.2653H81.7441Z" fill="#B9B9B9"/>
</svg>
