<svg width="143" height="40" viewBox="0 0 143 40" fill="none" xmlns="http://www.w3.org/2000/svg">
<path d="M36.0511 15.9876L33.7642 30.4468C33.6167 31.1107 33.2478 31.4796 32.5839 31.4796C32.2888 31.4796 32.0675 31.4058 31.92 31.1845C31.7724 30.9632 31.6986 30.7418 31.7724 30.373L34.0593 15.9139C34.2069 15.2499 34.5757 14.8811 35.2397 14.8811C35.5347 14.8811 35.7561 14.9548 35.9036 15.1761C36.1249 15.3975 36.1249 15.6188 36.0511 15.9876ZM35.6823 11.8564C32.0675 11.8564 29.8544 13.2581 29.2642 16.504L27.1248 30.0041C26.756 33.0288 28.7478 34.5779 32.215 34.5779C35.8298 34.5779 38.043 33.2501 38.5594 30.0041L40.6987 16.6516C41.2151 13.4056 39.2971 11.8564 35.6823 11.8564Z" fill="#B9B9B9"/>
<path d="M93.4452 34.3561L97.7977 6.61816H93.0026L88.5763 34.3561H93.4452Z" fill="#B9B9B9"/>
<path d="M51.9859 12.0035V11.8559C50.2891 11.6346 48.3711 12.0035 47.1907 13.4789L46.3055 12.0772H43.4284L39.8874 34.4299H44.6825L47.3383 17.8314C47.7071 15.5445 49.8465 15.8396 51.3219 16.2084L51.9859 12.0035ZM54.0514 6.61816L49.6252 34.3561H54.4203L58.8466 6.61816H54.0514Z" fill="#B9B9B9"/>
<path d="M66.1501 15.9871L63.8632 30.4462C63.7156 31.1102 63.3468 31.479 62.6828 31.479C62.3877 31.479 62.1664 31.4053 62.0189 31.1839C61.8713 30.9626 61.7976 30.7413 61.8713 30.3725L64.1582 15.9871C64.3058 15.3232 64.6746 14.9543 65.3386 14.9543C65.6337 14.9543 65.855 15.0281 66.0025 15.2494C66.1501 15.3969 66.2238 15.692 66.1501 15.9871ZM67.5517 6.61816L66.5927 12.8149C65.9287 12.151 64.9697 11.8559 63.7156 11.8559C61.1336 11.8559 59.8795 13.1838 59.5107 15.7658L57.15 30.7413C56.7074 33.3233 58.109 34.6512 60.691 34.6512C62.314 34.6512 63.4943 34.1348 64.3796 33.0282L65.191 34.4299H68.0681L72.4944 6.69194H67.5517V6.61816Z" fill="#B9B9B9"/>
<path d="M118.158 11.7832C114.47 11.7832 112.331 13.0373 111.74 16.4308L111.445 17.9062C111.076 19.9718 111.519 21.7423 113.142 23.0702L115.945 25.5784C116.462 26.021 116.683 26.6112 116.609 27.2014L116.093 30.3735C115.945 31.0375 115.576 31.4063 114.912 31.4063C114.617 31.4063 114.396 31.3325 114.249 31.1112C114.101 30.8899 114.027 30.6686 114.101 30.2997L114.691 26.3899H110.117L109.527 29.8571C109.085 32.9555 111.15 34.5047 114.47 34.5047C118.38 34.5047 120.372 33.1768 120.962 29.9309L121.331 27.9391C121.699 25.8735 121.404 23.8817 119.781 22.6276L116.831 20.0456C116.24 19.6029 116.019 19.0865 116.167 18.3488L116.535 15.9144C116.683 15.2504 117.052 14.8816 117.716 14.8816C118.011 14.8816 118.232 14.9554 118.38 15.1767C118.527 15.398 118.601 15.6193 118.527 15.9882L118.011 19.2341H122.732L123.175 16.6521C123.691 13.8488 122.29 11.7832 118.158 11.7832Z" fill="#B9B9B9"/>
<path d="M131.585 11.7832C127.896 11.7832 125.757 13.0373 125.167 16.4308L124.872 17.9062C124.503 19.9718 124.946 21.7423 126.569 23.0702L129.372 25.5784C129.888 26.021 130.11 26.6112 130.036 27.2014L129.519 30.3735C129.372 31.0375 129.003 31.4063 128.339 31.4063C128.044 31.4063 127.823 31.3325 127.675 31.1112C127.528 30.8899 127.454 30.6686 127.528 30.2997L128.118 26.3899H123.544L122.954 29.8571C122.511 32.9555 124.577 34.5047 127.896 34.5047C131.806 34.5047 133.798 33.1768 134.388 29.9309L134.757 27.9391C135.126 25.8735 134.831 23.8817 133.208 22.6276L130.257 20.0456C129.667 19.6029 129.446 19.0865 129.593 18.3488L129.962 15.9144C130.11 15.2504 130.478 14.8816 131.142 14.8816C131.437 14.8816 131.659 14.9554 131.806 15.1767C131.954 15.398 132.028 15.6193 131.954 15.9882L131.437 19.2341H136.159L136.601 16.6521C137.118 13.8488 135.716 11.7832 131.585 11.7832Z" fill="#B9B9B9"/>
<path d="M102.74 30.4468C102.593 31.1107 102.224 31.4796 101.56 31.4796C101.265 31.4796 101.044 31.4058 100.896 31.1845C100.748 31.0369 100.748 30.8156 100.748 30.5943C100.748 30.5205 100.748 30.4468 100.748 30.373L101.339 26.4631C101.486 25.6516 101.855 25.1352 102.593 24.6926L103.699 24.1024L102.74 30.4468ZM104.732 11.8564C101.117 11.8564 98.8304 13.2581 98.2402 16.504L97.7976 19.3073H102.593L103.109 15.9876C103.257 15.3237 103.625 14.9548 104.289 14.9548C104.585 14.9548 104.806 15.0286 104.953 15.2499C105.101 15.4712 105.175 15.6925 105.101 16.0614L104.437 20.3401L100.011 22.7008C97.9451 23.8074 96.9123 25.209 96.5435 27.4959L96.0271 30.7418C95.5844 33.3238 96.9861 34.6517 99.5681 34.6517C101.191 34.6517 102.371 34.1353 103.257 33.0288L104.068 34.4304H106.945L109.749 16.6516C110.265 13.3319 108.052 11.8564 104.732 11.8564Z" fill="#B9B9B9"/>
<path d="M85.0352 6.39722C81.4204 6.39722 78.9122 7.87264 78.3958 11.1186L75.4449 29.6351C74.9285 32.8073 76.7728 34.5778 80.9778 34.5778C84.445 34.5778 86.8057 33.1024 87.3959 29.8564L88.5024 23.3646H83.6335V23.4383L82.527 30.3728C82.4532 31.1105 82.0106 31.4794 81.3466 31.4794C81.0515 31.4794 80.7565 31.4056 80.6089 31.1843C80.4614 30.963 80.3876 30.6679 80.4614 30.2991L83.6335 10.6022C83.7811 9.86446 84.1499 9.4956 84.8139 9.4956C85.109 9.4956 85.404 9.56937 85.5516 9.79069C85.6991 10.012 85.7729 10.3071 85.6991 10.6759L84.7401 16.4301H89.609L90.4205 11.3399C90.7893 7.94641 88.65 6.39722 85.0352 6.39722Z" fill="#B9B9B9"/>
<path d="M139.921 17.3154L137.782 30.7418C137.265 33.8402 136.527 37.75 129.224 37.75H80.904C77.363 37.75 74.9286 37.0123 73.5269 35.2418C72.1991 33.6188 71.8302 31.9959 71.8302 31.9959L70.8712 37.8238H32.2151C28.5266 37.8238 26.461 36.791 25.4282 35.6107C25.4282 35.6107 25.4282 35.5369 25.3544 35.5369L24.6905 37.8238H2.85421V3.07759H35.166L33.4692 8.53666H50.2153L51.1005 3.07759H76.404L75.6663 8.31534L76.9204 6.83992C78.986 4.40548 81.9368 3.07759 85.0352 3.07759H101.855L100.97 8.83174L101.781 8.6842C102.667 8.46289 103.699 8.38912 104.732 8.38912C107.24 8.38912 109.306 9.05306 110.855 10.3072L111.224 10.6022L111.593 10.3072C113.29 9.05306 115.503 8.38912 118.232 8.38912C120.814 8.38912 122.88 8.97928 124.355 10.2334L124.65 10.5285L125.019 10.2334C126.642 8.97928 128.929 8.38912 131.659 8.38912C134.831 8.38912 137.118 9.27437 138.667 11.1186C139.552 12.2252 140.511 14.217 139.921 17.3154ZM0.714844 39.8894H26.2396L26.5347 39.0041C27.9364 39.7418 29.7807 39.8894 32.2151 39.8894H72.7892L73.1581 37.75C75.0023 39.2254 77.5106 39.8894 80.9778 39.8894H129.298C138.446 39.8894 139.478 34.209 139.995 31.1106L142.134 17.6843C142.872 13.7744 141.544 11.1924 140.29 9.717C138.372 7.35632 135.421 6.24975 131.659 6.17598C128.929 6.17598 126.642 6.76615 124.724 7.79895C122.954 6.69238 120.814 6.17598 118.232 6.17598C115.503 6.17598 113.142 6.76615 111.224 7.87272C109.453 6.76615 107.314 6.17598 104.732 6.17598C104.363 6.17598 103.921 6.17598 103.552 6.24975L104.363 0.938232H89.609H85.0352C82.8221 0.938232 80.609 1.5284 78.6909 2.63497L78.9122 0.938232H49.33L48.4448 6.3973H36.4201L38.043 0.938232H0.714844V39.8894Z" fill="#B9B9B9"/>
<path d="M21.8135 34.2826L30.2971 6.54468H25.502L21.0757 20.5612H20.7807L20.8544 6.54468H15.5429L11.338 20.635H11.0429V6.54468H6.32152V34.2826H11.4117L16.1331 18.3481H16.4282L16.7232 34.2826H21.8135Z" fill="#B9B9B9"/>
</svg>
