<svg width="166" height="44" viewBox="0 0 166 44" fill="none" xmlns="http://www.w3.org/2000/svg">
<path d="M21.2967 7.15606C21.7416 9.23765 19.5712 11.0102 17.4426 11.0102C15.314 11.0102 13.5935 9.28463 13.5885 7.15606C13.5788 3.11292 19.3552 0.0872596 19.1791 0.607629C18.0983 3.80067 20.8001 4.83225 21.2967 7.15606Z" fill="#B9B9B9"/>
<path d="M46.034 17.2349C52.3746 17.2349 57.4971 21.8957 57.4971 28.3201C57.4971 34.7863 52.3746 39.4892 46.034 39.4892C39.6938 39.4892 34.6132 34.7863 34.6132 28.3201C34.6132 21.8957 39.6938 17.2349 46.034 17.2349ZM46.034 35.9619C50.065 35.9619 53.3402 32.771 53.3402 28.3201C53.3402 23.9111 50.065 20.7622 46.034 20.7622C42.0451 20.7622 38.7701 23.9111 38.7701 28.3201C38.7701 32.771 42.0451 35.9619 46.034 35.9619Z" fill="#B9B9B9"/>
<path d="M62.7467 21.0139H59.9755V17.7388H62.8307V11.9023H66.8196V17.7388H71.9002V21.0139H66.8196V30.7553C66.8196 34.9961 69.7589 35.5421 71.3126 35.5421C71.9002 35.5421 72.2782 35.4583 72.2782 35.4583V39.0691C72.2782 39.0691 71.7325 39.1531 70.8506 39.1531C68.1633 39.1531 62.7467 38.3131 62.7467 31.2173V21.0139Z" fill="#B9B9B9"/>
<path d="M81.1155 22.3143C81.1155 22.3143 82.2128 23.6856 83.9131 23.6856C84.7727 23.6856 85.5223 23.3017 85.5223 22.497C85.5223 20.8329 80.4754 21.0159 80.4754 18.0349C80.4754 16.2613 82.0299 15.4382 83.9131 15.4382C85.0286 15.4382 86.9491 15.8222 86.9491 17.2303V18.1083H85.358V17.651C85.358 17.1024 84.5349 16.8645 83.9681 16.8645C82.9257 16.8645 82.2493 17.2303 82.2493 17.9617C82.2493 19.7176 87.2962 19.3332 87.2962 22.424C87.2962 24.0697 85.8333 25.1305 83.895 25.1305C81.4264 25.1305 80.2011 23.5027 80.2011 23.5027L81.1155 22.3143Z" fill="#B9B9B9"/>
<path d="M89.6367 17.0848H88.4298V15.6584H89.6734V13.1167H91.4105V15.6584H93.6233V17.0848H91.4105V21.3274C91.4105 23.1744 92.6908 23.4121 93.3674 23.4121C93.6233 23.4121 93.788 23.3755 93.788 23.3755V24.9481C93.788 24.9481 93.5501 24.9846 93.1663 24.9846C91.9958 24.9846 89.6367 24.6188 89.6367 21.5284V17.0848Z" fill="#B9B9B9"/>
<path d="M96.0004 17.5779C96.0004 17.3037 95.8542 17.1755 95.5982 17.1755H94.8486V15.6578H96.5308C97.3354 15.6578 97.7193 15.9868 97.7193 16.7366V17.3219C97.7193 17.6877 97.683 17.9618 97.683 17.9618H97.7193C98.1583 16.6086 99.2187 15.5481 100.645 15.5481C100.883 15.5481 101.121 15.5847 101.121 15.5847V17.3401C101.121 17.3401 100.883 17.2852 100.59 17.2852C99.4566 17.2852 98.4141 18.0899 97.9938 19.4616C97.8291 19.9917 97.7743 20.5586 97.7743 21.1258V24.911H96.0004V17.5779Z" fill="#B9B9B9"/>
<path d="M106.46 15.4382C109.057 15.4382 110.447 17.3768 110.447 19.7724C110.447 20.0098 110.392 20.5037 110.392 20.5037H103.644C103.754 22.479 105.18 23.5943 106.826 23.5943C108.417 23.5943 109.533 22.5154 109.533 22.5154L110.301 23.7773C110.301 23.7773 108.929 25.1305 106.735 25.1305C103.809 25.1305 101.816 23.0273 101.816 20.2844C101.816 17.3401 103.827 15.4382 106.46 15.4382ZM108.618 19.2053C108.563 17.6691 107.594 16.8464 106.442 16.8464C105.089 16.8464 103.992 17.6691 103.718 19.2053H108.618Z" fill="#B9B9B9"/>
<path d="M112.879 17.0848H111.672V15.6584H112.916V13.1167H114.653V15.6584H116.865V17.0848H114.653V21.3274C114.653 23.1744 115.933 23.4121 116.61 23.4121C116.865 23.4121 117.03 23.3755 117.03 23.3755V24.9481C117.03 24.9481 116.792 24.9846 116.408 24.9846C115.238 24.9846 112.879 24.6188 112.879 21.5284V17.0848Z" fill="#B9B9B9"/>
<path d="M123.156 15.4382C124.272 15.4382 126.484 15.8956 126.484 17.468V18.4191H124.875V17.907C124.875 17.2488 123.833 16.9562 123.156 16.9562C121.346 16.9562 119.993 18.3094 119.993 20.2663C119.993 22.3691 121.529 23.5576 123.248 23.5576C124.985 23.5576 126.119 22.2775 126.119 22.2775L126.887 23.5394C126.887 23.5394 125.57 25.1305 123.12 25.1305C120.212 25.1305 118.182 23.0639 118.182 20.2844C118.182 17.5598 120.176 15.4382 123.156 15.4382Z" fill="#B9B9B9"/>
<path d="M128.697 13.9207C128.697 13.6462 128.551 13.5182 128.294 13.5182H127.544V12.0002H129.3C130.123 12.0002 130.471 12.3478 130.471 13.1344V16.7367C130.471 17.1755 130.434 17.5049 130.434 17.5049H130.471C130.873 16.6086 132.062 15.4383 133.909 15.4383C136.085 15.4383 137.072 16.6272 137.072 18.9861V22.9908C137.072 23.2651 137.218 23.393 137.475 23.393H138.224V24.911H136.487C135.664 24.911 135.317 24.5635 135.317 23.7406V19.3883C135.317 18.09 135.042 17.066 133.561 17.066C132.153 17.066 131.019 18.0168 130.635 19.3519C130.507 19.7177 130.471 20.1382 130.471 20.5771V24.911H128.697V13.9207Z" fill="#B9B9B9"/>
<path d="M140.236 17.5778C140.236 17.3036 140.089 17.1754 139.833 17.1754H139.083V15.6577H140.821C141.644 15.6577 141.991 16.0049 141.991 16.828V22.9907C141.991 23.265 142.138 23.3929 142.393 23.3929H143.143V24.9109H141.406C140.583 24.9109 140.236 24.5633 140.236 23.7405V17.5778Z" fill="#B9B9B9"/>
<path d="M145.173 17.5779C145.173 17.3037 145.026 17.1754 144.771 17.1754H144.021V15.6578H145.721C146.508 15.6578 146.892 16.005 146.892 16.6816V17.0292C146.892 17.3219 146.855 17.5598 146.855 17.5598H146.892C147.257 16.7551 148.355 15.4382 150.366 15.4382C152.561 15.4382 153.548 16.6271 153.548 18.986V22.9907C153.548 23.265 153.695 23.3929 153.951 23.3929H154.7V24.9109H152.944C152.122 24.9109 151.774 24.5634 151.774 23.7405V19.3882C151.774 18.0899 151.518 17.0659 150.037 17.0659C148.611 17.0659 147.477 17.9985 147.111 19.3332C146.983 19.699 146.947 20.1196 146.947 20.577V24.9109H145.173V17.5779Z" fill="#B9B9B9"/>
<path d="M159.802 15.4382C162.106 15.4382 162.764 16.883 162.764 16.883H162.801C162.801 16.883 162.801 16.7366 162.801 16.5904C162.801 16.0418 163.093 15.6578 163.825 15.6578H165.544V17.1754H164.812C164.575 17.1754 164.41 17.3037 164.41 17.5412V24.527C164.41 27.5807 162.088 28.7511 159.747 28.7511C158.632 28.7511 157.498 28.4402 156.584 27.9831L157.187 26.5567C157.187 26.5567 158.321 27.1785 159.71 27.1785C161.32 27.1785 162.636 26.4652 162.636 24.6V23.9783C162.636 23.6856 162.673 23.3929 162.673 23.3929H162.636C162.088 24.2892 161.228 24.801 159.875 24.801C157.315 24.801 155.742 22.7349 155.742 20.0648C155.742 17.4132 157.223 15.4382 159.802 15.4382ZM162.691 20.0833C162.691 17.6691 161.503 16.9743 160.076 16.9743C158.467 16.9743 157.553 18.1447 157.553 20.0283C157.553 21.9484 158.558 23.265 160.223 23.265C161.503 23.265 162.691 22.497 162.691 20.0833Z" fill="#B9B9B9"/>
<path d="M81.3413 36.9102C81.3413 36.9102 82.4386 38.2814 84.139 38.2814C84.9985 38.2814 85.7482 37.8975 85.7482 37.093C85.7482 35.4289 80.7013 35.6119 80.7013 32.6309C80.7013 30.8573 82.2558 30.0342 84.139 30.0342C85.2545 30.0342 87.1749 30.4181 87.1749 31.8262V32.7042H85.5839V32.2469C85.5839 31.6982 84.7608 31.4604 84.1939 31.4604C83.1516 31.4604 82.4751 31.8262 82.4751 32.5577C82.4751 34.3134 87.5221 33.9292 87.5221 37.02C87.5221 38.6655 86.0592 39.7263 84.1209 39.7263C81.6522 39.7263 80.427 38.0986 80.427 38.0986L81.3413 36.9102Z" fill="#B9B9B9"/>
<path d="M89.8626 31.6799H88.6557V30.2535H89.8993V27.7117H91.6364V30.2535H93.8492V31.6799H91.6364V35.9223C91.6364 37.7694 92.9167 38.0071 93.5932 38.0071C93.8492 38.0071 94.0139 37.9705 94.0139 37.9705V39.5432C94.0139 39.5432 93.7761 39.5795 93.3921 39.5795C92.2217 39.5795 89.8626 39.2138 89.8626 36.1234V31.6799Z" fill="#B9B9B9"/>
<path d="M96.1898 32.1737C96.1898 31.8992 96.0433 31.7713 95.7874 31.7713H95.0377V30.2537H96.7749C97.6162 30.2537 97.9635 30.6009 97.9635 31.3873V35.776C97.9635 37.0563 98.2197 38.0803 99.6825 38.0803C101.584 38.0803 102.7 36.4163 102.7 34.5875V30.2537H104.474V37.5865C104.474 37.8608 104.62 37.9887 104.876 37.9887H105.626V39.5067H103.925C103.139 39.5067 102.755 39.1408 102.755 38.4824V38.1352C102.755 37.8425 102.773 37.6048 102.773 37.6048H102.736C102.353 38.5192 101.164 39.7263 99.3353 39.7263C97.2504 39.7263 96.1898 38.6289 96.1898 36.1786V32.1737Z" fill="#B9B9B9"/>
<path d="M110.892 30.0341C113.032 30.0341 113.745 31.4604 113.745 31.4604H113.781C113.781 31.4604 113.745 31.1864 113.745 30.8388V28.5166C113.745 28.2421 113.598 28.1141 113.342 28.1141H112.593V26.5962H114.348C115.171 26.5962 115.519 26.9438 115.519 27.7665V37.5865C115.519 37.8608 115.665 37.9887 115.921 37.9887H116.671V39.5067H114.97C114.165 39.5067 113.836 39.1408 113.836 38.5192C113.836 38.2451 113.854 38.0436 113.854 38.0436H113.818C113.818 38.0436 113.05 39.7263 110.782 39.7263C108.277 39.7263 106.704 37.7514 106.704 34.8803C106.704 31.936 108.442 30.0341 110.892 30.0341ZM113.799 34.8621C113.799 33.2162 112.94 31.5702 111.166 31.5702C109.722 31.5702 108.515 32.7773 108.515 34.8803C108.515 36.892 109.594 38.1901 111.13 38.1901C112.501 38.1901 113.799 37.2209 113.799 34.8621Z" fill="#B9B9B9"/>
<path d="M118.737 32.1737C118.737 31.8992 118.59 31.7713 118.335 31.7713H117.585V30.2537H119.322C120.145 30.2537 120.492 30.6009 120.492 31.4241V37.5865C120.492 37.8608 120.639 37.9887 120.895 37.9887H121.644V39.5067H119.907C119.084 39.5067 118.737 39.1591 118.737 38.3363V32.1737Z" fill="#B9B9B9"/>
<path d="M127.752 30.0342C130.513 30.0342 132.744 32.0641 132.744 34.8621C132.744 37.678 130.513 39.7263 127.752 39.7263C124.991 39.7263 122.778 37.678 122.778 34.8621C122.778 32.0641 124.991 30.0342 127.752 30.0342ZM127.752 38.1901C129.508 38.1901 130.934 36.8004 130.934 34.8621C130.934 32.9417 129.508 31.5703 127.752 31.5703C126.015 31.5703 124.588 32.9417 124.588 34.8621C124.588 36.8004 126.015 38.1901 127.752 38.1901Z" fill="#B9B9B9"/>
<path d="M120.685 27.9583C120.685 28.625 120.145 29.1655 119.478 29.1655C118.811 29.1655 118.271 28.625 118.271 27.9583C118.271 27.2915 118.811 26.751 119.478 26.751C120.145 26.751 120.685 27.2915 120.685 27.9583Z" fill="#B9B9B9"/>
<path d="M141.032 13.3719C141.032 14.0387 140.492 14.5792 139.825 14.5792C139.158 14.5792 138.617 14.0387 138.617 13.3719C138.617 12.7051 139.158 12.1646 139.825 12.1646C140.492 12.1646 141.032 12.7051 141.032 13.3719Z" fill="#B9B9B9"/>
<path d="M19.4922 33.6266V21.5246C26.3303 21.0494 31.9942 17.9057 33.8846 13.3915L34.4835 11.9609H30.4174L30.1143 12.445C28.2309 15.4519 23.1207 17.5518 17.6875 17.5518C12.2543 17.5518 7.14421 15.4519 5.26066 12.445L4.9576 11.9609H0.891792L1.49086 13.3915C3.30111 17.7146 8.57093 20.7845 15.0195 21.4542V33.6266C8.37629 34.202 2.90937 37.3058 1.05906 41.7244L0.459991 43.155H4.5258L4.82886 42.6707C6.71252 39.6641 11.8225 37.5641 17.2558 37.5641C22.689 37.5641 27.7991 39.6641 29.6829 42.6707L29.9859 43.155H34.0519L33.4528 41.7244C31.6025 37.3058 26.1357 34.202 19.4922 33.6266Z" fill="#B9B9B9"/>
</svg>
