<svg width="209" height="47" viewBox="0 0 209 47" fill="none" xmlns="http://www.w3.org/2000/svg">
<g clip-path="url(#clip0_55_182)">
<path fill-rule="evenodd" clip-rule="evenodd" d="M1.49196 11.2743C25.4241 23.3272 16.9355 23.3411 40.8764 11.2731L23.4595 1.28946C22.0499 0.481349 20.3161 0.481926 18.907 1.28946L1.49196 11.2743ZM25.6887 9.07736C24.736 6.85736 21.9477 5.74679 19.4593 6.59704C16.9715 7.44671 15.7276 9.93512 16.6797 12.1551C17.6324 14.3746 20.4207 15.4851 22.9091 14.6349C25.3969 13.7852 26.6408 11.2968 25.6887 9.07736Z" fill="#B9B9B9"/>
<path fill-rule="evenodd" clip-rule="evenodd" d="M21.663 45.0701C26.8309 19.2359 22.4447 26.3138 41.356 12.9136L38.055 33.1839C38.0544 34.7177 37.1871 36.1341 35.7782 36.9007L21.663 45.0701Z" fill="#B9B9B9"/>
<path fill-rule="evenodd" clip-rule="evenodd" d="M20.3111 45.0701C15.1431 19.2359 19.5293 26.3138 0.618042 12.9136L3.91902 33.1839C3.9196 34.7177 4.78742 36.1341 6.19523 36.9007L20.3111 45.0701Z" fill="#B9B9B9"/>
<path fill-rule="evenodd" clip-rule="evenodd" d="M107.11 28.1468C107.04 28.7495 106.982 29.3596 107.004 29.9652C107.018 30.3455 107.077 30.8298 107.282 31.1576C107.444 31.418 107.693 31.5686 107.982 31.6599C108.49 31.818 109.1 31.8388 109.631 31.8388C110.221 31.8388 110.815 31.8266 111.4 31.7453C111.711 31.7008 112.074 31.6281 112.348 31.4723C112.538 31.3637 112.68 31.22 112.774 31.0231C112.911 30.7386 112.98 30.4009 113.025 30.091L113.129 29.311H115.931L115.858 29.8312C115.748 30.6046 115.554 31.4099 115.162 32.0944C114.832 32.6711 114.382 33.1467 113.797 33.474C113.222 33.7962 112.583 33.9872 111.932 34.0818C111.101 34.2042 110.256 34.229 109.417 34.229C108.483 34.229 107.479 34.1678 106.588 33.8752C105.86 33.6368 105.246 33.2126 104.837 32.5609C104.398 31.8589 104.253 30.9798 104.223 30.166C104.187 29.1916 104.298 28.211 104.438 27.2464C104.593 26.1721 104.825 25.0887 105.229 24.0775C105.54 23.3016 105.965 22.5559 106.57 21.9682C107.134 21.4227 107.811 21.043 108.564 20.8179C109.425 20.5604 110.343 20.4784 111.24 20.4784C112.505 20.4784 114.01 20.6481 115.046 21.4325C116.062 22.2031 116.393 23.446 116.437 24.6598C116.464 25.3848 116.396 26.1104 116.293 26.8314L116.078 28.1468H107.11ZM113.624 25.8045C113.669 25.4529 113.689 25.099 113.677 24.7475C113.658 24.2315 113.542 23.6394 113.102 23.3091C112.599 22.9293 111.663 22.8687 111.049 22.8687C110.403 22.8687 109.662 22.9328 109.069 23.2041C108.596 23.4194 108.252 23.7628 108.008 24.2177C107.748 24.702 107.591 25.2613 107.48 25.8045H113.624ZM57.8711 17.4775H59.5998C61.007 17.4775 62.6071 17.6922 63.7459 18.5817C64.8776 19.4654 65.249 20.8525 65.299 22.2228C65.3262 22.9835 65.2415 23.7472 65.1374 24.5011C64.9891 25.5771 64.7409 26.6634 64.298 27.6597C63.9365 28.4735 63.4435 29.2246 62.7722 29.8185C62.1358 30.3819 61.3871 30.7773 60.5722 31.0197C59.6573 31.2915 58.6906 31.3857 57.7392 31.3857H55.8593C55.8418 31.4999 55.8256 31.6137 55.8088 31.7262C55.653 33.4105 54.4131 33.9924 52.8524 33.9924H52.5589L52.9397 31.3857H51.2557C50.2467 31.3857 49.1859 31.2864 48.2332 30.9343C47.4084 30.6295 46.7248 30.1233 46.2493 29.3816C45.7343 28.5768 45.5489 27.6031 45.514 26.6634C45.4861 25.8916 45.5478 25.117 45.6751 24.358C45.8739 23.0032 46.2377 21.5983 46.9487 20.4132C47.5474 19.4158 48.3663 18.6354 49.4375 18.1562C50.5815 17.6437 51.8753 17.4775 53.121 17.4775H54.9537C55.2374 15.8236 56.2179 15.2881 57.8943 15.3677L58.1727 15.381L57.8711 17.4775ZM57.4938 20.0807L56.2371 28.7905H57.7746C58.5563 28.7905 59.4074 28.6906 60.1129 28.3374C60.7227 28.0308 61.1639 27.5615 61.4807 26.9653C61.9015 26.1739 62.1154 25.2423 62.2387 24.3608C62.3172 23.8009 62.3804 23.2301 62.3602 22.6638C62.334 21.9584 62.1735 21.1717 61.6021 20.6943C60.9855 20.1777 59.956 20.0807 59.1788 20.0807H57.4938ZM54.5753 20.0807H53.0384C52.248 20.0807 51.3615 20.1714 50.6483 20.5298C50.0502 20.8305 49.6148 21.286 49.3079 21.8753C48.8941 22.6696 48.6831 23.622 48.5505 24.4977C48.4749 25.0737 48.4087 25.6608 48.4302 26.2414C48.4558 26.9353 48.6105 27.7157 49.1743 28.1838C49.7938 28.6992 50.8546 28.7905 51.6329 28.7905H53.3187L54.5753 20.0807ZM129.256 28.6282L129.154 29.1414C128.984 29.9894 128.757 30.8528 128.375 31.6321C128.073 32.2474 127.66 32.8074 127.102 33.219C126.55 33.627 125.904 33.8729 125.233 34.0108C124.386 34.1857 123.507 34.229 122.644 34.229C121.725 34.229 120.73 34.165 119.856 33.8655C119.142 33.6184 118.541 33.1935 118.144 32.5436C117.719 31.8475 117.576 30.9903 117.546 30.1862C117.511 29.2182 117.619 28.249 117.762 27.292C117.959 25.962 118.236 24.5201 118.827 23.3033C119.288 22.3526 119.973 21.5838 120.937 21.1197C121.995 20.6083 123.282 20.4784 124.447 20.4784C125.645 20.4784 127.091 20.5991 128.152 21.1936C129.181 21.7708 129.573 22.8012 129.615 23.9262C129.626 24.2339 129.606 24.5409 129.57 24.8485L129.468 25.6383H126.721L126.801 25.1129C126.85 24.7978 126.894 24.4734 126.882 24.1547C126.867 23.775 126.76 23.4368 126.412 23.2381C125.897 22.9443 124.821 22.9161 124.226 22.9161C123.602 22.9161 122.792 22.9645 122.225 23.2417C121.754 23.4725 121.458 23.9233 121.267 24.3937C120.889 25.3202 120.722 26.4019 120.583 27.3889C120.467 28.2057 120.364 29.0404 120.394 29.8664C120.409 30.2606 120.466 30.7553 120.67 31.0994C120.824 31.3602 121.049 31.5207 121.335 31.6137C121.807 31.7677 122.367 31.792 122.86 31.792C123.516 31.792 124.323 31.7701 124.943 31.5566C125.33 31.4226 125.629 31.194 125.829 30.8373C125.984 30.5625 126.095 30.2589 126.182 29.9581C126.533 28.7293 127.861 28.4788 128.979 28.5982L129.256 28.6282ZM94.2527 25.7571H99.8938L100.311 22.8151C100.401 21.2599 101.748 20.7018 103.14 20.6926L103.434 20.6902L101.806 31.9992C101.694 33.5294 100.341 33.9941 98.9964 33.9941H98.7028L99.5352 28.1705H93.8941L93.3477 31.9808C93.2645 33.5358 91.8794 33.9924 90.5286 33.9924H90.2351L91.8428 22.8277C91.9951 21.477 93.4169 20.6926 94.68 20.6926H94.9723L94.2527 25.7571ZM86.6289 23.1059L85.3414 31.9853C85.1461 33.444 83.8731 34.0409 82.5119 33.9918L82.2282 33.9814L83.8063 23.1059H79.5131L79.5341 22.8346C79.6014 21.9314 80.013 21.0885 80.9064 20.7971L80.9041 20.6926H81.161H81.551C81.5899 20.692 81.6295 20.6915 81.6638 20.6926H90.7478H91.2761L90.9465 23.1059H86.6289ZM69.0231 29.1426L75.907 20.6926H78.9621L77.3852 31.6471C77.316 32.125 77.2218 32.6256 76.9585 33.0406C76.4371 33.8625 75.4367 34.0091 74.5358 33.9924L74.2481 33.9872L75.5461 25.0541L68.2262 33.9924H65.5252L67.1444 22.7394C67.2636 21.9094 67.613 21.1365 68.4535 20.8254C68.9801 20.6303 69.4056 20.6926 69.9461 20.6926H70.2392L69.0231 29.1426Z" fill="#B9B9B9"/>
<path fill-rule="evenodd" clip-rule="evenodd" d="M184.535 29.1278L191.42 20.6779H194.475L192.898 31.6329C192.829 32.1115 192.735 32.6108 192.472 33.0258C191.95 33.8483 190.949 33.995 190.049 33.9782L189.76 33.9724L191.059 25.0394L183.739 33.9782H181.039L182.658 22.7252C182.777 21.8958 183.126 21.1223 183.966 20.8106C184.493 20.6161 184.919 20.6779 185.459 20.6779H185.753L184.535 29.1278ZM203.277 28.9986H200.288L197.083 33.9921H193.844L197.444 28.5731C197.007 28.3895 196.636 28.1027 196.326 27.739C195.81 27.1306 195.59 26.3831 195.561 25.5987C195.551 25.3187 195.568 25.0371 195.61 24.7605C195.733 23.9351 195.991 23.1039 196.489 22.4227C196.924 21.8277 197.48 21.37 198.168 21.0882C198.839 20.8146 199.555 20.6923 200.28 20.6923H207.294L205.666 31.9995C205.493 33.4842 204.187 33.9921 202.844 33.9921H202.55L203.277 28.9986ZM204.131 23.1056H200.705C200.186 23.1056 199.49 23.1697 199.071 23.5016C198.669 23.8214 198.507 24.4114 198.438 24.8904C198.411 25.1392 198.37 25.399 198.379 25.65C198.389 25.9005 198.439 26.2128 198.675 26.3549C199.015 26.5581 199.692 26.5846 200.086 26.5846H203.615L204.131 23.1056ZM163.598 26.0806C163.618 25.9324 163.637 25.7828 163.659 25.6344C163.736 25.119 163.805 24.5891 163.784 24.0667C163.772 23.7961 163.724 23.4341 163.54 23.2205C163.36 23.0133 163.059 22.9175 162.799 22.869C162.191 22.757 161.556 22.7513 160.939 22.7513C160.39 22.7513 159.789 22.7593 159.254 22.8915C158.985 22.9579 158.716 23.075 158.538 23.2932C158.328 23.5524 158.219 23.9437 158.161 24.2589L158.09 25.0024H155.222L155.298 24.4806C155.406 23.7418 155.61 22.9723 156.011 22.3339C156.346 21.8023 156.786 21.3659 157.353 21.079C157.883 20.8106 158.461 20.649 159.052 20.5814C159.774 20.4972 160.503 20.4792 161.229 20.4792C162.155 20.4792 163.099 20.5134 164.007 20.7015C164.72 20.8499 165.378 21.1599 165.867 21.7065C166.401 22.3021 166.584 23.1011 166.612 23.8791C166.632 24.3801 166.587 24.8835 166.514 25.3799L165.549 31.9944C165.41 33.5696 164.246 34.1162 162.79 34.0977L162.505 34.0937L162.538 33.8449C161.529 34.1237 159.879 34.2287 158.929 34.2287C157.807 34.2287 156.431 34.1324 155.424 33.6089C154.422 33.0893 154.069 32.0826 154.03 31.0189C154.013 30.59 154.055 30.1604 154.105 29.7281C154.242 28.8225 154.529 27.8799 155.124 27.1624C155.646 26.535 156.312 26.1101 157.102 25.8954C157.994 25.6524 158.947 25.5877 159.869 25.5912C160.973 25.5963 162.573 25.5127 163.598 26.0806ZM163.072 29.862C163.102 29.5995 163.147 29.3241 163.138 29.058C163.129 28.8219 163.079 28.5269 162.892 28.3613C162.667 28.161 162.267 28.075 161.975 28.0357C161.173 27.9277 160.355 27.9335 159.55 27.9335C158.928 27.9335 158.05 27.9878 157.505 28.3065C157.006 28.5979 156.676 29.1821 156.595 29.7426C156.55 30.0548 156.43 30.4162 156.442 30.7279C156.451 30.9905 156.499 31.2964 156.698 31.4893C157.111 31.8898 158.307 31.8633 158.856 31.8633C159.661 31.8633 160.478 31.8581 161.274 31.7409C161.725 31.6757 162.133 31.5106 162.473 31.207C162.844 30.8739 163.003 30.3331 163.072 29.862ZM171.515 25.7574H177.155L177.638 22.3442C177.795 21.03 179.29 20.6738 180.407 20.6923L180.696 20.6969L179.068 32.003C178.923 33.345 177.466 33.995 176.251 33.9921H175.958L176.796 28.1702H171.156L170.609 31.9874C170.422 33.4177 169.104 33.9921 167.791 33.9921H167.497L169.157 22.4621C169.285 21.5685 170.177 20.7391 171.097 20.6923H172.233L171.515 25.7574ZM141.875 29.8194L148.981 17.1637C149.225 16.7417 149.34 16.4849 149.725 16.1501C150.432 15.5365 151.384 15.3437 152.299 15.3437H154.061L151.656 31.985C151.5 33.3946 150.024 33.9921 148.763 33.9921H148.47L150.55 19.6083L142.525 33.9921H140.194L136.221 19.6048L134.422 32.0047C134.221 33.5638 132.937 33.9921 131.532 33.9921H131.24L133.612 17.5788C133.713 16.8844 134.1 16.292 134.665 15.8794C135.122 15.5458 135.735 15.309 136.303 15.3437H137.991L141.875 29.8194Z" fill="#B9B9B9"/>
</g>
<defs>
<clipPath id="clip0_55_182">
<rect width="207.633" height="45.4581" fill="white" transform="translate(0.618042 0.68457)"/>
</clipPath>
</defs>
</svg>
