<svg width="142" height="147" viewBox="0 0 142 147" fill="none" xmlns="http://www.w3.org/2000/svg">
<path d="M17.7308 23.1494V16.5622H20.441C21.0244 16.5622 21.5232 16.6563 21.9372 16.8445C22.3576 17.0327 22.6807 17.3024 22.9065 17.6538C23.1324 18.0051 23.2453 18.4223 23.2453 18.9053C23.2453 19.3884 23.1324 19.8056 22.9065 20.1569C22.6807 20.5082 22.3576 20.778 21.9372 20.9662C21.5232 21.1544 21.0244 21.2485 20.441 21.2485H18.4084L18.9542 20.6745V23.1494H17.7308ZM18.9542 20.8062L18.4084 20.2134H20.3845C20.9241 20.2134 21.3287 20.1005 21.5985 19.8746C21.8745 19.6425 22.0125 19.3194 22.0125 18.9053C22.0125 18.485 21.8745 18.1619 21.5985 17.9361C21.3287 17.7102 20.9241 17.5973 20.3845 17.5973H18.4084L18.9542 16.995V20.8062ZM27.2739 23.1494V22.1331L27.208 21.9167V20.1381C27.208 19.7931 27.1045 19.5264 26.8974 19.3382C26.6904 19.1437 26.3767 19.0465 25.9564 19.0465C25.6741 19.0465 25.3949 19.0904 25.1189 19.1782C24.8491 19.2661 24.6201 19.3884 24.4319 19.5452L23.9708 18.6889C24.2406 18.4819 24.5605 18.3282 24.9307 18.2278C25.3071 18.1211 25.6961 18.0678 26.0976 18.0678C26.8253 18.0678 27.3868 18.2435 27.782 18.5948C28.1835 18.9398 28.3843 19.4762 28.3843 20.204V23.1494H27.2739ZM25.6929 23.2153C25.3165 23.2153 24.9871 23.1526 24.7048 23.0271C24.4225 22.8953 24.2029 22.7165 24.0461 22.4907C23.8955 22.2586 23.8203 21.9982 23.8203 21.7096C23.8203 21.4273 23.8861 21.1732 24.0179 20.9474C24.1559 20.7215 24.3786 20.5427 24.686 20.411C24.9934 20.2793 25.4012 20.2134 25.9094 20.2134H27.368V20.9944H25.9941C25.5925 20.9944 25.3228 21.0603 25.1848 21.1921C25.0467 21.3175 24.9777 21.4744 24.9777 21.6626C24.9777 21.8759 25.0624 22.0453 25.2318 22.1707C25.4012 22.2962 25.6365 22.3589 25.9376 22.3589C26.2262 22.3589 26.4834 22.2931 26.7092 22.1613C26.9414 22.0296 27.1076 21.8351 27.208 21.5779L27.4056 22.2837C27.2927 22.5785 27.0888 22.8075 26.7939 22.9706C26.5053 23.1337 26.1383 23.2153 25.6929 23.2153ZM32.2395 23.2435C31.8255 23.2435 31.4553 23.1808 31.1291 23.0553C30.8029 22.9298 30.5206 22.7385 30.2822 22.4813C30.05 22.2178 29.8712 21.8853 29.7458 21.4838C29.6203 21.0823 29.5576 20.6055 29.5576 20.0534C29.5576 19.6519 29.5921 19.2849 29.6611 18.9524C29.7301 18.6199 29.8336 18.3219 29.9716 18.0584C30.1096 17.7886 30.2822 17.5503 30.4892 17.3432C30.7025 17.1362 30.9503 16.9637 31.2326 16.8257C31.5149 16.6876 31.8349 16.581 32.1925 16.5057L34.5262 16.007L34.6956 17.0609L32.5783 17.4938C32.4591 17.5189 32.3148 17.5565 32.1454 17.6067C31.9823 17.6506 31.8129 17.7196 31.6373 17.8137C31.4679 17.9016 31.3079 18.0302 31.1573 18.1996C31.013 18.3627 30.8938 18.576 30.7997 18.8395C30.7119 19.0967 30.668 19.4198 30.668 19.8087C30.668 19.9279 30.6711 20.0189 30.6774 20.0816C30.6899 20.1381 30.6994 20.2008 30.7056 20.2698C30.7182 20.3326 30.7244 20.4267 30.7244 20.5522L30.2822 20.091C30.4076 19.7711 30.5802 19.4982 30.7997 19.2723C31.0256 19.0402 31.2859 18.8646 31.5808 18.7454C31.8819 18.6199 32.2081 18.5572 32.5595 18.5572C33.03 18.5572 33.4472 18.6544 33.811 18.8489C34.1749 19.0434 34.4604 19.3163 34.6674 19.6676C34.8744 20.0189 34.9779 20.4173 34.9779 20.8627C34.9779 21.3269 34.865 21.7379 34.6392 22.0955C34.4133 22.453 34.0934 22.7354 33.6793 22.9424C33.2715 23.1431 32.7916 23.2435 32.2395 23.2435ZM32.3336 22.2931C32.6159 22.2931 32.8637 22.2335 33.077 22.1143C33.2966 21.9888 33.466 21.8194 33.5852 21.6061C33.7107 21.3928 33.7734 21.1544 33.7734 20.8909C33.7734 20.6274 33.7107 20.3985 33.5852 20.204C33.466 20.0032 33.2966 19.8432 33.077 19.724C32.8637 19.6048 32.6097 19.5452 32.3148 19.5452C32.0325 19.5452 31.7784 19.6017 31.5526 19.7146C31.333 19.8276 31.1605 19.9844 31.035 20.1852C30.9158 20.3796 30.8562 20.6055 30.8562 20.8627C30.8562 21.1262 30.9189 21.3677 31.0444 21.5873C31.1699 21.8069 31.3424 21.9794 31.562 22.1049C31.7878 22.2303 32.045 22.2931 32.3336 22.2931ZM38.3562 23.2153C37.8417 23.2153 37.3838 23.1055 36.9823 22.8859C36.5808 22.6601 36.2639 22.3527 36.0318 21.9637C35.7997 21.5747 35.6836 21.1325 35.6836 20.6368C35.6836 20.135 35.7997 19.6927 36.0318 19.31C36.2639 18.921 36.5808 18.6168 36.9823 18.3972C37.3838 18.1776 37.8417 18.0678 38.3562 18.0678C38.8769 18.0678 39.338 18.1776 39.7395 18.3972C40.1473 18.6168 40.4641 18.9179 40.6899 19.3006C40.9221 19.6833 41.0381 20.1287 41.0381 20.6368C41.0381 21.1325 40.9221 21.5747 40.6899 21.9637C40.4641 22.3527 40.1473 22.6601 39.7395 22.8859C39.338 23.1055 38.8769 23.2153 38.3562 23.2153ZM38.3562 22.2084C38.6448 22.2084 38.902 22.1456 39.1278 22.0202C39.3537 21.8947 39.5293 21.7128 39.6548 21.4744C39.7865 21.236 39.8524 20.9568 39.8524 20.6368C39.8524 20.3106 39.7865 20.0315 39.6548 19.7993C39.5293 19.5609 39.3537 19.379 39.1278 19.2535C38.902 19.1281 38.6479 19.0653 38.3656 19.0653C38.077 19.0653 37.8198 19.1281 37.5939 19.2535C37.3744 19.379 37.1987 19.5609 37.067 19.7993C36.9352 20.0315 36.8693 20.3106 36.8693 20.6368C36.8693 20.9568 36.9352 21.236 37.067 21.4744C37.1987 21.7128 37.3744 21.8947 37.5939 22.0202C37.8198 22.1456 38.0739 22.2084 38.3562 22.2084ZM45.3714 21.1638C45.133 21.2768 44.879 21.3709 44.6092 21.4461C44.3457 21.5151 44.0665 21.5497 43.7717 21.5497C43.138 21.5497 42.6456 21.4022 42.2943 21.1074C41.9429 20.8125 41.7673 20.3545 41.7673 19.7335V18.1243H42.9436V19.6582C42.9436 19.9907 43.0377 20.2322 43.2259 20.3828C43.4204 20.5333 43.687 20.6086 44.0258 20.6086C44.2516 20.6086 44.4775 20.5804 44.7033 20.5239C44.9292 20.4675 45.1519 20.389 45.3714 20.2887V21.1638ZM45.2867 23.1494V18.1243H46.463V23.1494H45.2867ZM50.388 23.2153C49.8297 23.2153 49.3404 23.1055 48.92 22.8859C48.506 22.6601 48.1829 22.3527 47.9508 21.9637C47.7249 21.5747 47.612 21.1325 47.612 20.6368C47.612 20.135 47.7218 19.6927 47.9413 19.31C48.1672 18.921 48.4746 18.6168 48.8636 18.3972C49.2588 18.1776 49.7074 18.0678 50.2092 18.0678C50.6986 18.0678 51.1346 18.1745 51.5173 18.3878C51.9 18.6011 52.2011 18.9022 52.4207 19.2912C52.6403 19.6801 52.75 20.1381 52.75 20.6651C52.75 20.7153 52.7469 20.7717 52.7406 20.8345C52.7406 20.8972 52.7375 20.9568 52.7312 21.0133H48.5436V20.2322H52.1101L51.649 20.4769C51.6553 20.1883 51.5957 19.9342 51.4702 19.7146C51.3448 19.4951 51.1722 19.3225 50.9527 19.1971C50.7394 19.0716 50.4916 19.0089 50.2092 19.0089C49.9207 19.0089 49.6666 19.0716 49.447 19.1971C49.2337 19.3225 49.0643 19.4982 48.9388 19.724C48.8196 19.9436 48.76 20.204 48.76 20.5051V20.6933C48.76 20.9944 48.8291 21.2611 48.9671 21.4932C49.1051 21.7253 49.2996 21.9041 49.5505 22.0296C49.8015 22.1551 50.09 22.2178 50.4163 22.2178C50.6986 22.2178 50.9527 22.1739 51.1785 22.086C51.4044 21.9982 51.6051 21.8602 51.7808 21.672L52.4113 22.3966C52.1854 22.6601 51.9 22.864 51.5549 23.0083C51.2162 23.1463 50.8272 23.2153 50.388 23.2153ZM56.3798 23.2153C55.8214 23.2153 55.3321 23.1055 54.9118 22.8859C54.4977 22.6601 54.1746 22.3527 53.9425 21.9637C53.7167 21.5747 53.6037 21.1325 53.6037 20.6368C53.6037 20.135 53.7135 19.6927 53.9331 19.31C54.1589 18.921 54.4663 18.6168 54.8553 18.3972C55.2505 18.1776 55.6991 18.0678 56.201 18.0678C56.6903 18.0678 57.1263 18.1745 57.509 18.3878C57.8917 18.6011 58.1928 18.9022 58.4124 19.2912C58.632 19.6801 58.7418 20.1381 58.7418 20.6651C58.7418 20.7153 58.7386 20.7717 58.7324 20.8345C58.7324 20.8972 58.7292 20.9568 58.723 21.0133H54.5354V20.2322H58.1019L57.6408 20.4769C57.647 20.1883 57.5874 19.9342 57.462 19.7146C57.3365 19.4951 57.164 19.3225 56.9444 19.1971C56.7311 19.0716 56.4833 19.0089 56.201 19.0089C55.9124 19.0089 55.6583 19.0716 55.4388 19.1971C55.2255 19.3225 55.0561 19.4982 54.9306 19.724C54.8114 19.9436 54.7518 20.204 54.7518 20.5051V20.6933C54.7518 20.9944 54.8208 21.2611 54.9588 21.4932C55.0968 21.7253 55.2913 21.9041 55.5423 22.0296C55.7932 22.1551 56.0818 22.2178 56.408 22.2178C56.6903 22.2178 56.9444 22.1739 57.1703 22.086C57.3961 21.9982 57.5969 21.8602 57.7725 21.672L58.403 22.3966C58.1772 22.6601 57.8917 22.864 57.5467 23.0083C57.2079 23.1463 56.8189 23.2153 56.3798 23.2153ZM62.6291 23.1494V18.1243H65.0852C65.6937 18.1243 66.1705 18.2372 66.5155 18.4631C66.8669 18.6889 67.0425 19.0089 67.0425 19.4229C67.0425 19.8307 66.8794 20.1506 66.5532 20.3828C66.227 20.6086 65.7941 20.7215 65.2546 20.7215L65.3957 20.4298C66.0042 20.4298 66.4559 20.5427 66.7508 20.7686C67.0519 20.9882 67.2025 21.3113 67.2025 21.7379C67.2025 22.1833 67.0363 22.5315 66.7038 22.7824C66.3713 23.0271 65.8662 23.1494 65.1887 23.1494H62.6291ZM63.7489 22.2931H65.0946C65.4145 22.2931 65.6561 22.2429 65.8192 22.1425C65.9823 22.0359 66.0638 21.8759 66.0638 21.6626C66.0638 21.4367 65.9886 21.2705 65.838 21.1638C65.6874 21.0572 65.4522 21.0039 65.1322 21.0039H63.7489V22.2931ZM63.7489 20.2228H64.9817C65.2828 20.2228 65.5086 20.1695 65.6592 20.0628C65.816 19.9499 65.8945 19.7931 65.8945 19.5923C65.8945 19.3853 65.816 19.2316 65.6592 19.1312C65.5086 19.0308 65.2828 18.9806 64.9817 18.9806H63.7489V20.2228ZM71.2409 23.2153C70.8331 23.2153 70.4598 23.1212 70.121 22.933C69.7885 22.7448 69.5219 22.4625 69.3212 22.086C69.1267 21.7034 69.0294 21.2203 69.0294 20.6368C69.0294 20.0471 69.1235 19.5641 69.3117 19.1877C69.5062 18.8112 69.7697 18.5321 70.1022 18.3501C70.4347 18.1619 70.8143 18.0678 71.2409 18.0678C71.7365 18.0678 72.1725 18.1745 72.5489 18.3878C72.9316 18.6011 73.2327 18.8991 73.4523 19.2818C73.6781 19.6644 73.7911 20.1161 73.7911 20.6368C73.7911 21.1576 73.6781 21.6124 73.4523 22.0014C73.2327 22.384 72.9316 22.682 72.5489 22.8953C72.1725 23.1086 71.7365 23.2153 71.2409 23.2153ZM68.4554 24.975V18.1243H69.5752V19.31L69.5376 20.6463L69.6317 21.9825V24.975H68.4554ZM71.1091 22.2084C71.3914 22.2084 71.6424 22.1456 71.8619 22.0202C72.0878 21.8947 72.2666 21.7128 72.3983 21.4744C72.5301 21.236 72.596 20.9568 72.596 20.6368C72.596 20.3106 72.5301 20.0315 72.3983 19.7993C72.2666 19.5609 72.0878 19.379 71.8619 19.2535C71.6424 19.1281 71.3914 19.0653 71.1091 19.0653C70.8268 19.0653 70.5727 19.1281 70.3469 19.2535C70.121 19.379 69.9422 19.5609 69.8105 19.7993C69.6787 20.0315 69.6129 20.3106 69.6129 20.6368C69.6129 20.9568 69.6787 21.236 69.8105 21.4744C69.9422 21.7128 70.121 21.8947 70.3469 22.0202C70.5727 22.1456 70.8268 22.2084 71.1091 22.2084ZM77.305 23.2153C76.7466 23.2153 76.2573 23.1055 75.8369 22.8859C75.4229 22.6601 75.0998 22.3527 74.8677 21.9637C74.6418 21.5747 74.5289 21.1325 74.5289 20.6368C74.5289 20.135 74.6387 19.6927 74.8583 19.31C75.0841 18.921 75.3915 18.6168 75.7805 18.3972C76.1757 18.1776 76.6243 18.0678 77.1262 18.0678C77.6155 18.0678 78.0515 18.1745 78.4342 18.3878C78.8169 18.6011 79.118 18.9022 79.3376 19.2912C79.5572 19.6801 79.667 20.1381 79.667 20.6651C79.667 20.7153 79.6638 20.7717 79.6575 20.8345C79.6575 20.8972 79.6544 20.9568 79.6481 21.0133H75.4605V20.2322H79.0271L78.5659 20.4769C78.5722 20.1883 78.5126 19.9342 78.3871 19.7146C78.2617 19.4951 78.0892 19.3225 77.8696 19.1971C77.6563 19.0716 77.4085 19.0089 77.1262 19.0089C76.8376 19.0089 76.5835 19.0716 76.3639 19.1971C76.1506 19.3225 75.9812 19.4982 75.8558 19.724C75.7366 19.9436 75.677 20.204 75.677 20.5051V20.6933C75.677 20.9944 75.746 21.2611 75.884 21.4932C76.022 21.7253 76.2165 21.9041 76.4674 22.0296C76.7184 22.1551 77.007 22.2178 77.3332 22.2178C77.6155 22.2178 77.8696 22.1739 78.0954 22.086C78.3213 21.9982 78.522 21.8602 78.6977 21.672L79.3282 22.3966C79.1023 22.6601 78.8169 22.864 78.4718 23.0083C78.1331 23.1463 77.7441 23.2153 77.305 23.2153ZM80.9535 23.1494V18.1243H82.1863L84.2095 21.6908H83.7202L85.8469 18.1243H86.9479L86.9573 23.1494H85.894V19.3853L86.0822 19.5076L84.2001 22.6224H83.6919L81.8005 19.4229L82.0263 19.3665V23.1494H80.9535ZM91.7252 23.1494V21.4367L91.8946 21.6343H90.389C89.6989 21.6343 89.1562 21.4901 88.761 21.2015C88.372 20.9066 88.1775 20.4831 88.1775 19.9311C88.1775 19.3414 88.3845 18.8928 88.7986 18.5854C89.2189 18.278 89.7773 18.1243 90.4736 18.1243H92.7792V23.1494H91.7252ZM88.1116 23.1494L89.4667 21.2297H90.6713L89.3726 23.1494H88.1116ZM91.7252 21.0603V18.8018L91.8946 19.1124H90.5113C90.1474 19.1124 89.8651 19.1814 89.6644 19.3194C89.4699 19.4511 89.3726 19.6676 89.3726 19.9687C89.3726 20.5333 89.7396 20.8156 90.4736 20.8156H91.8946L91.7252 21.0603Z" fill="#474766"/>
<path d="M11.0547 20.6494C11.3308 20.6494 11.5547 20.4256 11.5547 20.1494C11.5547 19.8733 11.3308 19.6494 11.0547 19.6494L11.0547 20.6494ZM3.03317 19.7959C2.8379 19.9911 2.8379 20.3077 3.03316 20.503L6.21515 23.6849C6.41041 23.8802 6.72699 23.8802 6.92225 23.6849C7.11751 23.4897 7.11751 23.1731 6.92225 22.9778L4.09382 20.1494L6.92225 17.321C7.11751 17.1257 7.11751 16.8091 6.92225 16.6139C6.72699 16.4186 6.41041 16.4186 6.21515 16.6139L3.03317 19.7959ZM11.0547 19.6494L3.38672 19.6494L3.38672 20.6494L11.0547 20.6494L11.0547 19.6494Z" fill="#3CAAE1"/>
<path d="M0.896484 57.6675C0.896484 56.3367 2.45665 55.2578 4.38122 55.2578H40.1715C42.0961 55.2578 43.6562 56.3367 43.6562 57.6675V80.6167C43.6562 81.9475 42.0961 83.0264 40.1715 83.0264H4.38122C2.45665 83.0264 0.896484 81.9475 0.896484 80.6167V57.6675Z" fill="white"/>
<path d="M13.611 72.1532C13.1901 72.1532 12.8096 72.0467 12.4698 71.8337C12.1351 71.6207 11.8713 71.3113 11.6786 70.9055C11.4858 70.4946 11.3894 69.9976 11.3894 69.4143C11.3894 68.831 11.4858 68.3364 11.6786 67.9307C11.8713 67.5198 12.1351 67.2079 12.4698 66.9949C12.8096 66.7818 13.1901 66.6753 13.611 66.6753C14.0371 66.6753 14.4175 66.7818 14.7523 66.9949C15.087 67.2079 15.3508 67.5198 15.5435 67.9307C15.7413 68.3364 15.8402 68.831 15.8402 69.4143C15.8402 69.9976 15.7413 70.4946 15.5435 70.9055C15.3508 71.3113 15.087 71.6207 14.7523 71.8337C14.4175 72.0467 14.0371 72.1532 13.611 72.1532ZM13.611 71.2935C13.8596 71.2935 14.0751 71.2276 14.2577 71.0957C14.4403 70.9587 14.5824 70.7508 14.6838 70.4718C14.7903 70.1928 14.8436 69.8403 14.8436 69.4143C14.8436 68.9831 14.7903 68.6306 14.6838 68.3567C14.5824 68.0778 14.4403 67.8723 14.2577 67.7405C14.0751 67.6035 13.8596 67.535 13.611 67.535C13.3727 67.535 13.1596 67.6035 12.972 67.7405C12.7894 67.8723 12.6448 68.0778 12.5383 68.3567C12.4368 68.6306 12.3861 68.9831 12.3861 69.4143C12.3861 69.8403 12.4368 70.1928 12.5383 70.4718C12.6448 70.7508 12.7894 70.9587 12.972 71.0957C13.1596 71.2276 13.3727 71.2935 13.611 71.2935ZM18.6465 72.1532C18.2053 72.1532 17.8223 72.0873 17.4977 71.9554C17.1731 71.8235 16.922 71.6384 16.7445 71.4C16.567 71.1566 16.4782 70.8725 16.4782 70.5479C16.4782 70.2233 16.5644 69.9494 16.7369 69.7262C16.9093 69.503 17.1579 69.3331 17.4825 69.2165C17.8071 69.0998 18.1951 69.0415 18.6465 69.0415C19.098 69.0415 19.486 69.0998 19.8106 69.2165C20.1403 69.3331 20.3914 69.5056 20.5638 69.7338C20.7413 69.957 20.8301 70.2284 20.8301 70.5479C20.8301 70.8725 20.7388 71.1566 20.5562 71.4C20.3787 71.6384 20.1251 71.8235 19.7954 71.9554C19.4708 72.0873 19.0878 72.1532 18.6465 72.1532ZM18.6465 71.3772C19.0117 71.3772 19.3009 71.3011 19.5139 71.1489C19.7269 70.9968 19.8334 70.7863 19.8334 70.5175C19.8334 70.2537 19.7269 70.0458 19.5139 69.8936C19.3009 69.7414 19.0117 69.6653 18.6465 69.6653C18.2814 69.6653 17.9948 69.7414 17.7868 69.8936C17.5789 70.0458 17.4749 70.2537 17.4749 70.5175C17.4749 70.7863 17.5789 70.9968 17.7868 71.1489C17.9948 71.3011 18.2814 71.3772 18.6465 71.3772ZM18.6465 69.5588C18.2357 69.5588 17.8832 69.5056 17.589 69.3991C17.2948 69.2875 17.0666 69.1277 16.9043 68.9197C16.747 68.7067 16.6684 68.4531 16.6684 68.1589C16.6684 67.8546 16.7496 67.5934 16.9119 67.3753C17.0793 67.1521 17.3126 66.9797 17.6118 66.8579C17.9111 66.7362 18.256 66.6753 18.6465 66.6753C19.0422 66.6753 19.3896 66.7362 19.6889 66.8579C19.9881 66.9797 20.2214 67.1521 20.3888 67.3753C20.5562 67.5934 20.6399 67.8546 20.6399 68.1589C20.6399 68.4531 20.5587 68.7067 20.3964 68.9197C20.2392 69.1277 20.011 69.2875 19.7117 69.3991C19.4124 69.5056 19.0574 69.5588 18.6465 69.5588ZM18.6465 68.9502C18.961 68.9502 19.2096 68.8842 19.3922 68.7524C19.5747 68.6154 19.666 68.4328 19.666 68.2046C19.666 67.9662 19.5722 67.781 19.3845 67.6492C19.1969 67.5173 18.9509 67.4514 18.6465 67.4514C18.3422 67.4514 18.0988 67.5173 17.9162 67.6492C17.7336 67.781 17.6423 67.9662 17.6423 68.2046C17.6423 68.4328 17.731 68.6154 17.9086 68.7524C18.0911 68.8842 18.3371 68.9502 18.6465 68.9502ZM22.0652 69.2317C21.8928 69.2317 21.7457 69.1733 21.624 69.0567C21.5022 68.935 21.4414 68.7828 21.4414 68.6002C21.4414 68.4075 21.5022 68.2553 21.624 68.1437C21.7457 68.027 21.8928 67.9687 22.0652 67.9687C22.2377 67.9687 22.3848 68.027 22.5065 68.1437C22.6283 68.2553 22.6891 68.4075 22.6891 68.6002C22.6891 68.7828 22.6283 68.935 22.5065 69.0567C22.3848 69.1733 22.2377 69.2317 22.0652 69.2317ZM22.0652 72.1304C21.8928 72.1304 21.7457 72.0721 21.624 71.9554C21.5022 71.8337 21.4414 71.6815 21.4414 71.4989C21.4414 71.3062 21.5022 71.154 21.624 71.0424C21.7457 70.9258 21.8928 70.8674 22.0652 70.8674C22.2377 70.8674 22.3848 70.9258 22.5065 71.0424C22.6283 71.154 22.6891 71.3062 22.6891 71.4989C22.6891 71.6815 22.6283 71.8337 22.5065 71.9554C22.3848 72.0721 22.2377 72.1304 22.0652 72.1304ZM25.5509 72.1532C25.1299 72.1532 24.7495 72.0467 24.4096 71.8337C24.0749 71.6207 23.8111 71.3113 23.6184 70.9055C23.4256 70.4946 23.3293 69.9976 23.3293 69.4143C23.3293 68.831 23.4256 68.3364 23.6184 67.9307C23.8111 67.5198 24.0749 67.2079 24.4096 66.9949C24.7495 66.7818 25.1299 66.6753 25.5509 66.6753C25.9769 66.6753 26.3573 66.7818 26.6921 66.9949C27.0269 67.2079 27.2906 67.5198 27.4834 67.9307C27.6812 68.3364 27.7801 68.831 27.7801 69.4143C27.7801 69.9976 27.6812 70.4946 27.4834 70.9055C27.2906 71.3113 27.0269 71.6207 26.6921 71.8337C26.3573 72.0467 25.9769 72.1532 25.5509 72.1532ZM25.5509 71.2935C25.7994 71.2935 26.015 71.2276 26.1976 71.0957C26.3802 70.9587 26.5222 70.7508 26.6236 70.4718C26.7301 70.1928 26.7834 69.8403 26.7834 69.4143C26.7834 68.9831 26.7301 68.6306 26.6236 68.3567C26.5222 68.0778 26.3802 67.8723 26.1976 67.7405C26.015 67.6035 25.7994 67.535 25.5509 67.535C25.3125 67.535 25.0995 67.6035 24.9118 67.7405C24.7292 67.8723 24.5846 68.0778 24.4781 68.3567C24.3767 68.6306 24.326 68.9831 24.326 69.4143C24.326 69.8403 24.3767 70.1928 24.4781 70.4718C24.5846 70.7508 24.7292 70.9587 24.9118 71.0957C25.0995 71.2276 25.3125 71.2935 25.5509 71.2935ZM30.6701 72.1532C30.2491 72.1532 29.8687 72.0467 29.5288 71.8337C29.1941 71.6207 28.9303 71.3113 28.7376 70.9055C28.5448 70.4946 28.4485 69.9976 28.4485 69.4143C28.4485 68.831 28.5448 68.3364 28.7376 67.9307C28.9303 67.5198 29.1941 67.2079 29.5288 66.9949C29.8687 66.7818 30.2491 66.6753 30.6701 66.6753C31.0961 66.6753 31.4765 66.7818 31.8113 66.9949C32.1461 67.2079 32.4098 67.5198 32.6026 67.9307C32.8004 68.3364 32.8993 68.831 32.8993 69.4143C32.8993 69.9976 32.8004 70.4946 32.6026 70.9055C32.4098 71.3113 32.1461 71.6207 31.8113 71.8337C31.4765 72.0467 31.0961 72.1532 30.6701 72.1532ZM30.6701 71.2935C30.9186 71.2935 31.1342 71.2276 31.3168 71.0957C31.4994 70.9587 31.6414 70.7508 31.7428 70.4718C31.8493 70.1928 31.9026 69.8403 31.9026 69.4143C31.9026 68.9831 31.8493 68.6306 31.7428 68.3567C31.6414 68.0778 31.4994 67.8723 31.3168 67.7405C31.1342 67.6035 30.9186 67.535 30.6701 67.535C30.4317 67.535 30.2186 67.6035 30.031 67.7405C29.8484 67.8723 29.7038 68.0778 29.5973 68.3567C29.4959 68.6306 29.4451 68.9831 29.4451 69.4143C29.4451 69.8403 29.4959 70.1928 29.5973 70.4718C29.7038 70.7508 29.8484 70.9587 30.031 71.0957C30.2186 71.2276 30.4317 71.2935 30.6701 71.2935Z" fill="#474766"/>
<path d="M0.896484 89.5747C0.896484 88.2439 2.45665 87.165 4.38122 87.165H40.1715C42.0961 87.165 43.6562 88.2439 43.6562 89.5747V112.524C43.6562 113.855 42.0961 114.934 40.1715 114.934H4.38122C2.45665 114.934 0.896484 113.855 0.896484 112.524V89.5747Z" fill="white"/>
<path d="M13.611 104.06C13.1901 104.06 12.8096 103.954 12.4698 103.741C12.1351 103.528 11.8713 103.218 11.6786 102.813C11.4858 102.402 11.3894 101.905 11.3894 101.322C11.3894 100.738 11.4858 100.244 11.6786 99.8379C11.8713 99.4271 12.1351 99.1151 12.4698 98.9021C12.8096 98.6891 13.1901 98.5825 13.611 98.5825C14.0371 98.5825 14.4175 98.6891 14.7523 98.9021C15.087 99.1151 15.3508 99.4271 15.5435 99.8379C15.7413 100.244 15.8402 100.738 15.8402 101.322C15.8402 101.905 15.7413 102.402 15.5435 102.813C15.3508 103.218 15.087 103.528 14.7523 103.741C14.4175 103.954 14.0371 104.06 13.611 104.06ZM13.611 103.201C13.8596 103.201 14.0751 103.135 14.2577 103.003C14.4403 102.866 14.5824 102.658 14.6838 102.379C14.7903 102.1 14.8436 101.748 14.8436 101.322C14.8436 100.89 14.7903 100.538 14.6838 100.264C14.5824 99.985 14.4403 99.7796 14.2577 99.6477C14.0751 99.5107 13.8596 99.4423 13.611 99.4423C13.3727 99.4423 13.1596 99.5107 12.972 99.6477C12.7894 99.7796 12.6448 99.985 12.5383 100.264C12.4368 100.538 12.3861 100.89 12.3861 101.322C12.3861 101.748 12.4368 102.1 12.5383 102.379C12.6448 102.658 12.7894 102.866 12.972 103.003C13.1596 103.135 13.3727 103.201 13.611 103.201ZM18.3042 98.5825C18.7911 98.5825 19.2045 98.6865 19.5443 98.8945C19.8892 99.0974 20.153 99.3941 20.3356 99.7846C20.5182 100.175 20.6095 100.657 20.6095 101.23C20.6095 101.839 20.4979 102.354 20.2747 102.775C20.0566 103.196 19.7523 103.515 19.3617 103.733C18.9712 103.951 18.5172 104.06 17.9999 104.06C17.731 104.06 17.4749 104.033 17.2314 103.977C16.988 103.921 16.7775 103.835 16.5999 103.718L16.9651 102.972C17.1122 103.069 17.272 103.137 17.4445 103.178C17.6169 103.213 17.7944 103.231 17.977 103.231C18.4792 103.231 18.8773 103.076 19.1715 102.767C19.4657 102.458 19.6128 102.001 19.6128 101.398C19.6128 101.301 19.6103 101.19 19.6052 101.063C19.6001 100.931 19.5824 100.799 19.5519 100.667L19.8563 101.002C19.77 101.21 19.6458 101.385 19.4835 101.527C19.3211 101.664 19.1309 101.768 18.9128 101.839C18.6947 101.91 18.4538 101.945 18.1901 101.945C17.8451 101.945 17.5332 101.879 17.2542 101.748C16.9804 101.611 16.7622 101.42 16.5999 101.177C16.4376 100.928 16.3565 100.639 16.3565 100.31C16.3565 99.9546 16.4427 99.6502 16.6152 99.3966C16.7876 99.1379 17.0209 98.9376 17.3151 98.7956C17.6144 98.6536 17.9441 98.5825 18.3042 98.5825ZM18.3574 99.3586C18.1546 99.3586 17.9745 99.3966 17.8173 99.4727C17.66 99.5437 17.5357 99.6477 17.4445 99.7846C17.3582 99.9165 17.3151 100.076 17.3151 100.264C17.3151 100.543 17.4115 100.764 17.6042 100.926C17.797 101.088 18.0556 101.169 18.3803 101.169C18.5933 101.169 18.781 101.131 18.9433 101.055C19.1056 100.974 19.2324 100.865 19.3237 100.728C19.415 100.586 19.4606 100.429 19.4606 100.256C19.4606 100.089 19.4175 99.9393 19.3313 99.8075C19.2451 99.6705 19.1208 99.5615 18.9585 99.4803C18.7962 99.3992 18.5958 99.3586 18.3574 99.3586ZM21.8721 101.139C21.6996 101.139 21.5525 101.081 21.4308 100.964C21.3091 100.842 21.2482 100.69 21.2482 100.507C21.2482 100.315 21.3091 100.163 21.4308 100.051C21.5525 99.9343 21.6996 99.8759 21.8721 99.8759C22.0445 99.8759 22.1916 99.9343 22.3133 100.051C22.4351 100.163 22.4959 100.315 22.4959 100.507C22.4959 100.69 22.4351 100.842 22.3133 100.964C22.1916 101.081 22.0445 101.139 21.8721 101.139ZM21.8721 104.038C21.6996 104.038 21.5525 103.979 21.4308 103.863C21.3091 103.741 21.2482 103.589 21.2482 103.406C21.2482 103.213 21.3091 103.061 21.4308 102.95C21.5525 102.833 21.6996 102.775 21.8721 102.775C22.0445 102.775 22.1916 102.833 22.3133 102.95C22.4351 103.061 22.4959 103.213 22.4959 103.406C22.4959 103.589 22.4351 103.741 22.3133 103.863C22.1916 103.979 22.0445 104.038 21.8721 104.038ZM25.3577 104.06C24.9367 104.06 24.5563 103.954 24.2165 103.741C23.8817 103.528 23.618 103.218 23.4252 102.813C23.2325 102.402 23.1361 101.905 23.1361 101.322C23.1361 100.738 23.2325 100.244 23.4252 99.8379C23.618 99.4271 23.8817 99.1151 24.2165 98.9021C24.5563 98.6891 24.9367 98.5825 25.3577 98.5825C25.7838 98.5825 26.1642 98.6891 26.4989 98.9021C26.8337 99.1151 27.0974 99.4271 27.2902 99.8379C27.488 100.244 27.5869 100.738 27.5869 101.322C27.5869 101.905 27.488 102.402 27.2902 102.813C27.0974 103.218 26.8337 103.528 26.4989 103.741C26.1642 103.954 25.7838 104.06 25.3577 104.06ZM25.3577 103.201C25.6062 103.201 25.8218 103.135 26.0044 103.003C26.187 102.866 26.329 102.658 26.4305 102.379C26.537 102.1 26.5902 101.748 26.5902 101.322C26.5902 100.89 26.537 100.538 26.4305 100.264C26.329 99.985 26.187 99.7796 26.0044 99.6477C25.8218 99.5107 25.6062 99.4423 25.3577 99.4423C25.1193 99.4423 24.9063 99.5107 24.7186 99.6477C24.536 99.7796 24.3915 99.985 24.2849 100.264C24.1835 100.538 24.1328 100.89 24.1328 101.322C24.1328 101.748 24.1835 102.1 24.2849 102.379C24.3915 102.658 24.536 102.866 24.7186 103.003C24.9063 103.135 25.1193 103.201 25.3577 103.201ZM30.4769 104.06C30.0559 104.06 29.6755 103.954 29.3357 103.741C29.0009 103.528 28.7371 103.218 28.5444 102.813C28.3517 102.402 28.2553 101.905 28.2553 101.322C28.2553 100.738 28.3517 100.244 28.5444 99.8379C28.7371 99.4271 29.0009 99.1151 29.3357 98.9021C29.6755 98.6891 30.0559 98.5825 30.4769 98.5825C30.903 98.5825 31.2834 98.6891 31.6181 98.9021C31.9529 99.1151 32.2166 99.4271 32.4094 99.8379C32.6072 100.244 32.7061 100.738 32.7061 101.322C32.7061 101.905 32.6072 102.402 32.4094 102.813C32.2166 103.218 31.9529 103.528 31.6181 103.741C31.2834 103.954 30.903 104.06 30.4769 104.06ZM30.4769 103.201C30.7254 103.201 30.941 103.135 31.1236 103.003C31.3062 102.866 31.4482 102.658 31.5496 102.379C31.6562 102.1 31.7094 101.748 31.7094 101.322C31.7094 100.89 31.6562 100.538 31.5496 100.264C31.4482 99.985 31.3062 99.7796 31.1236 99.6477C30.941 99.5107 30.7254 99.4423 30.4769 99.4423C30.2385 99.4423 30.0255 99.5107 29.8378 99.6477C29.6552 99.7796 29.5106 99.985 29.4041 100.264C29.3027 100.538 29.252 100.89 29.252 101.322C29.252 101.748 29.3027 102.1 29.4041 102.379C29.5106 102.658 29.6552 102.866 29.8378 103.003C30.0255 103.135 30.2385 103.201 30.4769 103.201Z" fill="#474766"/>
<path d="M0.896484 121.482C0.896484 120.151 2.45665 119.072 4.38122 119.072H40.1715C42.0961 119.072 43.6562 120.151 43.6562 121.482V144.431C43.6562 145.762 42.0961 146.841 40.1715 146.841H4.38122C2.45665 146.841 0.896484 145.762 0.896484 144.431V121.482Z" fill="#3CAAE1"/>
<path d="M12.2416 135.892V130.946L12.6752 131.395H11.1156V130.566H13.2306V135.892H12.2416ZM16.5087 135.968C16.0877 135.968 15.7073 135.861 15.3675 135.648C15.0327 135.435 14.769 135.126 14.5762 134.72C14.3835 134.309 14.2871 133.812 14.2871 133.229C14.2871 132.645 14.3835 132.151 14.5762 131.745C14.769 131.334 15.0327 131.022 15.3675 130.809C15.7073 130.596 16.0877 130.49 16.5087 130.49C16.9348 130.49 17.3152 130.596 17.6499 130.809C17.9847 131.022 18.2484 131.334 18.4412 131.745C18.639 132.151 18.7379 132.645 18.7379 133.229C18.7379 133.812 18.639 134.309 18.4412 134.72C18.2484 135.126 17.9847 135.435 17.6499 135.648C17.3152 135.861 16.9348 135.968 16.5087 135.968ZM16.5087 135.108C16.7572 135.108 16.9728 135.042 17.1554 134.91C17.338 134.773 17.48 134.565 17.5815 134.286C17.688 134.007 17.7412 133.655 17.7412 133.229C17.7412 132.798 17.688 132.445 17.5815 132.171C17.48 131.892 17.338 131.687 17.1554 131.555C16.9728 131.418 16.7572 131.35 16.5087 131.35C16.2703 131.35 16.0573 131.418 15.8696 131.555C15.687 131.687 15.5425 131.892 15.4359 132.171C15.3345 132.445 15.2838 132.798 15.2838 133.229C15.2838 133.655 15.3345 134.007 15.4359 134.286C15.5425 134.565 15.687 134.773 15.8696 134.91C16.0573 135.042 16.2703 135.108 16.5087 135.108ZM19.9997 133.046C19.8273 133.046 19.6802 132.988 19.5585 132.871C19.4367 132.749 19.3759 132.597 19.3759 132.415C19.3759 132.222 19.4367 132.07 19.5585 131.958C19.6802 131.841 19.8273 131.783 19.9997 131.783C20.1722 131.783 20.3193 131.841 20.441 131.958C20.5627 132.07 20.6236 132.222 20.6236 132.415C20.6236 132.597 20.5627 132.749 20.441 132.871C20.3193 132.988 20.1722 133.046 19.9997 133.046ZM19.9997 135.945C19.8273 135.945 19.6802 135.887 19.5585 135.77C19.4367 135.648 19.3759 135.496 19.3759 135.313C19.3759 135.121 19.4367 134.968 19.5585 134.857C19.6802 134.74 19.8273 134.682 19.9997 134.682C20.1722 134.682 20.3193 134.74 20.441 134.857C20.5627 134.968 20.6236 135.121 20.6236 135.313C20.6236 135.496 20.5627 135.648 20.441 135.77C20.3193 135.887 20.1722 135.945 19.9997 135.945ZM22.9376 135.968C22.5622 135.968 22.1945 135.914 21.8344 135.808C21.4793 135.696 21.1801 135.544 20.9366 135.351L21.3627 134.583C21.5554 134.74 21.7887 134.867 22.0626 134.963C22.3365 135.06 22.6231 135.108 22.9224 135.108C23.2774 135.108 23.5538 135.037 23.7517 134.895C23.9495 134.748 24.0484 134.55 24.0484 134.301C24.0484 134.058 23.9571 133.865 23.7745 133.723C23.5919 133.581 23.2977 133.51 22.8919 133.51H22.405V132.833L23.9266 131.022L24.056 131.395H21.1953V130.566H24.8244V131.228L23.3028 133.039L22.7854 132.734H23.0821C23.7364 132.734 24.2259 132.881 24.5505 133.175C24.8802 133.465 25.045 133.837 25.045 134.294C25.045 134.593 24.969 134.87 24.8168 135.123C24.6646 135.377 24.4313 135.582 24.1168 135.739C23.8074 135.892 23.4144 135.968 22.9376 135.968ZM27.9136 135.968C27.4926 135.968 27.1122 135.861 26.7723 135.648C26.4376 135.435 26.1738 135.126 25.9811 134.72C25.7884 134.309 25.692 133.812 25.692 133.229C25.692 132.645 25.7884 132.151 25.9811 131.745C26.1738 131.334 26.4376 131.022 26.7723 130.809C27.1122 130.596 27.4926 130.49 27.9136 130.49C28.3396 130.49 28.72 130.596 29.0548 130.809C29.3896 131.022 29.6533 131.334 29.8461 131.745C30.0439 132.151 30.1428 132.645 30.1428 133.229C30.1428 133.812 30.0439 134.309 29.8461 134.72C29.6533 135.126 29.3896 135.435 29.0548 135.648C28.72 135.861 28.3396 135.968 27.9136 135.968ZM27.9136 135.108C28.1621 135.108 28.3777 135.042 28.5603 134.91C28.7429 134.773 28.8849 134.565 28.9863 134.286C29.0929 134.007 29.1461 133.655 29.1461 133.229C29.1461 132.798 29.0929 132.445 28.9863 132.171C28.8849 131.892 28.7429 131.687 28.5603 131.555C28.3777 131.418 28.1621 131.35 27.9136 131.35C27.6752 131.35 27.4622 131.418 27.2745 131.555C27.0919 131.687 26.9473 131.892 26.8408 132.171C26.7394 132.445 26.6887 132.798 26.6887 133.229C26.6887 133.655 26.7394 134.007 26.8408 134.286C26.9473 134.565 27.0919 134.773 27.2745 134.91C27.4622 135.042 27.6752 135.108 27.9136 135.108Z" fill="white"/>
<path d="M48.9199 89.5747C48.9199 88.2439 50.4801 87.165 52.4047 87.165H88.195C90.1195 87.165 91.6797 88.2439 91.6797 89.5747V112.524C91.6797 113.855 90.1195 114.934 88.195 114.934H52.4047C50.4801 114.934 48.9199 113.855 48.9199 112.524V89.5747Z" fill="#3CAAE1"/>
<path d="M61.6345 104.06C61.2135 104.06 60.8331 103.954 60.4933 103.741C60.1585 103.528 59.8947 103.218 59.702 102.813C59.5093 102.402 59.4129 101.905 59.4129 101.322C59.4129 100.738 59.5093 100.244 59.702 99.8379C59.8947 99.4271 60.1585 99.1151 60.4933 98.9021C60.8331 98.6891 61.2135 98.5825 61.6345 98.5825C62.0605 98.5825 62.441 98.6891 62.7757 98.9021C63.1105 99.1151 63.3742 99.4271 63.567 99.8379C63.7648 100.244 63.8637 100.738 63.8637 101.322C63.8637 101.905 63.7648 102.402 63.567 102.813C63.3742 103.218 63.1105 103.528 62.7757 103.741C62.441 103.954 62.0605 104.06 61.6345 104.06ZM61.6345 103.201C61.883 103.201 62.0986 103.135 62.2812 103.003C62.4638 102.866 62.6058 102.658 62.7072 102.379C62.8138 102.1 62.867 101.748 62.867 101.322C62.867 100.89 62.8138 100.538 62.7072 100.264C62.6058 99.985 62.4638 99.7796 62.2812 99.6477C62.0986 99.5107 61.883 99.4423 61.6345 99.4423C61.3961 99.4423 61.1831 99.5107 60.9954 99.6477C60.8128 99.7796 60.6682 99.985 60.5617 100.264C60.4603 100.538 60.4096 100.89 60.4096 101.322C60.4096 101.748 60.4603 102.1 60.5617 102.379C60.6682 102.658 60.8128 102.866 60.9954 103.003C61.1831 103.135 61.3961 103.201 61.6345 103.201ZM66.3276 98.5825C66.8145 98.5825 67.2279 98.6865 67.5678 98.8945C67.9127 99.0974 68.1764 99.3941 68.359 99.7846C68.5416 100.175 68.6329 100.657 68.6329 101.23C68.6329 101.839 68.5213 102.354 68.2981 102.775C68.08 103.196 67.7757 103.515 67.3852 103.733C66.9946 103.951 66.5406 104.06 66.0233 104.06C65.7545 104.06 65.4983 104.033 65.2549 103.977C65.0114 103.921 64.8009 103.835 64.6234 103.718L64.9886 102.972C65.1357 103.069 65.2954 103.137 65.4679 103.178C65.6403 103.213 65.8179 103.231 66.0005 103.231C66.5026 103.231 66.9008 103.076 67.195 102.767C67.4891 102.458 67.6362 102.001 67.6362 101.398C67.6362 101.301 67.6337 101.19 67.6286 101.063C67.6235 100.931 67.6058 100.799 67.5754 100.667L67.8797 101.002C67.7935 101.21 67.6692 101.385 67.5069 101.527C67.3446 101.664 67.1544 101.768 66.9363 101.839C66.7182 101.91 66.4772 101.945 66.2135 101.945C65.8686 101.945 65.5567 101.879 65.2777 101.748C65.0038 101.611 64.7857 101.42 64.6234 101.177C64.4611 100.928 64.3799 100.639 64.3799 100.31C64.3799 99.9546 64.4661 99.6502 64.6386 99.3966C64.811 99.1379 65.0444 98.9376 65.3385 98.7956C65.6378 98.6536 65.9675 98.5825 66.3276 98.5825ZM66.3809 99.3586C66.178 99.3586 65.9979 99.3966 65.8407 99.4727C65.6835 99.5437 65.5592 99.6477 65.4679 99.7846C65.3817 99.9165 65.3385 100.076 65.3385 100.264C65.3385 100.543 65.4349 100.764 65.6277 100.926C65.8204 101.088 66.0791 101.169 66.4037 101.169C66.6167 101.169 66.8044 101.131 66.9667 101.055C67.129 100.974 67.2558 100.865 67.3471 100.728C67.4384 100.586 67.4841 100.429 67.4841 100.256C67.4841 100.089 67.4409 99.9393 67.3547 99.8075C67.2685 99.6705 67.1442 99.5615 66.9819 99.4803C66.8196 99.3992 66.6193 99.3586 66.3809 99.3586ZM69.8955 101.139C69.7231 101.139 69.576 101.081 69.4542 100.964C69.3325 100.842 69.2716 100.69 69.2716 100.507C69.2716 100.315 69.3325 100.163 69.4542 100.051C69.576 99.9343 69.7231 99.8759 69.8955 99.8759C70.068 99.8759 70.2151 99.9343 70.3368 100.051C70.4585 100.163 70.5194 100.315 70.5194 100.507C70.5194 100.69 70.4585 100.842 70.3368 100.964C70.2151 101.081 70.068 101.139 69.8955 101.139ZM69.8955 104.038C69.7231 104.038 69.576 103.979 69.4542 103.863C69.3325 103.741 69.2716 103.589 69.2716 103.406C69.2716 103.213 69.3325 103.061 69.4542 102.95C69.576 102.833 69.7231 102.775 69.8955 102.775C70.068 102.775 70.2151 102.833 70.3368 102.95C70.4585 103.061 70.5194 103.213 70.5194 103.406C70.5194 103.589 70.4585 103.741 70.3368 103.863C70.2151 103.979 70.068 104.038 69.8955 104.038ZM72.8333 104.06C72.458 104.06 72.0903 104.007 71.7302 103.901C71.3751 103.789 71.0758 103.637 70.8324 103.444L71.2584 102.676C71.4512 102.833 71.6845 102.96 71.9584 103.056C72.2323 103.153 72.5189 103.201 72.8181 103.201C73.1732 103.201 73.4496 103.13 73.6474 102.988C73.8452 102.841 73.9441 102.643 73.9441 102.394C73.9441 102.151 73.8528 101.958 73.6702 101.816C73.4877 101.674 73.1935 101.603 72.7877 101.603H72.3008V100.926L73.8224 99.1151L73.9518 99.4879H71.0911V98.6586H74.7202V99.3205L73.1985 101.131L72.6812 100.827H72.9779C73.6322 100.827 74.1217 100.974 74.4463 101.268C74.776 101.557 74.9408 101.93 74.9408 102.387C74.9408 102.686 74.8647 102.962 74.7126 103.216C74.5604 103.47 74.3271 103.675 74.0126 103.832C73.7032 103.984 73.3101 104.06 72.8333 104.06ZM77.8093 104.06C77.3884 104.06 77.008 103.954 76.6681 103.741C76.3334 103.528 76.0696 103.218 75.8769 102.813C75.6841 102.402 75.5878 101.905 75.5878 101.322C75.5878 100.738 75.6841 100.244 75.8769 99.8379C76.0696 99.4271 76.3334 99.1151 76.6681 98.9021C77.008 98.6891 77.3884 98.5825 77.8093 98.5825C78.2354 98.5825 78.6158 98.6891 78.9506 98.9021C79.2853 99.1151 79.5491 99.4271 79.7418 99.8379C79.9396 100.244 80.0386 100.738 80.0386 101.322C80.0386 101.905 79.9396 102.402 79.7418 102.813C79.5491 103.218 79.2853 103.528 78.9506 103.741C78.6158 103.954 78.2354 104.06 77.8093 104.06ZM77.8093 103.201C78.0579 103.201 78.2735 103.135 78.456 103.003C78.6386 102.866 78.7807 102.658 78.8821 102.379C78.9886 102.1 79.0419 101.748 79.0419 101.322C79.0419 100.89 78.9886 100.538 78.8821 100.264C78.7807 99.985 78.6386 99.7796 78.456 99.6477C78.2735 99.5107 78.0579 99.4423 77.8093 99.4423C77.571 99.4423 77.3579 99.5107 77.1703 99.6477C76.9877 99.7796 76.8431 99.985 76.7366 100.264C76.6352 100.538 76.5844 100.89 76.5844 101.322C76.5844 101.748 76.6352 102.1 76.7366 102.379C76.8431 102.658 76.9877 102.866 77.1703 103.003C77.3579 103.135 77.571 103.201 77.8093 103.201Z" fill="white"/>
<path d="M48.9199 57.6675C48.9199 56.3367 50.4801 55.2578 52.4047 55.2578H88.195C90.1195 55.2578 91.6797 56.3367 91.6797 57.6675V80.6167C91.6797 81.9475 90.1195 83.0264 88.195 83.0264H52.4047C50.4801 83.0264 48.9199 81.9475 48.9199 80.6167V57.6675Z" fill="white"/>
<path d="M61.6345 72.1532C61.2135 72.1532 60.8331 72.0467 60.4933 71.8337C60.1585 71.6207 59.8947 71.3113 59.702 70.9055C59.5093 70.4946 59.4129 69.9976 59.4129 69.4143C59.4129 68.831 59.5093 68.3364 59.702 67.9307C59.8947 67.5198 60.1585 67.2079 60.4933 66.9949C60.8331 66.7818 61.2135 66.6753 61.6345 66.6753C62.0605 66.6753 62.441 66.7818 62.7757 66.9949C63.1105 67.2079 63.3742 67.5198 63.567 67.9307C63.7648 68.3364 63.8637 68.831 63.8637 69.4143C63.8637 69.9976 63.7648 70.4946 63.567 70.9055C63.3742 71.3113 63.1105 71.6207 62.7757 71.8337C62.441 72.0467 62.0605 72.1532 61.6345 72.1532ZM61.6345 71.2935C61.883 71.2935 62.0986 71.2276 62.2812 71.0957C62.4638 70.9587 62.6058 70.7508 62.7072 70.4718C62.8138 70.1928 62.867 69.8403 62.867 69.4143C62.867 68.9831 62.8138 68.6306 62.7072 68.3567C62.6058 68.0778 62.4638 67.8723 62.2812 67.7405C62.0986 67.6035 61.883 67.535 61.6345 67.535C61.3961 67.535 61.1831 67.6035 60.9954 67.7405C60.8128 67.8723 60.6682 68.0778 60.5617 68.3567C60.4603 68.6306 60.4096 68.9831 60.4096 69.4143C60.4096 69.8403 60.4603 70.1928 60.5617 70.4718C60.6682 70.7508 60.8128 70.9587 60.9954 71.0957C61.1831 71.2276 61.3961 71.2935 61.6345 71.2935ZM66.67 72.1532C66.2287 72.1532 65.8458 72.0873 65.5211 71.9554C65.1965 71.8235 64.9455 71.6384 64.7679 71.4C64.5904 71.1566 64.5016 70.8725 64.5016 70.5479C64.5016 70.2233 64.5879 69.9494 64.7603 69.7262C64.9328 69.503 65.1813 69.3331 65.5059 69.2165C65.8305 69.0998 66.2186 69.0415 66.67 69.0415C67.1214 69.0415 67.5094 69.0998 67.834 69.2165C68.1637 69.3331 68.4148 69.5056 68.5873 69.7338C68.7648 69.957 68.8535 70.2284 68.8535 70.5479C68.8535 70.8725 68.7622 71.1566 68.5796 71.4C68.4021 71.6384 68.1485 71.8235 67.8188 71.9554C67.4942 72.0873 67.1113 72.1532 66.67 72.1532ZM66.67 71.3772C67.0352 71.3772 67.3243 71.3011 67.5373 71.1489C67.7504 70.9968 67.8569 70.7863 67.8569 70.5175C67.8569 70.2537 67.7504 70.0458 67.5373 69.8936C67.3243 69.7414 67.0352 69.6653 66.67 69.6653C66.3048 69.6653 66.0182 69.7414 65.8103 69.8936C65.6023 70.0458 65.4983 70.2537 65.4983 70.5175C65.4983 70.7863 65.6023 70.9968 65.8103 71.1489C66.0182 71.3011 66.3048 71.3772 66.67 71.3772ZM66.67 69.5588C66.2591 69.5588 65.9066 69.5056 65.6124 69.3991C65.3183 69.2875 65.09 69.1277 64.9277 68.9197C64.7705 68.7067 64.6919 68.4531 64.6919 68.1589C64.6919 67.8546 64.773 67.5934 64.9353 67.3753C65.1027 67.1521 65.336 66.9797 65.6353 66.8579C65.9345 66.7362 66.2794 66.6753 66.67 66.6753C67.0656 66.6753 67.4131 66.7362 67.7123 66.8579C68.0116 66.9797 68.2449 67.1521 68.4123 67.3753C68.5796 67.5934 68.6633 67.8546 68.6633 68.1589C68.6633 68.4531 68.5822 68.7067 68.4199 68.9197C68.2626 69.1277 68.0344 69.2875 67.7351 69.3991C67.4359 69.5056 67.0808 69.5588 66.67 69.5588ZM66.67 68.9502C66.9845 68.9502 67.233 68.8842 67.4156 68.7524C67.5982 68.6154 67.6895 68.4328 67.6895 68.2046C67.6895 67.9662 67.5957 67.781 67.408 67.6492C67.2203 67.5173 66.9743 67.4514 66.67 67.4514C66.3657 67.4514 66.1222 67.5173 65.9396 67.6492C65.757 67.781 65.6657 67.9662 65.6657 68.2046C65.6657 68.4328 65.7545 68.6154 65.932 68.7524C66.1146 68.8842 66.3606 68.9502 66.67 68.9502ZM70.0887 69.2317C69.9162 69.2317 69.7691 69.1733 69.6474 69.0567C69.5257 68.935 69.4648 68.7828 69.4648 68.6002C69.4648 68.4075 69.5257 68.2553 69.6474 68.1437C69.7691 68.027 69.9162 67.9687 70.0887 67.9687C70.2611 67.9687 70.4082 68.027 70.53 68.1437C70.6517 68.2553 70.7126 68.4075 70.7126 68.6002C70.7126 68.7828 70.6517 68.935 70.53 69.0567C70.4082 69.1733 70.2611 69.2317 70.0887 69.2317ZM70.0887 72.1304C69.9162 72.1304 69.7691 72.0721 69.6474 71.9554C69.5257 71.8337 69.4648 71.6815 69.4648 71.4989C69.4648 71.3062 69.5257 71.154 69.6474 71.0424C69.7691 70.9258 69.9162 70.8674 70.0887 70.8674C70.2611 70.8674 70.4082 70.9258 70.53 71.0424C70.6517 71.154 70.7126 71.3062 70.7126 71.4989C70.7126 71.6815 70.6517 71.8337 70.53 71.9554C70.4082 72.0721 70.2611 72.1304 70.0887 72.1304ZM73.0265 72.1532C72.6512 72.1532 72.2835 72.1 71.9233 71.9935C71.5683 71.8819 71.269 71.7297 71.0256 71.537L71.4516 70.7685C71.6444 70.9258 71.8777 71.0526 72.1516 71.1489C72.4255 71.2453 72.712 71.2935 73.0113 71.2935C73.3664 71.2935 73.6428 71.2225 73.8406 71.0805C74.0384 70.9334 74.1373 70.7356 74.1373 70.487C74.1373 70.2436 74.046 70.0508 73.8634 69.9088C73.6808 69.7668 73.3866 69.6958 72.9809 69.6958H72.4939V69.0186L74.0156 67.2079L74.1449 67.5807H71.2842V66.7514H74.9134V67.4133L73.3917 69.2241L72.8744 68.9197H73.1711C73.8254 68.9197 74.3148 69.0668 74.6395 69.361C74.9692 69.6501 75.134 70.0229 75.134 70.4794C75.134 70.7787 75.0579 71.0551 74.9057 71.3087C74.7536 71.5623 74.5203 71.7677 74.2058 71.925C73.8964 72.0771 73.5033 72.1532 73.0265 72.1532ZM78.0025 72.1532C77.5815 72.1532 77.2011 72.0467 76.8613 71.8337C76.5265 71.6207 76.2628 71.3113 76.07 70.9055C75.8773 70.4946 75.7809 69.9976 75.7809 69.4143C75.7809 68.831 75.8773 68.3364 76.07 67.9307C76.2628 67.5198 76.5265 67.2079 76.8613 66.9949C77.2011 66.7818 77.5815 66.6753 78.0025 66.6753C78.4286 66.6753 78.809 66.7818 79.1438 66.9949C79.4785 67.2079 79.7423 67.5198 79.935 67.9307C80.1328 68.3364 80.2317 68.831 80.2317 69.4143C80.2317 69.9976 80.1328 70.4946 79.935 70.9055C79.7423 71.3113 79.4785 71.6207 79.1438 71.8337C78.809 72.0467 78.4286 72.1532 78.0025 72.1532ZM78.0025 71.2935C78.2511 71.2935 78.4666 71.2276 78.6492 71.0957C78.8318 70.9587 78.9738 70.7508 79.0753 70.4718C79.1818 70.1928 79.2351 69.8403 79.2351 69.4143C79.2351 68.9831 79.1818 68.6306 79.0753 68.3567C78.9738 68.0778 78.8318 67.8723 78.6492 67.7405C78.4666 67.6035 78.2511 67.535 78.0025 67.535C77.7641 67.535 77.5511 67.6035 77.3634 67.7405C77.1808 67.8723 77.0363 68.0778 76.9298 68.3567C76.8283 68.6306 76.7776 68.9831 76.7776 69.4143C76.7776 69.8403 76.8283 70.1928 76.9298 70.4718C77.0363 70.7508 77.1808 70.9587 77.3634 71.0957C77.5511 71.2276 77.7641 71.2935 78.0025 71.2935Z" fill="#474766"/>
<path d="M99.0723 89.5747C99.0723 88.2439 100.632 87.165 102.557 87.165H138.347C140.272 87.165 141.832 88.2439 141.832 89.5747V112.524C141.832 113.855 140.272 114.934 138.347 114.934H102.557C100.632 114.934 99.0723 113.855 99.0723 112.524V89.5747Z" fill="#3CAAE1"/>
<path d="M110.417 103.984V99.039L110.851 99.4879H109.291V98.6586H111.406V103.984H110.417ZM114.684 104.06C114.263 104.06 113.883 103.954 113.543 103.741C113.208 103.528 112.945 103.218 112.752 102.813C112.559 102.402 112.463 101.905 112.463 101.322C112.463 100.738 112.559 100.244 112.752 99.8379C112.945 99.4271 113.208 99.1151 113.543 98.9021C113.883 98.6891 114.263 98.5825 114.684 98.5825C115.111 98.5825 115.491 98.6891 115.826 98.9021C116.16 99.1151 116.424 99.4271 116.617 99.8379C116.815 100.244 116.914 100.738 116.914 101.322C116.914 101.905 116.815 102.402 116.617 102.813C116.424 103.218 116.16 103.528 115.826 103.741C115.491 103.954 115.111 104.06 114.684 104.06ZM114.684 103.201C114.933 103.201 115.149 103.135 115.331 103.003C115.514 102.866 115.656 102.658 115.757 102.379C115.864 102.1 115.917 101.748 115.917 101.322C115.917 100.89 115.864 100.538 115.757 100.264C115.656 99.985 115.514 99.7796 115.331 99.6477C115.149 99.5107 114.933 99.4423 114.684 99.4423C114.446 99.4423 114.233 99.5107 114.045 99.6477C113.863 99.7796 113.718 99.985 113.612 100.264C113.51 100.538 113.46 100.89 113.46 101.322C113.46 101.748 113.51 102.1 113.612 102.379C113.718 102.658 113.863 102.866 114.045 103.003C114.233 103.135 114.446 103.201 114.684 103.201ZM118.176 101.139C118.003 101.139 117.856 101.081 117.734 100.964C117.613 100.842 117.552 100.69 117.552 100.507C117.552 100.315 117.613 100.163 117.734 100.051C117.856 99.9343 118.003 99.8759 118.176 99.8759C118.348 99.8759 118.495 99.9343 118.617 100.051C118.739 100.163 118.799 100.315 118.799 100.507C118.799 100.69 118.739 100.842 118.617 100.964C118.495 101.081 118.348 101.139 118.176 101.139ZM118.176 104.038C118.003 104.038 117.856 103.979 117.734 103.863C117.613 103.741 117.552 103.589 117.552 103.406C117.552 103.213 117.613 103.061 117.734 102.95C117.856 102.833 118.003 102.775 118.176 102.775C118.348 102.775 118.495 102.833 118.617 102.95C118.739 103.061 118.799 103.213 118.799 103.406C118.799 103.589 118.739 103.741 118.617 103.863C118.495 103.979 118.348 104.038 118.176 104.038ZM121.661 104.06C121.24 104.06 120.86 103.954 120.52 103.741C120.185 103.528 119.921 103.218 119.729 102.813C119.536 102.402 119.44 101.905 119.44 101.322C119.44 100.738 119.536 100.244 119.729 99.8379C119.921 99.4271 120.185 99.1151 120.52 98.9021C120.86 98.6891 121.24 98.5825 121.661 98.5825C122.087 98.5825 122.468 98.6891 122.802 98.9021C123.137 99.1151 123.401 99.4271 123.594 99.8379C123.791 100.244 123.89 100.738 123.89 101.322C123.89 101.905 123.791 102.402 123.594 102.813C123.401 103.218 123.137 103.528 122.802 103.741C122.468 103.954 122.087 104.06 121.661 104.06ZM121.661 103.201C121.91 103.201 122.125 103.135 122.308 103.003C122.49 102.866 122.632 102.658 122.734 102.379C122.84 102.1 122.894 101.748 122.894 101.322C122.894 100.89 122.84 100.538 122.734 100.264C122.632 99.985 122.49 99.7796 122.308 99.6477C122.125 99.5107 121.91 99.4423 121.661 99.4423C121.423 99.4423 121.21 99.5107 121.022 99.6477C120.839 99.7796 120.695 99.985 120.588 100.264C120.487 100.538 120.436 100.89 120.436 101.322C120.436 101.748 120.487 102.1 120.588 102.379C120.695 102.658 120.839 102.866 121.022 103.003C121.21 103.135 121.423 103.201 121.661 103.201ZM126.78 104.06C126.359 104.06 125.979 103.954 125.639 103.741C125.304 103.528 125.041 103.218 124.848 102.813C124.655 102.402 124.559 101.905 124.559 101.322C124.559 100.738 124.655 100.244 124.848 99.8379C125.041 99.4271 125.304 99.1151 125.639 98.9021C125.979 98.6891 126.359 98.5825 126.78 98.5825C127.206 98.5825 127.587 98.6891 127.922 98.9021C128.256 99.1151 128.52 99.4271 128.713 99.8379C128.911 100.244 129.01 100.738 129.01 101.322C129.01 101.905 128.911 102.402 128.713 102.813C128.52 103.218 128.256 103.528 127.922 103.741C127.587 103.954 127.206 104.06 126.78 104.06ZM126.78 103.201C127.029 103.201 127.244 103.135 127.427 103.003C127.61 102.866 127.752 102.658 127.853 102.379C127.96 102.1 128.013 101.748 128.013 101.322C128.013 100.89 127.96 100.538 127.853 100.264C127.752 99.985 127.61 99.7796 127.427 99.6477C127.244 99.5107 127.029 99.4423 126.78 99.4423C126.542 99.4423 126.329 99.5107 126.141 99.6477C125.959 99.7796 125.814 99.985 125.708 100.264C125.606 100.538 125.555 100.89 125.555 101.322C125.555 101.748 125.606 102.1 125.708 102.379C125.814 102.658 125.959 102.866 126.141 103.003C126.329 103.135 126.542 103.201 126.78 103.201Z" fill="white"/>
<path d="M48.9199 121.482C48.9199 120.151 50.4801 119.072 52.4047 119.072H88.195C90.1195 119.072 91.6797 120.151 91.6797 121.482V144.431C91.6797 145.762 90.1195 146.841 88.195 146.841H52.4047C50.4801 146.841 48.9199 145.762 48.9199 144.431V121.482Z" fill="#3CAAE1"/>
<path d="M60.265 135.892V130.946L60.6987 131.395H59.139V130.566H61.2541V135.892H60.265ZM64.5321 135.968C64.1112 135.968 63.7307 135.861 63.3909 135.648C63.0561 135.435 62.7924 135.126 62.5997 134.72C62.4069 134.309 62.3105 133.812 62.3105 133.229C62.3105 132.645 62.4069 132.151 62.5997 131.745C62.7924 131.334 63.0561 131.022 63.3909 130.809C63.7307 130.596 64.1112 130.49 64.5321 130.49C64.9582 130.49 65.3386 130.596 65.6734 130.809C66.0081 131.022 66.2719 131.334 66.4646 131.745C66.6624 132.151 66.7613 132.645 66.7613 133.229C66.7613 133.812 66.6624 134.309 66.4646 134.72C66.2719 135.126 66.0081 135.435 65.6734 135.648C65.3386 135.861 64.9582 135.968 64.5321 135.968ZM64.5321 135.108C64.7807 135.108 64.9962 135.042 65.1788 134.91C65.3614 134.773 65.5035 134.565 65.6049 134.286C65.7114 134.007 65.7647 133.655 65.7647 133.229C65.7647 132.798 65.7114 132.445 65.6049 132.171C65.5035 131.892 65.3614 131.687 65.1788 131.555C64.9962 131.418 64.7807 131.35 64.5321 131.35C64.2937 131.35 64.0807 131.418 63.893 131.555C63.7105 131.687 63.5659 131.892 63.4594 132.171C63.3579 132.445 63.3072 132.798 63.3072 133.229C63.3072 133.655 63.3579 134.007 63.4594 134.286C63.5659 134.565 63.7105 134.773 63.893 134.91C64.0807 135.042 64.2937 135.108 64.5321 135.108ZM68.0232 133.046C67.8507 133.046 67.7036 132.988 67.5819 132.871C67.4602 132.749 67.3993 132.597 67.3993 132.415C67.3993 132.222 67.4602 132.07 67.5819 131.958C67.7036 131.841 67.8507 131.783 68.0232 131.783C68.1956 131.783 68.3427 131.841 68.4645 131.958C68.5862 132.07 68.647 132.222 68.647 132.415C68.647 132.597 68.5862 132.749 68.4645 132.871C68.3427 132.988 68.1956 133.046 68.0232 133.046ZM68.0232 135.945C67.8507 135.945 67.7036 135.887 67.5819 135.77C67.4602 135.648 67.3993 135.496 67.3993 135.313C67.3993 135.121 67.4602 134.968 67.5819 134.857C67.7036 134.74 67.8507 134.682 68.0232 134.682C68.1956 134.682 68.3427 134.74 68.4645 134.857C68.5862 134.968 68.647 135.121 68.647 135.313C68.647 135.496 68.5862 135.648 68.4645 135.77C68.3427 135.887 68.1956 135.945 68.0232 135.945ZM69.2111 134.682V133.997L71.836 130.566H72.8935L70.3067 133.997L69.8122 133.845H74.0347V134.682H69.2111ZM72.1327 135.892V134.682L72.1631 133.845V132.772H73.0913V135.892H72.1327ZM76.2161 135.968C75.8407 135.968 75.473 135.914 75.1129 135.808C74.7578 135.696 74.4586 135.544 74.2151 135.351L74.6336 134.583C74.8263 134.74 75.0596 134.867 75.3335 134.963C75.6125 135.06 75.9016 135.108 76.2009 135.108C76.5508 135.108 76.8247 135.034 77.0226 134.887C77.2254 134.74 77.3269 134.542 77.3269 134.294C77.3269 134.126 77.2838 133.979 77.1975 133.853C77.1164 133.726 76.9693 133.629 76.7563 133.563C76.5483 133.498 76.2617 133.465 75.8965 133.465H74.6108L74.8846 130.566H78.0116V131.395H75.2498L75.7672 130.923L75.5618 133.092L75.0444 132.628H76.1172C76.6447 132.628 77.0682 132.699 77.3877 132.841C77.7124 132.978 77.9482 133.17 78.0953 133.419C78.2475 133.662 78.3236 133.941 78.3236 134.256C78.3236 134.565 78.2475 134.849 78.0953 135.108C77.9431 135.367 77.7098 135.575 77.3954 135.732C77.086 135.889 76.6929 135.968 76.2161 135.968Z" fill="white"/>
<path d="M99.0723 57.6675C99.0723 56.3367 100.632 55.2578 102.557 55.2578H138.347C140.272 55.2578 141.832 56.3367 141.832 57.6675V80.6167C141.832 81.9475 140.272 83.0264 138.347 83.0264H102.557C100.632 83.0264 99.0723 81.9475 99.0723 80.6167V57.6675Z" fill="white"/>
<path d="M111.787 72.1532C111.366 72.1532 110.985 72.0467 110.646 71.8337C110.311 71.6207 110.047 71.3113 109.854 70.9055C109.662 70.4946 109.565 69.9976 109.565 69.4143C109.565 68.831 109.662 68.3364 109.854 67.9307C110.047 67.5198 110.311 67.2079 110.646 66.9949C110.985 66.7818 111.366 66.6753 111.787 66.6753C112.213 66.6753 112.593 66.7818 112.928 66.9949C113.263 67.2079 113.527 67.5198 113.719 67.9307C113.917 68.3364 114.016 68.831 114.016 69.4143C114.016 69.9976 113.917 70.4946 113.719 70.9055C113.527 71.3113 113.263 71.6207 112.928 71.8337C112.593 72.0467 112.213 72.1532 111.787 72.1532ZM111.787 71.2935C112.035 71.2935 112.251 71.2276 112.434 71.0957C112.616 70.9587 112.758 70.7508 112.86 70.4718C112.966 70.1928 113.019 69.8403 113.019 69.4143C113.019 68.9831 112.966 68.6306 112.86 68.3567C112.758 68.0778 112.616 67.8723 112.434 67.7405C112.251 67.6035 112.035 67.535 111.787 67.535C111.548 67.535 111.335 67.6035 111.148 67.7405C110.965 67.8723 110.821 68.0778 110.714 68.3567C110.613 68.6306 110.562 68.9831 110.562 69.4143C110.562 69.8403 110.613 70.1928 110.714 70.4718C110.821 70.7508 110.965 70.9587 111.148 71.0957C111.335 71.2276 111.548 71.2935 111.787 71.2935ZM116.822 72.1532C116.381 72.1532 115.998 72.0873 115.673 71.9554C115.349 71.8235 115.098 71.6384 114.92 71.4C114.743 71.1566 114.654 70.8725 114.654 70.5479C114.654 70.2233 114.74 69.9494 114.913 69.7262C115.085 69.503 115.334 69.3331 115.658 69.2165C115.983 69.0998 116.371 69.0415 116.822 69.0415C117.274 69.0415 117.662 69.0998 117.986 69.2165C118.316 69.3331 118.567 69.5056 118.74 69.7338C118.917 69.957 119.006 70.2284 119.006 70.5479C119.006 70.8725 118.915 71.1566 118.732 71.4C118.554 71.6384 118.301 71.8235 117.971 71.9554C117.647 72.0873 117.264 72.1532 116.822 72.1532ZM116.822 71.3772C117.188 71.3772 117.477 71.3011 117.69 71.1489C117.903 70.9968 118.009 70.7863 118.009 70.5175C118.009 70.2537 117.903 70.0458 117.69 69.8936C117.477 69.7414 117.188 69.6653 116.822 69.6653C116.457 69.6653 116.171 69.7414 115.963 69.8936C115.755 70.0458 115.651 70.2537 115.651 70.5175C115.651 70.7863 115.755 70.9968 115.963 71.1489C116.171 71.3011 116.457 71.3772 116.822 71.3772ZM116.822 69.5588C116.411 69.5588 116.059 69.5056 115.765 69.3991C115.471 69.2875 115.242 69.1277 115.08 68.9197C114.923 68.7067 114.844 68.4531 114.844 68.1589C114.844 67.8546 114.925 67.5934 115.088 67.3753C115.255 67.1521 115.488 66.9797 115.788 66.8579C116.087 66.7362 116.432 66.6753 116.822 66.6753C117.218 66.6753 117.565 66.7362 117.865 66.8579C118.164 66.9797 118.397 67.1521 118.565 67.3753C118.732 67.5934 118.816 67.8546 118.816 68.1589C118.816 68.4531 118.735 68.7067 118.572 68.9197C118.415 69.1277 118.187 69.2875 117.887 69.3991C117.588 69.5056 117.233 69.5588 116.822 69.5588ZM116.822 68.9502C117.137 68.9502 117.385 68.8842 117.568 68.7524C117.751 68.6154 117.842 68.4328 117.842 68.2046C117.842 67.9662 117.748 67.781 117.56 67.6492C117.373 67.5173 117.127 67.4514 116.822 67.4514C116.518 67.4514 116.275 67.5173 116.092 67.6492C115.909 67.781 115.818 67.9662 115.818 68.2046C115.818 68.4328 115.907 68.6154 116.084 68.7524C116.267 68.8842 116.513 68.9502 116.822 68.9502ZM120.241 69.2317C120.069 69.2317 119.921 69.1733 119.8 69.0567C119.678 68.935 119.617 68.7828 119.617 68.6002C119.617 68.4075 119.678 68.2553 119.8 68.1437C119.921 68.027 120.069 67.9687 120.241 67.9687C120.413 67.9687 120.561 68.027 120.682 68.1437C120.804 68.2553 120.865 68.4075 120.865 68.6002C120.865 68.7828 120.804 68.935 120.682 69.0567C120.561 69.1733 120.413 69.2317 120.241 69.2317ZM120.241 72.1304C120.069 72.1304 119.921 72.0721 119.8 71.9554C119.678 71.8337 119.617 71.6815 119.617 71.4989C119.617 71.3062 119.678 71.154 119.8 71.0424C119.921 70.9258 120.069 70.8674 120.241 70.8674C120.413 70.8674 120.561 70.9258 120.682 71.0424C120.804 71.154 120.865 71.3062 120.865 71.4989C120.865 71.6815 120.804 71.8337 120.682 71.9554C120.561 72.0721 120.413 72.1304 120.241 72.1304ZM121.429 70.8674V70.1827L124.054 66.7514H125.111L122.525 70.1827L122.03 70.0305H126.253V70.8674H121.429ZM124.351 72.0771V70.8674L124.381 70.0305V68.9578H125.309V72.0771H124.351ZM128.434 72.1532C128.059 72.1532 127.691 72.1 127.331 71.9935C126.976 71.8819 126.676 71.7297 126.433 71.537L126.851 70.7685C127.044 70.9258 127.277 71.0526 127.551 71.1489C127.83 71.2453 128.119 71.2935 128.419 71.2935C128.769 71.2935 129.043 71.22 129.24 71.0729C129.443 70.9258 129.545 70.728 129.545 70.4794C129.545 70.312 129.502 70.165 129.415 70.0381C129.334 69.9113 129.187 69.815 128.974 69.749C128.766 69.6831 128.48 69.6501 128.114 69.6501H126.829L127.103 66.7514H130.229V67.5807H127.468L127.985 67.109L127.78 69.2773L127.262 68.8132H128.335C128.863 68.8132 129.286 68.8842 129.606 69.0263C129.93 69.1632 130.166 69.3559 130.313 69.6045C130.465 69.8479 130.541 70.1269 130.541 70.4414C130.541 70.7508 130.465 71.0348 130.313 71.2935C130.161 71.5522 129.928 71.7601 129.613 71.9174C129.304 72.0746 128.911 72.1532 128.434 72.1532Z" fill="#474766"/>
<path d="M99.0723 121.482C99.0723 120.151 100.632 119.072 102.557 119.072H138.347C140.272 119.072 141.832 120.151 141.832 121.482V144.431C141.832 145.762 140.272 146.841 138.347 146.841H102.557C100.632 146.841 99.0723 145.762 99.0723 144.431V121.482Z" fill="#3CAAE1"/>
<path d="M110.417 135.892V130.946L110.851 131.395H109.291V130.566H111.406V135.892H110.417ZM113.315 135.892V130.946L113.749 131.395H112.189V130.566H114.304V135.892H113.315ZM115.954 133.046C115.782 133.046 115.634 132.988 115.513 132.871C115.391 132.749 115.33 132.597 115.33 132.415C115.33 132.222 115.391 132.07 115.513 131.958C115.634 131.841 115.782 131.783 115.954 131.783C116.126 131.783 116.274 131.841 116.395 131.958C116.517 132.07 116.578 132.222 116.578 132.415C116.578 132.597 116.517 132.749 116.395 132.871C116.274 132.988 116.126 133.046 115.954 133.046ZM115.954 135.945C115.782 135.945 115.634 135.887 115.513 135.77C115.391 135.648 115.33 135.496 115.33 135.313C115.33 135.121 115.391 134.968 115.513 134.857C115.634 134.74 115.782 134.682 115.954 134.682C116.126 134.682 116.274 134.74 116.395 134.857C116.517 134.968 116.578 135.121 116.578 135.313C116.578 135.496 116.517 135.648 116.395 135.77C116.274 135.887 116.126 135.945 115.954 135.945ZM119.44 135.968C119.019 135.968 118.638 135.861 118.298 135.648C117.964 135.435 117.7 135.126 117.507 134.72C117.314 134.309 117.218 133.812 117.218 133.229C117.218 132.645 117.314 132.151 117.507 131.745C117.7 131.334 117.964 131.022 118.298 130.809C118.638 130.596 119.019 130.49 119.44 130.49C119.866 130.49 120.246 130.596 120.581 130.809C120.916 131.022 121.179 131.334 121.372 131.745C121.57 132.151 121.669 132.645 121.669 133.229C121.669 133.812 121.57 134.309 121.372 134.72C121.179 135.126 120.916 135.435 120.581 135.648C120.246 135.861 119.866 135.968 119.44 135.968ZM119.44 135.108C119.688 135.108 119.904 135.042 120.086 134.91C120.269 134.773 120.411 134.565 120.512 134.286C120.619 134.007 120.672 133.655 120.672 133.229C120.672 132.798 120.619 132.445 120.512 132.171C120.411 131.892 120.269 131.687 120.086 131.555C119.904 131.418 119.688 131.35 119.44 131.35C119.201 131.35 118.988 131.418 118.801 131.555C118.618 131.687 118.473 131.892 118.367 132.171C118.265 132.445 118.215 132.798 118.215 133.229C118.215 133.655 118.265 134.007 118.367 134.286C118.473 134.565 118.618 134.773 118.801 134.91C118.988 135.042 119.201 135.108 119.44 135.108ZM124.559 135.968C124.138 135.968 123.757 135.861 123.418 135.648C123.083 135.435 122.819 135.126 122.626 134.72C122.434 134.309 122.337 133.812 122.337 133.229C122.337 132.645 122.434 132.151 122.626 131.745C122.819 131.334 123.083 131.022 123.418 130.809C123.757 130.596 124.138 130.49 124.559 130.49C124.985 130.49 125.365 130.596 125.7 130.809C126.035 131.022 126.299 131.334 126.491 131.745C126.689 132.151 126.788 132.645 126.788 133.229C126.788 133.812 126.689 134.309 126.491 134.72C126.299 135.126 126.035 135.435 125.7 135.648C125.365 135.861 124.985 135.968 124.559 135.968ZM124.559 135.108C124.807 135.108 125.023 135.042 125.206 134.91C125.388 134.773 125.53 134.565 125.632 134.286C125.738 134.007 125.791 133.655 125.791 133.229C125.791 132.798 125.738 132.445 125.632 132.171C125.53 131.892 125.388 131.687 125.206 131.555C125.023 131.418 124.807 131.35 124.559 131.35C124.32 131.35 124.107 131.418 123.92 131.555C123.737 131.687 123.593 131.892 123.486 132.171C123.385 132.445 123.334 132.798 123.334 133.229C123.334 133.655 123.385 134.007 123.486 134.286C123.593 134.565 123.737 134.773 123.92 134.91C124.107 135.042 124.32 135.108 124.559 135.108Z" fill="white"/>
<rect x="1.07617" y="32.1895" width="140.756" height="16.7588" rx="8.37939" fill="white"/>
<path d="M35.2416 43.0693V38.124L35.6752 38.5729H34.1156V37.7436H36.2306V43.0693H35.2416ZM39.5924 43.1454C39.1105 43.1454 38.6972 43.044 38.3523 42.8411C38.0073 42.6331 37.7436 42.3339 37.561 41.9433C37.3784 41.5528 37.2871 41.0709 37.2871 40.4978C37.2871 39.8891 37.3962 39.3743 37.6143 38.9533C37.8374 38.5323 38.1443 38.2128 38.5349 37.9947C38.9305 37.7766 39.3844 37.6675 39.8967 37.6675C40.1655 37.6675 40.4217 37.6954 40.6651 37.7512C40.9137 37.807 41.1242 37.8932 41.2966 38.0099L40.9314 38.7555C40.7843 38.6591 40.6246 38.5932 40.4521 38.5577C40.2847 38.5171 40.1072 38.4968 39.9195 38.4968C39.4174 38.4968 39.0192 38.6515 38.7251 38.9609C38.4309 39.2703 38.2838 39.7268 38.2838 40.3304C38.2838 40.4268 38.2863 40.5409 38.2914 40.6728C38.2965 40.7996 38.3142 40.9289 38.3446 41.0608L38.0403 40.726C38.1316 40.5181 38.2559 40.3456 38.4131 40.2087C38.5754 40.0666 38.7656 39.9601 38.9837 39.8891C39.2069 39.8181 39.4478 39.7826 39.7065 39.7826C40.0565 39.7826 40.3684 39.8511 40.6423 39.988C40.9162 40.1199 41.1343 40.3101 41.2966 40.5586C41.4589 40.8021 41.5401 41.0887 41.5401 41.4184C41.5401 41.7683 41.4539 42.0727 41.2814 42.3313C41.109 42.59 40.8756 42.7904 40.5815 42.9324C40.2873 43.0744 39.9576 43.1454 39.5924 43.1454ZM39.5391 42.3694C39.742 42.3694 39.9221 42.3339 40.0793 42.2629C40.2366 42.1868 40.3583 42.0803 40.4445 41.9433C40.5358 41.8064 40.5815 41.6466 40.5815 41.464C40.5815 41.185 40.4851 40.9644 40.2923 40.8021C40.0996 40.6398 39.8409 40.5586 39.5163 40.5586C39.3033 40.5586 39.1156 40.5992 38.9533 40.6804C38.7961 40.7564 38.6693 40.863 38.5729 40.9999C38.4816 41.1369 38.4359 41.2941 38.4359 41.4716C38.4359 41.6339 38.4791 41.7835 38.5653 41.9205C38.6515 42.0574 38.7758 42.1665 38.9381 42.2476C39.1055 42.3288 39.3058 42.3694 39.5391 42.3694ZM47.0433 43.1454C47.0382 43.1454 47.0154 43.1454 46.9748 43.1454C46.9393 43.1454 46.9038 43.1454 46.8683 43.1454C46.8378 43.1454 46.8176 43.1454 46.8074 43.1454C45.9502 43.1353 45.2858 42.9501 44.8141 42.59C44.3423 42.2248 44.1065 41.7049 44.1065 41.0303C44.1065 40.3608 44.3423 39.8485 44.8141 39.4935C45.2858 39.1384 45.9578 38.9558 46.8302 38.9457C46.8404 38.9457 46.8607 38.9457 46.8911 38.9457C46.9266 38.9457 46.9596 38.9457 46.99 38.9457C47.0255 38.9457 47.0458 38.9457 47.0509 38.9457C47.9284 38.9457 48.6106 39.1257 49.0975 39.4859C49.5895 39.8409 49.8355 40.3557 49.8355 41.0303C49.8355 41.71 49.5895 42.2324 49.0975 42.5976C48.6106 42.9628 47.9258 43.1454 47.0433 43.1454ZM47.0128 42.3542C47.444 42.3542 47.799 42.306 48.078 42.2096C48.3569 42.1082 48.5649 41.9611 48.7019 41.7683C48.8388 41.5705 48.9073 41.3245 48.9073 41.0303C48.9073 40.7412 48.8388 40.5028 48.7019 40.3152C48.5649 40.1224 48.3569 39.9804 48.078 39.8891C47.799 39.7927 47.444 39.7445 47.0128 39.7445C47.0027 39.7445 46.9773 39.7445 46.9367 39.7445C46.9012 39.7445 46.8784 39.7445 46.8683 39.7445C46.4473 39.7445 46.1024 39.7953 45.8336 39.8967C45.5647 39.9931 45.3644 40.1351 45.2325 40.3228C45.1057 40.5104 45.0423 40.7463 45.0423 41.0303C45.0423 41.3194 45.1057 41.5604 45.2325 41.7531C45.3644 41.9459 45.5647 42.0929 45.8336 42.1944C46.1075 42.2958 46.4524 42.3491 46.8683 42.3542C46.8784 42.3542 46.9012 42.3542 46.9367 42.3542C46.9773 42.3542 47.0027 42.3542 47.0128 42.3542ZM46.5183 44.5453V37.424H47.4161V44.5453H46.5183ZM52.6516 43.1226C52.2002 43.1226 51.8046 43.0338 51.4648 42.8563C51.13 42.6737 50.8688 42.4252 50.6811 42.1107C50.4985 41.7962 50.4072 41.4386 50.4072 41.0379C50.4072 40.6322 50.496 40.2746 50.6735 39.9652C50.8561 39.6507 51.1046 39.4047 51.4191 39.2272C51.7387 39.0497 52.1013 38.9609 52.5071 38.9609C52.9027 38.9609 53.2552 39.0471 53.5646 39.2196C53.874 39.392 54.1175 39.6355 54.295 39.95C54.4725 40.2644 54.5613 40.6347 54.5613 41.0608C54.5613 41.1013 54.5588 41.147 54.5537 41.1977C54.5537 41.2484 54.5512 41.2966 54.5461 41.3423H51.1604V40.7108H54.0439L53.6711 40.9086C53.6762 40.6753 53.628 40.4699 53.5266 40.2923C53.4251 40.1148 53.2857 39.9753 53.1081 39.8739C52.9357 39.7724 52.7353 39.7217 52.5071 39.7217C52.2738 39.7217 52.0683 39.7724 51.8908 39.8739C51.7184 39.9753 51.5814 40.1174 51.48 40.2999C51.3836 40.4775 51.3354 40.688 51.3354 40.9314V41.0836C51.3354 41.3271 51.3912 41.5426 51.5028 41.7303C51.6144 41.918 51.7716 42.0625 51.9745 42.164C52.1774 42.2654 52.4107 42.3161 52.6745 42.3161C52.9027 42.3161 53.1081 42.2806 53.2907 42.2096C53.4733 42.1386 53.6356 42.027 53.7777 41.8748L54.2874 42.4607C54.1048 42.6737 53.874 42.8386 53.5951 42.9552C53.3212 43.0668 53.0067 43.1226 52.6516 43.1226ZM55.6015 43.0693V39.0066H57.5872C58.0792 39.0066 58.4647 39.0979 58.7437 39.2804C59.0277 39.463 59.1697 39.7217 59.1697 40.0565C59.1697 40.3862 59.0379 40.6449 58.7741 40.8325C58.5104 41.0151 58.1604 41.1064 57.7242 41.1064L57.8383 40.8706C58.3303 40.8706 58.6955 40.9619 58.9339 41.1445C59.1773 41.322 59.2991 41.5832 59.2991 41.9281C59.2991 42.2882 59.1647 42.5697 58.8958 42.7726C58.627 42.9704 58.2187 43.0693 57.6709 43.0693H55.6015ZM56.5069 42.377H57.5948C57.8535 42.377 58.0488 42.3364 58.1807 42.2553C58.3125 42.169 58.3785 42.0397 58.3785 41.8672C58.3785 41.6846 58.3176 41.5502 58.1959 41.464C58.0742 41.3778 57.8839 41.3347 57.6253 41.3347H56.5069V42.377ZM56.5069 40.7032H57.5035C57.747 40.7032 57.9296 40.6601 58.0513 40.5738C58.1781 40.4825 58.2415 40.3557 58.2415 40.1934C58.2415 40.0261 58.1781 39.9018 58.0513 39.8206C57.9296 39.7395 57.747 39.6989 57.5035 39.6989H56.5069V40.7032ZM62.5641 43.1226C62.2344 43.1226 61.9326 43.0465 61.6587 42.8943C61.3899 42.7422 61.1743 42.5139 61.012 42.2096C60.8548 41.9002 60.7761 41.5097 60.7761 41.0379C60.7761 40.5612 60.8522 40.1706 61.0044 39.8663C61.1616 39.562 61.3746 39.3362 61.6435 39.1892C61.9123 39.037 62.2192 38.9609 62.5641 38.9609C62.9648 38.9609 63.3173 39.0471 63.6216 39.2196C63.931 39.392 64.1745 39.633 64.352 39.9424C64.5346 40.2518 64.6259 40.617 64.6259 41.0379C64.6259 41.4589 64.5346 41.8267 64.352 42.1411C64.1745 42.4505 63.931 42.6915 63.6216 42.8639C63.3173 43.0364 62.9648 43.1226 62.5641 43.1226ZM60.312 44.5453V39.0066H61.2174V39.9652L61.187 41.0456L61.2631 42.1259V44.5453H60.312ZM62.4575 42.3085C62.6858 42.3085 62.8887 42.2578 63.0662 42.1564C63.2488 42.0549 63.3934 41.9078 63.4999 41.7151C63.6064 41.5223 63.6596 41.2966 63.6596 41.0379C63.6596 40.7742 63.6064 40.5485 63.4999 40.3608C63.3934 40.1681 63.2488 40.021 63.0662 39.9195C62.8887 39.8181 62.6858 39.7674 62.4575 39.7674C62.2293 39.7674 62.0239 39.8181 61.8413 39.9195C61.6587 40.021 61.5141 40.1681 61.4076 40.3608C61.3011 40.5485 61.2478 40.7742 61.2478 41.0379C61.2478 41.2966 61.3011 41.5223 61.4076 41.7151C61.5141 41.9078 61.6587 42.0549 61.8413 42.1564C62.0239 42.2578 62.2293 42.3085 62.4575 42.3085ZM67.9854 43.0693V42.2476L67.9322 42.0727V40.6347C67.9322 40.3557 67.8485 40.1402 67.6811 39.988C67.5137 39.8308 67.2601 39.7522 66.9203 39.7522C66.692 39.7522 66.4663 39.7877 66.2432 39.8587C66.0251 39.9297 65.8399 40.0286 65.6878 40.1554L65.315 39.463C65.5331 39.2957 65.7917 39.1714 66.091 39.0902C66.3953 39.004 66.7098 38.9609 67.0344 38.9609C67.6228 38.9609 68.0767 39.1029 68.3963 39.387C68.7209 39.6659 68.8832 40.0996 68.8832 40.688V43.0693H67.9854ZM66.7073 43.1226C66.4029 43.1226 66.1366 43.0719 65.9084 42.9704C65.6802 42.8639 65.5026 42.7194 65.3758 42.5368C65.2541 42.3491 65.1932 42.1386 65.1932 41.9053C65.1932 41.677 65.2465 41.4716 65.353 41.289C65.4646 41.1064 65.6447 40.9619 65.8932 40.8553C66.1417 40.7488 66.4714 40.6956 66.8823 40.6956H68.0615V41.3271H66.9507C66.6261 41.3271 66.408 41.3803 66.2964 41.4868C66.1848 41.5883 66.129 41.7151 66.129 41.8672C66.129 42.0397 66.1975 42.1766 66.3345 42.2781C66.4714 42.3795 66.6616 42.4302 66.9051 42.4302C67.1384 42.4302 67.3464 42.377 67.529 42.2705C67.7166 42.164 67.851 42.0067 67.9322 41.7988L68.092 42.3694C68.0007 42.6078 67.8358 42.7929 67.5974 42.9248C67.3641 43.0567 67.0674 43.1226 66.7073 43.1226ZM69.4666 43.0617L69.5123 42.2629C69.5478 42.2679 69.5807 42.273 69.6112 42.2781C69.6416 42.2832 69.6695 42.2857 69.6949 42.2857C69.8521 42.2857 69.9738 42.2375 70.06 42.1411C70.1463 42.0448 70.2097 41.9154 70.2503 41.7531C70.2959 41.5857 70.3263 41.4006 70.3415 41.1977C70.3618 40.9898 70.3771 40.7818 70.3872 40.5738L70.4557 39.0066H73.7424V43.0693H72.7914V39.5543L73.012 39.813H71.0795L71.285 39.5467L71.2317 40.6195C71.2165 40.9796 71.1861 41.3144 71.1404 41.6238C71.0998 41.9281 71.0339 42.1944 70.9426 42.4226C70.8564 42.6509 70.7346 42.8284 70.5774 42.9552C70.4252 43.082 70.23 43.1454 69.9916 43.1454C69.9155 43.1454 69.8318 43.1378 69.7405 43.1226C69.6543 43.1074 69.563 43.0871 69.4666 43.0617ZM77.6024 43.0693V41.6846L77.7393 41.8444H76.522C75.9641 41.8444 75.5254 41.7278 75.2058 41.4944C74.8913 41.256 74.7341 40.9137 74.7341 40.4673C74.7341 39.9905 74.9015 39.6279 75.2362 39.3794C75.5761 39.1308 76.0275 39.0066 76.5905 39.0066H78.4545V43.0693H77.6024ZM74.6808 43.0693L75.7764 41.5173H76.7503L75.7003 43.0693H74.6808ZM77.6024 41.3803V39.5543L77.7393 39.8054H76.6209C76.3267 39.8054 76.0985 39.8612 75.9362 39.9728C75.779 40.0793 75.7003 40.2543 75.7003 40.4978C75.7003 40.9543 75.9971 41.1825 76.5905 41.1825H77.7393L77.6024 41.3803ZM81.4636 43.0693V42.4074L83.5787 40.3989C83.7562 40.2315 83.8881 40.0844 83.9743 39.9576C84.0606 39.8308 84.1163 39.7141 84.1417 39.6076C84.1721 39.496 84.1874 39.392 84.1874 39.2957C84.1874 39.0522 84.1037 38.8645 83.9363 38.7327C83.7689 38.5957 83.5229 38.5272 83.1983 38.5272C82.9396 38.5272 82.7038 38.5729 82.4907 38.6642C82.2828 38.7555 82.1027 38.895 81.9505 39.0826L81.2582 38.5501C81.4662 38.2711 81.7451 38.0555 82.0951 37.9034C82.4501 37.7461 82.8458 37.6675 83.282 37.6675C83.6675 37.6675 84.0022 37.7309 84.2863 37.8577C84.5754 37.9794 84.796 38.1544 84.9482 38.3827C85.1054 38.6109 85.184 38.8823 85.184 39.1968C85.184 39.3692 85.1612 39.5417 85.1156 39.7141C85.0699 39.8815 84.9837 40.059 84.8569 40.2467C84.7301 40.4344 84.5449 40.6449 84.3015 40.8782L82.4831 42.6052L82.2777 42.2324H85.3895V43.0693H81.4636ZM88.1819 43.1454C87.7609 43.1454 87.3805 43.0389 87.0407 42.8259C86.7059 42.6128 86.4422 42.3034 86.2494 41.8977C86.0567 41.4868 85.9603 40.9898 85.9603 40.4065C85.9603 39.8232 86.0567 39.3286 86.2494 38.9229C86.4422 38.512 86.7059 38.2001 87.0407 37.9871C87.3805 37.774 87.7609 37.6675 88.1819 37.6675C88.608 37.6675 88.9884 37.774 89.3231 37.9871C89.6579 38.2001 89.9216 38.512 90.1144 38.9229C90.3122 39.3286 90.4111 39.8232 90.4111 40.4065C90.4111 40.9898 90.3122 41.4868 90.1144 41.8977C89.9216 42.3034 89.6579 42.6128 89.3231 42.8259C88.9884 43.0389 88.608 43.1454 88.1819 43.1454ZM88.1819 42.2857C88.4304 42.2857 88.646 42.2198 88.8286 42.0879C89.0112 41.9509 89.1532 41.743 89.2547 41.464C89.3612 41.185 89.4144 40.8325 89.4144 40.4065C89.4144 39.9753 89.3612 39.6228 89.2547 39.3489C89.1532 39.07 89.0112 38.8645 88.8286 38.7327C88.646 38.5957 88.4304 38.5272 88.1819 38.5272C87.9435 38.5272 87.7305 38.5957 87.5428 38.7327C87.3602 38.8645 87.2157 39.07 87.1091 39.3489C87.0077 39.6228 86.957 39.9753 86.957 40.4065C86.957 40.8325 87.0077 41.185 87.1091 41.464C87.2157 41.743 87.3602 41.9509 87.5428 42.0879C87.7305 42.2198 87.9435 42.2857 88.1819 42.2857ZM91.0036 43.0693V42.4074L93.1187 40.3989C93.2962 40.2315 93.4281 40.0844 93.5143 39.9576C93.6005 39.8308 93.6563 39.7141 93.6817 39.6076C93.7121 39.496 93.7273 39.392 93.7273 39.2957C93.7273 39.0522 93.6436 38.8645 93.4763 38.7327C93.3089 38.5957 93.0629 38.5272 92.7383 38.5272C92.4796 38.5272 92.2437 38.5729 92.0307 38.6642C91.8227 38.7555 91.6427 38.895 91.4905 39.0826L90.7982 38.5501C91.0061 38.2711 91.2851 38.0555 91.6351 37.9034C91.9901 37.7461 92.3858 37.6675 92.822 37.6675C93.2074 37.6675 93.5422 37.7309 93.8262 37.8577C94.1154 37.9794 94.336 38.1544 94.4882 38.3827C94.6454 38.6109 94.724 38.8823 94.724 39.1968C94.724 39.3692 94.7012 39.5417 94.6555 39.7141C94.6099 39.8815 94.5237 40.059 94.3969 40.2467C94.2701 40.4344 94.0849 40.6449 93.8415 40.8782L92.0231 42.6052L91.8177 42.2324H94.9294V43.0693H91.0036ZM95.3128 41.8596V41.1749L97.9376 37.7436H98.9951L96.4083 41.1749L95.9138 41.0227H100.136V41.8596H95.3128ZM98.2343 43.0693V41.8596L98.2647 41.0227V39.95H99.1929V43.0693H98.2343Z" fill="#474766"/>
</svg>
