<svg width="242" height="160" viewBox="0 0 242 160" fill="none" xmlns="http://www.w3.org/2000/svg">
<path d="M0.517578 44.1494C0.517578 38.0743 5.44245 33.1494 11.5176 33.1494H124.494C130.569 33.1494 135.494 38.0743 135.494 44.1494V148.911C135.494 154.986 130.569 159.911 124.494 159.911H11.5176C5.44245 159.911 0.517578 154.986 0.517578 148.911V44.1494Z" fill="white"/>
<path d="M20.4103 23.2435C19.8958 23.2435 19.4222 23.1588 18.9893 22.9894C18.5564 22.8201 18.18 22.5848 17.8601 22.2837C17.5401 21.9763 17.2923 21.6187 17.1166 21.2109C16.941 20.7968 16.8532 20.3451 16.8532 19.8558C16.8532 19.3665 16.941 18.9179 17.1166 18.5101C17.2923 18.0961 17.5401 17.7385 17.8601 17.4373C18.18 17.1299 18.5564 16.8915 18.9893 16.7221C19.4222 16.5528 19.8927 16.4681 20.4009 16.4681C20.9153 16.4681 21.3858 16.5528 21.8124 16.7221C22.2453 16.8915 22.6217 17.1299 22.9417 17.4373C23.2616 17.7385 23.5094 18.0961 23.6851 18.5101C23.8607 18.9179 23.9486 19.3665 23.9486 19.8558C23.9486 20.3451 23.8607 20.7968 23.6851 21.2109C23.5094 21.6249 23.2616 21.9825 22.9417 22.2837C22.6217 22.5848 22.2453 22.8201 21.8124 22.9894C21.3858 23.1588 20.9184 23.2435 20.4103 23.2435ZM20.4009 22.1707C20.7334 22.1707 21.0408 22.1143 21.3231 22.0014C21.6054 21.8884 21.8501 21.7285 22.0571 21.5214C22.2641 21.3081 22.4241 21.0635 22.537 20.7874C22.6562 20.5051 22.7158 20.1946 22.7158 19.8558C22.7158 19.517 22.6562 19.2096 22.537 18.9336C22.4241 18.6513 22.2641 18.4066 22.0571 18.1996C21.8501 17.9863 21.6054 17.8232 21.3231 17.7102C21.0408 17.5973 20.7334 17.5408 20.4009 17.5408C20.0684 17.5408 19.761 17.5973 19.4786 17.7102C19.2026 17.8232 18.9579 17.9863 18.7446 18.1996C18.5376 18.4066 18.3745 18.6513 18.2553 18.9336C18.1424 19.2096 18.0859 19.517 18.0859 19.8558C18.0859 20.1883 18.1424 20.4957 18.2553 20.778C18.3745 21.0603 18.5376 21.3081 18.7446 21.5214C18.9517 21.7285 19.1963 21.8884 19.4786 22.0014C19.761 22.1143 20.0684 22.1707 20.4009 22.1707ZM26.122 23.1494V18.8395L26.3949 19.1218H24.3528V18.1243H29.058V19.1218H27.0254L27.2983 18.8395V23.1494H26.122ZM33.0826 21.1638C32.8442 21.2768 32.5901 21.3709 32.3203 21.4461C32.0568 21.5151 31.7777 21.5497 31.4828 21.5497C30.8492 21.5497 30.3567 21.4022 30.0054 21.1074C29.6541 20.8125 29.4784 20.3545 29.4784 19.7335V18.1243H30.6547V19.6582C30.6547 19.9907 30.7488 20.2322 30.937 20.3828C31.1315 20.5333 31.3981 20.6086 31.7369 20.6086C31.9627 20.6086 32.1886 20.5804 32.4144 20.5239C32.6403 20.4675 32.863 20.389 33.0826 20.2887V21.1638ZM32.9979 23.1494V18.1243H34.1742V23.1494H32.9979ZM38.0992 23.2153C37.5408 23.2153 37.0515 23.1055 36.6311 22.8859C36.2171 22.6601 35.894 22.3527 35.6619 21.9637C35.436 21.5747 35.3231 21.1325 35.3231 20.6368C35.3231 20.135 35.4329 19.6927 35.6525 19.31C35.8783 18.921 36.1857 18.6168 36.5747 18.3972C36.9699 18.1776 37.4185 18.0678 37.9204 18.0678C38.4097 18.0678 38.8457 18.1745 39.2284 18.3878C39.6111 18.6011 39.9122 18.9022 40.1318 19.2912C40.3514 19.6801 40.4612 20.1381 40.4612 20.6651C40.4612 20.7153 40.458 20.7717 40.4517 20.8345C40.4517 20.8972 40.4486 20.9568 40.4423 21.0133H36.2547V20.2322H39.8213L39.3601 20.4769C39.3664 20.1883 39.3068 19.9342 39.1813 19.7146C39.0559 19.4951 38.8834 19.3225 38.6638 19.1971C38.4505 19.0716 38.2027 19.0089 37.9204 19.0089C37.6318 19.0089 37.3777 19.0716 37.1581 19.1971C36.9448 19.3225 36.7754 19.4982 36.65 19.724C36.5308 19.9436 36.4712 20.204 36.4712 20.5051V20.6933C36.4712 20.9944 36.5402 21.2611 36.6782 21.4932C36.8162 21.7253 37.0107 21.9041 37.2616 22.0296C37.5126 22.1551 37.8012 22.2178 38.1274 22.2178C38.4097 22.2178 38.6638 22.1739 38.8896 22.086C39.1155 21.9982 39.3162 21.8602 39.4919 21.672L40.1224 22.3966C39.8965 22.6601 39.6111 22.864 39.266 23.0083C38.9273 23.1463 38.5383 23.2153 38.0992 23.2153ZM42.6085 23.1494V18.8395L42.8814 19.1218H40.8393V18.1243H45.5445V19.1218H43.5119L43.7848 18.8395V23.1494H42.6085ZM48.9985 23.1494V18.1243H53.8166V23.1494H52.6497V18.8489L52.9226 19.1218H49.9019L50.1748 18.8489V23.1494H48.9985ZM57.6434 23.2153C57.129 23.2153 56.671 23.1055 56.2695 22.8859C55.868 22.6601 55.5512 22.3527 55.3191 21.9637C55.087 21.5747 54.9709 21.1325 54.9709 20.6368C54.9709 20.135 55.087 19.6927 55.3191 19.31C55.5512 18.921 55.868 18.6168 56.2695 18.3972C56.671 18.1776 57.129 18.0678 57.6434 18.0678C58.1641 18.0678 58.6252 18.1776 59.0268 18.3972C59.4345 18.6168 59.7513 18.9179 59.9772 19.3006C60.2093 19.6833 60.3254 20.1287 60.3254 20.6368C60.3254 21.1325 60.2093 21.5747 59.9772 21.9637C59.7513 22.3527 59.4345 22.6601 59.0268 22.8859C58.6252 23.1055 58.1641 23.2153 57.6434 23.2153ZM57.6434 22.2084C57.932 22.2084 58.1892 22.1456 58.4151 22.0202C58.6409 21.8947 58.8166 21.7128 58.9421 21.4744C59.0738 21.236 59.1397 20.9568 59.1397 20.6368C59.1397 20.3106 59.0738 20.0315 58.9421 19.7993C58.8166 19.5609 58.6409 19.379 58.4151 19.2535C58.1892 19.1281 57.9352 19.0653 57.6528 19.0653C57.3643 19.0653 57.107 19.1281 56.8812 19.2535C56.6616 19.379 56.486 19.5609 56.3542 19.7993C56.2225 20.0315 56.1566 20.3106 56.1566 20.6368C56.1566 20.9568 56.2225 21.236 56.3542 21.4744C56.486 21.7128 56.6616 21.8947 56.8812 22.0202C57.107 22.1456 57.3611 22.2084 57.6434 22.2084ZM65.6785 23.2341C65.2958 23.2341 64.9162 23.1902 64.5398 23.1024C64.1697 23.0083 63.834 22.8765 63.5329 22.7071L63.8623 21.832C64.1069 21.97 64.383 22.0766 64.6904 22.1519C64.9978 22.2272 65.3052 22.2648 65.6126 22.2648C65.8761 22.2648 66.1019 22.2397 66.2901 22.1896C66.4784 22.1331 66.6226 22.0515 66.723 21.9449C66.8297 21.8382 66.883 21.7159 66.883 21.5779C66.883 21.3771 66.7952 21.2266 66.6195 21.1262C66.4501 21.0195 66.2055 20.9662 65.8855 20.9662H64.9162V20.1757H65.7914C65.9922 20.1757 66.1615 20.1538 66.2996 20.1099C66.4438 20.066 66.5536 20.0001 66.6289 19.9123C66.7042 19.8244 66.7418 19.7209 66.7418 19.6017C66.7418 19.4825 66.6948 19.379 66.6007 19.2912C66.5129 19.1971 66.3842 19.1281 66.2149 19.0841C66.0455 19.034 65.8416 19.0089 65.6032 19.0089C65.3522 19.0089 65.0919 19.0402 64.8221 19.103C64.5586 19.1657 64.2889 19.2567 64.0128 19.3759L63.7117 18.5101C64.0317 18.3658 64.3422 18.256 64.6433 18.1807C64.9507 18.0992 65.255 18.0553 65.5561 18.049C66.0141 18.0302 66.4219 18.0772 66.7795 18.1902C67.1371 18.3031 67.4194 18.4662 67.6264 18.6795C67.8334 18.8928 67.937 19.1437 67.937 19.4323C67.937 19.6707 67.8617 19.8872 67.7111 20.0816C67.5668 20.2698 67.3661 20.4173 67.1088 20.5239C66.8579 20.6306 66.5693 20.6839 66.2431 20.6839L66.2807 20.4298C66.8391 20.4298 67.2782 20.5427 67.5982 20.7686C67.9181 20.9882 68.0781 21.2893 68.0781 21.672C68.0781 21.9794 67.9746 22.2523 67.7676 22.4907C67.5605 22.7228 67.2751 22.9047 66.9112 23.0365C66.5536 23.1682 66.1427 23.2341 65.6785 23.2341ZM72.3385 23.1494V22.1331L72.2726 21.9167V20.1381C72.2726 19.7931 72.1691 19.5264 71.9621 19.3382C71.7551 19.1437 71.4414 19.0465 71.0211 19.0465C70.7387 19.0465 70.4596 19.0904 70.1835 19.1782C69.9138 19.2661 69.6848 19.3884 69.4966 19.5452L69.0355 18.6889C69.3052 18.4819 69.6252 18.3282 69.9953 18.2278C70.3717 18.1211 70.7607 18.0678 71.1622 18.0678C71.8899 18.0678 72.4514 18.2435 72.8467 18.5948C73.2482 18.9398 73.4489 19.4762 73.4489 20.204V23.1494H72.3385ZM70.7576 23.2153C70.3812 23.2153 70.0518 23.1526 69.7695 23.0271C69.4872 22.8953 69.2676 22.7165 69.1108 22.4907C68.9602 22.2586 68.8849 21.9982 68.8849 21.7096C68.8849 21.4273 68.9508 21.1732 69.0825 20.9474C69.2205 20.7215 69.4433 20.5427 69.7507 20.411C70.0581 20.2793 70.4658 20.2134 70.974 20.2134H72.4326V20.9944H71.0587C70.6572 20.9944 70.3874 21.0603 70.2494 21.1921C70.1114 21.3175 70.0424 21.4744 70.0424 21.6626C70.0424 21.8759 70.1271 22.0453 70.2965 22.1707C70.4658 22.2962 70.7011 22.3589 71.0022 22.3589C71.2908 22.3589 71.548 22.2931 71.7739 22.1613C72.006 22.0296 72.1723 21.8351 72.2726 21.5779L72.4702 22.2837C72.3573 22.5785 72.1534 22.8075 71.8586 22.9706C71.57 23.1337 71.203 23.2153 70.7576 23.2153ZM74.9045 23.1494V18.1243H76.0808V20.1663H78.6122V18.1243H79.7885V23.1494H78.6122V21.1638H76.0808V23.1494H74.9045ZM84.5551 23.1494V21.4367L84.7244 21.6343H83.2188C82.5287 21.6343 81.986 21.4901 81.5908 21.2015C81.2018 20.9066 81.0074 20.4831 81.0074 19.9311C81.0074 19.3414 81.2144 18.8928 81.6284 18.5854C82.0488 18.278 82.6071 18.1243 83.3035 18.1243H85.609V23.1494H84.5551ZM80.9415 23.1494L82.2966 21.2297H83.5011L82.2025 23.1494H80.9415ZM84.5551 21.0603V18.8018L84.7244 19.1124H83.3411C82.9773 19.1124 82.6949 19.1814 82.4942 19.3194C82.2997 19.4511 82.2025 19.6676 82.2025 19.9687C82.2025 20.5333 82.5695 20.8156 83.3035 20.8156H84.7244L84.5551 21.0603ZM88.2358 23.1494V18.8395L88.5087 19.1218H86.4667V18.1243H91.1719V19.1218H89.1392L89.4121 18.8395V23.1494H88.2358ZM92.0251 23.1494V18.1243H93.2014V21.4367L95.9775 18.1243H97.0502V23.1494H95.8739V19.837L93.1073 23.1494H92.0251ZM101.823 23.1494V21.4367L101.992 21.6343H100.486C99.7963 21.6343 99.2537 21.4901 98.8584 21.2015C98.4695 20.9066 98.275 20.4831 98.275 19.9311C98.275 19.3414 98.482 18.8928 98.8961 18.5854C99.3164 18.278 99.8747 18.1243 100.571 18.1243H102.877V23.1494H101.823ZM98.2091 23.1494L99.5642 21.2297H100.769L99.4701 23.1494H98.2091ZM101.823 21.0603V18.8018L101.992 19.1124H100.609C100.245 19.1124 99.9626 19.1814 99.7618 19.3194C99.5673 19.4511 99.4701 19.6676 99.4701 19.9687C99.4701 20.5333 99.8371 20.8156 100.571 20.8156H101.992L101.823 21.0603ZM104.459 23.1494V18.1243H105.692L107.715 21.6908H107.226L109.352 18.1243H110.453L110.463 23.1494H109.399V19.3853L109.588 19.5076L107.705 22.6224H107.197L105.306 19.4229L105.532 19.3665V23.1494H104.459Z" fill="#474766"/>
<path d="M14.2234 46.1494L12.8014 44.1034L13.4314 43.7134L15.1054 46.1494H14.2234ZM11.4454 46.1494V41.9494H12.2134V46.1494H11.4454ZM11.9794 44.3794V43.7074H13.3954V44.3794H11.9794ZM13.5034 44.1394L12.7894 44.0434L14.2234 41.9494H15.0514L13.5034 44.1394ZM15.1649 46.1434L15.2009 45.5134C15.2289 45.5174 15.2549 45.5214 15.2789 45.5254C15.3029 45.5294 15.3249 45.5314 15.3449 45.5314C15.4689 45.5314 15.5649 45.4934 15.6329 45.4174C15.7009 45.3414 15.7509 45.2394 15.7829 45.1114C15.8189 44.9794 15.8429 44.8334 15.8549 44.6734C15.8709 44.5094 15.8829 44.3454 15.8909 44.1814L15.9449 42.9454H18.5369V46.1494H17.7869V43.3774L17.9609 43.5814H16.4369L16.5989 43.3714L16.5569 44.2174C16.5449 44.5014 16.5209 44.7654 16.4849 45.0094C16.4529 45.2494 16.4009 45.4594 16.3289 45.6394C16.2609 45.8194 16.1649 45.9594 16.0409 46.0594C15.9209 46.1594 15.7669 46.2094 15.5789 46.2094C15.5189 46.2094 15.4529 46.2034 15.3809 46.1914C15.3129 46.1794 15.2409 46.1634 15.1649 46.1434ZM19.835 47.3554C19.679 47.3554 19.523 47.3294 19.367 47.2774C19.211 47.2254 19.081 47.1534 18.977 47.0614L19.277 46.5094C19.353 46.5774 19.439 46.6314 19.535 46.6714C19.631 46.7114 19.729 46.7314 19.829 46.7314C19.965 46.7314 20.075 46.6974 20.159 46.6294C20.243 46.5614 20.321 46.4474 20.393 46.2874L20.579 45.8674L20.639 45.7774L21.851 42.9454H22.571L21.071 46.4074C20.971 46.6474 20.859 46.8374 20.735 46.9774C20.615 47.1174 20.479 47.2154 20.327 47.2714C20.179 47.3274 20.015 47.3554 19.835 47.3554ZM20.495 46.2634L19.049 42.9454H19.829L21.005 45.7114L20.495 46.2634ZM24.5926 46.2094C24.3286 46.2094 24.0926 46.1694 23.8846 46.0894C23.6766 46.0094 23.4966 45.8874 23.3446 45.7234C23.1966 45.5554 23.0826 45.3434 23.0026 45.0874C22.9226 44.8314 22.8826 44.5274 22.8826 44.1754C22.8826 43.9194 22.9046 43.6854 22.9486 43.4734C22.9926 43.2614 23.0586 43.0714 23.1466 42.9034C23.2346 42.7314 23.3446 42.5794 23.4766 42.4474C23.6126 42.3154 23.7706 42.2054 23.9506 42.1174C24.1306 42.0294 24.3346 41.9614 24.5626 41.9134L26.0506 41.5954L26.1586 42.2674L24.8086 42.5434C24.7326 42.5594 24.6406 42.5834 24.5326 42.6154C24.4286 42.6434 24.3206 42.6874 24.2086 42.7474C24.1006 42.8034 23.9986 42.8854 23.9026 42.9934C23.8106 43.0974 23.7346 43.2334 23.6746 43.4014C23.6186 43.5654 23.5906 43.7714 23.5906 44.0194C23.5906 44.0954 23.5926 44.1534 23.5966 44.1934C23.6046 44.2294 23.6106 44.2694 23.6146 44.3134C23.6226 44.3534 23.6266 44.4134 23.6266 44.4934L23.3446 44.1994C23.4246 43.9954 23.5346 43.8214 23.6746 43.6774C23.8186 43.5294 23.9846 43.4174 24.1726 43.3414C24.3646 43.2614 24.5726 43.2214 24.7966 43.2214C25.0966 43.2214 25.3626 43.2834 25.5946 43.4074C25.8266 43.5314 26.0086 43.7054 26.1406 43.9294C26.2726 44.1534 26.3386 44.4074 26.3386 44.6914C26.3386 44.9874 26.2666 45.2494 26.1226 45.4774C25.9786 45.7054 25.7746 45.8854 25.5106 46.0174C25.2506 46.1454 24.9446 46.2094 24.5926 46.2094ZM24.6526 45.6034C24.8326 45.6034 24.9906 45.5654 25.1266 45.4894C25.2666 45.4094 25.3746 45.3014 25.4506 45.1654C25.5306 45.0294 25.5706 44.8774 25.5706 44.7094C25.5706 44.5414 25.5306 44.3954 25.4506 44.2714C25.3746 44.1434 25.2666 44.0414 25.1266 43.9654C24.9906 43.8894 24.8286 43.8514 24.6406 43.8514C24.4606 43.8514 24.2986 43.8874 24.1546 43.9594C24.0146 44.0314 23.9046 44.1314 23.8246 44.2594C23.7486 44.3834 23.7106 44.5274 23.7106 44.6914C23.7106 44.8594 23.7506 45.0134 23.8306 45.1534C23.9106 45.2934 24.0206 45.4034 24.1606 45.4834C24.3046 45.5634 24.4686 45.6034 24.6526 45.6034Z" fill="#474766" fill-opacity="0.17"/>
<path d="M12.3274 75.6787V71.9467L12.5134 72.1387H10.9414V71.4787H14.4934V72.1387H12.9214L13.1014 71.9467V75.6787H12.3274ZM16.782 75.7207C16.522 75.7207 16.284 75.6607 16.068 75.5407C15.856 75.4207 15.686 75.2407 15.558 75.0007C15.434 74.7567 15.372 74.4487 15.372 74.0767C15.372 73.7007 15.432 73.3927 15.552 73.1527C15.676 72.9127 15.844 72.7347 16.056 72.6187C16.268 72.4987 16.51 72.4387 16.782 72.4387C17.098 72.4387 17.376 72.5067 17.616 72.6427C17.86 72.7787 18.052 72.9687 18.192 73.2127C18.336 73.4567 18.408 73.7447 18.408 74.0767C18.408 74.4087 18.336 74.6987 18.192 74.9467C18.052 75.1907 17.86 75.3807 17.616 75.5167C17.376 75.6527 17.098 75.7207 16.782 75.7207ZM15.006 76.8427V72.4747H15.72V73.2307L15.696 74.0827L15.756 74.9347V76.8427H15.006ZM16.698 75.0787C16.878 75.0787 17.038 75.0387 17.178 74.9587C17.322 74.8787 17.436 74.7627 17.52 74.6107C17.604 74.4587 17.646 74.2807 17.646 74.0767C17.646 73.8687 17.604 73.6907 17.52 73.5427C17.436 73.3907 17.322 73.2747 17.178 73.1947C17.038 73.1147 16.878 73.0747 16.698 73.0747C16.518 73.0747 16.356 73.1147 16.212 73.1947C16.068 73.2747 15.954 73.3907 15.87 73.5427C15.786 73.6907 15.744 73.8687 15.744 74.0767C15.744 74.2807 15.786 74.4587 15.87 74.6107C15.954 74.7627 16.068 74.8787 16.212 74.9587C16.356 75.0387 16.518 75.0787 16.698 75.0787ZM20.6484 75.7207C20.2924 75.7207 19.9804 75.6507 19.7124 75.5107C19.4484 75.3667 19.2424 75.1707 19.0944 74.9227C18.9504 74.6747 18.8784 74.3927 18.8784 74.0767C18.8784 73.7567 18.9484 73.4747 19.0884 73.2307C19.2324 72.9827 19.4284 72.7887 19.6764 72.6487C19.9284 72.5087 20.2144 72.4387 20.5344 72.4387C20.8464 72.4387 21.1244 72.5067 21.3684 72.6427C21.6124 72.7787 21.8044 72.9707 21.9444 73.2187C22.0844 73.4667 22.1544 73.7587 22.1544 74.0947C22.1544 74.1267 22.1524 74.1627 22.1484 74.2027C22.1484 74.2427 22.1464 74.2807 22.1424 74.3167H19.4724V73.8187H21.7464L21.4524 73.9747C21.4564 73.7907 21.4184 73.6287 21.3384 73.4887C21.2584 73.3487 21.1484 73.2387 21.0084 73.1587C20.8724 73.0787 20.7144 73.0387 20.5344 73.0387C20.3504 73.0387 20.1884 73.0787 20.0484 73.1587C19.9124 73.2387 19.8044 73.3507 19.7244 73.4947C19.6484 73.6347 19.6104 73.8007 19.6104 73.9927V74.1127C19.6104 74.3047 19.6544 74.4747 19.7424 74.6227C19.8304 74.7707 19.9544 74.8847 20.1144 74.9647C20.2744 75.0447 20.4584 75.0847 20.6664 75.0847C20.8464 75.0847 21.0084 75.0567 21.1524 75.0007C21.2964 74.9447 21.4244 74.8567 21.5364 74.7367L21.9384 75.1987C21.7944 75.3667 21.6124 75.4967 21.3924 75.5887C21.1764 75.6767 20.9284 75.7207 20.6484 75.7207ZM22.9747 75.6787V72.4747H23.7247V73.7767H25.3387V72.4747H26.0887V75.6787H25.3387V74.4127H23.7247V75.6787H22.9747ZM28.5878 75.7207C28.2318 75.7207 27.9198 75.6507 27.6518 75.5107C27.3878 75.3667 27.1818 75.1707 27.0338 74.9227C26.8898 74.6747 26.8178 74.3927 26.8178 74.0767C26.8178 73.7567 26.8878 73.4747 27.0278 73.2307C27.1718 72.9827 27.3678 72.7887 27.6158 72.6487C27.8678 72.5087 28.1538 72.4387 28.4738 72.4387C28.7858 72.4387 29.0638 72.5067 29.3078 72.6427C29.5518 72.7787 29.7438 72.9707 29.8838 73.2187C30.0238 73.4667 30.0938 73.7587 30.0938 74.0947C30.0938 74.1267 30.0918 74.1627 30.0878 74.2027C30.0878 74.2427 30.0858 74.2807 30.0818 74.3167H27.4118V73.8187H29.6858L29.3918 73.9747C29.3958 73.7907 29.3578 73.6287 29.2778 73.4887C29.1978 73.3487 29.0878 73.2387 28.9478 73.1587C28.8118 73.0787 28.6538 73.0387 28.4738 73.0387C28.2898 73.0387 28.1278 73.0787 27.9878 73.1587C27.8518 73.2387 27.7438 73.3507 27.6638 73.4947C27.5878 73.6347 27.5498 73.8007 27.5498 73.9927V74.1127C27.5498 74.3047 27.5938 74.4747 27.6818 74.6227C27.7698 74.7707 27.8938 74.8847 28.0538 74.9647C28.2138 75.0447 28.3978 75.0847 28.6058 75.0847C28.7858 75.0847 28.9478 75.0567 29.0918 75.0007C29.2358 74.9447 29.3638 74.8567 29.4758 74.7367L29.8778 75.1987C29.7338 75.3667 29.5518 75.4967 29.3318 75.5887C29.1158 75.6767 28.8678 75.7207 28.5878 75.7207ZM32.6902 75.7207C32.4302 75.7207 32.1922 75.6607 31.9762 75.5407C31.7642 75.4207 31.5942 75.2407 31.4662 75.0007C31.3422 74.7567 31.2802 74.4487 31.2802 74.0767C31.2802 73.7007 31.3402 73.3927 31.4602 73.1527C31.5842 72.9127 31.7522 72.7347 31.9642 72.6187C32.1762 72.4987 32.4182 72.4387 32.6902 72.4387C33.0062 72.4387 33.2842 72.5067 33.5242 72.6427C33.7682 72.7787 33.9602 72.9687 34.1002 73.2127C34.2442 73.4567 34.3162 73.7447 34.3162 74.0767C34.3162 74.4087 34.2442 74.6987 34.1002 74.9467C33.9602 75.1907 33.7682 75.3807 33.5242 75.5167C33.2842 75.6527 33.0062 75.7207 32.6902 75.7207ZM30.9142 76.8427V72.4747H31.6282V73.2307L31.6042 74.0827L31.6642 74.9347V76.8427H30.9142ZM32.6062 75.0787C32.7862 75.0787 32.9462 75.0387 33.0862 74.9587C33.2302 74.8787 33.3442 74.7627 33.4282 74.6107C33.5122 74.4587 33.5542 74.2807 33.5542 74.0767C33.5542 73.8687 33.5122 73.6907 33.4282 73.5427C33.3442 73.3907 33.2302 73.2747 33.0862 73.1947C32.9462 73.1147 32.7862 73.0747 32.6062 73.0747C32.4262 73.0747 32.2642 73.1147 32.1202 73.1947C31.9762 73.2747 31.8622 73.3907 31.7782 73.5427C31.6942 73.6907 31.6522 73.8687 31.6522 74.0767C31.6522 74.2807 31.6942 74.4587 31.7782 74.6107C31.8622 74.7627 31.9762 74.8787 32.1202 74.9587C32.2642 75.0387 32.4262 75.0787 32.6062 75.0787Z" fill="#474766" fill-opacity="0.17"/>
<path d="M14.3974 102.417H15.1774V106.617H14.3974V102.417ZM12.2254 106.617H11.4454V102.417H12.2254V106.617ZM14.4574 104.817H12.1594V104.151H14.4574V104.817ZM18.2156 106.617V105.969L18.1736 105.831V104.697C18.1736 104.477 18.1076 104.307 17.9756 104.187C17.8436 104.063 17.6436 104.001 17.3756 104.001C17.1956 104.001 17.0176 104.029 16.8416 104.085C16.6696 104.141 16.5236 104.219 16.4036 104.319L16.1096 103.773C16.2816 103.641 16.4856 103.543 16.7216 103.479C16.9616 103.411 17.2096 103.377 17.4656 103.377C17.9296 103.377 18.2876 103.489 18.5396 103.713C18.7956 103.933 18.9236 104.275 18.9236 104.739V106.617H18.2156ZM17.2076 106.659C16.9676 106.659 16.7576 106.619 16.5776 106.539C16.3976 106.455 16.2576 106.341 16.1576 106.197C16.0616 106.049 16.0136 105.883 16.0136 105.699C16.0136 105.519 16.0556 105.357 16.1396 105.213C16.2276 105.069 16.3696 104.955 16.5656 104.871C16.7616 104.787 17.0216 104.745 17.3456 104.745H18.2756V105.243H17.3996C17.1436 105.243 16.9716 105.285 16.8836 105.369C16.7956 105.449 16.7516 105.549 16.7516 105.669C16.7516 105.805 16.8056 105.913 16.9136 105.993C17.0216 106.073 17.1716 106.113 17.3636 106.113C17.5476 106.113 17.7116 106.071 17.8556 105.987C18.0036 105.903 18.1096 105.779 18.1736 105.615L18.2996 106.065C18.2276 106.253 18.0976 106.399 17.9096 106.503C17.7256 106.607 17.4916 106.659 17.2076 106.659ZM21.8737 105.351C21.7217 105.423 21.5597 105.483 21.3877 105.531C21.2197 105.575 21.0417 105.597 20.8537 105.597C20.4497 105.597 20.1357 105.503 19.9117 105.315C19.6877 105.127 19.5757 104.835 19.5757 104.439V103.413H20.3257V104.391C20.3257 104.603 20.3857 104.757 20.5057 104.853C20.6297 104.949 20.7997 104.997 21.0157 104.997C21.1597 104.997 21.3037 104.979 21.4477 104.943C21.5917 104.907 21.7337 104.857 21.8737 104.793V105.351ZM21.8197 106.617V103.413H22.5697V106.617H21.8197ZM25.5222 106.617V105.969L25.4802 105.831V104.697C25.4802 104.477 25.4142 104.307 25.2822 104.187C25.1502 104.063 24.9502 104.001 24.6822 104.001C24.5022 104.001 24.3242 104.029 24.1482 104.085C23.9762 104.141 23.8302 104.219 23.7102 104.319L23.4162 103.773C23.5882 103.641 23.7922 103.543 24.0282 103.479C24.2682 103.411 24.5162 103.377 24.7722 103.377C25.2362 103.377 25.5942 103.489 25.8462 103.713C26.1022 103.933 26.2302 104.275 26.2302 104.739V106.617H25.5222ZM24.5142 106.659C24.2742 106.659 24.0642 106.619 23.8842 106.539C23.7042 106.455 23.5642 106.341 23.4642 106.197C23.3682 106.049 23.3202 105.883 23.3202 105.699C23.3202 105.519 23.3622 105.357 23.4462 105.213C23.5342 105.069 23.6762 104.955 23.8722 104.871C24.0682 104.787 24.3282 104.745 24.6522 104.745H25.5822V105.243H24.7062C24.4502 105.243 24.2782 105.285 24.1902 105.369C24.1022 105.449 24.0582 105.549 24.0582 105.669C24.0582 105.805 24.1122 105.913 24.2202 105.993C24.3282 106.073 24.4782 106.113 24.6702 106.113C24.8542 106.113 25.0182 106.071 25.1622 105.987C25.3102 105.903 25.4162 105.779 25.4802 105.615L25.6062 106.065C25.5342 106.253 25.4042 106.399 25.2162 106.503C25.0322 106.607 24.7982 106.659 24.5142 106.659ZM26.6903 106.611L26.7263 105.981C26.7543 105.985 26.7803 105.989 26.8043 105.993C26.8283 105.997 26.8503 105.999 26.8703 105.999C26.9943 105.999 27.0903 105.961 27.1583 105.885C27.2263 105.809 27.2763 105.707 27.3083 105.579C27.3443 105.447 27.3683 105.301 27.3803 105.141C27.3963 104.977 27.4083 104.813 27.4163 104.649L27.4703 103.413H30.0623V106.617H29.3123V103.845L29.4863 104.049H27.9623L28.1243 103.839L28.0823 104.685C28.0703 104.969 28.0463 105.233 28.0103 105.477C27.9783 105.717 27.9263 105.927 27.8543 106.107C27.7863 106.287 27.6903 106.427 27.5663 106.527C27.4463 106.627 27.2923 106.677 27.1043 106.677C27.0443 106.677 26.9783 106.671 26.9063 106.659C26.8383 106.647 26.7663 106.631 26.6903 106.611ZM32.5004 106.659C32.1724 106.659 31.8804 106.589 31.6244 106.449C31.3684 106.305 31.1664 106.109 31.0184 105.861C30.8704 105.613 30.7964 105.331 30.7964 105.015C30.7964 104.695 30.8704 104.413 31.0184 104.169C31.1664 103.921 31.3684 103.727 31.6244 103.587C31.8804 103.447 32.1724 103.377 32.5004 103.377C32.8324 103.377 33.1264 103.447 33.3824 103.587C33.6424 103.727 33.8444 103.919 33.9884 104.163C34.1364 104.407 34.2104 104.691 34.2104 105.015C34.2104 105.331 34.1364 105.613 33.9884 105.861C33.8444 106.109 33.6424 106.305 33.3824 106.449C33.1264 106.589 32.8324 106.659 32.5004 106.659ZM32.5004 106.017C32.6844 106.017 32.8484 105.977 32.9924 105.897C33.1364 105.817 33.2484 105.701 33.3284 105.549C33.4124 105.397 33.4544 105.219 33.4544 105.015C33.4544 104.807 33.4124 104.629 33.3284 104.481C33.2484 104.329 33.1364 104.213 32.9924 104.133C32.8484 104.053 32.6864 104.013 32.5064 104.013C32.3224 104.013 32.1584 104.053 32.0144 104.133C31.8744 104.213 31.7624 104.329 31.6784 104.481C31.5944 104.629 31.5524 104.807 31.5524 105.015C31.5524 105.219 31.5944 105.397 31.6784 105.549C31.7624 105.701 31.8744 105.817 32.0144 105.897C32.1584 105.977 32.3204 106.017 32.5004 106.017ZM36.6095 106.617V103.413H39.6815V106.617H38.9375V103.875L39.1115 104.049H37.1855L37.3595 103.875V106.617H36.6095ZM42.1875 106.659C41.8315 106.659 41.5195 106.589 41.2515 106.449C40.9875 106.305 40.7815 106.109 40.6335 105.861C40.4895 105.613 40.4175 105.331 40.4175 105.015C40.4175 104.695 40.4875 104.413 40.6275 104.169C40.7715 103.921 40.9675 103.727 41.2155 103.587C41.4675 103.447 41.7535 103.377 42.0735 103.377C42.3855 103.377 42.6635 103.445 42.9075 103.581C43.1515 103.717 43.3435 103.909 43.4835 104.157C43.6235 104.405 43.6935 104.697 43.6935 105.033C43.6935 105.065 43.6915 105.101 43.6875 105.141C43.6875 105.181 43.6855 105.219 43.6815 105.255H41.0115V104.757H43.2855L42.9915 104.913C42.9955 104.729 42.9575 104.567 42.8775 104.427C42.7975 104.287 42.6875 104.177 42.5475 104.097C42.4115 104.017 42.2535 103.977 42.0735 103.977C41.8895 103.977 41.7275 104.017 41.5875 104.097C41.4515 104.177 41.3435 104.289 41.2635 104.433C41.1875 104.573 41.1495 104.739 41.1495 104.931V105.051C41.1495 105.243 41.1935 105.413 41.2815 105.561C41.3695 105.709 41.4935 105.823 41.6535 105.903C41.8135 105.983 41.9975 106.023 42.2055 106.023C42.3855 106.023 42.5475 105.995 42.6915 105.939C42.8355 105.883 42.9635 105.795 43.0755 105.675L43.4775 106.137C43.3335 106.305 43.1515 106.435 42.9315 106.527C42.7155 106.615 42.4675 106.659 42.1875 106.659ZM46.2898 106.659C46.0298 106.659 45.7918 106.599 45.5758 106.479C45.3638 106.359 45.1938 106.179 45.0658 105.939C44.9418 105.695 44.8798 105.387 44.8798 105.015C44.8798 104.639 44.9398 104.331 45.0598 104.091C45.1838 103.851 45.3518 103.673 45.5638 103.557C45.7758 103.437 46.0178 103.377 46.2898 103.377C46.6058 103.377 46.8838 103.445 47.1238 103.581C47.3678 103.717 47.5598 103.907 47.6998 104.151C47.8438 104.395 47.9158 104.683 47.9158 105.015C47.9158 105.347 47.8438 105.637 47.6998 105.885C47.5598 106.129 47.3678 106.319 47.1238 106.455C46.8838 106.591 46.6058 106.659 46.2898 106.659ZM44.5138 107.781V103.413H45.2278V104.169L45.2038 105.021L45.2638 105.873V107.781H44.5138ZM46.2058 106.017C46.3858 106.017 46.5458 105.977 46.6858 105.897C46.8298 105.817 46.9438 105.701 47.0278 105.549C47.1118 105.397 47.1538 105.219 47.1538 105.015C47.1538 104.807 47.1118 104.629 47.0278 104.481C46.9438 104.329 46.8298 104.213 46.6858 104.133C46.5458 104.053 46.3858 104.013 46.2058 104.013C46.0258 104.013 45.8638 104.053 45.7198 104.133C45.5758 104.213 45.4618 104.329 45.3778 104.481C45.2938 104.629 45.2518 104.807 45.2518 105.015C45.2518 105.219 45.2938 105.397 45.3778 105.549C45.4618 105.701 45.5758 105.817 45.7198 105.897C45.8638 105.977 46.0258 106.017 46.2058 106.017ZM48.6622 106.617V103.413H49.4122V105.525L51.1822 103.413H51.8662V106.617H51.1162V104.505L49.3522 106.617H48.6622ZM54.3031 106.659C53.9751 106.659 53.6831 106.589 53.4271 106.449C53.1711 106.305 52.9691 106.109 52.8211 105.861C52.6731 105.613 52.5991 105.331 52.5991 105.015C52.5991 104.695 52.6731 104.413 52.8211 104.169C52.9691 103.921 53.1711 103.727 53.4271 103.587C53.6831 103.447 53.9751 103.377 54.3031 103.377C54.6351 103.377 54.9291 103.447 55.1851 103.587C55.4451 103.727 55.6471 103.919 55.7911 104.163C55.9391 104.407 56.0131 104.691 56.0131 105.015C56.0131 105.331 55.9391 105.613 55.7911 105.861C55.6471 106.109 55.4451 106.305 55.1851 106.449C54.9291 106.589 54.6351 106.659 54.3031 106.659ZM54.3031 106.017C54.4871 106.017 54.6511 105.977 54.7951 105.897C54.9391 105.817 55.0511 105.701 55.1311 105.549C55.2151 105.397 55.2571 105.219 55.2571 105.015C55.2571 104.807 55.2151 104.629 55.1311 104.481C55.0511 104.329 54.9391 104.213 54.7951 104.133C54.6511 104.053 54.4891 104.013 54.3091 104.013C54.1251 104.013 53.9611 104.053 53.8171 104.133C53.6771 104.213 53.5651 104.329 53.4811 104.481C53.3971 104.629 53.3551 104.807 53.3551 105.015C53.3551 105.219 53.3971 105.397 53.4811 105.549C53.5651 105.701 53.6771 105.817 53.8171 105.897C53.9611 105.977 54.1231 106.017 54.3031 106.017ZM58.9148 106.269V104.049H57.6848L57.6668 104.565C57.6588 104.749 57.6468 104.927 57.6308 105.099C57.6148 105.267 57.5888 105.423 57.5528 105.567C57.5168 105.707 57.4648 105.823 57.3968 105.915C57.3288 106.007 57.2388 106.067 57.1268 106.095L56.3828 105.981C56.5028 105.981 56.5988 105.943 56.6708 105.867C56.7468 105.787 56.8048 105.679 56.8448 105.543C56.8888 105.403 56.9208 105.245 56.9408 105.069C56.9608 104.889 56.9748 104.703 56.9828 104.511L57.0248 103.413H59.6648V106.269H58.9148ZM56.2688 107.331V105.981H60.1388V107.331H59.4368V106.617H56.9648V107.331H56.2688ZM62.7527 106.617V105.969L62.7107 105.831V104.697C62.7107 104.477 62.6447 104.307 62.5127 104.187C62.3807 104.063 62.1807 104.001 61.9127 104.001C61.7327 104.001 61.5547 104.029 61.3787 104.085C61.2067 104.141 61.0607 104.219 60.9407 104.319L60.6467 103.773C60.8187 103.641 61.0227 103.543 61.2587 103.479C61.4987 103.411 61.7467 103.377 62.0027 103.377C62.4667 103.377 62.8247 103.489 63.0767 103.713C63.3327 103.933 63.4607 104.275 63.4607 104.739V106.617H62.7527ZM61.7447 106.659C61.5047 106.659 61.2947 106.619 61.1147 106.539C60.9347 106.455 60.7947 106.341 60.6947 106.197C60.5987 106.049 60.5507 105.883 60.5507 105.699C60.5507 105.519 60.5927 105.357 60.6767 105.213C60.7647 105.069 60.9067 104.955 61.1027 104.871C61.2987 104.787 61.5587 104.745 61.8827 104.745H62.8127V105.243H61.9367C61.6807 105.243 61.5087 105.285 61.4207 105.369C61.3327 105.449 61.2887 105.549 61.2887 105.669C61.2887 105.805 61.3427 105.913 61.4507 105.993C61.5587 106.073 61.7087 106.113 61.9007 106.113C62.0847 106.113 62.2487 106.071 62.3927 105.987C62.5407 105.903 62.6467 105.779 62.7107 105.615L62.8367 106.065C62.7647 106.253 62.6347 106.399 62.4467 106.503C62.2627 106.607 62.0287 106.659 61.7447 106.659Z" fill="#474766" fill-opacity="0.17"/>
<path d="M14.2234 137.556L12.8014 135.51L13.4314 135.12L15.1054 137.556H14.2234ZM11.4454 137.556V133.356H12.2134V137.556H11.4454ZM11.9794 135.786V135.114H13.3954V135.786H11.9794ZM13.5034 135.546L12.7894 135.45L14.2234 133.356H15.0514L13.5034 135.546ZM16.9379 137.598C16.6099 137.598 16.3179 137.528 16.0619 137.388C15.8059 137.244 15.6039 137.048 15.4559 136.8C15.3079 136.552 15.2339 136.27 15.2339 135.954C15.2339 135.634 15.3079 135.352 15.4559 135.108C15.6039 134.86 15.8059 134.666 16.0619 134.526C16.3179 134.386 16.6099 134.316 16.9379 134.316C17.2699 134.316 17.5639 134.386 17.8199 134.526C18.0799 134.666 18.2819 134.858 18.4259 135.102C18.5739 135.346 18.6479 135.63 18.6479 135.954C18.6479 136.27 18.5739 136.552 18.4259 136.8C18.2819 137.048 18.0799 137.244 17.8199 137.388C17.5639 137.528 17.2699 137.598 16.9379 137.598ZM16.9379 136.956C17.1219 136.956 17.2859 136.916 17.4299 136.836C17.5739 136.756 17.6859 136.64 17.7659 136.488C17.8499 136.336 17.8919 136.158 17.8919 135.954C17.8919 135.746 17.8499 135.568 17.7659 135.42C17.6859 135.268 17.5739 135.152 17.4299 135.072C17.2859 134.992 17.1239 134.952 16.9439 134.952C16.7599 134.952 16.5959 134.992 16.4519 135.072C16.3119 135.152 16.1999 135.268 16.1159 135.42C16.0319 135.568 15.9899 135.746 15.9899 135.954C15.9899 136.158 16.0319 136.336 16.1159 136.488C16.1999 136.64 16.3119 136.756 16.4519 136.836C16.5959 136.916 16.7579 136.956 16.9379 136.956ZM19.3888 137.556V134.352H20.1388V135.654H21.7528V134.352H22.5028V137.556H21.7528V136.29H20.1388V137.556H19.3888ZM25.0019 137.598C24.6459 137.598 24.3339 137.528 24.0659 137.388C23.8019 137.244 23.5959 137.048 23.4479 136.8C23.3039 136.552 23.2319 136.27 23.2319 135.954C23.2319 135.634 23.3019 135.352 23.4419 135.108C23.5859 134.86 23.7819 134.666 24.0299 134.526C24.2819 134.386 24.5679 134.316 24.8879 134.316C25.1999 134.316 25.4779 134.384 25.7219 134.52C25.9659 134.656 26.1579 134.848 26.2979 135.096C26.4379 135.344 26.5079 135.636 26.5079 135.972C26.5079 136.004 26.5059 136.04 26.5019 136.08C26.5019 136.12 26.4999 136.158 26.4959 136.194H23.8259V135.696H26.0999L25.8059 135.852C25.8099 135.668 25.7719 135.506 25.6919 135.366C25.6119 135.226 25.5019 135.116 25.3619 135.036C25.2259 134.956 25.0679 134.916 24.8879 134.916C24.7039 134.916 24.5419 134.956 24.4019 135.036C24.2659 135.116 24.1579 135.228 24.0779 135.372C24.0019 135.512 23.9639 135.678 23.9639 135.87V135.99C23.9639 136.182 24.0079 136.352 24.0959 136.5C24.1839 136.648 24.3079 136.762 24.4679 136.842C24.6279 136.922 24.8119 136.962 25.0199 136.962C25.1999 136.962 25.3619 136.934 25.5059 136.878C25.6499 136.822 25.7779 136.734 25.8899 136.614L26.2919 137.076C26.1479 137.244 25.9659 137.374 25.7459 137.466C25.5299 137.554 25.2819 137.598 25.0019 137.598ZM27.3282 137.556V134.352H28.0782V136.92H29.6082V134.352H30.3582V137.556H27.3282ZM30.1422 138.27V137.538L30.3162 137.556H29.6082V136.92H30.8442V138.27H30.1422ZM33.17 137.556V134.352H36.242V137.556H35.498V134.814L35.672 134.988H33.746L33.92 134.814V137.556H33.17ZM38.748 137.598C38.392 137.598 38.08 137.528 37.812 137.388C37.548 137.244 37.342 137.048 37.194 136.8C37.05 136.552 36.978 136.27 36.978 135.954C36.978 135.634 37.048 135.352 37.188 135.108C37.332 134.86 37.528 134.666 37.776 134.526C38.028 134.386 38.314 134.316 38.634 134.316C38.946 134.316 39.224 134.384 39.468 134.52C39.712 134.656 39.904 134.848 40.044 135.096C40.184 135.344 40.254 135.636 40.254 135.972C40.254 136.004 40.252 136.04 40.248 136.08C40.248 136.12 40.246 136.158 40.242 136.194H37.572V135.696H39.846L39.552 135.852C39.556 135.668 39.518 135.506 39.438 135.366C39.358 135.226 39.248 135.116 39.108 135.036C38.972 134.956 38.814 134.916 38.634 134.916C38.45 134.916 38.288 134.956 38.148 135.036C38.012 135.116 37.904 135.228 37.824 135.372C37.748 135.512 37.71 135.678 37.71 135.87V135.99C37.71 136.182 37.754 136.352 37.842 136.5C37.93 136.648 38.054 136.762 38.214 136.842C38.374 136.922 38.558 136.962 38.766 136.962C38.946 136.962 39.108 136.934 39.252 136.878C39.396 136.822 39.524 136.734 39.636 136.614L40.038 137.076C39.894 137.244 39.712 137.374 39.492 137.466C39.276 137.554 39.028 137.598 38.748 137.598ZM42.8503 137.598C42.5903 137.598 42.3523 137.538 42.1363 137.418C41.9243 137.298 41.7543 137.118 41.6263 136.878C41.5023 136.634 41.4403 136.326 41.4403 135.954C41.4403 135.578 41.5003 135.27 41.6203 135.03C41.7443 134.79 41.9123 134.612 42.1243 134.496C42.3363 134.376 42.5783 134.316 42.8503 134.316C43.1663 134.316 43.4443 134.384 43.6843 134.52C43.9283 134.656 44.1203 134.846 44.2603 135.09C44.4043 135.334 44.4763 135.622 44.4763 135.954C44.4763 136.286 44.4043 136.576 44.2603 136.824C44.1203 137.068 43.9283 137.258 43.6843 137.394C43.4443 137.53 43.1663 137.598 42.8503 137.598ZM41.0743 138.72V134.352H41.7883V135.108L41.7643 135.96L41.8243 136.812V138.72H41.0743ZM42.7663 136.956C42.9463 136.956 43.1063 136.916 43.2463 136.836C43.3903 136.756 43.5043 136.64 43.5883 136.488C43.6723 136.336 43.7143 136.158 43.7143 135.954C43.7143 135.746 43.6723 135.568 43.5883 135.42C43.5043 135.268 43.3903 135.152 43.2463 135.072C43.1063 134.992 42.9463 134.952 42.7663 134.952C42.5863 134.952 42.4243 134.992 42.2803 135.072C42.1363 135.152 42.0223 135.268 41.9383 135.42C41.8543 135.568 41.8123 135.746 41.8123 135.954C41.8123 136.158 41.8543 136.336 41.9383 136.488C42.0223 136.64 42.1363 136.756 42.2803 136.836C42.4243 136.916 42.5863 136.956 42.7663 136.956ZM45.2228 137.556V134.352H45.9728V136.464L47.7428 134.352H48.4268V137.556H47.6768V135.444L45.9128 137.556H45.2228ZM50.8636 137.598C50.5356 137.598 50.2436 137.528 49.9876 137.388C49.7316 137.244 49.5296 137.048 49.3816 136.8C49.2336 136.552 49.1596 136.27 49.1596 135.954C49.1596 135.634 49.2336 135.352 49.3816 135.108C49.5296 134.86 49.7316 134.666 49.9876 134.526C50.2436 134.386 50.5356 134.316 50.8636 134.316C51.1956 134.316 51.4896 134.386 51.7456 134.526C52.0056 134.666 52.2076 134.858 52.3516 135.102C52.4996 135.346 52.5736 135.63 52.5736 135.954C52.5736 136.27 52.4996 136.552 52.3516 136.8C52.2076 137.048 52.0056 137.244 51.7456 137.388C51.4896 137.528 51.1956 137.598 50.8636 137.598ZM50.8636 136.956C51.0476 136.956 51.2116 136.916 51.3556 136.836C51.4996 136.756 51.6116 136.64 51.6916 136.488C51.7756 136.336 51.8176 136.158 51.8176 135.954C51.8176 135.746 51.7756 135.568 51.6916 135.42C51.6116 135.268 51.4996 135.152 51.3556 135.072C51.2116 134.992 51.0496 134.952 50.8696 134.952C50.6856 134.952 50.5216 134.992 50.3776 135.072C50.2376 135.152 50.1256 135.268 50.0416 135.42C49.9576 135.568 49.9156 135.746 49.9156 135.954C49.9156 136.158 49.9576 136.336 50.0416 136.488C50.1256 136.64 50.2376 136.756 50.3776 136.836C50.5216 136.916 50.6836 136.956 50.8636 136.956ZM55.4754 137.208V134.988H54.2454L54.2274 135.504C54.2194 135.688 54.2074 135.866 54.1914 136.038C54.1754 136.206 54.1494 136.362 54.1134 136.506C54.0774 136.646 54.0254 136.762 53.9574 136.854C53.8894 136.946 53.7994 137.006 53.6874 137.034L52.9434 136.92C53.0634 136.92 53.1594 136.882 53.2314 136.806C53.3074 136.726 53.3654 136.618 53.4054 136.482C53.4494 136.342 53.4814 136.184 53.5014 136.008C53.5214 135.828 53.5354 135.642 53.5434 135.45L53.5854 134.352H56.2254V137.208H55.4754ZM52.8294 138.27V136.92H56.6994V138.27H55.9974V137.556H53.5254V138.27H52.8294ZM59.3132 137.556V136.908L59.2712 136.77V135.636C59.2712 135.416 59.2052 135.246 59.0732 135.126C58.9412 135.002 58.7412 134.94 58.4732 134.94C58.2932 134.94 58.1152 134.968 57.9392 135.024C57.7672 135.08 57.6212 135.158 57.5012 135.258L57.2072 134.712C57.3792 134.58 57.5832 134.482 57.8192 134.418C58.0592 134.35 58.3072 134.316 58.5632 134.316C59.0272 134.316 59.3852 134.428 59.6372 134.652C59.8932 134.872 60.0212 135.214 60.0212 135.678V137.556H59.3132ZM58.3052 137.598C58.0652 137.598 57.8552 137.558 57.6752 137.478C57.4952 137.394 57.3552 137.28 57.2552 137.136C57.1592 136.988 57.1112 136.822 57.1112 136.638C57.1112 136.458 57.1532 136.296 57.2372 136.152C57.3252 136.008 57.4672 135.894 57.6632 135.81C57.8592 135.726 58.1192 135.684 58.4432 135.684H59.3732V136.182H58.4972C58.2412 136.182 58.0692 136.224 57.9812 136.308C57.8932 136.388 57.8492 136.488 57.8492 136.608C57.8492 136.744 57.9032 136.852 58.0112 136.932C58.1192 137.012 58.2692 137.052 58.4612 137.052C58.6452 137.052 58.8092 137.01 58.9532 136.926C59.1012 136.842 59.2072 136.718 59.2712 136.554L59.3972 137.004C59.3252 137.192 59.1952 137.338 59.0072 137.442C58.8232 137.546 58.5892 137.598 58.3052 137.598Z" fill="#474766" fill-opacity="0.17"/>
<path d="M12.0443 56.1895V51.2441L12.478 51.693H10.9183V50.8637H13.0334V56.1895H12.0443ZM16.9505 56.2655C16.5448 56.2655 16.1669 56.1996 15.8169 56.0677C15.472 55.9308 15.1702 55.7406 14.9115 55.4971C14.6579 55.2486 14.4601 54.9569 14.3181 54.6222C14.1761 54.2874 14.1051 53.9222 14.1051 53.5266C14.1051 53.131 14.1761 52.7658 14.3181 52.431C14.4601 52.0962 14.6605 51.8071 14.9191 51.5637C15.1778 51.3151 15.4796 51.1249 15.8245 50.993C16.1694 50.8561 16.5473 50.7876 16.9581 50.7876C17.3943 50.7876 17.7925 50.8637 18.1526 51.0159C18.5127 51.163 18.8171 51.3836 19.0656 51.6778L18.4265 52.2788C18.2338 52.0709 18.0182 51.9162 17.7798 51.8147C17.5414 51.7082 17.2827 51.655 17.0038 51.655C16.7248 51.655 16.4687 51.7006 16.2354 51.7919C16.0071 51.8832 15.8068 52.0125 15.6343 52.1799C15.4669 52.3473 15.335 52.5451 15.2387 52.7734C15.1474 53.0016 15.1017 53.2527 15.1017 53.5266C15.1017 53.8005 15.1474 54.0515 15.2387 54.2798C15.335 54.508 15.4669 54.7059 15.6343 54.8732C15.8068 55.0406 16.0071 55.17 16.2354 55.2613C16.4687 55.3526 16.7248 55.3982 17.0038 55.3982C17.2827 55.3982 17.5414 55.3475 17.7798 55.246C18.0182 55.1395 18.2338 54.9797 18.4265 54.7667L19.0656 55.3754C18.8171 55.6645 18.5127 55.8851 18.1526 56.0373C17.7925 56.1895 17.3918 56.2655 16.9505 56.2655ZM24.7951 55.8471C24.1256 55.8471 23.555 55.7558 23.0833 55.5732C22.6166 55.3906 22.2591 55.1268 22.0105 54.7819C21.762 54.432 21.6377 54.011 21.6377 53.519C21.6377 53.0168 21.762 52.5933 22.0105 52.2484C22.2591 51.9035 22.6166 51.6397 23.0833 51.4571C23.555 51.2746 24.1256 51.1833 24.7951 51.1833C24.8053 51.1833 24.8281 51.1833 24.8636 51.1833C24.9042 51.1833 24.9422 51.1833 24.9777 51.1833C25.0183 51.1833 25.0411 51.1833 25.0462 51.1833C25.7106 51.1833 26.2762 51.2746 26.7428 51.4571C27.2095 51.6397 27.5645 51.906 27.808 52.256C28.0514 52.6009 28.1732 53.0219 28.1732 53.519C28.1732 54.0059 28.0514 54.4243 27.808 54.7743C27.5696 55.1243 27.2196 55.3906 26.758 55.5732C26.3015 55.7558 25.7436 55.8471 25.0842 55.8471C25.0741 55.8471 25.0462 55.8471 25.0005 55.8471C24.96 55.8471 24.9169 55.8471 24.8712 55.8471C24.8306 55.8471 24.8053 55.8471 24.7951 55.8471ZM24.894 55.0787C24.9042 55.0787 24.9194 55.0787 24.9397 55.0787C24.96 55.0787 24.9726 55.0787 24.9777 55.0787C25.4697 55.0736 25.8806 55.0127 26.2102 54.8961C26.545 54.7794 26.7961 54.6069 26.9635 54.3787C27.1359 54.1454 27.2221 53.8563 27.2221 53.5114C27.2221 53.1665 27.1359 52.8799 26.9635 52.6516C26.791 52.4234 26.5399 52.2509 26.2102 52.1343C25.8806 52.0176 25.4748 51.9593 24.9929 51.9593C24.9879 51.9593 24.9726 51.9593 24.9473 51.9593C24.9219 51.9593 24.9042 51.9593 24.894 51.9593C24.3919 51.9593 23.9684 52.0176 23.6235 52.1343C23.2836 52.2459 23.0275 52.4183 22.855 52.6516C22.6876 52.8799 22.604 53.169 22.604 53.519C22.604 53.869 22.6927 54.1606 22.8702 54.3939C23.0528 54.6222 23.3141 54.7946 23.6539 54.9113C23.9937 55.0229 24.4071 55.0787 24.894 55.0787ZM24.4528 56.4025V50.6507H25.3657V56.4025H24.4528ZM29.1053 56.1895V52.1267H30.0564V54.8048L32.3008 52.1267H33.1681V56.1895H32.2171V53.5114L29.9803 56.1895H29.1053ZM35.2919 56.1895V52.7049L35.5126 52.9331H33.8616V52.1267H37.6657V52.9331H36.0223L36.243 52.7049V56.1895H35.2919ZM38.3556 56.1895V52.1267H39.3066V53.7777H41.3532V52.1267H42.3042V56.1895H41.3532V54.5841H39.3066V56.1895H38.3556ZM45.4732 56.2427C45.0218 56.2427 44.6262 56.1539 44.2863 55.9764C43.9516 55.7938 43.6904 55.5453 43.5027 55.2308C43.3201 54.9163 43.2288 54.5588 43.2288 54.1581C43.2288 53.7523 43.3176 53.3947 43.4951 53.0853C43.6777 52.7708 43.9262 52.5248 44.2407 52.3473C44.5602 52.1698 44.9229 52.081 45.3287 52.081C45.7243 52.081 46.0768 52.1672 46.3862 52.3397C46.6956 52.5122 46.9391 52.7556 47.1166 53.0701C47.2941 53.3846 47.3829 53.7548 47.3829 54.1809C47.3829 54.2215 47.3803 54.2671 47.3753 54.3178C47.3753 54.3686 47.3727 54.4167 47.3677 54.4624H43.982V53.8309H46.8655L46.4927 54.0287C46.4978 53.7954 46.4496 53.59 46.3482 53.4125C46.2467 53.2349 46.1072 53.0954 45.9297 52.994C45.7573 52.8926 45.5569 52.8418 45.3287 52.8418C45.0953 52.8418 44.8899 52.8926 44.7124 52.994C44.5399 53.0954 44.403 53.2375 44.3016 53.4201C44.2052 53.5976 44.157 53.8081 44.157 54.0515V54.2037C44.157 54.4472 44.2128 54.6627 44.3244 54.8504C44.436 55.0381 44.5932 55.1826 44.7961 55.2841C44.999 55.3855 45.2323 55.4362 45.496 55.4362C45.7243 55.4362 45.9297 55.4007 46.1123 55.3297C46.2949 55.2587 46.4572 55.1471 46.5992 54.995L47.109 55.5808C46.9264 55.7938 46.6956 55.9587 46.4166 56.0753C46.1427 56.1869 45.8283 56.2427 45.4732 56.2427ZM50.2718 56.2427C49.8458 56.2427 49.4654 56.1539 49.1306 55.9764C48.8009 55.7938 48.5423 55.5453 48.3546 55.2308C48.1669 54.9163 48.0731 54.5588 48.0731 54.1581C48.0731 53.7523 48.1669 53.3947 48.3546 53.0853C48.5423 52.7708 48.8009 52.5248 49.1306 52.3473C49.4654 52.1698 49.8458 52.081 50.2718 52.081C50.6675 52.081 51.0149 52.1622 51.3142 52.3245C51.6185 52.4817 51.8493 52.715 52.0065 53.0244L51.2761 53.4505C51.1544 53.2578 51.0048 53.1157 50.8272 53.0244C50.6548 52.9331 50.4671 52.8875 50.2642 52.8875C50.0309 52.8875 49.8204 52.9382 49.6328 53.0397C49.4451 53.1411 49.298 53.2882 49.1915 53.4809C49.085 53.6686 49.0317 53.8943 49.0317 54.1581C49.0317 54.4218 49.085 54.6501 49.1915 54.8428C49.298 55.0305 49.4451 55.175 49.6328 55.2765C49.8204 55.3779 50.0309 55.4286 50.2642 55.4286C50.4671 55.4286 50.6548 55.383 50.8272 55.2917C51.0048 55.2004 51.1544 55.0584 51.2761 54.8656L52.0065 55.2917C51.8493 55.596 51.6185 55.8319 51.3142 55.9992C51.0149 56.1616 50.6675 56.2427 50.2718 56.2427ZM52.5118 54.47V53.6787H54.604V54.47H52.5118ZM58.5737 56.1895L57.1053 54.2418L57.8814 53.7624L59.6921 56.1895H58.5737ZM55.6598 56.1895V52.1267H56.6108V56.1895H55.6598ZM56.3293 54.5613V53.77H57.7064V54.5613H56.3293ZM57.9727 54.2722L57.0825 54.1657L58.5737 52.1267H59.5932L57.9727 54.2722ZM59.7694 56.1818L59.8151 55.383C59.8506 55.3881 59.8836 55.3931 59.914 55.3982C59.9444 55.4033 59.9723 55.4058 59.9977 55.4058C60.1549 55.4058 60.2767 55.3576 60.3629 55.2613C60.4491 55.1649 60.5125 55.0355 60.5531 54.8732C60.5987 54.7059 60.6292 54.5207 60.6444 54.3178C60.6647 54.1099 60.6799 53.9019 60.69 53.694L60.7585 52.1267H64.0453V56.1895H63.0942V52.6745L63.3149 52.9331H61.3824L61.5878 52.6669L61.5345 53.7396C61.5193 54.0997 61.4889 54.4345 61.4433 54.7439C61.4027 55.0482 61.3367 55.3145 61.2454 55.5428C61.1592 55.771 61.0375 55.9485 60.8802 56.0753C60.7281 56.2021 60.5328 56.2655 60.2944 56.2655C60.2183 56.2655 60.1346 56.2579 60.0433 56.2427C59.9571 56.2275 59.8658 56.2072 59.7694 56.1818ZM65.6912 57.7187C65.4934 57.7187 65.2956 57.6857 65.0978 57.6198C64.9 57.5539 64.7351 57.4626 64.6033 57.3459L64.9837 56.6459C65.0801 56.7322 65.1891 56.8006 65.3108 56.8514C65.4326 56.9021 65.5568 56.9274 65.6836 56.9274C65.8561 56.9274 65.9956 56.8843 66.1021 56.7981C66.2086 56.7119 66.3075 56.5673 66.3988 56.3644L66.6347 55.8319L66.7107 55.7177L68.2476 52.1267H69.1606L67.2585 56.5166C67.1317 56.8209 66.9897 57.0619 66.8325 57.2394C66.6803 57.4169 66.5079 57.5412 66.3151 57.6122C66.1274 57.6832 65.9195 57.7187 65.6912 57.7187ZM66.5281 56.334L64.6946 52.1267H65.6836L67.1748 55.6341L66.5281 56.334ZM71.7241 56.2655C71.3893 56.2655 71.0901 56.2148 70.8263 56.1134C70.5626 56.0119 70.3343 55.8572 70.1416 55.6493C69.9539 55.4362 69.8093 55.1674 69.7079 54.8428C69.6065 54.5182 69.5557 54.1327 69.5557 53.6864C69.5557 53.3617 69.5836 53.065 69.6394 52.7962C69.6952 52.5274 69.7789 52.2864 69.8905 52.0734C70.0021 51.8553 70.1416 51.6626 70.309 51.4952C70.4814 51.3278 70.6818 51.1883 70.91 51.0767C71.1382 50.9652 71.3969 50.8789 71.686 50.8181L73.5729 50.4148L73.7098 51.2669L71.998 51.6169C71.9016 51.6372 71.7849 51.6676 71.648 51.7082C71.5161 51.7437 71.3792 51.7995 71.2372 51.8756C71.1002 51.9466 70.9709 52.0506 70.8491 52.1875C70.7325 52.3194 70.6361 52.4919 70.56 52.7049C70.489 52.9129 70.4535 53.1741 70.4535 53.4885C70.4535 53.5849 70.456 53.6585 70.4611 53.7092C70.4713 53.7548 70.4789 53.8055 70.4839 53.8613C70.4941 53.9121 70.4992 53.9881 70.4992 54.0896L70.1416 53.7168C70.243 53.4581 70.3825 53.2375 70.56 53.0549C70.7426 52.8672 70.9531 52.7252 71.1915 52.6288C71.435 52.5274 71.6987 52.4766 71.9828 52.4766C72.3632 52.4766 72.7005 52.5553 72.9946 52.7125C73.2888 52.8697 73.5196 53.0904 73.687 53.3744C73.8544 53.6585 73.9381 53.9805 73.9381 54.3407C73.9381 54.716 73.8468 55.0482 73.6642 55.3373C73.4816 55.6264 73.2229 55.8547 72.8881 56.0221C72.5584 56.1844 72.1704 56.2655 71.7241 56.2655ZM71.8002 55.4971C72.0284 55.4971 72.2288 55.4489 72.4012 55.3526C72.5787 55.2511 72.7157 55.1142 72.8121 54.9417C72.9135 54.7693 72.9642 54.5765 72.9642 54.3635C72.9642 54.1505 72.9135 53.9653 72.8121 53.8081C72.7157 53.6458 72.5787 53.5164 72.4012 53.4201C72.2288 53.3237 72.0233 53.2755 71.7849 53.2755C71.5567 53.2755 71.3513 53.3212 71.1687 53.4125C70.9912 53.5038 70.8517 53.6306 70.7502 53.7929C70.6539 53.9501 70.6057 54.1327 70.6057 54.3407C70.6057 54.5537 70.6564 54.749 70.7578 54.9265C70.8593 55.104 70.9988 55.2435 71.1763 55.3449C71.3589 55.4464 71.5668 55.4971 71.8002 55.4971Z" fill="#474766"/>
<path d="M12.0443 116.657V111.712L12.478 112.161H10.9183V111.331H13.0334V116.657H12.0443ZM19.076 116.733C19.0709 116.733 19.0481 116.733 19.0075 116.733C18.972 116.733 18.9365 116.733 18.901 116.733C18.8706 116.733 18.8503 116.733 18.8402 116.733C17.983 116.723 17.3185 116.538 16.8468 116.178C16.3751 115.813 16.1392 115.293 16.1392 114.618C16.1392 113.949 16.3751 113.436 16.8468 113.081C17.3185 112.726 17.9906 112.544 18.863 112.534C18.8731 112.534 18.8934 112.534 18.9238 112.534C18.9593 112.534 18.9923 112.534 19.0228 112.534C19.0583 112.534 19.0785 112.534 19.0836 112.534C19.9611 112.534 20.6433 112.714 21.1302 113.074C21.6222 113.429 21.8682 113.944 21.8682 114.618C21.8682 115.298 21.6222 115.82 21.1302 116.186C20.6433 116.551 19.9586 116.733 19.076 116.733ZM19.0456 115.942C19.4767 115.942 19.8318 115.894 20.1107 115.797C20.3897 115.696 20.5976 115.549 20.7346 115.356C20.8715 115.158 20.94 114.912 20.94 114.618C20.94 114.329 20.8715 114.091 20.7346 113.903C20.5976 113.71 20.3897 113.568 20.1107 113.477C19.8318 113.381 19.4767 113.332 19.0456 113.332C19.0354 113.332 19.0101 113.332 18.9695 113.332C18.934 113.332 18.9112 113.332 18.901 113.332C18.48 113.332 18.1351 113.383 17.8663 113.485C17.5975 113.581 17.3971 113.723 17.2653 113.911C17.1385 114.098 17.075 114.334 17.075 114.618C17.075 114.907 17.1385 115.148 17.2653 115.341C17.3971 115.534 17.5975 115.681 17.8663 115.782C18.1402 115.884 18.4851 115.937 18.901 115.942C18.9112 115.942 18.934 115.942 18.9695 115.942C19.0101 115.942 19.0354 115.942 19.0456 115.942ZM18.551 118.133V111.012H19.4488V118.133H18.551ZM24.6844 116.71C24.233 116.71 23.8373 116.622 23.4975 116.444C23.1627 116.262 22.9015 116.013 22.7139 115.699C22.5313 115.384 22.44 115.027 22.44 114.626C22.44 114.22 22.5287 113.862 22.7063 113.553C22.8888 113.239 23.1374 112.993 23.4519 112.815C23.7714 112.638 24.1341 112.549 24.5398 112.549C24.9355 112.549 25.288 112.635 25.5974 112.807C25.9068 112.98 26.1502 113.223 26.3278 113.538C26.5053 113.852 26.594 114.223 26.594 114.649C26.594 114.689 26.5915 114.735 26.5864 114.786C26.5864 114.836 26.5839 114.885 26.5788 114.93H23.1932V114.299H26.0767L25.7039 114.496C25.709 114.263 25.6608 114.058 25.5593 113.88C25.4579 113.703 25.3184 113.563 25.1409 113.462C24.9684 113.36 24.7681 113.31 24.5398 113.31C24.3065 113.31 24.1011 113.36 23.9236 113.462C23.7511 113.563 23.6142 113.705 23.5127 113.888C23.4164 114.065 23.3682 114.276 23.3682 114.519V114.671C23.3682 114.915 23.424 115.131 23.5355 115.318C23.6471 115.506 23.8044 115.65 24.0073 115.752C24.2101 115.853 24.4435 115.904 24.7072 115.904C24.9355 115.904 25.1409 115.869 25.3235 115.797C25.5061 115.726 25.6684 115.615 25.8104 115.463L26.3201 116.049C26.1376 116.262 25.9068 116.426 25.6278 116.543C25.3539 116.655 25.0394 116.71 24.6844 116.71ZM27.6342 116.657V112.594H29.62C30.112 112.594 30.4975 112.686 30.7764 112.868C31.0605 113.051 31.2025 113.31 31.2025 113.644C31.2025 113.974 31.0706 114.233 30.8069 114.42C30.5431 114.603 30.1931 114.694 29.7569 114.694L29.871 114.458C30.363 114.458 30.7282 114.55 30.9666 114.732C31.2101 114.91 31.3318 115.171 31.3318 115.516C31.3318 115.876 31.1974 116.158 30.9286 116.361C30.6598 116.558 30.2515 116.657 29.7037 116.657H27.6342ZM28.5396 115.965H29.6276C29.8863 115.965 30.0815 115.924 30.2134 115.843C30.3453 115.757 30.4112 115.628 30.4112 115.455C30.4112 115.273 30.3504 115.138 30.2286 115.052C30.1069 114.966 29.9167 114.923 29.658 114.923H28.5396V115.965ZM28.5396 114.291H29.5363C29.7797 114.291 29.9623 114.248 30.0841 114.162C30.2109 114.07 30.2743 113.944 30.2743 113.781C30.2743 113.614 30.2109 113.49 30.0841 113.409C29.9623 113.327 29.7797 113.287 29.5363 113.287H28.5396V114.291ZM34.5968 116.71C34.2671 116.71 33.9653 116.634 33.6914 116.482C33.4226 116.33 33.207 116.102 33.0447 115.797C32.8875 115.488 32.8089 115.098 32.8089 114.626C32.8089 114.149 32.885 113.758 33.0371 113.454C33.1944 113.15 33.4074 112.924 33.6762 112.777C33.945 112.625 34.2519 112.549 34.5968 112.549C34.9975 112.549 35.35 112.635 35.6543 112.807C35.9637 112.98 36.2072 113.221 36.3847 113.53C36.5673 113.84 36.6586 114.205 36.6586 114.626C36.6586 115.047 36.5673 115.415 36.3847 115.729C36.2072 116.038 35.9637 116.279 35.6543 116.452C35.35 116.624 34.9975 116.71 34.5968 116.71ZM32.3448 118.133V112.594H33.2502V113.553L33.2197 114.633L33.2958 115.714V118.133H32.3448ZM34.4903 115.896C34.7185 115.896 34.9214 115.846 35.0989 115.744C35.2815 115.643 35.4261 115.496 35.5326 115.303C35.6391 115.11 35.6924 114.885 35.6924 114.626C35.6924 114.362 35.6391 114.136 35.5326 113.949C35.4261 113.756 35.2815 113.609 35.0989 113.507C34.9214 113.406 34.7185 113.355 34.4903 113.355C34.262 113.355 34.0566 113.406 33.874 113.507C33.6914 113.609 33.5469 113.756 33.4404 113.949C33.3338 114.136 33.2806 114.362 33.2806 114.626C33.2806 114.885 33.3338 115.11 33.4404 115.303C33.5469 115.496 33.6914 115.643 33.874 115.744C34.0566 115.846 34.262 115.896 34.4903 115.896ZM40.0182 116.657V115.836L39.9649 115.661V114.223C39.9649 113.944 39.8812 113.728 39.7139 113.576C39.5465 113.419 39.2929 113.34 38.953 113.34C38.7248 113.34 38.4991 113.376 38.2759 113.447C38.0578 113.518 37.8727 113.616 37.7205 113.743L37.3477 113.051C37.5658 112.884 37.8245 112.759 38.1237 112.678C38.4281 112.592 38.7425 112.549 39.0672 112.549C39.6555 112.549 40.1095 112.691 40.429 112.975C40.7536 113.254 40.916 113.687 40.916 114.276V116.657H40.0182ZM38.74 116.71C38.4357 116.71 38.1694 116.66 37.9411 116.558C37.7129 116.452 37.5354 116.307 37.4086 116.125C37.2868 115.937 37.226 115.726 37.226 115.493C37.226 115.265 37.2792 115.06 37.3858 114.877C37.4973 114.694 37.6774 114.55 37.9259 114.443C38.1745 114.337 38.5042 114.283 38.915 114.283H40.0943V114.915H38.9835C38.6589 114.915 38.4408 114.968 38.3292 115.075C38.2176 115.176 38.1618 115.303 38.1618 115.455C38.1618 115.628 38.2303 115.765 38.3672 115.866C38.5042 115.967 38.6944 116.018 38.9378 116.018C39.1711 116.018 39.3791 115.965 39.5617 115.858C39.7494 115.752 39.8838 115.595 39.9649 115.387L40.1247 115.957C40.0334 116.196 39.8686 116.381 39.6302 116.513C39.3969 116.645 39.1001 116.71 38.74 116.71ZM41.4994 116.65L41.545 115.851C41.5805 115.856 41.6135 115.861 41.6439 115.866C41.6743 115.871 41.7022 115.874 41.7276 115.874C41.8848 115.874 42.0066 115.825 42.0928 115.729C42.179 115.633 42.2424 115.503 42.283 115.341C42.3286 115.174 42.3591 114.988 42.3743 114.786C42.3946 114.578 42.4098 114.37 42.4199 114.162L42.4884 112.594H45.7752V116.657H44.8241V113.142L45.0448 113.401H43.1123L43.3177 113.135L43.2645 114.207C43.2492 114.568 43.2188 114.902 43.1732 115.212C43.1326 115.516 43.0666 115.782 42.9753 116.011C42.8891 116.239 42.7674 116.416 42.6102 116.543C42.458 116.67 42.2627 116.733 42.0243 116.733C41.9482 116.733 41.8645 116.726 41.7732 116.71C41.687 116.695 41.5957 116.675 41.4994 116.65ZM49.6351 116.657V115.273L49.7721 115.432H48.5548C47.9968 115.432 47.5581 115.316 47.2386 115.082C46.9241 114.844 46.7668 114.502 46.7668 114.055C46.7668 113.578 46.9342 113.216 47.269 112.967C47.6088 112.719 48.0602 112.594 48.6232 112.594H50.4873V116.657H49.6351ZM46.7136 116.657L47.8092 115.105H48.783L47.7331 116.657H46.7136ZM49.6351 114.968V113.142L49.7721 113.393H48.6537C48.3595 113.393 48.1312 113.449 47.9689 113.561C47.8117 113.667 47.7331 113.842 47.7331 114.086C47.7331 114.542 48.0298 114.77 48.6232 114.77H49.7721L49.6351 114.968ZM53.4964 116.657V115.995L55.6114 113.987C55.789 113.819 55.9208 113.672 56.0071 113.545C56.0933 113.419 56.1491 113.302 56.1745 113.195C56.2049 113.084 56.2201 112.98 56.2201 112.884C56.2201 112.64 56.1364 112.452 55.969 112.321C55.8016 112.184 55.5557 112.115 55.231 112.115C54.9724 112.115 54.7365 112.161 54.5235 112.252C54.3155 112.343 54.1355 112.483 53.9833 112.671L53.2909 112.138C53.4989 111.859 53.7779 111.643 54.1278 111.491C54.4829 111.334 54.8785 111.255 55.3147 111.255C55.7002 111.255 56.035 111.319 56.319 111.446C56.6081 111.567 56.8288 111.742 56.9809 111.971C57.1382 112.199 57.2168 112.47 57.2168 112.785C57.2168 112.957 57.194 113.13 57.1483 113.302C57.1027 113.469 57.0164 113.647 56.8896 113.835C56.7628 114.022 56.5777 114.233 56.3342 114.466L54.5159 116.193L54.3104 115.82H57.4222V116.657H53.4964ZM60.2146 116.733C59.7937 116.733 59.4133 116.627 59.0734 116.414C58.7387 116.201 58.4749 115.891 58.2822 115.486C58.0894 115.075 57.9931 114.578 57.9931 113.994C57.9931 113.411 58.0894 112.917 58.2822 112.511C58.4749 112.1 58.7387 111.788 59.0734 111.575C59.4133 111.362 59.7937 111.255 60.2146 111.255C60.6407 111.255 61.0211 111.362 61.3559 111.575C61.6906 111.788 61.9544 112.1 62.1471 112.511C62.3449 112.917 62.4439 113.411 62.4439 113.994C62.4439 114.578 62.3449 115.075 62.1471 115.486C61.9544 115.891 61.6906 116.201 61.3559 116.414C61.0211 116.627 60.6407 116.733 60.2146 116.733ZM60.2146 115.874C60.4632 115.874 60.6787 115.808 60.8613 115.676C61.0439 115.539 61.186 115.331 61.2874 115.052C61.3939 114.773 61.4472 114.42 61.4472 113.994C61.4472 113.563 61.3939 113.211 61.2874 112.937C61.186 112.658 61.0439 112.452 60.8613 112.321C60.6787 112.184 60.4632 112.115 60.2146 112.115C59.9763 112.115 59.7632 112.184 59.5756 112.321C59.393 112.452 59.2484 112.658 59.1419 112.937C59.0404 113.211 58.9897 113.563 58.9897 113.994C58.9897 114.42 59.0404 114.773 59.1419 115.052C59.2484 115.331 59.393 115.539 59.5756 115.676C59.7632 115.808 59.9763 115.874 60.2146 115.874ZM63.0363 116.657V115.995L65.1514 113.987C65.3289 113.819 65.4608 113.672 65.547 113.545C65.6333 113.419 65.6891 113.302 65.7144 113.195C65.7449 113.084 65.7601 112.98 65.7601 112.884C65.7601 112.64 65.6764 112.452 65.509 112.321C65.3416 112.184 65.0956 112.115 64.771 112.115C64.5123 112.115 64.2765 112.161 64.0634 112.252C63.8555 112.343 63.6754 112.483 63.5233 112.671L62.8309 112.138C63.0389 111.859 63.3178 111.643 63.6678 111.491C64.0229 111.334 64.4185 111.255 64.8547 111.255C65.2402 111.255 65.5749 111.319 65.859 111.446C66.1481 111.567 66.3687 111.742 66.5209 111.971C66.6781 112.199 66.7568 112.47 66.7568 112.785C66.7568 112.957 66.7339 113.13 66.6883 113.302C66.6426 113.469 66.5564 113.647 66.4296 113.835C66.3028 114.022 66.1177 114.233 65.8742 114.466L64.0558 116.193L63.8504 115.82H66.9622V116.657H63.0363ZM67.3455 115.448V114.763L69.9703 111.331H71.0279L68.4411 114.763L67.9465 114.611H72.1691V115.448H67.3455ZM70.267 116.657V115.448L70.2975 114.611V113.538H71.2257V116.657H70.267Z" fill="#474766"/>
<path d="M11.6106 85.7188V80.393H12.4171L14.7528 84.2808H14.3192L16.6168 80.393H17.4233L17.4385 85.7188H16.4951L16.4875 81.8614H16.6853L14.7376 85.1101H14.2963L12.3182 81.8614H12.5464V85.7188H11.6106ZM20.6331 85.772C20.2172 85.772 19.847 85.6832 19.5223 85.5057C19.1977 85.3231 18.9416 85.0746 18.7539 84.7601C18.5662 84.4456 18.4724 84.0881 18.4724 83.6874C18.4724 83.2816 18.5662 82.924 18.7539 82.6146C18.9416 82.3001 19.1977 82.0541 19.5223 81.8766C19.847 81.6991 20.2172 81.6103 20.6331 81.6103C21.0541 81.6103 21.4269 81.6991 21.7515 81.8766C22.0812 82.0541 22.3374 82.2976 22.52 82.607C22.7076 82.9164 22.8015 83.2765 22.8015 83.6874C22.8015 84.0881 22.7076 84.4456 22.52 84.7601C22.3374 85.0746 22.0812 85.3231 21.7515 85.5057C21.4269 85.6832 21.0541 85.772 20.6331 85.772ZM20.6331 84.9579C20.8665 84.9579 21.0744 84.9072 21.257 84.8058C21.4396 84.7043 21.5816 84.5572 21.6831 84.3645C21.7896 84.1717 21.8428 83.946 21.8428 83.6874C21.8428 83.4236 21.7896 83.1979 21.6831 83.0102C21.5816 82.8175 21.4396 82.6704 21.257 82.569C21.0744 82.4675 20.869 82.4168 20.6407 82.4168C20.4074 82.4168 20.1995 82.4675 20.0169 82.569C19.8393 82.6704 19.6973 82.8175 19.5908 83.0102C19.4843 83.1979 19.431 83.4236 19.431 83.6874C19.431 83.946 19.4843 84.1717 19.5908 84.3645C19.6973 84.5572 19.8393 84.7043 20.0169 84.8058C20.1995 84.9072 20.4049 84.9579 20.6331 84.9579ZM23.1029 85.7111L23.1486 84.9123C23.1841 84.9174 23.2171 84.9224 23.2475 84.9275C23.2779 84.9326 23.3058 84.9351 23.3312 84.9351C23.4884 84.9351 23.6102 84.8869 23.6964 84.7905C23.7826 84.6942 23.846 84.5648 23.8866 84.4025C23.9322 84.2351 23.9627 84.05 23.9779 83.8471C23.9982 83.6392 24.0134 83.4312 24.0235 83.2233L24.092 81.656H27.3788V85.7188H26.4277V82.2038L26.6484 82.4624H24.7159L24.9213 82.1962L24.8681 83.2689C24.8528 83.629 24.8224 83.9638 24.7768 84.2732C24.7362 84.5775 24.6702 84.8438 24.5789 85.0721C24.4927 85.3003 24.371 85.4778 24.2137 85.6046C24.0616 85.7314 23.8663 85.7948 23.6279 85.7948C23.5518 85.7948 23.4681 85.7872 23.3768 85.772C23.2906 85.7568 23.1993 85.7365 23.1029 85.7111ZM30.4703 85.772C30.0544 85.772 29.6841 85.6832 29.3595 85.5057C29.0349 85.3231 28.7787 85.0746 28.5911 84.7601C28.4034 84.4456 28.3096 84.0881 28.3096 83.6874C28.3096 83.2816 28.4034 82.924 28.5911 82.6146C28.7787 82.3001 29.0349 82.0541 29.3595 81.8766C29.6841 81.6991 30.0544 81.6103 30.4703 81.6103C30.8913 81.6103 31.2641 81.6991 31.5887 81.8766C31.9184 82.0541 32.1745 82.2976 32.3571 82.607C32.5448 82.9164 32.6386 83.2765 32.6386 83.6874C32.6386 84.0881 32.5448 84.4456 32.3571 84.7601C32.1745 85.0746 31.9184 85.3231 31.5887 85.5057C31.2641 85.6832 30.8913 85.772 30.4703 85.772ZM30.4703 84.9579C30.7036 84.9579 30.9116 84.9072 31.0942 84.8058C31.2768 84.7043 31.4188 84.5572 31.5202 84.3645C31.6268 84.1717 31.68 83.946 31.68 83.6874C31.68 83.4236 31.6268 83.1979 31.5202 83.0102C31.4188 82.8175 31.2768 82.6704 31.0942 82.569C30.9116 82.4675 30.7062 82.4168 30.4779 82.4168C30.2446 82.4168 30.0366 82.4675 29.854 82.569C29.6765 82.6704 29.5345 82.8175 29.428 83.0102C29.3215 83.1979 29.2682 83.4236 29.2682 83.6874C29.2682 83.946 29.3215 84.1717 29.428 84.3645C29.5345 84.5572 29.6765 84.7043 29.854 84.8058C30.0366 84.9072 30.2421 84.9579 30.4703 84.9579ZM36.3182 85.2775V82.4624H34.7585L34.7357 83.1167C34.7255 83.3501 34.7103 83.5758 34.69 83.7939C34.6697 84.0069 34.6367 84.2047 34.5911 84.3873C34.5455 84.5648 34.4795 84.7119 34.3933 84.8286C34.3071 84.9452 34.1929 85.0213 34.0509 85.0568L33.1075 84.9123C33.2597 84.9123 33.3814 84.8641 33.4727 84.7677C33.5691 84.6663 33.6426 84.5293 33.6933 84.3569C33.7491 84.1794 33.7897 83.979 33.8151 83.7558C33.8404 83.5276 33.8582 83.2917 33.8683 83.0483L33.9216 81.656H37.2692V85.2775H36.3182ZM32.9629 86.6241V84.9123H37.8702V86.6241H36.9801V85.7188H33.8455V86.6241H32.9629ZM40.6141 85.772C40.1626 85.772 39.767 85.6832 39.4272 85.5057C39.0924 85.3231 38.8312 85.0746 38.6435 84.7601C38.4609 84.4456 38.3696 84.0881 38.3696 83.6874C38.3696 83.2816 38.4584 82.924 38.6359 82.6146C38.8185 82.3001 39.0671 82.0541 39.3815 81.8766C39.7011 81.6991 40.0637 81.6103 40.4695 81.6103C40.8651 81.6103 41.2176 81.6965 41.527 81.869C41.8364 82.0415 42.0799 82.2849 42.2574 82.5994C42.435 82.9139 42.5237 83.2841 42.5237 83.7102C42.5237 83.7508 42.5212 83.7964 42.5161 83.8471C42.5161 83.8979 42.5136 83.946 42.5085 83.9917H39.1229V83.3602H42.0064L41.6336 83.558C41.6386 83.3247 41.5905 83.1193 41.489 82.9418C41.3876 82.7642 41.2481 82.6247 41.0706 82.5233C40.8981 82.4219 40.6978 82.3711 40.4695 82.3711C40.2362 82.3711 40.0308 82.4219 39.8532 82.5233C39.6808 82.6247 39.5438 82.7668 39.4424 82.9494C39.346 83.1269 39.2978 83.3374 39.2978 83.5808V83.733C39.2978 83.9765 39.3536 84.192 39.4652 84.3797C39.5768 84.5674 39.734 84.7119 39.9369 84.8134C40.1398 84.9148 40.3731 84.9655 40.6369 84.9655C40.8651 84.9655 41.0706 84.93 41.2532 84.859C41.4358 84.788 41.5981 84.6764 41.7401 84.5243L42.2498 85.1101C42.0672 85.3231 41.8364 85.488 41.5575 85.6046C41.2836 85.7162 40.9691 85.772 40.6141 85.772ZM43.5639 85.7188V81.656H44.5149V84.9123H46.455V81.656H47.4061V85.7188H43.5639ZM47.1322 86.6241V85.6959L47.3528 85.7188H46.455V84.9123H48.0223V86.6241H47.1322ZM51.7828 85.7188L50.3144 83.771L51.0904 83.2917L52.9012 85.7188H51.7828ZM48.8688 85.7188V81.656H49.8199V85.7188H48.8688ZM49.5384 84.0906V83.2993H50.9155V84.0906H49.5384ZM51.1817 83.8015L50.2916 83.695L51.7828 81.656H52.8023L51.1817 83.8015ZM55.9627 85.7188V84.8971L55.9095 84.7221V83.2841C55.9095 83.0052 55.8258 82.7896 55.6584 82.6374C55.491 82.4802 55.2374 82.4016 54.8976 82.4016C54.6693 82.4016 54.4436 82.4371 54.2205 82.5081C54.0023 82.5791 53.8172 82.678 53.6651 82.8048L53.2922 82.1125C53.5104 81.9451 53.769 81.8208 54.0683 81.7397C54.3726 81.6534 54.6871 81.6103 55.0117 81.6103C55.6001 81.6103 56.054 81.7523 56.3736 82.0364C56.6982 82.3153 56.8605 82.749 56.8605 83.3374V85.7188H55.9627ZM54.6846 85.772C54.3802 85.772 54.1139 85.7213 53.8857 85.6198C53.6574 85.5133 53.4799 85.3688 53.3531 85.1862C53.2314 84.9985 53.1705 84.788 53.1705 84.5547C53.1705 84.3264 53.2238 84.121 53.3303 83.9384C53.4419 83.7558 53.6219 83.6113 53.8705 83.5048C54.119 83.3982 54.4487 83.345 54.8595 83.345H56.0388V83.9765H54.928C54.6034 83.9765 54.3853 84.0297 54.2737 84.1362C54.1621 84.2377 54.1063 84.3645 54.1063 84.5167C54.1063 84.6891 54.1748 84.8261 54.3117 84.9275C54.4487 85.0289 54.6389 85.0797 54.8824 85.0797C55.1157 85.0797 55.3236 85.0264 55.5062 84.9199C55.6939 84.8134 55.8283 84.6561 55.9095 84.4482L56.0692 85.0188C55.9779 85.2572 55.8131 85.4423 55.5747 85.5742C55.3414 85.7061 55.0447 85.772 54.6846 85.772ZM60.6165 85.7188V84.3341L60.7535 84.4938H59.5361C58.9782 84.4938 58.5395 84.3772 58.2199 84.1439C57.9055 83.9055 57.7482 83.5631 57.7482 83.1167C57.7482 82.64 57.9156 82.2773 58.2504 82.0288C58.5902 81.7802 59.0416 81.656 59.6046 81.656H61.4686V85.7188H60.6165ZM57.695 85.7188L58.7905 84.1667H59.7644L58.7145 85.7188H57.695ZM60.6165 84.0297V82.2038L60.7535 82.4548H59.6351C59.3409 82.4548 59.1126 82.5106 58.9503 82.6222C58.7931 82.7287 58.7145 82.9037 58.7145 83.1472C58.7145 83.6037 59.0112 83.8319 59.6046 83.8319H60.7535L60.6165 84.0297ZM68.4949 85.2623V81.2299H66.4102L66.3722 82.1733C66.357 82.5284 66.3341 82.8657 66.3037 83.1852C66.2783 83.4997 66.2352 83.7863 66.1744 84.0449C66.1186 84.3036 66.04 84.5192 65.9385 84.6916C65.8371 84.8641 65.7128 84.9782 65.5657 85.034L64.5006 84.8818C64.6933 84.892 64.8505 84.8261 64.9723 84.684C65.0991 84.542 65.198 84.3442 65.269 84.0906C65.34 83.837 65.3933 83.5403 65.4288 83.2004C65.4643 82.8555 65.4896 82.4827 65.5048 82.082L65.5657 80.393H69.4687V85.2623H68.4949ZM64.318 86.8524L64.3256 84.8818H70.2372V86.8524H69.3242V85.7188H65.2386V86.8524H64.318ZM73.527 85.7188V84.8971L73.4737 84.7221V83.2841C73.4737 83.0052 73.39 82.7896 73.2227 82.6374C73.0553 82.4802 72.8017 82.4016 72.4618 82.4016C72.2336 82.4016 72.0079 82.4371 71.7847 82.5081C71.5666 82.5791 71.3815 82.678 71.2293 82.8048L70.8565 82.1125C71.0746 81.9451 71.3333 81.8208 71.6325 81.7397C71.9369 81.6534 72.2513 81.6103 72.576 81.6103C73.1643 81.6103 73.6183 81.7523 73.9378 82.0364C74.2624 82.3153 74.4248 82.749 74.4248 83.3374V85.7188H73.527ZM72.2488 85.772C71.9445 85.772 71.6782 85.7213 71.4499 85.6198C71.2217 85.5133 71.0442 85.3688 70.9174 85.1862C70.7956 84.9985 70.7348 84.788 70.7348 84.5547C70.7348 84.3264 70.788 84.121 70.8945 83.9384C71.0061 83.7558 71.1862 83.6113 71.4347 83.5048C71.6833 83.3982 72.013 83.345 72.4238 83.345H73.6031V83.9765H72.4923C72.1677 83.9765 71.9495 84.0297 71.838 84.1362C71.7264 84.2377 71.6706 84.3645 71.6706 84.5167C71.6706 84.6891 71.7391 84.8261 71.876 84.9275C72.013 85.0289 72.2032 85.0797 72.4466 85.0797C72.6799 85.0797 72.8879 85.0264 73.0705 84.9199C73.2582 84.8134 73.3926 84.6561 73.4737 84.4482L73.6335 85.0188C73.5422 85.2572 73.3774 85.4423 73.139 85.5742C72.9056 85.7061 72.6089 85.772 72.2488 85.772ZM77.8536 85.772C77.5239 85.772 77.2221 85.6959 76.9482 85.5438C76.6794 85.3916 76.4639 85.1634 76.3015 84.859C76.1443 84.5496 76.0657 84.1591 76.0657 83.6874C76.0657 83.2106 76.1418 82.82 76.2939 82.5157C76.4512 82.2114 76.6642 81.9857 76.933 81.8386C77.2019 81.6864 77.5087 81.6103 77.8536 81.6103C78.2543 81.6103 78.6068 81.6965 78.9112 81.869C79.2206 82.0415 79.464 82.2824 79.6415 82.5918C79.8241 82.9012 79.9154 83.2664 79.9154 83.6874C79.9154 84.1083 79.8241 84.4761 79.6415 84.7905C79.464 85.0999 79.2206 85.3409 78.9112 85.5133C78.6068 85.6858 78.2543 85.772 77.8536 85.772ZM75.6016 87.1947V81.656H76.507V82.6146L76.4765 83.695L76.5526 84.7753V87.1947H75.6016ZM77.7471 84.9579C77.9754 84.9579 78.1782 84.9072 78.3558 84.8058C78.5384 84.7043 78.6829 84.5572 78.7894 84.3645C78.8959 84.1717 78.9492 83.946 78.9492 83.6874C78.9492 83.4236 78.8959 83.1979 78.7894 83.0102C78.6829 82.8175 78.5384 82.6704 78.3558 82.569C78.1782 82.4675 77.9754 82.4168 77.7471 82.4168C77.5189 82.4168 77.3134 82.4675 77.1308 82.569C76.9482 82.6704 76.8037 82.8175 76.6972 83.0102C76.5907 83.1979 76.5374 83.4236 76.5374 83.6874C76.5374 83.946 76.5907 84.1717 76.6972 84.3645C76.8037 84.5572 76.9482 84.7043 77.1308 84.8058C77.3134 84.9072 77.5189 84.9579 77.7471 84.9579ZM82.901 82.995C83.4234 82.995 83.8215 83.1117 84.0954 83.345C84.3693 83.5783 84.5063 83.908 84.5063 84.3341C84.5063 84.7753 84.3541 85.1202 84.0498 85.3688C83.7455 85.6122 83.3169 85.7314 82.764 85.7264L80.862 85.7188V81.656H81.813V82.9874L82.901 82.995ZM82.6803 85.0264C82.9593 85.0315 83.1723 84.9731 83.3194 84.8514C83.4665 84.7297 83.54 84.5522 83.54 84.3188C83.54 84.0855 83.4665 83.9181 83.3194 83.8167C83.1774 83.7102 82.9644 83.6544 82.6803 83.6493L81.813 83.6417V85.0188L82.6803 85.0264ZM87.6316 85.7188V84.3341L87.7685 84.4938H86.5512C85.9933 84.4938 85.5545 84.3772 85.235 84.1439C84.9205 83.9055 84.7633 83.5631 84.7633 83.1167C84.7633 82.64 84.9307 82.2773 85.2654 82.0288C85.6053 81.7802 86.0567 81.656 86.6197 81.656H88.4837V85.7188H87.6316ZM84.71 85.7188L85.8056 84.1667H86.7795L85.7295 85.7188H84.71ZM87.6316 84.0297V82.2038L87.7685 82.4548H86.6501C86.3559 82.4548 86.1277 82.5106 85.9654 82.6222C85.8082 82.7287 85.7295 82.9037 85.7295 83.1472C85.7295 83.6037 86.0263 83.8319 86.6197 83.8319H87.7685L87.6316 84.0297Z" fill="#474766"/>
<path d="M12.866 147.672C12.4907 147.672 12.1229 147.619 11.7628 147.512C11.4077 147.4 11.1085 147.248 10.865 147.056L11.2911 146.287C11.4838 146.444 11.7171 146.571 11.991 146.668C12.2649 146.764 12.5515 146.812 12.8508 146.812C13.2058 146.812 13.4823 146.741 13.6801 146.599C13.8779 146.452 13.9768 146.254 13.9768 146.006C13.9768 145.762 13.8855 145.569 13.7029 145.427C13.5203 145.285 13.2261 145.214 12.8203 145.214H12.3334V144.537L13.8551 142.726L13.9844 143.099H11.1237V142.27H14.7528V142.932L13.2312 144.743L12.7138 144.438H13.0105C13.6649 144.438 14.1543 144.585 14.4789 144.88C14.8086 145.169 14.9735 145.541 14.9735 145.998C14.9735 146.297 14.8974 146.574 14.7452 146.827C14.5931 147.081 14.3597 147.286 14.0453 147.444C13.7359 147.596 13.3428 147.672 12.866 147.672ZM18.0274 147.596V143.533H19.0241L20.6598 146.416H20.2642L21.9837 143.533H22.8738L22.8814 147.596H22.0217V144.552L22.1739 144.651L20.6522 147.17H20.2414L18.7121 144.583L18.8947 144.537V147.596H18.0274ZM26.6221 147.596V146.774L26.5688 146.599V145.161C26.5688 144.882 26.4852 144.667 26.3178 144.514C26.1504 144.357 25.8968 144.279 25.557 144.279C25.3287 144.279 25.103 144.314 24.8798 144.385C24.6617 144.456 24.4766 144.555 24.3244 144.682L23.9516 143.989C24.1697 143.822 24.4284 143.698 24.7277 143.617C25.032 143.53 25.3465 143.487 25.6711 143.487C26.2594 143.487 26.7134 143.629 27.0329 143.913C27.3576 144.192 27.5199 144.626 27.5199 145.214V147.596H26.6221ZM25.3439 147.649C25.0396 147.649 24.7733 147.598 24.5451 147.497C24.3168 147.39 24.1393 147.246 24.0125 147.063C23.8908 146.875 23.8299 146.665 23.8299 146.432C23.8299 146.203 23.8831 145.998 23.9897 145.815C24.1012 145.633 24.2813 145.488 24.5298 145.382C24.7784 145.275 25.1081 145.222 25.5189 145.222H26.6982V145.853H25.5874C25.2628 145.853 25.0447 145.907 24.9331 146.013C24.8215 146.115 24.7657 146.241 24.7657 146.394C24.7657 146.566 24.8342 146.703 24.9711 146.804C25.1081 146.906 25.2983 146.957 25.5417 146.957C25.7751 146.957 25.983 146.903 26.1656 146.797C26.3533 146.69 26.4877 146.533 26.5688 146.325L26.7286 146.896C26.6373 147.134 26.4725 147.319 26.2341 147.451C26.0008 147.583 25.704 147.649 25.3439 147.649ZM30.9487 147.649C30.619 147.649 30.3173 147.573 30.0434 147.421C29.7745 147.269 29.559 147.04 29.3967 146.736C29.2394 146.427 29.1608 146.036 29.1608 145.564C29.1608 145.088 29.2369 144.697 29.389 144.393C29.5463 144.088 29.7593 143.863 30.0281 143.716C30.297 143.563 30.6038 143.487 30.9487 143.487C31.3494 143.487 31.7019 143.573 32.0063 143.746C32.3157 143.918 32.5591 144.159 32.7367 144.469C32.9193 144.778 33.0106 145.143 33.0106 145.564C33.0106 145.985 32.9193 146.353 32.7367 146.668C32.5591 146.977 32.3157 147.218 32.0063 147.39C31.7019 147.563 31.3494 147.649 30.9487 147.649ZM28.6967 149.072V143.533H29.6021V144.492L29.5716 145.572L29.6477 146.652V149.072H28.6967ZM30.8422 146.835C31.0705 146.835 31.2733 146.784 31.4509 146.683C31.6335 146.581 31.778 146.434 31.8845 146.241C31.9911 146.049 32.0443 145.823 32.0443 145.564C32.0443 145.301 31.9911 145.075 31.8845 144.887C31.778 144.694 31.6335 144.547 31.4509 144.446C31.2733 144.344 31.0705 144.294 30.8422 144.294C30.614 144.294 30.4085 144.344 30.226 144.446C30.0434 144.547 29.8988 144.694 29.7923 144.887C29.6858 145.075 29.6325 145.301 29.6325 145.564C29.6325 145.823 29.6858 146.049 29.7923 146.241C29.8988 146.434 30.0434 146.581 30.226 146.683C30.4085 146.784 30.614 146.835 30.8422 146.835ZM34.653 147.596V144.111L34.8736 144.339H33.2226V143.533H37.0267V144.339H35.3834L35.604 144.111V147.596H34.653ZM40.1816 147.596V146.774L40.1284 146.599V145.161C40.1284 144.882 40.0447 144.667 39.8773 144.514C39.7099 144.357 39.4563 144.279 39.1165 144.279C38.8883 144.279 38.6625 144.314 38.4394 144.385C38.2213 144.456 38.0361 144.555 37.884 144.682L37.5112 143.989C37.7293 143.822 37.9879 143.698 38.2872 143.617C38.5915 143.53 38.906 143.487 39.2306 143.487C39.819 143.487 40.2729 143.629 40.5925 143.913C40.9171 144.192 41.0794 144.626 41.0794 145.214V147.596H40.1816ZM38.9035 147.649C38.5991 147.649 38.3329 147.598 38.1046 147.497C37.8764 147.39 37.6988 147.246 37.572 147.063C37.4503 146.875 37.3894 146.665 37.3894 146.432C37.3894 146.203 37.4427 145.998 37.5492 145.815C37.6608 145.633 37.8409 145.488 38.0894 145.382C38.3379 145.275 38.6676 145.222 39.0785 145.222H40.2577V145.853H39.1469C38.8223 145.853 38.6042 145.907 38.4926 146.013C38.381 146.115 38.3252 146.241 38.3252 146.394C38.3252 146.566 38.3937 146.703 38.5307 146.804C38.6676 146.906 38.8578 146.957 39.1013 146.957C39.3346 146.957 39.5426 146.903 39.7252 146.797C39.9128 146.69 40.0472 146.533 40.1284 146.325L40.2882 146.896C40.1969 147.134 40.032 147.319 39.7936 147.451C39.5603 147.583 39.2636 147.649 38.9035 147.649ZM43.9861 147.596V146.934L46.1012 144.925C46.2787 144.758 46.4106 144.611 46.4968 144.484C46.583 144.357 46.6388 144.24 46.6642 144.134C46.6946 144.022 46.7098 143.918 46.7098 143.822C46.7098 143.579 46.6262 143.391 46.4588 143.259C46.2914 143.122 46.0454 143.054 45.7208 143.054C45.4621 143.054 45.2262 143.099 45.0132 143.191C44.8053 143.282 44.6252 143.421 44.473 143.609L43.7807 143.076C43.9886 142.797 44.2676 142.582 44.6176 142.43C44.9726 142.272 45.3683 142.194 45.8045 142.194C46.1899 142.194 46.5247 142.257 46.8087 142.384C47.0979 142.506 47.3185 142.681 47.4707 142.909C47.6279 143.137 47.7065 143.409 47.7065 143.723C47.7065 143.896 47.6837 144.068 47.638 144.24C47.5924 144.408 47.5062 144.585 47.3794 144.773C47.2526 144.961 47.0674 145.171 46.824 145.405L45.0056 147.132L44.8002 146.759H47.9119V147.596H43.9861ZM50.7044 147.672C50.2834 147.672 49.903 147.565 49.5632 147.352C49.2284 147.139 48.9646 146.83 48.7719 146.424C48.5792 146.013 48.4828 145.516 48.4828 144.933C48.4828 144.35 48.5792 143.855 48.7719 143.449C48.9646 143.038 49.2284 142.726 49.5632 142.513C49.903 142.3 50.2834 142.194 50.7044 142.194C51.1304 142.194 51.5109 142.3 51.8456 142.513C52.1804 142.726 52.4441 143.038 52.6369 143.449C52.8347 143.855 52.9336 144.35 52.9336 144.933C52.9336 145.516 52.8347 146.013 52.6369 146.424C52.4441 146.83 52.1804 147.139 51.8456 147.352C51.5109 147.565 51.1304 147.672 50.7044 147.672ZM50.7044 146.812C50.9529 146.812 51.1685 146.746 51.3511 146.614C51.5337 146.477 51.6757 146.269 51.7771 145.99C51.8837 145.711 51.9369 145.359 51.9369 144.933C51.9369 144.502 51.8837 144.149 51.7771 143.875C51.6757 143.596 51.5337 143.391 51.3511 143.259C51.1685 143.122 50.9529 143.054 50.7044 143.054C50.466 143.054 50.253 143.122 50.0653 143.259C49.8827 143.391 49.7381 143.596 49.6316 143.875C49.5302 144.149 49.4795 144.502 49.4795 144.933C49.4795 145.359 49.5302 145.711 49.6316 145.99C49.7381 146.269 49.8827 146.477 50.0653 146.614C50.253 146.746 50.466 146.812 50.7044 146.812ZM53.5261 147.596V146.934L55.6412 144.925C55.8187 144.758 55.9506 144.611 56.0368 144.484C56.123 144.357 56.1788 144.24 56.2042 144.134C56.2346 144.022 56.2498 143.918 56.2498 143.822C56.2498 143.579 56.1661 143.391 55.9988 143.259C55.8314 143.122 55.5854 143.054 55.2608 143.054C55.0021 143.054 54.7662 143.099 54.5532 143.191C54.3452 143.282 54.1652 143.421 54.013 143.609L53.3207 143.076C53.5286 142.797 53.8076 142.582 54.1576 142.43C54.5126 142.272 54.9082 142.194 55.3444 142.194C55.7299 142.194 56.0647 142.257 56.3487 142.384C56.6378 142.506 56.8585 142.681 57.0106 142.909C57.1679 143.137 57.2465 143.409 57.2465 143.723C57.2465 143.896 57.2237 144.068 57.178 144.24C57.1324 144.408 57.0461 144.585 56.9193 144.773C56.7925 144.961 56.6074 145.171 56.3639 145.405L54.5456 147.132L54.3402 146.759H57.4519V147.596H53.5261ZM57.8352 146.386V145.701L60.4601 142.27H61.5176L58.9308 145.701L58.4363 145.549H62.6588V146.386H57.8352ZM60.7568 147.596V146.386L60.7872 145.549V144.476H61.7154V147.596H60.7568Z" fill="#474766"/>
<path d="M10.6758 20.6494C10.9519 20.6494 11.1758 20.4256 11.1758 20.1494C11.1758 19.8733 10.9519 19.6494 10.6758 19.6494L10.6758 20.6494ZM2.65426 19.7959C2.459 19.9911 2.459 20.3077 2.65426 20.503L5.83624 23.6849C6.0315 23.8802 6.34808 23.8802 6.54335 23.6849C6.73861 23.4897 6.73861 23.1731 6.54335 22.9778L3.71492 20.1494L6.54335 17.321C6.73861 17.1257 6.73861 16.8091 6.54335 16.6139C6.34808 16.4186 6.0315 16.4186 5.83624 16.6139L2.65426 19.7959ZM10.6758 19.6494L3.00781 19.6494L3.00781 20.6494L10.6758 20.6494L10.6758 19.6494Z" fill="#3CAAE1"/>
<path fill-rule="evenodd" clip-rule="evenodd" d="M119.45 50.9279C119.645 51.1234 119.645 51.44 119.449 51.635L116.263 54.8127C116.068 55.0077 115.751 55.0073 115.556 54.8118C115.361 54.6162 115.362 54.2997 115.557 54.1047L118.234 51.4353C118.218 51.3863 118.209 51.3341 118.209 51.2798C118.209 51.2255 118.218 51.1733 118.234 51.1243L115.565 48.4478C115.37 48.2523 115.37 47.9357 115.566 47.7407C115.761 47.5457 116.078 47.5461 116.273 47.7416L119.45 50.9279Z" fill="#3CAAE1"/>
<path fill-rule="evenodd" clip-rule="evenodd" d="M119.45 110.126C119.645 110.322 119.645 110.638 119.449 110.833L116.263 114.011C116.068 114.206 115.751 114.206 115.556 114.01C115.361 113.814 115.362 113.498 115.557 113.303L118.234 110.634C118.218 110.585 118.209 110.532 118.209 110.478C118.209 110.424 118.218 110.372 118.234 110.323L115.565 107.646C115.37 107.451 115.37 107.134 115.566 106.939C115.761 106.744 116.078 106.744 116.273 106.94L119.45 110.126Z" fill="#3CAAE1"/>
<path fill-rule="evenodd" clip-rule="evenodd" d="M119.45 143.565C119.645 143.76 119.645 144.077 119.449 144.272L116.263 147.449C116.068 147.644 115.751 147.644 115.556 147.448C115.361 147.253 115.362 146.936 115.557 146.741L118.234 144.072C118.218 144.023 118.209 143.971 118.209 143.917C118.209 143.862 118.218 143.81 118.234 143.761L115.565 141.085C115.37 140.889 115.37 140.572 115.566 140.377C115.761 140.182 116.078 140.183 116.273 140.378L119.45 143.565Z" fill="#3CAAE1"/>
<line x1="0.517578" y1="64.1387" x2="135.494" y2="64.1387" stroke="#C8CFEB" stroke-opacity="0.17"/>
<line x1="0.517578" y1="93.668" x2="135.494" y2="93.668" stroke="#C8CFEB" stroke-opacity="0.17"/>
<line x1="0.517578" y1="124.606" x2="135.494" y2="124.606" stroke="#C8CFEB" stroke-opacity="0.17"/>
<path d="M211.124 106.544C220.614 104.863 226.089 97.3771 224.675 89.3936C223.261 81.4114 215.495 75.9548 206.005 77.6355L102.137 98.6596C92.6466 100.34 87.19 108.4 88.6036 116.382C90.0174 124.365 97.7661 129.249 107.256 127.568L211.124 106.544Z" fill="url(#paint0_linear_4142_6101)"/>
<path d="M106 115.992C105.45 116.101 104.944 116.098 104.48 115.982C104.021 115.859 103.629 115.594 103.305 115.189C102.98 114.783 102.743 114.208 102.595 113.464L102.563 113.301C102.458 112.774 102.44 112.307 102.508 111.901C102.576 111.495 102.712 111.146 102.916 110.855C103.125 110.564 103.388 110.327 103.703 110.145C104.018 109.963 104.37 109.834 104.759 109.756C105.109 109.687 105.446 109.661 105.771 109.68C106.096 109.699 106.39 109.771 106.654 109.897C106.922 110.022 107.156 110.208 107.354 110.454C107.551 110.701 107.704 111.019 107.811 111.408L106.205 111.728C106.091 111.423 105.926 111.221 105.709 111.121C105.493 111.021 105.262 110.996 105.016 111.045C104.787 111.09 104.592 111.189 104.432 111.339C104.276 111.484 104.171 111.689 104.117 111.956C104.063 112.222 104.077 112.565 104.16 112.983L104.196 113.163C104.262 113.495 104.35 113.769 104.458 113.986C104.567 114.202 104.689 114.369 104.825 114.484C104.967 114.599 105.116 114.674 105.271 114.708C105.426 114.737 105.583 114.735 105.744 114.703C106.036 114.645 106.254 114.53 106.398 114.359C106.547 114.18 106.608 113.933 106.581 113.617L108.187 113.298C108.244 113.703 108.229 114.06 108.142 114.369C108.059 114.671 107.917 114.932 107.717 115.15C107.521 115.362 107.276 115.538 106.983 115.68C106.688 115.816 106.361 115.92 106 115.992ZM111.885 116.49L111.565 114.884C110.798 115.037 110.169 114.957 109.678 114.644C109.186 114.325 108.864 113.785 108.713 113.023L108.677 112.843C108.531 112.11 108.626 111.511 108.962 111.045C109.297 110.574 109.848 110.262 110.615 110.109L110.347 108.761L111.669 108.498L111.937 109.846C112.705 109.693 113.333 109.771 113.823 110.078C114.311 110.38 114.629 110.897 114.775 111.63L114.81 111.81C114.962 112.571 114.871 113.194 114.539 113.676C114.205 114.154 113.655 114.468 112.888 114.621L113.207 116.227L111.885 116.49ZM113.46 112.07L113.426 111.898C113.35 111.514 113.204 111.243 112.987 111.083C112.777 110.923 112.485 110.88 112.113 110.954L112.626 113.53C112.998 113.456 113.249 113.296 113.379 113.05C113.513 112.797 113.54 112.47 113.46 112.07ZM110.017 112.576L110.051 112.748C110.132 113.155 110.282 113.446 110.502 113.623C110.727 113.798 111.026 113.849 111.398 113.775L110.885 111.198C110.496 111.276 110.235 111.432 110.103 111.666C109.971 111.901 109.942 112.204 110.017 112.576ZM118.105 113.583C117.682 113.667 117.276 113.662 116.888 113.566C116.505 113.47 116.174 113.268 115.892 112.961C115.616 112.647 115.425 112.226 115.32 111.7L115.286 111.528C115.188 111.035 115.209 110.603 115.349 110.23C115.494 109.85 115.723 109.539 116.038 109.298C116.359 109.055 116.732 108.892 117.155 108.808C117.585 108.722 117.991 108.731 118.374 108.833C118.758 108.935 119.086 109.135 119.36 109.432C119.638 109.721 119.826 110.113 119.924 110.605L119.958 110.777C120.061 111.298 120.042 111.754 119.9 112.145C119.762 112.53 119.536 112.846 119.222 113.093C118.907 113.334 118.535 113.497 118.105 113.583ZM117.887 112.484C118.093 112.443 118.258 112.359 118.381 112.233C118.504 112.102 118.584 111.934 118.621 111.73C118.658 111.527 118.651 111.299 118.601 111.047L118.567 110.875C118.521 110.646 118.444 110.453 118.335 110.296C118.227 110.139 118.091 110.026 117.929 109.957C117.765 109.883 117.58 109.866 117.374 109.907C117.168 109.948 117.003 110.034 116.881 110.166C116.757 110.292 116.675 110.448 116.635 110.634C116.595 110.821 116.597 111.029 116.643 111.258L116.677 111.43C116.729 111.693 116.812 111.912 116.924 112.086C117.034 112.254 117.171 112.373 117.334 112.442C117.496 112.511 117.681 112.525 117.887 112.484ZM121.428 114.591L120.18 108.322L121.4 108.079L121.523 108.698C121.606 108.49 121.751 108.289 121.956 108.094C122.166 107.891 122.445 107.755 122.794 107.686C123.436 107.558 123.96 107.65 124.367 107.962C124.775 108.274 125.053 108.805 125.202 109.555L125.236 109.726C125.339 110.242 125.345 110.69 125.254 111.071C125.162 111.447 124.987 111.752 124.731 111.988C124.474 112.223 124.145 112.381 123.745 112.461C123.487 112.512 123.229 112.504 122.972 112.436C122.719 112.361 122.493 112.228 122.294 112.035L122.75 114.328L121.428 114.591ZM123.21 111.433C123.473 111.381 123.67 111.232 123.799 110.986C123.933 110.733 123.96 110.403 123.879 109.997L123.845 109.825C123.766 109.43 123.622 109.155 123.413 109C123.208 108.838 122.969 108.785 122.694 108.84C122.51 108.876 122.35 108.95 122.211 109.061C122.077 109.165 121.979 109.303 121.919 109.476C121.863 109.648 121.859 109.848 121.904 110.077L121.99 110.506C122.036 110.741 122.12 110.936 122.24 111.091C122.364 111.238 122.51 111.343 122.677 111.405C122.849 111.46 123.027 111.47 123.21 111.433ZM126.37 111.822L125.464 107.271L127.07 106.951L128.601 108.994L129.234 106.52L130.789 106.211L131.694 110.763L130.441 111.012L129.885 108.221L129.291 110.348L128.432 110.519L127.068 108.782L127.624 111.573L126.37 111.822ZM132.551 110.592L131.645 106.041L132.933 105.784L133.48 108.532L134.866 105.4L136.025 105.169L136.931 109.721L135.643 109.977L135.096 107.229L133.71 110.362L132.551 110.592ZM138.135 111.267L136.887 104.998L138.107 104.755L138.23 105.373C138.313 105.166 138.458 104.965 138.663 104.769C138.873 104.567 139.152 104.431 139.502 104.361C140.143 104.234 140.667 104.326 141.074 104.638C141.482 104.949 141.76 105.48 141.909 106.23L141.943 106.402C142.046 106.917 142.052 107.366 141.961 107.747C141.869 108.122 141.695 108.428 141.438 108.663C141.181 108.899 140.852 109.057 140.452 109.136C140.194 109.188 139.936 109.179 139.679 109.112C139.426 109.037 139.2 108.903 139.001 108.711L139.457 111.004L138.135 111.267ZM139.917 108.109C140.18 108.056 140.377 107.907 140.506 107.661C140.641 107.408 140.667 107.079 140.586 106.672L140.552 106.5C140.474 106.105 140.33 105.83 140.12 105.676C139.915 105.514 139.676 105.46 139.401 105.515C139.218 105.552 139.057 105.625 138.918 105.736C138.784 105.84 138.686 105.979 138.626 106.152C138.571 106.323 138.566 106.524 138.611 106.753L138.697 107.182C138.743 107.417 138.827 107.611 138.947 107.766C139.072 107.914 139.217 108.019 139.385 108.081C139.556 108.136 139.734 108.145 139.917 108.109ZM145.246 108.182C144.822 108.267 144.416 108.261 144.028 108.166C143.646 108.069 143.314 107.867 143.033 107.56C142.756 107.246 142.565 106.826 142.461 106.299L142.426 106.127C142.328 105.635 142.349 105.202 142.49 104.829C142.634 104.449 142.864 104.139 143.179 103.897C143.5 103.655 143.872 103.492 144.296 103.407C144.725 103.322 145.132 103.33 145.515 103.432C145.899 103.535 146.227 103.734 146.5 104.031C146.778 104.321 146.966 104.712 147.064 105.205L147.098 105.376C147.202 105.897 147.183 106.354 147.04 106.745C146.903 107.13 146.677 107.445 146.363 107.692C146.048 107.934 145.675 108.097 145.246 108.182ZM145.027 107.083C145.233 107.042 145.398 106.959 145.522 106.833C145.645 106.701 145.724 106.534 145.761 106.33C145.798 106.126 145.792 105.898 145.741 105.646L145.707 105.475C145.662 105.246 145.585 105.053 145.476 104.896C145.367 104.739 145.232 104.626 145.069 104.557C144.906 104.482 144.721 104.466 144.515 104.507C144.308 104.548 144.144 104.634 144.021 104.765C143.898 104.891 143.816 105.047 143.775 105.234C143.735 105.421 143.738 105.628 143.783 105.857L143.818 106.029C143.87 106.293 143.952 106.511 144.064 106.685C144.175 106.854 144.312 106.972 144.474 107.041C144.637 107.11 144.821 107.124 145.027 107.083ZM148.226 107.473L147.321 102.921L149.76 102.436C150.161 102.356 150.495 102.346 150.763 102.406C151.029 102.46 151.238 102.567 151.389 102.728C151.539 102.883 151.637 103.074 151.682 103.304C151.724 103.515 151.702 103.731 151.615 103.951C151.526 104.165 151.37 104.324 151.147 104.428C151.441 104.441 151.688 104.529 151.887 104.691C152.086 104.854 152.211 105.064 152.263 105.322C152.341 105.717 152.264 106.06 152.03 106.35C151.796 106.641 151.398 106.842 150.837 106.954L148.226 107.473ZM149.351 106.214L150.304 106.024C150.539 105.977 150.707 105.908 150.807 105.817C150.908 105.725 150.944 105.608 150.916 105.465C150.888 105.322 150.809 105.227 150.681 105.181C150.552 105.13 150.37 105.127 150.135 105.174L149.182 105.364L149.351 106.214ZM148.997 104.436L149.882 104.26C150.116 104.213 150.267 104.148 150.333 104.063C150.399 103.973 150.42 103.867 150.396 103.747C150.372 103.627 150.31 103.541 150.21 103.489C150.111 103.438 149.949 103.434 149.726 103.478L148.842 103.654L148.997 104.436ZM154.648 106.312C154.321 106.377 154.028 106.369 153.768 106.29C153.514 106.21 153.305 106.073 153.142 105.879C152.977 105.68 152.868 105.445 152.815 105.176C152.725 104.724 152.793 104.35 153.02 104.055C153.253 103.759 153.65 103.555 154.211 103.443L155.499 103.187L155.461 102.998C155.407 102.723 155.303 102.547 155.151 102.47C155.005 102.392 154.817 102.376 154.588 102.422C154.37 102.465 154.217 102.531 154.127 102.621C154.037 102.704 154.001 102.821 154.019 102.972L152.696 103.236C152.659 102.957 152.696 102.694 152.807 102.446C152.924 102.196 153.116 101.98 153.383 101.795C153.656 101.61 154.004 101.476 154.427 101.391C154.828 101.311 155.192 101.302 155.52 101.361C155.847 101.421 156.121 101.569 156.34 101.805C156.564 102.034 156.721 102.372 156.81 102.819L157.143 104.494C157.191 104.734 157.239 104.945 157.287 105.126C157.333 105.301 157.385 105.472 157.442 105.639L156.18 105.891C156.155 105.794 156.129 105.71 156.103 105.638C156.082 105.565 156.061 105.474 156.04 105.365C155.939 105.576 155.778 105.768 155.556 105.943C155.34 106.111 155.037 106.234 154.648 106.312ZM154.891 105.29C155.08 105.252 155.242 105.184 155.377 105.086C155.512 104.988 155.609 104.861 155.668 104.707C155.725 104.547 155.736 104.378 155.701 104.2L155.663 104.011L154.633 104.216C154.438 104.255 154.302 104.336 154.225 104.458C154.154 104.579 154.132 104.706 154.158 104.838C154.192 105.009 154.266 105.141 154.379 105.231C154.497 105.315 154.667 105.334 154.891 105.29ZM159.249 105.28L158.558 101.81L157.158 102.089L156.943 101.007L161.065 100.186L161.281 101.269L159.881 101.547L160.571 105.017L159.249 105.28ZM162.654 104.602L161.748 100.051L163.071 99.7874L163.365 101.265L164.275 101.083C164.871 100.965 165.345 101.001 165.699 101.193C166.053 101.385 166.281 101.741 166.385 102.262C166.444 102.56 166.437 102.838 166.363 103.096C166.29 103.355 166.135 103.577 165.897 103.761C165.659 103.939 165.322 104.071 164.887 104.158L162.654 104.602ZM163.779 103.343L164.517 103.196C164.752 103.149 164.909 103.073 164.99 102.968C165.075 102.856 165.099 102.708 165.062 102.525C165.025 102.336 164.946 102.209 164.826 102.144C164.711 102.077 164.537 102.067 164.302 102.114L163.563 102.261L163.779 103.343ZM171.607 102.937C171.183 103.021 170.777 103.016 170.389 102.92C170.007 102.824 169.675 102.622 169.394 102.315C169.117 102.001 168.926 101.581 168.821 101.054L168.787 100.882C168.689 100.39 168.71 99.9569 168.85 99.5838C168.995 99.2039 169.225 98.8933 169.54 98.652C169.861 98.4096 170.233 98.2462 170.657 98.1619C171.086 98.0765 171.492 98.0849 171.876 98.1872C172.259 98.2894 172.588 98.489 172.861 98.7858C173.139 99.0757 173.327 99.4669 173.425 99.9593L173.459 100.131C173.563 100.652 173.543 101.108 173.401 101.5C173.263 101.884 173.037 102.2 172.723 102.447C172.408 102.688 172.036 102.852 171.607 102.937ZM171.388 101.838C171.594 101.797 171.759 101.713 171.883 101.588C172.005 101.456 172.085 101.288 172.122 101.085C172.159 100.881 172.152 100.653 172.102 100.401L172.068 100.229C172.022 100 171.945 99.8073 171.837 99.6503C171.728 99.4934 171.592 99.3805 171.43 99.3116C171.266 99.237 171.081 99.2202 170.875 99.2613C170.669 99.3023 170.505 99.3885 170.382 99.5201C170.258 99.6459 170.176 99.8021 170.136 99.9887C170.096 100.175 170.098 100.383 170.144 100.612L170.178 100.784C170.231 101.047 170.313 101.266 170.425 101.44C170.536 101.609 170.672 101.727 170.835 101.796C170.997 101.865 171.182 101.879 171.388 101.838ZM175.645 102.017L174.955 98.5477L173.555 98.8262L173.34 97.7441L177.462 96.9238L177.678 98.0059L176.278 98.2845L176.968 101.754L175.645 102.017ZM181.636 100.825L181.318 99.2279C181.201 99.3285 181.063 99.4274 180.904 99.5246C180.745 99.6218 180.525 99.6982 180.244 99.7541C179.672 99.868 179.221 99.8149 178.891 99.5948C178.567 99.3735 178.35 98.9823 178.238 98.4212L177.922 96.8323L179.262 96.5657L179.552 98.0257C179.602 98.2777 179.69 98.4478 179.815 98.5361C179.944 98.6175 180.149 98.6303 180.429 98.5744C180.618 98.5368 180.771 98.4826 180.888 98.4117C181.004 98.3351 181.08 98.2694 181.117 98.2145L180.73 96.2735L182.053 96.0103L182.959 100.562L181.636 100.825ZM186.126 100.048C185.679 100.137 185.262 100.134 184.874 100.038C184.485 99.9371 184.149 99.733 183.868 99.4259C183.592 99.1176 183.402 98.7001 183.297 98.1734L183.263 98.0016C183.163 97.4978 183.18 97.0599 183.314 96.6879C183.449 96.3159 183.671 96.0128 183.982 95.7784C184.297 95.5371 184.666 95.3743 185.09 95.29C185.84 95.1407 186.445 95.2226 186.906 95.5356C187.366 95.8429 187.669 96.363 187.815 97.0959L187.911 97.5768L184.716 98.2125C184.772 98.4336 184.86 98.6094 184.982 98.74C185.109 98.8695 185.253 98.9538 185.416 98.9929C185.577 99.0263 185.744 99.0259 185.916 98.9917C186.167 98.9416 186.358 98.865 186.486 98.7621C186.619 98.6523 186.695 98.527 186.715 98.3862L187.934 98.1436C187.942 98.6599 187.79 99.0771 187.478 99.3951C187.166 99.713 186.715 99.9307 186.126 100.048ZM185.343 96.3378C185.183 96.3697 185.036 96.4257 184.903 96.5057C184.77 96.5857 184.67 96.6949 184.602 96.8334C184.539 96.965 184.522 97.1321 184.55 97.3348L186.44 96.9589C186.397 96.747 186.322 96.5924 186.213 96.495C186.104 96.3918 185.973 96.3316 185.82 96.3142C185.674 96.2958 185.515 96.3036 185.343 96.3378ZM190.038 99.1536L189.347 95.6839L187.947 95.9624L187.732 94.8803L191.854 94.06L192.07 95.1421L190.67 95.4207L191.36 98.8904L190.038 99.1536Z" fill="white"/>
<g filter="url(#filter0_d_4142_6101)">
<circle cx="209.584" cy="91.6087" r="9.05295" transform="rotate(-10.0425 209.584 91.6087)" fill="#FC9F30" stroke="#FC9F30" stroke-width="0.862185"/>
<path d="M207.134 87.6646L212.131 91.1578L208.638 96.1544" stroke="white" stroke-width="0.862185"/>
</g>
<defs>
<filter id="filter0_d_4142_6101" x="176.592" y="58.6162" width="65.9854" height="65.9851" filterUnits="userSpaceOnUse" color-interpolation-filters="sRGB">
<feFlood flood-opacity="0" result="BackgroundImageFix"/>
<feColorMatrix in="SourceAlpha" type="matrix" values="0 0 0 0 0 0 0 0 0 0 0 0 0 0 0 0 0 0 127 0" result="hardAlpha"/>
<feOffset/>
<feGaussianBlur stdDeviation="11"/>
<feComposite in2="hardAlpha" operator="out"/>
<feColorMatrix type="matrix" values="0 0 0 0 0.117647 0 0 0 0 0.627451 0 0 0 0 0.870588 0 0 0 0.15 0"/>
<feBlend mode="normal" in2="BackgroundImageFix" result="effect1_dropShadow_4142_6101"/>
<feBlend mode="normal" in="SourceGraphic" in2="effect1_dropShadow_4142_6101" result="shape"/>
</filter>
<linearGradient id="paint0_linear_4142_6101" x1="87.5122" y1="116.157" x2="183.768" y2="99.111" gradientUnits="userSpaceOnUse">
<stop stop-color="#F17E00"/>
<stop offset="1" stop-color="#FC9F30"/>
</linearGradient>
</defs>
</svg>
