<svg width="244" height="104" viewBox="0 0 244 104" fill="none" xmlns="http://www.w3.org/2000/svg">
<rect x="0.938258" y="25.8261" width="235.71" height="78.3843" rx="8.70481" transform="rotate(-6.0839 0.938258 25.8261)" fill="white" stroke="white" stroke-width="0.232128"/>
<path d="M24.5432 65.1643C24.4301 65.1764 24.3164 65.1833 24.2022 65.185C24.0993 65.196 24.0062 65.2007 23.9228 65.1992L23.7469 63.5486C23.8303 63.5501 23.9239 63.5505 24.0279 63.5498C24.1421 63.5481 24.2558 63.5412 24.3689 63.5291C24.6466 63.4995 24.8695 63.4445 25.0378 63.3642C25.2163 63.2828 25.3591 63.1583 25.4661 62.9909C25.5822 62.8121 25.6815 62.5727 25.7639 62.2727L20.4431 54.5085L22.6028 54.2784L26.5237 60.1791L28.5574 53.6437L30.4703 53.4398L27.583 62.3596C27.4336 62.8124 27.2731 63.2092 27.1014 63.5499C26.9286 63.8803 26.7292 64.1564 26.5032 64.3781C26.2772 64.5998 26.0046 64.7745 25.6854 64.9021C25.3764 65.0287 24.9957 65.1161 24.5432 65.1643ZM36.7842 63.688L35.9128 55.512L39.7694 55.1009C40.4584 55.0275 41.0242 55.066 41.4667 55.2165C41.9184 55.3555 42.2651 55.5838 42.507 55.9013C42.7477 56.2084 42.8911 56.578 42.9372 57.0099C42.9755 57.3699 42.9048 57.7311 42.725 58.0935C42.5441 58.4456 42.2643 58.699 41.8856 58.8538C42.4027 58.9235 42.8084 59.1195 43.1028 59.4417C43.4063 59.7526 43.5828 60.1395 43.6321 60.6022C43.7077 61.3119 43.5315 61.9027 43.1033 62.3748C42.6752 62.8469 41.9572 63.1366 40.9494 63.244L36.7842 63.688ZM38.3266 62.057L40.5634 61.8186C41.1188 61.7594 41.49 61.6314 41.677 61.4347C41.8732 61.2266 41.9538 60.9579 41.9188 60.6288C41.8837 60.2997 41.7494 60.0644 41.5159 59.9229C41.2916 59.77 40.9017 59.7231 40.3464 59.7823L38.1095 60.0207L38.3266 62.057ZM37.9681 58.6941L39.9736 58.4803C40.4878 58.4255 40.839 58.3049 41.0271 58.1184C41.2142 57.9217 41.2918 57.6742 41.26 57.3759C41.2282 57.0777 41.1007 56.8572 40.8775 56.7146C40.6532 56.5617 40.2839 56.5126 39.7697 56.5675L37.7643 56.7812L37.9681 58.6941ZM47.9913 62.6651C47.4051 62.7276 46.8896 62.6733 46.445 62.5023C46.0095 62.3199 45.6629 62.0448 45.4053 61.677C45.1477 61.3092 44.9931 60.8836 44.9416 60.4003C44.855 59.5878 45.0325 58.9604 45.4742 58.5181C45.9149 58.0655 46.6031 57.7893 47.539 57.6896L50.0843 57.4183L50.0366 56.9709C49.9709 56.3539 49.7871 55.947 49.4853 55.7503C49.1927 55.5423 48.7533 55.4695 48.1671 55.532C47.6426 55.5879 47.2657 55.7113 47.0364 55.9021C46.8071 56.093 46.6873 56.3346 46.6768 56.6269L45.0262 56.8029C45.0066 56.3265 45.1114 55.8941 45.3404 55.5057C45.5694 55.1172 45.9146 54.7944 46.3761 54.5372C46.8478 54.2789 47.4179 54.1141 48.0864 54.0429C48.7548 53.9716 49.3469 54.0125 49.8624 54.1656C50.3883 54.3176 50.8085 54.6004 51.123 55.0141C51.4467 55.4165 51.6469 55.9776 51.7237 56.6975L52.0706 59.9525C52.1166 60.3844 52.1623 60.7644 52.2077 61.0924C52.252 61.4101 52.3111 61.721 52.3851 62.0251L50.8425 62.1896C50.7864 61.9563 50.7393 61.7585 50.7012 61.5962C50.6734 61.4327 50.6463 61.2276 50.62 60.9808C50.4652 61.3821 50.1609 61.7474 49.7071 62.0766C49.2625 62.3944 48.6906 62.5905 47.9913 62.6651ZM48.2962 61.1348C48.687 61.0932 49.0347 60.9885 49.3393 60.8208C49.6541 60.6521 49.895 60.4236 50.0619 60.1353C50.2391 59.846 50.3074 59.5111 50.2668 59.1306L50.2191 58.6832L47.9823 58.9216C47.5504 58.9677 47.2106 59.0975 46.9629 59.3111C46.7255 59.5237 46.626 59.8099 46.6644 60.1698C46.7006 60.5092 46.8479 60.7691 47.1064 60.9496C47.3751 61.129 47.7717 61.1907 48.2962 61.1348ZM57.7918 61.6205C57.0617 61.6983 56.387 61.6142 55.7679 61.3682C55.1488 61.1221 54.6367 60.7086 54.2316 60.1278C53.8367 59.5458 53.5894 58.7869 53.4897 57.851L53.4568 57.5425C53.3625 56.658 53.4584 55.8989 53.7445 55.2652C54.0409 54.6303 54.4663 54.1325 55.0207 53.7718C55.574 53.4008 56.1952 53.1786 56.8842 53.1051C57.6041 53.0284 58.224 53.0871 58.744 53.2813C59.2742 53.4745 59.7007 53.767 60.0233 54.1591C60.3562 54.5501 60.5917 55.0034 60.7299 55.5191L59.0021 55.7033C58.8587 55.3337 58.6402 55.0398 58.3465 54.8215C58.0528 54.6032 57.618 54.5247 57.0421 54.5861C56.6616 54.6266 56.3161 54.7519 56.0056 54.9618C55.7054 55.1706 55.4779 55.4757 55.3231 55.877C55.1671 56.2681 55.121 56.7618 55.1845 57.3583L55.2174 57.6668C55.2865 58.3148 55.4401 58.8288 55.6782 59.2091C55.9153 59.5791 56.2031 59.8396 56.5416 59.9908C56.8894 60.1305 57.2535 60.1801 57.634 60.1396C58.1174 60.088 58.4966 59.9384 58.7719 59.6906C59.0471 59.4429 59.228 59.0908 59.3145 58.6343L61.0423 58.4501C61.0008 59.037 60.838 59.5588 60.5539 60.0156C60.2789 60.4609 59.9067 60.823 59.4371 61.1019C58.9676 61.3808 58.4192 61.5536 57.7918 61.6205ZM66.7934 60.4894L65.9219 52.3135L67.6188 52.1326L67.969 55.4184L71.8256 55.0074L71.4754 51.7216L73.1723 51.5407L74.0438 59.7167L72.3468 59.8975L71.9802 56.4574L68.1236 56.8685L68.4903 60.3086L66.7934 60.4894ZM79.775 59.2774C79.0243 59.3574 78.3291 59.2755 77.6894 59.0317C77.0487 58.7775 76.5154 58.3611 76.0897 57.7824C75.6732 57.1923 75.4161 56.4397 75.3186 55.5244L75.2857 55.2158C75.1936 54.352 75.2906 53.6031 75.5767 52.9694C75.872 52.3243 76.3066 51.8151 76.8805 51.4419C77.4543 51.0687 78.1167 50.8421 78.8674 50.7621C79.6284 50.6809 80.3236 50.7629 80.953 51.0078C81.5927 51.2517 82.1197 51.6583 82.534 52.2278C82.9575 52.786 83.2153 53.497 83.3074 54.3608L83.3403 54.6694C83.4378 55.5847 83.3401 56.3752 83.047 57.0409C82.7631 57.6952 82.3348 58.2141 81.762 58.5976C81.1984 58.9697 80.536 59.1963 79.775 59.2774ZM79.6172 57.7965C80.008 57.7548 80.3683 57.6228 80.6983 57.4004C81.0282 57.178 81.2803 56.8599 81.4546 56.4461C81.6279 56.022 81.6805 55.4911 81.6125 54.8535L81.5797 54.545C81.5172 53.9588 81.3582 53.4921 81.1028 53.1449C80.8463 52.7874 80.5338 52.5398 80.1655 52.4023C79.7962 52.2544 79.4161 52.2013 79.0253 52.243C78.6345 52.2846 78.2741 52.4167 77.9441 52.639C77.6131 52.8512 77.3599 53.159 77.1845 53.5625C77.008 53.9558 76.951 54.4455 77.0134 55.0317L77.0463 55.3402C77.1143 55.9778 77.2776 56.4857 77.5363 56.8637C77.794 57.2315 78.1075 57.4893 78.4769 57.6372C78.8463 57.785 79.2264 57.8381 79.6172 57.7965ZM85.4587 58.5L84.5872 50.324L88.4438 49.913C89.1329 49.8395 89.6986 49.878 90.1411 50.0285C90.5928 50.1676 90.9395 50.3958 91.1814 50.7133C91.4222 51.0205 91.5656 51.39 91.6116 51.822C91.65 52.1819 91.5792 52.5431 91.3994 52.9055C91.2186 53.2576 90.9387 53.5111 90.56 53.6658C91.0771 53.7355 91.4828 53.9315 91.7772 54.2538C92.0807 54.5647 92.2572 54.9515 92.3065 55.4143C92.3821 56.1239 92.2059 56.7147 91.7778 57.1868C91.3496 57.6589 90.6316 57.9486 89.6238 58.0561L85.4587 58.5ZM87.001 56.8691L89.2378 56.6307C89.7932 56.5715 90.1644 56.4435 90.3514 56.2467C90.5477 56.0386 90.6282 55.77 90.5932 55.4409C90.5581 55.1118 90.4238 54.8765 90.1903 54.7349C89.966 54.582 89.5761 54.5352 89.0208 54.5944L86.784 54.8328L87.001 56.8691ZM86.6426 53.5061L88.648 53.2924C89.1622 53.2376 89.5134 53.1169 89.7015 52.9305C89.8886 52.7337 89.9662 52.4862 89.9344 52.188C89.9026 51.8897 89.7751 51.6693 89.5519 51.5267C89.3276 51.3737 88.9583 51.3247 88.4441 51.3795L86.4387 51.5932L86.6426 53.5061ZM97.8227 57.3538C97.0719 57.4338 96.3767 57.3519 95.7371 57.1081C95.0963 56.8539 94.5631 56.4375 94.1374 55.8588C93.7208 55.2687 93.4638 54.5161 93.3662 53.6008L93.3333 53.2922C93.2413 52.4284 93.3383 51.6795 93.6244 51.0458C93.9196 50.4006 94.3542 49.8915 94.9281 49.5183C95.502 49.1451 96.1643 48.9185 96.9151 48.8385C97.6761 48.7573 98.3713 48.8393 99.0007 49.0842C99.6403 49.3281 100.167 49.7347 100.582 50.3042C101.005 50.8624 101.263 51.5734 101.355 52.4372L101.388 52.7458C101.485 53.6611 101.388 54.4516 101.095 55.1173C100.811 55.7716 100.382 56.2905 99.8096 56.674C99.246 57.0461 98.5837 57.2727 97.8227 57.3538ZM97.6648 55.8729C98.0556 55.8312 98.416 55.6992 98.7459 55.4768C99.0759 55.2544 99.328 54.9363 99.5023 54.5225C99.6755 54.0984 99.7281 53.5675 99.6602 52.9299L99.6273 52.6214C99.5648 52.0352 99.4059 51.5685 99.1504 51.2213C98.8939 50.8638 98.5815 50.6162 98.2132 50.4787C97.8438 50.3308 97.4637 50.2777 97.0729 50.3194C96.6821 50.361 96.3217 50.4931 95.9918 50.7154C95.6608 50.9275 95.4075 51.2354 95.2321 51.6389C95.0556 52.0322 94.9986 52.5219 95.0611 53.1081L95.094 53.4166C95.1619 54.0542 95.3253 54.5621 95.584 54.9401C95.8416 55.3079 96.1551 55.5657 96.5245 55.7136C96.8939 55.8614 97.274 55.9145 97.6648 55.8729ZM107.072 56.3679C106.353 56.4447 105.673 56.3662 105.035 56.1327C104.395 55.8888 103.857 55.4781 103.421 54.9005C102.985 54.3229 102.717 53.561 102.616 52.6149L102.583 52.3063C102.487 51.4013 102.581 50.6319 102.868 49.9982C103.164 49.3633 103.59 48.8707 104.145 48.5203C104.7 48.1595 105.322 47.9424 106.011 47.869C107.255 47.7364 108.242 47.9692 108.971 48.5675C109.711 49.1648 110.147 50.0856 110.28 51.33L110.372 52.1938L104.387 52.8318C104.466 53.385 104.632 53.8197 104.884 54.1361C105.137 54.4524 105.441 54.6697 105.796 54.7878C106.151 54.8956 106.524 54.9286 106.915 54.887C107.501 54.8245 107.918 54.6865 108.165 54.4728C108.423 54.2581 108.588 53.9962 108.659 53.687L110.356 53.5061C110.278 54.3361 109.937 54.9965 109.334 55.4872C108.742 55.9768 107.988 56.2704 107.072 56.3679ZM106.246 49.3417C105.865 49.3823 105.517 49.4869 105.203 49.6557C104.888 49.8245 104.643 50.0638 104.468 50.3737C104.293 50.6836 104.221 51.0813 104.252 51.5668L108.54 51.1097C108.475 50.5966 108.335 50.206 108.119 49.9377C107.903 49.6695 107.635 49.4953 107.314 49.415C106.993 49.3245 106.636 49.3001 106.246 49.3417ZM119.338 55.0606C118.597 55.1396 117.959 55.1036 117.423 54.9527C116.887 54.8018 116.459 54.5458 116.14 54.1846C115.819 53.8131 115.609 53.3519 115.508 52.8009L117.236 52.6167C117.304 52.8592 117.408 53.0612 117.55 53.2229C117.703 53.3835 117.907 53.4969 118.164 53.5632C118.43 53.618 118.758 53.6246 119.149 53.583C119.848 53.5085 120.32 53.3438 120.563 53.0891C120.806 52.8343 120.91 52.5372 120.873 52.1979C120.841 51.8893 120.697 51.6603 120.441 51.5106C120.195 51.3496 119.784 51.2998 119.209 51.3612L117.866 51.5043L117.725 50.1776L118.959 50.0461C119.432 49.9956 119.766 49.8612 119.961 49.6428C120.157 49.4244 120.238 49.166 120.207 48.8678C120.178 48.6004 120.04 48.3811 119.793 48.2098C119.545 48.0282 119.143 47.967 118.588 48.0262C117.991 48.0898 117.585 48.2319 117.37 48.4525C117.164 48.672 117.053 48.9491 117.037 49.2836L115.309 49.4678C115.294 48.9389 115.4 48.47 115.627 48.0609C115.854 47.6519 116.203 47.3183 116.675 47.06C117.146 46.7914 117.731 46.6198 118.43 46.5453C119.551 46.4258 120.392 46.5598 120.954 46.9472C121.525 47.3335 121.849 47.8815 121.924 48.5911C121.966 48.9819 121.905 49.3368 121.741 49.6559C121.588 49.9739 121.304 50.233 120.888 50.4333C121.48 50.5159 121.901 50.7154 122.153 51.0317C122.416 51.347 122.571 51.7257 122.618 52.168C122.668 52.641 122.585 53.0815 122.369 53.4895C122.152 53.8974 121.793 54.2424 121.293 54.5246C120.792 54.7965 120.14 54.9751 119.338 55.0606ZM126.976 54.2465C126.39 54.309 125.874 54.2547 125.43 54.0837C124.994 53.9013 124.648 53.6262 124.39 53.2584C124.133 52.8906 123.978 52.465 123.926 51.9817C123.84 51.1692 124.017 50.5418 124.459 50.0995C124.9 49.6469 125.588 49.3707 126.524 49.271L129.069 48.9997L129.021 48.5523C128.956 47.9353 128.772 47.5284 128.47 47.3318C128.178 47.1237 127.738 47.0509 127.152 47.1134C126.627 47.1693 126.251 47.2927 126.021 47.4836C125.792 47.6744 125.672 47.916 125.662 48.2084L124.011 48.3843C123.991 47.9079 124.096 47.4755 124.325 47.0871C124.554 46.6986 124.899 46.3758 125.361 46.1186C125.833 45.8603 126.403 45.6955 127.071 45.6243C127.74 45.553 128.332 45.5939 128.847 45.747C129.373 45.899 129.793 46.1818 130.108 46.5955C130.432 46.9979 130.632 47.559 130.708 48.2789L131.055 51.5339C131.101 51.9658 131.147 52.3458 131.193 52.6738C131.237 52.9915 131.296 53.3024 131.37 53.6066L129.827 53.771C129.771 53.5377 129.724 53.3399 129.686 53.1776C129.658 53.0141 129.631 52.809 129.605 52.5622C129.45 52.9635 129.146 53.3288 128.692 53.658C128.247 53.9758 127.675 54.172 126.976 54.2465ZM127.281 52.7162C127.672 52.6746 128.02 52.5699 128.324 52.4022C128.639 52.2335 128.88 52.005 129.047 51.7168C129.224 51.4274 129.292 51.0925 129.252 50.712L129.204 50.2646L126.967 50.5031C126.535 50.5491 126.195 50.6789 125.948 50.8925C125.71 51.1051 125.611 51.3913 125.649 51.7512C125.685 52.0906 125.833 52.3506 126.091 52.531C126.36 52.7104 126.757 52.7721 127.281 52.7162ZM133.365 53.3939L132.493 45.218L134.19 45.0371L134.54 48.3229L138.397 47.9119L138.047 44.626L139.744 44.4452L140.615 52.6212L138.918 52.802L138.552 49.3619L134.695 49.773L135.062 53.2131L133.365 53.3939ZM142.24 52.4479L144.039 49.1203C143.402 49.001 142.912 48.7464 142.569 48.3565C142.226 47.9666 142.022 47.4735 141.959 46.877C141.902 46.3422 141.971 45.8668 142.165 45.4508C142.359 45.0245 142.686 44.6776 143.147 44.4101C143.607 44.1426 144.197 43.9705 144.917 43.8938L148.619 43.4992L149.491 51.6752L147.794 51.856L147.485 48.9559L145.726 49.1433L144.215 52.2375L142.24 52.4479ZM143.686 46.6928C143.732 47.1248 143.894 47.4196 144.171 47.5773C144.446 47.7247 144.805 47.7749 145.248 47.7277L147.33 47.5058L147.077 45.1301L144.994 45.3521C144.552 45.3992 144.212 45.5291 143.975 45.7416C143.737 45.9438 143.64 46.2609 143.686 46.6928ZM153.582 51.2391L152.865 44.5132L150.165 44.801L150.011 43.3509L157.107 42.5945L157.261 44.0446L154.562 44.3324L155.279 51.0582L153.582 51.2391ZM159.367 50.6225L158.495 42.4466L160.192 42.2657L160.809 48.0506L164.126 41.8464L165.746 41.6738L166.617 49.8498L164.92 50.0306L164.304 44.2457L160.986 50.4499L159.367 50.6225ZM172.348 49.4105C171.628 49.4872 170.949 49.4088 170.311 49.1752C169.671 48.9314 169.133 48.5207 168.697 47.9431C168.261 47.3655 167.993 46.6036 167.892 45.6575L167.859 45.3489C167.763 44.4439 167.857 43.6745 168.143 43.0408C168.44 42.4059 168.866 41.9133 169.421 41.5628C169.976 41.2021 170.597 40.985 171.286 40.9116C172.531 40.779 173.518 41.0118 174.247 41.6101C174.987 42.2073 175.423 43.1282 175.556 44.3726L175.648 45.2364L169.662 45.8744C169.742 46.4275 169.908 46.8623 170.16 47.1787C170.412 47.495 170.716 47.7122 171.072 47.8303C171.427 47.9381 171.8 47.9712 172.19 47.9296C172.777 47.8671 173.194 47.729 173.441 47.5154C173.699 47.3007 173.864 47.0388 173.935 46.7295L175.632 46.5487C175.554 47.3787 175.213 48.039 174.61 48.5297C174.018 49.0194 173.264 49.3129 172.348 49.4105ZM171.521 42.3843C171.141 42.4249 170.793 42.5295 170.478 42.6983C170.164 42.8671 169.919 43.1064 169.744 43.4163C169.569 43.7262 169.497 44.1239 169.528 44.6094L173.816 44.1523C173.751 43.6392 173.611 43.2485 173.395 42.9803C173.179 42.7121 172.911 42.5378 172.59 42.4576C172.268 42.3671 171.912 42.3426 171.521 42.3843Z" fill="#333333"/>
<path d="M201.914 20.2688L197.675 20.7207L197.594 19.9649L199.41 19.7714L198.904 15.0249L197.327 16.4048L197.226 15.4647L198.821 14.0736L199.688 13.9813L200.295 19.6771L201.834 19.513L201.914 20.2688ZM205.428 19.9876C204.918 20.0419 204.482 20.0106 204.122 19.8937C203.767 19.77 203.489 19.5821 203.288 19.3301C203.087 19.0719 202.968 18.7739 202.932 18.4359C202.893 18.0673 202.974 17.7261 203.177 17.4124C203.379 17.0926 203.701 16.847 204.142 16.6757C203.799 16.6004 203.496 16.4432 203.235 16.2038C202.973 15.9645 202.822 15.6575 202.782 15.2827C202.748 14.9631 202.797 14.6658 202.929 14.3908C203.068 14.115 203.286 13.8867 203.584 13.7058C203.887 13.5182 204.266 13.4001 204.72 13.3517C205.181 13.3025 205.576 13.3381 205.906 13.4583C206.235 13.5724 206.493 13.7499 206.681 13.9909C206.874 14.2313 206.988 14.5113 207.022 14.8308C207.061 15.1994 206.978 15.5252 206.772 15.8082C206.572 16.0905 206.31 16.3142 205.986 16.4792C206.463 16.5837 206.829 16.7498 207.083 16.9775C207.343 17.2045 207.496 17.5269 207.54 17.9447C207.576 18.2827 207.523 18.5991 207.38 18.8939C207.237 19.1826 207.002 19.4251 206.675 19.6216C206.353 19.8112 205.938 19.9332 205.428 19.9876ZM205.345 19.2134C205.701 19.1754 205.979 19.0961 206.177 18.9755C206.376 18.8549 206.512 18.7099 206.588 18.5403C206.662 18.3646 206.689 18.1784 206.668 17.9818C206.631 17.6377 206.466 17.3725 206.173 17.1863C205.88 17.0001 205.522 16.9046 205.098 16.9C204.686 16.9937 204.356 17.1594 204.107 17.3971C203.859 17.6349 203.754 17.9319 203.792 18.2883C203.813 18.4849 203.879 18.6612 203.989 18.8173C204.098 18.9672 204.262 19.0802 204.481 19.1563C204.701 19.2323 204.989 19.2513 205.345 19.2134ZM205.03 16.2549C205.393 16.1664 205.682 16.0176 205.896 15.8084C206.109 15.593 206.197 15.3133 206.16 14.9692C206.127 14.6558 205.997 14.4273 205.77 14.2837C205.549 14.1333 205.227 14.0807 204.803 14.1258C204.373 14.1717 204.065 14.2914 203.881 14.4851C203.696 14.6726 203.62 14.923 203.653 15.2364C203.69 15.5805 203.835 15.8353 204.089 16.0009C204.342 16.1603 204.656 16.245 205.03 16.2549ZM209.624 19.5402C209.508 19.5527 209.397 19.5334 209.292 19.4825C209.188 19.4376 209.1 19.3693 209.028 19.2776C208.962 19.1852 208.923 19.0806 208.91 18.9638C208.891 18.7795 208.936 18.6194 209.046 18.4834C209.162 18.3467 209.309 18.2689 209.487 18.2499C209.665 18.2309 209.822 18.2763 209.958 18.3861C210.1 18.4953 210.181 18.642 210.201 18.8263C210.213 18.9431 210.194 19.0539 210.143 19.1587C210.098 19.2629 210.029 19.3479 209.937 19.4137C209.851 19.485 209.747 19.5271 209.624 19.5402ZM209.222 15.7615C209.105 15.7739 208.994 15.7577 208.89 15.7129C208.785 15.6619 208.697 15.5906 208.625 15.4988C208.559 15.4064 208.52 15.3018 208.508 15.1851C208.488 15.0007 208.533 14.8406 208.643 14.7046C208.759 14.568 208.906 14.4901 209.084 14.4712C209.262 14.4522 209.419 14.4976 209.555 14.6073C209.697 14.7165 209.778 14.8632 209.798 15.0475C209.81 15.1643 209.791 15.2751 209.74 15.3799C209.695 15.4842 209.627 15.5722 209.535 15.6441C209.449 15.7093 209.344 15.7484 209.222 15.7615ZM213.632 19.1131C213.165 19.1629 212.757 19.1256 212.408 19.0012C212.065 18.87 211.789 18.6757 211.582 18.4182C211.379 18.1538 211.26 17.8497 211.223 17.5056L212.09 17.4132C212.123 17.7266 212.258 17.9732 212.495 18.153C212.731 18.3267 213.082 18.3887 213.549 18.3389C214.016 18.2892 214.346 18.1514 214.54 17.9257C214.733 17.6939 214.811 17.4121 214.776 17.0803C214.739 16.7362 214.599 16.4715 214.356 16.2862C214.118 16.0941 213.768 16.0225 213.308 16.0717L212.616 16.1453L212.538 15.408L213.229 15.3343C213.671 15.2872 213.981 15.161 214.158 14.9557C214.334 14.7442 214.405 14.4726 214.369 14.1408C214.335 13.8213 214.214 13.5826 214.004 13.4248C213.794 13.2607 213.462 13.2029 213.007 13.2514C212.571 13.2979 212.261 13.4272 212.079 13.6393C211.902 13.8446 211.828 14.0855 211.858 14.362L210.991 14.4543C210.957 14.1286 211.008 13.8249 211.146 13.543C211.284 13.2611 211.501 13.0266 211.798 12.8396C212.1 12.6458 212.476 12.525 212.924 12.4772C213.379 12.4288 213.772 12.4677 214.102 12.5941C214.438 12.7136 214.699 12.8939 214.887 13.1349C215.08 13.3753 215.193 13.6491 215.226 13.9563C215.265 14.325 215.2 14.6488 215.031 14.9279C214.868 15.2001 214.616 15.4071 214.277 15.5489C214.658 15.6263 214.97 15.7857 215.214 16.027C215.457 16.2682 215.603 16.6193 215.652 17.0801C215.687 17.4058 215.633 17.716 215.49 18.0109C215.347 18.2995 215.118 18.5445 214.804 18.7458C214.496 18.9402 214.105 19.0627 213.632 19.1131ZM219.253 18.5139C218.94 18.5473 218.64 18.5265 218.352 18.4515C218.064 18.3704 217.799 18.2154 217.557 17.9864C217.315 17.7574 217.11 17.4374 216.942 17.0266C216.779 16.6089 216.664 16.0806 216.596 15.4416L216.576 15.2572C216.512 14.6612 216.518 14.1573 216.592 13.7455C216.672 13.3269 216.806 12.9863 216.996 12.7237C217.185 12.4612 217.413 12.2629 217.678 12.129C217.943 11.9951 218.233 11.9114 218.546 11.878C218.859 11.8446 219.16 11.8654 219.448 11.9404C219.735 12.0154 219.999 12.1612 220.24 12.3779C220.481 12.5947 220.681 12.8995 220.841 13.2926C221.006 13.6789 221.121 14.1701 221.184 14.7661L221.204 14.9504C221.272 15.5894 221.268 16.1305 221.19 16.5737C221.119 17.0101 220.989 17.3657 220.801 17.6406C220.613 17.9154 220.386 18.1229 220.121 18.2629C219.856 18.3969 219.567 18.4805 219.253 18.5139ZM219.173 17.7582C219.369 17.7372 219.55 17.6838 219.715 17.5978C219.879 17.5058 220.016 17.3607 220.125 17.1626C220.24 16.9577 220.317 16.6855 220.355 16.3458C220.399 15.9994 220.393 15.565 220.338 15.0427L220.318 14.8584C220.25 14.2194 220.13 13.735 219.958 13.4054C219.792 13.075 219.592 12.8571 219.357 12.7517C219.128 12.6456 218.885 12.6063 218.627 12.6338C218.369 12.6613 218.136 12.7513 217.928 12.904C217.727 13.0559 217.577 13.3111 217.479 13.6696C217.386 14.0275 217.374 14.5259 217.442 15.1649L217.462 15.3492C217.518 15.8715 217.6 16.2977 217.71 16.6277C217.825 16.951 217.958 17.201 218.107 17.3778C218.262 17.5477 218.429 17.6603 218.609 17.7157C218.794 17.7643 218.982 17.7785 219.173 17.7582Z" fill="#C8CFEB"/>
<path d="M19.7548 42.2831L19.1477 36.5873L16.9081 36.826L16.8275 36.0703L22.1731 35.5005L22.2536 36.2563L20.014 36.495L20.6211 42.1908L19.7548 42.2831ZM23.1519 43.7853L22.4348 37.0572L23.1905 36.9767L23.2888 37.8983C23.4199 37.555 23.6238 37.2816 23.9004 37.0781C24.1825 36.8678 24.5202 36.7417 24.9134 36.6998C25.5278 36.6343 26.041 36.7847 26.4529 37.1509C26.8641 37.511 27.112 38.0874 27.1965 38.88L27.2161 39.0643C27.275 39.6173 27.2381 40.0873 27.1054 40.4743C26.9788 40.8607 26.7717 41.1624 26.4841 41.3794C26.2027 41.5959 25.8592 41.7257 25.4537 41.7689C25.0359 41.8134 24.6758 41.7586 24.3735 41.6044C24.0774 41.4495 23.8439 41.2414 23.6731 40.98L23.9629 43.6988L23.1519 43.7853ZM25.1927 41.0697C25.5921 41.0271 25.9079 40.8412 26.14 40.512C26.3783 40.1821 26.4666 39.7283 26.405 39.1508L26.3854 38.9664C26.3284 38.4319 26.1494 38.0346 25.8482 37.7747C25.5526 37.5079 25.2051 37.3958 24.8057 37.4384C24.5108 37.4698 24.2562 37.5591 24.0419 37.7062C23.8338 37.8527 23.6767 38.0403 23.5706 38.2691C23.47 38.4911 23.4338 38.7342 23.4619 38.9984L23.5405 39.7357C23.572 40.0307 23.6612 40.2852 23.8084 40.4995C23.961 40.7069 24.1547 40.8634 24.3897 40.9688C24.6301 41.0675 24.8978 41.1011 25.1927 41.0697ZM30.6632 41.2137C30.2515 41.2575 29.8549 41.2097 29.4734 41.0702C29.0981 40.9299 28.7801 40.6873 28.5196 40.3422C28.2653 39.9965 28.108 39.541 28.0477 38.9757L28.0281 38.7914C27.9705 38.2507 28.0274 37.7941 28.199 37.4216C28.3699 37.0429 28.6183 36.7493 28.944 36.5405C29.2691 36.3257 29.6314 36.197 30.0307 36.1544C30.7496 36.0778 31.3266 36.2151 31.7618 36.5664C32.1969 36.9178 32.4528 37.4529 32.5295 38.1718L32.5845 38.6879L28.8794 39.0828C28.92 39.4637 29.0293 39.7597 29.2071 39.9707C29.3911 40.181 29.6054 40.3259 29.85 40.4055C30.1001 40.4783 30.345 40.5019 30.5846 40.4763C30.9533 40.437 31.2294 40.3455 31.4129 40.2016C31.6025 40.0571 31.7289 39.8728 31.792 39.6485L32.5846 39.5641C32.5361 40.0415 32.3314 40.4238 31.9705 40.7108C31.6151 40.991 31.1793 41.1586 30.6632 41.2137ZM30.1554 36.8868C29.9035 36.9137 29.6691 36.9883 29.4522 37.1109C29.2347 37.2273 29.063 37.3947 28.9372 37.6132C28.8175 37.831 28.7746 38.0997 28.8087 38.4192L31.7488 38.1058C31.7066 37.7686 31.6075 37.5088 31.4513 37.3266C31.3007 37.1376 31.1133 37.0115 30.889 36.9484C30.6642 36.8792 30.4196 36.8586 30.1554 36.8868ZM33.972 40.7678L33.4514 35.883L34.2624 35.7966L34.4795 37.8334L37.0049 37.5643L36.7878 35.5274L37.5988 35.441L38.1195 40.3257L37.3084 40.4122L37.0815 38.2831L34.5562 38.5523L34.7831 40.6813L33.972 40.7678ZM41.6348 40.0442C41.2231 40.0881 40.8266 40.0403 40.445 39.9007C40.0697 39.7605 39.7518 39.5179 39.4913 39.1728C39.2369 38.8271 39.0796 38.3716 39.0194 37.8063L38.9997 37.622C38.9421 37.0812 38.9991 36.6247 39.1706 36.2522C39.3416 35.8735 39.5899 35.5798 39.9156 35.3711C40.2407 35.1563 40.603 35.0276 41.0024 34.985C41.7212 34.9084 42.2983 35.0457 42.7334 35.397C43.1686 35.7484 43.4245 36.2835 43.5011 37.0024L43.5561 37.5185L39.851 37.9134C39.8917 38.2943 40.0009 38.5903 40.1787 38.8013C40.3627 39.0116 40.577 39.1565 40.8216 39.2361C41.0717 39.3089 41.3166 39.3325 41.5562 39.3069C41.9249 39.2676 42.201 39.1761 42.3845 39.0322C42.5742 38.8877 42.7005 38.7034 42.7636 38.4791L43.5563 38.3947C43.5077 38.8721 43.303 39.2543 42.9421 39.5414C42.5867 39.8216 42.1509 39.9892 41.6348 40.0442ZM41.127 35.7174C40.8751 35.7442 40.6407 35.8189 40.4239 35.9415C40.2063 36.0579 40.0347 36.2253 39.9088 36.4438C39.7891 36.6616 39.7463 36.9303 39.7803 37.2498L42.7204 36.9364C42.6782 36.5991 42.5791 36.3394 42.4229 36.1572C42.2723 35.9682 42.0849 35.8421 41.8607 35.779C41.6358 35.7098 41.3912 35.6892 41.127 35.7174ZM45.1401 41.4417L44.423 34.7136L45.1788 34.6331L45.277 35.5547C45.4082 35.2114 45.6121 34.938 45.8887 34.7345C46.1708 34.5242 46.5084 34.3981 46.9017 34.3562C47.5161 34.2907 48.0292 34.4411 48.4411 34.8073C48.8524 35.1674 49.1002 35.7438 49.1847 36.5364L49.2043 36.7207C49.2633 37.2737 49.2264 37.7437 49.0936 38.1307C48.967 38.517 48.7599 38.8188 48.4724 39.0358C48.1909 39.2522 47.8475 39.3821 47.4419 39.4253C47.0241 39.4698 46.6641 39.415 46.3618 39.2608C46.0656 39.1059 45.8322 38.8978 45.6614 38.6363L45.9512 41.3552L45.1401 41.4417ZM47.181 38.7261C47.5804 38.6835 47.8961 38.4976 48.1282 38.1683C48.3665 37.8385 48.4548 37.3847 48.3933 36.8072L48.3736 36.6228C48.3167 36.0883 48.1376 35.691 47.8365 35.431C47.5408 35.1643 47.1933 35.0522 46.7939 35.0947C46.499 35.1262 46.2444 35.2155 46.0302 35.3626C45.8221 35.509 45.665 35.6967 45.5589 35.9255C45.4583 36.1475 45.422 36.3906 45.4502 36.6548L45.5288 37.3921C45.5602 37.687 45.6495 37.9416 45.7966 38.1559C45.9492 38.3633 46.143 38.5198 46.3779 38.6252C46.6184 38.7239 46.8861 38.7575 47.181 38.7261ZM57.2038 38.2916L52.9642 38.7435L52.8836 37.9877L54.6993 37.7942L54.1934 33.0477L52.616 34.4276L52.5158 33.4875L54.1106 32.0964L54.977 32.0041L55.5841 37.6999L57.1232 37.5359L57.2038 38.2916ZM61.1778 37.9613C60.6985 38.0123 60.241 37.9462 59.8051 37.7627C59.3692 37.5792 58.9966 37.2616 58.6875 36.8099C58.3838 36.3513 58.1914 35.7411 58.1102 34.9792L58.0905 34.7949C58.0316 34.2419 58.0546 33.7578 58.1595 33.3427C58.2644 32.9276 58.429 32.5776 58.6534 32.2927C58.8779 32.0078 59.1463 31.7865 59.4589 31.6289C59.7769 31.4645 60.1141 31.3633 60.4705 31.3254C60.8207 31.288 61.1452 31.3001 61.4438 31.3614C61.7485 31.4222 62.0207 31.5268 62.2602 31.6752C62.4997 31.8237 62.7005 32.0167 62.8625 32.2542C63.0307 32.4911 63.1502 32.7673 63.2212 33.0829L62.2995 33.1811C62.169 32.7724 61.9543 32.4784 61.6555 32.299C61.3568 32.1195 60.9893 32.0531 60.553 32.0996C60.252 32.1316 59.9714 32.2392 59.7112 32.4223C59.4511 32.6054 59.254 32.8843 59.12 33.259C58.9852 33.6276 58.9493 34.1068 59.0122 34.6966L59.0318 34.881C59.0816 35.3479 59.1758 35.7356 59.3143 36.044C59.4589 36.3517 59.6308 36.5944 59.83 36.772C60.0284 36.9435 60.2367 37.0611 60.4548 37.1248C60.679 37.1879 60.8925 37.2087 61.0953 37.1871C61.5745 37.136 61.9369 36.9793 62.1824 36.717C62.4278 36.4547 62.5586 36.1363 62.5746 35.7617L63.4962 35.6635C63.4851 36.0251 63.4195 36.3428 63.2995 36.6166C63.1796 36.8903 63.0148 37.1223 62.8051 37.3124C62.6009 37.4958 62.3587 37.6428 62.0784 37.7534C61.8037 37.8573 61.5034 37.9265 61.1778 37.9613ZM65.5528 37.495C65.436 37.5074 65.3252 37.4881 65.2204 37.4372C65.1162 37.3923 65.0281 37.3241 64.9562 37.2323C64.8904 37.1399 64.8513 37.0353 64.8388 36.9186C64.8192 36.7342 64.8643 36.5741 64.9741 36.4381C65.09 36.3014 65.237 36.2236 65.4152 36.2046C65.5934 36.1856 65.7505 36.231 65.8865 36.3408C66.0286 36.45 66.1095 36.5967 66.1292 36.781C66.1416 36.8978 66.1223 37.0086 66.0714 37.1134C66.0266 37.2176 65.9579 37.3026 65.8655 37.3684C65.7799 37.4397 65.6756 37.4819 65.5528 37.495ZM65.15 33.7162C65.0333 33.7286 64.9228 33.7124 64.8186 33.6676C64.7137 33.6166 64.6253 33.5453 64.5534 33.4535C64.4876 33.3611 64.4485 33.2565 64.4361 33.1398C64.4164 32.9555 64.4615 32.7953 64.5713 32.6593C64.6872 32.5227 64.8343 32.4449 65.0125 32.4259C65.1907 32.4069 65.3477 32.4523 65.4837 32.5621C65.6259 32.6712 65.7067 32.8179 65.7264 33.0023C65.7388 33.119 65.7196 33.2298 65.6686 33.3347C65.6238 33.4389 65.5555 33.5269 65.4637 33.5988C65.3775 33.664 65.2729 33.7031 65.15 33.7162ZM70.483 37.1559L70.4113 36.4831C69.7846 36.5499 69.2314 36.4908 68.7519 36.3057C68.2778 36.1139 67.8953 35.8191 67.6043 35.4214C67.3195 35.0229 67.147 34.5411 67.0867 33.9758L67.0671 33.7915C67.0134 33.2877 67.085 32.8233 67.2821 32.3983C67.4853 31.9728 67.7991 31.6224 68.2234 31.3473C68.6532 31.0653 69.1814 30.8909 69.8081 30.8241L69.7364 30.1513L70.6028 30.059L70.6745 30.7318C71.3074 30.6643 71.8605 30.7235 72.3339 30.9091C72.8067 31.0887 73.1842 31.3654 73.4664 31.7392C73.7547 32.1124 73.9257 32.5509 73.9795 33.0547L73.9991 33.2391C74.0593 33.8043 73.9892 34.3121 73.7886 34.7622C73.5942 35.2117 73.2854 35.5802 72.8624 35.8676C72.4388 36.1489 71.9105 36.3233 71.2777 36.3907L71.3494 37.0635L70.483 37.1559ZM73.0774 33.3373L73.0578 33.153C73.0198 32.7966 72.9031 32.489 72.7078 32.2302C72.5179 31.9646 72.2574 31.7655 71.9264 31.633C71.6015 31.4999 71.2117 31.4575 70.757 31.506L71.1951 35.6166C71.6498 35.5681 72.0219 35.4445 72.3115 35.2459C72.6065 35.0405 72.8175 34.7756 72.9445 34.4514C73.077 34.1203 73.1213 33.749 73.0774 33.3373ZM67.9887 33.6933L68.0084 33.8776C68.0522 34.2893 68.1708 34.6433 68.3639 34.9396C68.5625 35.2291 68.8277 35.4432 69.1594 35.5819C69.4905 35.7144 69.8803 35.7567 70.3288 35.7089L69.8907 31.5983C69.4421 31.6461 69.07 31.7697 68.7743 31.969C68.4787 32.1683 68.2629 32.4181 68.1272 32.7184C67.9969 33.0119 67.9507 33.3369 67.9887 33.6933ZM75.5904 36.3319L75.0697 31.4471L75.8808 31.3607L76.2737 35.0473L78.4061 31.0915L79.2172 31.0051L79.7378 35.8898L78.9268 35.9763L78.5338 32.2897L76.4014 36.2454L75.5904 36.3319ZM82.3309 35.6134L81.8869 31.4476L80.2187 31.6254L80.1421 30.9065L84.2895 30.4644L84.3661 31.1833L82.6979 31.3611L83.142 35.527L82.3309 35.6134ZM85.734 35.2507L85.2133 30.366L86.0244 30.2795L86.2415 32.3164L88.7668 32.0472L88.5497 30.0104L89.3608 29.9239L89.8814 34.8087L89.0703 34.8951L88.8434 32.7661L86.3181 33.0353L86.545 35.1643L85.734 35.2507ZM93.3967 34.5272C92.9851 34.5711 92.5885 34.5232 92.207 34.3837C91.8316 34.2435 91.5137 34.0009 91.2532 33.6558C90.9988 33.31 90.8415 32.8545 90.7813 32.2892L90.7616 32.1049C90.704 31.5642 90.761 31.1076 90.9326 30.7351C91.1035 30.3565 91.3518 30.0628 91.6776 29.8541C92.0027 29.6392 92.3649 29.5105 92.7643 29.4679C93.4832 29.3913 94.0602 29.5287 94.4953 29.88C94.9305 30.2313 95.1864 30.7664 95.263 31.4853L95.318 32.0014L91.613 32.3963C91.6536 32.7773 91.7628 33.0733 91.9406 33.2842C92.1246 33.4945 92.3389 33.6395 92.5835 33.719C92.8337 33.7918 93.0785 33.8154 93.3182 33.7899C93.6868 33.7506 93.9629 33.659 94.1464 33.5152C94.3361 33.3707 94.4625 33.1863 94.5256 32.9621L95.3182 32.8776C95.2697 33.3551 95.0649 33.7373 94.704 34.0243C94.3486 34.3046 93.9129 34.4722 93.3967 34.5272ZM92.889 30.2004C92.637 30.2272 92.4026 30.3019 92.1858 30.4244C91.9683 30.5408 91.7966 30.7083 91.6707 30.9268C91.551 31.1446 91.5082 31.4132 91.5422 31.7328L94.4823 31.4194C94.4402 31.0821 94.341 30.8224 94.1849 30.6401C94.0342 30.4511 93.8468 30.3251 93.6226 30.262C93.3977 30.1927 93.1532 30.1722 92.889 30.2004ZM98.6048 33.9721C98.187 34.0166 97.7996 33.9678 97.4427 33.8257C97.0912 33.6767 96.7976 33.4284 96.5616 33.0806C96.3319 32.7323 96.1872 32.2785 96.1276 31.7194L96.1079 31.5351C96.0516 31.0067 96.1089 30.5531 96.2798 30.1745C96.4508 29.7959 96.6957 29.4994 97.0147 29.2852C97.3336 29.071 97.6836 28.9436 98.0645 28.903C98.4516 28.8618 98.7909 28.8971 99.0825 29.0089C99.3795 29.114 99.6268 29.2771 99.8244 29.4984C100.021 29.7136 100.166 29.9653 100.259 30.2537L99.4296 30.3421C99.3065 30.1191 99.1472 29.9372 98.952 29.7965C98.763 29.6551 98.4933 29.603 98.1431 29.6403C97.9035 29.6659 97.6854 29.7482 97.4889 29.8872C97.2918 30.02 97.1388 30.2166 97.0298 30.4767C96.9263 30.7301 96.8955 31.0534 96.9374 31.4467L96.9571 31.631C97.0016 32.0488 97.1021 32.3799 97.2587 32.6242C97.4214 32.8678 97.6134 33.0369 97.8347 33.1314C98.0561 33.2259 98.2866 33.2603 98.5262 33.2348C98.8273 33.2027 99.0713 33.1021 99.2584 32.933C99.4516 32.7633 99.5774 32.5448 99.6359 32.2776L100.465 32.1892C100.426 32.5165 100.323 32.8102 100.159 33.0701C99.9929 33.3239 99.7788 33.5301 99.516 33.6886C99.2526 33.8409 98.9489 33.9354 98.6048 33.9721ZM104.032 33.3004L103.511 28.4157L104.322 28.3292L104.54 30.3753L105.186 30.3065L106.792 28.066L107.751 27.9638L105.881 30.5307L108.364 32.8387L107.332 32.9488L105.26 31.007L104.615 31.0758L104.843 33.214L104.032 33.3004ZM109.293 32.8329C109.25 32.8375 109.203 32.8394 109.153 32.8385C109.11 32.8369 109.063 32.8357 109.013 32.8348L108.927 32.0237C108.946 32.0279 108.992 32.026 109.066 32.0182C109.25 31.9985 109.392 31.9026 109.492 31.7304C109.591 31.5521 109.643 31.2545 109.649 30.8375C109.659 30.4138 109.625 29.8272 109.545 29.0776L109.407 27.7872L112.91 27.414L113.43 32.2987L112.619 32.3852L112.175 28.2193L110.295 28.4197L110.376 29.1754C110.448 29.8575 110.478 30.4291 110.465 30.8903C110.452 31.3454 110.397 31.7116 110.303 31.9889C110.214 32.2656 110.084 32.469 109.911 32.5993C109.738 32.7295 109.532 32.8074 109.293 32.8329ZM115.756 34.0083C115.664 34.0181 115.571 34.0187 115.477 34.0101L115.398 33.2728C115.492 33.2814 115.585 33.2808 115.677 33.271C115.8 33.2579 115.898 33.2163 115.972 33.1464C116.052 33.0819 116.126 32.9591 116.194 32.7779C116.261 32.5967 116.338 32.3305 116.425 31.9795L113.831 27.3158L114.734 27.2195L116.742 31.0136L117.757 26.8973L118.624 26.8049L117.301 31.8862C117.178 32.3653 117.052 32.7547 116.922 33.0544C116.799 33.3534 116.645 33.5779 116.463 33.7279C116.286 33.8834 116.051 33.9769 115.756 34.0083ZM122.099 31.4679C121.669 31.5138 121.268 31.4478 120.894 31.2701C120.527 31.0856 120.217 30.7986 119.964 30.4092C119.717 30.0192 119.563 29.5323 119.501 28.9486L119.481 28.7642C119.402 28.0269 119.409 27.3893 119.501 26.8513C119.599 26.3126 119.813 25.8796 120.145 25.5522C120.476 25.2186 120.957 25.0027 121.586 24.9046C121.843 24.8648 122.079 24.8303 122.293 24.8013C122.507 24.7661 122.698 24.727 122.868 24.6841C123.036 24.635 123.185 24.5695 123.313 24.4875L123.396 25.2709C123.339 25.3143 123.241 25.3559 123.102 25.3955C122.969 25.4345 122.797 25.4746 122.584 25.516C122.37 25.5512 122.11 25.5913 121.804 25.6364C121.411 25.6844 121.087 25.7843 120.829 25.936C120.578 26.0871 120.393 26.3056 120.275 26.5917C120.156 26.8777 120.103 27.2532 120.115 27.7179C120.19 27.4862 120.305 27.2844 120.461 27.1125C120.616 26.9344 120.802 26.7902 121.02 26.68C121.239 26.5697 121.483 26.5002 121.753 26.4714C122.171 26.4268 122.546 26.48 122.879 26.631C123.219 26.7812 123.496 27.0189 123.71 27.344C123.931 27.6685 124.068 28.0703 124.119 28.5496L124.138 28.7339C124.192 29.2377 124.137 29.6879 123.975 30.0843C123.817 30.4739 123.575 30.7918 123.247 31.0381C122.924 31.2775 122.542 31.4208 122.099 31.4679ZM122.021 30.7306C122.451 30.6848 122.788 30.4997 123.034 30.1753C123.278 29.8447 123.37 29.3937 123.309 28.8223L123.289 28.638C123.239 28.1649 123.06 27.8017 122.754 27.5485C122.446 27.2892 122.078 27.1825 121.647 27.2283C121.217 27.2742 120.879 27.4562 120.634 27.7745C120.387 28.0866 120.289 28.4792 120.34 28.9523L120.359 29.1367C120.398 29.4992 120.496 29.8057 120.653 30.0561C120.816 30.2998 121.015 30.4805 121.252 30.5982C121.494 30.7153 121.75 30.7594 122.021 30.7306Z" fill="#C8CFEB"/>
<path d="M25.0522 84.638L24.7826 82.1083L25.6775 82.013C25.7965 81.6946 25.8803 81.3115 25.9292 80.8638C25.9851 80.4073 26.0134 79.9176 26.0139 79.3946C26.0216 78.8628 26.009 78.3291 25.976 77.7936C25.9422 77.2501 25.8986 76.7278 25.8452 76.2266L25.6672 74.5561L31.0964 73.9774L31.8824 81.3516L32.8967 81.2435L33.1663 83.7732L32.0924 83.8876L31.927 82.3364L25.9608 82.9723L26.1262 84.5236L25.0522 84.638ZM26.8708 81.8858L30.7608 81.4712L30.0791 75.0754L26.8692 75.4175L26.9684 76.3482C27.0973 77.5574 27.1531 78.6094 27.1359 79.5043C27.1266 80.3983 27.0382 81.1921 26.8708 81.8858ZM36.1336 82.0088C35.6722 82.0579 35.2696 82.0164 34.9256 81.8841C34.5887 81.743 34.3211 81.5342 34.1227 81.2577C33.9234 80.9732 33.8038 80.644 33.764 80.2701C33.697 79.6417 33.8316 79.1687 34.1679 78.8513C34.5121 78.533 35.0303 78.337 35.7223 78.2632L37.7747 78.0445L37.7289 77.6149C37.6713 77.074 37.5081 76.7133 37.2395 76.5327C36.9788 76.3513 36.6058 76.2865 36.1205 76.3382C35.6671 76.3865 35.3463 76.5092 35.1581 76.7063C34.9691 76.8954 34.8741 77.0986 34.8731 77.3159L33.8231 77.4278C33.8105 77.0832 33.8936 76.7686 34.0725 76.4841C34.2505 76.1916 34.51 75.9467 34.851 75.7494C35.192 75.5522 35.6012 75.4281 36.0785 75.3772C36.5796 75.3238 37.0216 75.3572 37.4045 75.4773C37.7866 75.5894 38.0948 75.8019 38.3293 76.1148C38.563 76.4198 38.7086 76.8427 38.7663 77.3837L39.0397 79.9492C39.0753 80.2833 39.1067 80.5776 39.1338 80.8322C39.168 81.0779 39.2138 81.3184 39.2711 81.5537L38.3523 81.6516C38.3089 81.4712 38.2748 81.3018 38.2498 81.1436C38.2241 80.9774 38.2002 80.7909 38.1781 80.584C38.0467 80.936 37.8063 81.2472 37.457 81.5177C37.1077 81.7883 36.6666 81.9519 36.1336 82.0088ZM36.2586 81.03C36.5927 80.9944 36.8886 80.9025 37.1464 80.7544C37.4121 80.6054 37.6122 80.407 37.7467 80.1594C37.8892 79.9109 37.9426 79.6196 37.907 79.2855L37.8612 78.8559L35.9878 79.0556C35.598 79.0971 35.3002 79.2093 35.0944 79.3922C34.8878 79.567 34.8023 79.8215 34.8379 80.1556C34.8693 80.45 34.9986 80.6816 35.2257 80.8505C35.4609 81.0185 35.8052 81.0783 36.2586 81.03ZM42.3933 81.2209L41.8185 75.8274L39.6587 76.0576L39.5595 75.1269L44.9291 74.5546L45.0283 75.4853L42.8685 75.7155L43.4434 81.109L42.3933 81.2209ZM48.3807 80.7034C47.9193 80.7526 47.5166 80.711 47.1726 80.5787C46.8358 80.4376 46.5681 80.2288 46.3697 79.9523C46.1704 79.6678 46.0509 79.3386 46.011 78.9648C45.9441 78.3363 46.0787 77.8634 46.4149 77.546C46.7591 77.2277 47.2773 77.0317 47.9694 76.9579L50.0217 76.7391L49.976 76.3096C49.9183 75.7686 49.7552 75.4079 49.4865 75.2274C49.2258 75.046 48.8528 74.9811 48.3676 75.0329C47.9142 75.0812 47.5934 75.2039 47.4052 75.4009C47.2162 75.59 47.1212 75.7932 47.1202 76.0106L46.0701 76.1225C46.0575 75.7779 46.1407 75.4633 46.3195 75.1787C46.4975 74.8862 46.757 74.6413 47.098 74.4441C47.4391 74.2468 47.8482 74.1228 48.3255 74.0719C48.8267 74.0185 49.2687 74.0518 49.6516 74.1719C50.0336 74.2841 50.3419 74.4966 50.5764 74.8095C50.81 75.1145 50.9556 75.5374 51.0133 76.0783L51.2867 78.6438C51.3223 78.9779 51.3537 79.2722 51.3808 79.5268C51.4151 79.7726 51.4608 80.0131 51.5181 80.2483L50.5993 80.3463C50.5559 80.1658 50.5218 79.9965 50.4969 79.8382C50.4711 79.672 50.4472 79.4855 50.4252 79.2787C50.2937 79.6306 50.0534 79.9418 49.7041 80.2124C49.3548 80.4829 48.9136 80.6466 48.3807 80.7034ZM48.5056 79.7246C48.8397 79.689 49.1357 79.5972 49.3934 79.449C49.6591 79.3 49.8592 79.1017 49.9937 78.854C50.1362 78.6055 50.1896 78.3142 50.154 77.9801L50.1082 77.5505L48.2348 77.7502C47.845 77.7918 47.5473 77.904 47.3415 78.0868C47.1348 78.2617 47.0493 78.5162 47.085 78.8503C47.1163 79.1446 47.2456 79.3762 47.4728 79.5451C47.7079 79.7131 48.0522 79.773 48.5056 79.7246ZM58.4567 79.6294C57.9317 79.6854 57.4702 79.6582 57.0723 79.5477C56.6743 79.4373 56.3527 79.2503 56.1074 78.9868C55.8621 78.7233 55.7023 78.3944 55.6281 78.0001L56.6782 77.8881C56.74 78.0907 56.8461 78.2564 56.9966 78.3852C57.1471 78.514 57.3376 78.6023 57.5679 78.6501C57.7983 78.698 58.0607 78.7062 58.355 78.6749C58.9039 78.6163 59.2919 78.4825 59.519 78.2732C59.7532 78.0552 59.8563 77.8149 59.8283 77.5524C59.7953 77.2421 59.666 77.0105 59.4405 76.8576C59.2142 76.6967 58.8464 76.6433 58.3373 76.6976L57.2515 76.8133L57.1599 75.9542L58.1742 75.8461C58.6117 75.7995 58.913 75.6829 59.0782 75.4963C59.2513 75.3089 59.3217 75.0641 59.2895 74.7618C59.2641 74.5231 59.1307 74.3282 58.8893 74.1769C58.6479 74.0256 58.3045 73.9737 57.859 74.0212C57.3737 74.0729 57.0282 74.1902 56.8224 74.3731C56.6238 74.5471 56.5158 74.7798 56.4986 75.0713L55.4486 75.1832C55.4422 74.8219 55.5276 74.4909 55.7048 74.1905C55.8819 73.89 56.145 73.6407 56.494 73.4426C56.8429 73.2445 57.264 73.1192 57.7572 73.0666C58.5686 72.9801 59.1875 73.0872 59.6137 73.3877C60.04 73.6882 60.2819 74.1089 60.3396 74.6498C60.3718 74.9521 60.3246 75.2267 60.1981 75.4735C60.0707 75.7123 59.8467 75.9132 59.5262 76.0761C59.9844 76.1479 60.3149 76.3058 60.5179 76.5496C60.7209 76.7935 60.8411 77.0904 60.8784 77.4405C60.9148 77.7825 60.8493 78.1113 60.6818 78.4268C60.5135 78.7344 60.2437 78.9965 59.8726 79.213C59.5094 79.4287 59.0374 79.5676 58.4567 79.6294ZM64.3799 78.9981C63.9185 79.0473 63.5158 79.0057 63.1719 78.8735C62.835 78.7324 62.5674 78.5236 62.3689 78.247C62.1697 77.9625 62.0501 77.6334 62.0103 77.2595C61.9433 76.631 62.0779 76.1581 62.4142 75.8407C62.7584 75.5224 63.2765 75.3264 63.9686 75.2526L66.021 75.0339L65.9752 74.6043C65.9175 74.0634 65.7544 73.7026 65.4857 73.5221C65.225 73.3407 64.8521 73.2759 64.3668 73.3276C63.9134 73.3759 63.5926 73.4986 63.4044 73.6956C63.2154 73.8847 63.1204 74.088 63.1194 74.3053L62.0694 74.4172C62.0568 74.0726 62.1399 73.758 62.3187 73.4735C62.4967 73.1809 62.7562 72.9361 63.0973 72.7388C63.4383 72.5416 63.8474 72.4175 64.3247 72.3666C64.8259 72.3132 65.2679 72.3465 65.6508 72.4666C66.0328 72.5788 66.3411 72.7913 66.5756 73.1042C66.8092 73.4092 66.9549 73.8321 67.0125 74.3731L67.286 76.9385C67.3216 77.2726 67.3529 77.567 67.3801 77.8215C67.4143 78.0673 67.4601 78.3078 67.5173 78.543L66.5985 78.641C66.5552 78.4606 66.521 78.2912 66.4961 78.133C66.4703 77.9668 66.4464 77.7802 66.4244 77.5734C66.2929 77.9253 66.0526 78.2366 65.7033 78.5071C65.354 78.7776 64.9129 78.9413 64.3799 78.9981ZM64.5048 78.0194C64.839 77.9838 65.1349 77.8919 65.3926 77.7437C65.6583 77.5947 65.8584 77.3964 65.993 77.1488C66.1354 76.9003 66.1888 76.6089 66.1532 76.2748L66.1074 75.8453L64.2341 76.0449C63.8443 76.0865 63.5465 76.1987 63.3407 76.3815C63.1341 76.5564 63.0486 76.8109 63.0842 77.145C63.1155 77.4393 63.2448 77.671 63.472 77.8398C63.7071 78.0079 64.0514 78.0677 64.5048 78.0194ZM69.3123 78.3517L68.6382 72.0275L69.6883 71.9156L69.9694 74.5527L73.2388 74.2042L72.9578 71.5671L74.0078 71.4552L74.6819 77.7794L73.6318 77.8913L73.338 75.1349L70.0686 75.4834L70.3624 78.2398L69.3123 78.3517ZM76.118 77.6263L77.5692 74.9374C77.0314 74.874 76.6307 74.6995 76.3669 74.4139C76.1023 74.1203 75.9437 73.7269 75.8911 73.2336C75.847 72.82 75.8933 72.4611 76.0298 72.1569C76.1655 71.8447 76.4003 71.5945 76.7342 71.406C77.0672 71.2096 77.5122 71.0817 78.069 71.0224L80.8135 70.7298L81.4876 77.054L80.4375 77.1659L80.1806 74.7556L78.5697 74.9273L77.2873 77.5017L76.118 77.6263ZM76.9412 73.1217C76.9768 73.4558 77.0994 73.7002 77.309 73.8549C77.5265 74.0087 77.8659 74.061 78.3273 74.0118L80.0814 73.8249L79.8626 71.7725L78.1086 71.9595C77.6472 72.0086 77.3264 72.1313 77.1462 72.3275C76.9739 72.5229 76.9056 72.7876 76.9412 73.1217ZM84.8443 76.6963L84.2694 71.3028L82.1097 71.533L82.0105 70.6023L87.3801 70.03L87.4793 70.9607L85.3195 71.1909L85.8943 76.5843L84.8443 76.6963ZM89.2502 76.2267L88.5761 69.9025L89.6261 69.7906L90.1349 74.5635L92.8956 69.4421L93.9457 69.3302L94.6197 75.6543L93.5697 75.7663L93.061 70.9933L90.3002 76.1147L89.2502 76.2267ZM96.0558 75.5013L97.507 72.8123C96.9693 72.749 96.5685 72.5744 96.3048 72.2888C96.0401 71.9952 95.8816 71.6018 95.829 71.1086C95.7849 70.6949 95.8311 70.336 95.9676 70.0318C96.1033 69.7197 96.3381 69.4694 96.672 69.2809C97.0051 69.0845 97.45 68.9566 98.0069 68.8973L100.751 68.6048L101.425 74.929L100.375 75.0409L100.118 72.6305L98.5076 72.8022L97.2252 75.3766L96.0558 75.5013ZM96.879 70.9967C96.9146 71.3308 97.0372 71.5751 97.2468 71.7298C97.4643 71.8836 97.8038 71.9359 98.2652 71.8868L100.019 71.6998L99.8005 69.6474L98.0464 69.8344C97.585 69.8836 97.2642 70.0062 97.084 70.2025C96.9118 70.3978 96.8434 70.6625 96.879 70.9967ZM108.827 74.14L108.729 73.2212L111.761 69.9656C112.073 69.6427 112.309 69.3642 112.469 69.1299C112.628 68.8876 112.729 68.6637 112.771 68.458C112.822 68.2515 112.835 68.0329 112.81 67.8022C112.76 67.3329 112.58 66.9619 112.269 66.6893C111.957 66.4087 111.559 66.2943 111.074 66.346C110.493 66.4079 110.065 66.6145 109.788 66.9658C109.511 67.3091 109.403 67.7671 109.464 68.3399L108.342 68.4594C108.284 67.9105 108.352 67.4126 108.545 66.9655C108.747 66.5176 109.054 66.151 109.466 65.8657C109.886 65.5796 110.386 65.4056 110.967 65.3437C111.532 65.2835 112.025 65.3476 112.448 65.5359C112.877 65.7154 113.216 65.993 113.466 66.3687C113.722 66.7356 113.877 67.1736 113.932 67.6827C113.972 68.0645 113.934 68.4226 113.817 68.7569C113.699 69.0832 113.519 69.4 113.279 69.7073C113.046 70.0137 112.77 70.3367 112.453 70.6763L110.179 73.0064L114.57 72.5384L114.674 73.5168L108.827 74.14ZM121.775 72.76L116.286 73.345L116.182 72.3666L118.532 72.116L117.877 65.9708L115.835 67.7573L115.705 66.5402L117.77 64.7393L118.892 64.6197L119.678 71.9939L121.671 71.7816L121.775 72.76ZM129.799 74.3184L129.557 72.0512C128.459 72.1682 127.594 71.9788 126.962 71.483C126.338 70.9864 125.971 70.225 125.862 69.1988L125.836 68.9601C125.732 67.9817 125.933 67.1879 126.439 66.5788C126.954 65.9689 127.76 65.6054 128.857 65.4884L128.654 63.5792L129.704 63.4673L129.908 65.3765C131.005 65.2595 131.866 65.4453 132.489 65.934C133.12 66.4219 133.488 67.155 133.592 68.1335L133.618 68.3721C133.727 69.3983 133.525 70.2203 133.012 70.8382C132.506 71.4553 131.705 71.8223 130.607 71.9393L130.849 74.2065L129.799 74.3184ZM132.544 68.4866L132.519 68.2479C132.441 67.524 132.197 67.003 131.785 66.6849C131.381 66.3659 130.785 66.2484 129.997 66.3324L130.493 70.986C131.281 70.9021 131.838 70.6576 132.165 70.2527C132.5 69.8469 132.626 69.2582 132.544 68.4866ZM126.91 68.8457L126.936 69.0843C127.018 69.856 127.262 70.4052 127.667 70.7322C128.079 71.0582 128.68 71.1793 129.467 71.0954L128.971 66.4417C128.184 66.5257 127.622 66.7666 127.286 67.1644C126.958 67.5613 126.833 68.1218 126.91 68.8457ZM138.079 71.1429C137.547 71.1997 137.033 71.1377 136.539 70.9571C136.053 70.7756 135.642 70.4614 135.304 70.0146C134.975 69.567 134.771 68.9773 134.693 68.2454L134.668 68.0068C134.593 67.3067 134.667 66.7156 134.889 66.2333C135.11 65.7431 135.432 65.3629 135.854 65.0927C136.275 64.8145 136.744 64.6479 137.261 64.5928C138.191 64.4936 138.938 64.6714 139.502 65.1262C140.065 65.5811 140.397 66.2739 140.496 67.2046L140.567 67.8728L135.77 68.3841C135.823 68.8773 135.964 69.2605 136.194 69.5336C136.433 69.8059 136.71 69.9935 137.027 70.0966C137.35 70.1908 137.668 70.2213 137.978 70.1883C138.455 70.1374 138.812 70.0188 139.05 69.8326C139.296 69.6455 139.459 69.4068 139.541 69.1166L140.567 69.0072C140.504 69.6253 140.239 70.1202 139.772 70.4918C139.312 70.8546 138.748 71.0716 138.079 71.1429ZM137.422 65.541C137.096 65.5757 136.792 65.6725 136.512 65.8311C136.23 65.9818 136.008 66.1986 135.845 66.4814C135.69 66.7635 135.634 67.1113 135.679 67.5249L139.485 67.1192C139.43 66.6826 139.302 66.3463 139.1 66.1104C138.905 65.8657 138.662 65.7025 138.372 65.6208C138.081 65.5311 137.764 65.5045 137.422 65.541ZM142.363 70.5656L141.689 64.2414L144.434 63.9489C144.959 63.8929 145.396 63.9227 145.747 64.0382C146.096 64.1458 146.364 64.3224 146.551 64.5679C146.738 64.8055 146.849 65.0954 146.885 65.4374C146.915 65.7159 146.852 65.9921 146.696 66.2662C146.547 66.5314 146.339 66.7266 146.071 66.8518C146.471 66.9057 146.784 67.0573 147.012 67.3065C147.247 67.547 147.383 67.8462 147.422 68.2042C147.48 68.7531 147.344 69.2101 147.013 69.5753C146.681 69.9404 146.126 70.1645 145.346 70.2476L142.363 70.5656ZM143.314 69.5229L145.247 69.3169C145.693 69.2694 145.998 69.1564 146.165 68.9778C146.331 68.7992 146.398 68.5627 146.366 68.2684C146.334 67.9661 146.218 67.7452 146.018 67.6056C145.817 67.458 145.494 67.408 145.049 67.4554L143.116 67.6615L143.314 69.5229ZM143.024 66.8023L144.719 66.6217C145.172 66.5734 145.478 66.4604 145.636 66.2826C145.802 66.104 145.87 65.8755 145.84 65.5971C145.812 65.3346 145.699 65.1375 145.5 65.0059C145.309 64.8734 144.986 64.8313 144.533 64.8796L142.839 65.0602L143.024 66.8023ZM149.365 72.2329L148.436 63.5223L149.415 63.418L149.542 64.6112C149.712 64.1667 149.976 63.8128 150.334 63.5493C150.699 63.2771 151.136 63.1138 151.645 63.0596C152.441 62.9748 153.105 63.1695 153.638 63.6436C154.171 64.1098 154.492 64.856 154.601 65.8822L154.627 66.1208C154.703 66.8368 154.655 67.4453 154.483 67.9463C154.319 68.4465 154.051 68.8371 153.679 69.1182C153.315 69.3984 152.87 69.5664 152.345 69.6224C151.804 69.6801 151.338 69.6091 150.946 69.4094C150.563 69.2089 150.261 68.9394 150.04 68.601L150.415 72.121L149.365 72.2329ZM152.007 68.7171C152.524 68.662 152.933 68.4213 153.233 67.9951C153.542 67.568 153.656 66.9805 153.576 66.2328L153.551 65.9941C153.477 65.302 153.245 64.7877 152.856 64.4511C152.473 64.1058 152.023 63.9606 151.506 64.0157C151.124 64.0564 150.794 64.172 150.517 64.3625C150.248 64.5521 150.044 64.795 149.907 65.0913C149.777 65.3787 149.73 65.6934 149.766 66.0355L149.868 66.9901C149.909 67.3719 150.024 67.7015 150.215 67.9789C150.412 68.2475 150.663 68.45 150.967 68.5866C151.279 68.7143 151.625 68.7578 152.007 68.7171ZM158.266 68.9913C157.805 69.0405 157.402 68.9989 157.058 68.8666C156.721 68.7255 156.454 68.5167 156.255 68.2402C156.056 67.9557 155.936 67.6265 155.896 67.2526C155.829 66.6242 155.964 66.1513 156.3 65.8338C156.645 65.5156 157.163 65.3195 157.855 65.2458L159.907 65.027L159.861 64.5975C159.804 64.0565 159.641 63.6958 159.372 63.5152C159.111 63.3338 158.738 63.269 158.253 63.3207C157.8 63.3691 157.479 63.4917 157.291 63.6888C157.102 63.8779 157.007 64.0811 157.006 64.2984L155.956 64.4104C155.943 64.0658 156.026 63.7512 156.205 63.4666C156.383 63.1741 156.642 62.9292 156.983 62.732C157.324 62.5347 157.734 62.4106 158.211 62.3598C158.712 62.3064 159.154 62.3397 159.537 62.4598C159.919 62.5719 160.227 62.7845 160.462 63.0974C160.695 63.4023 160.841 63.8253 160.899 64.3662L161.172 66.9317C161.208 67.2658 161.239 67.5601 161.266 67.8147C161.3 68.0604 161.346 68.3009 161.403 68.5362L160.485 68.6341C160.441 68.4537 160.407 68.2844 160.382 68.1261C160.357 67.9599 160.333 67.7734 160.311 67.5666C160.179 67.9185 159.939 68.2297 159.589 68.5003C159.24 68.7708 158.799 68.9345 158.266 68.9913ZM158.391 68.0125C158.725 67.9769 159.021 67.885 159.279 67.7369C159.545 67.5879 159.745 67.3896 159.879 67.1419C160.022 66.8934 160.075 66.6021 160.039 66.268L159.994 65.8384L158.12 66.0381C157.73 66.0796 157.433 66.1918 157.227 66.3747C157.02 66.5496 156.935 66.8041 156.97 67.1382C157.002 67.4325 157.131 67.6641 157.358 67.833C157.593 68.001 157.938 68.0608 158.391 68.0125ZM162.913 68.496C162.857 68.5019 162.797 68.5043 162.733 68.5031C162.676 68.5011 162.616 68.4995 162.551 68.4984L162.439 67.4483C162.464 67.4537 162.524 67.4513 162.619 67.4412C162.858 67.4157 163.042 67.2915 163.171 67.0686C163.299 66.8377 163.367 66.4524 163.374 65.9126C163.388 65.364 163.343 64.6045 163.239 63.634L163.061 61.9635L167.596 61.4802L168.27 67.8044L167.22 67.9163L166.645 62.5228L164.211 62.7823L164.315 63.7607C164.409 64.6437 164.448 65.3838 164.431 65.9809C164.413 66.5701 164.343 67.0442 164.22 67.4033C164.106 67.7614 163.937 68.0248 163.713 68.1935C163.49 68.3621 163.223 68.4629 162.913 68.496ZM169.701 67.6518L171.152 64.9628C170.615 64.8995 170.214 64.725 169.95 64.4393C169.686 64.1457 169.527 63.7523 169.474 63.2591C169.43 62.8454 169.476 62.4865 169.613 62.1823C169.749 61.8702 169.983 61.6199 170.317 61.4314C170.65 61.235 171.095 61.1072 171.652 61.0478L174.397 60.7553L175.071 67.0795L174.021 67.1914L173.764 64.781L172.153 64.9527L170.871 67.5271L169.701 67.6518ZM170.524 63.1472C170.56 63.4813 170.683 63.7257 170.892 63.8803C171.11 64.0341 171.449 64.0864 171.911 64.0373L173.665 63.8503L173.446 61.7979L171.692 61.9849C171.23 62.0341 170.91 62.1568 170.729 62.353C170.557 62.5483 170.489 62.8131 170.524 63.1472ZM179.967 66.5576L179.293 60.2334L182.037 59.9409C182.562 59.885 183 59.9148 183.35 60.0303C183.699 60.1379 183.968 60.3144 184.155 60.56C184.341 60.7976 184.452 61.0874 184.489 61.4295C184.518 61.7079 184.455 61.9842 184.3 62.2582C184.151 62.5235 183.942 62.7187 183.674 62.8438C184.074 62.8977 184.388 63.0493 184.616 63.2986C184.85 63.539 184.987 63.8383 185.025 64.1962C185.084 64.7451 184.947 65.2021 184.616 65.5673C184.285 65.9325 183.729 66.1566 182.95 66.2397L179.967 66.5576ZM180.918 65.515L182.851 65.3089C183.296 65.2615 183.602 65.1484 183.768 64.9698C183.934 64.7912 184.001 64.5548 183.97 64.2604C183.938 63.9581 183.822 63.7372 183.622 63.5976C183.421 63.45 183.098 63.4 182.652 63.4475L180.719 63.6535L180.918 65.515ZM180.628 62.7944L182.322 62.6138C182.776 62.5655 183.081 62.4524 183.239 62.2747C183.405 62.0961 183.473 61.8676 183.444 61.5891C183.416 61.3266 183.302 61.1295 183.103 60.9979C182.912 60.8654 182.59 60.8233 182.136 60.8717L180.442 61.0523L180.628 62.7944ZM195.245 64.9292L189.756 65.5142L189.652 64.5357L192.003 64.2852L191.348 58.14L189.306 59.9265L189.176 58.7094L191.241 56.9084L192.362 56.7889L193.148 64.1631L195.141 63.9507L195.245 64.9292ZM199.913 64.5523C198.99 64.6507 198.218 64.4233 197.596 63.8701C196.981 63.3081 196.603 62.3708 196.463 61.0583L196.438 60.8196C196.321 59.7218 196.37 58.8276 196.586 58.1368C196.802 57.438 197.132 56.9161 197.578 56.5709C198.023 56.2177 198.536 56.0102 199.117 55.9483C199.546 55.9025 199.939 55.929 200.296 56.0278C200.652 56.1265 200.961 56.3028 201.221 56.5567C201.481 56.8025 201.68 57.1272 201.82 57.5307L200.698 57.6503C200.557 57.3837 200.364 57.1911 200.118 57.0725C199.872 56.9539 199.574 56.9133 199.224 56.9506C198.826 56.993 198.478 57.1266 198.18 57.3514C197.89 57.5754 197.674 57.9243 197.531 58.3981C197.396 58.8631 197.359 59.4946 197.42 60.2926C197.609 59.8782 197.89 59.5707 198.263 59.3701C198.635 59.1615 199.008 59.0372 199.381 58.9974C199.938 58.938 200.431 58.9941 200.86 59.1657C201.295 59.3284 201.646 59.5968 201.911 59.9708C202.184 60.344 202.351 60.8209 202.413 61.4016L202.426 61.5209C202.482 62.046 202.405 62.5289 202.194 62.9696C201.984 63.4104 201.68 63.7726 201.284 64.0562C200.887 64.3318 200.43 64.4972 199.913 64.5523ZM199.711 63.5602C200.292 63.4983 200.717 63.3041 200.988 62.9775C201.259 62.651 201.365 62.2093 201.306 61.6524L201.293 61.5331C201.234 60.9842 201.038 60.5787 200.705 60.3166C200.371 60.0545 199.914 59.9544 199.333 60.0162C198.752 60.0781 198.327 60.2724 198.056 60.5989C197.785 60.9255 197.679 61.3632 197.737 61.9121L197.75 62.0314C197.808 62.5803 198.005 62.9898 198.339 63.2598C198.673 63.522 199.13 63.6221 199.711 63.5602ZM205.169 63.9921C205.018 64.0082 204.874 63.9833 204.739 63.9173C204.604 63.8593 204.49 63.7709 204.397 63.6521C204.311 63.5324 204.261 63.397 204.245 63.2459C204.219 63.0072 204.278 62.7999 204.42 62.6238C204.57 62.4469 204.76 62.3462 204.991 62.3216C205.222 62.297 205.425 62.3558 205.601 62.4979C205.785 62.6392 205.89 62.8292 205.915 63.0678C205.931 63.219 205.906 63.3624 205.84 63.4982C205.782 63.6331 205.694 63.7431 205.574 63.8283C205.463 63.9206 205.328 63.9752 205.169 63.9921ZM204.648 59.0998C204.496 59.116 204.353 59.095 204.218 59.037C204.083 58.971 203.968 58.8786 203.875 58.7598C203.79 58.6401 203.739 58.5047 203.723 58.3536C203.698 58.115 203.756 57.9076 203.898 57.7315C204.048 57.5546 204.239 57.4539 204.47 57.4293C204.7 57.4047 204.904 57.4635 205.08 57.6056C205.264 57.7469 205.368 57.9369 205.394 58.1755C205.41 58.3267 205.385 58.4701 205.319 58.6059C205.261 58.7408 205.173 58.8548 205.054 58.9479C204.942 59.0322 204.807 59.0829 204.648 59.0998ZM210.357 63.4391C209.753 63.5036 209.225 63.4553 208.773 63.2942C208.329 63.1244 207.972 62.8728 207.703 62.5394C207.441 62.1972 207.287 61.8034 207.239 61.3579L208.361 61.2383C208.404 61.644 208.579 61.9633 208.885 62.1962C209.191 62.421 209.646 62.5013 210.25 62.4368C210.855 62.3724 211.283 62.1941 211.533 61.9019C211.783 61.6017 211.884 61.2369 211.839 60.8073C211.791 60.3618 211.61 60.0191 211.295 59.7792C210.987 59.5304 210.534 59.4379 209.938 59.5014L209.043 59.5968L208.941 58.6422L209.836 58.5468C210.409 58.4858 210.81 58.3224 211.039 58.0566C211.267 57.7829 211.358 57.4312 211.312 57.0017C211.268 56.588 211.111 56.279 210.839 56.0746C210.567 55.8622 210.137 55.7874 209.548 55.8501C208.984 55.9103 208.583 56.0777 208.347 56.3523C208.118 56.6181 208.022 56.93 208.06 57.2879L206.939 57.4075C206.894 56.9859 206.961 56.5926 207.139 56.2276C207.317 55.8627 207.599 55.5591 207.983 55.317C208.375 55.0661 208.861 54.9097 209.442 54.8478C210.03 54.7851 210.538 54.8355 210.966 54.9991C211.401 55.1539 211.74 55.3873 211.982 55.6993C212.233 56.0106 212.379 56.365 212.421 56.7628C212.472 57.2401 212.388 57.6593 212.169 58.0206C211.957 58.373 211.632 58.641 211.193 58.8246C211.686 58.9249 212.09 59.1312 212.405 59.4436C212.72 59.756 212.909 60.2105 212.973 60.8071C213.018 61.2287 212.948 61.6304 212.764 62.0121C212.578 62.3858 212.282 62.703 211.875 62.9636C211.476 63.2153 210.97 63.3739 210.357 63.4391ZM217.636 62.6634C217.23 62.7066 216.841 62.6797 216.468 62.5826C216.095 62.4776 215.752 62.2768 215.439 61.9804C215.126 61.6839 214.86 61.2697 214.643 60.7377C214.432 60.197 214.283 59.513 214.195 58.6857L214.169 58.447C214.087 57.6754 214.094 57.023 214.19 56.4898C214.293 55.9478 214.467 55.5069 214.713 55.1669C214.958 54.827 215.252 54.5704 215.596 54.397C215.94 54.2236 216.314 54.1153 216.72 54.072C217.126 54.0288 217.515 54.0557 217.887 54.1528C218.259 54.2499 218.601 54.4387 218.913 54.7193C219.224 54.9998 219.484 55.3946 219.691 55.9035C219.905 56.4036 220.053 57.0395 220.135 57.8111L220.161 58.0498C220.249 58.8771 220.243 59.5776 220.143 60.1514C220.051 60.7164 219.883 61.1769 219.639 61.5327C219.395 61.8885 219.102 62.1571 218.759 62.3384C218.416 62.5118 218.041 62.6201 217.636 62.6634ZM217.531 61.6849C217.786 61.6578 218.02 61.5886 218.233 61.4774C218.446 61.3582 218.623 61.1703 218.765 60.9139C218.913 60.6486 219.012 60.2961 219.062 59.8564C219.119 59.4078 219.111 58.8455 219.039 58.1693L219.014 57.9307C218.926 57.1033 218.77 56.4763 218.548 56.0495C218.333 55.6218 218.074 55.3397 217.77 55.2032C217.473 55.0658 217.158 55.0149 216.824 55.0505C216.49 55.0861 216.189 55.2027 215.92 55.4003C215.66 55.597 215.465 55.9274 215.338 56.3916C215.218 56.8549 215.203 57.5002 215.291 58.3275L215.316 58.5661C215.388 59.2423 215.495 59.794 215.638 60.2214C215.787 60.6399 215.958 60.9636 216.151 61.1924C216.352 61.4124 216.568 61.5583 216.801 61.63C217.041 61.6929 217.285 61.7112 217.531 61.6849Z" fill="#474766" fill-opacity="0.74"/>
</svg>
