<svg width="190" height="142" viewBox="0 0 190 142" fill="none" xmlns="http://www.w3.org/2000/svg">
<rect x="0.895666" y="0.490392" width="188.006" height="91.318" rx="4.19507" fill="white" stroke="#E8EFFF" stroke-width="0.681957"/>
<path d="M15.4908 20.2478C15.1236 20.2478 14.7821 20.1866 14.4664 20.0642C14.1508 19.9418 13.8737 19.7453 13.6354 19.4747C13.397 19.2041 13.2102 18.8466 13.0749 18.4021C12.946 17.9511 12.8816 17.4003 12.8816 16.7496V16.5563C12.8816 15.9507 12.946 15.4386 13.0749 15.0198C13.2102 14.6011 13.397 14.2628 13.6354 14.0052C13.8737 13.741 14.1508 13.551 14.4664 13.435C14.7821 13.3126 15.1236 13.2514 15.4908 13.2514C15.858 13.2514 16.1994 13.3126 16.5151 13.435C16.8308 13.551 17.1078 13.741 17.3462 14.0052C17.5845 14.2628 17.7681 14.6011 17.897 15.0198C18.0323 15.4386 18.0999 15.9507 18.0999 16.5563V16.7496C18.0999 17.4003 18.0323 17.9511 17.897 18.4021C17.7681 18.8466 17.5845 19.2041 17.3462 19.4747C17.1078 19.7453 16.8308 19.9418 16.5151 20.0642C16.1994 20.1866 15.858 20.2478 15.4908 20.2478ZM15.4908 19.0302C15.6583 19.0302 15.8097 18.998 15.945 18.9336C16.0867 18.8627 16.2091 18.7435 16.3122 18.576C16.4217 18.4085 16.5054 18.1766 16.5634 17.8802C16.6214 17.5839 16.6504 17.207 16.6504 16.7496V16.5563C16.6504 16.0087 16.5989 15.5835 16.4958 15.2807C16.3927 14.978 16.2542 14.7686 16.0802 14.6526C15.9063 14.5302 15.7098 14.469 15.4908 14.469C15.2653 14.469 15.0656 14.5302 14.8916 14.6526C14.7241 14.7686 14.5888 14.978 14.4858 15.2807C14.3827 15.5835 14.3311 16.0087 14.3311 16.5563V16.7496C14.3311 17.207 14.3601 17.5839 14.4181 17.8802C14.4761 18.1766 14.5566 18.4085 14.6597 18.576C14.7692 18.7435 14.8949 18.8627 15.0366 18.9336C15.1783 18.998 15.3297 19.0302 15.4908 19.0302ZM21.8075 20.1318H20.2807L22.6869 14.5753H19.237V13.3674H24.1655V14.4304L21.8075 20.1318ZM26.2399 20.2478C26.0918 20.2478 25.9533 20.2091 25.8244 20.1318C25.702 20.061 25.6021 19.9611 25.5248 19.8323C25.454 19.7034 25.4185 19.5681 25.4185 19.4264C25.4185 19.188 25.4991 18.9915 25.6601 18.8369C25.8212 18.6823 26.0145 18.605 26.2399 18.605C26.4654 18.605 26.6587 18.6823 26.8198 18.8369C26.9808 18.9915 27.0613 19.188 27.0613 19.4264C27.0613 19.5681 27.0227 19.7034 26.9454 19.8323C26.8745 19.9611 26.7779 20.061 26.6555 20.1318C26.5331 20.2091 26.3946 20.2478 26.2399 20.2478ZM26.2399 16.537C26.0918 16.537 25.9533 16.5016 25.8244 16.4307C25.702 16.3534 25.6021 16.2503 25.5248 16.1215C25.454 15.9926 25.4185 15.8573 25.4185 15.7156C25.4185 15.4772 25.4991 15.2807 25.6601 15.1261C25.8212 14.9715 26.0145 14.8942 26.2399 14.8942C26.4654 14.8942 26.6587 14.9715 26.8198 15.1261C26.9808 15.2807 27.0613 15.4772 27.0613 15.7156C27.0613 15.8573 27.0227 15.9926 26.9454 16.1215C26.8745 16.2503 26.7779 16.3534 26.6555 16.4307C26.5331 16.5016 26.3946 16.537 26.2399 16.537ZM30.826 20.2478C30.4588 20.2478 30.1173 20.1866 29.8016 20.0642C29.486 19.9418 29.2089 19.7453 28.9706 19.4747C28.7322 19.2041 28.5454 18.8466 28.4101 18.4021C28.2812 17.9511 28.2168 17.4003 28.2168 16.7496V16.5563C28.2168 15.9507 28.2812 15.4386 28.4101 15.0198C28.5454 14.6011 28.7322 14.2628 28.9706 14.0052C29.2089 13.741 29.486 13.551 29.8016 13.435C30.1173 13.3126 30.4588 13.2514 30.826 13.2514C31.1932 13.2514 31.5346 13.3126 31.8503 13.435C32.166 13.551 32.443 13.741 32.6814 14.0052C32.9197 14.2628 33.1033 14.6011 33.2322 15.0198C33.3675 15.4386 33.4351 15.9507 33.4351 16.5563V16.7496C33.4351 17.4003 33.3675 17.9511 33.2322 18.4021C33.1033 18.8466 32.9197 19.2041 32.6814 19.4747C32.443 19.7453 32.166 19.9418 31.8503 20.0642C31.5346 20.1866 31.1932 20.2478 30.826 20.2478ZM30.826 19.0302C30.9935 19.0302 31.1449 18.998 31.2802 18.9336C31.4219 18.8627 31.5443 18.7435 31.6474 18.576C31.7569 18.4085 31.8406 18.1766 31.8986 17.8802C31.9566 17.5839 31.9856 17.207 31.9856 16.7496V16.5563C31.9856 16.0087 31.9341 15.5835 31.831 15.2807C31.7279 14.978 31.5894 14.7686 31.4154 14.6526C31.2415 14.5302 31.045 14.469 30.826 14.469C30.6005 14.469 30.4008 14.5302 30.2268 14.6526C30.0593 14.7686 29.924 14.978 29.821 15.2807C29.7179 15.5835 29.6663 16.0087 29.6663 16.5563V16.7496C29.6663 17.207 29.6953 17.5839 29.7533 17.8802C29.8113 18.1766 29.8918 18.4085 29.9949 18.576C30.1044 18.7435 30.23 18.8627 30.3718 18.9336C30.5135 18.998 30.6649 19.0302 30.826 19.0302ZM36.9978 20.2478C36.6306 20.2478 36.2891 20.1866 35.9735 20.0642C35.6578 19.9418 35.3808 19.7453 35.1424 19.4747C34.904 19.2041 34.7172 18.8466 34.5819 18.4021C34.4531 17.9511 34.3886 17.4003 34.3886 16.7496V16.5563C34.3886 15.9507 34.4531 15.4386 34.5819 15.0198C34.7172 14.6011 34.904 14.2628 35.1424 14.0052C35.3808 13.741 35.6578 13.551 35.9735 13.435C36.2891 13.3126 36.6306 13.2514 36.9978 13.2514C37.365 13.2514 37.7065 13.3126 38.0221 13.435C38.3378 13.551 38.6148 13.741 38.8532 14.0052C39.0916 14.2628 39.2752 14.6011 39.404 15.0198C39.5393 15.4386 39.6069 15.9507 39.6069 16.5563V16.7496C39.6069 17.4003 39.5393 17.9511 39.404 18.4021C39.2752 18.8466 39.0916 19.2041 38.8532 19.4747C38.6148 19.7453 38.3378 19.9418 38.0221 20.0642C37.7065 20.1866 37.365 20.2478 36.9978 20.2478ZM36.9978 19.0302C37.1653 19.0302 37.3167 18.998 37.452 18.9336C37.5937 18.8627 37.7161 18.7435 37.8192 18.576C37.9287 18.4085 38.0125 18.1766 38.0704 17.8802C38.1284 17.5839 38.1574 17.207 38.1574 16.7496V16.5563C38.1574 16.0087 38.1059 15.5835 38.0028 15.2807C37.8997 14.978 37.7612 14.7686 37.5873 14.6526C37.4133 14.5302 37.2168 14.469 36.9978 14.469C36.7723 14.469 36.5726 14.5302 36.3987 14.6526C36.2312 14.7686 36.0959 14.978 35.9928 15.2807C35.8897 15.5835 35.8382 16.0087 35.8382 16.5563V16.7496C35.8382 17.207 35.8672 17.5839 35.9251 17.8802C35.9831 18.1766 36.0637 18.4085 36.1667 18.576C36.2762 18.7435 36.4019 18.8627 36.5436 18.9336C36.6853 18.998 36.8367 19.0302 36.9978 19.0302ZM40.3672 18.0252V16.8269H43.4595V18.0252H40.3672ZM46.8406 20.2478C46.4734 20.2478 46.132 20.1866 45.8163 20.0642C45.5006 19.9418 45.2236 19.7453 44.9852 19.4747C44.7469 19.2041 44.56 18.8466 44.4247 18.4021C44.2959 17.9511 44.2315 17.4003 44.2315 16.7496V16.5563C44.2315 15.9507 44.2959 15.4386 44.4247 15.0198C44.56 14.6011 44.7469 14.2628 44.9852 14.0052C45.2236 13.741 45.5006 13.551 45.8163 13.435C46.132 13.3126 46.4734 13.2514 46.8406 13.2514C47.2078 13.2514 47.5493 13.3126 47.865 13.435C48.1806 13.551 48.4577 13.741 48.696 14.0052C48.9344 14.2628 49.118 14.6011 49.2469 15.0198C49.3821 15.4386 49.4498 15.9507 49.4498 16.5563V16.7496C49.4498 17.4003 49.3821 17.9511 49.2469 18.4021C49.118 18.8466 48.9344 19.2041 48.696 19.4747C48.4577 19.7453 48.1806 19.9418 47.865 20.0642C47.5493 20.1866 47.2078 20.2478 46.8406 20.2478ZM46.8406 19.0302C47.0081 19.0302 47.1595 18.998 47.2948 18.9336C47.4365 18.8627 47.559 18.7435 47.662 18.576C47.7716 18.4085 47.8553 18.1766 47.9133 17.8802C47.9713 17.5839 48.0003 17.207 48.0003 16.7496V16.5563C48.0003 16.0087 47.9487 15.5835 47.8456 15.2807C47.7426 14.978 47.6041 14.7686 47.4301 14.6526C47.2562 14.5302 47.0597 14.469 46.8406 14.469C46.6151 14.469 46.4154 14.5302 46.2415 14.6526C46.074 14.7686 45.9387 14.978 45.8356 15.2807C45.7325 15.5835 45.681 16.0087 45.681 16.5563V16.7496C45.681 17.207 45.71 17.5839 45.768 17.8802C45.826 18.1766 45.9065 18.4085 46.0096 18.576C46.1191 18.7435 46.2447 18.8627 46.3864 18.9336C46.5282 18.998 46.6796 19.0302 46.8406 19.0302ZM53.1574 20.1318H51.6306L54.0368 14.5753H50.5869V13.3674H55.5153V14.4304L53.1574 20.1318ZM57.5898 20.2478C57.4416 20.2478 57.3031 20.2091 57.1743 20.1318C57.0519 20.061 56.952 19.9611 56.8747 19.8323C56.8038 19.7034 56.7684 19.5681 56.7684 19.4264C56.7684 19.188 56.8489 18.9915 57.01 18.8369C57.1711 18.6823 57.3643 18.605 57.5898 18.605C57.8153 18.605 58.0086 18.6823 58.1696 18.8369C58.3307 18.9915 58.4112 19.188 58.4112 19.4264C58.4112 19.5681 58.3726 19.7034 58.2952 19.8323C58.2244 19.9611 58.1277 20.061 58.0053 20.1318C57.8829 20.2091 57.7444 20.2478 57.5898 20.2478ZM57.5898 16.537C57.4416 16.537 57.3031 16.5016 57.1743 16.4307C57.0519 16.3534 56.952 16.2503 56.8747 16.1215C56.8038 15.9926 56.7684 15.8573 56.7684 15.7156C56.7684 15.4772 56.8489 15.2807 57.01 15.1261C57.1711 14.9715 57.3643 14.8942 57.5898 14.8942C57.8153 14.8942 58.0086 14.9715 58.1696 15.1261C58.3307 15.2807 58.4112 15.4772 58.4112 15.7156C58.4112 15.8573 58.3726 15.9926 58.2952 16.1215C58.2244 16.2503 58.1277 16.3534 58.0053 16.4307C57.8829 16.5016 57.7444 16.537 57.5898 16.537ZM61.9826 20.2478C61.5574 20.2478 61.1934 20.193 60.8906 20.0835C60.5878 19.974 60.3398 19.8258 60.1465 19.639C59.9532 19.4522 59.8083 19.2396 59.7116 19.0012C59.6214 18.7628 59.5731 18.5116 59.5667 18.2474H61.0162C61.0355 18.4794 61.1225 18.6694 61.2771 18.8176C61.4382 18.9593 61.6733 19.0302 61.9826 19.0302C62.3369 19.0302 62.601 18.9303 62.775 18.7306C62.9554 18.5309 63.0455 18.2313 63.0455 17.8319C63.0455 17.5485 62.9972 17.323 62.9006 17.1555C62.804 16.9815 62.6751 16.8591 62.5141 16.7883C62.353 16.7109 62.1758 16.6723 61.9826 16.6723C61.7571 16.6723 61.5702 16.7142 61.4221 16.7979C61.2739 16.8752 61.1547 16.9847 61.0645 17.1265H59.7116V13.3674H64.1182V14.5656H61.1612V15.8026C61.2964 15.6802 61.4607 15.5932 61.654 15.5417C61.8473 15.4901 62.0695 15.4643 62.3208 15.4643C62.7589 15.4643 63.139 15.5513 63.4611 15.7253C63.7832 15.8992 64.0345 16.1633 64.2148 16.5177C64.4017 16.8656 64.4951 17.3036 64.4951 17.8319C64.4951 18.3151 64.3888 18.7403 64.1762 19.1075C63.97 19.4683 63.6801 19.7485 63.3065 19.9482C62.9328 20.1479 62.4915 20.2478 61.9826 20.2478ZM67.7675 20.2478C67.3423 20.2478 66.9783 20.193 66.6755 20.0835C66.3727 19.974 66.1247 19.8258 65.9314 19.639C65.7381 19.4522 65.5932 19.2396 65.4965 19.0012C65.4063 18.7628 65.358 18.5116 65.3516 18.2474H66.8011C66.8204 18.4794 66.9074 18.6694 67.062 18.8176C67.2231 18.9593 67.4582 19.0302 67.7675 19.0302C68.1218 19.0302 68.3859 18.9303 68.5599 18.7306C68.7403 18.5309 68.8305 18.2313 68.8305 17.8319C68.8305 17.5485 68.7821 17.323 68.6855 17.1555C68.5889 16.9815 68.46 16.8591 68.299 16.7883C68.1379 16.7109 67.9607 16.6723 67.7675 16.6723C67.542 16.6723 67.3552 16.7142 67.207 16.7979C67.0588 16.8752 66.9396 16.9847 66.8494 17.1265H65.4965V13.3674H69.9031V14.5656H66.9461V15.8026C67.0814 15.6802 67.2456 15.5932 67.4389 15.5417C67.6322 15.4901 67.8544 15.4643 68.1057 15.4643C68.5438 15.4643 68.9239 15.5513 69.246 15.7253C69.5681 15.8992 69.8194 16.1633 69.9997 16.5177C70.1866 16.8656 70.28 17.3036 70.28 17.8319C70.28 18.3151 70.1737 18.7403 69.9611 19.1075C69.7549 19.4683 69.465 19.7485 69.0914 19.9482C68.7177 20.1479 68.2764 20.2478 67.7675 20.2478Z" fill="#3CAAE1"/>
<path d="M13.3283 35.7391V35.5325C13.3283 34.8575 13.4213 34.2444 13.6073 33.6934C13.8001 33.1424 14.0136 32.6637 14.2478 32.2573C14.3856 32.0231 14.5302 31.8027 14.6818 31.596C14.8333 31.3825 14.9952 31.1793 15.1674 30.9865H16.2212C16.0352 31.1793 15.8596 31.3825 15.6943 31.596C15.529 31.8027 15.3775 32.0231 15.2397 32.2573C14.9917 32.6568 14.7644 33.1355 14.5578 33.6934C14.358 34.2444 14.2582 34.8575 14.2582 35.5325V35.7391C14.2582 36.4141 14.358 37.0306 14.5578 37.5885C14.7644 38.1464 14.9917 38.6251 15.2397 39.0246C15.3775 39.2588 15.529 39.4827 15.6943 39.6962C15.8596 39.9097 16.0352 40.106 16.2212 40.2851H15.126C14.9538 40.106 14.792 39.9097 14.6404 39.6962C14.4958 39.4827 14.358 39.2588 14.2272 39.0246C13.9999 38.6251 13.7932 38.1464 13.6073 37.5885C13.4213 37.0306 13.3283 36.4141 13.3283 35.7391ZM17.3565 38.2188V30.9865H18.3277V34.0757H22.1711V30.9865H23.1423V38.2188H22.1711V34.9229H18.3277V38.2188H17.3565ZM27.2727 38.3221C26.8112 38.3221 26.3772 38.2222 25.9708 38.0224C25.5713 37.8227 25.2476 37.5162 24.9996 37.1029C24.7586 36.6896 24.638 36.1662 24.638 35.5325V35.3258C24.638 34.7197 24.7551 34.2203 24.9893 33.8277C25.2235 33.4282 25.5335 33.132 25.9192 32.9392C26.3049 32.7394 26.7216 32.6396 27.1693 32.6396C27.9752 32.6396 28.5986 32.86 29.0394 33.3008C29.4802 33.7416 29.7006 34.365 29.7006 35.1709V35.7494H25.5472C25.5472 36.1765 25.6333 36.5174 25.8055 36.7723C25.9846 37.0271 26.205 37.2131 26.4668 37.3302C26.7354 37.4404 27.004 37.4955 27.2727 37.4955C27.6859 37.4955 28.0028 37.4266 28.2232 37.2889C28.4505 37.1511 28.6123 36.9617 28.7088 36.7206H29.5973C29.4871 37.2441 29.215 37.6436 28.7811 37.9191C28.3541 38.1878 27.8512 38.3221 27.2727 38.3221ZM27.221 33.4661C26.9386 33.4661 26.67 33.5212 26.4151 33.6314C26.1603 33.7347 25.9502 33.9 25.7849 34.1273C25.6264 34.3546 25.5472 34.6474 25.5472 35.0055H28.8431C28.8362 34.6267 28.757 34.3271 28.6055 34.1067C28.4608 33.8794 28.268 33.7175 28.0269 33.6211C27.7858 33.5178 27.5172 33.4661 27.221 33.4661ZM33.5759 38.2188V32.7429H38.1219V38.2188H37.2127V33.5488H34.4851V38.2188H33.5759ZM39.771 40.2851V32.7429H40.6182V33.7761C40.8041 33.411 41.0624 33.132 41.3931 32.9392C41.7306 32.7394 42.1197 32.6396 42.5605 32.6396C43.2493 32.6396 43.8004 32.8669 44.2136 33.3215C44.6269 33.7692 44.8336 34.4373 44.8336 35.3258V35.5325C44.8336 36.1524 44.7371 36.669 44.5443 37.0822C44.3583 37.4955 44.0931 37.8055 43.7487 38.0121C43.4112 38.2188 43.0151 38.3221 42.5605 38.3221C42.0922 38.3221 41.6996 38.2188 41.3827 38.0121C41.0728 37.8055 40.8386 37.5472 40.6802 37.2372V40.2851H39.771ZM42.3539 37.5162C42.8016 37.5162 43.1736 37.3474 43.4698 37.0099C43.7728 36.6724 43.9244 36.1799 43.9244 35.5325V35.3258C43.9244 34.7266 43.7728 34.2651 43.4698 33.9414C43.1736 33.6107 42.8016 33.4454 42.3539 33.4454C42.0233 33.4454 41.7306 33.5143 41.4757 33.6521C41.2277 33.7898 41.0314 33.9793 40.8868 34.2203C40.749 34.4545 40.6802 34.7197 40.6802 35.0159V35.8424C40.6802 36.173 40.749 36.4658 40.8868 36.7206C41.0314 36.9686 41.2277 37.1649 41.4757 37.3095C41.7306 37.4473 42.0233 37.5162 42.3539 37.5162ZM46.1275 38.2188V32.7429H47.0367V36.8756L49.8676 32.7429H50.7768V38.2188H49.8676V34.086L47.0367 38.2188H46.1275ZM54.7065 38.3221C54.2244 38.3221 53.787 38.2015 53.3944 37.9605C53.0087 37.7125 52.6987 37.3578 52.4645 36.8963C52.2372 36.4348 52.1236 35.8769 52.1236 35.2225V35.0159C52.1236 34.1893 52.2062 33.4833 52.3715 32.8979C52.5437 32.3124 52.833 31.8578 53.2394 31.534C53.6458 31.2034 54.2037 31.0209 54.9132 30.9865C55.2024 30.9727 55.4676 30.9624 55.7087 30.9555C55.9498 30.9417 56.1667 30.921 56.3596 30.8935C56.5525 30.859 56.7247 30.8039 56.8762 30.7282V31.6064C56.8073 31.6477 56.6937 31.6821 56.5353 31.7097C56.3837 31.7372 56.1874 31.7613 55.9463 31.782C55.7053 31.7958 55.4125 31.8096 55.0681 31.8233C54.6273 31.8302 54.2554 31.9026 53.9523 32.0403C53.6561 32.1781 53.4254 32.3985 53.2601 32.7015C53.0947 33.0046 52.9914 33.4144 52.9501 33.931C53.0603 33.6831 53.2118 33.473 53.4047 33.3008C53.5976 33.1217 53.8214 32.984 54.0763 32.8875C54.3311 32.7911 54.6101 32.7429 54.9132 32.7429C55.3815 32.7429 55.7914 32.8462 56.1426 33.0528C56.5008 33.2595 56.7798 33.5556 56.9795 33.9414C57.1862 34.3271 57.2895 34.7886 57.2895 35.3258V35.5325C57.2895 36.0973 57.1758 36.5898 56.9485 37.0099C56.7281 37.4232 56.4216 37.7469 56.029 37.9811C55.6433 38.2084 55.2024 38.3221 54.7065 38.3221ZM54.7065 37.4955C55.1887 37.4955 55.5847 37.3302 55.8947 36.9996C56.2046 36.6621 56.3596 36.173 56.3596 35.5325V35.3258C56.3596 34.7955 56.2046 34.3719 55.8947 34.055C55.5847 33.7313 55.1887 33.5694 54.7065 33.5694C54.2244 33.5694 53.8283 33.7313 53.5184 34.055C53.2084 34.3719 53.0534 34.7955 53.0534 35.3258V35.5325C53.0534 35.9389 53.1257 36.2901 53.2704 36.5863C53.4219 36.8756 53.6217 37.0995 53.8696 37.2579C54.1245 37.4163 54.4034 37.4955 54.7065 37.4955ZM58.5781 38.2188V32.7429H59.4873V34.8092H60.5928C61.2816 34.8092 61.7879 34.9608 62.1116 35.2638C62.4422 35.5669 62.6075 35.9871 62.6075 36.5243C62.6075 36.8687 62.5352 37.1683 62.3906 37.4232C62.2459 37.6781 62.0255 37.8744 61.7293 38.0121C61.4332 38.1499 61.0543 38.2188 60.5928 38.2188H58.5781ZM59.4873 37.4129H60.5412C60.9682 37.4129 61.2679 37.3371 61.4401 37.1856C61.6122 37.034 61.6983 36.8102 61.6983 36.514C61.6983 36.2178 61.6122 35.994 61.4401 35.8424C61.2679 35.6909 60.9682 35.6151 60.5412 35.6151H59.4873V37.4129ZM63.4548 38.2188V32.7429H64.364V38.2188H63.4548ZM65.8669 38.3221C65.8187 38.3221 65.767 38.3186 65.7119 38.3117C65.6637 38.3048 65.6121 38.298 65.557 38.2911V37.3819C65.5776 37.3888 65.6293 37.3922 65.7119 37.3922C65.9186 37.3922 66.0873 37.3027 66.2182 37.1236C66.3491 36.9376 66.4421 36.6139 66.4972 36.1524C66.5592 35.684 66.5901 35.0297 66.5901 34.1893V32.7429H70.5162V38.2188H69.607V33.5488H67.4993V34.396C67.4993 35.1605 67.4649 35.7977 67.396 36.3074C67.3272 36.8102 67.2238 37.2097 67.0861 37.5059C66.9552 37.802 66.7865 38.0121 66.5798 38.1361C66.3732 38.2601 66.1355 38.3221 65.8669 38.3221ZM71.7557 40.2851L75.0205 30.9865H75.8884L72.6235 40.2851H71.7557ZM78.6932 38.3221C78.2937 38.3221 77.9527 38.2497 77.6703 38.1051C77.3948 37.9536 77.1847 37.7504 77.0401 37.4955C76.8954 37.2338 76.8231 36.941 76.8231 36.6173C76.8231 36.0732 76.9815 35.6806 77.2984 35.4395C77.6221 35.1984 78.0836 35.0779 78.6828 35.0779H80.4599V34.7059C80.4599 34.2375 80.3532 33.9138 80.1396 33.7347C79.933 33.5556 79.6196 33.4661 79.1994 33.4661C78.8068 33.4661 78.521 33.5419 78.3419 33.6934C78.1628 33.838 78.0629 34.0034 78.0423 34.1893H77.1331C77.1537 33.8932 77.2536 33.6314 77.4327 33.4041C77.6118 33.1699 77.8563 32.984 78.1662 32.8462C78.4762 32.7084 78.8378 32.6396 79.2511 32.6396C79.685 32.6396 80.0604 32.7084 80.3773 32.8462C80.6941 32.9771 80.9386 33.1871 81.1108 33.4764C81.283 33.7588 81.3691 34.1342 81.3691 34.6026V36.824C81.3691 37.1132 81.3691 37.3681 81.3691 37.5885C81.376 37.802 81.3932 38.0121 81.4208 38.2188H80.6252C80.6046 38.0603 80.5908 37.9122 80.5839 37.7745C80.577 37.6298 80.5736 37.468 80.5736 37.2889C80.4289 37.5782 80.1947 37.8227 79.871 38.0224C79.5473 38.2222 79.1547 38.3221 78.6932 38.3221ZM78.8895 37.4955C79.1788 37.4955 79.4405 37.4439 79.6747 37.3405C79.9158 37.2372 80.1052 37.0857 80.2429 36.8859C80.3876 36.6862 80.4599 36.4417 80.4599 36.1524V35.7804H78.8378C78.5003 35.7804 78.2351 35.8493 78.0423 35.9871C77.8494 36.1179 77.753 36.328 77.753 36.6173C77.753 36.8722 77.8425 37.0822 78.0216 37.2476C78.2076 37.4129 78.4969 37.4955 78.8895 37.4955ZM85.1447 35.5325V35.7391C85.1447 36.4141 85.0482 37.0271 84.8554 37.5782C84.6694 38.1292 84.4593 38.6079 84.2251 39.0143C84.0943 39.2485 83.9496 39.4689 83.7912 39.6755C83.6397 39.8891 83.4778 40.0923 83.3056 40.2851H82.2518C82.4377 40.0923 82.6134 39.8891 82.7787 39.6755C82.944 39.4689 83.0955 39.2485 83.2333 39.0143C83.4813 38.6148 83.7051 38.1361 83.9049 37.5782C84.1115 37.0203 84.2148 36.4072 84.2148 35.7391V35.5325C84.2148 34.8575 84.1115 34.241 83.9049 33.6831C83.7051 33.1252 83.4813 32.6464 83.2333 32.2469C83.0955 32.0059 82.944 31.782 82.7787 31.5754C82.6134 31.3619 82.4377 31.1655 82.2518 30.9865H83.3469C83.5191 31.1655 83.6776 31.3619 83.8222 31.5754C83.9737 31.782 84.1149 32.0059 84.2458 32.2469C84.4731 32.6464 84.6797 33.1252 84.8657 33.6831C85.0517 34.241 85.1447 34.8575 85.1447 35.5325Z" fill="#474766"/>
<path d="M13.4316 54.665V47.4328H19.1141V54.665H18.1429V48.28H14.4028V54.665H13.4316ZM23.2469 54.7684C22.7854 54.7684 22.3514 54.6685 21.9451 54.4687C21.5456 54.269 21.2218 53.9625 20.9739 53.5492C20.7328 53.1359 20.6122 52.6124 20.6122 51.9788V51.7721C20.6122 51.166 20.7293 50.6666 20.9635 50.274C21.1977 49.8745 21.5077 49.5783 21.8934 49.3855C22.2791 49.1857 22.6958 49.0858 23.1436 49.0858C23.9494 49.0858 24.5728 49.3063 25.0136 49.7471C25.4544 50.1879 25.6749 50.8113 25.6749 51.6171V52.1957H21.5215C21.5215 52.6228 21.6076 52.9637 21.7797 53.2186C21.9588 53.4734 22.1792 53.6594 22.441 53.7765C22.7096 53.8867 22.9782 53.9418 23.2469 53.9418C23.6601 53.9418 23.977 53.8729 24.1974 53.7352C24.4247 53.5974 24.5866 53.408 24.683 53.1669H25.5715C25.4613 53.6904 25.1893 54.0899 24.7553 54.3654C24.3283 54.634 23.8255 54.7684 23.2469 54.7684ZM23.1952 49.9124C22.9128 49.9124 22.6442 49.9675 22.3893 50.0777C22.1345 50.181 21.9244 50.3463 21.7591 50.5736C21.6007 50.8009 21.5215 51.0937 21.5215 51.4518H24.8173C24.8104 51.073 24.7312 50.7734 24.5797 50.553C24.435 50.3257 24.2422 50.1638 24.0011 50.0674C23.76 49.9641 23.4914 49.9124 23.1952 49.9124ZM26.9671 56.7314V49.1892H27.8143V50.2223C28.0003 49.8573 28.2586 49.5783 28.5892 49.3855C28.9267 49.1857 29.3159 49.0858 29.7567 49.0858C30.4455 49.0858 30.9966 49.3131 31.4098 49.7677C31.8231 50.2155 32.0297 50.8836 32.0297 51.7721V51.9788C32.0297 52.5987 31.9333 53.1153 31.7404 53.5285C31.5545 53.9418 31.2893 54.2518 30.9449 54.4584C30.6074 54.665 30.2113 54.7684 29.7567 54.7684C29.2884 54.7684 28.8957 54.665 28.5789 54.4584C28.2689 54.2518 28.0348 53.9935 27.8763 53.6835V56.7314H26.9671ZM29.5501 53.9625C29.9978 53.9625 30.3698 53.7937 30.6659 53.4562C30.969 53.1187 31.1205 52.6262 31.1205 51.9788V51.7721C31.1205 51.1729 30.969 50.7114 30.6659 50.3877C30.3698 50.057 29.9978 49.8917 29.5501 49.8917C29.2195 49.8917 28.9267 49.9606 28.6719 50.0984C28.4239 50.2361 28.2276 50.4255 28.083 50.6666C27.9452 50.9008 27.8763 51.166 27.8763 51.4622V52.2887C27.8763 52.6193 27.9452 52.9121 28.083 53.1669C28.2276 53.4149 28.4239 53.6112 28.6719 53.7558C28.9267 53.8936 29.2195 53.9625 29.5501 53.9625ZM35.4417 54.7684C34.9733 54.7684 34.5497 54.6685 34.1709 54.4687C33.7989 54.2621 33.5027 53.9521 33.2823 53.5389C33.0688 53.1256 32.962 52.6056 32.962 51.9788V51.7721C32.962 51.1798 33.0791 50.6838 33.3133 50.2843C33.5475 49.8848 33.854 49.5852 34.2328 49.3855C34.6117 49.1857 35.0146 49.0858 35.4417 49.0858C35.8756 49.0858 36.2476 49.1651 36.5575 49.3235C36.8743 49.475 37.1292 49.6851 37.3221 49.9537C37.5149 50.2155 37.6458 50.5116 37.7147 50.8423H36.7848C36.6746 50.5805 36.5196 50.3601 36.3199 50.181C36.127 50.0019 35.8343 49.9124 35.4417 49.9124C35.173 49.9124 34.9216 49.9778 34.6874 50.1087C34.4533 50.2327 34.2604 50.4324 34.1089 50.7079C33.9642 50.9766 33.8919 51.3313 33.8919 51.7721V51.9788C33.8919 52.4471 33.9642 52.826 34.1089 53.1153C34.2604 53.4046 34.4533 53.6146 34.6874 53.7455C34.9216 53.8764 35.173 53.9418 35.4417 53.9418C35.7792 53.9418 36.0616 53.8592 36.2889 53.6938C36.5231 53.5285 36.6884 53.3012 36.7848 53.0119H37.7147C37.632 53.3701 37.4839 53.6835 37.2704 53.9521C37.0569 54.2139 36.7951 54.4171 36.4852 54.5617C36.1752 54.6995 35.8274 54.7684 35.4417 54.7684ZM41.2267 54.7684C40.7652 54.7684 40.3313 54.6685 39.9249 54.4687C39.5254 54.2621 39.2017 53.9521 38.9537 53.5389C38.7126 53.1256 38.5921 52.6056 38.5921 51.9788V51.7721C38.5921 51.1798 38.7126 50.6838 38.9537 50.2843C39.2017 49.8848 39.5254 49.5852 39.9249 49.3855C40.3313 49.1857 40.7652 49.0858 41.2267 49.0858C41.6951 49.0858 42.129 49.1857 42.5285 49.3855C42.928 49.5852 43.2483 49.8848 43.4894 50.2843C43.7373 50.6838 43.8613 51.1798 43.8613 51.7721V51.9788C43.8613 52.6056 43.7373 53.1256 43.4894 53.5389C43.2483 53.9521 42.928 54.2621 42.5285 54.4687C42.129 54.6685 41.6951 54.7684 41.2267 54.7684ZM41.2267 53.9418C41.5091 53.9418 41.7777 53.8798 42.0326 53.7558C42.2943 53.625 42.5078 53.4149 42.6731 53.1256C42.8453 52.8363 42.9314 52.454 42.9314 51.9788V51.7721C42.9314 51.3313 42.8453 50.9766 42.6731 50.7079C42.5078 50.4324 42.2943 50.2327 42.0326 50.1087C41.7777 49.9778 41.5091 49.9124 41.2267 49.9124C40.9512 49.9124 40.6825 49.9778 40.4208 50.1087C40.1591 50.2327 39.9421 50.4324 39.7699 50.7079C39.6046 50.9766 39.5219 51.3313 39.5219 51.7721V51.9788C39.5219 52.454 39.6046 52.8363 39.7699 53.1256C39.9421 53.4149 40.1591 53.625 40.4208 53.7558C40.6825 53.8798 40.9512 53.9418 41.2267 53.9418ZM45.1488 54.665V49.1892H46.058V51.4725H48.8889V49.1892H49.7981V54.665H48.8889V52.2784H46.058V54.665H45.1488ZM53.0149 54.7684C52.6154 54.7684 52.2745 54.696 51.9921 54.5514C51.7165 54.3999 51.5065 54.1967 51.3618 53.9418C51.2172 53.6801 51.1449 53.3873 51.1449 53.0636C51.1449 52.5195 51.3033 52.1269 51.6201 51.8858C51.9438 51.6447 52.4053 51.5242 53.0046 51.5242H54.7817V51.1522C54.7817 50.6838 54.6749 50.3601 54.4614 50.181C54.2547 50.0019 53.9413 49.9124 53.5212 49.9124C53.1286 49.9124 52.8427 49.9882 52.6636 50.1397C52.4845 50.2843 52.3847 50.4496 52.364 50.6356H51.4548C51.4755 50.3394 51.5753 50.0777 51.7544 49.8504C51.9335 49.6162 52.178 49.4302 52.488 49.2925C52.7979 49.1547 53.1596 49.0858 53.5728 49.0858C54.0068 49.0858 54.3822 49.1547 54.699 49.2925C55.0158 49.4234 55.2604 49.6334 55.4326 49.9227C55.6048 50.2051 55.6909 50.5805 55.6909 51.0489V53.2702C55.6909 53.5595 55.6909 53.8144 55.6909 54.0348C55.6978 54.2483 55.715 54.4584 55.7425 54.665H54.947C54.9263 54.5066 54.9125 54.3585 54.9056 54.2208C54.8988 54.0761 54.8953 53.9143 54.8953 53.7352C54.7507 54.0245 54.5165 54.269 54.1927 54.4687C53.869 54.6685 53.4764 54.7684 53.0149 54.7684ZM53.2112 53.9418C53.5005 53.9418 53.7623 53.8902 53.9964 53.7868C54.2375 53.6835 54.4269 53.532 54.5647 53.3322C54.7093 53.1325 54.7817 52.888 54.7817 52.5987V52.2267H53.1596C52.8221 52.2267 52.5569 52.2956 52.364 52.4334C52.1711 52.5642 52.0747 52.7743 52.0747 53.0636C52.0747 53.3185 52.1643 53.5285 52.3433 53.6938C52.5293 53.8592 52.8186 53.9418 53.2112 53.9418ZM57.0384 54.7684C56.9902 54.7684 56.9386 54.7649 56.8835 54.758C56.8353 54.7511 56.7836 54.7442 56.7285 54.7374V53.8282C56.7492 53.835 56.8008 53.8385 56.8835 53.8385C57.0901 53.8385 57.2589 53.7489 57.3897 53.5699C57.5206 53.3839 57.6136 53.0602 57.6687 52.5987C57.7307 52.1303 57.7617 51.4759 57.7617 50.6356V49.1892H61.6878V54.665H60.7786V49.995H58.6709V50.8423C58.6709 51.6068 58.6364 52.2439 58.5676 52.7536C58.4987 53.2565 58.3954 53.656 58.2576 53.9521C58.1267 54.2483 57.958 54.4584 57.7513 54.5824C57.5447 54.7064 57.3071 54.7684 57.0384 54.7684ZM63.3405 54.665V49.1892H64.2497V51.2555H65.5618C66.2506 51.2555 66.7569 51.4071 67.0806 51.7101C67.4112 52.0132 67.5765 52.4334 67.5765 52.9706C67.5765 53.315 67.5042 53.6146 67.3595 53.8695C67.2149 54.1243 66.9945 54.3206 66.6983 54.4584C66.4021 54.5962 66.0233 54.665 65.5618 54.665H63.3405ZM64.2497 53.8592H65.5101C65.9372 53.8592 66.2368 53.7834 66.409 53.6319C66.5812 53.4803 66.6673 53.2565 66.6673 52.9603C66.6673 52.6641 66.5812 52.4402 66.409 52.2887C66.2368 52.1372 65.9372 52.0614 65.5101 52.0614H64.2497V53.8592ZM68.7687 54.665V49.1892H69.6779V51.4725H72.5088V49.1892H73.418V54.665H72.5088V52.2784H69.6779V54.665H68.7687ZM76.6349 54.7684C76.2354 54.7684 75.8944 54.696 75.612 54.5514C75.3365 54.3999 75.1264 54.1967 74.9818 53.9418C74.8371 53.6801 74.7648 53.3873 74.7648 53.0636C74.7648 52.5195 74.9232 52.1269 75.2401 51.8858C75.5638 51.6447 76.0253 51.5242 76.6245 51.5242H78.4016V51.1522C78.4016 50.6838 78.2949 50.3601 78.0813 50.181C77.8747 50.0019 77.5613 49.9124 77.1411 49.9124C76.7485 49.9124 76.4627 49.9882 76.2836 50.1397C76.1045 50.2843 76.0046 50.4496 75.984 50.6356H75.0748C75.0954 50.3394 75.1953 50.0777 75.3744 49.8504C75.5535 49.6162 75.798 49.4302 76.1079 49.2925C76.4179 49.1547 76.7795 49.0858 77.1928 49.0858C77.6267 49.0858 78.0021 49.1547 78.319 49.2925C78.6358 49.4234 78.8803 49.6334 79.0525 49.9227C79.2247 50.2051 79.3108 50.5805 79.3108 51.0489V53.2702C79.3108 53.5595 79.3108 53.8144 79.3108 54.0348C79.3177 54.2483 79.3349 54.4584 79.3625 54.665H78.5669C78.5463 54.5066 78.5325 54.3585 78.5256 54.2208C78.5187 54.0761 78.5153 53.9143 78.5153 53.7352C78.3706 54.0245 78.1364 54.269 77.8127 54.4687C77.489 54.6685 77.0964 54.7684 76.6349 54.7684ZM76.8312 53.9418C77.1205 53.9418 77.3822 53.8902 77.6164 53.7868C77.8575 53.6835 78.0469 53.532 78.1846 53.3322C78.3293 53.1325 78.4016 52.888 78.4016 52.5987V52.2267H76.7795C76.442 52.2267 76.1768 52.2956 75.984 52.4334C75.7911 52.5642 75.6947 52.7743 75.6947 53.0636C75.6947 53.3185 75.7842 53.5285 75.9633 53.6938C76.1493 53.8592 76.4386 53.9418 76.8312 53.9418ZM80.5034 54.665L81.9912 52.4954C81.5366 52.392 81.2094 52.2061 81.0097 51.9374C80.8099 51.6619 80.7101 51.3106 80.7101 50.8836C80.7101 50.5254 80.7824 50.2223 80.927 49.9744C81.0717 49.7195 81.2955 49.5267 81.5986 49.3958C81.9017 49.258 82.2943 49.1892 82.7764 49.1892H85.1528V54.665H84.2435V52.578H82.8488L81.5159 54.665H80.5034ZM81.6193 50.8836C81.6193 51.1729 81.7019 51.3933 81.8672 51.5448C82.0394 51.6964 82.3253 51.7721 82.7248 51.7721H84.2435V49.995H82.7248C82.3253 49.995 82.0394 50.0708 81.8672 50.2223C81.7019 50.3739 81.6193 50.5943 81.6193 50.8836ZM90.6422 54.665V49.995H88.7721V49.1892H93.4214V49.995H91.5514V54.665H90.6422ZM94.4571 56.7314V49.1892H95.3043V50.2223C95.4902 49.8573 95.7485 49.5783 96.0792 49.3855C96.4167 49.1857 96.8058 49.0858 97.2467 49.0858C97.9354 49.0858 98.4865 49.3131 98.8997 49.7677C99.313 50.2155 99.5197 50.8836 99.5197 51.7721V51.9788C99.5197 52.5987 99.4232 53.1153 99.2304 53.5285C99.0444 53.9418 98.7792 54.2518 98.4348 54.4584C98.0973 54.665 97.7013 54.7684 97.2467 54.7684C96.7783 54.7684 96.3857 54.665 96.0688 54.4584C95.7589 54.2518 95.5247 53.9935 95.3663 53.6835V56.7314H94.4571ZM97.04 53.9625C97.4877 53.9625 97.8597 53.7937 98.1559 53.4562C98.4589 53.1187 98.6105 52.6262 98.6105 51.9788V51.7721C98.6105 51.1729 98.4589 50.7114 98.1559 50.3877C97.8597 50.057 97.4877 49.8917 97.04 49.8917C96.7094 49.8917 96.4167 49.9606 96.1618 50.0984C95.9138 50.2361 95.7175 50.4255 95.5729 50.6666C95.4351 50.9008 95.3663 51.166 95.3663 51.4622V52.2887C95.3663 52.6193 95.4351 52.9121 95.5729 53.1669C95.7175 53.4149 95.9138 53.6112 96.1618 53.7558C96.4167 53.8936 96.7094 53.9625 97.04 53.9625ZM103.087 54.7684C102.625 54.7684 102.191 54.6685 101.785 54.4687C101.385 54.269 101.062 53.9625 100.814 53.5492C100.572 53.1359 100.452 52.6124 100.452 51.9788V51.7721C100.452 51.166 100.569 50.6666 100.803 50.274C101.037 49.8745 101.347 49.5783 101.733 49.3855C102.119 49.1857 102.536 49.0858 102.983 49.0858C103.789 49.0858 104.412 49.3063 104.853 49.7471C105.294 50.1879 105.515 50.8113 105.515 51.6171V52.1957H101.361C101.361 52.6228 101.447 52.9637 101.619 53.2186C101.799 53.4734 102.019 53.6594 102.281 53.7765C102.549 53.8867 102.818 53.9418 103.087 53.9418C103.5 53.9418 103.817 53.8729 104.037 53.7352C104.264 53.5974 104.426 53.408 104.523 53.1669H105.411C105.301 53.6904 105.029 54.0899 104.595 54.3654C104.168 54.634 103.665 54.7684 103.087 54.7684ZM103.035 49.9124C102.753 49.9124 102.484 49.9675 102.229 50.0777C101.974 50.181 101.764 50.3463 101.599 50.5736C101.44 50.8009 101.361 51.0937 101.361 51.4518H104.657C104.65 51.073 104.571 50.7734 104.419 50.553C104.275 50.3257 104.082 50.1638 103.841 50.0674C103.6 49.9641 103.331 49.9124 103.035 49.9124ZM106.807 54.665V49.1892H107.716V51.4725H110.547V49.1892H111.456V54.665H110.547V52.2784H107.716V54.665H106.807ZM113.113 54.665V49.1892H114.022V53.3219L116.853 49.1892H117.762V54.665H116.853V50.5323L114.022 54.665H113.113ZM119.419 56.7314V49.1892H120.266V50.2223C120.452 49.8573 120.71 49.5783 121.041 49.3855C121.379 49.1857 121.768 49.0858 122.209 49.0858C122.897 49.0858 123.448 49.3131 123.862 49.7677C124.275 50.2155 124.482 50.8836 124.482 51.7721V51.9788C124.482 52.5987 124.385 53.1153 124.192 53.5285C124.006 53.9418 123.741 54.2518 123.397 54.4584C123.059 54.665 122.663 54.7684 122.209 54.7684C121.74 54.7684 121.348 54.665 121.031 54.4584C120.721 54.2518 120.487 53.9935 120.328 53.6835V56.7314H119.419ZM122.002 53.9625C122.45 53.9625 122.822 53.7937 123.118 53.4562C123.421 53.1187 123.572 52.6262 123.572 51.9788V51.7721C123.572 51.1729 123.421 50.7114 123.118 50.3877C122.822 50.057 122.45 49.8917 122.002 49.8917C121.671 49.8917 121.379 49.9606 121.124 50.0984C120.876 50.2361 120.679 50.4255 120.535 50.6666C120.397 50.9008 120.328 51.166 120.328 51.4622V52.2887C120.328 52.6193 120.397 52.9121 120.535 53.1669C120.679 53.4149 120.876 53.6112 121.124 53.7558C121.379 53.8936 121.671 53.9625 122.002 53.9625ZM128.048 54.7684C127.587 54.7684 127.153 54.6685 126.747 54.4687C126.347 54.2621 126.023 53.9521 125.775 53.5389C125.534 53.1256 125.414 52.6056 125.414 51.9788V51.7721C125.414 51.1798 125.534 50.6838 125.775 50.2843C126.023 49.8848 126.347 49.5852 126.747 49.3855C127.153 49.1857 127.587 49.0858 128.048 49.0858C128.517 49.0858 128.951 49.1857 129.35 49.3855C129.75 49.5852 130.07 49.8848 130.311 50.2843C130.559 50.6838 130.683 51.1798 130.683 51.7721V51.9788C130.683 52.6056 130.559 53.1256 130.311 53.5389C130.07 53.9521 129.75 54.2621 129.35 54.4687C128.951 54.6685 128.517 54.7684 128.048 54.7684ZM128.048 53.9418C128.331 53.9418 128.599 53.8798 128.854 53.7558C129.116 53.625 129.33 53.4149 129.495 53.1256C129.667 52.8363 129.753 52.454 129.753 51.9788V51.7721C129.753 51.3313 129.667 50.9766 129.495 50.7079C129.33 50.4324 129.116 50.2327 128.854 50.1087C128.599 49.9778 128.331 49.9124 128.048 49.9124C127.773 49.9124 127.504 49.9778 127.243 50.1087C126.981 50.2327 126.764 50.4324 126.592 50.7079C126.426 50.9766 126.344 51.3313 126.344 51.7721V51.9788C126.344 52.454 126.426 52.8363 126.592 53.1256C126.764 53.4149 126.981 53.625 127.243 53.7558C127.504 53.8798 127.773 53.9418 128.048 53.9418ZM131.971 54.665V49.1892H134.347C134.801 49.1892 135.173 49.2546 135.463 49.3855C135.752 49.5095 135.965 49.6851 136.103 49.9124C136.241 50.1328 136.31 50.3911 136.31 50.6873C136.31 50.9284 136.231 51.1591 136.072 51.3795C135.921 51.593 135.724 51.7411 135.483 51.8238C135.821 51.9064 136.076 52.0649 136.248 52.299C136.427 52.5263 136.517 52.795 136.517 53.1049C136.517 53.5802 136.358 53.959 136.041 54.2414C135.724 54.5238 135.228 54.665 134.553 54.665H131.971ZM132.88 53.8592H134.553C134.939 53.8592 135.211 53.7903 135.37 53.6525C135.528 53.5148 135.607 53.3185 135.607 53.0636C135.607 52.8019 135.528 52.6021 135.37 52.4644C135.211 52.3197 134.939 52.2474 134.553 52.2474H132.88V53.8592ZM132.88 51.5035H134.347C134.739 51.5035 135.012 51.4346 135.163 51.2969C135.321 51.1591 135.401 50.9697 135.401 50.7286C135.401 50.5013 135.321 50.3222 135.163 50.1914C135.012 50.0605 134.739 49.995 134.347 49.995H132.88V51.5035ZM137.812 54.665V49.1892H138.722V51.4828H139.445L141.491 49.1892H142.565L140.189 51.8135L142.668 54.665H141.511L139.445 52.2681H138.722V54.665H137.812ZM145.214 54.7684C144.815 54.7684 144.474 54.696 144.192 54.5514C143.916 54.3999 143.706 54.1967 143.561 53.9418C143.417 53.6801 143.344 53.3873 143.344 53.0636C143.344 52.5195 143.503 52.1269 143.82 51.8858C144.143 51.6447 144.605 51.5242 145.204 51.5242H146.981V51.1522C146.981 50.6838 146.874 50.3601 146.661 50.181C146.454 50.0019 146.141 49.9124 145.721 49.9124C145.328 49.9124 145.042 49.9882 144.863 50.1397C144.684 50.2843 144.584 50.4496 144.564 50.6356H143.654C143.675 50.3394 143.775 50.0777 143.954 49.8504C144.133 49.6162 144.378 49.4302 144.688 49.2925C144.998 49.1547 145.359 49.0858 145.772 49.0858C146.206 49.0858 146.582 49.1547 146.899 49.2925C147.215 49.4234 147.46 49.6334 147.632 49.9227C147.804 50.2051 147.89 50.5805 147.89 51.0489V53.2702C147.89 53.5595 147.89 53.8144 147.89 54.0348C147.897 54.2483 147.915 54.4584 147.942 54.665H147.147C147.126 54.5066 147.112 54.3585 147.105 54.2208C147.098 54.0761 147.095 53.9143 147.095 53.7352C146.95 54.0245 146.716 54.269 146.392 54.4687C146.069 54.6685 145.676 54.7684 145.214 54.7684ZM145.411 53.9418C145.7 53.9418 145.962 53.8902 146.196 53.7868C146.437 53.6835 146.626 53.532 146.764 53.3322C146.909 53.1325 146.981 52.888 146.981 52.5987V52.2267H145.359C145.022 52.2267 144.756 52.2956 144.564 52.4334C144.371 52.5642 144.274 52.7743 144.274 53.0636C144.274 53.3185 144.364 53.5285 144.543 53.6938C144.729 53.8592 145.018 53.9418 145.411 53.9418ZM15.3947 69.7684C15.0021 69.7684 14.6611 69.7167 14.3718 69.6134C14.0825 69.5101 13.838 69.3689 13.6383 69.1898C13.4454 69.0107 13.2973 68.8109 13.194 68.5905C13.0907 68.3701 13.0321 68.1428 13.0183 67.9086H13.9895C14.024 68.1704 14.1617 68.4011 14.4028 68.6009C14.6508 68.8006 14.9814 68.9005 15.3947 68.9005C15.863 68.9005 16.2316 68.7558 16.5002 68.4665C16.7688 68.1704 16.9031 67.7605 16.9031 67.2371C16.9031 66.8376 16.8308 66.5173 16.6862 66.2762C16.5415 66.0282 16.3521 65.8491 16.1179 65.7389C15.8906 65.6287 15.6495 65.5736 15.3947 65.5736C15.0227 65.5736 14.73 65.6425 14.5165 65.7803C14.3098 65.918 14.1514 66.0764 14.0412 66.2555H13.1733V62.4328H17.461V63.28H14.1445V65.2947C14.3236 65.0949 14.5302 64.9468 14.7644 64.8504C14.9986 64.754 15.2604 64.7058 15.5496 64.7058C16.0318 64.7058 16.4451 64.8022 16.7895 64.995C17.1339 65.1879 17.399 65.4738 17.585 65.8526C17.7779 66.2245 17.8743 66.686 17.8743 67.2371C17.8743 67.7536 17.7676 68.2014 17.554 68.5802C17.3474 68.959 17.0581 69.2518 16.6862 69.4584C16.3142 69.665 15.8837 69.7684 15.3947 69.7684ZM21.3879 69.7684C20.9953 69.7684 20.6544 69.7167 20.3651 69.6134C20.0758 69.5101 19.8313 69.3689 19.6315 69.1898C19.4387 69.0107 19.2906 68.8109 19.1873 68.5905C19.0839 68.3701 19.0254 68.1428 19.0116 67.9086H19.9828C20.0173 68.1704 20.155 68.4011 20.3961 68.6009C20.6441 68.8006 20.9747 68.9005 21.3879 68.9005C21.8563 68.9005 22.2248 68.7558 22.4935 68.4665C22.7621 68.1704 22.8964 67.7605 22.8964 67.2371C22.8964 66.8376 22.8241 66.5173 22.6794 66.2762C22.5348 66.0282 22.3454 65.8491 22.1112 65.7389C21.8839 65.6287 21.6428 65.5736 21.3879 65.5736C21.016 65.5736 20.7233 65.6425 20.5097 65.7803C20.3031 65.918 20.1447 66.0764 20.0345 66.2555H19.1666V62.4328H23.4543V63.28H20.1378V65.2947C20.3169 65.0949 20.5235 64.9468 20.7577 64.8504C20.9919 64.754 21.2536 64.7058 21.5429 64.7058C22.0251 64.7058 22.4383 64.8022 22.7827 64.995C23.1271 65.1879 23.3923 65.4738 23.5783 65.8526C23.7712 66.2245 23.8676 66.686 23.8676 67.2371C23.8676 67.7536 23.7608 68.2014 23.5473 68.5802C23.3407 68.959 23.0514 69.2518 22.6794 69.4584C22.3075 69.665 21.877 69.7684 21.3879 69.7684ZM27.7945 69.665V64.1892H28.7657L30.7184 67.5987L32.6711 64.1892H33.5803V69.665H32.6711V65.6873L31.049 68.4769H30.3258L28.7037 65.6873V69.665H27.7945ZM35.2306 69.665V64.1892H36.1398V68.3219L38.9707 64.1892H39.8799V69.665H38.9707V65.5323L36.1398 69.665H35.2306ZM41.5366 69.665V64.1892H42.4458V66.4725H45.2768V64.1892H46.186V69.665H45.2768V67.2784H42.4458V69.665H41.5366ZM48.5659 71.8347C48.4626 71.8347 48.3593 71.8244 48.256 71.8037V70.9772C48.3593 70.9978 48.4626 71.0082 48.5659 71.0082C48.7037 71.0082 48.8173 70.9737 48.9069 70.9049C49.0033 70.8429 49.0997 70.7154 49.1962 70.5226C49.2926 70.3297 49.4097 70.0439 49.5475 69.665L47.2228 64.1892H48.2353L50.0124 68.6319L51.6242 64.1892H52.5953L50.529 69.665C50.3361 70.1816 50.1501 70.5983 49.9711 70.9152C49.7989 71.232 49.6026 71.4628 49.3821 71.6074C49.1686 71.759 48.8966 71.8347 48.5659 71.8347ZM55.076 69.665V64.995H53.206V64.1892H57.8553V64.995H55.9852V69.665H55.076ZM57.6035 71.2148L58.0167 69.665V68.5285H59.1532V69.665L58.1201 71.2148H57.6035ZM62.9223 71.0082V68.8178H63.6972C63.8281 68.5561 63.9349 68.2358 64.0175 67.857C64.1071 67.4712 64.1759 67.0545 64.2242 66.6068C64.2793 66.1522 64.3171 65.6942 64.3378 65.2327C64.3585 64.7643 64.3688 64.3131 64.3688 63.8792V62.4328H69.0698V68.8178H69.948V71.0082H69.0181V69.665H63.8522V71.0082H62.9223ZM64.7304 68.8178H68.0986V63.28H65.3193V64.0858C65.3193 65.1328 65.2711 66.0386 65.1747 66.8031C65.0851 67.5677 64.9371 68.2392 64.7304 68.8178ZM72.6494 69.7684C72.25 69.7684 71.909 69.696 71.6266 69.5514C71.3511 69.3999 71.141 69.1967 70.9964 68.9418C70.8517 68.6801 70.7794 68.3873 70.7794 68.0636C70.7794 67.5195 70.9378 67.1269 71.2547 66.8858C71.5784 66.6447 72.0399 66.5242 72.6391 66.5242H74.4162V66.1522C74.4162 65.6838 74.3094 65.3601 74.0959 65.181C73.8893 65.0019 73.5759 64.9124 73.1557 64.9124C72.7631 64.9124 72.4773 64.9882 72.2982 65.1397C72.1191 65.2843 72.0192 65.4496 71.9985 65.6356H71.0893C71.11 65.3394 71.2099 65.0777 71.389 64.8504C71.5681 64.6162 71.8126 64.4302 72.1225 64.2925C72.4325 64.1547 72.7941 64.0858 73.2074 64.0858C73.6413 64.0858 74.0167 64.1547 74.3335 64.2925C74.6504 64.4234 74.8949 64.6334 75.0671 64.9227C75.2393 65.2051 75.3254 65.5805 75.3254 66.0489V68.2702C75.3254 68.5595 75.3254 68.8144 75.3254 69.0348C75.3323 69.2483 75.3495 69.4584 75.3771 69.665H74.5815C74.5608 69.5066 74.5471 69.3585 74.5402 69.2208C74.5333 69.0761 74.5298 68.9143 74.5298 68.7352C74.3852 69.0245 74.151 69.269 73.8273 69.4687C73.5035 69.6685 73.1109 69.7684 72.6494 69.7684ZM72.8458 68.9418C73.135 68.9418 73.3968 68.8902 73.631 68.7868C73.8721 68.6835 74.0615 68.532 74.1992 68.3322C74.3439 68.1325 74.4162 67.888 74.4162 67.5987V67.2267H72.7941C72.4566 67.2267 72.1914 67.2956 71.9985 67.4334C71.8057 67.5642 71.7093 67.7743 71.7093 68.0636C71.7093 68.3185 71.7988 68.5285 71.9779 68.6938C72.1639 68.8592 72.4531 68.9418 72.8458 68.9418ZM76.9313 71.7314V64.1892H77.7785V65.2223C77.9645 64.8573 78.2227 64.5783 78.5534 64.3855C78.8909 64.1857 79.28 64.0858 79.7209 64.0858C80.4097 64.0858 80.9607 64.3131 81.374 64.7677C81.7872 65.2155 81.9939 65.8836 81.9939 66.7721V66.9788C81.9939 67.5987 81.8974 68.1153 81.7046 68.5285C81.5186 68.9418 81.2534 69.2518 80.909 69.4584C80.5715 69.665 80.1755 69.7684 79.7209 69.7684C79.2525 69.7684 78.8599 69.665 78.543 69.4584C78.2331 69.2518 77.9989 68.9935 77.8405 68.6835V71.7314H76.9313ZM79.5142 68.9625C79.9619 68.9625 80.3339 68.7937 80.6301 68.4562C80.9331 68.1187 81.0847 67.6262 81.0847 66.9788V66.7721C81.0847 66.1729 80.9331 65.7114 80.6301 65.3877C80.3339 65.057 79.9619 64.8917 79.5142 64.8917C79.1836 64.8917 78.8909 64.9606 78.636 65.0984C78.3881 65.2361 78.1918 65.4255 78.0471 65.6666C77.9093 65.9008 77.8405 66.166 77.8405 66.4622V67.2887C77.8405 67.6193 77.9093 67.9121 78.0471 68.1669C78.1918 68.4149 78.3881 68.6112 78.636 68.7558C78.8909 68.8936 79.1836 68.9625 79.5142 68.9625ZM83.2878 69.665V64.1892H84.197V66.2555H85.5091C86.1979 66.2555 86.7042 66.4071 87.0279 66.7101C87.3585 67.0132 87.5238 67.4334 87.5238 67.9706C87.5238 68.315 87.4515 68.6146 87.3069 68.8695C87.1622 69.1243 86.9418 69.3206 86.6456 69.4584C86.3494 69.5962 85.9706 69.665 85.5091 69.665H83.2878ZM84.197 68.8592H85.4575C85.8845 68.8592 86.1841 68.7834 86.3563 68.6319C86.5285 68.4803 86.6146 68.2565 86.6146 67.9603C86.6146 67.6641 86.5285 67.4402 86.3563 67.2887C86.1841 67.1372 85.8845 67.0614 85.4575 67.0614H84.197V68.8592ZM88.3028 69.665L89.7905 67.4954C89.3359 67.392 89.0088 67.2061 88.809 66.9374C88.6093 66.6619 88.5094 66.3106 88.5094 65.8836C88.5094 65.5254 88.5817 65.2223 88.7264 64.9744C88.871 64.7195 89.0949 64.5267 89.3979 64.3958C89.701 64.258 90.0936 64.1892 90.5758 64.1892H92.9521V69.665H92.0429V67.578H90.6481L89.3153 69.665H88.3028ZM89.4186 65.8836C89.4186 66.1729 89.5012 66.3933 89.6666 66.5448C89.8388 66.6964 90.1246 66.7721 90.5241 66.7721H92.0429V64.995H90.5241C90.1246 64.995 89.8388 65.0708 89.6666 65.2223C89.5012 65.3739 89.4186 65.5943 89.4186 65.8836ZM97.398 69.665V62.4328H102.099V63.2696H98.3692V65.3257H99.981C100.938 65.3257 101.641 65.5254 102.089 65.9249C102.543 66.3244 102.771 66.8479 102.771 67.4954C102.771 68.1428 102.543 68.6663 102.089 69.0658C101.641 69.4653 100.938 69.665 99.981 69.665H97.398ZM98.3692 68.8178H99.9293C100.618 68.8178 101.1 68.7042 101.376 68.4769C101.658 68.2427 101.799 67.9155 101.799 67.4954C101.799 67.0752 101.658 66.7515 101.376 66.5242C101.1 66.29 100.618 66.1729 99.9293 66.1729H98.3692V68.8178ZM106.335 69.7684C105.874 69.7684 105.44 69.6685 105.034 69.4687C104.634 69.2621 104.31 68.9521 104.062 68.5389C103.821 68.1256 103.701 67.6056 103.701 66.9788V66.7721C103.701 66.1798 103.821 65.6838 104.062 65.2843C104.31 64.8848 104.634 64.5852 105.034 64.3855C105.44 64.1857 105.874 64.0858 106.335 64.0858C106.804 64.0858 107.238 64.1857 107.637 64.3855C108.037 64.5852 108.357 64.8848 108.598 65.2843C108.846 65.6838 108.97 66.1798 108.97 66.7721V66.9788C108.97 67.6056 108.846 68.1256 108.598 68.5389C108.357 68.9521 108.037 69.2621 107.637 69.4687C107.238 69.6685 106.804 69.7684 106.335 69.7684ZM106.335 68.9418C106.618 68.9418 106.886 68.8798 107.141 68.7558C107.403 68.625 107.617 68.4149 107.782 68.1256C107.954 67.8363 108.04 67.454 108.04 66.9788V66.7721C108.04 66.3313 107.954 65.9766 107.782 65.7079C107.617 65.4324 107.403 65.2327 107.141 65.1087C106.886 64.9778 106.618 64.9124 106.335 64.9124C106.06 64.9124 105.791 64.9778 105.53 65.1087C105.268 65.2327 105.051 65.4324 104.879 65.7079C104.713 65.9766 104.631 66.3313 104.631 66.7721V66.9788C104.631 67.454 104.713 67.8363 104.879 68.1256C105.051 68.4149 105.268 68.625 105.53 68.7558C105.791 68.8798 106.06 68.9418 106.335 68.9418ZM109.898 69.7684C109.85 69.7684 109.798 69.7649 109.743 69.758C109.695 69.7511 109.643 69.7442 109.588 69.7374V68.8282C109.609 68.835 109.661 68.8385 109.743 68.8385C109.95 68.8385 110.119 68.7489 110.25 68.5699C110.38 68.3839 110.473 68.0602 110.529 67.5987C110.591 67.1303 110.622 66.4759 110.622 65.6356V64.1892H114.548V69.665H113.638V64.995H111.531V65.8423C111.531 66.6068 111.496 67.2439 111.427 67.7536C111.359 68.2565 111.255 68.656 111.117 68.9521C110.987 69.2483 110.818 69.4584 110.611 69.5824C110.405 69.7064 110.167 69.7684 109.898 69.7684ZM116.2 69.665V64.1892H117.11V66.2555H118.422C119.11 66.2555 119.617 66.4071 119.94 66.7101C120.271 67.0132 120.436 67.4334 120.436 67.9706C120.436 68.315 120.364 68.6146 120.219 68.8695C120.075 69.1243 119.854 69.3206 119.558 69.4584C119.262 69.5962 118.883 69.665 118.422 69.665H116.2ZM117.11 68.8592H118.37C118.797 68.8592 119.097 68.7834 119.269 68.6319C119.441 68.4803 119.527 68.2565 119.527 67.9603C119.527 67.6641 119.441 67.4402 119.269 67.2887C119.097 67.1372 118.797 67.0614 118.37 67.0614H117.11V68.8592ZM121.629 69.665V64.1892H122.538V68.8592H124.532V64.1892H125.441V68.8592H127.435V64.1892H128.344V69.665H121.629ZM132.266 69.7684C131.804 69.7684 131.371 69.6685 130.964 69.4687C130.565 69.2621 130.241 68.9521 129.993 68.5389C129.752 68.1256 129.631 67.6056 129.631 66.9788V66.7721C129.631 66.1798 129.752 65.6838 129.993 65.2843C130.241 64.8848 130.565 64.5852 130.964 64.3855C131.371 64.1857 131.804 64.0858 132.266 64.0858C132.734 64.0858 133.168 64.1857 133.568 64.3855C133.967 64.5852 134.288 64.8848 134.529 65.2843C134.777 65.6838 134.901 66.1798 134.901 66.7721V66.9788C134.901 67.6056 134.777 68.1256 134.529 68.5389C134.288 68.9521 133.967 69.2621 133.568 69.4687C133.168 69.6685 132.734 69.7684 132.266 69.7684ZM132.266 68.9418C132.548 68.9418 132.817 68.8798 133.072 68.7558C133.334 68.625 133.547 68.4149 133.712 68.1256C133.885 67.8363 133.971 67.454 133.971 66.9788V66.7721C133.971 66.3313 133.885 65.9766 133.712 65.7079C133.547 65.4324 133.334 65.2327 133.072 65.1087C132.817 64.9778 132.548 64.9124 132.266 64.9124C131.99 64.9124 131.722 64.9778 131.46 65.1087C131.198 65.2327 130.981 65.4324 130.809 65.7079C130.644 65.9766 130.561 66.3313 130.561 66.7721V66.9788C130.561 67.454 130.644 67.8363 130.809 68.1256C130.981 68.4149 131.198 68.625 131.46 68.7558C131.722 68.8798 131.99 68.9418 132.266 68.9418ZM136.188 69.665V64.1892H137.097V68.3219L139.928 64.1892H140.837V69.665H139.928V65.5323L137.097 69.665H136.188ZM138.513 63.5176C137.975 63.5176 137.583 63.4039 137.335 63.1766C137.087 62.9425 136.963 62.6084 136.963 62.1745H137.851C137.851 62.4086 137.907 62.5843 138.017 62.7014C138.127 62.8185 138.292 62.877 138.513 62.877C138.74 62.877 138.909 62.8185 139.019 62.7014C139.136 62.5843 139.195 62.4086 139.195 62.1745H140.062C140.062 62.6084 139.938 62.9425 139.69 63.1766C139.443 63.4039 139.05 63.5176 138.513 63.5176ZM146.937 69.7684C146.482 69.7684 146.09 69.7029 145.759 69.5721C145.428 69.4412 145.17 69.2518 144.984 69.0038C144.798 68.7558 144.691 68.4597 144.664 68.1153H145.573C145.607 68.2943 145.683 68.4459 145.8 68.5699C145.917 68.6938 146.072 68.7868 146.265 68.8488C146.458 68.9108 146.682 68.9418 146.937 68.9418C147.412 68.9418 147.756 68.8626 147.97 68.7042C148.19 68.5389 148.301 68.3426 148.301 68.1153C148.301 67.8466 148.211 67.6366 148.032 67.485C147.853 67.3266 147.543 67.2474 147.102 67.2474H146.162V66.5035H147.04C147.419 66.5035 147.688 66.4312 147.846 66.2865C148.011 66.1419 148.094 65.9387 148.094 65.6769C148.094 65.4703 147.997 65.2912 147.805 65.1397C147.612 64.9882 147.322 64.9124 146.937 64.9124C146.517 64.9124 146.21 64.9813 146.017 65.119C145.831 65.2499 145.718 65.4393 145.676 65.6873H144.767C144.795 65.3773 144.898 65.1018 145.077 64.8607C145.256 64.6197 145.504 64.4302 145.821 64.2925C146.138 64.1547 146.51 64.0858 146.937 64.0858C147.639 64.0858 148.159 64.2339 148.497 64.5301C148.834 64.8263 149.003 65.2086 149.003 65.6769C149.003 65.9387 148.938 66.1694 148.807 66.3692C148.676 66.562 148.466 66.7136 148.177 66.8238C148.562 66.9271 148.831 67.0924 148.982 67.3197C149.134 67.547 149.21 67.8122 149.21 68.1153C149.21 68.4114 149.124 68.687 148.951 68.9418C148.779 69.1898 148.524 69.3895 148.187 69.5411C147.856 69.6926 147.44 69.7684 146.937 69.7684ZM152.065 69.7684C151.666 69.7684 151.325 69.696 151.043 69.5514C150.767 69.3999 150.557 69.1967 150.412 68.9418C150.268 68.6801 150.195 68.3873 150.195 68.0636C150.195 67.5195 150.354 67.1269 150.671 66.8858C150.994 66.6447 151.456 66.5242 152.055 66.5242H153.832V66.1522C153.832 65.6838 153.725 65.3601 153.512 65.181C153.305 65.0019 152.992 64.9124 152.572 64.9124C152.179 64.9124 151.893 64.9882 151.714 65.1397C151.535 65.2843 151.435 65.4496 151.414 65.6356H150.505C150.526 65.3394 150.626 65.0777 150.805 64.8504C150.984 64.6162 151.229 64.4302 151.538 64.2925C151.848 64.1547 152.21 64.0858 152.623 64.0858C153.057 64.0858 153.433 64.1547 153.749 64.2925C154.066 64.4234 154.311 64.6334 154.483 64.9227C154.655 65.2051 154.741 65.5805 154.741 66.0489V68.2702C154.741 68.5595 154.741 68.8144 154.741 69.0348C154.748 69.2483 154.765 69.4584 154.793 69.665H153.997C153.977 69.5066 153.963 69.3585 153.956 69.2208C153.949 69.0761 153.946 68.9143 153.946 68.7352C153.801 69.0245 153.567 69.269 153.243 69.4687C152.919 69.6685 152.527 69.7684 152.065 69.7684ZM152.262 68.9418C152.551 68.9418 152.813 68.8902 153.047 68.7868C153.288 68.6835 153.477 68.532 153.615 68.3322C153.76 68.1325 153.832 67.888 153.832 67.5987V67.2267H152.21C151.873 67.2267 151.607 67.2956 151.414 67.4334C151.222 67.5642 151.125 67.7743 151.125 68.0636C151.125 68.3185 151.215 68.5285 151.394 68.6938C151.58 68.8592 151.869 68.9418 152.262 68.9418ZM156.089 69.7684C156.041 69.7684 155.989 69.7649 155.934 69.758C155.886 69.7511 155.834 69.7442 155.779 69.7374V68.8282C155.8 68.835 155.851 68.8385 155.934 68.8385C156.141 68.8385 156.309 68.7489 156.44 68.5699C156.571 68.3839 156.664 68.0602 156.719 67.5987C156.781 67.1303 156.812 66.4759 156.812 65.6356V64.1892H160.738V69.665H159.829V64.995H157.721V65.8423C157.721 66.6068 157.687 67.2439 157.618 67.7536C157.549 68.2565 157.446 68.656 157.308 68.9521C157.177 69.2483 157.008 69.4584 156.802 69.5824C156.595 69.7064 156.358 69.7684 156.089 69.7684Z" fill="#81819A"/>
<g filter="url(#filter0_d_4142_6158)">
<circle cx="151.319" cy="101.478" r="25.3291" fill="#F17E00"/>
<path d="M142.773 98.7659C143.209 97.5311 143.917 96.37 144.914 95.3788C148.454 91.8387 154.192 91.8387 157.732 95.3788L158.701 96.353H156.758C155.755 96.353 154.945 97.1629 154.945 98.1655C154.945 99.168 155.755 99.978 156.758 99.978H163.096C164.098 99.978 164.908 99.168 164.908 98.1655V91.8217C164.908 90.8192 164.098 90.0092 163.096 90.0092C162.093 90.0092 161.283 90.8192 161.283 91.8217V93.8155L160.292 92.8186C155.336 87.8625 147.304 87.8625 142.348 92.8186C140.966 94.2006 139.97 95.8262 139.358 97.5651C139.024 98.511 139.522 99.5418 140.462 99.876C141.403 100.21 142.439 99.7118 142.773 98.7715V98.7659ZM139.029 103.677C138.746 103.762 138.474 103.915 138.253 104.141C138.027 104.368 137.874 104.64 137.795 104.934C137.778 105.002 137.761 105.076 137.749 105.149C137.732 105.246 137.727 105.342 137.727 105.438V111.759C137.727 112.762 138.537 113.572 139.539 113.572C140.542 113.572 141.352 112.762 141.352 111.759V109.771L142.348 110.762C147.304 115.713 155.336 115.713 160.287 110.762C161.669 109.38 162.671 107.755 163.283 106.022C163.617 105.076 163.119 104.045 162.178 103.711C161.238 103.376 160.202 103.875 159.867 104.815C159.431 106.05 158.723 107.211 157.726 108.202C154.186 111.742 148.449 111.742 144.909 108.202L144.903 108.197L143.934 107.228H145.883C146.885 107.228 147.695 106.418 147.695 105.415C147.695 104.413 146.885 103.603 145.883 103.603H139.562C139.471 103.603 139.38 103.609 139.29 103.62C139.199 103.631 139.114 103.648 139.029 103.677Z" fill="white"/>
</g>
<defs>
<filter id="filter0_d_4142_6158" x="115.09" y="69.2484" width="72.4582" height="72.4582" filterUnits="userSpaceOnUse" color-interpolation-filters="sRGB">
<feFlood flood-opacity="0" result="BackgroundImageFix"/>
<feColorMatrix in="SourceAlpha" type="matrix" values="0 0 0 0 0 0 0 0 0 0 0 0 0 0 0 0 0 0 127 0" result="hardAlpha"/>
<feOffset dy="4"/>
<feGaussianBlur stdDeviation="5.45"/>
<feComposite in2="hardAlpha" operator="out"/>
<feColorMatrix type="matrix" values="0 0 0 0 0 0 0 0 0 0 0 0 0 0 0 0 0 0 0.13 0"/>
<feBlend mode="normal" in2="BackgroundImageFix" result="effect1_dropShadow_4142_6158"/>
<feBlend mode="normal" in="SourceGraphic" in2="effect1_dropShadow_4142_6158" result="shape"/>
</filter>
</defs>
</svg>
