<svg width="69" height="22" viewBox="0 0 69 22" fill="none" xmlns="http://www.w3.org/2000/svg">
<g clip-path="url(#clip0_4301_476)">
<path d="M15.2125 3.88511L12.6876 12.72H12.2556L9.73075 3.88511C9.2988 2.39008 7.94326 1.36084 6.39407 1.36084H0.338867V20.5933H6.40152V9.22661H6.83352L10.3043 20.5933H14.639L18.1023 9.22661H18.5343V20.5933H24.5969V1.36084H18.5417C17 1.36084 15.6445 2.39008 15.2125 3.88511ZM48.7804 20.5933H54.8805V14.9062H61.0178C64.2277 14.9062 66.9611 13.0731 68.0188 10.4963H48.7804V20.5933ZM37.9735 3.38927L33.7058 12.7276H33.2738V1.36084H27.2112V20.5933H32.3577C33.7133 20.5933 34.942 19.797 35.5081 18.5649L39.7758 9.23413H40.208V20.5933H46.2705V1.36084H41.1239C39.7683 1.36084 38.5396 2.15719 37.9735 3.38927Z" fill="#006848"/>
<path d="M61.296 0.48584C63.0462 0.48584 64.6328 1.16198 65.8321 2.27386C67.1726 3.50594 68.0141 5.27896 68.0141 7.2548C68.0141 7.66045 67.9695 8.05866 67.9024 8.4493H56.6412C52.8276 8.4493 49.5952 5.92501 48.5081 2.43914C48.4929 2.40157 48.4856 2.3565 48.4708 2.31142C48.441 2.20625 48.4184 2.09356 48.389 1.98838C48.2772 1.50005 48.2027 1.00422 48.1729 0.48584H61.296Z" fill="url(#paint0_linear_4301_476)"/>
</g>
<defs>
<linearGradient id="paint0_linear_4301_476" x1="68.0141" y1="25.3917" x2="48.2941" y2="25.3917" gradientUnits="userSpaceOnUse">
<stop stop-color="#1E5CD8"/>
<stop offset="1" stop-color="#02AFFF"/>
</linearGradient>
<clipPath id="clip0_4301_476">
<rect width="68" height="21" fill="white" transform="translate(0.230469 0.48584)"/>
</clipPath>
</defs>
</svg>
