<svg width="65" height="22" viewBox="0 0 65 22" fill="none" xmlns="http://www.w3.org/2000/svg">
<g clip-path="url(#clip0_4301_479)">
<path fill-rule="evenodd" clip-rule="evenodd" d="M16.2419 21.3208H10.7369L6.60882 5.02963C6.4129 4.28022 5.99686 3.61771 5.3849 3.30547C3.85766 2.52077 2.17476 1.89627 0.338867 1.58131V0.9541H9.207C10.4309 0.9541 11.3489 1.89627 11.5019 2.9905L13.6437 14.7419L19.146 0.9541H24.498L16.2419 21.3208ZM27.5578 21.3208H22.3588L26.6399 0.9541H31.8389L27.5578 21.3208ZM38.5654 6.59776C38.7184 5.50081 39.6363 4.87361 40.7072 4.87361C42.3901 4.71612 44.2233 5.03107 45.7532 5.81306L46.6714 1.42801C45.1415 0.800803 43.4584 0.48584 41.9312 0.48584C36.8851 0.48584 33.2134 3.30693 33.2134 7.22225C33.2134 10.2008 35.8142 11.7648 37.6501 12.707C39.6363 13.6464 40.4013 14.2736 40.2483 15.2131C40.2483 16.6223 38.7184 17.2495 37.1911 17.2495C35.3552 17.2495 33.5193 16.7797 31.8391 15.9951L30.9212 20.3828C32.757 21.1648 34.7433 21.4798 36.5792 21.4798C42.2371 21.6345 45.7532 18.8162 45.7532 14.5859C45.7532 9.25863 38.5654 8.94639 38.5654 6.59776ZM63.9483 21.3208L59.8201 0.9541H55.3858C54.4681 0.9541 53.5503 1.58131 53.2442 2.52077L45.5999 21.3208H50.952L52.0204 18.3449H58.5963L59.208 21.3208H63.9483ZM56.1508 6.43825L57.6781 14.1141H53.397L56.1508 6.43825Z" fill="white"/>
</g>
<defs>
<clipPath id="clip0_4301_479">
<rect width="64" height="21" fill="white" transform="translate(0.230469 0.48584)"/>
</clipPath>
</defs>
</svg>
