<svg width="36" height="22" viewBox="0 0 36 22" fill="none" xmlns="http://www.w3.org/2000/svg">
<g clip-path="url(#clip0_4301_471)">
<path d="M22.4081 2.68555H13.1279V18.8598H22.4081V2.68555Z" fill="#FF5F00"/>
<path d="M13.7181 10.7725C13.7167 9.21624 14.0804 7.67994 14.7818 6.27937C15.4833 4.87875 16.5041 3.6504 17.7674 2.6868C16.4343 1.67287 14.8699 0.982098 13.2046 0.672117C11.5393 0.362139 9.8216 0.441953 8.19472 0.904898C6.56784 1.36784 5.07901 2.20049 3.85251 3.33335C2.62601 4.46621 1.6974 5.86639 1.1442 7.41709C0.590983 8.96779 0.429215 10.624 0.672393 12.2475C0.91557 13.871 1.55664 15.4147 2.54209 16.7497C3.52755 18.0847 4.82882 19.1724 6.33728 19.9219C7.84573 20.6714 9.51763 21.061 11.2134 21.0582C13.5921 21.0612 15.9019 20.2859 17.7674 18.8582C16.5041 17.8946 15.4833 16.6663 14.7818 15.2657C14.0804 13.8651 13.7167 12.3288 13.7181 10.7725Z" fill="#EB001B"/>
<path d="M33.9119 17.1456V16.8142H34.0508V16.7456H33.6904V16.8142H33.8293V17.1456H33.9119ZM34.5942 17.1456V16.7456H34.4879L34.3638 17.0313L34.2398 16.7456H34.1305V17.1456H34.2073V16.8427L34.3225 17.1027H34.4023L34.5174 16.8427V17.1456H34.5942Z" fill="#F79E1B"/>
<path d="M34.925 10.7717C34.9317 12.6994 34.3764 14.5897 33.3229 16.2259C32.2694 17.8621 30.7603 19.1779 28.9689 20.0221C27.1775 20.8663 25.1763 21.2049 23.195 20.9989C21.2137 20.7929 19.3326 20.0507 17.7676 18.8575C19.0301 17.893 20.0503 16.6645 20.7517 15.2641C21.4532 13.8637 21.8176 12.3278 21.8176 10.7717C21.8176 9.21558 21.4532 7.67971 20.7517 6.27931C20.0503 4.87891 19.0301 3.6504 17.7676 2.686C19.3326 1.49277 21.2137 0.750564 23.195 0.544556C25.1763 0.338549 27.1775 0.67709 28.9689 1.52133C30.7603 2.36557 32.2694 3.68129 33.3229 5.31751C34.3764 6.95371 34.9317 8.8441 34.925 10.7717Z" fill="#F79E1B"/>
</g>
<defs>
<clipPath id="clip0_4301_471">
<rect width="35" height="21" fill="white" transform="translate(0.230469 0.48584)"/>
</clipPath>
</defs>
</svg>
