<svg width="105" height="30" viewBox="0 0 105 30" fill="none" xmlns="http://www.w3.org/2000/svg">
<path d="M26.5555 11.7599L24.8871 22.3084C24.7795 22.7927 24.5104 23.0618 24.026 23.0618C23.8108 23.0618 23.6493 23.008 23.5417 22.8465C23.434 22.6851 23.3802 22.5236 23.434 22.2545L25.1024 11.7061C25.21 11.2217 25.4791 10.9526 25.9635 10.9526C26.1788 10.9526 26.3402 11.0064 26.4479 11.1679C26.6093 11.3293 26.6093 11.4908 26.5555 11.7599ZM26.2864 8.74602C23.6493 8.74602 22.0347 9.76857 21.6042 12.1366L20.0434 21.9854C19.7744 24.192 21.2275 25.3222 23.7569 25.3222C26.3941 25.3222 28.0086 24.3535 28.3854 21.9854L29.9461 12.2442C30.3228 9.87621 28.9235 8.74602 26.2864 8.74602Z" fill="#B9B9B9"/>
<path d="M68.4266 25.1603L71.602 4.92445H68.1037L64.8746 25.1603H68.4266Z" fill="#B9B9B9"/>
<path d="M38.1805 8.85322V8.74559C36.9427 8.58413 35.5434 8.85322 34.6823 9.9296L34.0364 8.90704H31.9375L29.3542 25.2141H32.8524L34.7899 13.1049C35.059 11.4365 36.6197 11.6518 37.6961 11.9209L38.1805 8.85322ZM39.6874 4.92445L36.4583 25.1603H39.9565L43.1856 4.92445H39.6874Z" fill="#B9B9B9"/>
<path d="M48.5138 11.7594L46.8454 22.3079C46.7378 22.7923 46.4687 23.0614 45.9843 23.0614C45.7691 23.0614 45.6076 23.0076 45.5 22.8461C45.3923 22.6847 45.3385 22.5232 45.3923 22.2541L47.0607 11.7594C47.1683 11.2751 47.4374 11.006 47.9218 11.006C48.1371 11.006 48.2985 11.0598 48.4062 11.2213C48.5138 11.3289 48.5676 11.5442 48.5138 11.7594ZM49.5364 4.92445L48.8367 9.44523C48.3524 8.96086 47.6527 8.74559 46.7378 8.74559C44.8541 8.74559 43.9392 9.71433 43.6701 11.598L41.9479 22.5232C41.625 24.4069 42.6476 25.3756 44.5312 25.3756C45.7152 25.3756 46.5763 24.9989 47.2222 24.1916L47.8142 25.2141H49.9131L53.1422 4.97827H49.5364V4.92445Z" fill="#B9B9B9"/>
<path d="M86.4559 8.69254C83.7649 8.69254 82.2042 9.60746 81.7736 12.0831L81.5584 13.1595C81.2893 14.6664 81.6122 15.9581 82.7962 16.9268L84.8413 18.7567C85.218 19.0796 85.3795 19.5101 85.3257 19.9407L84.9489 22.2549C84.8413 22.7392 84.5722 23.0083 84.0878 23.0083C83.8726 23.0083 83.7111 22.9545 83.6035 22.7931C83.4958 22.6316 83.442 22.4701 83.4958 22.2011L83.9264 19.3487H80.5896L80.1591 21.8781C79.8361 24.1385 81.3431 25.2687 83.7649 25.2687C86.6173 25.2687 88.0704 24.3 88.501 21.932L88.7701 20.4789C89.0392 18.9719 88.8239 17.5188 87.6399 16.6039L85.4871 14.7202C85.0566 14.3973 84.8951 14.0206 85.0028 13.4824L85.2718 11.7064C85.3795 11.222 85.6486 10.9529 86.1329 10.9529C86.3482 10.9529 86.5097 11.0067 86.6173 11.1682C86.725 11.3297 86.7788 11.4911 86.725 11.7602L86.3482 14.1282H89.7926L90.1155 12.2446C90.4923 10.1995 89.4697 8.69254 86.4559 8.69254Z" fill="#B9B9B9"/>
<path d="M96.2511 8.69254C93.5601 8.69254 91.9994 9.60746 91.5688 12.0831L91.3536 13.1595C91.0845 14.6664 91.4074 15.9581 92.5914 16.9268L94.6365 18.7567C95.0132 19.0796 95.1747 19.5101 95.1209 19.9407L94.7441 22.2549C94.6365 22.7392 94.3674 23.0083 93.883 23.0083C93.6678 23.0083 93.5063 22.9545 93.3987 22.7931C93.291 22.6316 93.2372 22.4701 93.291 22.2011L93.7216 19.3487H90.3848L89.9543 21.8781C89.6313 24.1385 91.1383 25.2687 93.5601 25.2687C96.4125 25.2687 97.8656 24.3 98.2962 21.932L98.5653 20.4789C98.8344 18.9719 98.6191 17.5188 97.4351 16.6039L95.2823 14.7202C94.8518 14.3973 94.6903 14.0206 94.798 13.4824L95.067 11.7064C95.1747 11.222 95.4438 10.9529 95.9282 10.9529C96.1434 10.9529 96.3049 11.0067 96.4125 11.1682C96.5201 11.3297 96.574 11.4911 96.5202 11.7602L96.1434 14.1282H99.5878L99.9107 12.2446C100.287 10.1995 99.2649 8.69254 96.2511 8.69254Z" fill="#B9B9B9"/>
<path d="M75.2077 22.3084C75.1001 22.7927 74.831 23.0618 74.3466 23.0618C74.1313 23.0618 73.9699 23.008 73.8623 22.8465C73.7546 22.7389 73.7546 22.5774 73.7546 22.416C73.7546 22.3622 73.7546 22.3084 73.7546 22.2545L74.1852 19.4021C74.2928 18.8101 74.5619 18.4334 75.1001 18.1105L75.9074 17.6799L75.2077 22.3084ZM76.6608 8.74602C74.0237 8.74602 72.3553 9.76857 71.9248 12.1366L71.6019 14.1817H75.1001L75.4768 11.7599C75.5844 11.2755 75.8535 11.0064 76.3379 11.0064C76.5532 11.0064 76.7147 11.0602 76.8223 11.2217C76.9299 11.3831 76.9837 11.5446 76.9299 11.8137L76.4456 14.9352L73.2164 16.6574C71.7095 17.4647 70.956 18.4872 70.6869 20.1556L70.3102 22.5236C69.9873 24.4073 71.0099 25.376 72.8935 25.376C74.0775 25.376 74.9386 24.9993 75.5845 24.192L76.1765 25.2146H78.2754L80.3205 12.2442C80.6972 9.82239 79.0827 8.74602 76.6608 8.74602Z" fill="#B9B9B9"/>
<path d="M62.2912 4.76323C59.6541 4.76323 57.8243 5.83961 57.4475 8.20764L55.2948 21.7162C54.918 24.0304 56.2635 25.322 59.3312 25.322C61.8607 25.322 63.5829 24.2456 64.0134 21.8776L64.8207 17.1416H61.2687V17.1954L60.4614 22.2543C60.4076 22.7925 60.0846 23.0616 59.6003 23.0616C59.385 23.0616 59.1697 23.0078 59.0621 22.8463C58.9545 22.6849 58.9006 22.4696 58.9544 22.2005L61.2687 7.8309C61.3763 7.29272 61.6454 7.02362 62.1298 7.02362C62.345 7.02362 62.5603 7.07744 62.6679 7.2389C62.7756 7.40035 62.8294 7.61563 62.7756 7.88472L62.0759 12.0826H65.628L66.22 8.36909C66.4891 5.89343 64.9283 4.76323 62.2912 4.76323Z" fill="#B9B9B9"/>
<path d="M102.332 12.7285L100.772 22.5236C100.395 24.7839 99.8568 27.6363 94.5287 27.6363H59.2774C56.6941 27.6363 54.9181 27.0982 53.8955 25.8065C52.9268 24.6225 52.6577 23.4385 52.6577 23.4385L51.958 27.6902H23.757C21.0661 27.6902 19.5591 26.9367 18.8057 26.0756C18.8057 26.0756 18.8057 26.0218 18.7518 26.0218L18.2675 27.6902H2.33711V2.34151H25.9097L24.6719 6.3241H36.8888L37.5346 2.34151H55.9944L55.4563 6.16264L56.3712 5.08627C57.8781 3.31025 60.0309 2.34151 62.2912 2.34151H74.5619L73.9161 6.53937L74.5081 6.43174C75.1539 6.27028 75.9074 6.21646 76.6609 6.21646C78.4907 6.21646 79.9976 6.70083 81.1278 7.61575L81.3969 7.83102L81.666 7.61575C82.9038 6.70083 84.5184 6.21646 86.5097 6.21646C88.3934 6.21646 89.9003 6.64701 90.9767 7.56193L91.1919 7.77721L91.461 7.56193C92.6451 6.64701 94.3134 6.21646 96.3047 6.21646C98.6189 6.21646 100.287 6.86229 101.418 8.20776C102.063 9.01504 102.763 10.4681 102.332 12.7285ZM0.776367 29.1971H19.3977L19.6129 28.5513C20.6355 29.0894 21.981 29.1971 23.757 29.1971H53.3573L53.6264 27.6363C54.9719 28.7127 56.8017 29.1971 59.3312 29.1971H94.5825C101.256 29.1971 102.01 25.053 102.386 22.7927L103.947 12.9976C104.485 10.1452 103.516 8.26157 102.602 7.1852C101.202 5.463 99.0495 4.65572 96.3047 4.6019C94.3134 4.6019 92.6451 5.03245 91.2458 5.78591C89.9541 4.97863 88.3934 4.6019 86.5097 4.6019C84.5184 4.6019 82.7962 5.03245 81.3969 5.83973C80.1053 5.03245 78.5445 4.6019 76.6609 4.6019C76.3918 4.6019 76.0689 4.6019 75.7998 4.65572L76.3918 0.780762H62.2912C60.6767 0.780762 59.0621 1.21131 57.6628 2.01859L57.8243 0.780762H36.243L35.5971 4.76335H26.8247L28.0087 0.780762H0.776367V29.1971Z" fill="#B9B9B9"/>
<path d="M16.1686 25.1067L22.3578 4.87082H18.8595L15.6304 15.0964H15.4151L15.4689 4.87082H11.594L8.52632 15.1502H8.31105V4.87082H4.86665V25.1067H8.58014L12.0245 13.4818H12.2398L12.4551 25.1067H16.1686Z" fill="#B9B9B9"/>
</svg>
