<svg width="84" height="30" viewBox="0 0 84 30" fill="none" xmlns="http://www.w3.org/2000/svg">
<path d="M22.6713 19.8751L27.6944 29.1972H20.5949C17.797 24.0047 22.6713 19.8751 22.6713 19.8751ZM38.031 0.780884C34.3596 0.780884 30.1673 1.28445 23.1463 8.11784L18.679 12.4658L15.4451 6.46413H8.34534L14.0218 16.9986L7.35386 23.4885C3.63085 27.112 2.08103 28.2982 0.161804 28.9485C0.132324 29.0295 0.102053 29.1126 0.0712891 29.1971H2.0509C4.21652 29.1971 10.3488 29.1971 17.484 22.0619L33.0818 6.46414C36.7406 2.80538 39.4542 1.48909 40.7789 1.02518L40.8678 0.780884H38.031Z" fill="#B9B9B9"/>
<path d="M30.5245 29.1972L37.7643 9.30582H53.9261L52.1161 14.2787H42.1719L40.7032 18.3134H49.2551L47.5379 23.0312H38.9846L36.7403 29.1972L30.5245 29.1972Z" fill="#B9B9B9"/>
<path d="M49.5279 29.1972L56.7676 9.30582H62.9799L55.7399 29.1972L49.5279 29.1972Z" fill="#B9B9B9"/>
<path d="M64.0119 14.2786L65.8219 9.3058H83.6344L81.8245 14.2786H76.2676L70.8376 29.1972H64.6217L70.0515 14.2786H64.0119Z" fill="#B9B9B9"/>
</svg>
