<svg width="452" height="383" viewBox="0 0 452 383" fill="none" xmlns="http://www.w3.org/2000/svg">
<g filter="url(#filter0_d_6301_1157)">
<path d="M222.81 189.121C222.251 193.603 218.67 196.845 214.812 196.364L40.7709 174.66C36.9115 174.178 34.2374 170.157 34.7964 165.675L54.3456 8.91348C54.9045 4.43133 58.4844 1.18976 62.3438 1.67105L236.385 23.3752C240.243 23.8563 242.918 27.878 242.36 32.3602L222.81 189.121Z" fill="#F3F5F9"/>
<path d="M78.8574 3.73145L57.2845 176.72" stroke="#D9D9D9" stroke-width="0.222425" stroke-miterlimit="10"/>
<path d="M102.357 6.66113L80.7845 179.649" stroke="#D9D9D9" stroke-width="0.222425" stroke-miterlimit="10"/>
<path d="M125.861 9.59277L104.288 182.581" stroke="#D9D9D9" stroke-width="0.222425" stroke-miterlimit="10"/>
<path d="M149.361 12.5225L127.788 185.511" stroke="#D9D9D9" stroke-width="0.222425" stroke-miterlimit="10"/>
<path d="M172.865 15.4541L151.292 188.442" stroke="#D9D9D9" stroke-width="0.222425" stroke-miterlimit="10"/>
<path d="M196.365 18.3857L174.792 191.374" stroke="#D9D9D9" stroke-width="0.222425" stroke-miterlimit="10"/>
<path d="M219.869 21.3154L198.296 194.304" stroke="#D9D9D9" stroke-width="0.222425" stroke-miterlimit="10"/>
<path d="M33.7832 173.788L221.796 197.235" stroke="#D9D9D9" stroke-width="0.222425" stroke-miterlimit="10"/>
<path d="M42.9334 100.414C54.6829 101.88 53.21 119.534 65.0734 114.235C77.9785 108.469 85.3549 47.2833 97.1035 48.7484C108.854 50.2138 103.372 95.2742 114.623 99.6506C124.893 103.645 129.145 86.5143 139.388 92.4497C150.166 98.6955 145.466 139.399 157.216 140.864C172.671 142.792 175.942 76.698 189.68 71.9383C199.567 68.5132 199.132 91.8512 210.885 93.3169C222.639 94.7826 225.171 74.4792 236.924 75.9449" stroke="#3CAAE1" stroke-width="0.889701" stroke-miterlimit="10"/>
<path d="M157.068 142.066C157.847 142.163 158.547 141.704 158.629 141.041C158.712 140.377 158.147 139.761 157.367 139.663C156.587 139.566 155.888 140.025 155.805 140.689C155.723 141.352 156.288 141.969 157.068 142.066Z" fill="#F3F5F9" stroke="#3CAAE1" stroke-width="0.889701" stroke-miterlimit="10"/>
<path d="M145.722 201.754L145.824 200.939L147.483 201.146L148.121 196.03L146.315 197.005L146.441 195.992L148.268 195.009L149.202 195.126L148.437 201.265L149.798 201.435L149.696 202.25L145.722 201.754ZM152.866 202.746C152.489 202.699 152.167 202.608 151.901 202.474C151.635 202.34 151.417 202.175 151.247 201.979C151.083 201.784 150.964 201.574 150.891 201.349C150.818 201.125 150.789 200.899 150.804 200.673L151.738 200.789C151.74 201.045 151.845 201.283 152.052 201.504C152.267 201.726 152.573 201.862 152.97 201.911C153.421 201.967 153.792 201.873 154.085 201.627C154.379 201.374 154.557 200.996 154.62 200.493C154.668 200.109 154.637 199.792 154.527 199.543C154.417 199.287 154.257 199.092 154.045 198.958C153.839 198.825 153.614 198.743 153.369 198.712C153.012 198.668 152.722 198.699 152.5 198.806C152.285 198.914 152.113 199.047 151.986 199.206L151.152 199.102L151.61 195.426L155.733 195.94L155.631 196.755L152.442 196.357L152.201 198.294C152.397 198.124 152.613 198.006 152.85 197.941C153.087 197.877 153.344 197.862 153.622 197.897C154.086 197.954 154.472 198.097 154.78 198.323C155.088 198.55 155.308 198.857 155.442 199.243C155.583 199.624 155.62 200.079 155.554 200.609C155.492 201.106 155.336 201.524 155.085 201.862C154.841 202.202 154.528 202.449 154.145 202.603C153.763 202.757 153.336 202.804 152.866 202.746ZM157.238 203.291C157.112 203.275 157 203.228 156.903 203.148C156.804 203.075 156.728 202.982 156.675 202.868C156.629 202.754 156.614 202.635 156.629 202.509C156.654 202.31 156.741 202.153 156.89 202.037C157.046 201.922 157.219 201.876 157.411 201.9C157.604 201.924 157.758 202.011 157.873 202.16C157.996 202.309 158.045 202.484 158.02 202.682C158.004 202.808 157.957 202.92 157.877 203.018C157.805 203.116 157.712 203.189 157.598 203.235C157.491 203.289 157.37 203.307 157.238 203.291ZM157.746 199.218C157.62 199.202 157.508 199.158 157.409 199.085C157.312 199.006 157.236 198.909 157.183 198.795C157.137 198.681 157.122 198.562 157.137 198.436C157.162 198.237 157.249 198.08 157.398 197.964C157.554 197.849 157.727 197.803 157.919 197.827C158.111 197.851 158.265 197.938 158.381 198.087C158.504 198.236 158.553 198.411 158.528 198.609C158.512 198.735 158.465 198.847 158.385 198.945C158.313 199.043 158.219 199.119 158.105 199.172C157.998 199.219 157.878 199.234 157.746 199.218ZM161.806 203.861C161.468 203.818 161.157 203.723 160.873 203.573C160.59 203.416 160.35 203.188 160.152 202.888C159.954 202.587 159.817 202.2 159.741 201.727C159.673 201.247 159.682 200.663 159.768 199.975L159.793 199.776C159.873 199.133 160.003 198.605 160.183 198.19C160.369 197.769 160.595 197.444 160.859 197.215C161.123 196.986 161.411 196.833 161.723 196.758C162.035 196.682 162.36 196.666 162.698 196.708C163.036 196.75 163.346 196.846 163.63 196.996C163.914 197.146 164.156 197.364 164.356 197.651C164.555 197.938 164.691 198.308 164.762 198.761C164.841 199.208 164.84 199.753 164.76 200.395L164.735 200.594C164.65 201.283 164.511 201.851 164.321 202.298C164.138 202.739 163.914 203.081 163.648 203.324C163.383 203.566 163.094 203.729 162.781 203.811C162.469 203.886 162.144 203.903 161.806 203.861ZM161.907 203.046C162.119 203.072 162.323 203.061 162.517 203.011C162.712 202.955 162.892 202.836 163.056 202.655C163.227 202.467 163.375 202.2 163.499 201.852C163.631 201.499 163.731 201.04 163.802 200.478L163.826 200.279C163.912 199.59 163.906 199.051 163.806 198.662C163.713 198.274 163.556 197.995 163.335 197.827C163.121 197.659 162.874 197.557 162.596 197.523C162.318 197.488 162.051 197.525 161.795 197.635C161.546 197.745 161.326 197.976 161.134 198.329C160.948 198.682 160.813 199.204 160.727 199.892L160.702 200.091C160.632 200.654 160.614 201.123 160.648 201.497C160.689 201.865 160.767 202.161 160.88 202.383C161.001 202.6 161.149 202.76 161.325 202.862C161.508 202.959 161.702 203.02 161.907 203.046ZM167.966 204.629C167.629 204.587 167.318 204.491 167.034 204.341C166.75 204.185 166.51 203.956 166.312 203.656C166.114 203.355 165.977 202.968 165.902 202.495C165.834 202.016 165.843 201.432 165.929 200.743L165.953 200.544C166.034 199.902 166.163 199.373 166.343 198.958C166.53 198.538 166.755 198.213 167.019 197.983C167.283 197.754 167.571 197.602 167.884 197.526C168.196 197.451 168.521 197.434 168.858 197.476C169.196 197.518 169.507 197.614 169.791 197.764C170.075 197.914 170.317 198.132 170.516 198.419C170.716 198.707 170.851 199.077 170.923 199.529C171.001 199.976 171.001 200.521 170.921 201.164L170.896 201.362C170.81 202.051 170.672 202.619 170.482 203.066C170.299 203.507 170.075 203.849 169.809 204.092C169.543 204.335 169.254 204.497 168.941 204.579C168.629 204.654 168.304 204.671 167.966 204.629ZM168.068 203.814C168.28 203.841 168.483 203.829 168.678 203.779C168.873 203.723 169.053 203.604 169.216 203.423C169.388 203.236 169.535 202.968 169.659 202.62C169.791 202.267 169.892 201.809 169.962 201.246L169.987 201.047C170.073 200.358 170.066 199.819 169.966 199.43C169.874 199.042 169.717 198.764 169.496 198.595C169.281 198.427 169.035 198.325 168.757 198.291C168.479 198.256 168.212 198.293 167.956 198.403C167.707 198.513 167.486 198.744 167.294 199.097C167.109 199.451 166.973 199.972 166.887 200.661L166.863 200.859C166.792 201.422 166.774 201.891 166.808 202.265C166.85 202.633 166.927 202.929 167.041 203.151C167.162 203.368 167.31 203.528 167.485 203.631C167.668 203.727 167.863 203.789 168.068 203.814Z" fill="white"/>
<path d="M180.026 206.031L180.128 205.217L181.787 205.424L182.425 200.307L180.618 201.283L180.744 200.269L182.572 199.287L183.506 199.403L182.74 205.542L184.101 205.712L184 206.527L180.026 206.031ZM187.418 207.054C186.65 206.958 186.066 206.626 185.666 206.059C185.273 205.485 185.145 204.652 185.281 203.559L185.306 203.36C185.42 202.446 185.631 201.73 185.937 201.21C186.245 200.683 186.613 200.322 187.041 200.126C187.47 199.924 187.926 199.853 188.409 199.914C188.767 199.958 189.081 200.055 189.352 200.203C189.623 200.351 189.84 200.553 190.003 200.809C190.167 201.058 190.267 201.359 190.304 201.714L189.37 201.597C189.306 201.354 189.185 201.161 189.008 201.017C188.831 200.874 188.597 200.785 188.305 200.748C187.974 200.707 187.666 200.749 187.382 200.875C187.103 201.002 186.861 201.244 186.655 201.602C186.457 201.954 186.306 202.459 186.204 203.119C186.436 202.819 186.723 202.622 187.064 202.53C187.406 202.432 187.733 202.402 188.044 202.441C188.507 202.499 188.897 202.638 189.212 202.859C189.535 203.074 189.769 203.359 189.913 203.713C190.064 204.068 190.109 204.487 190.049 204.971L190.036 205.07C189.982 205.507 189.827 205.885 189.572 206.203C189.317 206.521 189.002 206.757 188.626 206.912C188.251 207.06 187.849 207.108 187.418 207.054ZM187.443 206.21C187.926 206.27 188.309 206.193 188.591 205.98C188.873 205.766 189.043 205.427 189.101 204.964L189.114 204.864C189.171 204.407 189.089 204.041 188.868 203.764C188.646 203.488 188.294 203.319 187.811 203.259C187.327 203.199 186.944 203.276 186.662 203.489C186.38 203.703 186.21 204.038 186.153 204.495L186.141 204.594C186.084 205.051 186.166 205.421 186.386 205.705C186.607 205.981 186.959 206.149 187.443 206.21ZM191.794 207.6C191.668 207.584 191.556 207.536 191.459 207.457C191.36 207.384 191.284 207.291 191.231 207.176C191.185 207.063 191.169 206.943 191.185 206.818C191.21 206.619 191.297 206.462 191.446 206.346C191.601 206.231 191.775 206.185 191.967 206.209C192.159 206.233 192.313 206.319 192.429 206.468C192.552 206.618 192.601 206.792 192.576 206.991C192.56 207.117 192.513 207.229 192.433 207.326C192.36 207.425 192.267 207.497 192.154 207.544C192.046 207.598 191.926 207.616 191.794 207.6ZM192.302 203.527C192.176 203.511 192.064 203.467 191.965 203.394C191.868 203.314 191.792 203.218 191.739 203.103C191.693 202.99 191.677 202.87 191.693 202.744C191.718 202.546 191.805 202.389 191.954 202.273C192.109 202.157 192.283 202.112 192.475 202.136C192.667 202.16 192.821 202.246 192.937 202.395C193.06 202.545 193.109 202.719 193.084 202.918C193.068 203.044 193.021 203.156 192.941 203.253C192.868 203.352 192.775 203.428 192.661 203.481C192.554 203.528 192.434 203.543 192.302 203.527ZM196.362 208.169C196.024 208.127 195.713 208.031 195.429 207.882C195.146 207.725 194.905 207.497 194.707 207.196C194.509 206.896 194.373 206.509 194.297 206.035C194.229 205.556 194.238 204.972 194.324 204.283L194.349 204.085C194.429 203.442 194.559 202.914 194.738 202.499C194.925 202.078 195.151 201.753 195.415 201.524C195.679 201.294 195.967 201.142 196.279 201.067C196.591 200.991 196.916 200.975 197.254 201.017C197.591 201.059 197.902 201.155 198.186 201.304C198.47 201.454 198.712 201.673 198.912 201.96C199.111 202.247 199.247 202.617 199.318 203.07C199.397 203.517 199.396 204.062 199.316 204.704L199.291 204.903C199.205 205.591 199.067 206.159 198.877 206.606C198.694 207.048 198.47 207.39 198.204 207.632C197.939 207.875 197.649 208.037 197.336 208.119C197.024 208.195 196.699 208.211 196.362 208.169ZM196.463 207.355C196.675 207.381 196.878 207.369 197.073 207.32C197.268 207.263 197.448 207.145 197.612 206.963C197.783 206.776 197.931 206.509 198.055 206.161C198.186 205.807 198.287 205.349 198.357 204.786L198.382 204.588C198.468 203.899 198.461 203.36 198.362 202.971C198.269 202.583 198.112 202.304 197.891 202.135C197.677 201.967 197.43 201.866 197.152 201.831C196.874 201.797 196.607 201.834 196.351 201.943C196.102 202.053 195.881 202.285 195.69 202.638C195.504 202.991 195.369 203.512 195.283 204.201L195.258 204.4C195.188 204.963 195.17 205.431 195.204 205.805C195.245 206.174 195.323 206.469 195.436 206.692C195.557 206.909 195.705 207.068 195.881 207.171C196.064 207.268 196.258 207.329 196.463 207.355ZM202.522 208.938C202.184 208.895 201.873 208.8 201.589 208.65C201.306 208.493 201.066 208.265 200.868 207.965C200.67 207.664 200.533 207.277 200.458 206.804C200.39 206.324 200.399 205.74 200.485 205.052L200.509 204.853C200.589 204.21 200.719 203.682 200.899 203.267C201.086 202.846 201.311 202.521 201.575 202.292C201.839 202.063 202.127 201.91 202.439 201.835C202.751 201.759 203.076 201.743 203.414 201.785C203.752 201.827 204.063 201.923 204.347 202.073C204.631 202.222 204.872 202.441 205.072 202.728C205.272 203.015 205.407 203.385 205.478 203.838C205.557 204.285 205.557 204.83 205.476 205.472L205.452 205.671C205.366 206.36 205.228 206.928 205.037 207.375C204.855 207.816 204.63 208.158 204.365 208.401C204.099 208.643 203.81 208.806 203.497 208.888C203.185 208.963 202.86 208.98 202.522 208.938ZM202.624 208.123C202.836 208.149 203.039 208.138 203.233 208.088C203.429 208.032 203.608 207.913 203.772 207.731C203.943 207.544 204.091 207.277 204.215 206.929C204.347 206.576 204.448 206.117 204.518 205.554L204.543 205.356C204.629 204.667 204.622 204.128 204.522 203.739C204.429 203.351 204.272 203.072 204.051 202.904C203.837 202.736 203.591 202.634 203.312 202.599C203.034 202.565 202.767 202.602 202.512 202.711C202.262 202.822 202.042 203.053 201.85 203.406C201.665 203.759 201.529 204.28 201.443 204.969L201.418 205.168C201.348 205.731 201.33 206.199 201.364 206.574C201.406 206.942 201.483 207.238 201.597 207.46C201.717 207.677 201.866 207.837 202.041 207.939C202.224 208.036 202.418 208.097 202.624 208.123Z" fill="white"/>
<path d="M75.5614 193.005L75.663 192.19L77.322 192.397L77.96 187.281L76.1536 188.256L76.28 187.243L78.1075 186.26L79.0413 186.377L78.2757 192.516L79.6367 192.686L79.5351 193.5L75.5614 193.005ZM82.6555 193.99C82.1522 193.928 81.7324 193.788 81.3963 193.571C81.0676 193.349 80.8258 193.076 80.6709 192.754C80.5234 192.426 80.4728 192.077 80.5191 191.706L81.4529 191.823C81.4108 192.16 81.492 192.453 81.6965 192.701C81.9019 192.941 82.2563 193.093 82.7596 193.156C83.2629 193.219 83.6441 193.155 83.9032 192.966C84.1631 192.769 84.3153 192.492 84.3599 192.135C84.4062 191.764 84.3241 191.451 84.1138 191.196C83.9109 190.935 83.5611 190.774 83.0644 190.712L82.3193 190.619L82.4184 189.824L83.1635 189.917C83.6403 189.977 83.9971 189.92 84.2338 189.748C84.4713 189.569 84.6124 189.301 84.657 188.943C84.6999 188.599 84.6307 188.318 84.4494 188.1C84.2689 187.876 83.9335 187.733 83.4435 187.672C82.9732 187.614 82.616 187.673 82.3719 187.851C82.1352 188.024 81.9982 188.259 81.9611 188.557L81.0272 188.44C81.071 188.089 81.2001 187.783 81.4144 187.52C81.6287 187.258 81.9151 187.065 82.2735 186.941C82.6394 186.812 83.0641 186.777 83.5475 186.838C84.0376 186.899 84.4408 187.037 84.7571 187.251C85.0808 187.459 85.3115 187.714 85.449 188.013C85.5931 188.314 85.6445 188.629 85.6032 188.961C85.5537 189.358 85.4056 189.682 85.159 189.934C84.9198 190.18 84.6044 190.336 84.2129 190.401C84.5946 190.577 84.8835 190.821 85.0798 191.135C85.2761 191.449 85.3433 191.854 85.2813 192.351C85.2376 192.702 85.1044 193.015 84.8818 193.289C84.66 193.558 84.3591 193.759 83.9792 193.893C83.6067 194.022 83.1655 194.054 82.6555 193.99ZM87.1256 194.548C86.9997 194.532 86.888 194.485 86.7903 194.405C86.6917 194.332 86.616 194.239 86.5629 194.125C86.5165 194.011 86.5012 193.892 86.5169 193.766C86.5417 193.567 86.6285 193.41 86.7775 193.294C86.9331 193.179 87.1069 193.133 87.299 193.157C87.4911 193.181 87.6451 193.268 87.761 193.417C87.8836 193.566 87.9325 193.741 87.9077 193.939C87.892 194.065 87.8444 194.177 87.765 194.275C87.6922 194.373 87.5991 194.446 87.4857 194.492C87.3781 194.546 87.258 194.564 87.1256 194.548ZM87.6335 190.475C87.5077 190.459 87.3955 190.415 87.297 190.342C87.1993 190.263 87.1239 190.166 87.0709 190.052C87.0245 189.938 87.0091 189.819 87.0248 189.693C87.0496 189.494 87.1365 189.337 87.2855 189.221C87.4411 189.106 87.6149 189.06 87.807 189.084C87.999 189.108 88.153 189.194 88.269 189.343C88.3915 189.493 88.4404 189.667 88.4156 189.866C88.3999 189.992 88.3524 190.104 88.2729 190.201C88.2001 190.3 88.1066 190.376 87.9924 190.429C87.8856 190.476 87.766 190.491 87.6335 190.475ZM91.6934 195.118C91.3556 195.075 91.0448 194.979 90.7608 194.83C90.4776 194.673 90.2371 194.445 90.0391 194.145C89.8412 193.844 89.7045 193.457 89.629 192.984C89.561 192.504 89.5699 191.92 89.6558 191.231L89.6806 191.033C89.7607 190.39 89.8905 189.862 90.0701 189.447C90.257 189.026 90.4825 188.701 90.7465 188.472C91.0105 188.243 91.2986 188.09 91.6106 188.015C91.9227 187.939 92.2476 187.923 92.5854 187.965C92.9232 188.007 93.234 188.103 93.518 188.253C93.802 188.402 94.0438 188.621 94.2434 188.908C94.443 189.195 94.5784 189.565 94.6498 190.018C94.7285 190.465 94.7279 191.01 94.6477 191.652L94.623 191.851C94.5371 192.54 94.399 193.108 94.2087 193.555C94.0259 193.996 93.8017 194.338 93.536 194.581C93.2703 194.823 92.981 194.986 92.6682 195.068C92.3561 195.143 92.0312 195.16 91.6934 195.118ZM91.795 194.303C92.0069 194.329 92.2101 194.318 92.4047 194.268C92.6 194.212 92.7796 194.093 92.9435 193.911C93.1148 193.724 93.2625 193.457 93.3866 193.109C93.5181 192.756 93.6189 192.297 93.6891 191.734L93.7139 191.536C93.7998 190.847 93.793 190.308 93.6936 189.919C93.6008 189.531 93.4438 189.252 93.2227 189.083C93.0083 188.916 92.762 188.814 92.4838 188.779C92.2056 188.745 91.9387 188.782 91.6829 188.891C91.4338 189.002 91.2132 189.233 91.0213 189.586C90.8359 189.939 90.7003 190.46 90.6144 191.149L90.5896 191.348C90.5194 191.911 90.5014 192.379 90.5354 192.754C90.5769 193.122 90.6544 193.417 90.7679 193.64C90.8888 193.857 91.037 194.017 91.2126 194.119C91.3955 194.216 91.5897 194.277 91.795 194.303ZM97.8538 195.886C97.5161 195.844 97.2052 195.748 96.9212 195.598C96.638 195.442 96.3975 195.213 96.1995 194.913C96.0016 194.612 95.8649 194.225 95.7894 193.752C95.7214 193.273 95.7304 192.689 95.8162 192L95.841 191.801C95.9211 191.159 96.051 190.63 96.2305 190.215C96.4174 189.795 96.6429 189.47 96.9069 189.24C97.171 189.011 97.459 188.858 97.7711 188.783C98.0831 188.708 98.408 188.691 98.7458 188.733C99.0836 188.775 99.3945 188.871 99.6784 189.021C99.9624 189.171 100.204 189.389 100.404 189.676C100.603 189.964 100.739 190.334 100.81 190.786C100.889 191.233 100.888 191.778 100.808 192.42L100.783 192.619C100.697 193.308 100.559 193.876 100.369 194.323C100.186 194.764 99.9621 195.106 99.6964 195.349C99.4307 195.591 99.1415 195.754 98.8286 195.836C98.5165 195.911 98.1916 195.928 97.8538 195.886ZM97.9554 195.071C98.1673 195.098 98.3706 195.086 98.5651 195.036C98.7604 194.98 98.9401 194.861 99.1039 194.68C99.2752 194.493 99.4229 194.225 99.547 193.877C99.6785 193.524 99.7794 193.066 99.8496 192.503L99.8743 192.304C99.9602 191.615 99.9535 191.076 99.854 190.687C99.7612 190.299 99.6042 190.021 99.3831 189.852C99.1687 189.684 98.9224 189.582 98.6442 189.548C98.3661 189.513 98.0991 189.55 97.8433 189.66C97.5942 189.77 97.3736 190.001 97.1817 190.354C96.9964 190.708 96.8607 191.229 96.7748 191.918L96.7501 192.116C96.6799 192.679 96.6618 193.148 96.6958 193.522C96.7373 193.89 96.8148 194.186 96.9283 194.408C97.0492 194.625 97.1975 194.785 97.373 194.888C97.556 194.984 97.7501 195.046 97.9554 195.071Z" fill="white"/>
<path d="M111.623 197.501L111.724 196.686L113.383 196.893L114.021 191.777L112.215 192.752L112.341 191.739L114.169 190.756L115.103 190.873L114.337 197.012L115.698 197.182L115.597 197.996L111.623 197.501ZM119.633 198.5L119.843 196.821L116.306 196.38L116.395 195.665L120.401 191.533L121.434 191.662L120.878 196.123L121.772 196.234L121.671 197.049L120.777 196.937L120.567 198.616L119.633 198.5ZM117.401 195.689L119.944 196.006L120.364 192.639L117.401 195.689ZM123.439 199.075C123.313 199.06 123.202 199.012 123.104 198.933C123.005 198.86 122.93 198.766 122.877 198.652C122.83 198.539 122.815 198.419 122.831 198.293C122.855 198.095 122.942 197.937 123.091 197.821C123.247 197.706 123.421 197.661 123.613 197.685C123.805 197.709 123.959 197.795 124.075 197.944C124.197 198.094 124.246 198.268 124.221 198.467C124.206 198.593 124.158 198.704 124.079 198.802C124.006 198.901 123.913 198.973 123.799 199.019C123.692 199.073 123.572 199.092 123.439 199.075ZM123.947 195.002C123.821 194.987 123.709 194.942 123.611 194.87C123.513 194.79 123.438 194.693 123.384 194.579C123.338 194.466 123.323 194.346 123.338 194.22C123.363 194.021 123.45 193.864 123.599 193.748C123.755 193.633 123.929 193.588 124.121 193.612C124.313 193.635 124.467 193.722 124.583 193.871C124.705 194.021 124.754 194.195 124.729 194.394C124.714 194.519 124.666 194.631 124.587 194.729C124.514 194.827 124.42 194.903 124.306 194.956C124.199 195.003 124.08 195.019 123.947 195.002ZM128.007 199.645C127.669 199.603 127.358 199.507 127.074 199.357C126.791 199.201 126.551 198.972 126.353 198.672C126.155 198.372 126.018 197.985 125.943 197.511C125.875 197.032 125.884 196.448 125.969 195.759L125.994 195.56C126.074 194.918 126.204 194.389 126.384 193.974C126.571 193.554 126.796 193.229 127.06 192.999C127.324 192.77 127.612 192.618 127.924 192.542C128.236 192.467 128.561 192.45 128.899 192.492C129.237 192.534 129.548 192.63 129.832 192.78C130.116 192.93 130.357 193.148 130.557 193.436C130.757 193.723 130.892 194.093 130.963 194.546C131.042 194.993 131.041 195.537 130.961 196.18L130.937 196.378C130.851 197.067 130.713 197.635 130.522 198.082C130.34 198.523 130.115 198.865 129.85 199.108C129.584 199.351 129.295 199.513 128.982 199.595C128.67 199.67 128.345 199.687 128.007 199.645ZM128.109 198.83C128.321 198.857 128.524 198.845 128.718 198.795C128.914 198.739 129.093 198.62 129.257 198.439C129.428 198.252 129.576 197.984 129.7 197.637C129.832 197.283 129.933 196.825 130.003 196.262L130.028 196.063C130.113 195.374 130.107 194.836 130.007 194.446C129.914 194.058 129.757 193.78 129.536 193.611C129.322 193.443 129.076 193.342 128.797 193.307C128.519 193.272 128.252 193.31 127.997 193.419C127.747 193.529 127.527 193.761 127.335 194.113C127.15 194.467 127.014 194.988 126.928 195.677L126.903 195.875C126.833 196.438 126.815 196.907 126.849 197.281C126.891 197.649 126.968 197.945 127.081 198.168C127.202 198.384 127.351 198.544 127.526 198.647C127.709 198.744 127.903 198.805 128.109 198.83ZM134.167 200.413C133.83 200.371 133.519 200.275 133.235 200.125C132.952 199.969 132.711 199.741 132.513 199.44C132.315 199.14 132.179 198.753 132.103 198.279C132.035 197.8 132.044 197.216 132.13 196.527L132.155 196.328C132.235 195.686 132.365 195.157 132.544 194.743C132.731 194.322 132.957 193.997 133.221 193.768C133.485 193.538 133.773 193.386 134.085 193.311C134.397 193.235 134.722 193.218 135.059 193.261C135.397 193.303 135.708 193.399 135.992 193.548C136.276 193.698 136.518 193.917 136.717 194.204C136.917 194.491 137.052 194.861 137.124 195.314C137.203 195.761 137.202 196.306 137.122 196.948L137.097 197.147C137.011 197.835 136.873 198.403 136.683 198.85C136.5 199.292 136.276 199.634 136.01 199.876C135.744 200.119 135.455 200.281 135.142 200.363C134.83 200.439 134.505 200.455 134.167 200.413ZM134.269 199.599C134.481 199.625 134.684 199.613 134.879 199.564C135.074 199.507 135.254 199.388 135.418 199.207C135.589 199.02 135.737 198.753 135.861 198.405C135.992 198.051 136.093 197.593 136.163 197.03L136.188 196.831C136.274 196.143 136.267 195.604 136.168 195.215C136.075 194.827 135.918 194.548 135.697 194.379C135.482 194.211 135.236 194.11 134.958 194.075C134.68 194.04 134.413 194.078 134.157 194.187C133.908 194.297 133.687 194.529 133.495 194.881C133.31 195.235 133.174 195.756 133.088 196.445L133.064 196.644C132.993 197.207 132.975 197.675 133.009 198.049C133.051 198.418 133.128 198.713 133.242 198.936C133.363 199.153 133.511 199.312 133.687 199.415C133.87 199.512 134.064 199.573 134.269 199.599Z" fill="white"/>
<path d="M41.7419 188.787L41.8435 187.973L43.5025 188.179L44.1405 183.063L42.3341 184.039L42.4605 183.025L44.288 182.043L45.2218 182.159L44.4562 188.298L45.8172 188.468L45.7156 189.283L41.7419 188.787ZM46.4145 189.37L46.5099 188.605L49.5926 186.538C49.9071 186.335 50.1516 186.154 50.3263 185.994C50.5017 185.827 50.6263 185.665 50.6999 185.506C50.7802 185.347 50.8323 185.172 50.8562 184.98C50.9049 184.59 50.8291 184.254 50.6287 183.973C50.4291 183.686 50.1273 183.517 49.7233 183.467C49.2398 183.407 48.8524 183.493 48.5611 183.726C48.2706 183.952 48.0956 184.303 48.0362 184.78L47.1023 184.664C47.1593 184.207 47.309 183.815 47.5515 183.489C47.8006 183.163 48.1196 182.924 48.5087 182.771C48.9043 182.618 49.3439 182.572 49.8274 182.632C50.2976 182.691 50.6863 182.837 50.9935 183.07C51.3081 183.298 51.5309 183.588 51.6618 183.941C51.8001 184.288 51.8429 184.673 51.79 185.097C51.7504 185.415 51.6511 185.698 51.4923 185.947C51.3342 186.19 51.1281 186.413 50.8741 186.617C50.6266 186.821 50.3415 187.031 50.0187 187.247L47.7281 188.706L51.3839 189.162L51.2823 189.977L46.4145 189.37ZM53.2576 190.324C53.1317 190.308 53.02 190.261 52.9223 190.181C52.8237 190.109 52.7479 190.015 52.6949 189.901C52.6485 189.788 52.6332 189.668 52.6489 189.542C52.6737 189.343 52.7605 189.186 52.9095 189.07C53.0651 188.955 53.2389 188.909 53.431 188.933C53.6231 188.957 53.7771 189.044 53.893 189.193C54.0156 189.343 54.0645 189.517 54.0397 189.716C54.024 189.841 53.9764 189.953 53.897 190.051C53.8242 190.149 53.7311 190.222 53.6177 190.268C53.5101 190.322 53.39 190.341 53.2576 190.324ZM53.7655 186.251C53.6397 186.235 53.5275 186.191 53.429 186.118C53.3312 186.039 53.2559 185.942 53.2029 185.828C53.1565 185.714 53.1411 185.595 53.1568 185.469C53.1816 185.27 53.2685 185.113 53.4175 184.997C53.5731 184.882 53.7469 184.836 53.9389 184.86C54.131 184.884 54.285 184.971 54.4009 185.12C54.5235 185.27 54.5724 185.444 54.5476 185.642C54.5319 185.768 54.4844 185.88 54.4049 185.978C54.3321 186.076 54.2386 186.152 54.1244 186.205C54.0176 186.252 53.898 186.268 53.7655 186.251ZM57.8254 190.894C57.4876 190.852 57.1768 190.756 56.8928 190.606C56.6096 190.45 56.3691 190.221 56.1711 189.921C55.9732 189.62 55.8365 189.233 55.761 188.76C55.693 188.281 55.7019 187.697 55.7878 187.008L55.8126 186.809C55.8927 186.167 56.0225 185.638 56.202 185.223C56.389 184.803 56.6145 184.478 56.8785 184.248C57.1425 184.019 57.4306 183.867 57.7426 183.791C58.0547 183.716 58.3796 183.699 58.7174 183.741C59.0552 183.783 59.366 183.879 59.65 184.029C59.934 184.179 60.1758 184.397 60.3754 184.684C60.575 184.972 60.7104 185.342 60.7818 185.794C60.8605 186.241 60.8599 186.786 60.7797 187.429L60.755 187.627C60.6691 188.316 60.531 188.884 60.3407 189.331C60.1579 189.772 59.9336 190.114 59.668 190.357C59.4023 190.599 59.113 190.762 58.8001 190.844C58.4881 190.919 58.1632 190.936 57.8254 190.894ZM57.927 190.079C58.1389 190.106 58.3421 190.094 58.5367 190.044C58.732 189.988 58.9116 189.869 59.0755 189.688C59.2468 189.501 59.3945 189.233 59.5186 188.885C59.6501 188.532 59.7509 188.074 59.8211 187.511L59.8459 187.312C59.9318 186.623 59.925 186.084 59.8256 185.695C59.7328 185.307 59.5758 185.029 59.3547 184.86C59.1403 184.692 58.894 184.59 58.6158 184.556C58.3376 184.521 58.0707 184.558 57.8149 184.668C57.5658 184.778 57.3452 185.009 57.1533 185.362C56.9679 185.716 56.8323 186.237 56.7464 186.926L56.7216 187.124C56.6514 187.687 56.6334 188.156 56.6674 188.53C56.7089 188.898 56.7864 189.194 56.8999 189.416C57.0208 189.633 57.169 189.793 57.3446 189.896C57.5275 189.992 57.7217 190.054 57.927 190.079ZM63.9858 191.662C63.6481 191.62 63.3372 191.524 63.0532 191.374C62.77 191.218 62.5295 190.989 62.3315 190.689C62.1336 190.389 61.9969 190.002 61.9214 189.528C61.8534 189.049 61.8623 188.465 61.9482 187.776L61.973 187.577C62.0531 186.935 62.183 186.406 62.3625 185.992C62.5494 185.571 62.7749 185.246 63.0389 185.017C63.3029 184.787 63.591 184.635 63.9031 184.559C64.2151 184.484 64.54 184.467 64.8778 184.509C65.2156 184.552 65.5265 184.647 65.8104 184.797C66.0944 184.947 66.3362 185.165 66.5358 185.453C66.7354 185.74 66.8709 186.11 66.9422 186.563C67.0209 187.01 67.0203 187.554 66.9402 188.197L66.9154 188.395C66.8295 189.084 66.6914 189.652 66.5011 190.099C66.3183 190.541 66.0941 190.882 65.8284 191.125C65.5627 191.368 65.2735 191.53 64.9606 191.612C64.6485 191.688 64.3236 191.704 63.9858 191.662ZM64.0874 190.847C64.2993 190.874 64.5026 190.862 64.6971 190.813C64.8924 190.756 65.072 190.637 65.2359 190.456C65.4072 190.269 65.5549 190.001 65.679 189.654C65.8105 189.3 65.9114 188.842 65.9816 188.279L66.0063 188.08C66.0922 187.392 66.0855 186.853 65.986 186.464C65.8932 186.075 65.7362 185.797 65.5151 185.628C65.3007 185.46 65.0544 185.359 64.7762 185.324C64.4981 185.289 64.2311 185.327 63.9753 185.436C63.7262 185.546 63.5056 185.778 63.3137 186.13C63.1284 186.484 62.9927 187.005 62.9068 187.694L62.8821 187.892C62.8119 188.455 62.7938 188.924 62.8278 189.298C62.8693 189.667 62.9468 189.962 63.0603 190.185C63.1812 190.402 63.3294 190.561 63.505 190.664C63.688 190.761 63.8821 190.822 64.0874 190.847Z" fill="white"/>
</g>
<rect x="413.514" y="100.911" width="38.335" height="19.844" rx="4.9742" fill="#1EA0DE"/>
<path d="M429.684 210.278C429.562 228.956 424.13 247.215 414.022 262.922C403.913 278.63 389.545 291.138 372.595 298.986C355.645 306.835 336.812 309.7 318.295 307.247C299.778 304.794 282.34 297.125 268.018 285.134C253.696 273.143 243.08 257.326 237.409 239.529C231.738 221.731 231.247 202.688 235.993 184.622C240.739 166.556 250.526 150.212 264.211 137.499C277.896 124.786 294.915 116.228 313.282 112.825L319.092 144.174C306.673 146.476 295.165 152.263 285.911 160.859C276.657 169.455 270.04 180.506 266.831 192.722C263.622 204.938 263.954 217.815 267.788 229.849C271.622 241.884 278.801 252.579 288.485 260.687C298.17 268.795 309.961 273.981 322.482 275.639C335.003 277.298 347.737 275.361 359.198 270.054C370.66 264.747 380.375 256.289 387.21 245.668C394.046 235.047 397.719 222.701 397.801 210.07L429.684 210.278Z" fill="#F17E00"/>
<path d="M429.684 210.278C429.833 187.258 421.913 164.914 407.298 147.128C392.683 129.342 372.299 117.239 349.687 112.922L343.62 144.703C358.802 147.602 372.488 155.727 382.3 167.669C392.112 179.61 397.43 194.612 397.33 210.067L429.684 210.278Z" fill="#1EA0DE"/>
<path d="M356.709 114.531C339.313 109.87 320.972 110.069 303.682 115.107L312.733 146.17C324.342 142.788 336.656 142.654 348.335 145.783L356.709 114.531Z" fill="#474766"/>
<rect x="178.553" y="139.245" width="38.335" height="19.844" rx="4.9742" fill="#F17E00"/>
<path d="M190.182 152.613C189.327 152.613 188.641 152.33 188.126 151.762C187.617 151.188 187.363 150.292 187.363 149.076V148.855C187.363 147.838 187.496 147.024 187.761 146.412C188.026 145.793 188.38 145.347 188.822 145.075C189.264 144.795 189.754 144.655 190.292 144.655C190.69 144.655 191.047 144.717 191.364 144.843C191.681 144.968 191.946 145.16 192.16 145.417C192.374 145.668 192.525 145.985 192.613 146.368H191.574C191.471 146.11 191.313 145.915 191.099 145.782C190.885 145.65 190.616 145.583 190.292 145.583C189.924 145.583 189.592 145.672 189.297 145.849C189.01 146.025 188.778 146.324 188.601 146.744C188.431 147.157 188.336 147.731 188.313 148.468C188.527 148.107 188.815 147.853 189.176 147.706C189.537 147.551 189.89 147.473 190.237 147.473C190.753 147.473 191.199 147.573 191.574 147.772C191.958 147.964 192.252 148.244 192.459 148.612C192.672 148.98 192.779 149.434 192.779 149.972V150.082C192.779 150.569 192.661 151.003 192.425 151.386C192.19 151.77 191.876 152.072 191.486 152.293C191.095 152.507 190.661 152.613 190.182 152.613ZM190.093 151.685C190.631 151.685 191.04 151.549 191.32 151.276C191.6 151.003 191.74 150.609 191.74 150.093V149.983C191.74 149.474 191.6 149.084 191.32 148.811C191.04 148.538 190.631 148.402 190.093 148.402C189.555 148.402 189.146 148.538 188.866 148.811C188.586 149.084 188.446 149.474 188.446 149.983V150.093C188.446 150.602 188.586 150.996 188.866 151.276C189.146 151.549 189.555 151.685 190.093 151.685ZM194.94 152.503L197.725 145.672H193.613V144.765H198.809V145.616L196.045 152.503H194.94ZM201.354 148.524C200.838 148.524 200.415 148.358 200.083 148.026C199.751 147.687 199.585 147.245 199.585 146.7V146.589C199.585 146.228 199.659 145.911 199.807 145.639C199.961 145.366 200.171 145.152 200.437 144.997C200.709 144.843 201.015 144.765 201.354 144.765C201.7 144.765 202.006 144.843 202.272 144.997C202.537 145.152 202.743 145.366 202.891 145.639C203.045 145.911 203.123 146.228 203.123 146.589V146.7C203.123 147.245 202.957 147.687 202.625 148.026C202.294 148.358 201.87 148.524 201.354 148.524ZM201.354 147.683C201.605 147.683 201.804 147.602 201.951 147.44C202.098 147.278 202.172 147.031 202.172 146.7V146.589C202.172 146.258 202.098 146.011 201.951 145.849C201.804 145.686 201.605 145.605 201.354 145.605C201.104 145.605 200.905 145.686 200.757 145.849C200.61 146.011 200.536 146.258 200.536 146.589V146.7C200.536 147.031 200.61 147.278 200.757 147.44C200.905 147.602 201.104 147.683 201.354 147.683ZM200.691 152.613L205.997 144.876H207.102L201.796 152.613H200.691ZM206.439 152.724C205.923 152.724 205.499 152.558 205.168 152.227C204.836 151.888 204.67 151.445 204.67 150.9V150.79C204.67 150.429 204.744 150.112 204.891 149.839C205.046 149.566 205.256 149.353 205.521 149.198C205.794 149.043 206.1 148.966 206.439 148.966C206.785 148.966 207.091 149.043 207.356 149.198C207.622 149.353 207.828 149.566 207.975 149.839C208.13 150.112 208.207 150.429 208.207 150.79V150.9C208.207 151.445 208.042 151.888 207.71 152.227C207.378 152.558 206.955 152.724 206.439 152.724ZM206.439 151.884C206.689 151.884 206.888 151.803 207.036 151.641C207.183 151.479 207.257 151.232 207.257 150.9V150.79C207.257 150.458 207.183 150.211 207.036 150.049C206.888 149.887 206.689 149.806 206.439 149.806C206.188 149.806 205.989 149.887 205.842 150.049C205.695 150.211 205.621 150.458 205.621 150.79V150.9C205.621 151.232 205.695 151.479 205.842 151.641C205.989 151.803 206.188 151.884 206.439 151.884Z" fill="white"/>
<path d="M422.333 114.171V113.32L425.428 110.634C425.745 110.368 425.988 110.136 426.158 109.937C426.327 109.731 426.441 109.536 426.5 109.351C426.567 109.167 426.6 108.968 426.6 108.755C426.6 108.32 426.471 107.962 426.213 107.682C425.955 107.395 425.601 107.251 425.152 107.251C424.614 107.251 424.201 107.399 423.914 107.693C423.626 107.981 423.483 108.39 423.483 108.92H422.443C422.443 108.412 422.554 107.962 422.775 107.572C423.004 107.181 423.32 106.875 423.726 106.654C424.138 106.433 424.614 106.323 425.152 106.323C425.675 106.323 426.121 106.43 426.489 106.643C426.865 106.85 427.149 107.137 427.34 107.505C427.539 107.867 427.639 108.283 427.639 108.755C427.639 109.108 427.569 109.433 427.429 109.727C427.289 110.015 427.093 110.287 426.843 110.545C426.6 110.803 426.316 111.072 425.992 111.352L423.682 113.264H427.749V114.171H422.333ZM431.73 114.281C431.354 114.281 431 114.219 430.668 114.094C430.337 113.961 430.042 113.743 429.784 113.441C429.526 113.139 429.323 112.734 429.176 112.225C429.036 111.71 428.966 111.068 428.966 110.302V110.081C428.966 109.366 429.036 108.769 429.176 108.29C429.323 107.804 429.526 107.417 429.784 107.13C430.042 106.842 430.337 106.636 430.668 106.511C431 106.385 431.354 106.323 431.73 106.323C432.105 106.323 432.459 106.385 432.791 106.511C433.122 106.636 433.417 106.842 433.675 107.13C433.933 107.417 434.132 107.804 434.272 108.29C434.419 108.769 434.493 109.366 434.493 110.081V110.302C434.493 111.068 434.419 111.71 434.272 112.225C434.132 112.734 433.933 113.139 433.675 113.441C433.417 113.743 433.122 113.961 432.791 114.094C432.459 114.219 432.105 114.281 431.73 114.281ZM431.73 113.375C431.965 113.375 432.186 113.334 432.393 113.253C432.599 113.165 432.78 113.01 432.934 112.789C433.096 112.561 433.222 112.248 433.31 111.85C433.406 111.444 433.454 110.928 433.454 110.302V110.081C433.454 109.315 433.373 108.725 433.211 108.312C433.056 107.9 432.846 107.616 432.581 107.461C432.323 107.307 432.039 107.229 431.73 107.229C431.42 107.229 431.133 107.307 430.867 107.461C430.609 107.616 430.399 107.9 430.237 108.312C430.082 108.725 430.005 109.315 430.005 110.081V110.302C430.005 110.928 430.049 111.444 430.138 111.85C430.234 112.248 430.359 112.561 430.514 112.789C430.676 113.01 430.86 113.165 431.066 113.253C431.28 113.334 431.501 113.375 431.73 113.375ZM437.258 110.192C436.742 110.192 436.318 110.026 435.987 109.694C435.655 109.355 435.489 108.913 435.489 108.368V108.257C435.489 107.896 435.563 107.579 435.71 107.307C435.865 107.034 436.075 106.82 436.34 106.665C436.613 106.511 436.919 106.433 437.258 106.433C437.604 106.433 437.91 106.511 438.175 106.665C438.44 106.82 438.647 107.034 438.794 107.307C438.949 107.579 439.026 107.896 439.026 108.257V108.368C439.026 108.913 438.86 109.355 438.529 109.694C438.197 110.026 437.774 110.192 437.258 110.192ZM437.258 109.351C437.508 109.351 437.707 109.27 437.855 109.108C438.002 108.946 438.076 108.699 438.076 108.368V108.257C438.076 107.926 438.002 107.679 437.855 107.517C437.707 107.354 437.508 107.273 437.258 107.273C437.007 107.273 436.808 107.354 436.661 107.517C436.513 107.679 436.44 107.926 436.44 108.257V108.368C436.44 108.699 436.513 108.946 436.661 109.108C436.808 109.27 437.007 109.351 437.258 109.351ZM436.594 114.281L441.9 106.544H443.006L437.7 114.281H436.594ZM442.342 114.392C441.827 114.392 441.403 114.226 441.071 113.895C440.74 113.556 440.574 113.113 440.574 112.568V112.458C440.574 112.096 440.648 111.78 440.795 111.507C440.95 111.234 441.16 111.021 441.425 110.866C441.698 110.711 442.003 110.634 442.342 110.634C442.689 110.634 442.995 110.711 443.26 110.866C443.525 111.021 443.732 111.234 443.879 111.507C444.034 111.78 444.111 112.096 444.111 112.458V112.568C444.111 113.113 443.945 113.556 443.614 113.895C443.282 114.226 442.858 114.392 442.342 114.392ZM442.342 113.552C442.593 113.552 442.792 113.471 442.939 113.309C443.087 113.147 443.16 112.9 443.16 112.568V112.458C443.16 112.126 443.087 111.879 442.939 111.717C442.792 111.555 442.593 111.474 442.342 111.474C442.092 111.474 441.893 111.555 441.746 111.717C441.598 111.879 441.524 112.126 441.524 112.458V112.568C441.524 112.9 441.598 113.147 441.746 113.309C441.893 113.471 442.092 113.552 442.342 113.552Z" fill="white"/>
<rect x="312.057" y="62.1396" width="38.335" height="19.844" rx="4.9742" fill="#474766"/>
<path d="M322.442 74.7002V73.7938H324.288V68.1011L322.442 69.4165V68.289L324.31 66.9626H325.349V73.7938H326.864V74.7002H322.442ZM330.349 74.8107C329.789 74.8107 329.31 74.7149 328.912 74.5233C328.522 74.3244 328.22 74.0591 328.006 73.7275C327.8 73.3885 327.697 73.0127 327.697 72.6H328.736C328.736 72.9758 328.865 73.2853 329.123 73.5285C329.38 73.7643 329.789 73.8822 330.349 73.8822C330.91 73.8822 331.319 73.7606 331.576 73.5174C331.834 73.2669 331.963 72.9426 331.963 72.5447C331.963 72.132 331.831 71.8004 331.565 71.5499C331.307 71.2919 330.902 71.163 330.349 71.163H329.52V70.2787H330.349C330.88 70.2787 331.263 70.1682 331.499 69.9471C331.735 69.7186 331.853 69.4054 331.853 69.0075C331.853 68.6243 331.739 68.3259 331.51 68.1121C331.282 67.8911 330.895 67.7805 330.349 67.7805C329.826 67.7805 329.443 67.8948 329.2 68.1232C328.964 68.3443 328.846 68.6206 328.846 68.9522H327.807C327.807 68.5617 327.907 68.2079 328.106 67.8911C328.305 67.5742 328.592 67.3236 328.968 67.1394C329.351 66.9478 329.812 66.852 330.349 66.852C330.895 66.852 331.355 66.9478 331.731 67.1394C332.114 67.3236 332.402 67.5705 332.593 67.88C332.792 68.1895 332.892 68.5285 332.892 68.897C332.892 69.3391 332.774 69.7149 332.538 70.0245C332.31 70.3266 331.985 70.5403 331.565 70.6656C332.008 70.8056 332.358 71.034 332.616 71.3509C332.873 71.6678 333.002 72.1026 333.002 72.6552C333.002 73.0458 332.899 73.4069 332.693 73.7385C332.487 74.0628 332.184 74.3244 331.786 74.5233C331.396 74.7149 330.917 74.8107 330.349 74.8107ZM335.765 70.7208C335.25 70.7208 334.826 70.555 334.494 70.2234C334.163 69.8844 333.997 69.4423 333.997 68.897V68.7864C333.997 68.4253 334.07 68.1085 334.218 67.8358C334.373 67.5631 334.583 67.3494 334.848 67.1947C335.121 67.0399 335.426 66.9626 335.765 66.9626C336.112 66.9626 336.418 67.0399 336.683 67.1947C336.948 67.3494 337.154 67.5631 337.302 67.8358C337.457 68.1085 337.534 68.4253 337.534 68.7864V68.897C337.534 69.4423 337.368 69.8844 337.037 70.2234C336.705 70.555 336.281 70.7208 335.765 70.7208ZM335.765 69.8808C336.016 69.8808 336.215 69.7997 336.362 69.6376C336.51 69.4754 336.583 69.2286 336.583 68.897V68.7864C336.583 68.4548 336.51 68.2079 336.362 68.0458C336.215 67.8837 336.016 67.8026 335.765 67.8026C335.515 67.8026 335.316 67.8837 335.168 68.0458C335.021 68.2079 334.947 68.4548 334.947 68.7864V68.897C334.947 69.2286 335.021 69.4754 335.168 69.6376C335.316 69.7997 335.515 69.8808 335.765 69.8808ZM335.102 74.8107L340.408 67.0731H341.513L336.208 74.8107H335.102ZM340.85 74.9213C340.334 74.9213 339.911 74.7555 339.579 74.4239C339.247 74.0849 339.082 73.6427 339.082 73.0974V72.9869C339.082 72.6258 339.155 72.3089 339.303 72.0362C339.457 71.7636 339.667 71.5499 339.933 71.3951C340.205 71.2404 340.511 71.163 340.85 71.163C341.196 71.163 341.502 71.2404 341.768 71.3951C342.033 71.5499 342.239 71.7636 342.387 72.0362C342.541 72.3089 342.619 72.6258 342.619 72.9869V73.0974C342.619 73.6427 342.453 74.0849 342.121 74.4239C341.79 74.7555 341.366 74.9213 340.85 74.9213ZM340.85 74.0812C341.101 74.0812 341.3 74.0001 341.447 73.838C341.594 73.6759 341.668 73.429 341.668 73.0974V72.9869C341.668 72.6552 341.594 72.4084 341.447 72.2463C341.3 72.0841 341.101 72.0031 340.85 72.0031C340.6 72.0031 340.401 72.0841 340.253 72.2463C340.106 72.4084 340.032 72.6552 340.032 72.9869V73.0974C340.032 73.429 340.106 73.6759 340.253 73.838C340.401 74.0001 340.6 74.0812 340.85 74.0812Z" fill="white"/>
<path d="M330.322 89.8103C329.508 89.8103 328.848 90.4702 328.848 91.2842C328.848 92.0982 329.508 92.758 330.322 92.758C331.136 92.758 331.796 92.0982 331.796 91.2842C331.796 90.4702 331.136 89.8103 330.322 89.8103ZM330.046 110.537C330.046 110.69 330.17 110.814 330.322 110.814C330.475 110.814 330.599 110.69 330.599 110.537L330.046 110.537ZM330.046 91.2842L330.046 110.537L330.599 110.537L330.599 91.2842L330.046 91.2842Z" fill="#9B9BA4"/>
<path d="M420.181 124.998C419.605 124.422 418.672 124.422 418.097 124.998C417.521 125.573 417.521 126.507 418.097 127.082C418.672 127.658 419.605 127.658 420.181 127.082C420.756 126.507 420.756 125.573 420.181 124.998ZM401.517 143.271C401.409 143.379 401.409 143.554 401.517 143.662C401.625 143.77 401.8 143.77 401.908 143.662L401.517 143.271ZM418.943 125.845L401.517 143.271L401.908 143.662L419.334 126.235L418.943 125.845Z" fill="#9B9BA4"/>
<path d="M220.632 160.461C220.349 161.225 220.738 162.073 221.501 162.356C222.265 162.639 223.113 162.249 223.396 161.486C223.679 160.723 223.289 159.875 222.526 159.592C221.763 159.309 220.915 159.698 220.632 160.461ZM242.62 168.907C242.763 168.96 242.922 168.887 242.975 168.744C243.028 168.601 242.955 168.442 242.812 168.389L242.62 168.907ZM221.918 161.233L242.62 168.907L242.812 168.389L222.11 160.715L221.918 161.233Z" fill="#9B9BA4"/>
<g filter="url(#filter1_d_6301_1157)">
<rect x="25.4551" y="219.763" width="308.556" height="36.8522" rx="18.4261" fill="white"/>
<rect x="25.4551" y="266.464" width="308.556" height="36.8522" rx="18.4261" fill="white"/>
<rect x="40.6855" y="229.542" width="17.2955" height="17.2955" rx="8.64776" fill="#F17E00"/>
<rect x="40.6855" y="276.241" width="17.2955" height="17.2955" rx="8.64776" fill="#3CAAE1"/>
<path d="M71.8702 241.542C71.463 241.542 71.0694 241.474 70.6893 241.339C70.316 241.196 69.9801 240.979 69.6815 240.687C69.3828 240.395 69.1453 240.022 68.9688 239.567C68.7992 239.113 68.7143 238.566 68.7143 237.928V237.725C68.7143 237.114 68.7992 236.588 68.9688 236.147C69.1453 235.706 69.3828 235.342 69.6815 235.057C69.9801 234.766 70.316 234.552 70.6893 234.416C71.0694 234.28 71.463 234.212 71.8702 234.212C72.2774 234.212 72.6677 234.28 73.0409 234.416C73.421 234.552 73.7603 234.766 74.0589 235.057C74.3576 235.342 74.5917 235.706 74.7614 236.147C74.9378 236.588 75.0261 237.114 75.0261 237.725V237.928C75.0261 238.566 74.9378 239.113 74.7614 239.567C74.5917 240.022 74.3576 240.395 74.0589 240.687C73.7603 240.979 73.421 241.196 73.0409 241.339C72.6677 241.474 72.2774 241.542 71.8702 241.542ZM71.8702 240.687C72.2435 240.687 72.5896 240.595 72.9086 240.412C73.2344 240.229 73.499 239.934 73.7026 239.527C73.9062 239.119 74.008 238.587 74.008 237.928V237.725C74.008 237.1 73.9062 236.595 73.7026 236.208C73.499 235.814 73.2344 235.526 72.9086 235.342C72.5896 235.159 72.2435 235.068 71.8702 235.068C71.5037 235.068 71.1576 235.159 70.8318 235.342C70.506 235.526 70.2414 235.814 70.0378 236.208C69.8342 236.595 69.7324 237.1 69.7324 237.725V237.928C69.7324 238.587 69.8342 239.119 70.0378 239.527C70.2414 239.934 70.506 240.229 70.8318 240.412C71.1576 240.595 71.5037 240.687 71.8702 240.687ZM78.1178 241.44V235.149H75.644V234.314H81.5486V235.149H79.0748V241.44H78.1178ZM81.5494 242.764V240.606H82.3129C82.4418 240.348 82.547 240.032 82.6285 239.659C82.7167 239.279 82.7846 238.868 82.8321 238.427C82.8864 237.979 82.9237 237.528 82.9441 237.073C82.9644 236.612 82.9746 236.167 82.9746 235.74V234.314H87.6066V240.606H88.4719V242.764H87.5557V241.44H82.4656V242.764H81.5494ZM83.3309 240.606H86.6497V235.149H83.9112V235.943C83.9112 236.975 83.8637 237.867 83.7687 238.621C83.6804 239.374 83.5345 240.036 83.3309 240.606ZM89.8001 241.44V234.314H94.3812V235.149H90.7571V237.358H94.0758V238.193H90.7571V240.606H94.3812V241.44H89.8001ZM95.5555 241.542C95.508 241.542 95.4571 241.539 95.4028 241.532C95.3553 241.525 95.3044 241.518 95.2501 241.512V240.575C95.2705 240.582 95.3214 240.585 95.4028 240.585C95.5657 240.585 95.7048 240.551 95.8202 240.483C95.9424 240.416 96.0442 240.29 96.1256 240.107C96.2139 239.924 96.2817 239.662 96.3292 239.323C96.3767 238.977 96.4107 238.529 96.431 237.979C96.4582 237.423 96.4717 236.744 96.4717 235.943V234.314H101.256V241.44H100.3V235.149H97.4287V236.147C97.4287 237.049 97.4049 237.816 97.3574 238.447C97.3099 239.079 97.2353 239.598 97.1335 240.005C97.0384 240.412 96.9163 240.728 96.767 240.952C96.6177 241.169 96.4412 241.322 96.2376 241.41C96.0408 241.498 95.8134 241.542 95.5555 241.542ZM105.836 241.44V234.314H111.435V241.44H110.478V235.149H106.793V241.44H105.836ZM113.471 241.44V234.314H115.914C116.546 234.314 117.061 234.409 117.462 234.599C117.869 234.783 118.171 235.04 118.368 235.373C118.565 235.699 118.663 236.075 118.663 236.503C118.663 236.924 118.565 237.3 118.368 237.633C118.171 237.966 117.869 238.227 117.462 238.417C117.061 238.6 116.546 238.692 115.914 238.692H114.428V241.44H113.471ZM114.428 237.857H115.863C116.542 237.857 117.017 237.735 117.289 237.491C117.567 237.246 117.706 236.917 117.706 236.503C117.706 236.089 117.567 235.76 117.289 235.516C117.017 235.271 116.542 235.149 115.863 235.149H114.428V237.857ZM122.891 241.542C122.483 241.542 122.09 241.474 121.71 241.339C121.336 241.196 121.001 240.979 120.702 240.687C120.403 240.395 120.166 240.022 119.989 239.567C119.82 239.113 119.735 238.566 119.735 237.928V237.725C119.735 237.114 119.82 236.588 119.989 236.147C120.166 235.706 120.403 235.342 120.702 235.057C121.001 234.766 121.336 234.552 121.71 234.416C122.09 234.28 122.483 234.212 122.891 234.212C123.298 234.212 123.688 234.28 124.061 234.416C124.441 234.552 124.781 234.766 125.079 235.057C125.378 235.342 125.612 235.706 125.782 236.147C125.958 236.588 126.047 237.114 126.047 237.725V237.928C126.047 238.566 125.958 239.113 125.782 239.567C125.612 240.022 125.378 240.395 125.079 240.687C124.781 240.979 124.441 241.196 124.061 241.339C123.688 241.474 123.298 241.542 122.891 241.542ZM122.891 240.687C123.264 240.687 123.61 240.595 123.929 240.412C124.255 240.229 124.519 239.934 124.723 239.527C124.927 239.119 125.028 238.587 125.028 237.928V237.725C125.028 237.1 124.927 236.595 124.723 236.208C124.519 235.814 124.255 235.526 123.929 235.342C123.61 235.159 123.264 235.068 122.891 235.068C122.524 235.068 122.178 235.159 121.852 235.342C121.526 235.526 121.262 235.814 121.058 236.208C120.855 236.595 120.753 237.1 120.753 237.725V237.928C120.753 238.587 120.855 239.119 121.058 239.527C121.262 239.934 121.526 240.229 121.852 240.412C122.178 240.595 122.524 240.687 122.891 240.687ZM126.555 242.764V240.606H127.319C127.448 240.348 127.553 240.032 127.634 239.659C127.722 239.279 127.79 238.868 127.838 238.427C127.892 237.979 127.929 237.528 127.95 237.073C127.97 236.612 127.98 236.167 127.98 235.74V234.314H132.612V240.606H133.478V242.764H132.561V241.44H127.471V242.764H126.555ZM128.337 240.606H131.655V235.149H128.917V235.943C128.917 236.975 128.869 237.867 128.774 238.621C128.686 239.374 128.54 240.036 128.337 240.606ZM134.3 241.44L137.028 234.314H137.985L140.713 241.44H139.675L138.993 239.669H135.979L135.297 241.44H134.3ZM136.295 238.834H138.677L137.486 235.536L136.295 238.834ZM141.42 241.44L144.047 237.735L141.522 234.314H142.581L144.81 237.379H145.523V234.314H146.48V237.379H147.192L149.442 234.314H150.481L147.956 237.704L150.582 241.44H149.463L147.192 238.173H146.48V241.44H145.523V238.173H144.81L142.52 241.44H141.42Z" fill="#474766"/>
<path d="M258.35 241.44V240.137L260.712 238.183C261.017 237.932 261.265 237.711 261.455 237.521C261.652 237.324 261.791 237.141 261.872 236.971C261.961 236.802 262.005 236.629 262.005 236.452C262.005 236.215 261.94 236.031 261.811 235.902C261.682 235.773 261.496 235.709 261.251 235.709C260.932 235.709 260.691 235.811 260.529 236.014C260.366 236.218 260.284 236.517 260.284 236.91H258.452C258.452 236.327 258.554 235.835 258.757 235.434C258.968 235.027 259.28 234.718 259.694 234.508C260.108 234.291 260.627 234.182 261.251 234.182C261.835 234.182 262.317 234.28 262.697 234.477C263.084 234.667 263.372 234.932 263.562 235.271C263.752 235.611 263.847 236.004 263.847 236.452C263.847 236.778 263.773 237.09 263.623 237.389C263.474 237.681 263.27 237.959 263.013 238.223C262.761 238.481 262.47 238.739 262.137 238.997L260.905 239.934H263.949V241.44H258.35ZM267.567 241.573C266.983 241.573 266.477 241.488 266.05 241.318C265.622 241.142 265.293 240.897 265.062 240.585C264.832 240.266 264.716 239.89 264.716 239.455C264.716 239.062 264.835 238.709 265.073 238.397C265.31 238.084 265.663 237.867 266.131 237.745C265.778 237.623 265.487 237.426 265.256 237.155C265.032 236.883 264.92 236.551 264.92 236.157C264.92 235.763 265.022 235.421 265.225 235.129C265.436 234.83 265.738 234.599 266.131 234.436C266.532 234.267 267.01 234.182 267.567 234.182C268.13 234.182 268.608 234.267 269.002 234.436C269.396 234.599 269.694 234.83 269.898 235.129C270.108 235.421 270.214 235.763 270.214 236.157C270.214 236.544 270.102 236.873 269.878 237.144C269.654 237.416 269.362 237.616 269.002 237.745C269.47 237.881 269.823 238.095 270.061 238.386C270.298 238.678 270.417 239.035 270.417 239.455C270.417 239.89 270.302 240.266 270.071 240.585C269.84 240.897 269.511 241.142 269.084 241.318C268.656 241.488 268.15 241.573 267.567 241.573ZM267.567 240.168C267.811 240.168 268.015 240.137 268.178 240.076C268.347 240.008 268.473 239.913 268.554 239.791C268.642 239.662 268.687 239.513 268.687 239.343C268.687 239.058 268.575 238.841 268.351 238.692C268.133 238.536 267.872 238.43 267.567 238.376C267.268 238.43 267.007 238.539 266.783 238.702C266.559 238.858 266.447 239.072 266.447 239.343C266.447 239.513 266.491 239.662 266.579 239.791C266.674 239.913 266.803 240.008 266.966 240.076C267.136 240.137 267.336 240.168 267.567 240.168ZM267.567 237.175C267.825 237.127 268.042 237.039 268.218 236.91C268.395 236.781 268.483 236.588 268.483 236.33C268.483 236.086 268.401 235.902 268.239 235.78C268.076 235.651 267.852 235.587 267.567 235.587C267.282 235.587 267.058 235.648 266.895 235.77C266.732 235.892 266.65 236.079 266.65 236.33C266.65 236.588 266.742 236.781 266.925 236.91C267.109 237.032 267.322 237.121 267.567 237.175ZM274.129 241.573C273.729 241.573 273.356 241.508 273.01 241.379C272.663 241.244 272.361 241.03 272.104 240.738C271.846 240.446 271.642 240.066 271.493 239.598C271.35 239.123 271.279 238.549 271.279 237.877V237.674C271.279 237.049 271.35 236.517 271.493 236.075C271.642 235.634 271.846 235.275 272.104 234.996C272.361 234.718 272.663 234.514 273.01 234.386C273.356 234.25 273.729 234.182 274.129 234.182C274.53 234.182 274.903 234.25 275.249 234.386C275.595 234.514 275.897 234.718 276.155 234.996C276.413 235.275 276.613 235.634 276.756 236.075C276.905 236.517 276.98 237.049 276.98 237.674V237.877C276.98 238.549 276.905 239.123 276.756 239.598C276.613 240.066 276.413 240.446 276.155 240.738C275.897 241.03 275.595 241.244 275.249 241.379C274.903 241.508 274.53 241.573 274.129 241.573ZM274.129 240.066C274.265 240.066 274.394 240.032 274.516 239.964C274.638 239.896 274.744 239.781 274.832 239.618C274.927 239.448 275.001 239.225 275.056 238.946C275.11 238.661 275.137 238.305 275.137 237.877V237.674C275.137 237.172 275.093 236.778 275.005 236.493C274.917 236.201 274.794 235.994 274.638 235.872C274.482 235.75 274.313 235.689 274.129 235.689C273.946 235.689 273.776 235.75 273.62 235.872C273.471 235.994 273.349 236.201 273.254 236.493C273.159 236.778 273.111 237.172 273.111 237.674V237.877C273.111 238.305 273.139 238.661 273.193 238.946C273.247 239.225 273.322 239.448 273.417 239.618C273.519 239.781 273.627 239.896 273.743 239.964C273.865 240.032 273.994 240.066 274.129 240.066ZM283.296 241.573C282.895 241.573 282.522 241.508 282.176 241.379C281.83 241.244 281.528 241.03 281.27 240.738C281.012 240.446 280.808 240.066 280.659 239.598C280.516 239.123 280.445 238.549 280.445 237.877V237.674C280.445 237.049 280.516 236.517 280.659 236.075C280.808 235.634 281.012 235.275 281.27 234.996C281.528 234.718 281.83 234.514 282.176 234.386C282.522 234.25 282.895 234.182 283.296 234.182C283.696 234.182 284.069 234.25 284.415 234.386C284.762 234.514 285.064 234.718 285.321 234.996C285.579 235.275 285.78 235.634 285.922 236.075C286.071 236.517 286.146 237.049 286.146 237.674V237.877C286.146 238.549 286.071 239.123 285.922 239.598C285.78 240.066 285.579 240.446 285.321 240.738C285.064 241.03 284.762 241.244 284.415 241.379C284.069 241.508 283.696 241.573 283.296 241.573ZM283.296 240.066C283.431 240.066 283.56 240.032 283.682 239.964C283.805 239.896 283.91 239.781 283.998 239.618C284.093 239.448 284.168 239.225 284.222 238.946C284.276 238.661 284.303 238.305 284.303 237.877V237.674C284.303 237.172 284.259 236.778 284.171 236.493C284.083 236.201 283.961 235.994 283.805 235.872C283.648 235.75 283.479 235.689 283.296 235.689C283.112 235.689 282.943 235.75 282.787 235.872C282.637 235.994 282.515 236.201 282.42 236.493C282.325 236.778 282.278 237.172 282.278 237.674V237.877C282.278 238.305 282.305 238.661 282.359 238.946C282.413 239.225 282.488 239.448 282.583 239.618C282.685 239.781 282.793 239.896 282.909 239.964C283.031 240.032 283.16 240.066 283.296 240.066ZM289.917 241.573C289.516 241.573 289.143 241.508 288.797 241.379C288.451 241.244 288.149 241.03 287.891 240.738C287.633 240.446 287.429 240.066 287.28 239.598C287.137 239.123 287.066 238.549 287.066 237.877V237.674C287.066 237.049 287.137 236.517 287.28 236.075C287.429 235.634 287.633 235.275 287.891 234.996C288.149 234.718 288.451 234.514 288.797 234.386C289.143 234.25 289.516 234.182 289.917 234.182C290.317 234.182 290.69 234.25 291.037 234.386C291.383 234.514 291.685 234.718 291.943 234.996C292.2 235.275 292.401 235.634 292.543 236.075C292.692 236.517 292.767 237.049 292.767 237.674V237.877C292.767 238.549 292.692 239.123 292.543 239.598C292.401 240.066 292.2 240.446 291.943 240.738C291.685 241.03 291.383 241.244 291.037 241.379C290.69 241.508 290.317 241.573 289.917 241.573ZM289.917 240.066C290.052 240.066 290.181 240.032 290.304 239.964C290.426 239.896 290.531 239.781 290.619 239.618C290.714 239.448 290.789 239.225 290.843 238.946C290.897 238.661 290.925 238.305 290.925 237.877V237.674C290.925 237.172 290.88 236.778 290.792 236.493C290.704 236.201 290.582 235.994 290.426 235.872C290.27 235.75 290.1 235.689 289.917 235.689C289.733 235.689 289.564 235.75 289.408 235.872C289.258 235.994 289.136 236.201 289.041 236.493C288.946 236.778 288.899 237.172 288.899 237.674V237.877C288.899 238.305 288.926 238.661 288.98 238.946C289.034 239.225 289.109 239.448 289.204 239.618C289.306 239.781 289.414 239.896 289.53 239.964C289.652 240.032 289.781 240.066 289.917 240.066ZM296.538 241.573C296.137 241.573 295.764 241.508 295.418 241.379C295.072 241.244 294.77 241.03 294.512 240.738C294.254 240.446 294.05 240.066 293.901 239.598C293.759 239.123 293.687 238.549 293.687 237.877V237.674C293.687 237.049 293.759 236.517 293.901 236.075C294.05 235.634 294.254 235.275 294.512 234.996C294.77 234.718 295.072 234.514 295.418 234.386C295.764 234.25 296.137 234.182 296.538 234.182C296.938 234.182 297.312 234.25 297.658 234.386C298.004 234.514 298.306 234.718 298.564 234.996C298.822 235.275 299.022 235.634 299.164 236.075C299.314 236.517 299.388 237.049 299.388 237.674V237.877C299.388 238.549 299.314 239.123 299.164 239.598C299.022 240.066 298.822 240.446 298.564 240.738C298.306 241.03 298.004 241.244 297.658 241.379C297.312 241.508 296.938 241.573 296.538 241.573ZM296.538 240.066C296.674 240.066 296.803 240.032 296.925 239.964C297.047 239.896 297.152 239.781 297.24 239.618C297.335 239.448 297.41 239.225 297.464 238.946C297.519 238.661 297.546 238.305 297.546 237.877V237.674C297.546 237.172 297.502 236.778 297.413 236.493C297.325 236.201 297.203 235.994 297.047 235.872C296.891 235.75 296.721 235.689 296.538 235.689C296.355 235.689 296.185 235.75 296.029 235.872C295.879 235.994 295.757 236.201 295.662 236.493C295.567 236.778 295.52 237.172 295.52 237.674V237.877C295.52 238.305 295.547 238.661 295.601 238.946C295.656 239.225 295.73 239.448 295.825 239.618C295.927 239.781 296.036 239.896 296.151 239.964C296.273 240.032 296.402 240.066 296.538 240.066ZM300.96 241.44V240.667H300.044V239.465H300.96V238.977H300.044V237.572H300.96V234.314H303.668C304.265 234.314 304.761 234.413 305.154 234.609C305.555 234.8 305.857 235.071 306.06 235.424C306.264 235.777 306.366 236.201 306.366 236.696C306.366 237.151 306.264 237.552 306.06 237.898C305.857 238.237 305.555 238.502 305.154 238.692C304.761 238.882 304.265 238.977 303.668 238.977H302.813V239.465H304.94V240.667H302.813V241.44H300.96ZM302.813 237.572H303.475C303.834 237.572 304.099 237.497 304.269 237.348C304.445 237.199 304.533 236.981 304.533 236.696C304.533 236.411 304.445 236.194 304.269 236.045C304.092 235.896 303.827 235.821 303.475 235.821H302.813V237.572Z" fill="#474766"/>
<path d="M264.311 288.261V286.754H265.879V282.977L264.311 284.097V282.265L265.889 281.135H267.721V286.754H268.994V288.261H264.311ZM269.397 288.261V286.958L271.759 285.003C272.065 284.752 272.312 284.531 272.502 284.341C272.699 284.145 272.838 283.961 272.92 283.792C273.008 283.622 273.052 283.449 273.052 283.272C273.052 283.035 272.988 282.852 272.859 282.723C272.73 282.594 272.543 282.529 272.299 282.529C271.98 282.529 271.739 282.631 271.576 282.835C271.413 283.038 271.332 283.337 271.332 283.731H269.499C269.499 283.147 269.601 282.655 269.805 282.254C270.015 281.847 270.327 281.538 270.741 281.328C271.155 281.111 271.674 281.002 272.299 281.002C272.883 281.002 273.364 281.101 273.744 281.297C274.131 281.487 274.42 281.752 274.61 282.092C274.8 282.431 274.895 282.825 274.895 283.272C274.895 283.598 274.82 283.91 274.671 284.209C274.522 284.501 274.318 284.779 274.06 285.044C273.809 285.302 273.517 285.56 273.185 285.817L271.953 286.754H274.997V288.261H269.397ZM278.665 288.393C278.265 288.393 277.891 288.329 277.545 288.2C277.199 288.064 276.897 287.85 276.639 287.558C276.381 287.266 276.178 286.886 276.028 286.418C275.886 285.943 275.815 285.37 275.815 284.698V284.494C275.815 283.87 275.886 283.337 276.028 282.896C276.178 282.455 276.381 282.095 276.639 281.817C276.897 281.538 277.199 281.335 277.545 281.206C277.891 281.07 278.265 281.002 278.665 281.002C279.066 281.002 279.439 281.07 279.785 281.206C280.131 281.335 280.433 281.538 280.691 281.817C280.949 282.095 281.149 282.455 281.292 282.896C281.441 283.337 281.516 283.87 281.516 284.494V284.698C281.516 285.37 281.441 285.943 281.292 286.418C281.149 286.886 280.949 287.266 280.691 287.558C280.433 287.85 280.131 288.064 279.785 288.2C279.439 288.329 279.066 288.393 278.665 288.393ZM278.665 286.886C278.801 286.886 278.93 286.852 279.052 286.785C279.174 286.717 279.279 286.601 279.368 286.438C279.463 286.269 279.537 286.045 279.591 285.767C279.646 285.482 279.673 285.125 279.673 284.698V284.494C279.673 283.992 279.629 283.598 279.541 283.313C279.452 283.021 279.33 282.814 279.174 282.692C279.018 282.57 278.848 282.509 278.665 282.509C278.482 282.509 278.312 282.57 278.156 282.692C278.007 282.814 277.885 283.021 277.79 283.313C277.695 283.598 277.647 283.992 277.647 284.494V284.698C277.647 285.125 277.674 285.482 277.729 285.767C277.783 286.045 277.857 286.269 277.952 286.438C278.054 286.601 278.163 286.717 278.278 286.785C278.4 286.852 278.529 286.886 278.665 286.886ZM287.831 288.393C287.431 288.393 287.058 288.329 286.711 288.2C286.365 288.064 286.063 287.85 285.805 287.558C285.547 287.266 285.344 286.886 285.195 286.418C285.052 285.943 284.981 285.37 284.981 284.698V284.494C284.981 283.87 285.052 283.337 285.195 282.896C285.344 282.455 285.547 282.095 285.805 281.817C286.063 281.538 286.365 281.335 286.711 281.206C287.058 281.07 287.431 281.002 287.831 281.002C288.232 281.002 288.605 281.07 288.951 281.206C289.297 281.335 289.599 281.538 289.857 281.817C290.115 282.095 290.315 282.455 290.458 282.896C290.607 283.337 290.682 283.87 290.682 284.494V284.698C290.682 285.37 290.607 285.943 290.458 286.418C290.315 286.886 290.115 287.266 289.857 287.558C289.599 287.85 289.297 288.064 288.951 288.2C288.605 288.329 288.232 288.393 287.831 288.393ZM287.831 286.886C287.967 286.886 288.096 286.852 288.218 286.785C288.34 286.717 288.445 286.601 288.534 286.438C288.629 286.269 288.703 286.045 288.758 285.767C288.812 285.482 288.839 285.125 288.839 284.698V284.494C288.839 283.992 288.795 283.598 288.707 283.313C288.619 283.021 288.496 282.814 288.34 282.692C288.184 282.57 288.015 282.509 287.831 282.509C287.648 282.509 287.478 282.57 287.322 282.692C287.173 282.814 287.051 283.021 286.956 283.313C286.861 283.598 286.813 283.992 286.813 284.494V284.698C286.813 285.125 286.84 285.482 286.895 285.767C286.949 286.045 287.024 286.269 287.119 286.438C287.22 286.601 287.329 286.717 287.444 286.785C287.567 286.852 287.696 286.886 287.831 286.886ZM294.452 288.393C294.052 288.393 293.679 288.329 293.333 288.2C292.986 288.064 292.684 287.85 292.427 287.558C292.169 287.266 291.965 286.886 291.816 286.418C291.673 285.943 291.602 285.37 291.602 284.698V284.494C291.602 283.87 291.673 283.337 291.816 282.896C291.965 282.455 292.169 282.095 292.427 281.817C292.684 281.538 292.986 281.335 293.333 281.206C293.679 281.07 294.052 281.002 294.452 281.002C294.853 281.002 295.226 281.07 295.572 281.206C295.918 281.335 296.22 281.538 296.478 281.817C296.736 282.095 296.936 282.455 297.079 282.896C297.228 283.337 297.303 283.87 297.303 284.494V284.698C297.303 285.37 297.228 285.943 297.079 286.418C296.936 286.886 296.736 287.266 296.478 287.558C296.22 287.85 295.918 288.064 295.572 288.2C295.226 288.329 294.853 288.393 294.452 288.393ZM294.452 286.886C294.588 286.886 294.717 286.852 294.839 286.785C294.961 286.717 295.067 286.601 295.155 286.438C295.25 286.269 295.324 286.045 295.379 285.767C295.433 285.482 295.46 285.125 295.46 284.698V284.494C295.46 283.992 295.416 283.598 295.328 283.313C295.24 283.021 295.117 282.814 294.961 282.692C294.805 282.57 294.636 282.509 294.452 282.509C294.269 282.509 294.099 282.57 293.943 282.692C293.794 282.814 293.672 283.021 293.577 283.313C293.482 283.598 293.434 283.992 293.434 284.494V284.698C293.434 285.125 293.462 285.482 293.516 285.767C293.57 286.045 293.645 286.269 293.74 286.438C293.842 286.601 293.95 286.717 294.066 286.785C294.188 286.852 294.317 286.886 294.452 286.886ZM301.074 288.393C300.673 288.393 300.3 288.329 299.954 288.2C299.608 288.064 299.306 287.85 299.048 287.558C298.79 287.266 298.586 286.886 298.437 286.418C298.294 285.943 298.223 285.37 298.223 284.698V284.494C298.223 283.87 298.294 283.337 298.437 282.896C298.586 282.455 298.79 282.095 299.048 281.817C299.306 281.538 299.608 281.335 299.954 281.206C300.3 281.07 300.673 281.002 301.074 281.002C301.474 281.002 301.847 281.07 302.193 281.206C302.539 281.335 302.841 281.538 303.099 281.817C303.357 282.095 303.557 282.455 303.7 282.896C303.849 283.337 303.924 283.87 303.924 284.494V284.698C303.924 285.37 303.849 285.943 303.7 286.418C303.557 286.886 303.357 287.266 303.099 287.558C302.841 287.85 302.539 288.064 302.193 288.2C301.847 288.329 301.474 288.393 301.074 288.393ZM301.074 286.886C301.209 286.886 301.338 286.852 301.46 286.785C301.583 286.717 301.688 286.601 301.776 286.438C301.871 286.269 301.946 286.045 302 285.767C302.054 285.482 302.081 285.125 302.081 284.698V284.494C302.081 283.992 302.037 283.598 301.949 283.313C301.861 283.021 301.739 282.814 301.583 282.692C301.426 282.57 301.257 282.509 301.074 282.509C300.89 282.509 300.721 282.57 300.565 282.692C300.415 282.814 300.293 283.021 300.198 283.313C300.103 283.598 300.055 283.992 300.055 284.494V284.698C300.055 285.125 300.083 285.482 300.137 285.767C300.191 286.045 300.266 286.269 300.361 286.438C300.463 286.601 300.571 286.717 300.687 286.785C300.809 286.852 300.938 286.886 301.074 286.886ZM305.496 288.261V287.487H304.579V286.286H305.496V285.797H304.579V284.392H305.496V281.135H308.204C308.801 281.135 309.296 281.233 309.69 281.43C310.09 281.62 310.392 281.891 310.596 282.244C310.8 282.597 310.901 283.021 310.901 283.517C310.901 283.971 310.8 284.372 310.596 284.718C310.392 285.057 310.09 285.322 309.69 285.512C309.296 285.702 308.801 285.797 308.204 285.797H307.349V286.286H309.476V287.487H307.349V288.261H305.496ZM307.349 284.392H308.01C308.37 284.392 308.635 284.318 308.804 284.168C308.981 284.019 309.069 283.802 309.069 283.517C309.069 283.232 308.981 283.015 308.804 282.865C308.628 282.716 308.363 282.641 308.01 282.641H307.349V284.392Z" fill="#474766"/>
<path d="M69.1215 288.261V281.135H70.0785V286.734L73.8655 281.135H74.8225V288.261H73.8655V282.662L70.0785 288.261H69.1215ZM76.8561 288.261V281.135H77.8131V284.178H81.6001V281.135H82.5571V288.261H81.6001V285.013H77.8131V288.261H76.8561ZM83.7763 289.584V287.426H84.5398C84.6688 287.168 84.774 286.852 84.8554 286.479C84.9436 286.099 85.0115 285.689 85.059 285.247C85.1133 284.799 85.1506 284.348 85.171 283.893C85.1913 283.432 85.2015 282.987 85.2015 282.56V281.135H89.8335V287.426H90.6988V289.584H89.7826V288.261H84.6925V289.584H83.7763ZM85.5578 287.426H88.8766V281.969H86.1381V282.763C86.1381 283.795 86.0906 284.687 85.9956 285.441C85.9074 286.194 85.7614 286.856 85.5578 287.426ZM92.027 288.261V281.135H92.984V286.734L96.771 281.135H97.728V288.261H96.771V282.662L92.984 288.261H92.027ZM99.7616 288.261V281.135H102.307C103.155 281.135 103.773 281.314 104.159 281.674C104.553 282.027 104.75 282.482 104.75 283.038C104.75 283.405 104.648 283.72 104.445 283.985C104.241 284.243 103.99 284.43 103.691 284.545C104.112 284.64 104.445 284.833 104.689 285.125C104.933 285.41 105.055 285.784 105.055 286.245C105.055 286.632 104.971 286.978 104.801 287.283C104.631 287.582 104.36 287.82 103.986 287.996C103.613 288.173 103.121 288.261 102.51 288.261H99.7616ZM100.719 287.426H102.51C103.121 287.426 103.538 287.317 103.762 287.1C103.986 286.876 104.098 286.581 104.098 286.215C104.098 285.841 103.986 285.546 103.762 285.329C103.538 285.105 103.118 284.993 102.5 284.993H100.719V287.426ZM100.719 284.199H102.307C102.877 284.199 103.267 284.094 103.477 283.883C103.688 283.673 103.793 283.405 103.793 283.079C103.793 282.746 103.688 282.478 103.477 282.275C103.267 282.071 102.877 281.969 102.307 281.969H100.719V284.199ZM106.582 288.261V281.135H107.539V286.734L111.326 281.135H112.283V288.261H111.326V282.662L107.539 288.261H106.582ZM113.502 289.584V287.426H114.265C114.394 287.168 114.499 286.852 114.581 286.479C114.669 286.099 114.737 285.689 114.784 285.247C114.839 284.799 114.876 284.348 114.896 283.893C114.917 283.432 114.927 282.987 114.927 282.56V281.135H119.559V287.426H120.424V289.584H119.508V288.261H114.418V289.584H113.502ZM115.283 287.426H118.602V281.969H115.864V282.763C115.864 283.795 115.816 284.687 115.721 285.441C115.633 286.194 115.487 286.856 115.283 287.426ZM122.623 288.363C122.548 288.363 122.473 288.359 122.399 288.352C122.331 288.352 122.27 288.349 122.215 288.342V287.487C122.27 287.494 122.331 287.501 122.399 287.507C122.473 287.507 122.548 287.507 122.623 287.507C122.819 287.507 122.976 287.484 123.091 287.436C123.213 287.389 123.318 287.304 123.406 287.182C123.495 287.059 123.586 286.883 123.681 286.652L120.739 281.135H121.778L124.16 285.665L126.176 281.135H127.153L124.557 286.866C124.441 287.124 124.323 287.348 124.201 287.538C124.078 287.728 123.943 287.884 123.793 288.006C123.644 288.128 123.474 288.217 123.284 288.271C123.094 288.332 122.874 288.363 122.623 288.363ZM126.645 288.261L129.373 281.135H130.33L133.058 288.261H132.02L131.338 286.489H128.324L127.642 288.261H126.645ZM128.64 285.655H131.022L129.831 282.356L128.64 285.655ZM134.02 288.363C133.972 288.363 133.921 288.359 133.867 288.352C133.819 288.346 133.769 288.339 133.714 288.332V287.395C133.735 287.402 133.786 287.406 133.867 287.406C134.03 287.406 134.169 287.372 134.284 287.304C134.407 287.236 134.508 287.11 134.59 286.927C134.678 286.744 134.746 286.483 134.793 286.143C134.841 285.797 134.875 285.349 134.895 284.799C134.922 284.243 134.936 283.564 134.936 282.763V281.135H139.721V288.261H138.764V281.969H135.893V282.967C135.893 283.87 135.869 284.637 135.822 285.268C135.774 285.899 135.699 286.418 135.598 286.825C135.503 287.233 135.38 287.548 135.231 287.772C135.082 287.989 134.905 288.142 134.702 288.23C134.505 288.318 134.278 288.363 134.02 288.363ZM141.755 288.261V281.135H142.712V283.985H144.198C145.142 283.985 145.834 284.182 146.275 284.576C146.723 284.969 146.947 285.485 146.947 286.123C146.947 286.761 146.723 287.277 146.275 287.67C145.834 288.064 145.142 288.261 144.198 288.261H141.755ZM142.712 287.426H144.147C144.826 287.426 145.301 287.314 145.573 287.09C145.851 286.859 145.99 286.537 145.99 286.123C145.99 285.709 145.851 285.39 145.573 285.166C145.301 284.935 144.826 284.82 144.147 284.82H142.712V287.426ZM148.426 288.261V281.135H149.383V284.178H153.17V281.135H154.127V288.261H153.17V285.013H149.383V288.261H148.426ZM156.16 288.261V281.135H157.117V283.985H158.4C159.344 283.985 160.036 284.182 160.477 284.576C160.925 284.969 161.149 285.485 161.149 286.123C161.149 286.761 160.925 287.277 160.477 287.67C160.036 288.064 159.344 288.261 158.4 288.261H156.16ZM157.117 287.426H158.349C159.028 287.426 159.503 287.314 159.774 287.09C160.053 286.859 160.192 286.537 160.192 286.123C160.192 285.709 160.053 285.39 159.774 285.166C159.503 284.935 159.028 284.82 158.349 284.82H157.117V287.426ZM162.228 288.261V281.135H163.185V288.261H162.228ZM165.217 288.261V281.135H169.798V281.969H166.174V284.178H169.493V285.013H166.174V287.426H169.798V288.261H165.217ZM173.976 288.261V281.135H179.575V288.261H178.618V281.969H174.933V288.261H173.976ZM181.611 288.261V281.135H184.054C184.685 281.135 185.201 281.23 185.602 281.42C186.009 281.603 186.311 281.861 186.508 282.193C186.705 282.519 186.803 282.896 186.803 283.323C186.803 283.744 186.705 284.121 186.508 284.453C186.311 284.786 186.009 285.047 185.602 285.237C185.201 285.42 184.685 285.512 184.054 285.512H182.568V288.261H181.611ZM182.568 284.677H184.003C184.682 284.677 185.157 284.555 185.429 284.311C185.707 284.066 185.846 283.737 185.846 283.323C185.846 282.909 185.707 282.58 185.429 282.336C185.157 282.092 184.682 281.969 184.003 281.969H182.568V284.677ZM191.031 288.363C190.623 288.363 190.23 288.295 189.85 288.159C189.476 288.016 189.14 287.799 188.842 287.507C188.543 287.216 188.306 286.842 188.129 286.388C187.96 285.933 187.875 285.387 187.875 284.749V284.545C187.875 283.934 187.96 283.408 188.129 282.967C188.306 282.526 188.543 282.163 188.842 281.878C189.14 281.586 189.476 281.372 189.85 281.236C190.23 281.101 190.623 281.033 191.031 281.033C191.438 281.033 191.828 281.101 192.201 281.236C192.581 281.372 192.921 281.586 193.219 281.878C193.518 282.163 193.752 282.526 193.922 282.967C194.098 283.408 194.186 283.934 194.186 284.545V284.749C194.186 285.387 194.098 285.933 193.922 286.388C193.752 286.842 193.518 287.216 193.219 287.507C192.921 287.799 192.581 288.016 192.201 288.159C191.828 288.295 191.438 288.363 191.031 288.363ZM191.031 287.507C191.404 287.507 191.75 287.416 192.069 287.233C192.395 287.049 192.659 286.754 192.863 286.347C193.067 285.94 193.168 285.407 193.168 284.749V284.545C193.168 283.921 193.067 283.415 192.863 283.028C192.659 282.634 192.395 282.346 192.069 282.163C191.75 281.98 191.404 281.888 191.031 281.888C190.664 281.888 190.318 281.98 189.992 282.163C189.666 282.346 189.402 282.634 189.198 283.028C188.995 283.415 188.893 283.921 188.893 284.545V284.749C188.893 285.407 188.995 285.94 189.198 286.347C189.402 286.754 189.666 287.049 189.992 287.233C190.318 287.416 190.664 287.507 191.031 287.507ZM195.818 288.261V281.135H200.297V281.969H196.775V288.261H195.818ZM201.514 288.261V281.135H203.957C204.589 281.135 205.104 281.23 205.505 281.42C205.912 281.603 206.214 281.861 206.411 282.193C206.608 282.519 206.706 282.896 206.706 283.323C206.706 283.744 206.608 284.121 206.411 284.453C206.214 284.786 205.912 285.047 205.505 285.237C205.104 285.42 204.589 285.512 203.957 285.512H202.471V288.261H201.514ZM202.471 284.677H203.907C204.585 284.677 205.06 284.555 205.332 284.311C205.61 284.066 205.749 283.737 205.749 283.323C205.749 282.909 205.61 282.58 205.332 282.336C205.06 282.092 204.585 281.969 203.907 281.969H202.471V284.677ZM206.555 288.261L209.284 281.135H210.241L212.969 288.261H211.931L211.248 286.489H208.235L207.553 288.261H206.555ZM208.551 285.655H210.933L209.742 282.356L208.551 285.655ZM214.19 288.261V281.135H215.187L217.57 285.665L219.952 281.135H220.909V288.261H219.952V282.865L217.906 286.734H217.193L215.147 282.865V288.261H214.19ZM222.948 288.261V281.135H223.946L226.328 285.665L228.71 281.135H229.667V288.261H228.71V282.865L226.664 286.734H225.952L223.905 282.865V288.261H222.948ZM231.707 288.261V281.135H232.664V283.985H233.947C234.89 283.985 235.582 284.182 236.023 284.576C236.471 284.969 236.695 285.485 236.695 286.123C236.695 286.761 236.471 287.277 236.023 287.67C235.582 288.064 234.89 288.261 233.947 288.261H231.707ZM232.664 287.426H233.896C234.574 287.426 235.049 287.314 235.321 287.09C235.599 286.859 235.738 286.537 235.738 286.123C235.738 285.709 235.599 285.39 235.321 285.166C235.049 284.935 234.574 284.82 233.896 284.82H232.664V287.426ZM237.774 288.261V281.135H238.731V288.261H237.774Z" fill="#474766"/>
<rect x="25.4551" y="314.638" width="308.556" height="36.8522" rx="18.4261" fill="white"/>
<rect x="40.6855" y="324.415" width="17.2955" height="17.2955" rx="8.64776" fill="#474766"/>
<path d="M270.87 335.683V334.176H272.438V330.399L270.87 331.519V329.686L272.448 328.556H274.281V334.176H275.553V335.683H270.87ZM275.957 335.683V334.38L278.319 332.425C278.624 332.174 278.872 331.953 279.062 331.763C279.259 331.566 279.398 331.383 279.479 331.213C279.568 331.044 279.612 330.871 279.612 330.694C279.612 330.457 279.547 330.274 279.418 330.145C279.289 330.016 279.103 329.951 278.858 329.951C278.539 329.951 278.298 330.053 278.136 330.257C277.973 330.46 277.891 330.759 277.891 331.152H276.059C276.059 330.569 276.161 330.077 276.364 329.676C276.575 329.269 276.887 328.96 277.301 328.75C277.715 328.533 278.234 328.424 278.858 328.424C279.442 328.424 279.924 328.523 280.304 328.719C280.691 328.909 280.979 329.174 281.169 329.513C281.359 329.853 281.454 330.246 281.454 330.694C281.454 331.02 281.38 331.332 281.23 331.631C281.081 331.923 280.877 332.201 280.62 332.466C280.368 332.724 280.077 332.981 279.744 333.239L278.512 334.176H281.556V335.683H275.957ZM287.77 335.815C287.369 335.815 286.996 335.75 286.65 335.622C286.304 335.486 286.002 335.272 285.744 334.98C285.486 334.688 285.282 334.308 285.133 333.84C284.99 333.365 284.919 332.791 284.919 332.12V331.916C284.919 331.292 284.99 330.759 285.133 330.318C285.282 329.876 285.486 329.517 285.744 329.239C286.002 328.96 286.304 328.757 286.65 328.628C286.996 328.492 287.369 328.424 287.77 328.424C288.17 328.424 288.543 328.492 288.889 328.628C289.236 328.757 289.538 328.96 289.795 329.239C290.053 329.517 290.254 329.876 290.396 330.318C290.545 330.759 290.62 331.292 290.62 331.916V332.12C290.62 332.791 290.545 333.365 290.396 333.84C290.254 334.308 290.053 334.688 289.795 334.98C289.538 335.272 289.236 335.486 288.889 335.622C288.543 335.75 288.17 335.815 287.77 335.815ZM287.77 334.308C287.905 334.308 288.034 334.274 288.156 334.206C288.279 334.139 288.384 334.023 288.472 333.86C288.567 333.691 288.642 333.467 288.696 333.188C288.75 332.903 288.777 332.547 288.777 332.12V331.916C288.777 331.414 288.733 331.02 288.645 330.735C288.557 330.443 288.435 330.236 288.279 330.114C288.123 329.992 287.953 329.931 287.77 329.931C287.586 329.931 287.417 329.992 287.261 330.114C287.111 330.236 286.989 330.443 286.894 330.735C286.799 331.02 286.752 331.414 286.752 331.916V332.12C286.752 332.547 286.779 332.903 286.833 333.188C286.887 333.467 286.962 333.691 287.057 333.86C287.159 334.023 287.267 334.139 287.383 334.206C287.505 334.274 287.634 334.308 287.77 334.308ZM294.391 335.815C293.99 335.815 293.617 335.75 293.271 335.622C292.925 335.486 292.623 335.272 292.365 334.98C292.107 334.688 291.903 334.308 291.754 333.84C291.612 333.365 291.54 332.791 291.54 332.12V331.916C291.54 331.292 291.612 330.759 291.754 330.318C291.903 329.876 292.107 329.517 292.365 329.239C292.623 328.96 292.925 328.757 293.271 328.628C293.617 328.492 293.99 328.424 294.391 328.424C294.791 328.424 295.164 328.492 295.511 328.628C295.857 328.757 296.159 328.96 296.417 329.239C296.674 329.517 296.875 329.876 297.017 330.318C297.167 330.759 297.241 331.292 297.241 331.916V332.12C297.241 332.791 297.167 333.365 297.017 333.84C296.875 334.308 296.674 334.688 296.417 334.98C296.159 335.272 295.857 335.486 295.511 335.622C295.164 335.75 294.791 335.815 294.391 335.815ZM294.391 334.308C294.526 334.308 294.655 334.274 294.778 334.206C294.9 334.139 295.005 334.023 295.093 333.86C295.188 333.691 295.263 333.467 295.317 333.188C295.371 332.903 295.399 332.547 295.399 332.12V331.916C295.399 331.414 295.354 331.02 295.266 330.735C295.178 330.443 295.056 330.236 294.9 330.114C294.744 329.992 294.574 329.931 294.391 329.931C294.207 329.931 294.038 329.992 293.882 330.114C293.732 330.236 293.61 330.443 293.515 330.735C293.42 331.02 293.373 331.414 293.373 331.916V332.12C293.373 332.547 293.4 332.903 293.454 333.188C293.508 333.467 293.583 333.691 293.678 333.86C293.78 334.023 293.889 334.139 294.004 334.206C294.126 334.274 294.255 334.308 294.391 334.308ZM301.012 335.815C300.611 335.815 300.238 335.75 299.892 335.622C299.546 335.486 299.244 335.272 298.986 334.98C298.728 334.688 298.524 334.308 298.375 333.84C298.233 333.365 298.161 332.791 298.161 332.12V331.916C298.161 331.292 298.233 330.759 298.375 330.318C298.524 329.876 298.728 329.517 298.986 329.239C299.244 328.96 299.546 328.757 299.892 328.628C300.238 328.492 300.611 328.424 301.012 328.424C301.412 328.424 301.786 328.492 302.132 328.628C302.478 328.757 302.78 328.96 303.038 329.239C303.296 329.517 303.496 329.876 303.638 330.318C303.788 330.759 303.862 331.292 303.862 331.916V332.12C303.862 332.791 303.788 333.365 303.638 333.84C303.496 334.308 303.296 334.688 303.038 334.98C302.78 335.272 302.478 335.486 302.132 335.622C301.786 335.75 301.412 335.815 301.012 335.815ZM301.012 334.308C301.148 334.308 301.277 334.274 301.399 334.206C301.521 334.139 301.626 334.023 301.714 333.86C301.809 333.691 301.884 333.467 301.938 333.188C301.993 332.903 302.02 332.547 302.02 332.12V331.916C302.02 331.414 301.976 331.02 301.887 330.735C301.799 330.443 301.677 330.236 301.521 330.114C301.365 329.992 301.195 329.931 301.012 329.931C300.829 329.931 300.659 329.992 300.503 330.114C300.354 330.236 300.231 330.443 300.136 330.735C300.041 331.02 299.994 331.414 299.994 331.916V332.12C299.994 332.547 300.021 332.903 300.075 333.188C300.13 333.467 300.204 333.691 300.299 333.86C300.401 334.023 300.51 334.139 300.625 334.206C300.747 334.274 300.876 334.308 301.012 334.308ZM305.434 335.683V334.909H304.518V333.708H305.434V333.219H304.518V331.814H305.434V328.556H308.142C308.739 328.556 309.235 328.655 309.628 328.852C310.029 329.042 310.331 329.313 310.534 329.666C310.738 330.019 310.84 330.443 310.84 330.939C310.84 331.393 310.738 331.794 310.534 332.14C310.331 332.479 310.029 332.744 309.628 332.934C309.235 333.124 308.739 333.219 308.142 333.219H307.287V333.708H309.415V334.909H307.287V335.683H305.434ZM307.287 331.814H307.949C308.308 331.814 308.573 331.739 308.743 331.59C308.919 331.441 309.007 331.224 309.007 330.939C309.007 330.654 308.919 330.436 308.743 330.287C308.566 330.138 308.301 330.063 307.949 330.063H307.287V331.814Z" fill="#474766"/>
<path d="M69.1215 335.683V328.556H73.6008V329.391H70.0785V335.683H69.1215ZM74.8181 335.683V328.556H77.2613C77.8925 328.556 78.4083 328.651 78.8087 328.842C79.2159 329.025 79.518 329.283 79.7148 329.615C79.9116 329.941 80.01 330.318 80.01 330.745C80.01 331.166 79.9116 331.543 79.7148 331.875C79.518 332.208 79.2159 332.469 78.8087 332.659C78.4083 332.842 77.8925 332.934 77.2613 332.934H75.775V335.683H74.8181ZM75.775 332.099H77.2104C77.8891 332.099 78.3642 331.977 78.6357 331.733C78.9139 331.488 79.0531 331.159 79.0531 330.745C79.0531 330.331 78.9139 330.002 78.6357 329.758C78.3642 329.513 77.8891 329.391 77.2104 329.391H75.775V332.099ZM82.4584 335.784C82.3838 335.784 82.3091 335.781 82.2345 335.774C82.1666 335.774 82.1055 335.771 82.0512 335.764V334.909C82.1055 334.916 82.1666 334.922 82.2345 334.929C82.3091 334.929 82.3838 334.929 82.4584 334.929C82.6552 334.929 82.8113 334.906 82.9267 334.858C83.0489 334.811 83.1541 334.726 83.2423 334.604C83.3305 334.481 83.4222 334.305 83.5172 334.074L80.5751 328.556H81.6135L83.9956 333.087L86.0113 328.556H86.9886L84.3927 334.288C84.2773 334.546 84.1585 334.77 84.0364 334.96C83.9142 335.15 83.7785 335.306 83.6292 335.428C83.4798 335.55 83.3102 335.639 83.1201 335.693C82.9301 335.754 82.7095 335.784 82.4584 335.784ZM88.2095 335.683V328.556H93.8086V335.683H92.8516V329.391H89.1664V335.683H88.2095ZM95.8446 335.683V328.556H101.444V335.683H100.487V329.391H96.8016V335.683H95.8446ZM106.228 335.784C105.821 335.784 105.428 335.717 105.048 335.581C104.674 335.438 104.338 335.221 104.04 334.929C103.741 334.637 103.504 334.264 103.327 333.809C103.157 333.355 103.073 332.808 103.073 332.17V331.967C103.073 331.356 103.157 330.83 103.327 330.389C103.504 329.948 103.741 329.585 104.04 329.3C104.338 329.008 104.674 328.794 105.048 328.658C105.428 328.523 105.821 328.455 106.228 328.455C106.636 328.455 107.026 328.523 107.399 328.658C107.779 328.794 108.119 329.008 108.417 329.3C108.716 329.585 108.95 329.948 109.12 330.389C109.296 330.83 109.384 331.356 109.384 331.967V332.17C109.384 332.808 109.296 333.355 109.12 333.809C108.95 334.264 108.716 334.637 108.417 334.929C108.119 335.221 107.779 335.438 107.399 335.581C107.026 335.717 106.636 335.784 106.228 335.784ZM106.228 334.929C106.602 334.929 106.948 334.838 107.267 334.654C107.593 334.471 107.857 334.176 108.061 333.769C108.265 333.362 108.366 332.829 108.366 332.17V331.967C108.366 331.342 108.265 330.837 108.061 330.45C107.857 330.056 107.593 329.768 107.267 329.585C106.948 329.401 106.602 329.31 106.228 329.31C105.862 329.31 105.516 329.401 105.19 329.585C104.864 329.768 104.6 330.056 104.396 330.45C104.192 330.837 104.091 331.342 104.091 331.967V332.17C104.091 332.829 104.192 333.362 104.396 333.769C104.6 334.176 104.864 334.471 105.19 334.654C105.516 334.838 105.862 334.929 106.228 334.929ZM111.016 335.683V328.556H113.561C114.409 328.556 115.027 328.736 115.413 329.096C115.807 329.449 116.004 329.904 116.004 330.46C116.004 330.827 115.902 331.142 115.698 331.407C115.495 331.665 115.244 331.851 114.945 331.967C115.366 332.062 115.698 332.255 115.943 332.547C116.187 332.832 116.309 333.205 116.309 333.667C116.309 334.054 116.224 334.4 116.055 334.705C115.885 335.004 115.614 335.241 115.24 335.418C114.867 335.594 114.375 335.683 113.764 335.683H111.016ZM111.972 334.848H113.764C114.375 334.848 114.792 334.739 115.016 334.522C115.24 334.298 115.352 334.003 115.352 333.636C115.352 333.263 115.24 332.968 115.016 332.751C114.792 332.527 114.372 332.415 113.754 332.415H111.972V334.848ZM111.972 331.621H113.561C114.131 331.621 114.521 331.516 114.731 331.305C114.942 331.095 115.047 330.827 115.047 330.501C115.047 330.168 114.942 329.9 114.731 329.697C114.521 329.493 114.131 329.391 113.561 329.391H111.972V331.621ZM117.836 335.683V328.556H118.792V331.407H120.075C121.019 331.407 121.711 331.604 122.152 331.997C122.6 332.391 122.824 332.907 122.824 333.545C122.824 334.183 122.6 334.699 122.152 335.092C121.711 335.486 121.019 335.683 120.075 335.683H117.836ZM118.792 334.848H120.024C120.703 334.848 121.178 334.736 121.449 334.512C121.728 334.281 121.867 333.959 121.867 333.545C121.867 333.131 121.728 332.812 121.449 332.588C121.178 332.357 120.703 332.242 120.024 332.242H118.792V334.848ZM123.903 335.683V328.556H124.86V335.683H123.903ZM126.892 335.683V328.556H131.473V329.391H127.849V331.6H131.168V332.435H127.849V334.848H131.473V335.683H126.892ZM135.651 335.683V328.556H141.25V335.683H140.293V329.391H136.608V335.683H135.651ZM143.286 335.683V328.556H145.729C146.361 328.556 146.876 328.651 147.277 328.842C147.684 329.025 147.986 329.283 148.183 329.615C148.38 329.941 148.478 330.318 148.478 330.745C148.478 331.166 148.38 331.543 148.183 331.875C147.986 332.208 147.684 332.469 147.277 332.659C146.876 332.842 146.361 332.934 145.729 332.934H144.243V335.683H143.286ZM144.243 332.099H145.678C146.357 332.099 146.832 331.977 147.104 331.733C147.382 331.488 147.521 331.159 147.521 330.745C147.521 330.331 147.382 330.002 147.104 329.758C146.832 329.513 146.357 329.391 145.678 329.391H144.243V332.099ZM152.706 335.784C152.298 335.784 151.905 335.717 151.525 335.581C151.151 335.438 150.815 335.221 150.517 334.929C150.218 334.637 149.981 334.264 149.804 333.809C149.635 333.355 149.55 332.808 149.55 332.17V331.967C149.55 331.356 149.635 330.83 149.804 330.389C149.981 329.948 150.218 329.585 150.517 329.3C150.815 329.008 151.151 328.794 151.525 328.658C151.905 328.523 152.298 328.455 152.706 328.455C153.113 328.455 153.503 328.523 153.876 328.658C154.256 328.794 154.596 329.008 154.894 329.3C155.193 329.585 155.427 329.948 155.597 330.389C155.773 330.83 155.861 331.356 155.861 331.967V332.17C155.861 332.808 155.773 333.355 155.597 333.809C155.427 334.264 155.193 334.637 154.894 334.929C154.596 335.221 154.256 335.438 153.876 335.581C153.503 335.717 153.113 335.784 152.706 335.784ZM152.706 334.929C153.079 334.929 153.425 334.838 153.744 334.654C154.07 334.471 154.334 334.176 154.538 333.769C154.742 333.362 154.843 332.829 154.843 332.17V331.967C154.843 331.342 154.742 330.837 154.538 330.45C154.334 330.056 154.07 329.768 153.744 329.585C153.425 329.401 153.079 329.31 152.706 329.31C152.339 329.31 151.993 329.401 151.667 329.585C151.341 329.768 151.077 330.056 150.873 330.45C150.67 330.837 150.568 331.342 150.568 331.967V332.17C150.568 332.829 150.67 333.362 150.873 333.769C151.077 334.176 151.341 334.471 151.667 334.654C151.993 334.838 152.339 334.929 152.706 334.929ZM157.493 335.683V328.556H161.972V329.391H158.45V335.683H157.493ZM163.189 335.683V328.556H165.632C166.264 328.556 166.779 328.651 167.18 328.842C167.587 329.025 167.889 329.283 168.086 329.615C168.283 329.941 168.381 330.318 168.381 330.745C168.381 331.166 168.283 331.543 168.086 331.875C167.889 332.208 167.587 332.469 167.18 332.659C166.779 332.842 166.264 332.934 165.632 332.934H164.146V335.683H163.189ZM164.146 332.099H165.582C166.26 332.099 166.735 331.977 167.007 331.733C167.285 331.488 167.424 331.159 167.424 330.745C167.424 330.331 167.285 330.002 167.007 329.758C166.735 329.513 166.26 329.391 165.582 329.391H164.146V332.099ZM168.23 335.683L170.959 328.556H171.916L174.644 335.683H173.606L172.923 333.911H169.91L169.228 335.683H168.23ZM170.226 333.076H172.608L171.417 329.778L170.226 333.076ZM175.865 335.683V328.556H176.862L179.245 333.087L181.627 328.556H182.584V335.683H181.627V330.287L179.581 334.156H178.868L176.822 330.287V335.683H175.865ZM184.623 335.683V328.556H185.621L188.003 333.087L190.385 328.556H191.342V335.683H190.385V330.287L188.339 334.156H187.627L185.58 330.287V335.683H184.623ZM193.382 335.683V328.556H194.339V331.407H195.622C196.565 331.407 197.257 331.604 197.698 331.997C198.146 332.391 198.37 332.907 198.37 333.545C198.37 334.183 198.146 334.699 197.698 335.092C197.257 335.486 196.565 335.683 195.622 335.683H193.382ZM194.339 334.848H195.571C196.249 334.848 196.724 334.736 196.996 334.512C197.274 334.281 197.413 333.959 197.413 333.545C197.413 333.131 197.274 332.812 196.996 332.588C196.724 332.357 196.249 332.242 195.571 332.242H194.339V334.848ZM199.449 335.683V328.556H200.406V335.683H199.449Z" fill="#474766"/>
</g>
<defs>
<filter id="filter0_d_6301_1157" x="29.3812" y="1.62366" width="217.441" height="216.4" filterUnits="userSpaceOnUse" color-interpolation-filters="sRGB">
<feFlood flood-opacity="0" result="BackgroundImageFix"/>
<feColorMatrix in="SourceAlpha" type="matrix" values="0 0 0 0 0 0 0 0 0 0 0 0 0 0 0 0 0 0 127 0" result="hardAlpha"/>
<feOffset dy="4.38836"/>
<feGaussianBlur stdDeviation="2.19418"/>
<feComposite in2="hardAlpha" operator="out"/>
<feColorMatrix type="matrix" values="0 0 0 0 0.278431 0 0 0 0 0.278431 0 0 0 0 0.4 0 0 0 0.06 0"/>
<feBlend mode="normal" in2="BackgroundImageFix" result="effect1_dropShadow_6301_1157"/>
<feBlend mode="normal" in="SourceGraphic" in2="effect1_dropShadow_6301_1157" result="shape"/>
</filter>
<filter id="filter1_d_6301_1157" x="0.0272942" y="199.446" width="359.412" height="182.583" filterUnits="userSpaceOnUse" color-interpolation-filters="sRGB">
<feFlood flood-opacity="0" result="BackgroundImageFix"/>
<feColorMatrix in="SourceAlpha" type="matrix" values="0 0 0 0 0 0 0 0 0 0 0 0 0 0 0 0 0 0 127 0" result="hardAlpha"/>
<feOffset dy="5.11111"/>
<feGaussianBlur stdDeviation="12.7139"/>
<feComposite in2="hardAlpha" operator="out"/>
<feColorMatrix type="matrix" values="0 0 0 0 0 0 0 0 0 0 0 0 0 0 0 0 0 0 0.06 0"/>
<feBlend mode="normal" in2="BackgroundImageFix" result="effect1_dropShadow_6301_1157"/>
<feBlend mode="normal" in="SourceGraphic" in2="effect1_dropShadow_6301_1157" result="shape"/>
</filter>
</defs>
</svg>
