<svg width="85" height="30" viewBox="0 0 85 30" fill="none" xmlns="http://www.w3.org/2000/svg">
<path d="M0.0693359 27.6861V2.05345C0.213308 1.67194 0.442868 1.32853 0.740355 1.04964C1.03784 0.770741 1.39533 0.563796 1.78533 0.444711H27.418C27.7995 0.588724 28.1429 0.818273 28.4218 1.11574C28.7007 1.4132 28.9077 1.77066 29.0268 2.16062V27.7933C28.8829 28.1748 28.6534 28.5183 28.3559 28.7972C28.0584 29.0761 27.7009 29.283 27.3108 29.402H1.67819C1.2966 29.2582 0.95311 29.0287 0.674181 28.7312C0.395252 28.4337 0.188323 28.0762 0.0693359 27.6861ZM13.7794 20.3653C13.7794 20.1267 13.7794 19.934 13.7794 19.7412C13.7792 18.6872 13.7871 17.6332 13.7754 16.5794C13.7853 16.472 13.7733 16.3638 13.74 16.2612C13.7067 16.1587 13.6528 16.064 13.5817 15.9829C13.5105 15.9019 13.4236 15.8362 13.3263 15.7899C13.2289 15.7436 13.1231 15.7176 13.0153 15.7135C12.9075 15.7122 12.8006 15.7328 12.7011 15.7742C12.6015 15.8156 12.5115 15.8768 12.4364 15.9542C12.3613 16.0316 12.3028 16.1234 12.2645 16.2242C12.2261 16.3249 12.2087 16.4325 12.2134 16.5402C12.198 17.844 12.1847 19.1488 12.2205 20.4518C12.2196 20.6495 12.2588 20.8454 12.3356 21.0276C12.4124 21.2098 12.5252 21.3747 12.6674 21.5121C12.8095 21.6496 12.978 21.7569 13.1627 21.8276C13.3474 21.8982 13.5444 21.9308 13.742 21.9234C14.2776 21.9373 14.8141 21.9383 15.3496 21.9231C15.5475 21.9292 15.7445 21.8956 15.9292 21.8243C16.1139 21.7531 16.2825 21.6456 16.425 21.5082C16.5676 21.3709 16.6812 21.2064 16.7592 21.0245C16.8373 20.8426 16.8782 20.6469 16.8795 20.4489C16.9033 17.8232 16.9034 15.1974 16.8797 12.5713C16.8918 12.1884 16.7523 11.8161 16.4914 11.5354C16.2306 11.2547 15.8696 11.0883 15.4868 11.0724C13.0935 11.0426 10.6996 11.0524 8.30598 11.063C8.20637 11.0561 8.10643 11.0707 8.01299 11.1059C7.91955 11.1412 7.83483 11.1962 7.76459 11.2671C7.69436 11.3381 7.64028 11.4234 7.60605 11.5172C7.57182 11.611 7.55824 11.7111 7.56625 11.8107C7.55515 11.9094 7.56525 12.0095 7.59588 12.104C7.6265 12.1986 7.67694 12.2856 7.74383 12.3591C7.81073 12.4327 7.89253 12.4911 7.9838 12.5305C8.07506 12.5699 8.17368 12.5894 8.27307 12.5877C8.43345 12.5989 8.59429 12.6017 8.75496 12.5961C10.7378 12.5965 12.7207 12.5966 14.7035 12.5964H15.2887V20.3655L13.7794 20.3653ZM20.0028 9.48594C20.0028 9.81303 19.9928 10.0446 20.0049 10.275C19.9993 10.3779 20.0149 10.4809 20.0507 10.5775C20.0866 10.6741 20.1419 10.7624 20.2132 10.8368C20.2845 10.9112 20.3704 10.9701 20.4654 11.01C20.5604 11.0499 20.6626 11.0698 20.7657 11.0686C20.8684 11.0712 20.9706 11.0528 21.0659 11.0143C21.1612 10.9758 21.2476 10.9182 21.3197 10.845C21.3918 10.7717 21.4481 10.6845 21.4851 10.5886C21.5221 10.4927 21.539 10.3902 21.5347 10.2876C21.5441 10.1093 21.5374 9.9302 21.5372 9.75151C21.5352 8.51363 20.9744 7.94533 19.7492 7.94507C16.05 7.94419 12.3509 7.9441 8.65168 7.94478C8.54446 7.94478 8.43694 7.94002 8.33007 7.94626C8.23112 7.93966 8.1319 7.95369 8.03867 7.98749C7.94545 8.02128 7.86027 8.0741 7.78854 8.14257C7.71682 8.21104 7.66011 8.29367 7.62202 8.38522C7.58393 8.47678 7.5653 8.57526 7.5673 8.67441C7.5543 8.77299 7.56234 8.87321 7.59087 8.96847C7.61941 9.06373 7.6678 9.15186 7.73286 9.22706C7.79792 9.30227 7.87817 9.36283 7.96834 9.40477C8.0585 9.44671 8.15653 9.46908 8.25596 9.47039C8.4339 9.48672 8.61269 9.49175 8.79126 9.48545C12.2939 9.48618 15.7964 9.48638 19.299 9.48601L20.0028 9.48594ZM38.4253 7.72838V1.99935H36.2386V0.54171H42.1933V1.99935H40.0066V7.72838H38.4253ZM49.3236 6.76845C48.9648 7.12508 48.5372 7.405 48.0669 7.5912C47.5965 7.77739 47.0932 7.86597 46.5875 7.85154C46.0837 7.86668 45.5821 7.77889 45.1134 7.59354C44.6448 7.4082 44.2188 7.12918 43.8617 6.77357C43.5099 6.43147 43.2322 6.02071 43.0459 5.56679C42.8596 5.11287 42.7685 4.62549 42.7785 4.13492C42.7699 3.6444 42.8626 3.15738 43.0507 2.7043C43.2389 2.25122 43.5184 1.8418 43.8719 1.50165C44.2307 1.14497 44.6582 0.864992 45.1286 0.67875C45.5989 0.492508 46.1023 0.403892 46.6079 0.418296C47.1117 0.403166 47.6133 0.490983 48.082 0.676372C48.5507 0.861761 48.9766 1.14082 49.3338 1.49649C49.6855 1.83856 49.9631 2.2493 50.1495 2.70318C50.3358 3.15705 50.4269 3.64438 50.417 4.13492C50.4256 4.62547 50.3329 5.11253 50.1448 5.56566C49.9567 6.01879 49.6771 6.42825 49.3236 6.76845H49.3236ZM45.0474 5.73651C45.2456 5.95103 45.4874 6.12066 45.7565 6.23399C46.0257 6.34733 46.316 6.40175 46.6079 6.39361C46.898 6.40256 47.1866 6.34895 47.4541 6.23645C47.7216 6.12395 47.9618 5.9552 48.1582 5.74164C48.5626 5.30592 48.7801 4.7291 48.7641 4.13489C48.7777 3.54071 48.5564 2.96515 48.148 2.53328C47.9498 2.31881 47.708 2.14922 47.4389 2.03589C47.1698 1.92256 46.8795 1.8681 46.5876 1.87618C46.2975 1.86727 46.0089 1.92087 45.7414 2.03337C45.4739 2.14586 45.2338 2.31462 45.0373 2.52815C44.6329 2.96387 44.4155 3.54069 44.4316 4.13489C44.4177 4.72907 44.6391 5.30468 45.0474 5.73653L45.0474 5.73651ZM51.8233 7.72835V0.54163H54.7597C55.4942 0.501429 56.2157 0.747982 56.772 1.22932C57.018 1.46175 57.2112 1.74426 57.3387 2.05776C57.4662 2.37126 57.525 2.70847 57.5111 3.04662C57.5297 3.39983 57.465 3.75248 57.3224 4.07613C57.1797 4.39978 56.963 4.68537 56.6897 4.90992C56.0938 5.36751 55.3563 5.60185 54.6056 5.57219H53.4044V7.72821L51.8233 7.72835ZM53.4045 4.16575H54.657C54.9915 4.18507 55.3205 4.07474 55.5757 3.85774C55.6857 3.75615 55.7725 3.63202 55.8301 3.49381C55.8877 3.3556 55.9147 3.20657 55.9094 3.05693C55.9184 2.90563 55.8926 2.75428 55.8339 2.61455C55.7751 2.47481 55.6851 2.35042 55.5707 2.25099C55.2991 2.04821 54.9644 1.94822 54.6261 1.96871H53.4044L53.4045 4.16575ZM39.3083 18.7633C38.1824 18.7827 37.0917 18.3713 36.259 17.6133L37.1934 16.4943C37.7826 17.0304 38.543 17.3397 39.3391 17.3671C39.605 17.3813 39.8693 17.3171 40.0989 17.1822C40.1861 17.1285 40.2575 17.0527 40.3062 16.9626C40.3548 16.8725 40.3789 16.7712 40.376 16.6689C40.3761 16.568 40.3495 16.4688 40.2991 16.3814C40.2486 16.294 40.176 16.2214 40.0886 16.1709C39.7231 15.979 39.3326 15.8391 38.9284 15.7552C38.5905 15.6751 38.258 15.574 37.9326 15.4525C37.6758 15.3513 37.4327 15.2185 37.2088 15.0571C36.9862 14.9013 36.8119 14.6861 36.7057 14.436C36.5929 14.1503 36.5388 13.8448 36.5466 13.5378C36.5364 13.2396 36.5944 12.9431 36.7163 12.6708C36.8382 12.3985 37.0207 12.1577 37.2498 11.9667C37.7617 11.5552 38.4056 11.3436 39.0618 11.3713C40.0312 11.354 40.9758 11.6774 41.7312 12.285L40.9099 13.4761C40.3737 13.0551 39.7218 12.8079 39.0414 12.7674C38.8004 12.7526 38.5611 12.8156 38.3586 12.9471C38.283 12.999 38.2214 13.0688 38.1793 13.1503C38.1372 13.2318 38.1159 13.3224 38.1173 13.4142C38.1129 13.5206 38.1384 13.6261 38.1911 13.7187C38.2438 13.8113 38.3214 13.8873 38.4151 13.9378C38.8153 14.1253 39.2355 14.2666 39.6676 14.359C40.2941 14.4913 40.8833 14.7613 41.3924 15.1496C41.5819 15.3249 41.73 15.5403 41.8259 15.78C41.9218 16.0197 41.9631 16.2778 41.9468 16.5355C41.9619 16.8459 41.9044 17.1556 41.7787 17.4399C41.6531 17.7242 41.4629 17.9753 41.2231 18.1731C40.6738 18.5883 39.996 18.7972 39.3082 18.7633L39.3083 18.7633ZM44.8421 18.6606V12.9317H42.6553V11.474H48.61V12.9317H46.4233V18.6607L44.8421 18.6606ZM49.8214 18.6606V11.4739H53.1068C54.017 11.4739 54.7151 11.7168 55.2012 12.2027C55.4114 12.4237 55.5743 12.6851 55.6803 12.971C55.7862 13.257 55.8328 13.5615 55.8172 13.866C55.8483 14.3564 55.7132 14.843 55.4338 15.2472C55.1544 15.6514 54.7469 15.9497 54.2772 16.0939L56.0328 18.6606H54.1848L52.6242 16.3607H51.4025V18.6606L49.8214 18.6606ZM51.4026 14.9646H53.0042C53.3266 14.9846 53.645 14.884 53.8973 14.6823C54.0028 14.5878 54.086 14.4711 54.1411 14.3406C54.1961 14.2101 54.2215 14.069 54.2156 13.9275C54.2248 13.7832 54.1998 13.6387 54.1428 13.5058C54.0857 13.373 53.9981 13.2554 53.8871 13.1627C53.6213 12.9739 53.2989 12.8815 52.9733 12.901H51.4026V14.9646ZM57.2441 18.6606V11.4739H62.6649V12.8806H58.8149V14.3385H62.2029V15.7449H58.8149V17.2542H62.7163V18.6607L57.2441 18.6606ZM65.7964 18.6606V12.9317H63.6097V11.474H69.5644V12.9317H67.3776V18.6607L65.7964 18.6606ZM73.8351 18.7838C73.3459 18.7969 72.8592 18.7084 72.4059 18.5237C71.9526 18.3391 71.5426 18.0624 71.2017 17.7112C70.8572 17.3642 70.5864 16.9511 70.4055 16.4968C70.2247 16.0424 70.1376 15.5562 70.1494 15.0674C70.1387 14.579 70.2269 14.0936 70.4086 13.6402C70.5904 13.1868 70.8619 12.7748 71.2069 12.429C71.5563 12.073 71.9757 11.7934 72.4387 11.6079C72.9017 11.4223 73.3982 11.3347 73.8967 11.3508C74.4363 11.3341 74.9728 11.4375 75.4676 11.6535C75.9168 11.8733 76.3263 12.1666 76.6791 12.5211L75.7345 13.6094C75.477 13.3641 75.1847 13.1583 74.8669 12.9986C74.558 12.8643 74.2233 12.7994 73.8865 12.8086C73.605 12.8017 73.3254 12.8564 73.0673 12.969C72.8092 13.0817 72.5789 13.2494 72.3926 13.4606C71.997 13.9006 71.7857 14.4759 71.8024 15.0673C71.7874 15.657 71.9986 16.23 72.3926 16.669C72.5781 16.8814 72.8082 17.0505 73.0663 17.164C73.3245 17.2776 73.6046 17.3329 73.8865 17.3261C74.2298 17.3346 74.5704 17.2643 74.8823 17.1207C75.2086 16.9518 75.5094 16.7375 75.7756 16.4842L76.7818 17.5624C76.4271 17.9542 75.9954 18.2688 75.5137 18.4864C74.9804 18.6993 74.4091 18.8005 73.8351 18.7839L73.8351 18.7838ZM78.0445 18.6606V11.4739H79.6257V14.3179H82.5413V11.474H84.1224V18.6608H82.5414V15.7758H79.6256V18.6608L78.0445 18.6606ZM66.0463 29.4356V22.2489H67.6275V29.4356H66.0463ZM69.4241 29.4356V22.2489H70.882L74.2495 26.6738V22.249H75.8101V29.4358H74.465L70.9847 24.8669V29.4358L69.4241 29.4356ZM80.9946 29.5588C80.493 29.5784 79.9926 29.4956 79.524 29.3156C79.0554 29.1356 78.6283 28.862 78.2688 28.5116C77.92 28.1624 77.6467 27.7453 77.4657 27.2861C77.2846 26.8269 77.1998 26.3354 77.2165 25.8421C77.2074 25.353 77.2984 24.8671 77.4837 24.4143C77.6691 23.9615 77.945 23.5513 78.2945 23.2089C78.6447 22.8537 79.0642 22.5742 79.5269 22.3879C79.9896 22.2015 80.4857 22.1122 80.9843 22.1255C81.5215 22.112 82.0568 22.1937 82.5655 22.3669C83.0194 22.5414 83.4397 22.7932 83.8077 23.1112L82.8118 24.3125C82.5507 24.0845 82.2565 23.8975 81.9391 23.758C81.6184 23.6345 81.2766 23.5752 80.933 23.5834C80.6556 23.5804 80.3809 23.6382 80.1282 23.7526C79.8755 23.8669 79.6508 24.0353 79.47 24.2457C79.072 24.6808 78.8569 25.2526 78.8695 25.8421C78.8491 26.4457 79.0687 27.0326 79.4802 27.4746C79.6803 27.6873 79.9234 27.855 80.1934 27.9665C80.4633 28.0781 80.7539 28.1309 81.0458 28.1214C81.5752 28.1389 82.0965 27.988 82.5346 27.6903V26.6636H80.9432V25.2983H84.0643V28.4192C83.2147 29.1615 82.1227 29.5669 80.9945 29.5589L80.9946 29.5588ZM84.0555 3.67052C84.0555 3.49597 83.9862 3.32858 83.8628 3.20516C83.7393 3.08173 83.572 3.01239 83.3974 3.01239H61.6047C61.4302 3.01239 61.2628 3.08173 61.1394 3.20516C61.0159 3.32858 60.9466 3.49597 60.9466 3.67052C60.9466 3.84506 61.0159 4.01246 61.1394 4.13588C61.2628 4.2593 61.4302 4.32864 61.6047 4.32864H83.3974C83.5719 4.32862 83.7393 4.2593 83.8627 4.1359C83.9861 4.0125 84.0554 3.84513 84.0555 3.67062L84.0555 3.67052ZM62.1094 25.7761C62.1094 25.6015 62.04 25.4341 61.9166 25.3107C61.7932 25.1873 61.6258 25.1179 61.4513 25.1179H36.8701C36.6955 25.1179 36.5281 25.1873 36.4047 25.3107C36.2813 25.4341 36.2119 25.6015 36.2119 25.7761C36.2119 25.9506 36.2813 26.118 36.4047 26.2414C36.5281 26.3648 36.6955 26.4342 36.8701 26.4342H61.4513C61.6258 26.4342 61.7931 26.3648 61.9165 26.2414C62.0399 26.118 62.1093 25.9507 62.1093 25.7762L62.1094 25.7761Z" fill="#B9B9B9"/>
</svg>
