<svg width="76" height="36" viewBox="0 0 76 36" fill="none" xmlns="http://www.w3.org/2000/svg">
<path d="M14.9163 28.7746C14.9182 28.8744 14.9114 28.9741 14.8961 29.0727C14.8939 29.183 14.8521 29.2887 14.7785 29.3708C14.752 29.391 14.7205 29.4035 14.6874 29.4071H12.188V31.4666H14.5327C14.569 31.4666 14.6036 31.4795 14.631 31.5029C14.6611 31.5342 14.6847 31.5712 14.7003 31.6117C14.7245 31.6681 14.7406 31.7293 14.7463 31.7914C14.7584 31.888 14.7632 31.9863 14.7608 32.0847C14.7632 32.1838 14.7584 32.2837 14.7463 32.3828C14.7382 32.4489 14.7229 32.5141 14.7003 32.577C14.6853 32.6169 14.6617 32.6529 14.631 32.6825C14.6037 32.7053 14.5691 32.7176 14.5335 32.7172H12.1888V35.572C12.1909 35.615 12.1787 35.6575 12.1541 35.6928C12.1218 35.7308 12.0793 35.7588 12.0317 35.7734C11.9624 35.7887 11.8866 35.8081 11.7867 35.8226C11.6618 35.8355 11.5369 35.8411 11.4112 35.8403C11.2622 35.8403 11.1421 35.8403 11.0406 35.8226C10.9587 35.8089 10.8773 35.7927 10.7964 35.7742C10.7481 35.7601 10.7054 35.7314 10.6739 35.692C10.6451 35.6586 10.6301 35.6153 10.632 35.5712V28.6263C10.6264 28.5575 10.6353 28.4882 10.658 28.423C10.6808 28.3577 10.7169 28.298 10.7642 28.2476C10.8562 28.1703 10.9728 28.1284 11.0929 28.1292H14.6874C14.7197 28.1332 14.7519 28.1453 14.7785 28.1638C14.8075 28.196 14.8325 28.2323 14.8518 28.2718C14.88 28.3338 14.8953 28.4007 14.8961 28.4692C14.9106 28.5699 14.9179 28.6722 14.9155 28.7746H14.9163ZM20.7331 35.4842C20.7335 35.5292 20.7162 35.5727 20.6847 35.605C20.6519 35.6434 20.608 35.6707 20.559 35.6832C20.4785 35.7041 20.3963 35.7202 20.3141 35.7323C20.2158 35.7323 20.0861 35.7501 19.937 35.7501C19.7871 35.7501 19.6622 35.7501 19.5591 35.7323C19.4805 35.7213 19.4027 35.7052 19.3262 35.684C19.2813 35.6696 19.242 35.6417 19.2134 35.6042C19.1996 35.5899 19.1889 35.573 19.1818 35.5544C19.1748 35.5359 19.1715 35.5161 19.1723 35.4962V28.2452C19.1741 28.2048 19.1885 28.1659 19.2134 28.134C19.2493 28.0965 19.2956 28.0706 19.3464 28.0599C19.4221 28.0373 19.4995 28.0204 19.5792 28.0115C19.8298 27.9914 20.082 27.9914 20.3334 28.0115C20.4164 28.0196 20.4986 28.0365 20.5784 28.0599C20.6259 28.073 20.669 28.0986 20.7033 28.134C20.7255 28.1673 20.7393 28.2054 20.7435 28.2452L20.7331 35.4833V35.4842ZM30.486 28.6706C30.4917 28.7697 30.4917 28.8689 30.486 28.9688C30.4786 29.0336 30.4629 29.0973 30.4393 29.1581C30.4258 29.2001 30.4013 29.2377 30.3684 29.2669C30.3409 29.2864 30.3091 29.2989 30.2757 29.3032H28.3564V35.4833C28.3578 35.5029 28.3553 35.5224 28.3491 35.541C28.3429 35.5595 28.333 35.5766 28.3201 35.5913C28.2867 35.6314 28.2407 35.659 28.1896 35.6695C28.1133 35.6904 28.0358 35.7068 27.9575 35.7186C27.8544 35.7186 27.7343 35.7364 27.5772 35.7364C27.4201 35.7364 27.3073 35.7364 27.205 35.7186C27.1018 35.7025 27.0261 35.6848 26.96 35.6703C26.9104 35.6579 26.8658 35.6303 26.8327 35.5913C26.8097 35.5599 26.7983 35.5214 26.8005 35.4825V29.3032H24.8892C24.8512 29.3016 24.8145 29.289 24.7836 29.2669C24.753 29.2362 24.7297 29.199 24.7151 29.1581C24.6945 29.0967 24.6804 29.0332 24.6733 28.9688C24.6664 28.8695 24.6664 28.7699 24.6733 28.6706C24.6664 28.5687 24.6664 28.4664 24.6733 28.3644C24.6792 28.2985 24.6933 28.2336 24.7151 28.1711C24.7322 28.1307 24.7553 28.0932 24.7836 28.0599C24.8155 28.0405 24.8513 28.0286 24.8884 28.0252H30.2805C30.3128 28.0309 30.345 28.0421 30.3732 28.0599C30.4038 28.0921 30.428 28.1292 30.4441 28.1703C30.4691 28.2331 30.4844 28.2984 30.4908 28.3653C30.4949 28.4668 30.4933 28.5691 30.486 28.6706ZM40.4646 35.1594C40.4664 35.244 40.4504 35.328 40.4178 35.406C40.3905 35.4754 40.3478 35.5376 40.2929 35.5881C40.2354 35.632 40.1719 35.6675 40.1044 35.6937C40.0319 35.713 39.9585 35.7243 39.8836 35.7283H39.2245C39.1046 35.7302 38.985 35.7139 38.87 35.68C38.7645 35.6549 38.6674 35.603 38.5879 35.5293C38.4927 35.4408 38.41 35.3396 38.3422 35.2287C38.2398 35.0765 38.1506 34.9159 38.0755 34.7485L36.1739 31.1596C36.0732 30.9429 35.9579 30.7245 35.8379 30.478C35.7178 30.2314 35.6203 29.9848 35.5317 29.7584C35.5317 30.0396 35.5615 30.32 35.5712 30.5988C35.5808 30.8768 35.5712 31.1749 35.5712 31.4771V35.4874C35.5747 35.5266 35.5641 35.5657 35.5414 35.5978C35.5163 35.637 35.478 35.6659 35.4334 35.6791C35.3629 35.7004 35.291 35.7168 35.2183 35.7283C34.9884 35.7523 34.7567 35.7523 34.5269 35.7283C34.4541 35.7163 34.382 35.7001 34.311 35.68C34.2675 35.6574 34.2256 35.6324 34.2135 35.5978C34.1904 35.5656 34.1783 35.5269 34.1788 35.4874V28.5909C34.1747 28.5142 34.1868 28.4376 34.2143 28.366C34.2418 28.2943 34.2841 28.2293 34.3384 28.1751C34.4501 28.0791 34.5932 28.0275 34.7404 28.0301H35.5688C35.6953 28.0317 35.8218 28.0462 35.9459 28.0744C36.0482 28.0929 36.1433 28.1388 36.223 28.2073C36.3117 28.275 36.3882 28.358 36.4486 28.4531C36.5308 28.5764 36.605 28.7061 36.6686 28.8398L38.1536 31.6399C38.2447 31.8099 38.3277 31.9799 38.4115 32.133L38.6564 32.6253C38.729 32.7857 38.8103 32.9533 38.882 33.1176C38.953 33.2828 39.0335 33.4359 39.102 33.5882C39.102 33.3199 39.0827 33.0322 39.0754 32.726V28.2637C39.0718 28.2255 39.0812 28.1872 39.102 28.1549C39.1354 28.1158 39.1785 28.0861 39.2269 28.0687C39.2945 28.0422 39.3656 28.0259 39.438 28.0204C39.5524 28.0059 39.6677 27.9986 39.7837 27.9978C39.8973 27.9978 40.0109 28.0059 40.1237 28.0196C40.1977 28.0258 40.2705 28.0426 40.3397 28.0695C40.38 28.0881 40.4154 28.1179 40.4404 28.1549C40.4597 28.1872 40.4694 28.2259 40.467 28.2637L40.4646 35.1594ZM49.4311 35.0885C49.4311 35.2013 49.4311 35.29 49.4166 35.3786C49.4077 35.4414 49.3924 35.5027 49.3723 35.5615C49.3557 35.6017 49.3316 35.6383 49.3013 35.6695C49.2707 35.6855 49.2374 35.6956 49.203 35.6993H45.3708C45.2476 35.7009 45.1278 35.6589 45.0324 35.5808C44.9874 35.5292 44.9531 35.4692 44.9317 35.4041C44.9102 35.3391 44.902 35.2704 44.9075 35.2021V28.5224C44.9024 28.4541 44.9108 28.3856 44.9322 28.3206C44.9536 28.2556 44.9877 28.1955 45.0324 28.1437C45.1277 28.0655 45.2476 28.0236 45.3708 28.0252H49.174C49.2095 28.0293 49.2433 28.0413 49.274 28.0599C49.3078 28.0857 49.3304 28.1243 49.3384 28.1654C49.3654 28.2253 49.3802 28.2899 49.3819 28.3556C49.3956 28.4507 49.4005 28.5474 49.3964 28.6432C49.4005 28.7375 49.3948 28.831 49.3819 28.9245C49.3807 28.9877 49.3656 29.0499 49.3376 29.1066C49.3286 29.1485 49.3062 29.1863 49.274 29.2145C49.2603 29.2264 49.2445 29.2353 49.2273 29.2409C49.2101 29.2464 49.192 29.2484 49.174 29.2468H46.449V31.1242H48.7575C48.7951 31.1273 48.831 31.1416 48.8605 31.1651C48.89 31.1886 48.9119 31.2204 48.9235 31.2563C48.95 31.3143 48.9662 31.3772 48.9702 31.4417C48.9965 31.6304 48.9965 31.8218 48.9702 32.0105C48.965 32.0726 48.9492 32.1334 48.9235 32.1902C48.9113 32.2257 48.8892 32.2568 48.8597 32.28C48.8303 32.3032 48.7948 32.3173 48.7575 32.3207H46.449V34.4778H49.203C49.2385 34.4778 49.2731 34.489 49.3013 34.51C49.3271 34.5406 49.3513 34.5745 49.3723 34.6083C49.3924 34.6695 49.4069 34.7316 49.4166 34.7952C49.4238 34.879 49.4311 34.9806 49.4311 35.0885ZM58.3388 33.3997C58.3444 33.7639 58.2663 34.1248 58.1107 34.4536C57.9709 34.7523 57.7628 35.014 57.5032 35.2174C57.2366 35.4283 56.9322 35.5863 56.6064 35.6832C56.2531 35.7869 55.8868 35.839 55.5186 35.8379C55.2712 35.8379 55.0255 35.8153 54.7829 35.7718C54.5799 35.7315 54.3801 35.68 54.1827 35.6187C54.0332 35.5587 53.8876 35.4896 53.7467 35.4116C53.6579 35.365 53.5754 35.3073 53.501 35.24C53.445 35.1786 53.4062 35.1036 53.3882 35.0225C53.3667 34.8833 53.3586 34.7425 53.364 34.6018V34.2916C53.3721 34.2231 53.3849 34.1555 53.4035 34.0902C53.4234 34.0509 53.4472 34.0136 53.4744 33.979C53.5066 33.9622 53.543 33.9552 53.5791 33.9588C53.6652 33.9634 53.7474 33.9962 53.8128 34.0523C53.9151 34.1071 54.0424 34.1877 54.1996 34.2642C54.3825 34.3472 54.5702 34.4189 54.7612 34.4818C55.0078 34.5487 55.2624 34.5817 55.5186 34.5793C55.6918 34.5825 55.8643 34.5583 56.0303 34.5084C56.1664 34.4649 56.2946 34.3996 56.4098 34.3158C56.5145 34.2336 56.5975 34.1281 56.6555 34.008C56.7119 33.875 56.7409 33.7316 56.7385 33.5874C56.7427 33.4315 56.6923 33.279 56.5959 33.1563C56.492 33.0201 56.363 32.9065 56.2172 32.8187C56.0527 32.7135 55.8784 32.6244 55.6967 32.5528C55.5057 32.4642 55.3002 32.3731 55.1036 32.2772C54.9078 32.1805 54.7 32.0822 54.5009 31.9614C54.3092 31.8362 54.1361 31.6846 53.9869 31.5109C53.8308 31.3378 53.7062 31.1387 53.6186 30.9227C53.5253 30.6587 53.4806 30.38 53.4865 30.1001C53.4773 29.7659 53.5463 29.4343 53.6879 29.1315C53.8185 28.8624 54.0078 28.6263 54.2415 28.4402C54.4832 28.25 54.758 28.1074 55.0529 28.0212C55.376 27.935 55.7104 27.8923 56.0448 27.8931C56.2269 27.8923 56.409 27.9036 56.5887 27.9277C56.7603 27.9559 56.9303 27.9962 57.0963 28.0486C57.2413 28.0865 57.3831 28.1404 57.5177 28.2081C57.6063 28.2452 57.6893 28.2943 57.7627 28.3564C57.7908 28.3848 57.8147 28.4171 57.8336 28.4523C57.8535 28.4861 57.8661 28.5237 57.8706 28.5627C57.8851 28.6191 57.8924 28.6755 57.8924 28.7327V29.2822C57.8924 29.3628 57.8706 29.4297 57.8658 29.4812C57.8507 29.522 57.8283 29.5597 57.7997 29.5924C57.7755 29.6222 57.7457 29.6271 57.6942 29.6271C57.6235 29.6168 57.5564 29.5897 57.4984 29.5481C57.3976 29.4941 57.28 29.4297 57.1454 29.3628C56.9865 29.2922 56.8228 29.233 56.6555 29.1855C56.4636 29.1286 56.2643 29.1007 56.0641 29.1025C55.9134 29.1025 55.7628 29.1219 55.6161 29.1613C55.5 29.1999 55.3927 29.261 55.3002 29.341C55.2175 29.4127 55.1543 29.5042 55.1165 29.6069C55.0743 29.7085 55.0532 29.8176 55.0545 29.9276C55.049 30.0866 55.0972 30.2427 55.1915 30.3708C55.2938 30.5029 55.4203 30.6133 55.5645 30.6955C55.7313 30.8003 55.9062 30.8929 56.0867 30.9719C56.2849 31.0557 56.4887 31.1467 56.6894 31.2475C56.8989 31.3417 57.1019 31.4489 57.2969 31.5698C57.4911 31.689 57.6676 31.8357 57.8191 32.0057C57.9778 32.1773 58.1035 32.3763 58.1897 32.5939C58.2945 32.8493 58.3444 33.1241 58.3388 33.3997ZM66.8275 33.4021C66.8379 33.7663 66.759 34.1289 66.597 34.4552C66.456 34.7533 66.2489 35.0144 65.9919 35.2191C65.7244 35.4286 65.4198 35.5865 65.0951 35.6848C64.7389 35.7895 64.3699 35.8411 63.9992 35.8395C63.7528 35.8386 63.5069 35.8162 63.2644 35.7726C63.0625 35.7324 62.863 35.6816 62.6665 35.6203C62.5168 35.5609 62.3712 35.4917 62.2306 35.4132C62.1428 35.3646 62.0604 35.3068 61.9848 35.2408C61.9282 35.181 61.8909 35.1054 61.8777 35.0241C61.8566 34.8848 61.8458 34.7443 61.8454 34.6035C61.8414 34.4998 61.8471 34.3959 61.8624 34.2932C61.8634 34.2248 61.8735 34.1568 61.8922 34.091C61.9084 34.0491 61.9334 34.0112 61.9655 33.9798C61.9976 33.9627 62.0342 33.9559 62.0703 33.9605C62.1547 33.9657 62.2351 33.9985 62.2991 34.0539C62.399 34.1079 62.532 34.1893 62.6834 34.2658C62.8704 34.3488 63.0621 34.4214 63.2571 34.4826C63.5013 34.5503 63.7535 34.5833 64.0065 34.5809C64.1797 34.5849 64.3514 34.5608 64.5165 34.51C64.6535 34.4681 64.7832 34.4036 64.8985 34.3174C65.0016 34.2344 65.0854 34.1289 65.1442 34.0096C65.1974 33.8759 65.224 33.7324 65.2224 33.5882C65.2259 33.4316 65.1736 33.2788 65.0749 33.1571C64.9799 33.0216 64.8582 32.907 64.7172 32.8203C64.5526 32.7176 64.3799 32.6287 64.2007 32.5544C63.9992 32.4658 63.801 32.3747 63.6076 32.278C63.4012 32.1842 63.2001 32.0793 63.0049 31.9638C62.8135 31.8405 62.6422 31.6882 62.4973 31.5126C62.3335 31.3443 62.2052 31.1448 62.1202 30.926C61.9148 30.3427 61.9367 29.7034 62.1814 29.1356C62.3096 28.8656 62.4981 28.6279 62.7326 28.4434C62.9748 28.2534 63.251 28.1112 63.5464 28.0244C64.0452 27.8955 64.5641 27.8633 65.0749 27.9318C65.2498 27.9583 65.4214 27.9986 65.5906 28.0526C65.7349 28.0905 65.8751 28.1437 66.0096 28.2122C66.0983 28.2484 66.1804 28.2984 66.2538 28.3604C66.286 28.3886 66.3134 28.4209 66.3376 28.4563C66.3513 28.4918 66.3601 28.5288 66.3642 28.5667C66.3803 28.6223 66.3883 28.6795 66.3883 28.7367V29.2733C66.3882 29.341 66.3784 29.4083 66.3593 29.4732C66.3507 29.5163 66.3281 29.5555 66.2949 29.5844C66.2828 29.5975 66.2676 29.6075 66.2507 29.6134C66.2339 29.6193 66.2158 29.6209 66.1982 29.6182C66.1229 29.6079 66.0509 29.5812 65.9871 29.5401C65.8765 29.4727 65.7628 29.4109 65.6462 29.3547C65.4875 29.2837 65.3237 29.2245 65.1563 29.1775C64.9613 29.1206 64.7591 29.0923 64.556 29.0937C64.4078 29.0937 64.2603 29.113 64.1169 29.1533C63.9992 29.1895 63.8913 29.2508 63.7986 29.333C63.7144 29.4038 63.6502 29.4955 63.6125 29.5989C63.573 29.7007 63.5546 29.8096 63.5585 29.9188C63.5527 30.0763 63.5973 30.2315 63.6858 30.3619C63.7873 30.4965 63.9154 30.6069 64.0629 30.6875C64.2297 30.793 64.4045 30.8857 64.585 30.963C64.7832 31.0468 64.9895 31.1379 65.1902 31.2394C65.3972 31.3337 65.5979 31.4417 65.7905 31.5617C65.9879 31.6785 66.1659 31.8252 66.3174 31.9968C66.4753 32.1701 66.6011 32.3691 66.6881 32.5858C66.7896 32.8453 66.8371 33.1225 66.8275 33.4013V33.4021ZM0.589844 20.4696L8.95848 0.137817H13.9059L22.2729 20.4688H17.2393L15.2934 15.7454H7.59594L5.65486 20.4688H0.589844V20.4696ZM11.4483 5.01912L8.56608 12.1171H14.3321L11.4475 5.01831L11.4483 5.01912ZM23.3284 0.138623H27.8447V11.5337C27.8447 13.2355 27.8447 14.5803 28.3838 15.4416C29.0501 16.4867 30.4908 16.8413 33.0693 16.8413H36.7444V20.4688H31.0984C30.1677 20.4688 26.5781 20.5921 24.7732 18.7179C23.2253 17.1047 23.3276 14.9131 23.3276 11.5337V0.138623H23.3284ZM53.9522 0.138623V3.76374H48.3481C46.0155 3.76374 45.0912 3.84996 43.9084 4.74838C43.2581 5.24151 42.5869 6.67254 42.5869 8.53627H51.8774V12.1783H42.5861C42.5861 13.9768 43.2726 15.1169 44.1034 15.8365C45.2798 16.8461 46.4385 16.8413 48.531 16.8413H53.9514V20.4688H48.3473C44.9164 20.4688 43.0785 20.3826 40.7039 18.4842C38.6975 16.8856 37.7024 14.1274 37.7024 10.1913C37.7024 6.78293 38.5968 4.23673 40.305 2.48258C42.1454 0.610799 43.9809 0.137817 46.6762 0.137817H53.9522V0.138623ZM63.2346 10.1913L56.5919 0.138623H61.872L65.8444 6.81033L70.1553 0.138623H75.3653L68.5163 10.1913L75.3653 20.4688H70.3051L65.8444 13.4869L61.4772 20.4688H56.3518L63.2354 10.1913H63.2346Z" fill="#B9B9B9"/>
</svg>
