<svg width="77" height="38" viewBox="0 0 77 38" fill="none" xmlns="http://www.w3.org/2000/svg">
<path d="M46.9092 10.643C45.5522 10.6429 44.2507 10.1037 43.2912 9.14411C42.3316 8.18448 41.7926 6.88298 41.7926 5.52593C41.7927 4.16887 42.3318 2.8674 43.2914 1.90783C44.251 0.948259 45.5525 0.40918 46.9095 0.40918C48.2666 0.40918 49.5681 0.948259 50.5277 1.90783C51.4873 2.8674 52.0264 4.16887 52.0264 5.52593C52.0265 6.88298 51.4874 8.18448 50.5279 9.14411C49.5683 10.1037 48.2663 10.6429 46.9092 10.643ZM33.2118 10.643C32.1999 10.6429 31.2107 10.3428 30.3694 9.78059C29.5281 9.21838 28.8723 8.41932 28.4851 7.48444C28.0979 6.54957 27.9966 5.52088 28.1941 4.52844C28.3915 3.536 28.8788 2.62438 29.5943 1.90887C30.3098 1.19336 31.2214 0.706087 32.2138 0.508663C33.2063 0.31124 34.235 0.412536 35.1698 0.799741C36.1047 1.18695 36.9038 1.84267 37.466 2.684C38.0282 3.52533 38.3283 4.51448 38.3284 5.52636C38.3284 6.19829 38.1961 6.86365 37.939 7.48444C37.6818 8.10524 37.305 8.6693 36.8298 9.14443C36.3547 9.61956 35.7906 9.99644 35.1698 10.2536C34.549 10.5107 33.8837 10.643 33.2118 10.643ZM19.6774 10.6331V10.643H5.72621V10.6418L5.69834 10.643C4.34141 10.643 3.04006 10.1039 2.08056 9.14443C1.12107 8.18494 0.582031 6.88358 0.582031 5.52665C0.582031 4.16972 1.12107 2.86837 2.08056 1.90887C3.04006 0.949379 4.34141 0.410341 5.69834 0.410341L5.72563 0.411502V0.410341H19.6768V0.420211C20.9977 0.470213 22.2478 1.03009 23.1646 1.98227C24.0814 2.93445 24.5936 4.20484 24.5936 5.52665C24.5936 6.84846 24.0814 8.11886 23.1646 9.07103C22.2478 10.0232 20.9983 10.5831 19.6774 10.6331Z" fill="#B9B9B9"/>
<path d="M75.1077 24.6842V21.7273H73.8496L72.5579 24.6842H70.7372L72.3593 21.4184C71.9472 21.2364 71.5988 20.9355 71.3589 20.5542C71.1189 20.173 70.9982 19.7287 71.0124 19.2784C71.0017 18.9423 71.0623 18.6077 71.1902 18.2966C71.3181 17.9856 71.5104 17.7051 71.7544 17.4737C71.9985 17.2423 72.2887 17.0652 72.6061 16.9539C72.9235 16.8427 73.2608 16.7999 73.5959 16.8284H76.6416V24.6836H75.1077V24.6842ZM75.1077 18.1748H73.6737C73.5258 18.1617 73.3768 18.1803 73.2366 18.2292C73.0964 18.2782 72.9682 18.3564 72.8606 18.4587C72.753 18.561 72.6684 18.685 72.6124 18.8226C72.5564 18.9601 72.5303 19.108 72.5358 19.2564C72.5305 19.4062 72.5565 19.5554 72.6121 19.6946C72.6677 19.8338 72.7518 19.9599 72.8588 20.0648C72.9659 20.1697 73.0937 20.2511 73.234 20.3038C73.3743 20.3566 73.5241 20.3795 73.6737 20.3711H75.1077V18.1748ZM67.162 19.6424L64.1059 24.6842H62.7357V16.829H64.2707V21.8597L67.328 16.829H68.6965V24.6842H67.162V19.6424ZM58.0801 21.7267H56.5688V24.6842H55.0344V16.829H58.0807C58.4142 16.8096 58.7483 16.8586 59.0622 16.9729C59.3762 17.0873 59.6635 17.2645 59.9065 17.4939C60.1496 17.7232 60.3432 17.9997 60.4755 18.3066C60.6078 18.6134 60.6761 18.944 60.6761 19.2781C60.6761 19.6123 60.6078 19.9429 60.4755 20.2497C60.3432 20.5565 60.1496 20.8331 59.9065 21.0624C59.6635 21.2917 59.3762 21.469 59.0622 21.5833C58.7483 21.6977 58.4142 21.7466 58.0807 21.7273L58.0801 21.7267ZM58.0034 18.1968H56.5694V20.3484H58.0034C58.1497 20.3565 58.2961 20.3346 58.4337 20.2842C58.5712 20.2337 58.6971 20.1557 58.8035 20.055C58.9099 19.9543 58.9946 19.833 59.0525 19.6984C59.1105 19.5638 59.1403 19.4188 59.1403 19.2723C59.1403 19.1258 59.1105 18.9808 59.0525 18.8463C58.9946 18.7117 58.9099 18.5903 58.8035 18.4896C58.6971 18.3889 58.5712 18.3109 58.4337 18.2605C58.2961 18.2101 58.1497 18.1888 58.0034 18.1968ZM54.6042 37.4997L54.1409 36.1099H51.3483L50.8734 37.4997H49.2722L52.1315 29.6446H53.3345L56.2042 37.4997H54.6042ZM52.7719 31.9611L51.7791 34.8192H53.7322L52.7725 31.9616L52.7719 31.9611ZM49.7935 24.7503C49.3985 24.7599 49.0056 24.6884 48.6392 24.5405C48.2728 24.3925 47.9405 24.1711 47.6628 23.8899C46.9023 23.1061 46.8907 21.9369 46.8907 21.0875V20.4372C46.8907 18.8697 47.0556 18.2409 47.6628 17.6232C48.2325 17.0713 48.9946 16.7627 49.7877 16.7627C50.5809 16.7627 51.343 17.0713 51.9126 17.6232C52.4642 18.1864 52.6964 18.9353 52.6964 20.205V21.0434C52.6964 22.0687 52.6848 23.0951 51.9126 23.8893C51.6388 24.1724 51.3088 24.3951 50.9439 24.5432C50.579 24.6914 50.1872 24.7623 49.7935 24.7503ZM50.7747 18.5498C50.6516 18.4127 50.5 18.3041 50.3305 18.2317C50.161 18.1593 49.9777 18.1248 49.7935 18.1306C49.6074 18.1248 49.4223 18.1592 49.2507 18.2315C49.0792 18.3039 48.9253 18.4125 48.7996 18.5498C48.4466 18.9359 48.4245 19.6761 48.4245 20.6457V21.0434C48.4245 21.8591 48.435 22.5981 48.799 22.9627C48.9275 23.0962 49.0817 23.2022 49.2524 23.2742C49.423 23.3463 49.6066 23.3829 49.7918 23.3819C49.9763 23.3878 50.1598 23.3534 50.3296 23.281C50.4994 23.2086 50.6513 23.1 50.7747 22.9627C51.0952 22.5981 51.1614 22.2121 51.1614 20.6126C51.1614 19.322 51.0836 18.8918 50.7747 18.5498ZM46.7026 32.0609C46.6572 31.745 46.4973 31.4569 46.2532 31.2513C46.0091 31.0457 45.6979 30.9371 45.3789 30.9462C45.1952 30.939 45.0121 30.9718 44.8424 31.0423C44.6727 31.1129 44.5203 31.2196 44.3959 31.3549C44.0981 31.6859 44.0099 32.0609 44.0099 33.5727C44.0099 35.0846 44.0981 35.4596 44.3959 35.7905C44.5205 35.9254 44.6728 36.0317 44.8424 36.102C45.012 36.1724 45.1948 36.2052 45.3783 36.1981C45.6973 36.2074 46.0086 36.0989 46.2528 35.8933C46.4969 35.6877 46.6568 35.3994 46.702 35.0834H48.2591C48.1849 35.788 47.8441 36.4375 47.3066 36.899C46.7691 37.3606 46.0755 37.5991 45.3678 37.5659C44.9747 37.574 44.584 37.5019 44.2197 37.354C43.8553 37.206 43.525 36.9854 43.2487 36.7055C42.4533 35.9113 42.4754 34.929 42.4754 33.5722C42.4754 32.2154 42.4533 31.2324 43.2476 30.4382C43.5239 30.1585 43.8543 29.938 44.2186 29.7901C44.5829 29.6422 44.9735 29.57 45.3667 29.5778C46.0749 29.5428 46.7696 29.7807 47.3077 30.2425C47.8458 30.7044 48.1863 31.355 48.2591 32.0603H46.7031L46.7026 32.0609ZM43.3039 24.6842H41.7694V18.1968H39.7159V16.829H45.3568V18.1968H43.3039V24.6842ZM36.164 19.6424L33.1067 24.6842H31.7388V16.829H33.2716V21.8597L36.3294 16.829H37.6984V24.6842H36.164V19.6424ZM32.6875 29.6446V37.4997H31.1536V34.2114H28.4934V37.4997H26.9596V29.6446H28.4934V32.8552H31.1536V29.6446H32.6875ZM27.0815 21.7273H25.5697V24.6842H24.0358V16.829H27.0815C27.415 16.8098 27.7489 16.8589 28.0627 16.9732C28.3766 17.0876 28.6638 17.2649 28.9067 17.4942C29.1496 17.7236 29.3431 18.0001 29.4754 18.3068C29.6076 18.6136 29.6758 18.9441 29.6758 19.2781C29.6758 19.6122 29.6076 19.9427 29.4754 20.2495C29.3431 20.5562 29.1496 20.8327 28.9067 21.062C28.6638 21.2913 28.3766 21.4686 28.0627 21.583C27.7489 21.6974 27.415 21.7465 27.0815 21.7273ZM27.0043 18.1974H25.5702V20.3484H27.0043C27.1506 20.3566 27.2971 20.3349 27.4348 20.2845C27.5725 20.2341 27.6985 20.1562 27.805 20.0554C27.9115 19.9547 27.9964 19.8333 28.0544 19.6987C28.1123 19.564 28.1423 19.4189 28.1423 19.2723C28.1423 19.1257 28.1123 18.9807 28.0544 18.846C27.9964 18.7114 27.9115 18.59 27.805 18.4892C27.6985 18.3885 27.5725 18.3106 27.4348 18.2602C27.2971 18.2098 27.1506 18.188 27.0043 18.1962V18.1974ZM19.379 21.7273H17.8678V24.6842H16.3333V16.829H19.3796C19.7132 16.8096 20.0472 16.8586 20.3611 16.9729C20.6751 17.0873 20.9624 17.2645 21.2054 17.4939C21.4485 17.7232 21.6421 17.9997 21.7744 18.3066C21.9067 18.6134 21.975 18.944 21.975 19.2781C21.975 19.6123 21.9067 19.9429 21.7744 20.2497C21.6421 20.5565 21.4485 20.8331 21.2054 21.0624C20.9624 21.2917 20.6751 21.469 20.3611 21.5833C20.0472 21.6977 19.7126 21.7466 19.379 21.7273ZM19.3024 18.1974H17.8683V20.3484H19.3024C19.4486 20.3565 19.595 20.3346 19.7326 20.2842C19.8701 20.2337 19.996 20.1557 20.1024 20.055C20.2088 19.9543 20.2935 19.833 20.3515 19.6984C20.4094 19.5638 20.4392 19.4188 20.4392 19.2723C20.4392 19.1258 20.4094 18.9808 20.3515 18.8463C20.2935 18.7117 20.2088 18.5903 20.1024 18.4896C19.996 18.3889 19.8701 18.3109 19.7326 18.2605C19.595 18.2101 19.4486 18.1882 19.3024 18.1962V18.1974ZM17.2825 37.4992H15.7481V32.458L12.6908 37.4997H11.3229V29.6446H12.8568V34.6753L15.9141 29.644H17.2831L17.2825 37.4992ZM8.88395 16.829H14.0604V18.1968H10.4184V20.0396H13.5198V21.4074H10.4178V23.3163H14.0604V24.6842H8.88395V16.829ZM5.90445 36.6173V37.5549H4.38218V36.6167C2.08601 36.4948 1.14838 35.315 1.14838 33.2737C1.14838 31.2435 2.21838 30.1851 4.38218 30.0516V29.2707H5.90328V30.0545C8.07754 30.1863 9.13708 31.2446 9.13708 33.2755C9.13708 35.3168 8.20991 36.4977 5.90328 36.6184L5.90445 36.6173ZM4.40366 31.3666C3.13453 31.4211 2.68168 32.0499 2.68168 33.3405C2.68168 34.587 3.15775 35.2599 4.40424 35.3377L4.40366 31.3666ZM5.89342 31.3666V35.3377C7.14165 35.2599 7.6154 34.587 7.6154 33.3405C7.6154 32.0499 7.16255 31.4211 5.89283 31.3666H5.89342ZM4.81181 24.6842H3.27909V18.1968H1.22502V16.829H6.86472V18.1968H4.81181V24.6842ZM24.9403 31.0124H22.888V37.4997H21.3535V31.0124H19.3006V29.6446H24.9403V31.0124ZM40.4672 31.0124H36.8247V32.8552H39.9267V34.223H36.8247V36.1319H40.4672V37.4997H35.2908V29.6446H40.4672V31.0124Z" fill="#B9B9B9"/>
</svg>
