<svg width="384" height="126" viewBox="0 0 384 126" fill="none" xmlns="http://www.w3.org/2000/svg">
<rect x="0.576103" y="34.0417" width="269.11" height="91.2478" rx="10.1333" transform="rotate(-5.02008 0.576103 34.0417)" fill="#F3F5F9" stroke="#F3F5F9" stroke-width="0.270222"/>
<path d="M24.0528 82.1277L23.683 77.9179L25.0323 77.7994C25.2212 77.3356 25.3542 76.7861 25.4314 76.1508C25.5205 75.5145 25.5689 74.8274 25.5766 74.0895C25.5963 73.3505 25.5855 72.6082 25.5442 71.8624C25.5138 71.1037 25.468 70.3765 25.4069 69.6809L25.1699 66.9823L33.6973 66.2332L34.6392 76.9555L36.0964 76.8275L36.4662 81.0373L34.4873 81.2111L34.2818 78.8723L25.8263 79.6151L26.0318 81.9538L24.0528 82.1277ZM27.2271 77.6066L32.4803 77.1452L31.7028 68.2939L27.4211 68.67L27.5254 69.8574C27.6771 71.5844 27.7233 73.073 27.6639 74.3231C27.6045 75.5732 27.4589 76.6677 27.2271 77.6066ZM38.534 78.6983C38.438 78.7067 38.3296 78.7102 38.2086 78.7087C38.1006 78.7182 37.9976 78.7152 37.8996 78.6996L37.7352 76.8286C37.7722 76.8374 37.8627 76.8355 38.0067 76.8229C38.3425 76.7934 38.5997 76.6257 38.7783 76.32C38.9689 76.0132 39.0811 75.5018 39.1149 74.7857C39.1596 74.0566 39.1251 73.0444 39.0113 71.7491L38.7584 68.8706L45.9546 68.2385L46.7922 77.7734L44.8132 77.9472L44.1242 70.1034L40.814 70.3942L40.9499 71.9414C41.0616 73.2127 41.0888 74.2799 41.0317 75.1431C40.9855 75.9932 40.8576 76.6691 40.6478 77.171C40.4381 77.6729 40.1563 78.0421 39.8024 78.2786C39.4485 78.5152 39.0257 78.6551 38.534 78.6983ZM48.6783 77.6077L50.8434 73.7736C50.1048 73.6209 49.54 73.314 49.149 72.8528C48.758 72.3916 48.5319 71.8132 48.4708 71.1176C48.416 70.4939 48.5066 69.9421 48.7424 69.4621C48.9771 68.9701 49.3653 68.5734 49.9069 68.272C50.4485 67.9707 51.139 67.7831 51.9786 67.7094L56.2963 67.3301L57.1338 76.865L55.1549 77.0388L54.8578 73.6566L52.8069 73.8368L50.9811 77.4055L48.6783 77.6077ZM50.4858 70.9406C50.53 71.4443 50.7115 71.7909 51.0303 71.9805C51.3481 72.158 51.7648 72.2242 52.2805 72.1789L54.7092 71.9655L54.4659 69.195L52.0372 69.4083C51.5214 69.4537 51.1231 69.5974 50.8423 69.8396C50.5603 70.0699 50.4415 70.4368 50.4858 70.9406ZM68.3088 76.0828C67.4332 76.1597 66.6259 76.0493 65.8866 75.7517C65.1464 75.442 64.5347 74.9458 64.0517 74.2631C63.5797 73.5673 63.2968 72.6857 63.203 71.6183L63.1714 71.2585C63.0829 70.251 63.212 69.3815 63.5587 68.6501C63.9163 67.9056 64.4331 67.3224 65.1091 66.9004C65.7851 66.4784 66.5609 66.229 67.4364 66.1521C68.324 66.0741 69.1314 66.1845 69.8586 66.4832C70.5978 66.7808 71.2024 67.2656 71.6723 67.9374C72.1532 68.5961 72.4379 69.4292 72.5264 70.4367L72.558 70.7965C72.6518 71.8639 72.5209 72.7819 72.1654 73.5504C71.8208 74.3058 71.3111 74.9005 70.6361 75.3345C69.9721 75.7554 69.1963 76.0048 68.3088 76.0828ZM68.1571 74.3557C68.6128 74.3157 69.0351 74.1698 69.4239 73.9181C69.8127 73.6664 70.1131 73.3016 70.3249 72.8237C70.5357 72.3338 70.6084 71.7171 70.5431 70.9735L70.5115 70.6137C70.4514 69.9301 70.2765 69.3834 69.9867 68.9738C69.6959 68.5521 69.3376 68.2573 68.9119 68.0892C68.4852 67.9091 68.0439 67.8391 67.5882 67.8792C67.1324 67.9192 66.7101 68.0651 66.3213 68.3168C65.9314 68.5565 65.63 68.9093 65.4172 69.3752C65.2032 69.8291 65.1263 70.3978 65.1863 71.0815L65.2179 71.4413C65.2833 72.1849 65.4624 72.7795 65.7553 73.2251C66.0472 73.6587 66.4066 73.9656 66.8333 74.1457C67.2601 74.3257 67.7013 74.3957 68.1571 74.3557ZM74.9408 75.3008L74.1032 65.7659L82.3788 65.0389L83.2164 74.5738L81.2375 74.7477L80.5484 66.9039L76.2307 67.2831L76.9198 75.127L74.9408 75.3008ZM85.5655 74.5669C85.4696 74.5753 85.3611 74.5788 85.2401 74.5774C85.1322 74.5869 85.0292 74.5838 84.9311 74.5683L84.7667 72.6973C84.8038 72.7061 84.8943 72.7042 85.0382 72.6915C85.374 72.662 85.6312 72.4944 85.8098 72.1887C86.0004 71.8819 86.1126 71.3704 86.1464 70.6544C86.1911 69.9253 86.1566 68.9131 86.0428 67.6178L85.79 64.7393L92.9861 64.1072L93.8237 73.6421L91.8448 73.8159L91.1557 65.9721L87.8455 66.2629L87.9814 67.8101C88.0931 69.0814 88.1204 70.1486 88.0632 71.0117C88.017 71.8618 87.8891 72.5378 87.6794 73.0397C87.4696 73.5415 87.1878 73.9108 86.8339 74.1473C86.4801 74.3839 86.0572 74.5237 85.5655 74.5669ZM99.1454 73.374C98.4618 73.4341 97.8631 73.3598 97.3492 73.1511C96.8463 72.9294 96.4489 72.6017 96.157 72.1681C95.8651 71.7344 95.6944 71.2358 95.6448 70.6721C95.5616 69.7246 95.7818 68.9982 96.3055 68.4929C96.8281 67.9757 97.6351 67.6691 98.7265 67.5732L101.695 67.3125L101.649 66.7908C101.586 66.0711 101.381 65.5936 101.034 65.3582C100.698 65.1097 100.188 65.0155 99.5042 65.0756C98.8926 65.1293 98.4512 65.2648 98.1802 65.482C97.9093 65.6991 97.7645 65.9778 97.7461 66.3178L95.8211 66.4869C95.8086 65.932 95.9398 65.431 96.2148 64.9838C96.4898 64.5367 96.8985 64.1684 97.4412 63.879C97.9958 63.5886 98.6629 63.4091 99.4425 63.3406C100.222 63.2721 100.91 63.3325 101.507 63.5218C102.116 63.7101 102.599 64.0484 102.956 64.5367C103.324 65.012 103.545 65.6694 103.619 66.509L103.952 70.305C103.996 70.8087 104.041 71.2519 104.087 71.6347C104.132 72.0054 104.194 72.3686 104.273 72.7242L102.474 72.8822C102.414 72.6095 102.364 72.3783 102.323 72.1885C102.294 71.9976 102.267 71.7583 102.241 71.4704C102.053 71.9342 101.691 72.3528 101.155 72.7261C100.631 73.0864 99.961 73.3024 99.1454 73.374ZM99.5334 71.5995C99.9892 71.5595 100.396 71.4452 100.754 71.2566C101.124 71.067 101.41 70.8063 101.61 70.4744C101.823 70.1415 101.909 69.7532 101.87 69.3094L101.825 68.7877L99.2159 69.0168C98.7122 69.0611 98.3139 69.2048 98.021 69.4481C97.7401 69.6903 97.6181 70.0213 97.655 70.4411C97.6898 70.8369 97.8556 71.1426 98.1526 71.3583C98.4615 71.5728 98.9218 71.6533 99.5334 71.5995ZM108.673 72.3377L107.984 64.4939L104.835 64.7705L104.687 63.0794L112.963 62.3524L113.111 64.0435L109.963 64.3201L110.652 72.1639L108.673 72.3377ZM115.419 71.7451L114.582 62.2102L116.561 62.0364L116.855 65.3826L118.654 65.2245C119.877 65.1171 120.806 65.3014 121.44 65.7775C122.073 66.2416 122.434 66.9834 122.523 68.0028C122.579 68.6385 122.502 69.2013 122.291 69.6911C122.08 70.181 121.722 70.575 121.216 70.8733C120.71 71.1595 120.037 71.3395 119.197 71.4132L115.419 71.7451ZM117.25 69.8802L118.869 69.7379C119.528 69.68 119.98 69.5255 120.224 69.2744C120.479 69.0103 120.586 68.6444 120.545 68.1767C120.503 67.7089 120.335 67.3732 120.039 67.1696C119.754 66.9529 119.282 66.8735 118.622 66.9314L117.003 67.0737L117.25 69.8802ZM124.055 70.9866L123.217 61.4516L125.196 61.2778L126.034 70.8127L124.055 70.9866ZM133.234 70.1802L132.396 60.6453L140.672 59.9184L141.509 69.4533L139.531 69.6271L138.842 61.7833L134.524 62.1626L135.213 70.0064L133.234 70.1802ZM144.337 72.8307L143.184 59.6977L145.019 59.5366L145.159 61.1377C145.399 60.5607 145.786 60.0855 146.321 59.7122C146.868 59.3378 147.502 59.119 148.221 59.0558C149.469 58.9462 150.487 59.2496 151.275 59.966C152.063 60.6824 152.526 61.8261 152.664 63.3973L152.695 63.7571C152.79 64.8365 152.702 65.7568 152.43 66.5179C152.158 67.267 151.737 67.8478 151.169 68.2603C150.601 68.6728 149.909 68.9148 149.094 68.9865C148.41 69.0465 147.773 68.9514 147.183 68.7011C146.593 68.4508 146.155 68.0663 145.867 67.5476L146.316 72.6569L144.337 72.8307ZM148.474 67.3005C149.218 67.2352 149.795 66.9246 150.205 66.3689C150.616 65.8131 150.774 65.0015 150.68 63.9341L150.649 63.5743C150.56 62.5668 150.273 61.8427 149.787 61.4019C149.3 60.9492 148.673 60.7565 147.905 60.824C147.462 60.8629 147.044 60.9963 146.653 61.224C146.274 61.4507 145.975 61.761 145.756 62.1549C145.549 62.5478 145.47 63.02 145.518 63.5718L145.629 64.8311C145.681 65.4308 145.846 65.924 146.121 66.3107C146.408 66.6843 146.758 66.9557 147.172 67.1248C147.584 67.282 148.019 67.3405 148.474 67.3005ZM159.245 68.0948C158.369 68.1717 157.562 68.0614 156.822 67.7637C156.082 67.4541 155.471 66.9579 154.988 66.2751C154.516 65.5793 154.233 64.6977 154.139 63.6303L154.107 63.2705C154.019 62.263 154.148 61.3936 154.494 60.6621C154.852 59.9176 155.369 59.3344 156.045 58.9124C156.721 58.4905 157.497 58.241 158.372 58.1641C159.26 58.0862 160.067 58.1965 160.794 58.4952C161.534 58.7929 162.138 59.2776 162.608 59.9494C163.089 60.6082 163.374 61.4413 163.462 62.4487L163.494 62.8085C163.588 63.876 163.457 64.7939 163.101 65.5624C162.757 66.3178 162.247 66.9125 161.572 67.3465C160.908 67.7674 160.132 68.0169 159.245 68.0948ZM159.093 66.3677C159.549 66.3277 159.971 66.1818 160.36 65.9301C160.749 65.6784 161.049 65.3136 161.261 64.8358C161.472 64.3459 161.544 63.7291 161.479 62.9855L161.447 62.6257C161.387 61.9421 161.212 61.3955 160.923 60.9858C160.632 60.5642 160.273 60.2693 159.848 60.1012C159.421 59.9212 158.98 59.8512 158.524 59.8912C158.068 59.9312 157.646 60.0771 157.257 60.3288C156.867 60.5685 156.566 60.9213 156.353 61.3872C156.139 61.8411 156.062 62.4099 156.122 63.0935L156.154 63.4533C156.219 64.1969 156.398 64.7915 156.691 65.2372C156.983 65.6708 157.342 65.9776 157.769 66.1577C158.196 66.3378 158.637 66.4078 159.093 66.3677ZM165.877 67.3128L165.039 57.7779L167.018 57.6041L167.611 64.3505L171.606 57.2011L173.495 57.0352L174.332 66.5701L172.353 66.7439L171.761 59.9975L167.766 67.1469L165.877 67.3128ZM169.172 56.3271C168.177 56.4146 167.426 56.2629 166.92 55.8723C166.426 55.4685 166.143 54.8649 166.072 54.0613L167.907 53.9001C167.945 54.3319 168.057 54.6364 168.241 54.8135C168.438 54.9896 168.71 55.0624 169.058 55.0318C169.406 55.0013 169.655 54.8827 169.807 54.676C169.97 54.4683 170.032 54.1486 169.994 53.7168L171.829 53.5556C171.9 54.3592 171.721 55.0034 171.292 55.4883C170.862 55.9611 170.155 56.2407 169.172 56.3271ZM176.155 68.6761L175.809 64.7362L176.888 64.6414C177.034 64.3748 177.144 63.9723 177.217 63.4341C177.29 62.8838 177.326 62.2583 177.325 61.5574C177.335 60.8554 177.309 60.1446 177.246 59.425L177.009 56.7265L184.115 56.1022L184.804 63.9461L186.064 63.8354L186.41 67.7753L184.575 67.9365L184.377 65.6877L177.793 66.2661L177.99 68.5149L176.155 68.6761ZM178.903 64.4644L182.825 64.1199L182.285 57.9672L179.065 58.25L179.185 59.6173C179.266 60.5408 179.29 61.4331 179.257 62.2941C179.222 63.1431 179.105 63.8666 178.903 64.4644ZM187.925 65.376L187.088 55.8411L189.067 55.6673L189.659 62.4137L193.654 55.2643L195.543 55.0984L196.381 64.6333L194.402 64.8071L193.809 58.0607L189.814 65.2101L187.925 65.376ZM201.155 64.2139L200.466 56.3701L197.317 56.6467L197.169 54.9556L205.444 54.2286L205.593 55.9197L202.445 56.1963L203.134 64.0401L201.155 64.2139ZM211.881 63.4712C211.041 63.5449 210.252 63.439 209.514 63.1533C208.775 62.8557 208.158 62.366 207.663 61.6843C207.168 61.0026 206.872 60.1101 206.775 59.0067L206.743 58.6469C206.65 57.5914 206.777 56.698 207.124 55.9665C207.483 55.234 207.989 54.6698 208.643 54.274C209.296 53.8661 210.025 53.6269 210.828 53.5563C212.28 53.4288 213.423 53.7212 214.259 54.4333C215.107 55.1444 215.595 56.2256 215.723 57.6768L215.811 58.6843L208.831 59.2974C208.912 59.943 209.095 60.4526 209.382 60.8262C209.669 61.1999 210.018 61.4593 210.429 61.6044C210.84 61.7376 211.273 61.7841 211.729 61.7441C212.412 61.6841 212.901 61.5324 213.194 61.2891C213.498 61.0448 213.696 60.7434 213.785 60.3851L215.764 60.2113C215.655 61.1756 215.245 61.9368 214.532 62.495C213.832 63.052 212.948 63.3774 211.881 63.4712ZM211.07 55.2755C210.626 55.3144 210.219 55.4288 209.849 55.6184C209.479 55.808 209.189 56.0813 208.978 56.4382C208.768 56.7951 208.676 57.2564 208.701 57.8222L213.703 57.3829C213.638 56.7843 213.483 56.3265 213.237 56.0097C212.992 55.6928 212.684 55.4842 212.312 55.3839C211.94 55.2716 211.526 55.2354 211.07 55.2755Z" fill="#333333"/>
<path d="M26.497 99.6332L25.6594 90.0983L33.935 89.3713L34.7726 98.9063L32.7936 99.0801L32.1046 91.2363L27.7869 91.6155L28.4759 99.4594L26.497 99.6332ZM41.4394 98.52C40.5639 98.597 39.7565 98.4866 39.0172 98.1889C38.277 97.8793 37.6653 97.3831 37.1823 96.7004C36.7103 96.0046 36.4274 95.123 36.3336 94.0555L36.302 93.6957C36.2135 92.6883 36.3426 91.8188 36.6893 91.0874C37.0469 90.3429 37.5637 89.7596 38.2397 89.3377C38.9158 88.9157 39.6915 88.6663 40.5671 88.5894C41.4546 88.5114 42.262 88.6218 42.9892 88.9205C43.7284 89.2181 44.333 89.7028 44.803 90.3746C45.2838 91.0334 45.5685 91.8665 45.657 92.874L45.6886 93.2338C45.7824 94.3012 45.6515 95.2192 45.296 95.9876C44.9514 96.7431 44.4417 97.3378 43.7667 97.7717C43.1027 98.1926 42.3269 98.4421 41.4394 98.52ZM41.2877 96.793C41.7434 96.7529 42.1657 96.6071 42.5545 96.3554C42.9434 96.1037 43.2437 95.7389 43.4555 95.261C43.6663 94.7711 43.739 94.1544 43.6737 93.4108L43.6421 93.051C43.582 92.3673 43.4071 91.8207 43.1173 91.411C42.8265 90.9894 42.4682 90.6945 42.0425 90.5265C41.6158 90.3464 41.1745 90.2764 40.7188 90.3164C40.263 90.3565 39.8407 90.5023 39.4519 90.754C39.062 90.9937 38.7607 91.3465 38.5478 91.8124C38.3338 92.2663 38.2569 92.8351 38.3169 93.5187L38.3485 93.8785C38.4139 94.6221 38.593 95.2168 38.886 95.6624C39.1779 96.096 39.5372 96.4029 39.9639 96.5829C40.3907 96.763 40.8319 96.833 41.2877 96.793ZM56.5443 97.1932C55.6927 97.268 54.9094 97.1555 54.1941 96.8558C53.4789 96.556 52.8917 96.0637 52.4327 95.3789C51.9857 94.693 51.7143 93.8043 51.6184 92.7129L51.5868 92.3531C51.4962 91.3216 51.6243 90.4402 51.9709 89.7087C52.3296 88.9762 52.8355 88.406 53.4886 87.9982C54.1406 87.5783 54.8684 87.3331 55.672 87.2625C56.5115 87.1888 57.2318 87.2705 57.8328 87.5078C58.4457 87.744 58.9357 88.0938 59.3027 88.5571C59.6818 89.0193 59.9461 89.5521 60.0958 90.1553L58.0809 90.3323C57.9219 89.8991 57.6739 89.5522 57.3368 89.2918C56.9997 89.0313 56.4953 88.9306 55.8237 88.9896C55.3799 89.0286 54.9751 89.1669 54.6092 89.4045C54.2553 89.641 53.9839 89.9912 53.795 90.455C53.6051 90.9067 53.5406 91.4805 53.6017 92.1761L53.6334 92.5359C53.6997 93.2915 53.8674 93.8932 54.1364 94.3409C54.4043 94.7766 54.7336 95.0861 55.1244 95.2693C55.5261 95.4395 55.9488 95.5051 56.3926 95.4661C56.9563 95.4166 57.401 95.2506 57.7267 94.9682C58.0524 94.6858 58.2705 94.2799 58.3811 93.7505L60.396 93.5735C60.3351 94.2557 60.1343 94.8595 59.7937 95.3849C59.4641 95.8973 59.023 96.3107 58.4705 96.6252C57.918 96.9396 57.2759 97.1289 56.5443 97.1932ZM66.5233 96.3166C65.6718 96.3914 64.8884 96.279 64.1732 95.9792C63.4579 95.6794 62.8708 95.1871 62.4118 94.5023C61.9648 93.8164 61.6933 92.9277 61.5975 91.8363L61.5659 91.4765C61.4753 90.4451 61.6033 89.5636 61.95 88.8322C62.3086 88.0997 62.8145 87.5295 63.4676 87.1216C64.1196 86.7017 64.8474 86.4565 65.651 86.3859C66.4906 86.3122 67.2108 86.3939 67.8118 86.6312C68.4248 86.8674 68.9148 87.2172 69.2818 87.6805C69.6608 88.1427 69.9252 88.6755 70.0748 89.2787L68.0599 89.4557C67.901 89.0225 67.653 88.6756 67.3159 88.4152C66.9787 88.1547 66.4744 88.054 65.8027 88.113C65.359 88.152 64.9541 88.2903 64.5882 88.5279C64.2344 88.7644 63.963 89.1146 63.7741 89.5784C63.5841 90.0302 63.5197 90.6039 63.5808 91.2995L63.6124 91.6593C63.6788 92.4149 63.8464 93.0166 64.1154 93.4643C64.3833 93.9 64.7127 94.2095 65.1034 94.3928C65.5051 94.5629 65.9279 94.6285 66.3716 94.5896C66.9353 94.54 67.38 94.3741 67.7057 94.0917C68.0314 93.8092 68.2496 93.4033 68.3602 92.8739L70.3751 92.6969C70.3142 93.3791 70.1134 93.9829 69.7728 94.5083C69.4431 95.0207 69.002 95.4342 68.4495 95.7486C67.897 96.063 67.2549 96.2524 66.5233 96.3166ZM72.5271 95.5898L71.6896 86.0549L73.6685 85.8811L73.9624 89.2273L75.7615 89.0693C76.9848 88.9618 77.9135 89.1461 78.5476 89.6222C79.1805 90.0863 79.5418 90.8281 79.6314 91.8476C79.6872 92.4832 79.6097 93.046 79.399 93.5359C79.1882 94.0257 78.83 94.4198 78.3244 94.718C77.8178 95.0042 77.1447 95.1842 76.3051 95.258L72.5271 95.5898ZM74.3575 93.7249L75.9766 93.5827C76.6363 93.5247 77.088 93.3702 77.3319 93.1192C77.5867 92.8551 77.6935 92.4891 77.6524 92.0214C77.6113 91.5536 77.4429 91.2179 77.147 91.0143C76.8621 90.7976 76.3898 90.7182 75.7301 90.7762L74.111 90.9184L74.3575 93.7249ZM81.1625 94.8313L80.3249 85.2964L82.3039 85.1225L83.1414 94.6574L81.1625 94.8313ZM85.6817 94.6337C85.5858 94.6422 85.4773 94.6456 85.3563 94.6442C85.2484 94.6537 85.1454 94.6506 85.0473 94.6351L84.8829 92.7641C84.92 92.7729 85.0105 92.771 85.1544 92.7584C85.4902 92.7289 85.7474 92.5612 85.926 92.2555C86.1166 91.9487 86.2288 91.4372 86.2626 90.7212C86.3073 89.9921 86.2728 88.9799 86.159 87.6846L85.9062 84.8061L93.1023 84.174L93.9399 93.7089L91.961 93.8827L91.2719 86.0389L87.9617 86.3297L88.0976 87.8769C88.2093 89.1482 88.2366 90.2154 88.1794 91.0785C88.1332 91.9286 88.0053 92.6046 87.7956 93.1065C87.5858 93.6083 87.304 93.9776 86.9501 94.2141C86.5963 94.4507 86.1734 94.5905 85.6817 94.6337ZM96.4557 93.4879L95.6182 83.953L97.5971 83.7792L97.9369 87.6471L99.0163 87.5523L102.023 83.3904L104.254 83.1944L100.606 88.1016L105.271 92.7135L102.86 92.9253L99.1585 89.1714L98.0791 89.2662L98.4347 93.3141L96.4557 93.4879ZM110.695 92.4365C109.856 92.5102 109.067 92.4043 108.329 92.1186C107.59 91.821 106.972 91.3313 106.477 90.6496C105.982 89.9679 105.687 89.0754 105.59 87.972L105.558 87.6122C105.465 86.5567 105.592 85.6633 105.939 84.9318C106.298 84.1993 106.804 83.6351 107.458 83.2393C108.111 82.8314 108.84 82.5922 109.643 82.5216C111.094 82.3941 112.238 82.6864 113.074 83.3986C113.922 84.1097 114.41 85.1909 114.537 86.6421L114.626 87.6496L107.646 88.2627C107.726 88.9083 107.91 89.4179 108.197 89.7915C108.484 90.1652 108.833 90.4246 109.244 90.5697C109.655 90.7029 110.088 90.7494 110.544 90.7094C111.227 90.6494 111.716 90.4977 112.008 90.2544C112.313 90.0101 112.51 89.7087 112.6 89.3504L114.579 89.1766C114.47 90.1409 114.06 90.9021 113.347 91.4602C112.647 92.0173 111.763 92.3427 110.695 92.4365ZM109.885 84.2408C109.441 84.2797 109.034 84.394 108.664 84.5837C108.294 84.7733 108.004 85.0466 107.793 85.4035C107.583 85.7604 107.491 86.2217 107.516 86.7875L112.517 86.3482C112.453 85.7496 112.298 85.2918 112.052 84.975C111.807 84.6581 111.499 84.4495 111.127 84.3492C110.755 84.2369 110.341 84.2007 109.885 84.2408Z" fill="#3CAAE1"/>
<path d="M25.3957 101.543L115.873 93.5951L115.952 94.4947L25.4747 102.442L25.3957 101.543Z" fill="#3CAAE1"/>
<path d="M234.573 31.4422L229.629 31.8765L229.551 30.9951L231.669 30.8091L231.182 25.2737L229.317 26.8457L229.22 25.7493L231.107 24.1647L232.117 24.076L232.7 30.7185L234.495 30.5608L234.573 31.4422ZM238.668 31.1908C238.073 31.243 237.567 31.1972 237.15 31.0533C236.74 30.9016 236.42 30.677 236.192 30.3793C235.963 30.0745 235.831 29.725 235.797 29.3309C235.759 28.9009 235.861 28.5056 236.104 28.1449C236.346 27.7771 236.726 27.4982 237.244 27.3083C236.845 27.2133 236.497 27.0237 236.197 26.7395C235.898 26.4553 235.729 26.0946 235.691 25.6575C235.658 25.2849 235.721 24.94 235.881 24.6226C236.048 24.3047 236.307 24.0437 236.657 23.8396C237.014 23.6277 237.458 23.4985 237.988 23.4519C238.525 23.4047 238.985 23.4546 239.366 23.6017C239.747 23.7416 240.043 23.9538 240.256 24.2384C240.476 24.5223 240.602 24.8506 240.635 25.2232C240.673 25.6532 240.569 26.0306 240.323 26.3554C240.084 26.6797 239.774 26.9344 239.393 27.1195C239.947 27.2514 240.369 27.4526 240.66 27.7231C240.958 27.993 241.128 28.3715 241.171 28.8588C241.205 29.2529 241.137 29.62 240.964 29.9601C240.791 30.293 240.512 30.5702 240.128 30.7918C239.749 31.0055 239.263 31.1385 238.668 31.1908ZM238.589 30.2879C239.004 30.2514 239.329 30.1651 239.562 30.0291C239.796 29.893 239.958 29.7271 240.049 29.5314C240.14 29.3285 240.175 29.1124 240.155 28.8831C240.12 28.4818 239.933 28.1696 239.596 27.9465C239.259 27.7234 238.844 27.6046 238.352 27.5901C237.869 27.6902 237.481 27.8759 237.187 28.1472C236.894 28.4186 236.765 28.762 236.801 29.1776C236.821 29.4069 236.894 29.6136 237.018 29.7976C237.142 29.9745 237.331 30.1096 237.585 30.2028C237.838 30.2961 238.173 30.3244 238.589 30.2879ZM238.285 26.8377C238.71 26.7426 239.05 26.5756 239.303 26.3367C239.556 26.0907 239.664 25.767 239.629 25.3657C239.597 25.0003 239.451 24.7315 239.19 24.5595C238.936 24.3796 238.562 24.3114 238.067 24.3548C237.566 24.3989 237.206 24.5316 236.987 24.753C236.767 24.9672 236.674 25.2571 236.706 25.6225C236.741 26.0238 236.904 26.3236 237.196 26.5218C237.487 26.7128 237.851 26.8181 238.285 26.8377ZM243.562 30.7609C243.426 30.7728 243.297 30.748 243.177 30.6864C243.056 30.632 242.955 30.5506 242.873 30.4423C242.799 30.3333 242.756 30.2107 242.744 30.0746C242.725 29.8596 242.781 29.6742 242.911 29.5183C243.049 29.3617 243.222 29.2743 243.43 29.2561C243.638 29.2378 243.82 29.2941 243.976 29.4248C244.139 29.5549 244.23 29.7274 244.248 29.9424C244.26 30.0785 244.236 30.2071 244.174 30.328C244.12 30.4483 244.038 30.5458 243.929 30.6203C243.828 30.7014 243.705 30.7483 243.562 30.7609ZM243.175 26.354C243.039 26.366 242.911 26.3447 242.79 26.2903C242.669 26.2287 242.568 26.1438 242.486 26.0354C242.412 25.9264 242.369 25.8039 242.357 25.6677C242.338 25.4528 242.394 25.2673 242.524 25.1114C242.662 24.9549 242.835 24.8675 243.043 24.8492C243.251 24.831 243.433 24.8872 243.588 25.0179C243.752 25.148 243.842 25.3206 243.861 25.5355C243.873 25.6717 243.849 25.8002 243.787 25.9212C243.733 26.0415 243.651 26.1425 243.543 26.2242C243.441 26.2982 243.318 26.3414 243.175 26.354ZM248.236 30.3503C247.691 30.3982 247.217 30.3459 246.814 30.1936C246.417 30.0335 246.101 29.8014 245.864 29.4972C245.635 29.1852 245.502 28.8285 245.467 28.4273L246.478 28.3385C246.51 28.7039 246.661 28.9939 246.933 29.2083C247.204 29.4156 247.612 29.4953 248.156 29.4475C248.701 29.3996 249.088 29.2465 249.318 28.988C249.548 28.7223 249.645 28.396 249.611 28.0091C249.576 27.6078 249.419 27.2967 249.139 27.0757C248.867 26.8469 248.461 26.7562 247.924 26.8034L247.118 26.8742L247.042 26.0143L247.849 25.9435C248.364 25.8982 248.728 25.758 248.938 25.5228C249.148 25.2806 249.236 24.966 249.202 24.579C249.169 24.2064 249.032 23.926 248.792 23.7377C248.551 23.5422 248.165 23.4678 247.635 23.5144C247.126 23.559 246.764 23.7028 246.547 23.9457C246.336 24.1809 246.245 24.4596 246.273 24.7821L245.263 24.8708C245.23 24.4911 245.296 24.1386 245.463 23.8135C245.629 23.4884 245.887 23.2202 246.237 23.009C246.593 22.7899 247.033 22.6574 247.556 22.6115C248.086 22.5649 248.542 22.6187 248.924 22.7729C249.312 22.9193 249.613 23.1348 249.826 23.4194C250.045 23.7034 250.171 24.0245 250.203 24.3828C250.24 24.8127 250.158 25.1882 249.955 25.5093C249.759 25.8226 249.462 26.0581 249.064 26.2158C249.506 26.3142 249.866 26.5064 250.144 26.7925C250.421 27.0786 250.584 27.4904 250.631 28.0278C250.664 28.4076 250.595 28.7675 250.423 29.1076C250.25 29.4405 249.978 29.7207 249.608 29.9481C249.245 30.1678 248.787 30.3019 248.236 30.3503ZM254.792 29.7744C254.426 29.8065 254.077 29.7758 253.744 29.6824C253.41 29.5817 253.105 29.3955 252.828 29.1237C252.552 28.852 252.32 28.4752 252.133 27.9933C251.953 27.5037 251.83 26.8863 251.765 26.1411L251.746 25.9261C251.685 25.231 251.702 24.6446 251.797 24.1669C251.899 23.6814 252.063 23.2879 252.289 22.9864C252.515 22.6849 252.784 22.4591 253.096 22.3089C253.408 22.1588 253.746 22.0677 254.112 22.0356C254.477 22.0035 254.827 22.0342 255.16 22.1277C255.493 22.2212 255.797 22.3966 256.073 22.654C256.348 22.9115 256.574 23.2707 256.752 23.7316C256.936 24.1848 257.059 24.7589 257.12 25.454L257.139 25.669C257.204 26.4142 257.187 27.0439 257.088 27.5581C256.996 28.0645 256.837 28.4756 256.612 28.7914C256.387 29.1072 256.119 29.3438 255.808 29.5011C255.496 29.6512 255.157 29.7423 254.792 29.7744ZM254.714 28.8931C254.944 28.8729 255.155 28.8146 255.349 28.7182C255.542 28.6146 255.704 28.4487 255.836 28.2205C255.974 27.9845 256.069 27.6693 256.121 27.2748C256.18 26.8725 256.182 26.3668 256.129 25.7577L256.11 25.5428C256.044 24.7975 255.915 24.2312 255.722 23.8438C255.536 23.4557 255.308 23.1978 255.037 23.07C254.773 22.9415 254.49 22.8905 254.189 22.917C253.888 22.9434 253.616 23.0432 253.371 23.2163C253.133 23.3888 252.953 23.6826 252.831 24.0978C252.716 24.5123 252.691 25.0921 252.756 25.8373L252.775 26.0523C252.829 26.6614 252.916 27.1592 253.036 27.5457C253.163 27.9245 253.312 28.2183 253.482 28.4273C253.658 28.6284 253.851 28.7631 254.059 28.8315C254.274 28.8921 254.492 28.9126 254.714 28.8931Z" fill="#C8CFEB"/>
<path d="M25.1079 52.8621L20.1637 53.2964L20.0862 52.4151L22.2037 52.2291L21.7174 46.6936L19.8517 48.2656L19.7554 47.1693L21.6417 45.5847L22.652 45.4959L23.2355 52.1384L25.0305 51.9807L25.1079 52.8621ZM29.7404 52.5635C29.1815 52.6126 28.6504 52.5257 28.147 52.3027C27.6436 52.0798 27.2169 51.702 26.8668 51.1696C26.5233 50.6293 26.3125 49.9149 26.2345 49.0263L26.2156 48.8114C26.159 48.1665 26.1962 47.6036 26.3272 47.1227C26.4583 46.6418 26.6575 46.238 26.9248 45.9113C27.1922 45.5845 27.5095 45.3328 27.8767 45.1561C28.2504 44.9716 28.645 44.8612 29.0606 44.8246C29.4691 44.7888 29.8464 44.8098 30.1926 44.8877C30.546 44.965 30.8605 45.0926 31.1361 45.2706C31.4117 45.4485 31.6412 45.6775 31.8247 45.9574C32.0153 46.2367 32.1484 46.5608 32.2242 46.9297L31.1493 47.0241C31.0062 46.5456 30.7627 46.1987 30.4189 45.9834C30.075 45.7681 29.6487 45.6828 29.14 45.7275C28.7888 45.7584 28.4599 45.8775 28.1532 46.085C27.8465 46.2924 27.6111 46.6128 27.4469 47.046C27.2822 47.4721 27.23 48.0291 27.2904 48.717L27.3093 48.9319C27.3572 49.4765 27.4584 49.9298 27.6129 50.2917C27.7746 50.653 27.9694 50.9391 28.1974 51.1502C28.4247 51.354 28.6646 51.4954 28.917 51.5744C29.1766 51.6526 29.4247 51.6814 29.6611 51.6606C30.22 51.6115 30.6452 51.437 30.9366 51.137C31.2279 50.837 31.387 50.4692 31.4137 50.0336L32.4885 49.9392C32.4677 50.3598 32.3845 50.7282 32.239 51.0443C32.0935 51.3603 31.8966 51.6267 31.6485 51.8435C31.4069 52.0525 31.1218 52.2183 30.7932 52.341C30.4711 52.456 30.1202 52.5301 29.7404 52.5635ZM34.8426 52.1153C34.7064 52.1273 34.5779 52.1025 34.4569 52.0409C34.3366 51.9865 34.2356 51.9051 34.1539 51.7967C34.0793 51.6877 34.0361 51.5652 34.0241 51.429C34.0052 51.2141 34.0611 51.0286 34.1919 50.8727C34.3297 50.7162 34.5026 50.6288 34.7104 50.6105C34.9182 50.5923 35.1 50.6485 35.2559 50.7792C35.419 50.9093 35.51 51.0819 35.5289 51.2968C35.5408 51.433 35.516 51.5615 35.4544 51.6825C35.4 51.8028 35.3183 51.9002 35.2093 51.9748C35.1081 52.0559 34.9859 52.1027 34.8426 52.1153ZM34.4555 47.7085C34.3193 47.7204 34.1911 47.6992 34.0708 47.6448C33.9498 47.5832 33.8485 47.4982 33.7668 47.3899C33.6922 47.2809 33.6489 47.1583 33.637 47.0222C33.6181 46.8072 33.674 46.6218 33.8048 46.4659C33.9426 46.3093 34.1155 46.222 34.3233 46.2037C34.5311 46.1854 34.7129 46.2417 34.8688 46.3724C35.0319 46.5025 35.1229 46.675 35.1418 46.89C35.1537 47.0261 35.1289 47.1547 35.0673 47.2756C35.0129 47.3959 34.9315 47.497 34.8232 47.5787C34.7213 47.6526 34.5988 47.6959 34.4555 47.7085ZM40.5883 51.8272L40.5193 51.0426C39.7884 51.1068 39.1459 51.026 38.5917 50.8003C38.0441 50.5668 37.6053 50.2154 37.2752 49.7462C36.9523 49.2763 36.7619 48.7118 36.704 48.0525L36.6851 47.8376C36.6335 47.25 36.727 46.711 36.9655 46.2207C37.2112 45.7298 37.584 45.3288 38.0838 45.0177C38.5901 44.6988 39.2087 44.5073 39.9396 44.4431L39.8707 43.6584L40.881 43.5697L40.95 44.3543C41.688 44.2895 42.3306 44.3703 42.8776 44.5966C43.4239 44.8158 43.8573 45.146 44.1777 45.5872C44.5052 46.0278 44.6948 46.5419 44.7464 47.1294L44.7653 47.3444C44.8232 48.0036 44.7306 48.5931 44.4874 49.1127C44.2513 49.6316 43.8841 50.0538 43.3855 50.3792C42.8864 50.6975 42.2677 50.889 41.5297 50.9539L41.5986 51.7385L40.5883 51.8272ZM43.6905 47.4388L43.6716 47.2239C43.6351 46.8082 43.5059 46.4477 43.2841 46.1423C43.0689 45.829 42.77 45.5917 42.3876 45.4303C42.0123 45.2683 41.5595 45.2106 41.0293 45.2572L41.4504 50.051C41.9806 50.0044 42.4164 49.8686 42.7577 49.6437C43.1055 49.411 43.3568 49.1073 43.5117 48.7326C43.673 48.3502 43.7326 47.9189 43.6905 47.4388ZM37.76 47.7431L37.7788 47.9581C37.821 48.4382 37.9513 48.8528 38.1697 49.2019C38.3947 49.5432 38.6987 49.7981 39.0817 49.9666C39.4642 50.128 39.9169 50.1857 40.44 50.1397L40.0189 45.3459C39.4958 45.3919 39.0601 45.5277 38.7116 45.7532C38.3632 45.9788 38.1067 46.2649 37.9422 46.6115C37.7842 46.9503 37.7234 47.3275 37.76 47.7431ZM46.5506 50.9786L46.0502 45.2819L46.996 45.1988L47.3737 49.4982L49.9411 44.9401L50.8869 44.857L51.3874 50.5537L50.4415 50.6368L50.0638 46.3374L47.4964 50.8955L46.5506 50.9786ZM54.4114 50.288L53.9847 45.4298L52.0392 45.6007L51.9656 44.7623L56.8023 44.3374L56.876 45.1758L54.9305 45.3467L55.3573 50.205L54.4114 50.288ZM58.3801 49.9394L57.8797 44.2428L58.8256 44.1597L59.0342 46.5351L61.9793 46.2764L61.7706 43.901L62.7165 43.8179L63.2169 49.5146L62.271 49.5976L62.0529 47.1148L59.1079 47.3735L59.326 49.8563L58.3801 49.9394ZM67.3145 49.2629C66.8344 49.3051 66.3739 49.2409 65.9328 49.0702C65.499 48.8989 65.1342 48.6096 64.8384 48.2023C64.5499 47.7944 64.3766 47.2609 64.3187 46.6016L64.2999 46.3867C64.2445 45.7561 64.3206 45.2259 64.5284 44.796C64.7355 44.359 65.0309 44.0226 65.4146 43.7867C65.7976 43.5436 66.222 43.4017 66.6877 43.3607C67.5261 43.2871 68.1947 43.4594 68.6936 43.8778C69.1925 44.2961 69.4788 44.9244 69.5524 45.7628L69.6053 46.3647L65.2844 46.7442C65.3235 47.1885 65.4442 47.5353 65.6466 47.7847C65.8562 48.0335 66.1025 48.2068 66.3855 48.3047C66.675 48.3948 66.9595 48.4276 67.239 48.4031C67.6689 48.3653 67.9922 48.2647 68.2089 48.1012C68.4328 47.9371 68.5839 47.7253 68.6622 47.4657L69.5866 47.3845C69.5197 47.9391 69.2732 48.3796 68.847 48.7059C68.4272 49.0244 67.9164 49.2101 67.3145 49.2629ZM66.817 44.2159C66.5232 44.2417 66.2488 44.3236 65.9937 44.4615C65.7381 44.5923 65.5346 44.7835 65.3834 45.035C65.2394 45.286 65.1837 45.5978 65.2164 45.9704L68.6452 45.6692C68.6034 45.2757 68.4936 44.9712 68.3158 44.7558C68.1446 44.5325 67.9292 44.3818 67.6695 44.3035C67.4093 44.218 67.1251 44.1888 66.817 44.2159ZM73.3882 48.7294C72.9009 48.7722 72.4511 48.707 72.0388 48.5338C71.6329 48.3529 71.2965 48.0575 71.0294 47.6477C70.7695 47.2372 70.6109 46.706 70.5537 46.0539L70.5348 45.839C70.4806 45.2227 70.5571 44.6961 70.7643 44.2591C70.9714 43.8221 71.2629 43.4824 71.6387 43.24C72.0146 42.9975 72.4246 42.8568 72.8689 42.8178C73.3203 42.7781 73.7145 42.8265 74.0515 42.963C74.3949 43.0917 74.6792 43.287 74.9044 43.5488C75.129 43.8035 75.2922 44.0996 75.3941 44.4373L74.4267 44.5223C74.2881 44.26 74.1068 44.0449 73.8826 43.8769C73.6656 43.7082 73.3529 43.6418 72.9444 43.6777C72.665 43.7022 72.4094 43.7933 72.1777 43.9508C71.9454 44.1012 71.7631 44.3266 71.6306 44.6271C71.5047 44.9198 71.4618 45.2954 71.5021 45.754L71.521 45.969C71.5638 46.4562 71.6737 46.8437 71.8506 47.1315C72.0347 47.4186 72.2545 47.6195 72.5101 47.7342C72.7657 47.849 73.0332 47.8941 73.3127 47.8695C73.6638 47.8387 73.95 47.7269 74.1714 47.5341C74.3999 47.3408 74.5511 47.0892 74.625 46.7794L75.5923 46.6945C75.5391 47.0746 75.4137 47.4142 75.2161 47.7132C75.0179 48.005 74.7641 48.2403 74.4549 48.4191C74.145 48.5907 73.7895 48.6942 73.3882 48.7294ZM79.7195 48.0649L79.2191 42.3683L80.1649 42.2852L80.3745 44.6713L81.1269 44.6053L83.0455 42.0322L84.1633 41.934L81.931 44.8812L84.7712 47.6212L83.5674 47.7269L81.1987 45.4221L80.4463 45.4882L80.6653 47.9819L79.7195 48.0649ZM85.8526 47.6345C85.8024 47.6389 85.7483 47.6401 85.6904 47.6379C85.6396 47.6352 85.5852 47.6327 85.5273 47.6306L85.4442 46.6847C85.4663 46.69 85.5204 46.6889 85.6064 46.6813C85.8213 46.6624 85.9887 46.5539 86.1085 46.3556C86.2276 46.1502 86.2948 45.8049 86.3099 45.3198C86.3316 44.8268 86.3041 44.1433 86.2273 43.2691L86.0951 41.7643L90.1795 41.4055L90.6799 47.1022L89.734 47.1852L89.3073 42.327L87.1146 42.5196L87.192 43.4009C87.2619 44.1963 87.2843 44.8623 87.2592 45.3988C87.2335 45.9282 87.1625 46.3533 87.0463 46.674C86.9372 46.9941 86.7808 47.228 86.5772 47.3759C86.3736 47.5238 86.132 47.61 85.8526 47.6345ZM93.3499 49.1422C93.2424 49.1516 93.134 49.1503 93.0246 49.1383L92.9491 48.2784C93.0584 48.2905 93.1669 48.2918 93.2744 48.2823C93.4177 48.2697 93.5327 48.2235 93.6196 48.1437C93.7143 48.0704 93.8029 47.929 93.8856 47.7196C93.9683 47.5101 94.064 47.202 94.1727 46.7953L91.2539 41.3111L92.3073 41.2186L94.562 45.678L95.8327 40.9089L96.8431 40.8202L95.1938 46.7056C95.0404 47.2607 94.885 47.7112 94.7276 48.0572C94.5774 48.4025 94.3943 48.6605 94.1782 48.8311C93.9699 49.0083 93.6938 49.112 93.3499 49.1422ZM100.788 46.3226C100.286 46.3666 99.8202 46.2812 99.3897 46.0663C98.9658 45.8436 98.6109 45.5029 98.3251 45.0442C98.0465 44.5849 97.8773 44.0148 97.8175 43.3341L97.7986 43.1191C97.723 42.2593 97.7445 41.5172 97.863 40.893C97.9886 40.2682 98.248 39.7689 98.6412 39.3949C99.0338 39.0139 99.5975 38.773 100.332 38.6723C100.632 38.6316 100.907 38.5966 101.157 38.5674C101.407 38.531 101.631 38.4897 101.829 38.4434C102.026 38.39 102.2 38.3169 102.351 38.2242L102.431 39.1378C102.363 39.1871 102.248 39.2333 102.086 39.2765C101.931 39.319 101.729 39.362 101.48 39.4055C101.23 39.4419 100.927 39.483 100.57 39.5288C100.112 39.5762 99.7318 39.6855 99.4291 39.8565C99.1336 40.0268 98.9137 40.2772 98.7694 40.6076C98.6251 40.938 98.5551 41.3738 98.5593 41.915C98.6513 41.647 98.7897 41.4146 98.9746 41.2178C99.1589 41.0139 99.3792 40.8501 99.6355 40.7265C99.8918 40.6029 100.178 40.5272 100.493 40.4996C100.98 40.4568 101.416 40.5268 101.8 40.7097C102.192 40.8919 102.509 41.1745 102.752 41.5575C103.002 41.9399 103.152 42.4106 103.201 42.9695L103.22 43.1845C103.272 43.772 103.198 44.2948 103 44.7526C102.809 45.2027 102.519 45.5675 102.132 45.847C101.752 46.1187 101.304 46.2773 100.788 46.3226ZM100.712 45.4627C101.214 45.4186 101.611 45.2105 101.903 44.8382C102.195 44.4588 102.311 43.9358 102.253 43.2694L102.234 43.0545C102.185 42.5027 101.985 42.0762 101.634 41.7749C101.282 41.4664 100.855 41.3342 100.353 41.3783C99.8519 41.4224 99.4547 41.627 99.1618 41.9921C98.8683 42.35 98.7458 42.8049 98.7943 43.3566L98.8131 43.5716C98.8503 43.9943 98.9576 44.3532 99.1352 44.6481C99.3192 44.9352 99.5475 45.1498 99.8199 45.292C100.1 45.4335 100.397 45.4904 100.712 45.4627Z" fill="#C8CFEB"/>
</svg>
