<svg width="69" height="69" viewBox="0 0 69 69" fill="none" xmlns="http://www.w3.org/2000/svg">
<path d="M34.1146 38.4304C37.7758 38.4304 40.9005 37.1364 43.4886 34.5483C46.0767 31.9601 47.3708 28.8355 47.3708 25.1743C47.3708 21.513 46.0767 18.3884 43.4886 15.8003C40.9005 13.2121 37.7758 11.9181 34.1146 11.9181C30.4534 11.9181 27.3287 13.2121 24.7406 15.8003C22.1525 18.3884 20.8585 21.513 20.8585 25.1743C20.8585 28.8355 22.1525 31.9601 24.7406 34.5483C27.3287 37.1364 30.4534 38.4304 34.1146 38.4304ZM7.60229 68.7302C5.51918 68.7302 3.73654 67.9891 2.25438 66.507C0.772214 65.0248 0.0298687 63.2409 0.0273438 61.1553V8.13061C0.0273438 6.0475 0.769689 4.26486 2.25438 2.7827C3.73907 1.30053 5.52171 0.558189 7.60229 0.555664H60.6269C62.7101 0.555664 64.494 1.29801 65.9786 2.7827C67.4633 4.26739 68.2044 6.05003 68.2019 8.13061V61.1553C68.2019 63.2384 67.4608 65.0223 65.9786 66.507C64.4965 67.9917 62.7126 68.7327 60.6269 68.7302H7.60229ZM7.60229 61.1553H60.6269V56.7997C57.2182 53.4541 53.2578 50.8192 48.7456 48.8952C44.2335 46.9712 39.3565 46.0079 34.1146 46.0054C28.8728 46.0028 23.9957 46.9661 19.4836 48.8952C14.9715 50.8243 11.011 53.4591 7.60229 56.7997V61.1553Z" fill="white" fill-opacity="0.46"/>
</svg>
