<svg width="72" height="62" viewBox="0 0 72 62" fill="none" xmlns="http://www.w3.org/2000/svg">
<path d="M71.9395 58.2498C71.9395 58.9822 71.6485 59.6846 71.1306 60.2025C70.6127 60.7204 69.9103 61.0113 69.1779 61.0113H2.90024C2.16783 61.0113 1.46541 60.7204 0.947516 60.2025C0.429622 59.6846 0.138672 58.9822 0.138672 58.2498C0.138672 57.5174 0.429622 56.8149 0.947516 56.2971C1.46541 55.7792 2.16783 55.4882 2.90024 55.4882H69.1779C69.9103 55.4882 70.6127 55.7792 71.1306 56.2971C71.6485 56.8149 71.9395 57.5174 71.9395 58.2498ZM71.9395 5.77997V44.4419C71.9395 45.9068 71.3576 47.3116 70.3218 48.3474C69.286 49.3832 67.8811 49.9651 66.4163 49.9651H5.66181C4.19698 49.9651 2.79215 49.3832 1.75636 48.3474C0.720572 47.3116 0.138672 45.9068 0.138672 44.4419V5.77997C0.138672 4.31515 0.720572 2.91031 1.75636 1.87453C2.79215 0.838736 4.19698 0.256836 5.66181 0.256836H66.4163C67.8811 0.256836 69.286 0.838736 70.3218 1.87453C71.3576 2.91031 71.9395 4.31515 71.9395 5.77997ZM48.4661 25.111C48.466 24.6672 48.359 24.2301 48.1541 23.8365C47.9492 23.4429 47.6524 23.1045 47.289 22.8499L33.4812 13.1844C33.0674 12.8946 32.5821 12.7238 32.078 12.6906C31.5739 12.6575 31.0703 12.7632 30.6222 12.9964C30.174 13.2295 29.7984 13.5812 29.5362 14.013C29.274 14.4448 29.1353 14.9403 29.1351 15.4455V34.7764C29.1353 35.2816 29.274 35.7771 29.5362 36.2089C29.7984 36.6407 30.174 36.9924 30.6222 37.2255C31.0703 37.4587 31.5739 37.5644 32.078 37.5313C32.5821 37.4981 33.0674 37.3273 33.4812 37.0375L47.289 27.372C47.6524 27.1174 47.9492 26.779 48.1541 26.3854C48.359 25.9918 48.466 25.5547 48.4661 25.111Z" fill="white" fill-opacity="0.26"/>
</svg>
