<svg width="71" height="71" viewBox="0 0 71 71" fill="none" xmlns="http://www.w3.org/2000/svg">
<path d="M62.3678 0.657227H7.86947C3.58745 0.657227 0.0839844 4.16069 0.0839844 8.44271V62.9411C0.0839844 67.2231 3.58745 70.7266 7.86947 70.7266H62.3678C66.6499 70.7266 70.1533 67.2231 70.1533 62.9411V8.44271C70.1533 4.16069 66.6499 0.657227 62.3678 0.657227ZM15.6549 16.2282H23.4404V24.0137H15.6549V16.2282ZM15.6549 31.7992H23.4404V39.5846H15.6549V31.7992ZM15.6549 47.3701H23.4404V55.1556H15.6549V47.3701ZM54.5824 55.1556H31.2259V47.3701H54.5824V55.1556ZM54.5824 39.5846H31.2259V31.7992H54.5824V39.5846ZM54.5824 24.0137H31.2259V16.2282H54.5824V24.0137Z" fill="#F7FBFF" fill-opacity="0.62"/>
</svg>
