<svg width="286" height="112" viewBox="0 0 286 112" fill="none" xmlns="http://www.w3.org/2000/svg">
<path d="M74.3731 109.553H46.758V88.6884H0.272459V69.8181L48.599 2.16097H74.3731V65.9827H86.0328V88.6884H74.3731V109.553ZM46.758 32.6911L24.8193 65.9827H46.758V32.6911ZM142.09 111.548C136.056 111.548 130.43 110.576 125.214 108.633C119.998 106.587 115.447 103.365 111.56 98.9674C107.673 94.5694 104.605 88.8419 102.355 81.7847C100.207 74.6252 99.1333 65.9827 99.1333 55.8571V52.7887C99.1333 43.3791 100.207 35.3503 102.355 28.7022C104.605 22.0541 107.673 16.6334 111.56 12.4399C115.447 8.24653 119.998 5.17818 125.214 3.2349C130.43 1.18932 136.056 0.166539 142.09 0.166539C148.125 0.166539 153.75 1.18932 158.966 3.2349C164.182 5.17818 168.734 8.24653 172.62 12.4399C176.507 16.6334 179.524 22.0541 181.672 28.7022C183.922 35.3503 185.047 43.3791 185.047 52.7887V55.8571C185.047 65.9827 183.922 74.6252 181.672 81.7847C179.524 88.8419 176.507 94.5694 172.62 98.9674C168.734 103.365 164.182 106.587 158.966 108.633C153.75 110.576 148.125 111.548 142.09 111.548ZM142.09 88.8419C144.136 88.8419 146.079 88.3305 147.92 87.3077C149.761 86.2849 151.346 84.5462 152.676 82.0915C154.108 79.5345 155.233 76.1593 156.051 71.9659C156.869 67.6702 157.278 62.3006 157.278 55.8571V52.7887C157.278 45.2201 156.614 39.288 155.284 34.9923C153.954 30.5943 152.113 27.4749 149.761 25.6338C147.409 23.7928 144.852 22.8723 142.09 22.8723C139.329 22.8723 136.772 23.7928 134.419 25.6338C132.169 27.4749 130.328 30.5943 128.896 34.9923C127.464 39.288 126.748 45.2201 126.748 52.7887V55.8571C126.748 62.3006 127.158 67.6702 127.976 71.9659C128.794 76.1593 129.919 79.5345 131.351 82.0915C132.885 84.5462 134.522 86.2849 136.26 87.3077C138.101 88.3305 140.045 88.8419 142.09 88.8419ZM273.936 109.553H246.321V88.6884H199.835V69.8181L248.162 2.16097H273.936V65.9827H285.595V88.6884H273.936V109.553ZM246.321 32.6911L224.382 65.9827H246.321V32.6911Z" fill="url(#paint0_linear_6178_1536)"/>
<defs>
<linearGradient id="paint0_linear_6178_1536" x1="292.12" y1="-70.0878" x2="-30.1347" y2="163.606" gradientUnits="userSpaceOnUse">
<stop stop-color="#FF8947"/>
<stop offset="1" stop-color="#FFD54B"/>
</linearGradient>
</defs>
</svg>
