<svg width="29" height="16" viewBox="0 0 29 16" fill="none" xmlns="http://www.w3.org/2000/svg">
<path d="M1.54346 6.97278C0.991172 6.97278 0.543457 7.42049 0.543457 7.97278C0.543457 8.52506 0.991172 8.97278 1.54346 8.97278V6.97278ZM27.8819 8.67989C28.2724 8.28936 28.2724 7.6562 27.8819 7.26567L21.518 0.901711C21.1274 0.511186 20.4943 0.511186 20.1037 0.901711C19.7132 1.29223 19.7132 1.9254 20.1037 2.31592L25.7606 7.97278L20.1037 13.6296C19.7132 14.0202 19.7132 14.6533 20.1037 15.0438C20.4943 15.4344 21.1274 15.4344 21.518 15.0438L27.8819 8.67989ZM3.6794 8.97278C4.23169 8.97278 4.6794 8.52506 4.6794 7.97278C4.6794 7.42049 4.23169 6.97278 3.6794 6.97278V8.97278ZM7.95129 6.97278C7.39901 6.97278 6.95129 7.42049 6.95129 7.97278C6.95129 8.52506 7.39901 8.97278 7.95129 8.97278V6.97278ZM12.2232 8.97278C12.7755 8.97278 13.2232 8.52506 13.2232 7.97278C13.2232 7.42049 12.7755 6.97278 12.2232 6.97278V8.97278ZM16.4951 6.97278C15.9428 6.97278 15.4951 7.42049 15.4951 7.97278C15.4951 8.52506 15.9428 8.97278 16.4951 8.97278V6.97278ZM20.767 8.97278C21.3193 8.97278 21.767 8.52506 21.767 7.97278C21.767 7.42049 21.3193 6.97278 20.767 6.97278V8.97278ZM25.0389 6.97278C24.4866 6.97278 24.0389 7.42049 24.0389 7.97278C24.0389 8.52506 24.4866 8.97278 25.0389 8.97278V6.97278ZM1.54346 8.97278H3.6794V6.97278H1.54346V8.97278ZM7.95129 8.97278H12.2232V6.97278L7.95129 6.97278V8.97278ZM16.4951 8.97278L20.767 8.97278V6.97278H16.4951V8.97278ZM25.0389 8.97278H27.1748V6.97278H25.0389V8.97278Z" fill="#3CAAE1"/>
</svg>
