<svg width="12" height="16" viewBox="0 0 12 16" fill="none" xmlns="http://www.w3.org/2000/svg">
<path d="M6.40137 1.1897C6.40137 0.789506 6.07695 0.465086 5.67676 0.465086C5.27657 0.465086 4.95215 0.789506 4.95215 1.1897L6.40137 1.1897ZM5.16438 15.444C5.44736 15.727 5.90616 15.727 6.18913 15.444L10.8005 10.8326C11.0835 10.5497 11.0835 10.0909 10.8005 9.80788C10.5176 9.5249 10.0588 9.5249 9.77578 9.80788L5.67676 13.9069L1.57774 9.80788C1.29476 9.5249 0.835963 9.5249 0.552985 9.80788C0.270007 10.0909 0.270007 10.5497 0.552985 10.8326L5.16438 15.444ZM4.95215 1.1897L4.95215 14.9317L6.40137 14.9317L6.40137 1.1897L4.95215 1.1897Z" fill="#ffffff"/>
</svg>
