<svg width="49" height="50" viewBox="0 0 49 50" fill="none" xmlns="http://www.w3.org/2000/svg">
<circle cx="24.3475" cy="25.1952" r="23.3475" stroke="#F17E00" stroke-width="2"/>
<path d="M14.8672 24.1953C14.3149 24.1953 13.8672 24.643 13.8672 25.1953C13.8672 25.7476 14.3149 26.1953 14.8672 26.1953V24.1953ZM34.5389 25.9024C34.9294 25.5119 34.9294 24.8787 34.5389 24.4882L28.1749 18.1242C27.7844 17.7337 27.1512 17.7337 26.7607 18.1242C26.3702 18.5148 26.3702 19.1479 26.7607 19.5385L32.4176 25.1953L26.7607 30.8522C26.3702 31.2427 26.3702 31.8759 26.7607 32.2664C27.1512 32.6569 27.7844 32.6569 28.1749 32.2664L34.5389 25.9024ZM14.8672 26.1953H33.8318V24.1953H14.8672V26.1953Z" fill="#F17E00"/>
</svg>
