<svg width="377" height="32" viewBox="0 0 377 32" fill="none" xmlns="http://www.w3.org/2000/svg">
<path d="M8.70605 13.3979C8.70605 12.8457 8.25834 12.3979 7.70605 12.3979C7.15377 12.3979 6.70605 12.8457 6.70605 13.3979L8.70605 13.3979ZM6.99895 31.6055C7.38947 31.996 8.02264 31.996 8.41316 31.6055L14.7771 25.2415C15.1676 24.851 15.1676 24.2178 14.7771 23.8273C14.3866 23.4368 13.7534 23.4368 13.3629 23.8273L7.70606 29.4841L2.0492 23.8273C1.65868 23.4368 1.02551 23.4368 0.634988 23.8273C0.244463 24.2178 0.244463 24.851 0.634988 25.2415L6.99895 31.6055ZM6.70605 15.5855C6.70605 16.1378 7.15377 16.5855 7.70605 16.5855C8.25834 16.5855 8.70605 16.1378 8.70605 15.5855L6.70605 15.5855ZM8.70606 19.9606C8.70606 19.4083 8.25834 18.9606 7.70606 18.9606C7.15377 18.9606 6.70606 19.4083 6.70606 19.9606L8.70606 19.9606ZM6.70606 24.3357C6.70606 24.888 7.15377 25.3357 7.70606 25.3357C8.25834 25.3357 8.70606 24.888 8.70606 24.3357L6.70606 24.3357ZM8.70606 28.7108C8.70606 28.1585 8.25834 27.7108 7.70606 27.7108C7.15377 27.7108 6.70606 28.1585 6.70606 28.7108L8.70606 28.7108ZM6.70605 13.3979L6.70605 15.5855L8.70605 15.5855L8.70605 13.3979L6.70605 13.3979ZM6.70606 19.9606L6.70606 24.3357L8.70606 24.3357L8.70606 19.9606L6.70606 19.9606ZM6.70606 28.7108L6.70606 30.8984L8.70606 30.8984L8.70606 28.7108L6.70606 28.7108Z" fill="#3CAAE1"/>
<line x1="375.056" y1="13.1313" x2="375.056" y2="1.6494" stroke="#3CAAE1" stroke-width="2" stroke-linecap="round" stroke-dasharray="5 5"/>
<path d="M7.7666 13.4488L375.056 13.4488" stroke="#3CAAE1" stroke-width="2" stroke-linecap="round" stroke-dasharray="5 5"/>
</svg>
