<svg width="4" height="7" viewBox="0 0 4 7" fill="none" xmlns="http://www.w3.org/2000/svg">
<path d="M0.245748 0.632069C0.161184 0.716659 0.113679 0.831371 0.113679 0.950981C0.113679 1.07059 0.161184 1.1853 0.245748 1.26989L2.47858 3.50272L0.245748 5.73555C0.163581 5.82063 0.118114 5.93457 0.119142 6.05284C0.12017 6.17111 0.167609 6.28425 0.251243 6.36788C0.334876 6.45152 0.448012 6.49896 0.566283 6.49998C0.684554 6.50101 0.798496 6.45554 0.883571 6.37338L3.43531 3.82163C3.51988 3.73705 3.56738 3.62233 3.56738 3.50272C3.56738 3.38311 3.51988 3.2684 3.43531 3.18381L0.883571 0.632069C0.798981 0.547505 0.684269 0.5 0.564659 0.5C0.44505 0.5 0.330338 0.547505 0.245748 0.632069Z" fill="#B9B9B9"/>
</svg>
