<svg width="22" height="16" viewBox="0 0 22 16" fill="none" xmlns="http://www.w3.org/2000/svg">
<path d="M1.86523 6.70093C1.31295 6.70093 0.865234 7.14864 0.865234 7.70093C0.865234 8.25321 1.31295 8.70093 1.86523 8.70093V6.70093ZM21.5369 8.40803C21.9275 8.01751 21.9275 7.38435 21.5369 6.99382L15.173 0.62986C14.7825 0.239336 14.1493 0.239336 13.7588 0.62986C13.3682 1.02038 13.3682 1.65355 13.7588 2.04407L19.4156 7.70093L13.7588 13.3578C13.3682 13.7483 13.3682 14.3815 13.7588 14.772C14.1493 15.1625 14.7825 15.1625 15.173 14.772L21.5369 8.40803ZM1.86523 8.70093H20.8298V6.70093H1.86523V8.70093Z" fill="white"/>
</svg>
