<svg width="22" height="15" viewBox="0 0 22 15" fill="none" xmlns="http://www.w3.org/2000/svg">
<path d="M1.10352 6.5C0.551231 6.5 0.103516 6.94772 0.103516 7.5C0.103516 8.05228 0.551231 8.5 1.10352 8.5V6.5ZM20.7752 8.20711C21.1657 7.81658 21.1657 7.18342 20.7752 6.79289L14.4113 0.428932C14.0207 0.0384078 13.3876 0.0384078 12.997 0.428932C12.6065 0.819457 12.6065 1.45262 12.997 1.84315L18.6539 7.5L12.997 13.1569C12.6065 13.5474 12.6065 14.1805 12.997 14.5711C13.3876 14.9616 14.0207 14.9616 14.4113 14.5711L20.7752 8.20711ZM1.10352 8.5H20.0681V6.5H1.10352V8.5Z" fill="#474766"/>
</svg>
