<svg width="36" height="36" viewBox="0 0 36 36" fill="none" xmlns="http://www.w3.org/2000/svg">
<circle cx="17.9469" cy="17.9999" r="16.5618" stroke="#F17E00" stroke-width="1.41872"/>
<path d="M11.2227 17.2906C10.8309 17.2906 10.5133 17.6082 10.5133 18C10.5133 18.3918 10.8309 18.7094 11.2227 18.7094V17.2906ZM25.177 18.5016C25.454 18.2246 25.454 17.7754 25.177 17.4984L20.6626 12.9841C20.3856 12.707 19.9365 12.707 19.6594 12.9841C19.3824 13.2611 19.3824 13.7102 19.6594 13.9873L23.6722 18L19.6594 22.0127C19.3824 22.2898 19.3824 22.7389 19.6594 23.0159C19.9365 23.293 20.3856 23.293 20.6626 23.0159L25.177 18.5016ZM11.2227 18.7094H24.6754V17.2906H11.2227V18.7094Z" fill="#F17E00"/>
</svg>
