<svg width="276" height="38" viewBox="0 0 276 38" fill="none" xmlns="http://www.w3.org/2000/svg">
<path d="M9.12305 19.5C9.12305 18.9477 8.67533 18.5 8.12305 18.5C7.57076 18.5 7.12305 18.9477 7.12305 19.5L9.12305 19.5ZM7.41594 37.7075C7.80647 38.098 8.43963 38.098 8.83015 37.7075L15.1941 31.3436C15.5846 30.953 15.5846 30.3199 15.1941 29.9293C14.8036 29.5388 14.1704 29.5388 13.7799 29.9293L8.12305 35.5862L2.46619 29.9293C2.07567 29.5388 1.4425 29.5388 1.05198 29.9293C0.661455 30.3199 0.661455 30.953 1.05198 31.3436L7.41594 37.7075ZM7.12305 21.6876C7.12305 22.2398 7.57076 22.6876 8.12305 22.6876C8.67533 22.6876 9.12305 22.2398 9.12305 21.6876L7.12305 21.6876ZM9.12305 26.0627C9.12305 25.5104 8.67533 25.0627 8.12305 25.0627C7.57076 25.0627 7.12305 25.5104 7.12305 26.0627L9.12305 26.0627ZM7.12305 30.4378C7.12305 30.99 7.57076 31.4378 8.12305 31.4378C8.67533 31.4378 9.12305 30.99 9.12305 30.4378L7.12305 30.4378ZM9.12305 34.8129C9.12305 34.2606 8.67533 33.8129 8.12305 33.8129C7.57076 33.8129 7.12305 34.2606 7.12305 34.8129L9.12305 34.8129ZM7.12305 19.5L7.12305 21.6876L9.12305 21.6876L9.12305 19.5L7.12305 19.5ZM7.12305 26.0627L7.12305 30.4378L9.12305 30.4378L9.12305 26.0627L7.12305 26.0627ZM7.12305 34.8129L7.12305 37.0004L9.12305 37.0004L9.12305 34.8129L7.12305 34.8129Z" fill="#3CAAE1"/>
<line x1="274.679" y1="13.2054" x2="274.679" y2="1.7235" stroke="#3CAAE1" stroke-width="2" stroke-linecap="round" stroke-dasharray="5 5"/>
<path d="M8.12305 19.5002L274.686 19.549" stroke="#3CAAE1" stroke-width="2" stroke-linecap="round" stroke-dasharray="5 5"/>
</svg>
