<svg width="36" height="36" viewBox="0 0 36 36" fill="none" xmlns="http://www.w3.org/2000/svg">
<circle cx="17.8063" cy="17.9999" r="16.5618" stroke="#1EA0DE" stroke-width="1.41872"/>
<path d="M11.082 17.2906C10.6903 17.2906 10.3727 17.6082 10.3727 18C10.3727 18.3918 10.6903 18.7094 11.082 18.7094V17.2906ZM25.0363 18.5016C25.3134 18.2246 25.3134 17.7754 25.0363 17.4984L20.522 12.9841C20.245 12.707 19.7958 12.707 19.5188 12.9841C19.2418 13.2611 19.2418 13.7102 19.5188 13.9873L23.5316 18L19.5188 22.0127C19.2418 22.2898 19.2418 22.7389 19.5188 23.0159C19.7958 23.293 20.245 23.293 20.522 23.0159L25.0363 18.5016ZM11.082 18.7094H24.5348V17.2906H11.082V18.7094Z" fill="#1EA0DE"/>
</svg>
