<svg width="16" height="12" viewBox="0 0 16 12" fill="none" xmlns="http://www.w3.org/2000/svg">
<path d="M1.05322 5.59936C0.653031 5.59936 0.328612 5.92378 0.328612 6.32397C0.328612 6.72417 0.653031 7.04859 1.05322 7.04859L1.05322 5.59936ZM15.3076 6.83635C15.5905 6.55337 15.5905 6.09458 15.3076 5.8116L10.6962 1.2002C10.4132 0.917224 9.95438 0.917224 9.6714 1.2002C9.38843 1.48318 9.38843 1.94198 9.6714 2.22496L13.7704 6.32397L9.6714 10.423C9.38843 10.706 9.38843 11.1648 9.6714 11.4477C9.95438 11.7307 10.4132 11.7307 10.6962 11.4477L15.3076 6.83635ZM1.05322 7.04859L14.7952 7.04859L14.7952 5.59936L1.05322 5.59936L1.05322 7.04859Z" fill="#3CAAE1"/>
</svg>
