<svg width="49" height="49" viewBox="0 0 49 49" fill="none" xmlns="http://www.w3.org/2000/svg">
<circle cx="24.4628" cy="24.6151" r="23.3475" stroke="white" stroke-width="2"/>
<path d="M14.9805 23.6152C14.4282 23.6152 13.9805 24.0629 13.9805 24.6152C13.9805 25.1675 14.4282 25.6152 14.9805 25.6152V23.6152ZM34.6522 25.3223C35.0427 24.9318 35.0427 24.2987 34.6522 23.9081L28.2882 17.5442C27.8977 17.1536 27.2645 17.1536 26.874 17.5442C26.4835 17.9347 26.4835 18.5679 26.874 18.9584L32.5309 24.6152L26.874 30.2721C26.4835 30.6626 26.4835 31.2958 26.874 31.6863C27.2645 32.0768 27.8977 32.0768 28.2882 31.6863L34.6522 25.3223ZM14.9805 25.6152H33.9451V23.6152H14.9805V25.6152Z" fill="white"/>
</svg>
