<svg width="31" height="31" viewBox="0 0 31 31" fill="none" xmlns="http://www.w3.org/2000/svg">
<circle cx="15.4199" cy="15.6465" r="14.3535" stroke="#3CAAE1" stroke-width="2"/>
<path d="M9.44141 14.6465C8.88912 14.6465 8.44141 15.0942 8.44141 15.6465C8.44141 16.1988 8.88912 16.6465 9.44141 16.6465V14.6465ZM22.1076 16.3536C22.4981 15.9631 22.4981 15.3299 22.1076 14.9394L15.7436 8.57542C15.3531 8.18489 14.7199 8.18489 14.3294 8.57542C13.9389 8.96594 13.9389 9.59911 14.3294 9.98963L19.9862 15.6465L14.3294 21.3033C13.9389 21.6939 13.9389 22.327 14.3294 22.7176C14.7199 23.1081 15.3531 23.1081 15.7436 22.7176L22.1076 16.3536ZM9.44141 16.6465H21.4005V14.6465H9.44141V16.6465Z" fill="#3CAAE1"/>
</svg>
