<svg width="16" height="16" viewBox="0 0 16 16" fill="none" xmlns="http://www.w3.org/2000/svg">
<path d="M10.9165 9.70012H10.2581L10.0248 9.47512C10.8697 8.49513 11.334 7.24403 11.3331 5.95012C11.3331 4.8788 11.0154 3.83154 10.4202 2.94078C9.82506 2.05001 8.97909 1.35574 7.98932 0.945769C6.99956 0.535794 5.91045 0.428526 4.85972 0.637529C3.80899 0.846533 2.84383 1.36242 2.08629 2.11995C1.32876 2.87749 0.812872 3.84265 0.603869 4.89338C0.394865 5.94411 0.502133 7.03322 0.912108 8.02298C1.32208 9.01275 2.01635 9.85872 2.90712 10.4539C3.79788 11.0491 4.84514 11.3668 5.91646 11.3668C7.25812 11.3668 8.49146 10.8751 9.44146 10.0585L9.66646 10.2918V10.9501L13.8331 15.1085L15.0748 13.8668L10.9165 9.70012ZM5.91646 9.70012C3.84146 9.70012 2.16646 8.02512 2.16646 5.95012C2.16646 3.87512 3.84146 2.20012 5.91646 2.20012C7.99146 2.20012 9.66646 3.87512 9.66646 5.95012C9.66646 8.02512 7.99146 9.70012 5.91646 9.70012Z" fill="#3CAAE1"/>
</svg>
