<svg width="486" height="149" viewBox="0 0 486 149" fill="none" xmlns="http://www.w3.org/2000/svg">
<path opacity="0.2" fill-rule="evenodd" clip-rule="evenodd" d="M131.264 28.859C132.078 26.6304 133.537 24.694 135.453 23.2959C137.37 21.8978 139.66 21.101 142.031 21.0068L178.745 19.5154C181.909 19.3822 184.997 20.5083 187.332 22.6472C189.667 24.7861 191.06 27.7633 191.204 30.9268L192.884 67.5538C192.992 69.9191 192.396 72.2633 191.171 74.2899C189.947 76.3164 188.148 77.9341 186.004 78.9384C183.86 79.9427 181.466 80.2883 179.125 79.9317C176.784 79.575 174.602 78.5321 172.854 76.9348L162.389 67.3609L62.0581 178.732C61.0058 179.9 59.7336 180.85 58.3142 181.527C56.8948 182.204 55.3559 182.595 53.7855 182.677C52.2151 182.759 50.6439 182.531 49.1615 182.006C47.6792 181.481 46.3148 180.669 45.1462 179.617C43.9776 178.565 43.0277 177.293 42.3508 175.873C41.6739 174.454 41.2831 172.915 41.2009 171.344C41.1187 169.774 41.3466 168.203 41.8716 166.72C42.3967 165.238 43.2085 163.874 44.2608 162.705L144.724 51.2027L134.446 41.8058C132.691 40.2067 131.452 38.1219 130.885 35.8165C130.319 33.5111 130.451 31.0893 131.264 28.859Z" fill="white"/>
<path opacity="0.2" fill-rule="evenodd" clip-rule="evenodd" d="M466.78 -4.71094C471.806 -4.71094 476.625 -2.71458 480.179 0.838955C483.732 4.39249 485.729 9.21211 485.729 14.2376V146.877C485.729 149.39 484.731 151.8 482.954 153.576C481.177 155.353 478.767 156.351 476.254 156.351H428.883C426.37 156.351 423.961 155.353 422.184 153.576C420.407 151.8 419.409 149.39 419.409 146.877V14.2376C419.409 9.21211 421.405 4.39249 424.959 0.838955C428.512 -2.71458 433.332 -4.71094 438.357 -4.71094H466.78ZM385.434 29.2448C381.878 25.6979 377.06 23.7079 372.038 23.7118H343.615C338.589 23.7118 333.77 25.7082 330.216 29.2617C326.663 32.8152 324.666 37.6349 324.666 42.6603V146.877C324.666 149.39 325.665 151.8 327.441 153.576C329.218 155.353 331.628 156.351 334.141 156.351H381.512C384.025 156.351 386.434 155.353 388.211 153.576C389.988 151.8 390.986 149.39 390.986 146.877V42.6603C390.988 40.169 390.499 37.7017 389.546 35.3997C388.593 33.0977 387.196 31.0062 385.434 29.2448ZM277.295 52.1346C282.321 52.1346 287.14 54.1309 290.694 57.6845C294.247 61.238 296.244 66.0576 296.244 71.0831V146.877C296.244 149.39 295.245 151.8 293.469 153.576C291.692 155.353 289.282 156.351 286.769 156.351H239.398C236.885 156.351 234.476 155.353 232.699 153.576C230.922 151.8 229.924 149.39 229.924 146.877V71.0831C229.924 66.0576 231.92 61.238 235.474 57.6845C239.027 54.1309 243.847 52.1346 248.872 52.1346H277.295Z" fill="white"/>
</svg>
