<svg width="266" height="197" viewBox="0 0 266 197" fill="none" xmlns="http://www.w3.org/2000/svg">
<rect x="1.68498" y="27.8799" width="262.735" height="41.6882" rx="12.5052" transform="rotate(0.300639 1.68498 27.8799)" fill="#F3F5F9" stroke="#EDF1FF" stroke-width="1.31633"/>
<path d="M2.26673 15.0775L2.3199 4.9441L6.64833 4.96681C7.78713 4.97279 8.62067 5.21844 9.14894 5.70377C9.68691 6.1795 9.95366 6.842 9.94921 7.69128C9.94647 8.21243 9.81383 8.66051 9.55128 9.03553C9.29843 9.40095 8.95443 9.66455 8.51928 9.82634C9.09763 9.96449 9.54978 10.2419 9.87573 10.6586C10.2017 11.0657 10.363 11.5973 10.3596 12.2536C10.3565 12.8327 10.2332 13.3387 9.98968 13.7717C9.74618 14.1951 9.36323 14.5261 8.84081 14.7646C8.31845 14.9935 7.63263 15.1057 6.78335 15.1012L2.26673 15.0775ZM4.43236 13.4386L6.40115 13.4489C7.07671 13.4524 7.54539 13.3391 7.80717 13.1088C8.06896 12.8786 8.20105 12.5366 8.20343 12.0831C8.20581 11.6295 8.07737 11.2765 7.81811 11.0242C7.56856 10.7623 7.09635 10.6296 6.40148 10.6259L4.44718 10.6157L4.43236 13.4386ZM4.45492 9.13908L6.19208 9.1482C6.78079 9.15129 7.19156 9.03763 7.4244 8.80722C7.66688 8.57687 7.78917 8.26384 7.79124 7.86816C7.79337 7.46282 7.67918 7.15338 7.44867 6.93985C7.21816 6.72631 6.80856 6.618 6.21985 6.61491L4.46822 6.60572L4.45492 9.13908ZM11.8166 15.1277L11.8569 7.45519L13.7533 7.46514L13.7274 12.3871L17.1697 7.48307L18.9213 7.49226L18.881 15.1647L16.9846 15.1548L17.0105 10.2328L13.5682 15.1368L11.8166 15.1277ZM20.0492 16.9804L20.0671 13.5785L20.9357 13.5831C21.0718 13.3811 21.1796 13.0777 21.2589 12.6727C21.3479 12.2678 21.413 11.8146 21.4543 11.3129C21.5052 10.8017 21.532 10.3 21.5345 9.80777L21.5466 7.50603L27.5543 7.53756L27.5224 13.6176L28.4489 13.6225L28.431 17.0244L26.7662 17.0157L26.7757 15.2061L21.7235 15.1796L21.714 16.9892L20.0492 16.9804ZM22.8031 13.5929L25.6115 13.6076L25.6351 9.11993L23.2754 9.10755L23.2702 10.1064C23.2666 10.782 23.2294 11.4381 23.1585 12.0747C23.0973 12.7017 22.9788 13.2077 22.8031 13.5929ZM33.3049 15.2404L33.3452 7.56794L35.2416 7.57789L35.226 10.5455L38.4977 10.5627L38.5132 7.59506L40.4096 7.60501L40.3694 15.2775L38.473 15.2675L38.4893 12.1551L35.2176 12.1379L35.2013 15.2504L33.3049 15.2404ZM44.4269 15.4725C43.8768 15.4696 43.4093 15.3658 43.0243 15.1611C42.6394 14.9468 42.3466 14.6557 42.1458 14.2879C41.9451 13.9201 41.8459 13.5046 41.8483 13.0413C41.8524 12.2693 42.0822 11.6914 42.5378 11.3077C43.0031 10.9241 43.6942 10.7347 44.611 10.7396L46.8983 10.7516L46.9002 10.3896C46.9028 9.8878 46.7888 9.53494 46.5583 9.33105C46.3374 9.12722 45.9808 9.02401 45.4886 9.02143C45.0543 9.01915 44.7403 9.09471 44.5464 9.24811C44.3527 9.39186 44.2407 9.57465 44.2106 9.79647L42.2997 9.78644C42.331 9.34265 42.473 8.9477 42.7258 8.60158C42.9882 8.24587 43.3564 7.96791 43.8304 7.76773C44.314 7.55794 44.8936 7.45482 45.5692 7.45836C46.2255 7.46181 46.7944 7.5613 47.2759 7.75685C47.7671 7.95245 48.1466 8.26811 48.4146 8.70382C48.6826 9.12987 48.8147 9.70481 48.8109 10.4286L48.7955 13.3673C48.7933 13.7727 48.7963 14.1298 48.8043 14.4387C48.8221 14.7379 48.8495 15.0324 48.8865 15.3222L47.106 15.3128C47.0685 15.1003 47.0452 14.9409 47.0361 14.8347C47.0367 14.7189 47.0376 14.55 47.0387 14.328C46.8345 14.6358 46.5146 14.9044 46.079 15.1337C45.6435 15.3631 45.0928 15.476 44.4269 15.4725ZM45.0282 13.999C45.337 14.0006 45.6317 13.9491 45.9121 13.8444C46.2022 13.7301 46.4348 13.5576 46.6097 13.3269C46.7943 13.0866 46.8876 12.7831 46.8895 12.4163L46.8914 12.0544L44.9661 12.0443C44.5993 12.0424 44.3094 12.1277 44.0961 12.3003C43.8926 12.4633 43.7901 12.6896 43.7886 12.9791C43.7869 13.288 43.8918 13.5346 44.1032 13.7191C44.3145 13.9036 44.6229 13.9969 45.0282 13.999ZM54.9839 15.3542L54.9987 12.5313C54.776 12.6652 54.51 12.7845 54.2006 12.889C53.8912 12.9935 53.5146 13.0446 53.0706 13.0423C52.1345 13.0374 51.4312 12.8117 50.9606 12.3653C50.4901 11.9092 50.2573 11.2083 50.2623 10.2625L50.2759 7.65678L52.1868 7.66681L52.1743 10.0554C52.1716 10.5572 52.2711 10.91 52.4727 11.1138C52.684 11.3176 53.055 11.4208 53.5858 11.4236C53.9526 11.4255 54.252 11.3837 54.484 11.298C54.7258 11.2125 54.8999 11.1313 55.0065 11.0547L55.0242 7.68169L56.9351 7.69172L56.8948 15.3642L54.9839 15.3542ZM58.6526 15.3734L58.6929 7.70095L60.5893 7.7109L60.5635 12.6329L64.0057 7.72882L65.7574 7.73801L65.7171 15.4105L63.8207 15.4005L63.8465 10.4786L60.4043 15.3826L58.6526 15.3734ZM70.8749 15.6113C70.1703 15.6076 69.5341 15.4595 68.9663 15.1669C68.3984 14.8648 67.9471 14.4233 67.6124 13.8425C67.2874 13.252 67.1271 12.5225 67.1317 11.6539L67.1332 11.3644C67.1375 10.5344 67.3149 9.84049 67.6653 9.28256C68.0156 8.72463 68.4763 8.3024 69.0472 8.01586C69.6181 7.72932 70.2414 7.58782 70.9169 7.59137C71.6408 7.59516 72.253 7.71902 72.7535 7.96292C73.2541 8.20683 73.6384 8.54181 73.9064 8.96787C74.1841 9.39397 74.3408 9.86288 74.3768 10.3746L72.4369 10.3644C72.3615 10.0166 72.2037 9.74068 71.9635 9.53674C71.733 9.32321 71.3813 9.2152 70.9084 9.21272C70.5803 9.211 70.2759 9.28661 69.9952 9.43955C69.7242 9.59255 69.501 9.82783 69.3256 10.1454C69.1598 10.463 69.0757 10.8728 69.073 11.3746L69.0715 11.6641C69.0687 12.2046 69.1435 12.6489 69.2961 12.9972C69.4584 13.3358 69.6743 13.5879 69.9436 13.7534C70.2227 13.9092 70.5359 13.9881 70.8834 13.9899C71.2598 13.9919 71.5836 13.8971 71.8548 13.7055C72.1357 13.5043 72.3254 13.2206 72.4239 12.8543L74.3637 12.8645C74.3029 13.4143 74.117 13.9007 73.8059 14.3237C73.4949 14.7468 73.083 15.0679 72.5703 15.2872C72.0673 15.5065 71.5022 15.6146 70.8749 15.6113ZM75.7165 15.6367C75.6393 15.6363 75.5428 15.6309 75.4271 15.6207C75.3113 15.6201 75.2148 15.6099 75.1377 15.5902L75.1467 13.8675C75.1756 13.8773 75.248 13.8825 75.3638 13.8831C75.6147 13.8844 75.8179 13.7842 75.9734 13.5823C76.1386 13.3709 76.2611 13.0096 76.341 12.4985C76.4209 11.9874 76.4632 11.2879 76.4678 10.4L76.4815 7.79429L82.5616 7.82619L82.5213 15.4987L80.6104 15.4886L80.6423 9.40856L78.2393 9.39595L78.2324 10.6988C78.2272 11.6929 78.1698 12.5129 78.0603 13.159C77.9604 13.8051 77.8033 14.3109 77.5891 14.6765C77.3845 15.0326 77.1275 15.2822 76.8179 15.4253C76.5083 15.5684 76.1412 15.6389 75.7165 15.6367ZM87.7279 15.6997C87.0331 15.696 86.392 15.5527 85.8048 15.2698C85.2272 14.9772 84.7663 14.5405 84.4219 13.9596C84.0775 13.3691 83.9077 12.6299 83.9124 11.742L83.9139 11.4525C83.9183 10.6032 84.0861 9.89954 84.4172 9.34151C84.7579 8.78353 85.2088 8.36607 85.7701 8.08913C86.3313 7.81219 86.9497 7.67549 87.6252 7.67904C88.8316 7.68537 89.7468 8.00866 90.3707 8.64891C90.9947 9.28916 91.3035 10.2125 91.2972 11.4188L91.2929 12.2295L85.8643 12.201C85.8812 12.6547 85.9758 13.0268 86.148 13.3172C86.3299 13.5981 86.5604 13.8068 86.8396 13.9433C87.1188 14.0703 87.4177 14.1346 87.7361 14.1362C88.2283 14.1388 88.6003 14.0684 88.8519 13.925C89.1036 13.7815 89.2833 13.5701 89.3909 13.2908L91.1426 13.3C90.9839 14.1002 90.5996 14.7014 89.9894 15.1035C89.3793 15.5057 88.6255 15.7044 87.7279 15.6997ZM87.6894 9.24286C87.3902 9.24129 87.1005 9.28803 86.8201 9.38307C86.5397 9.47811 86.3168 9.65066 86.1514 9.90072C85.9861 10.1411 85.8927 10.464 85.8713 10.8692L89.447 10.888C89.4396 10.4536 89.3545 10.1202 89.1916 9.88772C89.0385 9.64564 88.8318 9.48048 88.5717 9.39226C88.3117 9.29438 88.0176 9.24458 87.6894 9.24286ZM92.6664 15.5519L92.7067 7.87942L94.6031 7.88937L94.5875 10.857L97.8591 10.8742L97.8747 7.90654L99.7711 7.91649L99.7309 15.589L97.8345 15.579L97.8508 12.4666L94.5791 12.4494L94.5628 15.5618L92.6664 15.5519ZM101.502 15.5982L101.542 7.92578L103.439 7.93573L103.413 12.8577L106.855 7.95366L108.607 7.96285L108.567 15.6353L106.67 15.6254L106.696 10.7034L103.254 15.6074L101.502 15.5982ZM109.889 15.6423L111.887 12.7719C111.3 12.5758 110.872 12.284 110.603 11.8965C110.335 11.5091 110.203 11.0548 110.205 10.5336C110.208 10.0318 110.326 9.58844 110.56 9.20362C110.793 8.8188 111.147 8.52147 111.621 8.31163C112.095 8.09215 112.689 7.98427 113.404 7.98802L117.023 8.00701L116.982 15.6795L115.071 15.6694L115.085 13.0203L113.71 13.0131L112.031 15.6535L109.889 15.6423ZM112.116 10.5437C112.114 10.8718 112.219 11.1136 112.431 11.2691C112.652 11.4247 112.946 11.5035 113.313 11.5054L115.093 11.5147L115.103 9.58938L113.323 9.58004C112.956 9.57812 112.661 9.6586 112.438 9.8215C112.225 9.9748 112.118 10.2155 112.116 10.5437Z" fill="#3CAAE1"/>
<path d="M13.8692 53.6493L13.9181 44.3365L21.2353 44.3749L21.1865 53.6877L19.9359 53.6811L19.979 45.4593L15.163 45.434L15.1198 53.6559L13.8692 53.6493ZM23.5672 56.3611L23.6182 46.6491L24.7091 46.6549L24.7021 47.9853C24.9441 47.5164 25.2785 47.159 25.7056 46.9129C26.1415 46.6579 26.6433 46.532 27.211 46.5349C28.0979 46.5396 28.8059 46.836 29.335 47.4242C29.8641 48.0035 30.1257 48.8652 30.1197 50.0093L30.1183 50.2754C30.1141 51.0737 29.9864 51.7382 29.7353 52.2691C29.493 52.8 29.1495 53.1973 28.7046 53.4611C28.2686 53.7249 27.7579 53.8552 27.1726 53.8522C26.5694 53.849 26.0646 53.7133 25.658 53.4451C25.2603 53.1769 24.9605 52.8427 24.7586 52.4425L24.738 56.3672L23.5672 56.3611ZM26.9119 52.813C27.4884 52.8161 27.9685 52.6013 28.3522 52.1687C28.7447 51.7361 28.9432 51.103 28.9475 50.2693L28.9489 50.0032C28.953 49.2316 28.761 48.6363 28.3729 48.2174C27.9938 47.7897 27.5159 47.5743 26.9394 47.5713C26.5137 47.569 26.1363 47.6557 25.8072 47.8314C25.487 48.0071 25.2329 48.2497 25.045 48.5592C24.8661 48.8598 24.7756 49.2008 24.7736 49.5822L24.768 50.6465C24.7657 51.0722 24.8525 51.4496 25.0281 51.7787C25.2127 52.099 25.4642 52.3531 25.7825 52.541C26.1097 52.7201 26.4862 52.8108 26.9119 52.813ZM34.6924 53.8916C34.0982 53.8885 33.5401 53.757 33.0182 53.497C32.5051 53.2282 32.0904 52.8269 31.7739 52.2931C31.4662 51.7593 31.3145 51.0888 31.3188 50.2817L31.3202 50.0156C31.3242 49.2529 31.4827 48.6151 31.7959 48.1023C32.1179 47.5896 32.5367 47.2059 33.0525 46.9514C33.5771 46.697 34.1366 46.5713 34.7308 46.5744C35.334 46.5776 35.892 46.7091 36.4051 46.969C36.9182 47.2289 37.3286 47.6169 37.6363 48.133C37.9529 48.6491 38.1092 49.2885 38.1052 50.0513L38.1038 50.3173C38.0996 51.1244 37.9364 51.7932 37.6143 52.3237C37.3011 52.8543 36.8866 53.2512 36.3708 53.5146C35.855 53.7691 35.2956 53.8948 34.6924 53.8916ZM34.698 52.8273C35.0617 52.8292 35.408 52.7512 35.737 52.5933C36.0749 52.4265 36.3513 52.1574 36.5661 51.786C36.7898 51.4147 36.9032 50.923 36.9065 50.311L36.9078 50.045C36.9108 49.4773 36.8024 49.02 36.5824 48.6729C36.3714 48.317 36.0978 48.0584 35.7616 47.8969C35.4344 47.7267 35.0889 47.6406 34.7253 47.6387C34.3705 47.6369 34.0241 47.7193 33.6862 47.8861C33.3483 48.0439 33.0676 48.2997 32.844 48.6533C32.6293 48.9981 32.5205 49.4543 32.5175 50.0219L32.5161 50.288C32.5129 50.9 32.6168 51.3928 32.8277 51.7664C33.0475 52.1401 33.3254 52.4121 33.6616 52.5824C33.9978 52.7438 34.3433 52.8254 34.698 52.8273ZM45.4688 55.4782L45.4775 53.8152L39.7435 53.7851L39.7805 46.7339L40.9512 46.7401L40.9197 52.7535L44.2989 52.7712L44.3304 46.7578L45.5012 46.764L45.4696 52.7774L46.6005 52.7833L46.5863 55.484L45.4688 55.4782ZM50.9197 53.9768C50.3255 53.9736 49.7674 53.8421 49.2454 53.5821C48.7323 53.3222 48.3176 52.9254 48.0011 52.3915C47.6934 51.8577 47.5417 51.1829 47.546 50.3669L47.5474 50.1008C47.5515 49.3203 47.7057 48.6781 48.0099 48.1741C48.3141 47.6612 48.7153 47.282 49.2132 47.0362C49.7113 46.7816 50.2485 46.6558 50.8251 46.6589C51.8628 46.6643 52.6639 46.9523 53.2286 47.5229C53.7933 48.0936 54.0729 48.8977 54.0674 49.9354L54.0635 50.6805L48.7153 50.6524C48.7124 51.2023 48.821 51.6419 49.041 51.9712C49.2699 52.3006 49.5524 52.5416 49.8887 52.6941C50.2338 52.8379 50.5794 52.9106 50.9253 52.9124C51.4574 52.9152 51.8659 52.8287 52.1506 52.6528C52.4443 52.4769 52.654 52.2341 52.7798 51.9243L53.9239 51.9303C53.7785 52.6037 53.4254 53.1163 52.8648 53.4681C52.3131 53.8111 51.6647 53.9807 50.9197 53.9768ZM50.886 47.7235C50.5223 47.7216 50.1761 47.7908 49.8472 47.9309C49.5183 48.0623 49.2467 48.2737 49.0323 48.5653C48.8267 48.8569 48.7228 49.2333 48.7203 49.6945L52.9643 49.7168C52.958 49.2289 52.858 48.8426 52.6644 48.5577C52.4797 48.2641 52.2324 48.0543 51.9227 47.9285C51.6129 47.7939 51.2674 47.7255 50.886 47.7235ZM55.7109 53.8689L55.7479 46.8177L56.9186 46.8239L56.9032 49.7641L60.5485 49.7832L60.5639 46.843L61.7347 46.8491L61.6977 53.9003L60.5269 53.8941L60.5431 50.8209L56.8978 50.8018L56.8816 53.875L55.7109 53.8689ZM65.4408 53.9199L65.4723 47.9065L63.0643 47.8939L63.0698 46.8561L69.0566 46.8876L69.0511 47.9253L66.6431 47.9126L66.6115 53.9261L65.4408 53.9199ZM76.6053 54.1115C76.011 54.1084 75.4529 53.9769 74.931 53.7169C74.418 53.4481 74.0032 53.0468 73.6867 52.513C73.3791 51.9792 73.2274 51.3088 73.2316 50.5017L73.233 50.2356C73.237 49.4728 73.3956 48.835 73.7087 48.3222C74.0307 47.8095 74.4496 47.4259 74.9653 47.1714C75.49 46.9169 76.0494 46.7912 76.6437 46.7943C77.2468 46.7975 77.8049 46.929 78.3179 47.1889C78.831 47.4489 79.2414 47.8368 79.5491 48.3529C79.8657 48.869 80.022 49.5084 80.018 50.2712L80.0166 50.5373C80.0124 51.3444 79.8492 52.0132 79.5272 52.5436C79.2139 53.0742 78.7994 53.4711 78.2836 53.7345C77.7678 53.989 77.2084 54.1147 76.6053 54.1115ZM76.6109 53.0472C76.9745 53.0491 77.3208 52.9711 77.6498 52.8132C77.9877 52.6464 78.2641 52.3774 78.4789 52.006C78.7026 51.6346 78.8161 51.143 78.8193 50.531L78.8207 50.2649C78.8237 49.6973 78.7152 49.2399 78.4953 48.8928C78.2843 48.5369 78.0107 48.2783 77.6745 48.1169C77.3472 47.9466 77.0017 47.8606 76.6381 47.8587C76.2833 47.8568 75.937 47.9392 75.599 48.106C75.2612 48.2639 74.9804 48.5196 74.7568 48.8732C74.5422 49.218 74.4333 49.6742 74.4303 50.2419L74.429 50.5079C74.4257 51.1199 74.5296 51.6127 74.7405 51.9864C74.9603 52.36 75.2382 52.632 75.5744 52.8023C75.9106 52.9637 76.2561 53.0454 76.6109 53.0472ZM83.1362 54.0128L83.1677 47.9993L80.7597 47.9867L80.7651 46.949L86.7519 46.9804L86.7465 48.0181L84.3385 48.0055L84.3069 54.0189L83.1362 54.0128ZM91.3745 54.056L91.4115 47.0049L97.2652 47.0356L97.2282 54.0867L96.0575 54.0806L96.089 48.0671L92.5768 48.0487L92.5452 54.0621L91.3745 54.056ZM99.3377 56.7586L99.3887 47.0467L100.48 47.0524L100.473 48.3828C100.715 47.914 101.049 47.5566 101.476 47.3105C101.912 47.0555 102.414 46.9296 102.981 46.9325C103.868 46.9372 104.576 47.2336 105.105 47.8218C105.635 48.4011 105.896 49.2628 105.89 50.4069L105.889 50.673C105.885 51.4713 105.757 52.1358 105.506 52.6667C105.264 53.1976 104.92 53.5949 104.475 53.8586C104.039 54.1224 103.528 54.2528 102.943 54.2497C102.34 54.2466 101.835 54.1109 101.428 53.8427C101.031 53.5745 100.731 53.2403 100.529 52.8401L100.508 56.7648L99.3377 56.7586ZM102.682 53.2106C103.259 53.2137 103.739 52.9989 104.123 52.5663C104.515 52.1337 104.714 51.5006 104.718 50.6669L104.719 50.4008C104.723 49.6292 104.531 49.0339 104.143 48.615C103.764 48.1872 103.286 47.9719 102.71 47.9688C102.284 47.9666 101.907 48.0533 101.578 48.229C101.257 48.4047 101.003 48.6473 100.816 48.9567C100.637 49.2574 100.546 49.5984 100.544 49.9797L100.538 51.0441C100.536 51.4698 100.623 51.8472 100.799 52.1763C100.983 52.4966 101.235 52.7507 101.553 52.9386C101.88 53.1177 102.257 53.2084 102.682 53.2106ZM110.463 54.2892C109.869 54.2861 109.311 54.1545 108.789 53.8946C108.276 53.6258 107.861 53.2245 107.544 52.6907C107.237 52.1569 107.085 51.4864 107.089 50.6793L107.091 50.4132C107.095 49.6505 107.253 49.0127 107.566 48.4999C107.888 47.9871 108.307 47.6035 108.823 47.349C109.348 47.0945 109.907 46.9689 110.501 46.972C111.104 46.9752 111.663 47.1067 112.176 47.3666C112.689 47.6265 113.099 48.0145 113.407 48.5305C113.723 49.0466 113.88 49.6861 113.876 50.4488L113.874 50.7149C113.87 51.522 113.707 52.1908 113.385 52.7213C113.072 53.2518 112.657 53.6488 112.141 53.9122C111.625 54.1667 111.066 54.2924 110.463 54.2892ZM110.469 53.2249C110.832 53.2268 111.178 53.1488 111.507 52.9908C111.845 52.8241 112.122 52.555 112.337 52.1836C112.56 51.8123 112.674 51.3206 112.677 50.7086L112.678 50.4425C112.681 49.8749 112.573 49.4176 112.353 49.0705C112.142 48.7146 111.868 48.4559 111.532 48.2945C111.205 48.1243 110.859 48.0382 110.496 48.0363C110.141 48.0344 109.795 48.1169 109.457 48.2836C109.119 48.4415 108.838 48.6973 108.615 49.0509C108.4 49.3957 108.291 49.8519 108.288 50.4195L108.287 50.6856C108.283 51.2976 108.387 51.7904 108.598 52.164C108.818 52.5377 109.096 52.8097 109.432 52.98C109.768 53.1414 110.114 53.223 110.469 53.2249ZM114.577 55.8408L114.591 53.1401L115.456 53.1446C115.59 52.9679 115.707 52.6714 115.807 52.2551C115.906 51.8298 115.984 51.3336 116.041 50.7662C116.106 50.1989 116.14 49.6092 116.143 48.9972L116.153 47.1347L121.075 47.1605L121.044 53.1739L122.041 53.1792L122.027 55.8799L120.91 55.874L120.919 54.211L115.703 54.1836L115.695 55.8466L114.577 55.8408ZM116.653 53.1509L119.873 53.1678L119.899 48.1921L117.291 48.1784L117.286 49.2693C117.282 50.0144 117.225 50.7369 117.115 51.437C117.014 52.1283 116.86 52.6996 116.653 53.1509ZM125.577 54.3685C125.063 54.3658 124.624 54.2704 124.262 54.0822C123.908 53.8852 123.639 53.6222 123.454 53.293C123.27 52.955 123.179 52.5776 123.181 52.1607C123.184 51.46 123.391 50.9555 123.801 50.6473C124.219 50.339 124.814 50.1869 125.586 50.191L127.874 50.203L127.877 49.724C127.88 49.1209 127.745 48.7033 127.471 48.4713C127.206 48.2393 126.803 48.1219 126.262 48.119C125.756 48.1164 125.388 48.212 125.156 48.4059C124.925 48.591 124.795 48.8032 124.767 49.0425L123.596 49.0364C123.625 48.6551 123.755 48.3188 123.987 48.0273C124.22 47.7269 124.536 47.4891 124.936 47.3138C125.336 47.1385 125.802 47.0523 126.334 47.0551C126.893 47.058 127.376 47.1492 127.783 47.3288C128.19 47.4994 128.503 47.7716 128.723 48.1453C128.943 48.5101 129.051 48.994 129.048 49.5971L129.033 52.4575C129.031 52.83 129.03 53.1582 129.028 53.442C129.035 53.717 129.056 53.9876 129.09 54.2539L128.066 54.2485C128.04 54.0444 128.024 53.8536 128.016 53.6762C128.008 53.4899 128.004 53.2814 128.006 53.0508C127.817 53.4223 127.514 53.7356 127.096 53.9906C126.678 54.2457 126.172 54.3716 125.577 54.3685ZM125.836 53.3055C126.208 53.3075 126.546 53.2427 126.848 53.1113C127.159 52.9798 127.404 52.786 127.583 52.5297C127.77 52.2735 127.865 51.9591 127.867 51.5866L127.869 51.1077L125.781 51.0967C125.346 51.0944 125.004 51.1813 124.755 51.3574C124.506 51.5246 124.38 51.7945 124.378 52.167C124.376 52.4952 124.49 52.7663 124.72 52.9803C124.958 53.1945 125.33 53.3029 125.836 53.3055ZM130.36 54.2606L133.04 50.6425L130.53 47.2101L131.834 47.217L133.973 50.1818L134.785 50.186L134.801 47.2325L135.971 47.2387L135.956 50.1922L136.754 50.1964L138.965 47.2544L140.242 47.2611L137.696 50.627L140.338 54.3129L138.954 54.3056L136.749 51.2075L135.95 51.2033L135.934 54.2898L134.764 54.2837L134.78 51.1971L133.968 51.1929L131.717 54.2677L130.36 54.2606Z" fill="#474766"/>
<path d="M244.37 54.0215L240.481 47.2031L248.331 47.2442L244.37 54.0215Z" fill="#3CAAE1"/>
<path d="M67.313 104.027C66.6922 104.036 66.1267 103.889 65.6167 103.586C65.1153 103.274 64.7095 102.824 64.3992 102.234C64.0977 101.644 63.9408 100.928 63.9283 100.085L63.9244 99.8193C63.9086 98.755 64.0016 97.8444 64.2033 97.0875C64.4139 96.3304 64.7777 95.7396 65.2948 95.315C65.8118 94.8816 66.5266 94.6359 67.4394 94.5781C67.8116 94.5549 68.1529 94.5365 68.4632 94.5231C68.7733 94.5007 69.0523 94.47 69.3 94.4308C69.5477 94.3828 69.7684 94.3086 69.962 94.2082L69.9787 95.3389C69.8909 95.3934 69.7452 95.4399 69.5417 95.4784C69.3471 95.5168 69.0948 95.5516 68.7848 95.5827C68.4747 95.6051 68.0981 95.6284 67.6549 95.6527C67.0874 95.6699 66.6099 95.7701 66.2223 95.9533C65.8436 96.1363 65.5507 96.4245 65.3436 96.8178C65.1366 97.2112 65.0113 97.7408 64.9679 98.4067C65.1051 98.0854 65.2962 97.812 65.5413 97.5866C65.7862 97.3524 66.0718 97.1707 66.3981 97.0417C66.7244 96.9127 67.0826 96.8453 67.4729 96.8396C68.0759 96.8307 68.6056 96.9559 69.0618 97.2152C69.5269 97.4745 69.8917 97.8505 70.1562 98.3434C70.4296 98.8361 70.5714 99.4283 70.5816 100.12L70.5856 100.386C70.5963 101.113 70.4594 101.75 70.1747 102.295C69.8988 102.831 69.5103 103.254 69.0092 103.563C68.5169 103.863 67.9515 104.018 67.313 104.027ZM67.2973 102.963C67.918 102.954 68.4248 102.733 68.8176 102.302C69.2103 101.861 69.4005 101.229 69.3883 100.404L69.3844 100.138C69.3743 99.4548 69.1667 98.9124 68.7616 98.5103C68.3563 98.0994 67.8433 97.8985 67.2225 97.9077C66.6017 97.9169 66.0949 98.1328 65.702 98.5556C65.3089 98.9694 65.1174 99.5178 65.1275 100.201L65.1315 100.467C65.1392 100.99 65.239 101.441 65.4309 101.819C65.6315 102.189 65.8929 102.473 66.2152 102.673C66.5464 102.872 66.907 102.969 67.2973 102.963ZM75.2245 103.91C74.6303 103.919 74.0697 103.798 73.5426 103.549C73.0245 103.299 72.6018 102.911 72.2747 102.384C71.9564 101.856 71.7912 101.184 71.7792 100.368L71.7753 100.102C71.7637 99.322 71.905 98.6768 72.199 98.1668C72.493 97.648 72.8864 97.2607 73.3794 97.0051C73.8722 96.7405 74.4068 96.604 74.9833 96.5955C76.0209 96.5802 76.8277 96.8521 77.4037 97.4113C77.9797 97.9705 78.2753 98.7689 78.2906 99.8065L78.3017 100.551L72.954 100.63C72.9621 101.18 73.0794 101.618 73.306 101.943C73.5414 102.267 73.8288 102.503 74.168 102.648C74.516 102.785 74.8629 102.851 75.2087 102.846C75.7409 102.838 76.1475 102.743 76.4287 102.562C76.7187 102.38 76.9235 102.133 77.0431 101.821L78.1871 101.804C78.0552 102.48 77.7125 103 77.159 103.363C76.6143 103.717 75.9694 103.899 75.2245 103.91ZM75.0655 97.6587C74.7019 97.6641 74.3571 97.7402 74.0311 97.8869C73.7049 98.0248 73.4376 98.2416 73.229 98.5374C73.0294 98.8331 72.933 99.2115 72.9398 99.6727L77.1834 99.61C77.1673 99.1223 77.0596 98.7381 76.8603 98.4572C76.6697 98.1672 76.4183 97.9625 76.1061 97.8429C75.7937 97.7145 75.4469 97.6531 75.0655 97.6587ZM82.409 103.804C81.8237 103.812 81.3169 103.736 80.8887 103.574C80.4606 103.411 80.1244 103.172 79.8802 102.857C79.6361 102.541 79.493 102.162 79.4509 101.719L80.6216 101.701C80.6693 101.931 80.7698 102.125 80.9229 102.282C81.076 102.44 81.2773 102.557 81.5268 102.633C81.7763 102.709 82.0651 102.744 82.3933 102.74C83.0052 102.731 83.4471 102.622 83.719 102.414C83.9997 102.197 84.1378 101.942 84.1335 101.649C84.1284 101.304 84.0091 101.035 83.7756 100.843C83.542 100.643 83.1414 100.546 82.5739 100.555L81.3633 100.573L81.3492 99.6149L82.4799 99.5982C82.9677 99.591 83.3121 99.4928 83.5134 99.3035C83.7235 99.1141 83.826 98.8509 83.821 98.5139C83.8171 98.2479 83.6895 98.0191 83.4383 97.8277C83.1871 97.6363 82.8132 97.5442 82.3166 97.5516C81.7756 97.5596 81.3823 97.6541 81.1366 97.8351C80.8996 98.0072 80.7569 98.2532 80.7084 98.5732L79.5377 98.5906C79.5673 98.1909 79.6951 97.8342 79.9211 97.5204C80.1471 97.2066 80.4628 96.958 80.8681 96.7746C81.2734 96.5912 81.751 96.4955 82.3008 96.4873C83.2054 96.474 83.8778 96.6547 84.318 97.0297C84.7582 97.4046 84.9828 97.8936 84.9917 98.4966C84.9967 98.8336 84.9168 99.132 84.7521 99.3917C84.5873 99.6425 84.3197 99.8416 83.9493 99.989C84.4479 100.115 84.7969 100.322 84.9963 100.612C85.1958 100.902 85.2984 101.242 85.3041 101.632C85.3098 102.013 85.2042 102.37 84.9873 102.701C84.7703 103.024 84.446 103.286 84.0143 103.487C83.5915 103.689 83.0564 103.794 82.409 103.804ZM91.2998 106.334C91.1668 106.336 91.0336 106.324 90.9002 106.3L90.8844 105.235C91.0179 105.26 91.1511 105.271 91.2841 105.269C91.4615 105.267 91.6072 105.22 91.7211 105.13C91.8441 105.048 91.9658 104.882 92.0863 104.632C92.2068 104.382 92.3521 104.012 92.5223 103.521L89.425 96.5151L90.7286 96.4958L93.1013 102.182L95.0919 96.4313L96.3424 96.4128L93.7861 103.503C93.5476 104.171 93.3161 104.712 93.0915 105.123C92.8758 105.534 92.6275 105.835 92.3464 106.025C92.0744 106.225 91.7255 106.327 91.2998 106.334ZM100.24 103.54C99.6373 103.549 99.09 103.429 98.5984 103.179C98.1156 102.92 97.7284 102.526 97.4367 101.998C97.1539 101.47 97.0066 100.803 96.9946 99.9957L96.9907 99.7297C96.9794 98.967 97.1208 98.3262 97.4147 97.8074C97.7086 97.2886 98.0976 96.8969 98.5815 96.6326C99.0655 96.3682 99.5824 96.2319 100.132 96.2238C100.691 96.2155 101.171 96.3104 101.573 96.5085C101.984 96.6976 102.316 96.9632 102.57 97.3054C102.823 97.6387 102.997 98.0176 103.092 98.442L101.895 98.4597C101.748 98.1248 101.544 97.8439 101.284 97.6171C101.032 97.3902 100.653 97.2805 100.148 97.288C99.8021 97.2931 99.4796 97.3821 99.1806 97.5551C98.8814 97.7192 98.6369 97.98 98.4471 98.3377C98.2659 98.6863 98.1796 99.1444 98.1879 99.712L98.1919 99.978C98.2008 100.581 98.3011 101.067 98.4929 101.437C98.6935 101.807 98.9458 102.074 99.2498 102.238C99.5538 102.402 99.8788 102.481 100.225 102.476C100.659 102.47 101.021 102.358 101.311 102.141C101.609 101.923 101.818 101.628 101.936 101.253L103.134 101.236C103.034 101.698 102.849 102.105 102.579 102.455C102.309 102.796 101.976 103.062 101.58 103.254C101.184 103.438 100.737 103.533 100.24 103.54ZM104.43 103.478C104.368 103.479 104.301 103.476 104.23 103.468C104.168 103.46 104.101 103.452 104.03 103.444L104.013 102.274C104.039 102.282 104.106 102.286 104.212 102.284C104.479 102.28 104.694 102.162 104.859 101.929C105.024 101.687 105.138 101.268 105.2 100.673C105.271 100.069 105.298 99.2254 105.282 98.1435L105.255 96.2811L110.31 96.2064L110.414 103.257L109.243 103.274L109.154 97.2613L106.441 97.3014L106.457 98.3922C106.471 99.3766 106.439 100.198 106.36 100.855C106.281 101.504 106.156 102.02 105.984 102.404C105.821 102.788 105.608 103.062 105.344 103.225C105.08 103.389 104.776 103.473 104.43 103.478ZM115.47 103.315C114.876 103.324 114.316 103.204 113.789 102.954C113.27 102.696 112.848 102.303 112.52 101.775C112.202 101.248 112.037 100.581 112.025 99.7736L112.021 99.5075C112.01 98.7448 112.156 98.104 112.459 97.585C112.77 97.0659 113.181 96.674 113.692 96.4092C114.211 96.1443 114.768 96.0074 115.362 95.9987C115.965 95.9897 116.526 96.1101 117.044 96.3597C117.562 96.6092 117.98 96.9889 118.298 97.4987C118.625 98.0084 118.794 98.6445 118.806 99.4072L118.81 99.6733C118.821 100.48 118.672 101.152 118.36 101.689C118.058 102.226 117.651 102.631 117.141 102.905C116.63 103.169 116.074 103.306 115.47 103.315ZM115.455 102.251C115.818 102.246 116.163 102.161 116.489 101.996C116.823 101.823 117.094 101.548 117.302 101.172C117.518 100.797 117.621 100.303 117.612 99.691L117.608 99.4249C117.6 98.8573 117.482 98.4022 117.256 98.0597C117.037 97.7081 116.759 97.4549 116.419 97.3003C116.089 97.1366 115.742 97.0575 115.378 97.0629C115.023 97.0681 114.679 97.1575 114.344 97.331C114.01 97.4956 113.734 97.7569 113.517 98.1149C113.31 98.4639 113.21 98.9222 113.218 99.4898L113.222 99.7559C113.231 100.368 113.345 100.858 113.564 101.228C113.791 101.597 114.074 101.863 114.414 102.027C114.753 102.181 115.1 102.256 115.455 102.251ZM120.518 103.107L120.414 96.057L123.474 96.0118C124.059 96.0032 124.539 96.0803 124.914 96.2433C125.289 96.3975 125.567 96.6195 125.749 96.9096C125.931 97.1907 126.024 97.522 126.03 97.9034C126.034 98.2137 125.937 98.5124 125.737 98.7992C125.546 99.077 125.296 99.2714 124.987 99.3824C125.423 99.4824 125.754 99.6815 125.981 99.9798C126.216 100.269 126.336 100.613 126.342 101.012C126.351 101.624 126.154 102.115 125.752 102.485C125.349 102.854 124.713 103.045 123.844 103.058L120.518 103.107ZM121.674 102.053L123.829 102.021C124.325 102.013 124.674 101.92 124.876 101.739C125.077 101.559 125.175 101.304 125.17 100.976C125.165 100.639 125.06 100.384 124.853 100.209C124.646 100.026 124.295 99.9382 123.798 99.9455L121.643 99.9773L121.674 102.053ZM121.629 99.0195L123.518 98.9916C124.023 98.9842 124.372 98.8903 124.565 98.71C124.766 98.5297 124.865 98.2843 124.86 97.9739C124.856 97.6812 124.75 97.4521 124.544 97.2866C124.346 97.121 123.995 97.042 123.489 97.0494L121.6 97.0773L121.629 99.0195ZM128.04 102.996L127.936 95.9459L129.107 95.9286L129.185 101.25L132.751 95.8747L133.922 95.8574L134.026 102.908L132.856 102.925L132.777 97.604L129.211 102.979L128.04 102.996ZM136.159 102.876L136.055 95.8258L137.226 95.8085L137.305 101.13L140.871 95.7547L142.041 95.7374L142.146 102.788L140.975 102.805L140.896 97.484L137.33 102.859L136.159 102.876ZM139.036 94.9169C138.344 94.9272 137.836 94.7883 137.513 94.5004C137.189 94.2035 137.023 93.7758 137.015 93.2171L138.159 93.2002C138.163 93.5017 138.237 93.7268 138.382 93.8754C138.526 94.0241 138.74 94.0964 139.023 94.0922C139.316 94.0878 139.532 94.0092 139.672 93.8564C139.82 93.7034 139.892 93.4761 139.888 93.1746L141.005 93.1581C141.014 93.7168 140.86 94.1493 140.546 94.4555C140.231 94.7529 139.727 94.9067 139.036 94.9169Z" fill="#474766"/>
<rect x="6.13267" y="88.3605" width="47.6259" height="24.1991" rx="12.0995" transform="rotate(-0.84683 6.13267 88.3605)" fill="#F3F5F9" stroke="#EAEEFF" stroke-width="1.31633"/>
<circle cx="39.7841" cy="99.9642" r="9.66381" transform="rotate(-0.84683 39.7841 99.9642)" fill="#66A0F7"/>
<path d="M234.278 159.165C249.167 156.528 259.44 144.237 257.222 131.712C255.004 119.188 241.135 111.172 226.245 113.809L117.126 134.399C102.237 137.036 91.9637 149.327 94.1816 161.851C96.3998 174.377 110.269 182.392 125.159 179.755L234.278 159.165Z" fill="url(#paint0_linear_4301_745)"/>
<path d="M119.232 163.634L117.147 152.857L121.534 152.007C122.54 151.813 123.395 151.802 124.099 151.974C124.802 152.136 125.36 152.465 125.775 152.96C126.199 153.442 126.485 154.068 126.634 154.838C126.781 155.597 126.749 156.285 126.538 156.901C126.338 157.515 125.943 158.033 125.354 158.456C124.763 158.868 123.964 159.172 122.959 159.367L121.342 159.679L122.004 163.097L119.232 163.634ZM120.901 157.401L122.21 157.148C122.918 157.011 123.393 156.796 123.634 156.504C123.876 156.213 123.952 155.836 123.863 155.374C123.774 154.912 123.562 154.591 123.229 154.411C122.896 154.23 122.376 154.209 121.667 154.346L120.359 154.599L120.901 157.401ZM131.592 161.449C131.007 161.562 130.482 161.547 130.017 161.402C129.563 161.256 129.19 161.009 128.899 160.66C128.606 160.302 128.413 159.881 128.32 159.399C128.163 158.588 128.289 157.92 128.698 157.393C129.118 156.865 129.83 156.503 130.836 156.309L133.146 155.862L133.08 155.523C132.985 155.03 132.801 154.714 132.529 154.575C132.268 154.434 131.932 154.403 131.521 154.483C131.131 154.558 130.856 154.676 130.695 154.835C130.532 154.983 130.466 155.193 130.497 155.464L128.126 155.923C128.062 155.424 128.13 154.953 128.332 154.509C128.544 154.064 128.89 153.677 129.369 153.35C129.859 153.021 130.484 152.783 131.244 152.636C131.962 152.497 132.614 152.483 133.2 152.593C133.785 152.703 134.274 152.971 134.665 153.395C135.064 153.808 135.341 154.414 135.496 155.215L136.077 158.217C136.161 158.648 136.244 159.026 136.329 159.35C136.411 159.665 136.502 159.972 136.603 160.272L134.34 160.71C134.295 160.537 134.25 160.386 134.204 160.257C134.168 160.125 134.131 159.962 134.093 159.767C133.91 160.143 133.62 160.487 133.223 160.798C132.833 161.097 132.29 161.314 131.592 161.449ZM132.037 159.622C132.375 159.556 132.666 159.436 132.909 159.261C133.152 159.087 133.327 158.861 133.433 158.585C133.537 158.299 133.559 157.996 133.497 157.678L133.432 157.34L131.584 157.697C131.235 157.765 130.991 157.908 130.853 158.126C130.724 158.343 130.683 158.569 130.729 158.805C130.788 159.113 130.919 159.349 131.121 159.512C131.331 159.663 131.636 159.699 132.037 159.622ZM141.831 159.467C141.03 159.622 140.287 159.606 139.601 159.42C138.916 159.233 138.333 158.861 137.852 158.305C137.372 157.748 137.041 157.003 136.861 156.069L136.801 155.761C136.634 154.899 136.677 154.129 136.929 153.452C137.192 152.773 137.606 152.219 138.173 151.79C138.748 151.349 139.415 151.055 140.174 150.908C140.995 150.749 141.711 150.759 142.321 150.939C142.928 151.109 143.427 151.401 143.816 151.816C144.205 152.23 144.476 152.721 144.628 153.288L142.18 153.762C142.037 153.406 141.833 153.153 141.57 153.001C141.314 152.838 140.976 152.797 140.556 152.878C140.227 152.942 139.944 153.076 139.707 153.282C139.481 153.486 139.32 153.756 139.226 154.094C139.14 154.419 139.142 154.818 139.234 155.29L139.293 155.598C139.39 156.101 139.543 156.503 139.75 156.803C139.957 157.104 140.205 157.312 140.493 157.426C140.78 157.531 141.098 157.549 141.446 157.481C141.806 157.412 142.091 157.261 142.301 157.028C142.52 156.784 142.629 156.465 142.627 156.071L145.075 155.597C145.157 156.242 145.079 156.832 144.842 157.367C144.605 157.903 144.229 158.354 143.715 158.72C143.208 159.073 142.58 159.322 141.831 159.467ZM150.686 157.754C149.886 157.908 149.143 157.893 148.457 157.706C147.771 157.519 147.188 157.147 146.708 156.591C146.227 156.034 145.897 155.289 145.716 154.355L145.656 154.047C145.49 153.185 145.532 152.415 145.785 151.738C146.047 151.059 146.462 150.505 147.028 150.076C147.603 149.635 148.27 149.341 149.03 149.194C149.851 149.035 150.566 149.045 151.176 149.225C151.784 149.395 152.282 149.687 152.671 150.102C153.06 150.517 153.331 151.007 153.483 151.574L151.035 152.048C150.892 151.692 150.689 151.439 150.425 151.287C150.17 151.124 149.832 151.083 149.411 151.164C149.083 151.228 148.8 151.362 148.563 151.568C148.336 151.772 148.175 152.042 148.081 152.38C147.995 152.705 147.998 153.104 148.089 153.576L148.149 153.884C148.246 154.387 148.398 154.789 148.605 155.09C148.813 155.39 149.06 155.598 149.349 155.712C149.635 155.817 149.953 155.835 150.302 155.768C150.661 155.698 150.946 155.547 151.157 155.315C151.375 155.07 151.484 154.751 151.482 154.357L153.93 153.883C154.012 154.528 153.935 155.118 153.698 155.653C153.461 156.189 153.085 156.64 152.57 157.006C152.063 157.359 151.436 157.609 150.686 157.754ZM160.442 155.658L159.888 152.794C159.678 152.973 159.429 153.149 159.143 153.322C158.857 153.494 158.463 153.629 157.96 153.726C156.934 153.925 156.126 153.826 155.538 153.428C154.961 153.029 154.574 152.326 154.38 151.321L153.829 148.472L156.23 148.008L156.737 150.625C156.824 151.076 156.979 151.382 157.202 151.541C157.432 151.688 157.799 151.713 158.302 151.616C158.641 151.55 158.915 151.454 159.125 151.329C159.333 151.193 159.47 151.076 159.536 150.978L158.863 147.498L161.234 147.039L162.813 155.199L160.442 155.658ZM164.525 154.868L162.945 146.708L165.255 146.261L166.208 151.188L168.719 145.591L170.797 145.188L172.376 153.348L170.067 153.795L169.113 148.868L166.603 154.465L164.525 154.868ZM175.969 152.653L174.765 146.433L172.256 146.919L171.88 144.979L179.27 143.549L179.645 145.488L177.136 145.974L178.34 152.194L175.969 152.653ZM184.108 151.285C183.523 151.398 182.998 151.383 182.533 151.238C182.079 151.092 181.707 150.845 181.416 150.496C181.122 150.138 180.929 149.717 180.836 149.235C180.679 148.424 180.805 147.756 181.214 147.229C181.634 146.701 182.347 146.339 183.352 146.145L185.662 145.698L185.596 145.359C185.501 144.866 185.317 144.55 185.045 144.411C184.784 144.27 184.448 144.239 184.037 144.319C183.647 144.394 183.372 144.512 183.211 144.671C183.048 144.819 182.982 145.029 183.013 145.3L180.642 145.759C180.578 145.26 180.646 144.789 180.848 144.345C181.06 143.9 181.406 143.513 181.885 143.186C182.375 142.857 183 142.619 183.76 142.472C184.478 142.333 185.13 142.319 185.716 142.429C186.302 142.539 186.79 142.807 187.181 143.231C187.58 143.644 187.857 144.25 188.012 145.051L188.593 148.053C188.677 148.484 188.76 148.862 188.845 149.186C188.927 149.501 189.018 149.808 189.119 150.108L186.856 150.546C186.812 150.373 186.766 150.222 186.72 150.093C186.684 149.961 186.647 149.798 186.609 149.603C186.426 149.979 186.136 150.323 185.739 150.634C185.349 150.933 184.806 151.15 184.108 151.285ZM184.553 149.458C184.891 149.392 185.182 149.272 185.425 149.098C185.668 148.923 185.843 148.697 185.949 148.421C186.054 148.135 186.075 147.832 186.013 147.514L185.948 147.176L184.1 147.533C183.751 147.601 183.507 147.744 183.369 147.962C183.24 148.179 183.199 148.405 183.245 148.641C183.304 148.949 183.435 149.185 183.637 149.348C183.847 149.499 184.152 149.536 184.553 149.458ZM192.357 149.481L191.153 143.261L188.643 143.747L188.268 141.807L195.658 140.377L196.033 142.317L193.524 142.802L194.727 149.022L192.357 149.481ZM198.461 148.299L196.882 140.14L199.253 139.681L199.766 142.329L201.397 142.013C202.465 141.807 203.314 141.876 203.946 142.223C204.577 142.569 204.983 143.209 205.164 144.143C205.267 144.677 205.252 145.175 205.118 145.638C204.984 146.1 204.703 146.495 204.277 146.823C203.848 147.14 203.244 147.374 202.464 147.525L198.461 148.299ZM200.487 146.055L201.811 145.799C202.231 145.717 202.514 145.582 202.659 145.395C202.812 145.195 202.857 144.931 202.793 144.602C202.727 144.263 202.587 144.035 202.373 143.917C202.169 143.797 201.856 143.777 201.435 143.859L200.111 144.115L200.487 146.055Z" fill="white"/>
<g filter="url(#filter0_d_4301_745)">
<circle cx="228.598" cy="137.106" r="14.2037" transform="rotate(-10.0425 228.598 137.106)" fill="#FC9F30" stroke="#FC9F30" stroke-width="1.35273"/>
<path d="M224.755 130.918L232.595 136.399L227.114 144.238" stroke="white" stroke-width="1.35273"/>
</g>
<defs>
<filter id="filter0_d_4301_745" x="189.352" y="97.8593" width="78.4941" height="78.4938" filterUnits="userSpaceOnUse" color-interpolation-filters="sRGB">
<feFlood flood-opacity="0" result="BackgroundImageFix"/>
<feColorMatrix in="SourceAlpha" type="matrix" values="0 0 0 0 0 0 0 0 0 0 0 0 0 0 0 0 0 0 127 0" result="hardAlpha"/>
<feOffset/>
<feGaussianBlur stdDeviation="11"/>
<feComposite in2="hardAlpha" operator="out"/>
<feColorMatrix type="matrix" values="0 0 0 0 0.117647 0 0 0 0 0.627451 0 0 0 0 0.870588 0 0 0 0.15 0"/>
<feBlend mode="normal" in2="BackgroundImageFix" result="effect1_dropShadow_4301_745"/>
<feBlend mode="normal" in="SourceGraphic" in2="effect1_dropShadow_4301_745" result="shape"/>
</filter>
<linearGradient id="paint0_linear_4301_745" x1="106.201" y1="158.457" x2="257.223" y2="131.712" gradientUnits="userSpaceOnUse">
<stop stop-color="#F17E00"/>
<stop offset="1" stop-color="#FC9F30"/>
</linearGradient>
</defs>
</svg>
