<svg width="195" height="135" viewBox="0 0 195 135" fill="none" xmlns="http://www.w3.org/2000/svg">
<path opacity="0.3" d="M231.394 43.4824C240.489 48.5378 248.183 55.7763 253.783 64.5457L272.445 58.9509L282.281 91.7608L263.619 97.3556C263.772 107.766 261.331 118.052 256.517 127.284L270.715 140.662L247.228 165.577L233.051 152.192C224.112 157.53 213.988 160.565 203.587 161.025L199.101 180.005L165.781 172.12L170.277 153.137C161.178 148.077 153.482 140.83 147.882 132.052L129.22 137.647L119.387 104.848L138.05 99.253C137.896 88.8421 140.337 78.5569 145.152 69.3249L130.945 55.9607L154.422 31.0494L154.455 31.0395L168.636 44.3994C177.575 39.0615 187.699 36.0264 198.1 35.5664L202.56 16.6182L202.582 16.6117L235.902 24.496L231.405 43.4791L231.394 43.4824ZM233.633 88.4716C231.025 79.7728 225.069 72.4662 217.074 68.1592C209.079 63.8522 199.7 62.8976 191.001 65.5054C182.303 68.1132 174.996 74.0698 170.689 82.0647C166.382 90.0597 165.427 99.4382 168.035 108.137C170.643 116.836 176.6 124.142 184.595 128.449C192.59 132.756 201.968 133.711 210.667 131.103C219.366 128.495 226.672 122.539 230.979 114.544C235.286 106.549 236.241 97.1704 233.633 88.4716Z" fill="white"/>
<path opacity="0.3" d="M79.9235 102.541C84.5134 107.253 87.8587 113.034 89.6582 119.362H101.976V141.018H89.6582C87.8609 147.35 84.5154 153.136 79.9235 157.853L86.0934 168.533L67.3456 179.357L61.1902 168.677C54.8076 170.287 48.1251 170.287 41.7425 168.677L35.5798 179.357L16.8321 168.533L23.002 157.853C18.41 153.136 15.0645 147.35 13.2673 141.018H0.949219V119.369H13.2673C15.0645 113.036 18.41 107.25 23.002 102.533L16.8249 91.8607L35.5654 81.0364H35.5871L41.7497 91.7019C48.1323 90.0922 54.8148 90.0922 61.1974 91.7019L67.3384 81.0364H67.3528L86.1006 91.8607L79.9307 102.541H79.9235ZM73.1114 130.193C73.1114 124.452 70.8306 118.945 66.7706 114.885C62.7107 110.825 57.2043 108.545 51.4627 108.545C45.7212 108.545 40.2147 110.825 36.1548 114.885C32.0949 118.945 29.8141 124.452 29.8141 130.193C29.8141 135.935 32.0949 141.441 36.1548 145.501C40.2147 149.561 45.7212 151.842 51.4627 151.842C57.2043 151.842 62.7107 149.561 66.7706 145.501C70.8306 141.441 73.1114 135.935 73.1114 130.193Z" fill="white"/>
</svg>
