<svg width="240" height="106" viewBox="0 0 240 106" fill="none" xmlns="http://www.w3.org/2000/svg">
<path opacity="0.2" fill-rule="evenodd" clip-rule="evenodd" d="M73.2869 49.3019C73.7423 48.0554 74.5579 46.9723 75.6301 46.1903C76.7023 45.4083 77.9828 44.9626 79.3089 44.9099L99.8442 44.0758C101.614 44.0012 103.341 44.6311 104.647 45.8275C105.953 47.0238 106.732 48.6891 106.813 50.4585L107.753 70.9451C107.813 72.268 107.48 73.5792 106.795 74.7127C106.11 75.8462 105.104 76.7511 103.905 77.3128C102.705 77.8745 101.366 78.0679 100.057 77.8684C98.7477 77.6689 97.527 77.0855 96.5494 76.1921L90.6958 70.8372L34.5779 133.13C33.9893 133.784 33.2777 134.315 32.4838 134.694C31.6899 135.072 30.8292 135.291 29.9508 135.337C29.0724 135.383 28.1936 135.255 27.3645 134.962C26.5353 134.668 25.7722 134.214 25.1186 133.625C24.4649 133.037 23.9336 132.325 23.555 131.531C23.1764 130.737 22.9579 129.877 22.9119 128.998C22.8659 128.12 22.9934 127.241 23.287 126.412C23.5807 125.583 24.0348 124.82 24.6234 124.166L80.8153 61.7994L75.0666 56.5435C74.0852 55.649 73.392 54.4829 73.0751 53.1934C72.7582 51.904 72.8319 50.5494 73.2869 49.3019Z" fill="white"/>
<path opacity="0.2" fill-rule="evenodd" clip-rule="evenodd" d="M246.224 0.726562C248.822 0.726562 251.314 2.12291 253.151 4.60841C254.989 7.09391 256.021 10.465 256.021 13.98V106.754C256.021 108.512 255.505 110.197 254.586 111.44C253.668 112.683 252.422 113.381 251.122 113.381H226.628C225.329 113.381 224.083 112.683 223.164 111.44C222.246 110.197 221.73 108.512 221.73 106.754V13.98C221.73 10.465 222.762 7.09391 224.599 4.60841C226.437 2.12291 228.929 0.726562 231.527 0.726562H246.224ZM204.163 24.4767C202.324 21.9959 199.833 20.6039 197.236 20.6067H182.539C179.941 20.6067 177.449 22.0031 175.611 24.4886C173.774 26.9741 172.742 30.3451 172.742 33.8601V106.754C172.742 108.512 173.258 110.197 174.177 111.44C175.095 112.683 176.341 113.381 177.641 113.381H202.134C203.434 113.381 204.68 112.683 205.598 111.44C206.517 110.197 207.033 108.512 207.033 106.754V33.8601C207.034 32.1176 206.781 30.3919 206.289 28.7817C205.796 27.1716 205.074 25.7087 204.163 24.4767ZM148.248 40.4869C150.846 40.4869 153.338 41.8832 155.176 44.3687C157.013 46.8542 158.045 50.2253 158.045 53.7403V106.754C158.045 108.512 157.529 110.197 156.611 111.44C155.692 112.683 154.446 113.381 153.147 113.381H128.653C127.353 113.381 126.107 112.683 125.189 111.44C124.27 110.197 123.754 108.512 123.754 106.754V53.7403C123.754 50.2253 124.786 46.8542 126.624 44.3687C128.461 41.8832 130.953 40.4869 133.551 40.4869H148.248Z" fill="white"/>
</svg>
