<svg width="307" height="242" viewBox="0 0 307 242" fill="none" xmlns="http://www.w3.org/2000/svg">
<path d="M70.4196 237.171V233.909C70.2361 234.029 69.9784 234.139 69.6466 234.238C69.3148 234.336 68.9335 234.386 68.5029 234.386C67.6345 234.386 67.0027 234.192 66.6073 233.803C66.212 233.408 66.0143 232.783 66.0143 231.929V229.758H67.0097V231.929C67.0097 232.487 67.1333 232.889 67.3804 233.136C67.6275 233.376 68.0369 233.496 68.6088 233.496C69.0465 233.496 69.4101 233.443 69.6995 233.338C69.996 233.232 70.2361 233.119 70.4196 232.999V229.758H71.4151V237.171H70.4196ZM73.5322 237.171V229.758H78.2976V230.627H74.5276V232.925H77.9799V233.793H74.5276V236.303H78.2976V237.171H73.5322ZM81.8252 237.171V230.627H79.2519V229.758H85.394V230.627H82.8206V237.171H81.8252ZM86.666 237.171V229.758H89.3134C90.1959 229.758 90.8383 229.945 91.2407 230.319C91.6502 230.687 91.855 231.16 91.855 231.738C91.855 232.12 91.7491 232.448 91.5373 232.723C91.3255 232.992 91.0642 233.186 90.7536 233.306C91.1913 233.405 91.5373 233.606 91.7914 233.909C92.046 234.206 92.173 234.594 92.173 235.074C92.173 235.477 92.084 235.837 91.9079 236.154C91.7314 236.465 91.449 236.712 91.0607 236.896C90.6724 237.079 90.1606 237.171 89.5252 237.171H86.666ZM87.6614 236.303H89.5252C90.1606 236.303 90.5948 236.19 90.8277 235.964C91.0607 235.731 91.1772 235.424 91.1772 235.042C91.1772 234.654 91.0607 234.347 90.8277 234.121C90.5948 233.888 90.1571 233.772 89.5146 233.772H87.6614V236.303ZM87.6614 232.946H89.3134C89.9064 232.946 90.3124 232.836 90.5312 232.617C90.7501 232.399 90.8595 232.12 90.8595 231.781C90.8595 231.435 90.7501 231.156 90.5312 230.944C90.3124 230.732 89.9064 230.627 89.3134 230.627H87.6614V232.946ZM93.76 237.171V229.758H98.526V230.627H94.756V232.925H98.208V233.793H94.756V236.303H98.526V237.171H93.76ZM100.224 237.171V229.758H102.765C103.422 229.758 103.958 229.857 104.375 230.055C104.799 230.245 105.113 230.514 105.317 230.86C105.522 231.198 105.625 231.59 105.625 232.035C105.625 232.473 105.522 232.865 105.317 233.21C105.113 233.556 104.799 233.828 104.375 234.026C103.958 234.216 103.422 234.312 102.765 234.312H101.219V237.171H100.224ZM101.219 233.443H102.712C103.418 233.443 103.913 233.316 104.195 233.062C104.484 232.808 104.629 232.466 104.629 232.035C104.629 231.604 104.484 231.262 104.195 231.008C103.913 230.754 103.418 230.627 102.712 230.627H101.219V233.443ZM107.163 237.171V229.758H111.822V230.627H108.158V237.171H107.163Z" fill="#134C75" fill-opacity="0.44"/>
<path d="M163.383 237.171V229.758H169.208V237.171H168.212V230.627H164.379V237.171H163.383ZM170.743 237.171L172.776 234.058C172.204 233.902 171.774 233.641 171.484 233.274C171.202 232.9 171.061 232.469 171.061 231.982C171.061 231.558 171.167 231.181 171.378 230.849C171.59 230.51 171.904 230.245 172.321 230.055C172.737 229.857 173.253 229.758 173.867 229.758H176.462V237.171H175.466V234.185H173.751L171.866 237.171H170.743ZM172.056 231.982C172.056 232.384 172.204 232.713 172.501 232.967C172.797 233.214 173.288 233.338 173.973 233.338H175.466V230.627H173.973C173.288 230.627 172.797 230.754 172.501 231.008C172.204 231.255 172.056 231.58 172.056 231.982ZM180.301 237.171V230.627H177.728V229.758H183.87V230.627H181.297V237.171H180.301ZM185.142 237.171V229.758H186.137V232.925H190.077V229.758H191.072V237.171H190.077V233.793H186.137V237.171H185.142ZM193.188 237.171V229.758H194.183V235.583L198.122 229.758H199.118V237.171H198.122V231.347L194.183 237.171H193.188ZM207.005 238.548V237.171H201.233V229.758H202.229V236.303H205.956V229.758H206.952V236.303H207.958V238.548H207.005ZM208.804 237.171L211.642 229.758H212.638L215.476 237.171H214.396L213.686 235.328H210.551L209.842 237.171H208.804ZM210.88 234.46H213.358L212.119 231.029L210.88 234.46Z" fill="#134C75" fill-opacity="0.44"/>
<path d="M260.115 237.277C259.564 237.277 259.052 237.146 258.579 236.885C258.106 236.624 257.722 236.218 257.425 235.667C257.136 235.11 256.991 234.393 256.991 233.518V233.306C256.991 232.67 257.076 232.123 257.245 231.664C257.414 231.205 257.644 230.828 257.933 230.531C258.223 230.235 258.555 230.016 258.929 229.875C259.31 229.726 259.705 229.652 260.115 229.652C260.517 229.652 260.884 229.705 261.216 229.811C261.555 229.917 261.852 230.069 262.106 230.266C262.36 230.464 262.565 230.708 262.72 230.997C262.882 231.287 262.985 231.615 263.027 231.982H261.968C261.869 231.502 261.661 231.142 261.343 230.902C261.026 230.662 260.616 230.542 260.115 230.542C259.769 230.542 259.437 230.63 259.119 230.807C258.802 230.983 258.544 231.276 258.346 231.686C258.149 232.088 258.05 232.628 258.05 233.306V233.518C258.05 234.054 258.11 234.506 258.23 234.873C258.357 235.24 258.523 235.537 258.728 235.763C258.932 235.981 259.155 236.14 259.395 236.239C259.642 236.338 259.882 236.387 260.115 236.387C260.665 236.387 261.096 236.253 261.407 235.985C261.717 235.717 261.905 235.371 261.968 234.947H263.027C262.971 235.357 262.858 235.71 262.688 236.006C262.519 236.303 262.303 236.546 262.042 236.737C261.788 236.92 261.495 237.058 261.163 237.15C260.838 237.235 260.489 237.277 260.115 237.277ZM265.404 237.277C265.326 237.277 265.248 237.273 265.171 237.266C265.1 237.266 265.036 237.263 264.98 237.256V236.366C265.036 236.373 265.1 236.38 265.171 236.387C265.248 236.387 265.326 236.387 265.404 236.387C265.608 236.387 265.771 236.363 265.891 236.313C266.018 236.264 266.127 236.176 266.219 236.049C266.311 235.921 266.406 235.738 266.505 235.498L263.444 229.758H264.525L267.003 234.471L269.099 229.758H270.116L267.416 235.72C267.296 235.988 267.172 236.221 267.045 236.419C266.918 236.617 266.777 236.779 266.621 236.906C266.466 237.033 266.29 237.125 266.092 237.182C265.894 237.245 265.665 237.277 265.404 237.277ZM271.386 237.171V229.758H276.204V230.616H272.381V232.723H274.033C275.015 232.723 275.735 232.928 276.194 233.338C276.66 233.747 276.893 234.284 276.893 234.947C276.893 235.611 276.66 236.147 276.194 236.557C275.735 236.966 275.015 237.171 274.033 237.171H271.386ZM272.381 236.303H273.98C274.686 236.303 275.181 236.186 275.463 235.953C275.752 235.713 275.897 235.378 275.897 234.947C275.897 234.517 275.752 234.185 275.463 233.952C275.181 233.712 274.686 233.592 273.98 233.592H272.381V236.303ZM278.428 237.171V229.758H283.247V230.616H279.424V232.723H281.076C282.057 232.723 282.777 232.928 283.236 233.338C283.702 233.747 283.935 234.284 283.935 234.947C283.935 235.611 283.702 236.147 283.236 236.557C282.777 236.966 282.057 237.171 281.076 237.171H278.428ZM279.424 236.303H281.023C281.729 236.303 282.223 236.186 282.506 235.953C282.795 235.713 282.94 235.378 282.94 234.947C282.94 234.517 282.795 234.185 282.506 233.952C282.223 233.712 281.729 233.592 281.023 233.592H279.424V236.303ZM288.33 237.277C287.907 237.277 287.497 237.206 287.102 237.065C286.714 236.917 286.364 236.691 286.054 236.387C285.743 236.084 285.496 235.696 285.312 235.223C285.136 234.749 285.048 234.181 285.048 233.518V233.306C285.048 232.67 285.136 232.123 285.312 231.664C285.496 231.205 285.743 230.828 286.054 230.531C286.364 230.228 286.714 230.005 287.102 229.864C287.497 229.723 287.907 229.652 288.33 229.652C288.754 229.652 289.16 229.723 289.548 229.864C289.943 230.005 290.296 230.228 290.607 230.531C290.918 230.828 291.161 231.205 291.338 231.664C291.521 232.123 291.613 232.67 291.613 233.306V233.518C291.613 234.181 291.521 234.749 291.338 235.223C291.161 235.696 290.918 236.084 290.607 236.387C290.296 236.691 289.943 236.917 289.548 237.065C289.16 237.206 288.754 237.277 288.33 237.277ZM288.33 236.387C288.719 236.387 289.079 236.292 289.41 236.101C289.749 235.911 290.025 235.604 290.236 235.18C290.448 234.757 290.554 234.202 290.554 233.518V233.306C290.554 232.656 290.448 232.13 290.236 231.728C290.025 231.318 289.749 231.018 289.41 230.828C289.079 230.637 288.719 230.542 288.33 230.542C287.949 230.542 287.589 230.637 287.25 230.828C286.911 231.018 286.636 231.318 286.424 231.728C286.212 232.13 286.106 232.656 286.106 233.306V233.518C286.106 234.202 286.212 234.757 286.424 235.18C286.636 235.604 286.911 235.911 287.25 236.101C287.589 236.292 287.949 236.387 288.33 236.387ZM294.829 237.171V230.627H292.256V229.758H298.398V230.627H295.825V237.171H294.829ZM297.975 237.171L300.813 229.758H301.808L304.646 237.171H303.566L302.857 235.328H299.722L299.013 237.171H297.975ZM300.05 234.46H302.528L301.289 231.029L300.05 234.46Z" fill="#134C75" fill-opacity="0.44"/>
<path d="M50.4961 221.167C79.3072 221.167 75.4588 171.684 106.248 171.684C135.389 171.684 122.743 198.625 148.584 198.625C174.426 198.625 163.43 124.4 190.37 124.4C212.363 124.4 204.115 172.784 224.458 172.784C244.801 172.784 236.006 99.6583 265.704 99.6583C295.402 99.6583 279.454 146.942 306.663 146.942V221.167H52.6969" fill="#F7F8FF"/>
<path d="M108.716 171.859C108.716 174.89 106.258 177.348 103.225 177.348C100.193 177.348 97.736 174.89 97.736 171.859C97.736 168.827 100.194 166.368 103.225 166.368C106.257 166.368 108.716 168.826 108.716 171.859Z" fill="#F17E00"/>
<path d="M194.852 125.689C194.852 128.72 192.395 131.179 189.362 131.179C186.331 131.179 183.873 128.722 183.873 125.689C183.873 122.657 186.331 120.198 189.362 120.198C192.395 120.2 194.852 122.657 194.852 125.689Z" fill="#F17E00"/>
<path d="M275.246 95.5862C275.246 98.6177 272.788 101.077 269.756 101.077C266.724 101.077 264.267 98.619 264.267 95.5862C264.267 92.5548 266.724 90.0958 269.756 90.0958C272.788 90.0972 275.246 92.5548 275.246 95.5862Z" fill="#F17E00"/>
<path d="M189.361 90.0958V116.042L191.788 111.799H215.687V90.0958H189.361Z" fill="#66A0F7"/>
<path d="M267.659 62.2531V88.1988L270.086 83.9564H293.985V62.2531H267.659Z" fill="#66A0F7"/>
<path d="M197.57 104.063V102.372H199.329V98.1347L197.57 99.3911V97.3351L199.341 96.0672H201.397V102.372H202.824V104.063H197.57ZM206.418 104.211C205.878 104.211 205.406 104.139 205.002 103.994C204.606 103.85 204.29 103.621 204.054 103.309C203.826 102.989 203.681 102.574 203.62 102.064H205.562C205.615 102.239 205.714 102.376 205.859 102.475C206.003 102.566 206.209 102.612 206.476 102.612C206.727 102.612 206.944 102.551 207.127 102.429C207.317 102.308 207.465 102.102 207.572 101.813C207.686 101.523 207.751 101.112 207.766 100.579C207.583 100.846 207.328 101.032 207.001 101.139C206.673 101.245 206.327 101.299 205.962 101.299C205.428 101.299 204.972 101.196 204.591 100.99C204.218 100.785 203.932 100.495 203.734 100.122C203.544 99.7414 203.449 99.2997 203.449 98.7971V98.6829C203.449 98.127 203.574 97.6397 203.826 97.2209C204.077 96.8021 204.431 96.4822 204.888 96.2614C205.345 96.033 205.874 95.9187 206.476 95.9187C207.184 95.9187 207.778 96.0482 208.257 96.3071C208.745 96.5584 209.11 96.9696 209.354 97.5407C209.605 98.1042 209.731 98.8505 209.731 99.7795V100.008C209.731 101.021 209.59 101.835 209.308 102.452C209.034 103.061 208.646 103.507 208.143 103.789C207.648 104.07 207.073 104.211 206.418 104.211ZM206.59 99.8137C206.925 99.8137 207.187 99.7185 207.378 99.5282C207.576 99.3302 207.675 99.0599 207.675 98.7172V98.6144C207.675 98.287 207.572 98.0242 207.366 97.8263C207.168 97.6207 206.91 97.5179 206.59 97.5179C206.255 97.5179 205.988 97.6168 205.79 97.8148C205.6 98.0052 205.505 98.2679 205.505 98.603V98.7172C205.505 99.0599 205.6 99.3302 205.79 99.5282C205.988 99.7185 206.255 99.8137 206.59 99.8137Z" fill="white"/>
<path d="M274.004 76.2189V74.7568L276.654 72.5638C276.997 72.282 277.275 72.0345 277.488 71.8213C277.709 71.6005 277.865 71.3949 277.956 71.2045C278.055 71.0141 278.105 70.82 278.105 70.622C278.105 70.3555 278.033 70.1498 277.888 70.0052C277.743 69.8605 277.534 69.7881 277.26 69.7881C276.902 69.7881 276.631 69.9024 276.449 70.1308C276.266 70.3593 276.175 70.6943 276.175 71.136H274.119C274.119 70.4811 274.233 69.929 274.461 69.4797C274.697 69.0229 275.048 68.6764 275.512 68.4403C275.977 68.1966 276.559 68.0748 277.26 68.0748C277.915 68.0748 278.455 68.1852 278.882 68.4061C279.316 68.6193 279.639 68.9162 279.852 69.297C280.066 69.6777 280.172 70.1194 280.172 70.622C280.172 70.9875 280.089 71.3378 279.921 71.6728C279.754 72.0003 279.525 72.3125 279.236 72.6094C278.954 72.8988 278.627 73.1882 278.253 73.4775L276.871 74.5284H280.287V76.2189H274.004ZM284.117 76.3674C283.439 76.3674 282.868 76.2455 282.404 76.0018C281.947 75.7582 281.604 75.4231 281.376 74.9967C281.147 74.5703 281.033 74.0829 281.033 73.5346H283.089C283.089 73.9078 283.173 74.1895 283.34 74.3799C283.515 74.5626 283.797 74.654 284.186 74.654C284.505 74.654 284.741 74.5741 284.894 74.4142C285.054 74.2466 285.134 74.0258 285.134 73.7517C285.134 73.4623 285.054 73.2415 284.894 73.0892C284.734 72.9369 284.475 72.8607 284.117 72.8607H283.443V71.353H284.117C284.422 71.353 284.646 71.2845 284.791 71.1474C284.943 71.0103 285.019 70.8085 285.019 70.542C285.019 70.306 284.947 70.1232 284.802 69.9937C284.658 69.8567 284.452 69.7881 284.186 69.7881C283.85 69.7881 283.603 69.8719 283.443 70.0394C283.283 70.207 283.203 70.4583 283.203 70.7933H281.147C281.147 70.2222 281.261 69.7348 281.49 69.3313C281.718 68.9277 282.053 68.6193 282.495 68.4061C282.944 68.1852 283.485 68.0748 284.117 68.0748C284.749 68.0748 285.286 68.17 285.728 68.3604C286.169 68.5431 286.504 68.802 286.733 69.1371C286.969 69.4721 287.087 69.8567 287.087 70.2907C287.087 70.7248 286.965 71.0941 286.721 71.3987C286.478 71.7033 286.15 71.9203 285.739 72.0498C286.219 72.1792 286.58 72.4 286.824 72.7122C287.075 73.0244 287.201 73.4318 287.201 73.9344C287.201 74.4142 287.075 74.8406 286.824 75.2137C286.573 75.5792 286.215 75.8648 285.75 76.0704C285.294 76.2684 284.749 76.3674 284.117 76.3674Z" fill="white"/>
<path d="M295.343 3.79501L179.373 8.89629C175.941 9.04721 173.282 11.951 173.433 15.3821L175.104 53.3597C175.255 56.7908 178.159 59.4499 181.59 59.2989L297.56 54.1977C300.991 54.0467 303.651 51.1429 303.5 47.7118L301.829 9.73431C301.678 6.3032 298.774 3.64409 295.343 3.79501Z" fill="#F3F5F9"/>
<path d="M185.81 25.1181L185.531 18.7823L186.617 18.7345L186.734 21.3865L187.367 21.3586L189.55 18.6056L190.781 18.5514L188.243 21.6829L191.15 24.8832L189.828 24.9413L187.405 22.2094L186.771 22.2373L186.896 25.0703L185.81 25.1181ZM192.013 24.945C191.964 24.9471 191.91 24.9465 191.849 24.9431C191.795 24.9455 191.743 24.9417 191.695 24.9318L191.649 23.8999C191.668 23.9052 191.713 23.9062 191.785 23.903C191.918 23.8972 192.035 23.8679 192.135 23.8151C192.235 23.7563 192.316 23.653 192.376 23.5053C192.442 23.3572 192.49 23.1435 192.52 22.8641C192.556 22.5844 192.573 22.2209 192.571 21.7736C192.57 21.3203 192.554 20.7647 192.525 20.107L192.454 18.4778L196.889 18.2827L197.167 24.6185L196.081 24.6663L195.844 19.2718L193.545 19.3729L193.583 20.2418C193.618 21.0323 193.623 21.7001 193.599 22.2453C193.574 22.7905 193.522 23.2402 193.441 23.5944C193.365 23.9424 193.259 24.213 193.123 24.4065C192.992 24.5996 192.832 24.7366 192.642 24.8176C192.458 24.8922 192.248 24.9346 192.013 24.945ZM198.794 24.5469L198.515 18.2112L199.602 18.1634L199.805 22.7794L202.715 18.0264L203.765 17.9803L204.044 24.316L202.958 24.3638L202.755 19.7477L199.844 24.5007L198.794 24.5469ZM205.671 24.2444L205.392 17.9087L209.646 17.7216L209.688 18.6629L206.52 18.8022L206.593 20.4676L209.489 20.3402L209.531 21.2815L206.634 21.4089L206.716 23.2554L209.883 23.116L209.925 24.0573L205.671 24.2444ZM211.239 23.9995L210.961 17.6637L212.047 17.616L212.161 20.2227L215.239 20.0873L215.124 17.4806L216.21 17.4328L216.489 23.7686L215.403 23.8164L215.28 21.0286L212.203 21.164L212.325 23.9517L211.239 23.9995ZM219.609 23.6313L219.372 18.2369L217.245 18.3304L217.204 17.3891L222.544 17.1542L222.585 18.0955L220.458 18.1891L220.696 23.5835L219.609 23.6313ZM228.211 23.3527C227.686 23.3758 227.233 23.3111 226.852 23.1586C226.476 23.0058 226.182 22.786 225.97 22.4991C225.758 22.2061 225.631 21.8611 225.589 21.4639L226.729 21.4137C226.763 21.6178 226.84 21.7958 226.962 21.9476C227.083 22.0995 227.245 22.2163 227.449 22.298C227.651 22.3737 227.892 22.4055 228.169 22.3933C228.646 22.3723 228.992 22.2724 229.208 22.0937C229.43 21.9146 229.534 21.6682 229.52 21.3544C229.511 21.1493 229.455 20.9764 229.352 20.8359C229.249 20.6953 229.093 20.5903 228.885 20.5209C228.682 20.4452 228.415 20.4146 228.083 20.4292L227.313 20.463L227.275 19.5941L228.045 19.5603C228.431 19.5433 228.717 19.4521 228.903 19.2867C229.095 19.1151 229.185 18.8904 229.173 18.6129C229.161 18.3413 229.058 18.1312 228.864 17.9826C228.676 17.8276 228.376 17.7592 227.966 17.7772C227.701 17.7889 227.479 17.8349 227.301 17.9153C227.123 17.9896 226.989 18.0983 226.898 18.2414C226.814 18.3781 226.763 18.5435 226.748 18.7377L225.607 18.7878C225.625 18.2188 225.822 17.7567 226.199 17.4015C226.577 17.0464 227.152 16.8518 227.924 16.8178C228.696 16.7838 229.28 16.9184 229.674 17.2215C230.074 17.5243 230.286 17.9563 230.311 18.5175C230.326 18.8493 230.245 19.134 230.068 19.3715C229.89 19.603 229.647 19.777 229.338 19.8933C229.728 19.9669 230.04 20.1254 230.275 20.369C230.515 20.6124 230.644 20.9392 230.662 21.3495C230.679 21.7176 230.597 22.0507 230.416 22.3488C230.242 22.6407 229.971 22.8763 229.604 23.0557C229.237 23.229 228.773 23.328 228.211 23.3527ZM231.155 23.1234L233.275 16.6822L234.361 16.6344L237.038 22.8647L235.88 22.9156L235.283 21.509L232.713 21.6221L232.241 23.0757L231.155 23.1234ZM233.024 20.6653L234.889 20.5832L233.851 18.0171L233.024 20.6653ZM237.986 22.823L237.707 16.4872L242.866 16.2603L243.145 22.596L242.059 22.6438L241.822 17.2494L238.835 17.3808L239.072 22.7752L237.986 22.823ZM244.774 22.5244L244.496 16.1886L245.582 16.1408L245.785 20.7569L248.695 16.0039L249.745 15.9577L250.024 22.2935L248.938 22.3412L248.735 17.7252L245.824 22.4782L244.774 22.5244ZM254.099 22.2139C253.58 22.2368 253.108 22.1487 252.682 21.9498C252.256 21.7449 251.909 21.4125 251.641 20.9527C251.378 20.4867 251.23 19.8735 251.197 19.1132L251.189 18.9322C251.165 18.3831 251.216 17.9092 251.344 17.5106C251.471 17.106 251.653 16.7716 251.889 16.5073C252.132 16.2427 252.416 16.0427 252.743 15.9075C253.075 15.7719 253.432 15.6958 253.812 15.6791C254.162 15.6637 254.49 15.6946 254.795 15.7718C255.101 15.843 255.372 15.9611 255.609 16.126C255.846 16.2909 256.039 16.5 256.19 16.7534C256.34 17.0067 256.438 17.3078 256.483 17.6564L255.343 17.7066C255.247 17.3178 255.066 17.0386 254.798 16.869C254.537 16.6991 254.222 16.6223 253.854 16.6385C253.588 16.6502 253.335 16.7308 253.094 16.8805C252.852 17.0241 252.657 17.2564 252.508 17.5774C252.365 17.898 252.305 18.3329 252.329 18.882L252.337 19.063C252.356 19.4975 252.421 19.8604 252.53 20.1518C252.64 20.4372 252.776 20.6609 252.941 20.823C253.111 20.9848 253.292 21.1008 253.482 21.171C253.678 21.2349 253.87 21.2628 254.057 21.2545C254.491 21.2354 254.822 21.1211 255.049 20.9117C255.281 20.6959 255.413 20.4119 255.446 20.0598L256.587 20.0097C256.567 20.3854 256.491 20.7092 256.357 20.981C256.23 21.2526 256.053 21.4781 255.825 21.6574C255.603 21.8304 255.346 21.9626 255.053 22.0541C254.761 22.1455 254.443 22.1988 254.099 22.2139ZM257.045 21.9846L259.164 15.5434L260.251 15.4956L262.928 21.7258L261.769 21.7768L261.172 20.3702L258.602 20.4833L258.131 21.9369L257.045 21.9846ZM258.913 19.5265L260.778 19.4444L259.74 16.8783L258.913 19.5265ZM263.875 21.6842L263.597 15.3484L264.683 15.3006L264.797 17.9073L267.875 17.772L267.76 15.1653L268.846 15.1175L269.125 21.4532L268.039 21.501L267.916 18.7133L264.839 18.8487L264.961 21.6364L263.875 21.6842Z" fill="#474766" fill-opacity="0.33"/>
<path d="M199.039 50.3343L194.687 50.5257L194.542 47.2375L187.216 47.5597L187.086 44.5858L194.233 33.5882L198.295 33.4095L198.737 43.4677L200.575 43.3868L200.732 46.9652L198.894 47.046L199.039 50.3343ZM194.154 38.4124L190.927 43.8112L194.385 43.6591L194.154 38.4124ZM209.604 50.1845C208.218 50.2454 207.008 50.0968 205.975 49.7385C204.941 49.3641 204.134 48.8182 203.553 48.1008C202.972 47.3673 202.658 46.4848 202.613 45.4532C202.572 44.5183 202.817 43.6677 203.349 42.9014C203.88 42.1352 204.696 41.5825 205.795 41.2434C204.944 40.9902 204.23 40.5532 203.654 39.9326C203.094 39.3112 202.793 38.5331 202.752 37.5982C202.711 36.6633 202.917 35.8387 203.37 35.1243C203.838 34.3931 204.531 33.8135 205.449 33.3855C206.383 32.9407 207.51 32.6892 208.832 32.6311C210.17 32.5722 211.315 32.7237 212.268 33.0856C213.22 33.4313 213.953 33.9482 214.468 34.6361C214.998 35.3072 215.283 36.1103 215.325 37.0451C215.365 37.9639 215.133 38.7574 214.63 39.4255C214.126 40.0937 213.454 40.5997 212.613 40.9435C213.74 41.217 214.6 41.6878 215.195 42.3561C215.789 43.0244 216.109 43.8582 216.153 44.8576C216.198 45.8892 215.963 46.7959 215.449 47.5775C214.933 48.3431 214.177 48.9578 213.18 49.4215C212.182 49.8692 210.99 50.1235 209.604 50.1845ZM209.457 46.8479C210.038 46.8223 210.518 46.7285 210.898 46.5665C211.294 46.3875 211.583 46.1488 211.763 45.8501C211.959 45.5346 212.048 45.1754 212.031 44.7724C212.001 44.0955 211.712 43.5914 211.165 43.2601C210.633 42.9121 210.001 42.6896 209.27 42.5925C208.567 42.7527 207.957 43.0379 207.442 43.4481C206.927 43.8422 206.683 44.3617 206.712 45.0064C206.729 45.4094 206.85 45.7594 207.073 46.0564C207.311 46.3367 207.627 46.5488 208.021 46.693C208.431 46.8204 208.909 46.872 209.457 46.8479ZM209.145 39.7395C209.752 39.5997 210.259 39.3675 210.664 39.0428C211.07 38.7181 211.259 38.2495 211.232 37.637C211.207 37.0567 210.994 36.63 210.595 36.3569C210.194 36.0676 209.656 35.9379 208.979 35.9677C208.302 35.9975 207.776 36.1659 207.402 36.4731C207.028 36.7802 206.854 37.232 206.88 37.8284C206.907 38.4409 207.145 38.8907 207.594 39.1779C208.042 39.4488 208.559 39.6361 209.145 39.7395Z" fill="#474766"/>
<path d="M235.139 48.8528L233.455 48.9269L233.321 45.8979L227.299 46.1628L227.243 44.8724L232.724 36.3887L234.588 36.3067L234.942 44.3541L236.555 44.2832L236.619 45.7528L235.006 45.8238L235.139 48.8528ZM232.997 38.5137L229.027 44.6143L233.257 44.4282L232.997 38.5137ZM246.254 48.3639L244.569 48.438L244.436 45.409L238.414 45.6739L238.357 44.3835L243.838 35.8998L245.702 35.8178L246.056 43.8652L247.669 43.7943L247.734 45.264L246.121 45.3349L246.254 48.3639ZM244.111 38.0248L240.141 44.1254L244.371 43.9393L244.111 38.0248ZM251.922 41.6498C251.086 41.6866 250.387 41.448 249.826 40.9339C249.264 40.4079 248.964 39.7028 248.925 38.8186L248.917 38.6394C248.891 38.0539 248.988 37.5349 249.207 37.0823C249.439 36.6291 249.764 36.2677 250.183 35.9978C250.614 35.7274 251.105 35.5802 251.654 35.556C252.216 35.5313 252.717 35.6349 253.159 35.8669C253.6 36.0989 253.95 36.4307 254.208 36.8623C254.478 37.2934 254.626 37.8017 254.652 38.3871L254.66 38.5664C254.699 39.4506 254.462 40.1793 253.948 40.7526C253.434 41.3139 252.759 41.613 251.922 41.6498ZM251.863 40.2876C252.269 40.2698 252.586 40.1242 252.813 39.8508C253.04 39.5774 253.142 39.1719 253.119 38.6342L253.111 38.4549C253.087 37.9172 252.95 37.5222 252.7 37.2699C252.449 37.0175 252.121 36.9003 251.714 36.9181C251.308 36.936 250.991 37.0816 250.764 37.355C250.536 37.6284 250.435 38.0339 250.458 38.5716L250.466 38.7508C250.49 39.2885 250.627 39.6836 250.877 39.9359C251.128 40.1883 251.456 40.3055 251.863 40.2876ZM251.139 48.3286L259.19 35.4041L260.982 35.3253L252.931 48.2497L251.139 48.3286ZM260.467 48.0979C259.63 48.1346 258.931 47.896 258.37 47.382C257.808 46.856 257.508 46.1509 257.469 45.2667L257.461 45.0875C257.435 44.502 257.532 43.983 257.752 43.5303C257.983 43.0772 258.308 42.7157 258.727 42.4459C259.159 42.1755 259.649 42.0282 260.199 42.0041C260.76 41.9793 261.262 42.083 261.703 42.315C262.144 42.547 262.494 42.8788 262.752 43.3104C263.022 43.7414 263.171 44.2497 263.196 44.8352L263.204 45.0144C263.243 45.8986 263.006 46.6274 262.492 47.2007C261.978 47.762 261.303 48.0611 260.467 48.0979ZM260.407 46.7357C260.813 46.7178 261.13 46.5722 261.357 46.2988C261.585 46.0255 261.686 45.6199 261.663 45.0822L261.655 44.903C261.631 44.3653 261.494 43.9703 261.244 43.7179C260.993 43.4656 260.665 43.3483 260.258 43.3662C259.852 43.3841 259.535 43.5297 259.308 43.8031C259.081 44.0765 258.979 44.482 259.002 45.0197L259.01 45.1989C259.034 45.7366 259.171 46.1316 259.421 46.384C259.672 46.6363 260 46.7536 260.407 46.7357Z" fill="#474766"/>
<g filter="url(#filter0_d_2_115)">
<path d="M145.413 40.3111L37.9235 45.0393C34.4924 45.1902 31.8333 48.0941 31.9842 51.5252L33.7044 90.6328C33.8554 94.0639 36.7592 96.723 40.1903 96.5721L147.68 91.8439C151.111 91.6929 153.77 88.7891 153.619 85.358L151.899 46.2504C151.748 42.8193 148.844 40.1602 145.413 40.3111Z" fill="url(#paint0_linear_2_115)"/>
<path d="M44.3908 61.9361L44.1121 55.6003L45.1982 55.5525L45.3149 58.2045L45.9484 58.1766L48.1308 55.4235L49.3617 55.3694L46.8242 58.5009L49.7309 61.7012L48.4094 61.7593L45.9859 59.0274L45.3523 59.0553L45.4769 61.8883L44.3908 61.9361ZM50.5937 61.763C50.5455 61.7651 50.491 61.7645 50.4304 61.7611C50.3761 61.7635 50.3245 61.7597 50.2757 61.7498L50.2304 60.7179C50.2487 60.7232 50.2941 60.7242 50.3665 60.721C50.4993 60.7152 50.6159 60.6859 50.7163 60.6331C50.8165 60.5743 50.8966 60.471 50.9566 60.3232C51.0227 60.1752 51.0707 59.9615 51.1007 59.6821C51.1368 59.4024 51.154 59.0389 51.1525 58.5916C51.1507 58.1382 51.1353 57.5827 51.1064 56.925L51.0347 55.2958L55.4698 55.1007L55.7485 61.4365L54.6623 61.4843L54.425 56.0898L52.1261 56.1909L52.1643 57.0598C52.1991 57.8503 52.2043 58.5181 52.1799 59.0633C52.1555 59.6085 52.1027 60.0582 52.0216 60.4124C51.9462 60.7604 51.8402 61.031 51.7036 61.2245C51.5731 61.4176 51.4128 61.5546 51.2229 61.6355C51.0388 61.7101 50.8291 61.7526 50.5937 61.763ZM57.3752 61.3649L57.0965 55.0292L58.1826 54.9814L58.3857 59.5974L61.2962 54.8444L62.3461 54.7982L62.6248 61.134L61.5387 61.1818L61.3356 56.5657L58.4251 61.3187L57.3752 61.3649ZM64.2519 61.0624L63.9732 54.7267L68.2272 54.5396L68.2686 55.4809L65.1007 55.6202L65.174 57.2856L68.0703 57.1582L68.1117 58.0995L65.2154 58.2269L65.2966 60.0733L68.4645 59.934L68.5059 60.8753L64.2519 61.0624ZM69.8204 60.8175L69.5417 54.4817L70.6279 54.434L70.7425 57.0407L73.8199 56.9053L73.7052 54.2986L74.7914 54.2508L75.07 60.5866L73.9839 60.6343L73.8613 57.8466L70.7839 57.982L70.9065 60.7697L69.8204 60.8175ZM78.1905 60.4493L77.9533 55.0549L75.8263 55.1484L75.7848 54.2071L81.125 53.9722L81.1664 54.9135L79.0394 55.0071L79.2767 60.4015L78.1905 60.4493ZM84.661 60.1647L84.3823 53.8289L89.5414 53.602L89.8201 59.9377L88.734 59.9855L88.4967 54.5911L85.5099 54.7225L85.7471 60.1169L84.661 60.1647ZM91.4493 59.8661L91.1706 53.5303L93.479 53.4288C94.046 53.4039 94.517 53.4678 94.893 53.6205C95.268 53.7672 95.55 53.9876 95.738 54.2816C95.932 54.5754 96.038 54.9274 96.056 55.3377C96.075 55.748 96 56.108 95.832 56.4177C95.67 56.7271 95.409 56.9744 95.048 57.1595C94.687 57.3386 94.223 57.4406 93.656 57.4656L92.434 57.5193L92.535 59.8183L91.4493 59.8661ZM92.393 56.578L93.524 56.5283C94.098 56.503 94.486 56.3983 94.689 56.214C94.893 56.0237 94.986 55.7475 94.97 55.3855C94.955 55.0295 94.837 54.7656 94.618 54.5939C94.399 54.4221 94.003 54.3489 93.43 54.3741L92.298 54.4239L92.393 56.578ZM97.424 59.6033L97.146 53.2675L98.232 53.2197L98.435 57.8358L101.345 53.0828L102.395 53.0366L102.674 59.3723L101.588 59.4201L101.385 54.8041L98.474 59.5571L97.424 59.6033ZM104.301 59.3008L104.022 52.965L105.109 52.9172L105.346 58.3117L107.337 58.2241L107.1 52.8296L108.186 52.7819L108.423 58.1763L110.414 58.0887L110.177 52.6943L111.263 52.6465L111.542 58.9823L104.301 59.3008ZM113.175 58.9104L112.897 52.5746L117.151 52.3875L117.192 53.3288L114.024 53.4682L114.098 55.1336L116.994 55.0062L117.035 55.9475L114.139 56.0749L114.22 57.9213L117.388 57.782L117.429 58.7233L113.175 58.9104ZM118.477 58.777C118.429 58.7791 118.374 58.7785 118.314 58.7751C118.259 58.7775 118.208 58.7737 118.159 58.7637L118.113 57.7319C118.132 57.7372 118.177 57.7382 118.25 57.735C118.382 57.7292 118.499 57.6999 118.599 57.6471C118.7 57.5882 118.78 57.485 118.84 57.3372C118.906 57.1892 118.954 56.9755 118.984 56.6961C119.02 56.4164 119.037 56.0529 119.036 55.6056C119.034 55.1522 119.018 54.5967 118.99 53.939L118.918 52.3098L123.353 52.1147L123.632 58.4505L122.545 58.4982L122.308 53.1038L120.009 53.2049L120.047 54.0738C120.082 54.8643 120.087 55.5321 120.063 56.0773C120.039 56.6225 119.986 57.0722 119.905 57.4264C119.829 57.7743 119.723 58.045 119.587 58.2384C119.456 58.4316 119.296 58.5686 119.106 58.6495C118.922 58.7241 118.712 58.7666 118.477 58.777Z" fill="#474766" fill-opacity="0.33"/>
<path d="M58.7304 87.1026L46.6413 87.6344L46.4839 84.056L50.7151 83.8699L50.3205 74.8998L46.6899 77.7242L46.4984 73.3721L50.128 70.5235L54.5042 70.331L55.0913 83.6774L58.573 83.5242L58.7304 87.1026ZM61.0367 87.0011L60.9006 83.9063L66.3057 79.0174C67.0049 78.3891 67.5701 77.8393 68.0016 77.3682C68.4485 76.8802 68.7598 76.4304 68.9355 76.0189C69.1273 75.6068 69.214 75.1911 69.1956 74.772C69.1708 74.2079 68.9985 73.7794 68.6788 73.4866C68.359 73.1938 67.909 73.0602 67.3287 73.0857C66.5712 73.119 66.0096 73.386 65.644 73.8866C65.2784 74.3872 65.1162 75.1049 65.1573 76.0398L60.8052 76.2312C60.7443 74.845 60.9346 73.6658 61.3764 72.6935C61.8335 71.7044 62.5427 70.9384 63.504 70.3954C64.4645 69.8364 65.6863 69.5242 67.1692 69.459C68.5554 69.398 69.7101 69.5814 70.6334 70.0091C71.572 70.4201 72.2847 71.0186 72.7715 71.8046C73.2582 72.5907 73.525 73.5157 73.5718 74.5795C73.6059 75.3532 73.4612 76.1025 73.1377 76.8273C72.8136 77.536 72.3591 78.2182 71.7743 78.8737C71.2048 79.5125 70.5387 80.1555 69.7758 80.8027L66.9481 83.1558L74.1773 82.8378L74.3347 86.4162L61.0367 87.0011Z" fill="#474766"/>
<path d="M90.2692 86.0006C89.3611 86.0405 88.5776 85.9194 87.9188 85.6371C87.2713 85.3423 86.7625 84.9337 86.3923 84.4113C86.0336 83.8763 85.8395 83.2743 85.8101 82.6052L87.4948 82.5311C87.5216 83.1405 87.7528 83.6331 88.1883 84.009C88.6234 84.373 89.2949 84.535 90.203 84.495C91.1111 84.4551 91.7656 84.2288 92.166 83.8161C92.567 83.3914 92.753 82.8565 92.724 82.2113C92.695 81.5421 92.456 81.0139 92.008 80.6266C91.5716 80.2268 90.9052 80.0466 90.0091 80.086L88.6649 80.1451L88.6018 78.7113L89.946 78.6522C90.8063 78.6143 91.4197 78.4078 91.7863 78.0325C92.152 77.6453 92.321 77.129 92.293 76.4838C92.266 75.8625 92.059 75.3867 91.6734 75.0565C91.2872 74.7143 90.652 74.5627 89.7678 74.6016C88.9195 74.6389 88.3063 74.8514 87.9283 75.2392C87.5617 75.6145 87.3902 76.0709 87.4139 76.6086L85.7291 76.6827C85.7013 76.0495 85.8373 75.4688 86.1374 74.9409C86.4374 74.4129 86.8855 73.9861 87.4817 73.6606C88.0894 73.3226 88.8294 73.1344 89.7016 73.0961C90.5858 73.0572 91.3394 73.1796 91.9625 73.4635C92.597 73.7349 93.081 74.1147 93.413 74.6028C93.758 75.0905 93.943 75.633 93.97 76.2305C94.001 76.9474 93.837 77.5652 93.477 78.0838C93.128 78.59 92.617 78.9597 91.9451 79.1927C92.672 79.3882 93.256 79.7337 93.697 80.2291C94.137 80.7245 94.378 81.4202 94.417 82.3164C94.445 82.9497 94.303 83.5425 93.992 84.0949C93.681 84.6354 93.21 85.0811 92.579 85.4321C91.9591 85.7706 91.1893 85.9601 90.2692 86.0006ZM101.112 85.5236C100.12 85.5673 99.283 85.4544 98.601 85.1851C97.93 84.9034 97.416 84.507 97.058 83.996C96.7 83.473 96.506 82.8829 96.477 82.2258C96.446 81.5088 96.645 80.8596 97.074 80.278C97.503 79.6845 98.154 79.2488 99.028 78.971C98.373 78.7843 97.808 78.444 97.331 77.9502C96.854 77.4564 96.6 76.8451 96.568 76.1162C96.541 75.4949 96.671 74.9264 96.96 74.4109C97.26 73.8949 97.709 73.4801 98.306 73.1665C98.914 72.8405 99.66 72.658 100.544 72.6191C101.44 72.5797 102.2 72.6959 102.822 72.9678C103.444 73.2278 103.922 73.6019 104.254 74.0901C104.599 74.5777 104.785 75.1322 104.812 75.7535C104.844 76.4704 104.644 77.0898 104.212 77.6116C103.792 78.1329 103.259 78.5335 102.613 78.8133C103.522 79.0726 104.208 79.4375 104.672 79.9079C105.148 80.3778 105.403 81.0191 105.439 81.8316C105.468 82.4887 105.327 83.0935 105.016 83.6459C104.704 84.1864 104.221 84.6267 103.566 84.9668C102.922 85.2944 102.104 85.48 101.112 85.5236ZM101.046 84.0181C101.739 83.9876 102.284 83.8679 102.682 83.6588C103.08 83.4498 103.362 83.186 103.527 82.8674C103.692 82.5369 103.766 82.1805 103.749 81.7981C103.72 81.129 103.433 80.5969 102.889 80.2018C102.345 79.8068 101.665 79.5793 100.848 79.5194C100.04 79.6508 99.381 79.9311 98.874 80.3605C98.366 80.7899 98.127 81.3511 98.157 82.0441C98.174 82.4265 98.279 82.775 98.473 83.0897C98.666 83.3925 98.97 83.6306 99.384 83.8039C99.799 83.9772 100.353 84.0486 101.046 84.0181ZM100.793 78.2648C101.505 78.1377 102.081 77.8849 102.519 77.5065C102.957 77.1161 103.161 76.5864 103.132 75.9173C103.105 75.3079 102.881 74.8508 102.461 74.5461C102.052 74.2288 101.435 74.0884 100.611 74.1246C99.774 74.1614 99.166 74.3558 98.787 74.7077C98.406 75.0476 98.23 75.5223 98.257 76.1317C98.286 76.8008 98.536 77.3106 99.006 77.661C99.476 77.9995 100.072 78.2008 100.793 78.2648ZM109.698 78.5016C108.862 78.5384 108.163 78.2998 107.602 77.7857C107.04 77.2598 106.74 76.5547 106.701 75.6705L106.693 75.4912C106.667 74.9058 106.764 74.3867 106.983 73.9341C107.215 73.481 107.54 73.1195 107.959 72.8496C108.39 72.5793 108.881 72.432 109.43 72.4078C109.992 72.3831 110.493 72.4868 110.934 72.7188C111.376 72.9508 111.725 73.2826 111.984 73.7141C112.254 74.1452 112.402 74.6535 112.428 75.239L112.436 75.4182C112.475 76.3024 112.238 77.0311 111.724 77.6044C111.21 78.1658 110.535 78.4648 109.698 78.5016ZM109.638 77.1395C110.045 77.1216 110.362 76.976 110.589 76.7026C110.816 76.4292 110.918 76.0237 110.895 75.486L110.887 75.3068C110.863 74.7691 110.726 74.374 110.475 74.1217C110.225 73.8693 109.896 73.7521 109.49 73.77C109.084 73.7878 108.767 73.9335 108.54 74.2068C108.312 74.4802 108.21 74.8858 108.234 75.4234L108.242 75.6027C108.266 76.1404 108.403 76.5354 108.653 76.7877C108.904 77.0401 109.232 77.1573 109.638 77.1395ZM108.915 85.1804L116.966 72.2559L118.758 72.1771L110.707 85.1016L108.915 85.1804ZM118.243 84.9497C117.406 84.9865 116.707 84.7478 116.146 84.2338C115.584 83.7078 115.284 83.0027 115.245 82.1185L115.237 81.9393C115.211 81.3538 115.308 80.8348 115.528 80.3822C115.759 79.929 116.084 79.5675 116.503 79.2977C116.934 79.0273 117.425 78.8801 117.974 78.8559C118.536 78.8312 119.037 78.9348 119.479 79.1668C119.92 79.3988 120.27 79.7306 120.528 80.1622C120.798 80.5933 120.946 81.1015 120.972 81.687L120.98 81.8662C121.019 82.7504 120.782 83.4792 120.268 84.0525C119.754 84.6138 119.079 84.9129 118.243 84.9497ZM118.183 83.5875C118.589 83.5697 118.906 83.424 119.133 83.1507C119.361 82.8773 119.462 82.4717 119.439 81.934L119.431 81.7548C119.407 81.2171 119.27 80.8221 119.02 80.5698C118.769 80.3174 118.441 80.2001 118.034 80.218C117.628 80.2359 117.311 80.3815 117.084 80.6549C116.856 80.9283 116.755 81.3338 116.778 81.8715L116.786 82.0507C116.81 82.5884 116.947 82.9834 117.197 83.2358C117.448 83.4882 117.776 83.6054 118.183 83.5875Z" fill="#474766"/>
</g>
<path d="M0.175781 162.906C0.175781 152.379 8.7094 143.845 19.2362 143.845H187.216C197.742 143.845 206.276 152.379 206.276 162.906C206.276 173.432 197.742 181.966 187.216 181.966H19.2362C8.7094 181.966 0.175781 173.432 0.175781 162.906Z" fill="url(#paint1_linear_2_115)"/>
<path d="M22.4099 167.106V157.969H30.3727V167.106H28.023V159.901H24.7596V167.106H22.4099ZM31.9392 169.717V160.188H33.7928V161.128C33.9756 160.849 34.2454 160.597 34.6022 160.371C34.9677 160.136 35.4158 160.018 35.9467 160.018C36.9214 160.018 37.6611 160.305 38.1659 160.88C38.6706 161.454 38.923 162.311 38.923 163.451V163.712C38.923 164.496 38.8011 165.153 38.5575 165.684C38.3138 166.206 37.97 166.602 37.5262 166.871C37.0824 167.141 36.5559 167.276 35.9467 167.276C35.5551 167.276 35.1809 167.189 34.8241 167.015C34.476 166.832 34.1844 166.571 33.9495 166.232V169.717H31.9392ZM35.4637 165.618C35.864 165.618 36.1947 165.457 36.4558 165.135C36.7256 164.805 36.8605 164.33 36.8605 163.712V163.451C36.8605 162.851 36.7299 162.407 36.4689 162.12C36.2165 161.824 35.8814 161.676 35.4637 161.676C35.1852 161.676 34.9285 161.737 34.6935 161.859C34.4673 161.972 34.2845 162.146 34.1453 162.381C34.0147 162.616 33.9495 162.907 33.9495 163.256V163.908C33.9495 164.265 34.0147 164.574 34.1453 164.835C34.2845 165.087 34.4673 165.283 34.6935 165.422C34.9285 165.553 35.1852 165.618 35.4637 165.618ZM43.2338 167.276C42.5898 167.276 41.998 167.15 41.4585 166.898C40.9276 166.645 40.5012 166.254 40.1792 165.723C39.8659 165.183 39.7093 164.513 39.7093 163.712V163.451C39.7093 162.703 39.8659 162.076 40.1792 161.572C40.5012 161.058 40.9276 160.671 41.4585 160.41C41.998 160.149 42.5898 160.018 43.2338 160.018C43.8865 160.018 44.4783 160.149 45.0091 160.41C45.54 160.671 45.9621 161.058 46.2754 161.572C46.5974 162.076 46.7583 162.703 46.7583 163.451V163.712C46.7583 164.504 46.5974 165.166 46.2754 165.697C45.9621 166.219 45.54 166.615 45.0091 166.884C44.4783 167.146 43.8865 167.276 43.2338 167.276ZM43.2338 165.605C43.5471 165.605 43.8125 165.531 44.0301 165.383C44.2477 165.227 44.413 165.005 44.5261 164.718C44.6393 164.43 44.6958 164.095 44.6958 163.712V163.451C44.6958 163.103 44.6393 162.799 44.5261 162.538C44.413 162.276 44.2477 162.072 44.0301 161.924C43.8125 161.767 43.5471 161.689 43.2338 161.689C42.9205 161.689 42.6551 161.767 42.4375 161.924C42.22 162.072 42.0546 162.276 41.9415 162.538C41.8283 162.799 41.7718 163.103 41.7718 163.451V163.712C41.7718 164.113 41.8283 164.456 41.9415 164.744C42.0546 165.022 42.22 165.235 42.4375 165.383C42.6551 165.531 42.9205 165.605 43.2338 165.605ZM47.2769 168.738V165.462H48.0079C48.1298 165.279 48.2255 165.057 48.2951 164.796C48.3735 164.526 48.43 164.195 48.4648 163.804C48.4996 163.412 48.517 162.947 48.517 162.407V160.188H54.1955V165.462H54.9787V168.738H53.2817V167.106H48.9739V168.738H47.2769ZM49.9791 165.462H52.1852V161.833H50.3707V162.668C50.3707 163.329 50.3402 163.886 50.2793 164.339C50.2184 164.783 50.1183 165.157 49.9791 165.462ZM56.3563 167.276C56.278 167.276 56.1735 167.272 56.043 167.263C55.9212 167.263 55.8254 167.254 55.7558 167.237V165.475C55.7819 165.483 55.8472 165.488 55.9516 165.488C56.1518 165.488 56.3171 165.405 56.4477 165.24C56.5869 165.074 56.687 164.796 56.7479 164.404C56.8175 164.013 56.8523 163.477 56.8523 162.799V160.188H62.6091V167.106H60.5988V161.833H58.7451V163.06C58.7451 163.921 58.6929 164.631 58.5885 165.187C58.4841 165.744 58.3318 166.175 58.1316 166.48C57.9315 166.776 57.6791 166.985 57.3745 167.106C57.0786 167.22 56.7392 167.276 56.3563 167.276ZM63.9236 167.106V160.188H65.8817V164.365L68.8188 160.188H70.5811V167.106H68.623V162.929L65.6859 167.106H63.9236ZM73.6272 167.106V161.833H71.4995V160.188H77.7653V161.833H75.6375V167.106H73.6272ZM78.8035 167.106V160.188H80.8138V162.433H82.1975C83.1026 162.433 83.7857 162.625 84.247 163.007C84.7082 163.39 84.9388 163.978 84.9388 164.77C84.9388 165.222 84.8474 165.627 84.6647 165.984C84.4819 166.341 84.1904 166.619 83.7901 166.819C83.3898 167.011 82.8589 167.106 82.1975 167.106H78.8035ZM80.8138 165.592H81.9364C82.2932 165.592 82.5456 165.527 82.6935 165.396C82.8502 165.257 82.9285 165.048 82.9285 164.77C82.9285 164.483 82.8502 164.274 82.6935 164.143C82.5456 164.013 82.2932 163.947 81.9364 163.947H80.8138V165.592ZM91.2674 167.276C90.7713 167.276 90.3449 167.18 89.9881 166.989C89.64 166.797 89.3746 166.536 89.1918 166.206C89.0091 165.866 88.9177 165.492 88.9177 165.083C88.9177 164.396 89.1265 163.869 89.5443 163.504C89.9707 163.138 90.6103 162.955 91.4632 162.955H93.421V162.668C93.421 162.25 93.321 161.963 93.121 161.807C92.93 161.65 92.66 161.572 92.312 161.572C91.981 161.572 91.7373 161.624 91.5807 161.728C91.424 161.824 91.337 161.985 91.3196 162.211H89.3093C89.3354 161.793 89.4659 161.419 89.7009 161.089C89.9446 160.758 90.2883 160.497 90.7322 160.305C91.1847 160.114 91.733 160.018 92.377 160.018C92.986 160.018 93.521 160.11 93.983 160.292C94.444 160.475 94.801 160.771 95.053 161.18C95.314 161.58 95.445 162.12 95.445 162.799V165.344C95.445 165.71 95.453 166.032 95.471 166.31C95.488 166.58 95.514 166.845 95.549 167.106H93.63C93.621 166.958 93.608 166.828 93.591 166.715C93.582 166.602 93.578 166.462 93.578 166.297C93.369 166.576 93.078 166.81 92.703 167.002C92.338 167.185 91.8592 167.276 91.2674 167.276ZM91.9201 165.853C92.207 165.853 92.464 165.801 92.69 165.697C92.917 165.592 93.095 165.435 93.225 165.227C93.356 165.009 93.421 164.765 93.421 164.496V164.208H91.8548C91.5589 164.208 91.337 164.287 91.1891 164.443C91.0498 164.6 90.9802 164.778 90.9802 164.979C90.9802 165.24 91.0498 165.453 91.1891 165.618C91.337 165.775 91.5807 165.853 91.9201 165.853ZM100.014 167.276C99.344 167.276 98.74 167.128 98.2 166.832C97.669 166.528 97.251 166.079 96.947 165.488C96.642 164.887 96.49 164.143 96.49 163.256V162.994C96.49 161.959 96.607 161.076 96.842 160.344C97.077 159.605 97.465 159.03 98.004 158.621C98.544 158.212 99.275 157.986 100.197 157.943C100.563 157.925 100.924 157.912 101.281 157.903C101.638 157.895 101.968 157.873 102.273 157.838C102.577 157.795 102.825 157.729 103.017 157.642V159.365C102.93 159.418 102.782 159.466 102.573 159.509C102.373 159.553 102.094 159.587 101.738 159.613C101.389 159.631 100.941 159.648 100.393 159.666C99.888 159.666 99.471 159.74 99.14 159.888C98.818 160.027 98.57 160.249 98.396 160.553C98.23 160.858 98.117 161.263 98.056 161.767C98.187 161.532 98.361 161.324 98.579 161.141C98.805 160.958 99.083 160.814 99.414 160.71C99.753 160.597 100.149 160.54 100.602 160.54C101.176 160.54 101.685 160.653 102.129 160.88C102.573 161.097 102.917 161.428 103.16 161.872C103.413 162.316 103.539 162.877 103.539 163.556V163.791C103.539 164.522 103.382 165.148 103.069 165.67C102.756 166.193 102.334 166.593 101.803 166.871C101.272 167.141 100.676 167.276 100.014 167.276ZM100.014 165.605C100.484 165.605 100.846 165.457 101.098 165.161C101.35 164.857 101.477 164.461 101.477 163.973V163.712C101.477 163.19 101.346 162.79 101.085 162.511C100.824 162.224 100.467 162.081 100.014 162.081C99.571 162.081 99.214 162.224 98.944 162.511C98.683 162.79 98.552 163.19 98.552 163.712V163.921C98.552 164.252 98.613 164.548 98.735 164.809C98.866 165.061 99.04 165.257 99.257 165.396C99.484 165.536 99.736 165.605 100.014 165.605ZM107.853 167.276C107.209 167.276 106.617 167.15 106.078 166.898C105.547 166.645 105.12 166.254 104.798 165.723C104.485 165.183 104.328 164.513 104.328 163.712V163.451C104.328 162.703 104.485 162.076 104.798 161.572C105.12 161.058 105.547 160.671 106.078 160.41C106.617 160.149 107.209 160.018 107.853 160.018C108.506 160.018 109.097 160.149 109.628 160.41C110.159 160.671 110.581 161.058 110.894 161.572C111.216 162.076 111.377 162.703 111.377 163.451V163.712C111.377 164.504 111.216 165.166 110.894 165.697C110.581 166.219 110.159 166.615 109.628 166.884C109.097 167.146 108.506 167.276 107.853 167.276ZM107.853 165.605C108.166 165.605 108.432 165.531 108.649 165.383C108.867 165.227 109.032 165.005 109.145 164.718C109.258 164.43 109.315 164.095 109.315 163.712V163.451C109.315 163.103 109.258 162.799 109.145 162.538C109.032 162.276 108.867 162.072 108.649 161.924C108.432 161.767 108.166 161.689 107.853 161.689C107.54 161.689 107.274 161.767 107.057 161.924C106.839 162.072 106.674 162.276 106.561 162.538C106.447 162.799 106.391 163.103 106.391 163.451V163.712C106.391 164.113 106.447 164.456 106.561 164.744C106.674 165.022 106.839 165.235 107.057 165.383C107.274 165.531 107.54 165.605 107.853 165.605ZM112.417 167.106V160.188H114.427V162.759H117.064V160.188H119.074V167.106H117.064V164.404H114.427V167.106H112.417ZM123.713 167.276C123.034 167.276 122.425 167.15 121.885 166.898C121.346 166.636 120.915 166.24 120.593 165.71C120.28 165.179 120.123 164.513 120.123 163.712V163.451C120.123 162.685 120.275 162.05 120.58 161.545C120.884 161.041 121.298 160.662 121.82 160.41C122.351 160.149 122.938 160.018 123.582 160.018C124.722 160.018 125.584 160.314 126.167 160.906C126.75 161.489 127.042 162.337 127.042 163.451V164.182H122.186C122.203 164.522 122.281 164.805 122.42 165.031C122.568 165.257 122.756 165.422 122.982 165.527C123.208 165.623 123.452 165.67 123.713 165.67C124.096 165.67 124.396 165.614 124.614 165.501C124.84 165.379 124.988 165.218 125.057 165.018H126.911C126.772 165.775 126.428 166.341 125.88 166.715C125.331 167.089 124.609 167.276 123.713 167.276ZM123.648 161.624C123.404 161.624 123.173 161.663 122.956 161.741C122.738 161.82 122.56 161.95 122.42 162.133C122.29 162.307 122.216 162.546 122.199 162.851H125.07C125.07 162.529 125.005 162.281 124.875 162.107C124.744 161.924 124.57 161.798 124.352 161.728C124.144 161.659 123.909 161.624 123.648 161.624ZM128.084 167.106V160.188H130.525L132.17 163.621L133.814 160.188H136.177V167.106H134.271V162.864L132.783 165.801H131.478L129.99 162.864V167.106H128.084ZM140.808 167.276C140.129 167.276 139.52 167.15 138.98 166.898C138.441 166.636 138.01 166.24 137.688 165.71C137.375 165.179 137.218 164.513 137.218 163.712V163.451C137.218 162.685 137.37 162.05 137.675 161.545C137.979 161.041 138.393 160.662 138.915 160.41C139.446 160.149 140.033 160.018 140.677 160.018C141.817 160.018 142.679 160.314 143.262 160.906C143.845 161.489 144.136 162.337 144.136 163.451V164.182H139.28C139.298 164.522 139.376 164.805 139.515 165.031C139.663 165.257 139.85 165.422 140.077 165.527C140.303 165.623 140.547 165.67 140.808 165.67C141.191 165.67 141.491 165.614 141.708 165.501C141.935 165.379 142.083 165.218 142.152 165.018H144.006C143.867 165.775 143.523 166.341 142.975 166.715C142.426 167.089 141.704 167.276 140.808 167.276ZM140.742 161.624C140.499 161.624 140.268 161.663 140.051 161.741C139.833 161.82 139.655 161.95 139.515 162.133C139.385 162.307 139.311 162.546 139.294 162.851H142.165C142.165 162.529 142.1 162.281 141.97 162.107C141.839 161.924 141.665 161.798 141.447 161.728C141.239 161.659 141.004 161.624 140.742 161.624ZM145.179 167.106V160.188H147.189V162.759H149.826V160.188H151.836V167.106H149.826V164.404H147.189V167.106H145.179ZM154.882 167.106V161.833H152.755V160.188H159.02V161.833H156.893V167.106H154.882Z" fill="white"/>
<g filter="url(#filter1_d_2_115)">
<path d="M184.86 174.802C191.389 174.685 196.588 169.298 196.471 162.769C196.354 156.24 190.967 151.041 184.438 151.158C177.909 151.275 172.71 156.662 172.827 163.191C172.944 169.72 178.331 174.919 184.86 174.802Z" fill="#FC9F30" stroke="#FC9F30" stroke-width="1.12609"/>
<path d="M182.296 157.39L188.026 162.919L182.497 168.65" stroke="white" stroke-width="1.12609"/>
</g>
<defs>
<filter id="filter0_d_2_115" x="25.9372" y="37.8176" width="133.729" height="68.355" filterUnits="userSpaceOnUse" color-interpolation-filters="sRGB">
<feFlood flood-opacity="0" result="BackgroundImageFix"/>
<feColorMatrix in="SourceAlpha" type="matrix" values="0 0 0 0 0 0 0 0 0 0 0 0 0 0 0 0 0 0 127 0" result="hardAlpha"/>
<feOffset dy="3.55348"/>
<feGaussianBlur stdDeviation="3.02045"/>
<feComposite in2="hardAlpha" operator="out"/>
<feColorMatrix type="matrix" values="0 0 0 0 0.0745098 0 0 0 0 0.298039 0 0 0 0 0.458824 0 0 0 0.08 0"/>
<feBlend mode="normal" in2="BackgroundImageFix" result="effect1_dropShadow_2_115"/>
<feBlend mode="normal" in="SourceGraphic" in2="effect1_dropShadow_2_115" result="shape"/>
</filter>
<filter id="filter1_d_2_115" x="150.262" y="128.593" width="68.774" height="68.774" filterUnits="userSpaceOnUse" color-interpolation-filters="sRGB">
<feFlood flood-opacity="0" result="BackgroundImageFix"/>
<feColorMatrix in="SourceAlpha" type="matrix" values="0 0 0 0 0 0 0 0 0 0 0 0 0 0 0 0 0 0 127 0" result="hardAlpha"/>
<feOffset/>
<feGaussianBlur stdDeviation="11"/>
<feComposite in2="hardAlpha" operator="out"/>
<feColorMatrix type="matrix" values="0 0 0 0 0.117647 0 0 0 0 0.627451 0 0 0 0 0.870588 0 0 0 0.15 0"/>
<feBlend mode="normal" in2="BackgroundImageFix" result="effect1_dropShadow_2_115"/>
<feBlend mode="normal" in="SourceGraphic" in2="effect1_dropShadow_2_115" result="shape"/>
</filter>
<linearGradient id="paint0_linear_2_115" x1="91.6686" y1="42.6752" x2="93.9354" y2="94.208" gradientUnits="userSpaceOnUse">
<stop stop-color="#EEF1FF"/>
<stop offset="1" stop-color="#EEF8FF"/>
</linearGradient>
<linearGradient id="paint1_linear_2_115" x1="-52.0163" y1="148.489" x2="191.872" y2="208.412" gradientUnits="userSpaceOnUse">
<stop stop-color="#FA9D2F"/>
<stop offset="0.73888" stop-color="#F28309"/>
<stop offset="0.885" stop-color="#F17E01"/>
</linearGradient>
</defs>
</svg>
