<svg width="398" height="149" viewBox="0 0 398 149" fill="none" xmlns="http://www.w3.org/2000/svg">
<path opacity="0.3" d="M339.942 -71.9841C351.971 -59.6327 360.739 -44.4826 365.455 -27.8988H397.739V28.858H365.455C360.745 45.4554 351.977 60.6191 339.942 72.9812L356.112 100.972L306.977 129.341L290.845 101.35C274.117 105.569 256.603 105.569 239.875 101.35L223.724 129.341L174.589 100.972L190.759 72.9812C178.724 60.6191 169.956 45.4554 165.246 28.858H132.962V-27.8799H165.246C169.956 -44.4772 178.724 -59.6409 190.759 -72.003L174.57 -99.9748L223.686 -128.344H223.743L239.894 -100.391C256.622 -104.61 274.136 -104.61 290.863 -100.391L306.958 -128.344H306.996L356.131 -99.9748L339.961 -71.9841H339.942ZM322.088 0.489075C322.088 -14.5588 316.111 -28.9903 305.47 -39.6307C294.83 -50.2711 280.398 -56.2488 265.35 -56.2488C250.302 -56.2488 235.871 -50.2711 225.231 -39.6307C214.59 -28.9903 208.612 -14.5588 208.612 0.489075C208.612 15.5369 214.59 29.9684 225.231 40.6088C235.871 51.2492 250.302 57.227 265.35 57.227C280.398 57.227 294.83 51.2492 305.47 40.6088C316.111 29.9684 322.088 15.5369 322.088 0.489075Z" fill="white"/>
<path opacity="0.3" d="M109.513 80.8379C115.835 87.329 120.443 95.291 122.921 104.006H139.888V133.834H122.921C120.446 142.557 115.838 150.526 109.513 157.023L118.011 171.733L92.1889 186.642L83.7106 171.932C74.9195 174.149 65.7154 174.149 56.9242 171.932L48.436 186.642L22.6137 171.733L31.1118 157.023C24.7871 150.526 20.1791 142.557 17.7037 133.834H0.737305V104.016H17.7037C20.1791 95.2938 24.7871 87.3247 31.1118 80.8279L22.6038 66.1277L48.4162 51.2188H48.446L56.9341 65.909C65.7253 63.6918 74.9294 63.6918 83.7206 65.909L92.1789 51.2188H92.1988L118.021 66.1277L109.523 80.8379H109.513ZM100.13 118.925C100.13 111.017 96.9888 103.433 91.3969 97.8408C85.805 92.2489 78.2206 89.1074 70.3124 89.1074C62.4042 89.1074 54.8199 92.2489 49.228 97.8408C43.636 103.433 40.4945 111.017 40.4945 118.925C40.4945 126.833 43.636 134.418 49.228 140.01C54.8199 145.602 62.4042 148.743 70.3124 148.743C78.2206 148.743 85.805 145.602 91.3969 140.01C96.9888 134.418 100.13 126.833 100.13 118.925Z" fill="white"/>
</svg>
