<svg width="489" height="201" viewBox="0 0 489 201" fill="none" xmlns="http://www.w3.org/2000/svg">
<path d="M212.938 50.028L96.9675 55.1292C93.5363 55.2802 90.8772 58.184 91.0282 61.6151L92.6987 99.5926C92.8496 103.024 95.7534 105.683 99.1845 105.532L215.155 100.431C218.586 100.28 221.245 97.3759 221.095 93.9448L219.424 55.9672C219.273 52.5361 216.369 49.877 212.938 50.028Z" fill="#F3F5F9"/>
<path d="M103.404 71.351L103.126 65.0152L104.212 64.9675L104.329 67.6194L104.962 67.5916L107.144 64.8385L108.375 64.7843L105.838 67.9158L108.745 71.1161L107.423 71.1742L105 68.4424L104.366 68.4702L104.491 71.3032L103.404 71.351ZM109.607 71.1779C109.559 71.18 109.505 71.1794 109.444 71.176C109.39 71.1784 109.338 71.1746 109.289 71.1647L109.244 70.1329C109.262 70.1381 109.308 70.1391 109.38 70.1359C109.513 70.1301 109.63 70.1008 109.73 70.048C109.83 69.9892 109.91 69.8859 109.97 69.7382C110.036 69.5902 110.084 69.3764 110.114 69.097C110.15 68.8173 110.168 68.4538 110.166 68.0065C110.164 67.5532 110.149 66.9976 110.12 66.3399L110.048 64.7107L114.483 64.5156L114.762 70.8514L113.676 70.8992L113.439 65.5047L111.14 65.6059L111.178 66.4748C111.213 67.2652 111.218 67.933 111.194 68.4782C111.169 69.0234 111.116 69.4731 111.035 69.8273C110.96 70.1753 110.854 70.4459 110.717 70.6394C110.587 70.8325 110.426 70.9696 110.237 71.0505C110.052 71.1251 109.843 71.1675 109.607 71.1779ZM116.389 70.7798L116.11 64.4441L117.196 64.3963L117.399 69.0124L120.31 64.2593L121.36 64.2132L121.638 70.5489L120.552 70.5967L120.349 65.9806L117.439 70.7337L116.389 70.7798ZM123.266 70.4773L122.987 64.1416L127.241 63.9545L127.282 64.8958L124.114 65.0351L124.188 66.7005L127.084 66.5731L127.125 67.5144L124.229 67.6418L124.31 69.4883L127.478 69.3489L127.52 70.2902L123.266 70.4773ZM128.834 70.2324L128.555 63.8966L129.642 63.8489L129.756 66.4556L132.834 66.3202L132.719 63.7135L133.805 63.6657L134.084 70.0015L132.998 70.0493L132.875 67.2615L129.798 67.3969L129.92 70.1846L128.834 70.2324ZM137.204 69.8642L136.967 64.4698L134.84 64.5633L134.799 63.622L140.139 63.3871L140.18 64.3284L138.053 64.422L138.29 69.8164L137.204 69.8642ZM145.806 69.5856C145.281 69.6087 144.828 69.544 144.446 69.3915C144.071 69.2387 143.777 69.0189 143.565 68.732C143.352 68.439 143.225 68.094 143.184 67.6968L144.324 67.6466C144.357 67.8507 144.435 68.0287 144.556 68.1805C144.678 68.3324 144.84 68.4492 145.043 68.5309C145.246 68.6066 145.486 68.6384 145.764 68.6262C146.241 68.6052 146.587 68.5053 146.803 68.3266C147.025 68.1475 147.129 67.9011 147.115 67.5874C147.106 67.3822 147.05 67.2093 146.947 67.0688C146.844 66.9282 146.688 66.8232 146.48 66.7538C146.277 66.6781 146.009 66.6475 145.677 66.6621L144.908 66.6959L144.87 65.827L145.639 65.7932C146.025 65.7762 146.312 65.685 146.498 65.5196C146.69 65.348 146.78 65.1233 146.767 64.8458C146.755 64.5742 146.653 64.3642 146.459 64.2155C146.27 64.0605 145.971 63.9921 145.561 64.0101C145.295 64.0218 145.074 64.0678 144.896 64.1482C144.718 64.2225 144.583 64.3312 144.493 64.4743C144.408 64.611 144.358 64.7764 144.343 64.9706L143.202 65.0207C143.219 64.4517 143.417 63.9896 143.794 63.6344C144.171 63.2793 144.746 63.0847 145.519 63.0507C146.291 63.0167 146.874 63.1513 147.268 63.4544C147.669 63.7572 147.881 64.1892 147.906 64.7504C147.92 65.0822 147.839 65.3669 147.662 65.6045C147.485 65.8359 147.242 66.0099 146.933 66.1263C147.323 66.1998 147.635 66.3583 147.869 66.602C148.11 66.8453 148.239 67.1721 148.257 67.5824C148.273 67.9505 148.191 68.2836 148.011 68.5818C147.836 68.8736 147.566 69.1092 147.199 69.2886C146.831 69.4619 146.367 69.5609 145.806 69.5856ZM148.75 69.3564L150.87 62.9151L151.956 62.8673L154.633 69.0976L153.475 69.1485L152.878 67.7419L150.307 67.855L149.836 69.3086L148.75 69.3564ZM150.619 66.8982L152.483 66.8162L151.445 64.2501L150.619 66.8982ZM155.581 69.0559L155.302 62.7201L160.461 62.4932L160.74 68.8289L159.654 68.8767L159.416 63.4823L156.43 63.6137L156.667 69.0081L155.581 69.0559ZM162.369 68.7573L162.09 62.4215L163.176 62.3737L163.38 66.9898L166.29 62.2368L167.34 62.1906L167.619 68.5264L166.533 68.5741L166.33 63.9581L163.419 68.7111L162.369 68.7573ZM171.694 68.4469C171.175 68.4697 170.703 68.3816 170.277 68.1827C169.851 67.9778 169.503 67.6454 169.235 67.1857C168.973 66.7196 168.825 66.1064 168.792 65.3461L168.784 65.1651C168.76 64.616 168.811 64.1421 168.939 63.7436C169.066 63.3389 169.248 63.0045 169.484 62.7402C169.726 62.4756 170.011 62.2757 170.337 62.1404C170.67 62.0048 171.026 61.9287 171.406 61.912C171.756 61.8966 172.084 61.9275 172.39 62.0047C172.695 62.076 172.967 62.194 173.204 62.3589C173.441 62.5238 173.634 62.7329 173.784 62.9863C173.935 63.2397 174.032 63.5407 174.078 63.8893L172.938 63.9395C172.842 63.5507 172.66 63.2715 172.393 63.1019C172.131 62.932 171.817 62.8552 171.449 62.8714C171.183 62.8831 170.93 62.9637 170.688 63.1134C170.447 63.257 170.252 63.4893 170.102 63.8103C169.959 64.1309 169.9 64.5658 169.924 65.1149L169.932 65.2959C169.951 65.7304 170.015 66.0933 170.125 66.3848C170.234 66.6701 170.371 66.8939 170.535 67.0559C170.706 67.2177 170.886 67.3337 171.077 67.4039C171.273 67.4678 171.465 67.4957 171.652 67.4874C172.086 67.4683 172.417 67.354 172.643 67.1446C172.876 66.9288 173.008 66.6449 173.041 66.2928L174.182 66.2426C174.162 66.6183 174.085 66.9421 173.952 67.2139C173.825 67.4856 173.648 67.711 173.42 67.8903C173.198 68.0633 172.94 68.1955 172.648 68.287C172.356 68.3784 172.038 68.4317 171.694 68.4469ZM174.639 68.2175L176.759 61.7763L177.845 61.7285L180.522 67.9588L179.364 68.0097L178.767 66.6031L176.197 66.7162L175.725 68.1698L174.639 68.2175ZM176.508 65.7594L178.373 65.6774L177.335 63.1113L176.508 65.7594ZM181.47 67.9171L181.191 61.5813L182.277 61.5335L182.392 64.1403L185.469 64.0049L185.355 61.3982L186.441 61.3504L186.72 67.6862L185.634 67.7339L185.511 64.9462L182.434 65.0816L182.556 67.8693L181.47 67.9171Z" fill="#474766" fill-opacity="0.33"/>
<path d="M116.634 96.5672L112.282 96.7587L112.137 93.4704L104.811 93.7927L104.68 90.8188L111.827 79.8212L115.889 79.6425L116.332 89.7006L118.169 89.6198L118.327 93.1982L116.489 93.279L116.634 96.5672ZM111.749 84.6454L108.522 90.0442L111.98 89.8921L111.749 84.6454ZM127.199 96.4174C125.813 96.4784 124.603 96.3297 123.57 95.9714C122.536 95.597 121.728 95.0511 121.148 94.3338C120.566 93.6003 120.253 92.7178 120.208 91.6862C120.167 90.7513 120.412 89.9007 120.943 89.1344C121.475 88.3681 122.29 87.8155 123.39 87.4764C122.539 87.2231 121.825 86.7862 121.249 86.1655C120.688 85.5442 120.388 84.766 120.347 83.8312C120.306 82.8963 120.511 82.0716 120.965 81.3573C121.433 80.626 122.126 80.0465 123.044 79.6185C123.977 79.1737 125.105 78.9222 126.427 78.8641C127.764 78.8052 128.91 78.9567 129.862 79.3186C130.814 79.6643 131.548 80.1811 132.062 80.8691C132.593 81.5402 132.878 82.3432 132.919 83.2781C132.96 84.1969 132.728 84.9903 132.225 85.6585C131.721 86.3266 131.049 86.8326 130.208 87.1765C131.334 87.4499 132.195 87.9208 132.79 88.5891C133.384 89.2574 133.703 90.0912 133.747 91.0906C133.793 92.1222 133.558 93.0288 133.043 93.8105C132.528 94.5761 131.772 95.1907 130.775 95.6545C129.777 96.1021 128.585 96.3565 127.199 96.4174ZM127.052 93.0808C127.632 93.0553 128.113 92.9615 128.493 92.7994C128.889 92.6205 129.177 92.3817 129.358 92.0831C129.554 91.7676 129.643 91.4084 129.625 91.0054C129.596 90.3284 129.307 89.8243 128.759 89.4931C128.227 89.1451 127.596 88.9225 126.865 88.8255C126.161 88.9856 125.552 89.2708 125.037 89.6811C124.522 90.0752 124.278 90.5946 124.306 91.2394C124.324 91.6424 124.444 91.9924 124.667 92.2894C124.906 92.5696 125.222 92.7818 125.616 92.926C126.025 93.0533 126.504 93.1049 127.052 93.0808ZM126.739 85.9725C127.347 85.8327 127.853 85.6004 128.259 85.2758C128.665 84.9511 128.854 84.4825 128.827 83.8699C128.802 83.2897 128.589 82.863 128.189 82.5899C127.789 82.3006 127.25 82.1709 126.573 82.2007C125.896 82.2304 125.371 82.3989 124.997 82.7061C124.623 83.0132 124.449 83.465 124.475 84.0614C124.502 84.6739 124.74 85.1237 125.188 85.4108C125.636 85.6818 126.153 85.869 126.739 85.9725Z" fill="#474766"/>
<path d="M152.734 95.0856L151.049 95.1597L150.916 92.1308L144.894 92.3957L144.837 91.1052L150.318 82.6216L152.182 82.5396L152.536 90.587L154.149 90.516L154.214 91.9857L152.601 92.0567L152.734 95.0856ZM150.591 84.7465L146.622 90.8471L150.852 90.6611L150.591 84.7465ZM163.848 94.5967L162.164 94.6708L162.03 91.6419L156.008 91.9068L155.952 90.6163L161.433 82.1327L163.297 82.0507L163.651 90.0981L165.264 90.0271L165.328 91.4968L163.715 91.5678L163.848 94.5967ZM161.706 84.2576L157.736 90.3582L161.966 90.1722L161.706 84.2576ZM169.517 87.8826C168.681 87.9194 167.982 87.6808 167.421 87.1668C166.859 86.6408 166.558 85.9357 166.519 85.0515L166.512 84.8723C166.486 84.2868 166.583 83.7677 166.802 83.3151C167.034 82.862 167.359 82.5005 167.778 82.2307C168.209 81.9603 168.699 81.813 169.249 81.7888C169.811 81.7641 170.312 81.8678 170.753 82.0998C171.194 82.3318 171.544 82.6636 171.803 83.0952C172.073 83.5262 172.221 84.0345 172.247 84.62L172.255 84.7992C172.294 85.6834 172.056 86.4122 171.543 86.9854C171.029 87.5468 170.354 87.8459 169.517 87.8826ZM169.457 86.5205C169.864 86.5026 170.18 86.357 170.408 86.0836C170.635 85.8102 170.737 85.4047 170.713 84.867L170.706 84.6878C170.682 84.1501 170.545 83.7551 170.294 83.5027C170.044 83.2504 169.715 83.1331 169.309 83.151C168.903 83.1689 168.586 83.3145 168.359 83.5879C168.131 83.8612 168.029 84.2668 168.053 84.8045L168.061 84.9837C168.084 85.5214 168.222 85.9164 168.472 86.1688C168.723 86.4211 169.051 86.5384 169.457 86.5205ZM168.734 94.5614L176.785 81.6369L178.577 81.5581L170.526 94.4826L168.734 94.5614ZM178.061 94.3307C177.225 94.3675 176.526 94.1289 175.965 93.6148C175.403 93.0888 175.102 92.3838 175.064 91.4996L175.056 91.3203C175.03 90.7348 175.127 90.2158 175.346 89.7632C175.578 89.3101 175.903 88.9486 176.322 88.6787C176.753 88.4084 177.244 88.2611 177.793 88.2369C178.355 88.2122 178.856 88.3158 179.297 88.5478C179.739 88.7798 180.088 89.1116 180.347 89.5432C180.617 89.9743 180.765 90.4826 180.791 91.068L180.799 91.2473C180.838 92.1315 180.6 92.8602 180.087 93.4335C179.573 93.9948 178.898 94.2939 178.061 94.3307ZM178.001 92.9686C178.408 92.9507 178.724 92.8051 178.952 92.5317C179.179 92.2583 179.281 91.8528 179.258 91.3151L179.25 91.1358C179.226 90.5982 179.089 90.2031 178.838 89.9508C178.588 89.6984 178.259 89.5812 177.853 89.599C177.447 89.6169 177.13 89.7625 176.903 90.0359C176.675 90.3093 176.573 90.7148 176.597 91.2525L176.605 91.4318C176.629 91.9694 176.766 92.3645 177.016 92.6168C177.267 92.8692 177.595 92.9864 178.001 92.9686Z" fill="#474766"/>
<g filter="url(#filter0_d_1_2)">
<path d="M150.922 4.19271L43.4323 8.92093C40.0012 9.07186 37.3421 11.9757 37.493 15.4068L39.2133 54.5144C39.3642 57.9455 42.268 60.6046 45.6991 60.4537L153.189 55.7255C156.62 55.5745 159.279 52.6707 159.128 49.2396L157.408 10.132C157.257 6.70089 154.353 4.04178 150.922 4.19271Z" fill="url(#paint0_linear_1_2)"/>
<path d="M49.8996 25.8177L49.6209 19.4819L50.707 19.4341L50.8236 22.0861L51.4572 22.0582L53.6395 19.3051L54.8705 19.251L52.333 22.3825L55.2397 25.5828L53.9182 25.6409L51.4946 22.909L50.8611 22.9369L50.9857 25.7699L49.8996 25.8177ZM56.1025 25.6446C56.0542 25.6467 55.9998 25.6461 55.9392 25.6427C55.8849 25.6451 55.8333 25.6413 55.7845 25.6313L55.7391 24.5995C55.7575 24.6048 55.8029 24.6058 55.8753 24.6026C56.0081 24.5968 56.1247 24.5675 56.2251 24.5147C56.3253 24.4559 56.4054 24.3526 56.4654 24.2048C56.5314 24.0568 56.5795 23.8431 56.6095 23.5637C56.6456 23.284 56.6628 22.9205 56.6613 22.4732C56.6595 22.0198 56.6441 21.4643 56.6152 20.8066L56.5435 19.1774L60.9786 18.9823L61.2572 25.3181L60.1711 25.3658L59.9338 19.9714L57.6349 20.0725L57.6731 20.9414C57.7078 21.7319 57.713 22.3997 57.6887 22.9449C57.6643 23.4901 57.6115 23.9398 57.5304 24.294C57.455 24.6419 57.349 24.9126 57.2124 25.106C57.0818 25.2992 56.9216 25.4362 56.7317 25.5171C56.5476 25.5917 56.3378 25.6342 56.1025 25.6446ZM62.884 25.2465L62.6053 18.9108L63.6914 18.863L63.8945 23.479L66.805 18.726L67.8549 18.6798L68.1336 25.0156L67.0475 25.0634L66.8444 20.4473L63.9339 25.2003L62.884 25.2465ZM69.7607 24.944L69.482 18.6083L73.736 18.4211L73.7774 19.3625L70.6095 19.5018L70.6828 21.1672L73.5791 21.0398L73.6205 21.9811L70.7242 22.1085L70.8054 23.9549L73.9733 23.8156L74.0147 24.7569L69.7607 24.944ZM75.3292 24.6991L75.0505 18.3633L76.1366 18.3155L76.2513 20.9223L79.3287 20.7869L79.214 18.1802L80.3001 18.1324L80.5788 24.4682L79.4927 24.5159L79.3701 21.7282L76.2927 21.8636L76.4153 24.6513L75.3292 24.6991ZM83.6993 24.3309L83.462 18.9365L81.335 19.03L81.2936 18.0887L86.6338 17.8538L86.6752 18.7951L84.5482 18.8887L84.7855 24.2831L83.6993 24.3309ZM90.1698 24.0463L89.8911 17.7105L95.0502 17.4836L95.3289 23.8193L94.2428 23.8671L94.0055 18.4727L91.0186 18.6041L91.2559 23.9985L90.1698 24.0463ZM96.9581 23.7477L96.6794 17.4119L98.9874 17.3104C99.5546 17.2854 100.026 17.3494 100.402 17.5021C100.777 17.6488 101.059 17.8692 101.247 18.1632C101.441 18.457 101.547 18.809 101.565 19.2193C101.583 19.6296 101.508 19.9896 101.341 20.2993C101.179 20.6087 100.918 20.8559 100.557 21.0411C100.196 21.2202 99.7322 21.3222 99.165 21.3472L97.9431 21.4009L98.0442 23.6999L96.9581 23.7477ZM97.9017 20.4596L99.0331 20.4098C99.6063 20.3846 99.9947 20.2799 100.198 20.0956C100.401 19.9053 100.495 19.6291 100.479 19.2671C100.463 18.9111 100.346 18.6472 100.127 18.4755C99.9078 18.3037 99.5116 18.2305 98.9383 18.2557L97.807 18.3055L97.9017 20.4596ZM102.933 23.4848L102.655 17.1491L103.741 17.1013L103.944 21.7174L106.854 16.9644L107.904 16.9182L108.183 23.2539L107.097 23.3017L106.894 18.6857L103.983 23.4387L102.933 23.4848ZM109.81 23.1824L109.531 16.8466L110.617 16.7988L110.855 22.1933L112.846 22.1057L112.609 16.7112L113.695 16.6635L113.932 22.0579L115.923 21.9703L115.686 16.5759L116.772 16.5281L117.051 22.8638L109.81 23.1824ZM118.684 22.792L118.406 16.4562L122.66 16.2691L122.701 17.2104L119.533 17.3498L119.606 19.0152L122.503 18.8878L122.544 19.8291L119.648 19.9565L119.729 21.8029L122.897 21.6636L122.938 22.6049L118.684 22.792ZM123.986 22.6586C123.937 22.6607 123.883 22.6601 123.822 22.6567C123.768 22.6591 123.716 22.6553 123.668 22.6453L123.622 21.6135C123.641 21.6188 123.686 21.6198 123.758 21.6166C123.891 21.6108 124.008 21.5814 124.108 21.5287C124.208 21.4698 124.289 21.3666 124.349 21.2188C124.415 21.0708 124.463 20.8571 124.493 20.5777C124.529 20.298 124.546 19.9345 124.544 19.4872C124.543 19.0338 124.527 18.4783 124.498 17.8206L124.427 16.1914L128.862 15.9963L129.14 22.3321L128.054 22.3798L127.817 16.9854L125.518 17.0865L125.556 17.9554C125.591 18.7459 125.596 19.4137 125.572 19.9589C125.547 20.5041 125.495 20.9538 125.413 21.308C125.338 21.6559 125.232 21.9266 125.096 22.12C124.965 22.3132 124.805 22.4502 124.615 22.5311C124.431 22.6057 124.221 22.6482 123.986 22.6586Z" fill="#474766" fill-opacity="0.33"/>
<path d="M64.2401 50.9843L52.151 51.516L51.9936 47.9376L56.2248 47.7515L55.8302 38.7814L52.1996 41.6059L52.0082 37.2538L55.6377 34.4052L60.014 34.2127L60.6011 47.559L64.0827 47.4059L64.2401 50.9843ZM66.5465 50.8828L66.4104 47.788L71.8155 42.899C72.5146 42.2707 73.0799 41.721 73.5114 41.2498C73.9583 40.7618 74.2696 40.3121 74.4453 39.9006C74.6371 39.4884 74.7238 39.0728 74.7053 38.6537C74.6805 38.0895 74.5082 37.6611 74.1885 37.3683C73.8688 37.0755 73.4188 36.9419 72.8385 36.9674C72.0809 37.0007 71.5193 37.2677 71.1538 37.7682C70.7882 38.2688 70.626 38.9865 70.6671 39.9214L66.315 40.1129C66.254 38.7267 66.4444 37.5474 66.8861 36.5751C67.3433 35.586 68.0525 34.82 69.0138 34.2771C69.9743 33.718 71.1961 33.4059 72.679 33.3406C74.0652 33.2797 75.2199 33.4631 76.1431 33.8908C77.0818 34.3017 77.7945 34.9002 78.2812 35.6863C78.768 36.4724 79.0348 37.3973 79.0816 38.4612C79.1156 39.2349 78.9709 39.9841 78.6475 40.709C78.3234 41.4177 77.8689 42.0998 77.284 42.7554C76.7146 43.3941 76.0484 44.0371 75.2855 44.6844L72.4578 47.0375L79.6871 46.7195L79.8445 50.2979L66.5465 50.8828Z" fill="#474766"/>
<path d="M95.7771 49.8822C94.869 49.9222 94.0855 49.801 93.4266 49.5187C92.7791 49.224 92.2703 48.8154 91.9001 48.2929C91.5414 47.758 91.3473 47.156 91.3179 46.4869L93.0026 46.4127C93.0294 47.0221 93.2606 47.5148 93.6962 47.8907C94.1312 48.2546 94.8027 48.4166 95.7108 48.3767C96.6189 48.3368 97.2734 48.1104 97.6743 47.6977C98.0746 47.2731 98.2606 46.7381 98.2322 46.0929C98.2027 45.4238 97.964 44.8956 97.516 44.5082C97.0794 44.1084 96.413 43.9282 95.5169 43.9677L94.1727 44.0268L94.1096 42.593L95.4538 42.5338C96.3141 42.496 96.9276 42.2894 97.2941 41.9141C97.6602 41.5269 97.8291 41.0107 97.8007 40.3655C97.7733 39.7441 97.5668 39.2684 97.1812 38.9381C96.795 38.596 96.1598 38.4443 95.2756 38.4832C94.4273 38.5206 93.8141 38.7331 93.4361 39.1208C93.0695 39.4961 92.898 39.9526 92.9217 40.4903L91.2369 40.5644C91.2091 39.9311 91.3452 39.3505 91.6452 38.8225C91.9452 38.2945 92.3933 37.8678 92.9895 37.5423C93.5972 37.2043 94.3372 37.0161 95.2094 36.9777C96.0936 36.9388 96.8472 37.0613 97.4703 37.3452C98.1047 37.6165 98.5884 37.9963 98.9211 38.4845C99.2658 38.9722 99.4513 39.5147 99.4775 40.1121C99.5091 40.829 99.3447 41.4468 98.9844 41.9655C98.6356 42.4717 98.1251 42.8413 97.4529 43.0744C98.1798 43.2699 98.7637 43.6153 99.2045 44.1107C99.6453 44.6061 99.8854 45.3019 99.9248 46.198C99.9527 46.8313 99.8112 47.4242 99.5002 47.9766C99.1888 48.517 98.7176 48.9627 98.0865 49.3137C97.4669 49.6523 96.6971 49.8418 95.7771 49.8822ZM106.62 49.4053C105.628 49.4489 104.791 49.3361 104.109 49.0668C103.438 48.785 102.924 48.3887 102.566 47.8776C102.208 47.3547 102.014 46.7646 101.985 46.1074C101.954 45.3905 102.153 44.7413 102.582 44.1597C103.011 43.5662 103.662 43.1305 104.536 42.8526C103.881 42.6659 103.315 42.3257 102.839 41.8319C102.362 41.338 102.108 40.7267 102.076 39.9978C102.048 39.3765 102.179 38.8081 102.468 38.2926C102.768 37.7766 103.217 37.3617 103.814 37.0482C104.422 36.7221 105.168 36.5397 106.052 36.5008C106.948 36.4613 107.708 36.5776 108.33 36.8495C108.952 37.1095 109.429 37.4835 109.762 37.9717C110.107 38.4594 110.293 39.0139 110.32 39.6352C110.352 40.3521 110.152 40.9715 109.72 41.4933C109.3 42.0146 108.766 42.4151 108.12 42.695C109.03 42.9543 109.716 43.3191 110.18 43.7896C110.655 44.2595 110.911 44.9007 110.947 45.7132C110.976 46.3704 110.835 46.9752 110.524 47.5276C110.212 48.068 109.729 48.5083 109.073 48.8484C108.429 49.176 107.611 49.3617 106.62 49.4053ZM106.554 47.8998C107.247 47.8693 107.792 47.7495 108.19 47.5405C108.588 47.3314 108.869 47.0676 109.035 46.7491C109.2 46.4186 109.274 46.0621 109.257 45.6798C109.228 45.0107 108.941 44.4786 108.397 44.0835C107.853 43.6884 107.172 43.4609 106.356 43.4011C105.547 43.5324 104.889 43.8128 104.381 44.2422C103.873 44.6715 103.635 45.2327 103.665 45.9258C103.682 46.3081 103.787 46.6567 103.981 46.9714C104.174 47.2742 104.477 47.5122 104.892 47.6855C105.307 47.8588 105.86 47.9302 106.554 47.8998ZM106.3 42.1465C107.013 42.0194 107.589 41.7666 108.027 41.3882C108.465 40.9978 108.669 40.468 108.639 39.7989C108.613 39.1895 108.389 38.7325 107.969 38.4277C107.56 38.1105 106.943 37.97 106.118 38.0063C105.282 38.0431 104.674 38.2374 104.294 38.5893C103.914 38.9293 103.738 39.404 103.764 40.0133C103.794 40.6825 104.044 41.1922 104.514 41.5427C104.984 41.8812 105.579 42.0824 106.3 42.1465ZM115.206 42.3833C114.37 42.4201 113.671 42.1814 113.11 41.6674C112.548 41.1414 112.247 40.4363 112.208 39.5521L112.201 39.3729C112.175 38.7874 112.272 38.2684 112.491 37.8158C112.723 37.3626 113.048 37.0011 113.467 36.7313C113.898 36.4609 114.389 36.3136 114.938 36.2895C115.5 36.2648 116.001 36.3684 116.442 36.6004C116.883 36.8324 117.233 37.1642 117.492 37.5958C117.762 38.0269 117.91 38.5351 117.936 39.1206L117.944 39.2998C117.983 40.184 117.745 40.9128 117.232 41.4861C116.718 42.0474 116.043 42.3465 115.206 42.3833ZM115.146 41.0211C115.553 41.0033 115.869 40.8576 116.097 40.5842C116.324 40.3109 116.426 39.9053 116.402 39.3676L116.395 39.1884C116.371 38.6507 116.234 38.2557 115.983 38.0033C115.733 37.751 115.404 37.6337 114.998 37.6516C114.592 37.6695 114.275 37.8151 114.048 38.0885C113.82 38.3619 113.718 38.7674 113.742 39.3051L113.75 39.4843C113.773 40.022 113.911 40.417 114.161 40.6694C114.412 40.9217 114.74 41.039 115.146 41.0211ZM114.423 49.0621L122.474 36.1376L124.266 36.0587L116.215 48.9832L114.423 49.0621ZM123.75 48.8313C122.914 48.8681 122.215 48.6295 121.654 48.1155C121.092 47.5895 120.791 46.8844 120.753 46.0002L120.745 45.821C120.719 45.2355 120.816 44.7164 121.035 44.2638C121.267 43.8107 121.592 43.4492 122.011 43.1793C122.442 42.909 122.933 42.7617 123.482 42.7375C124.044 42.7128 124.545 42.8165 124.986 43.0485C125.428 43.2805 125.777 43.6123 126.036 44.0439C126.306 44.4749 126.454 44.9832 126.48 45.5687L126.488 45.7479C126.527 46.6321 126.29 47.3608 125.776 47.9341C125.262 48.4955 124.587 48.7945 123.75 48.8313ZM123.69 47.4692C124.097 47.4513 124.413 47.3057 124.641 47.0323C124.868 46.7589 124.97 46.3534 124.947 45.8157L124.939 45.6365C124.915 45.0988 124.778 44.7038 124.527 44.4514C124.277 44.199 123.948 44.0818 123.542 44.0997C123.136 44.1175 122.819 44.2632 122.592 44.5365C122.364 44.8099 122.262 45.2155 122.286 45.7532L122.294 45.9324C122.318 46.4701 122.455 46.8651 122.705 47.1175C122.956 47.3698 123.284 47.4871 123.69 47.4692Z" fill="#474766"/>
</g>
<path d="M258.481 181.459V178.346C258.306 178.461 258.06 178.565 257.743 178.66C257.427 178.754 257.063 178.801 256.652 178.801C255.823 178.801 255.22 178.616 254.842 178.245C254.465 177.868 254.276 177.272 254.276 176.456V174.384H255.226V176.456C255.226 176.989 255.344 177.373 255.58 177.609C255.816 177.838 256.207 177.952 256.753 177.952C257.17 177.952 257.518 177.902 257.794 177.801C258.077 177.699 258.306 177.592 258.481 177.477V174.384H259.431V181.459H258.481ZM261.452 181.459V174.384H266V175.213H262.402V177.406H265.697V178.235H262.402V180.631H266V181.459H261.452ZM269.367 181.459V175.213H266.911V174.384H272.774V175.213H270.317V181.459H269.367ZM273.988 181.459V174.384H276.514C277.357 174.384 277.97 174.563 278.354 174.92C278.745 175.27 278.94 175.722 278.94 176.274C278.94 176.638 278.839 176.952 278.637 177.214C278.435 177.47 278.186 177.656 277.889 177.77C278.307 177.865 278.637 178.057 278.88 178.346C279.122 178.629 279.243 179 279.243 179.458C279.243 179.842 279.159 180.186 278.991 180.489C278.822 180.786 278.553 181.021 278.182 181.197C277.812 181.372 277.323 181.459 276.717 181.459H273.988ZM274.938 180.631H276.717C277.323 180.631 277.737 180.523 277.96 180.307C278.182 180.085 278.293 179.792 278.293 179.428C278.293 179.057 278.182 178.764 277.96 178.549C277.737 178.326 277.32 178.215 276.707 178.215H274.938V180.631ZM274.938 177.427H276.514C277.08 177.427 277.468 177.322 277.677 177.113C277.886 176.904 277.99 176.638 277.99 176.315C277.99 175.985 277.886 175.718 277.677 175.516C277.468 175.314 277.08 175.213 276.514 175.213H274.938V177.427ZM280.759 181.459V174.384H285.307V175.213H281.709V177.406H285.004V178.235H281.709V180.631H285.307V181.459H280.759ZM286.928 181.459V174.384H289.354C289.98 174.384 290.493 174.479 290.89 174.667C291.294 174.849 291.594 175.105 291.79 175.435C291.985 175.759 292.083 176.133 292.083 176.557C292.083 176.975 291.985 177.349 291.79 177.679C291.594 178.009 291.294 178.269 290.89 178.458C290.493 178.639 289.98 178.73 289.354 178.73H287.878V181.459H286.928ZM287.878 177.902H289.303C289.977 177.902 290.449 177.78 290.718 177.538C290.995 177.295 291.133 176.968 291.133 176.557C291.133 176.146 290.995 175.819 290.718 175.577C290.449 175.334 289.977 175.213 289.303 175.213H287.878V177.902ZM293.551 181.459V174.384H297.998V175.213H294.501V181.459H293.551Z" fill="#134C75" fill-opacity="0.44"/>
<path d="M347.212 181.459V174.384H352.771V181.459H351.821V175.213H348.162V181.459H347.212ZM354.237 181.459L356.177 178.488C355.631 178.34 355.22 178.09 354.944 177.74C354.675 177.383 354.54 176.972 354.54 176.507C354.54 176.102 354.641 175.742 354.843 175.425C355.045 175.102 355.345 174.849 355.743 174.667C356.14 174.479 356.632 174.384 357.218 174.384H359.695V181.459H358.745V178.609H357.107L355.308 181.459H354.237ZM355.49 176.507C355.49 176.891 355.631 177.204 355.914 177.447C356.197 177.683 356.666 177.801 357.319 177.801H358.745V175.213H357.319C356.666 175.213 356.197 175.334 355.914 175.577C355.631 175.813 355.49 176.123 355.49 176.507ZM363.359 181.459V175.213H360.903V174.384H366.766V175.213H364.309V181.459H363.359ZM367.98 181.459V174.384H368.93V177.406H372.69V174.384H373.64V181.459H372.69V178.235H368.93V181.459H367.98ZM375.659 181.459V174.384H376.609V179.943L380.369 174.384H381.319V181.459H380.369V175.9L376.609 181.459H375.659ZM388.847 182.773V181.459H383.338V174.384H384.288V180.631H387.846V174.384H388.796V180.631H389.757V182.773H388.847ZM390.564 181.459L393.273 174.384H394.223L396.932 181.459H395.901L395.224 179.701H392.232L391.555 181.459H390.564ZM392.546 178.872H394.911L393.728 175.597L392.546 178.872Z" fill="#134C75" fill-opacity="0.44"/>
<path d="M439.538 181.561C439.013 181.561 438.524 181.436 438.073 181.187C437.621 180.937 437.254 180.55 436.971 180.024C436.695 179.492 436.557 178.808 436.557 177.972V177.77C436.557 177.164 436.638 176.642 436.799 176.204C436.961 175.766 437.18 175.405 437.456 175.122C437.732 174.839 438.049 174.63 438.406 174.495C438.77 174.354 439.148 174.283 439.538 174.283C439.922 174.283 440.273 174.334 440.59 174.435C440.913 174.536 441.196 174.681 441.439 174.869C441.681 175.058 441.877 175.291 442.025 175.567C442.18 175.843 442.277 176.156 442.318 176.507H441.307C441.213 176.049 441.014 175.705 440.711 175.476C440.408 175.247 440.017 175.132 439.538 175.132C439.208 175.132 438.891 175.216 438.588 175.385C438.285 175.553 438.039 175.833 437.85 176.224C437.662 176.608 437.567 177.123 437.567 177.77V177.972C437.567 178.484 437.625 178.916 437.739 179.266C437.861 179.617 438.019 179.9 438.214 180.115C438.41 180.324 438.622 180.476 438.851 180.57C439.087 180.664 439.316 180.712 439.538 180.712C440.064 180.712 440.475 180.583 440.771 180.327C441.068 180.071 441.247 179.741 441.307 179.337H442.318C442.264 179.728 442.156 180.065 441.994 180.348C441.833 180.631 441.627 180.863 441.378 181.045C441.135 181.22 440.856 181.352 440.539 181.439C440.229 181.52 439.895 181.561 439.538 181.561ZM444.586 181.561C444.512 181.561 444.438 181.557 444.364 181.55C444.296 181.55 444.236 181.547 444.182 181.54V180.691C444.236 180.698 444.296 180.705 444.364 180.712C444.438 180.712 444.512 180.712 444.586 180.712C444.782 180.712 444.937 180.688 445.051 180.641C445.172 180.594 445.277 180.509 445.364 180.388C445.452 180.267 445.543 180.092 445.637 179.862L442.716 174.384H443.747L446.112 178.882L448.114 174.384H449.084L446.507 180.075C446.392 180.331 446.274 180.553 446.153 180.742C446.032 180.931 445.897 181.085 445.749 181.207C445.6 181.328 445.432 181.416 445.243 181.47C445.055 181.53 444.836 181.561 444.586 181.561ZM450.296 181.459V174.384H454.895V175.203H451.246V177.214H452.823C453.76 177.214 454.447 177.41 454.885 177.801C455.33 178.191 455.552 178.703 455.552 179.337C455.552 179.97 455.33 180.482 454.885 180.873C454.447 181.264 453.76 181.459 452.823 181.459H450.296ZM451.246 180.631H452.772C453.446 180.631 453.918 180.519 454.188 180.297C454.464 180.068 454.602 179.748 454.602 179.337C454.602 178.926 454.464 178.609 454.188 178.387C453.918 178.158 453.446 178.043 452.772 178.043H451.246V180.631ZM457.018 181.459V174.384H461.617V175.203H457.968V177.214H459.545C460.482 177.214 461.169 177.41 461.607 177.801C462.052 178.191 462.274 178.703 462.274 179.337C462.274 179.97 462.052 180.482 461.607 180.873C461.169 181.264 460.482 181.459 459.545 181.459H457.018ZM457.968 180.631H459.494C460.168 180.631 460.64 180.519 460.909 180.297C461.186 180.068 461.324 179.748 461.324 179.337C461.324 178.926 461.186 178.609 460.909 178.387C460.64 178.158 460.168 178.043 459.494 178.043H457.968V180.631ZM466.469 181.561C466.065 181.561 465.674 181.493 465.296 181.358C464.926 181.217 464.592 181.001 464.296 180.712C463.999 180.422 463.764 180.051 463.588 179.6C463.42 179.148 463.336 178.606 463.336 177.972V177.77C463.336 177.164 463.42 176.642 463.588 176.204C463.764 175.766 463.999 175.405 464.296 175.122C464.592 174.832 464.926 174.62 465.296 174.485C465.674 174.351 466.065 174.283 466.469 174.283C466.873 174.283 467.261 174.351 467.631 174.485C468.009 174.62 468.346 174.832 468.642 175.122C468.939 175.405 469.171 175.766 469.339 176.204C469.515 176.642 469.602 177.164 469.602 177.77V177.972C469.602 178.606 469.515 179.148 469.339 179.6C469.171 180.051 468.939 180.422 468.642 180.712C468.346 181.001 468.009 181.217 467.631 181.358C467.261 181.493 466.873 181.561 466.469 181.561ZM466.469 180.712C466.84 180.712 467.183 180.621 467.5 180.439C467.823 180.257 468.086 179.964 468.288 179.559C468.49 179.155 468.592 178.626 468.592 177.972V177.77C468.592 177.15 468.49 176.648 468.288 176.264C468.086 175.873 467.823 175.587 467.5 175.405C467.183 175.223 466.84 175.132 466.469 175.132C466.105 175.132 465.761 175.223 465.438 175.405C465.115 175.587 464.852 175.873 464.65 176.264C464.447 176.648 464.346 177.15 464.346 177.77V177.972C464.346 178.626 464.447 179.155 464.65 179.559C464.852 179.964 465.115 180.257 465.438 180.439C465.761 180.621 466.105 180.712 466.469 180.712ZM472.672 181.459V175.213H470.216V174.384H476.078V175.213H473.622V181.459H472.672ZM475.674 181.459L478.383 174.384H479.333L482.042 181.459H481.011L480.334 179.701H477.342L476.665 181.459H475.674ZM477.655 178.872H480.021L478.838 175.597L477.655 178.872Z" fill="#134C75" fill-opacity="0.44"/>
<path d="M239.466 165.684C266.965 165.684 263.292 118.454 292.679 118.454C320.493 118.454 308.422 144.168 333.087 144.168C357.752 144.168 347.257 73.3229 372.97 73.3229C393.961 73.3229 386.089 119.503 405.506 119.503C424.922 119.503 416.528 49.7079 444.873 49.7079C473.219 49.7079 457.997 94.8386 483.967 94.8386V165.684H241.566" fill="#F7F8FF"/>
<path d="M295.033 118.62C295.033 121.513 292.687 123.859 289.793 123.859C286.898 123.859 284.554 121.513 284.554 118.62C284.554 115.726 286.899 113.379 289.793 113.379C292.686 113.379 295.033 115.725 295.033 118.62Z" fill="#F17E00"/>
<path d="M377.248 74.5531C377.248 77.4465 374.902 79.7934 372.008 79.7934C369.114 79.7934 366.769 77.4478 366.769 74.5531C366.769 71.6597 369.114 69.3127 372.008 69.3127C374.902 69.3141 377.248 71.6597 377.248 74.5531Z" fill="#F17E00"/>
<path d="M453.98 45.8208C453.98 48.7142 451.635 51.0611 448.74 51.0611C445.847 51.0611 443.501 48.7155 443.501 45.8208C443.501 42.9274 445.847 40.5804 448.74 40.5804C451.635 40.5818 453.98 42.9274 453.98 45.8208Z" fill="#F17E00"/>
<path d="M286.668 85.7253V110.489L284.152 106.44H259.377V85.7253H286.668Z" fill="#66A0F7"/>
<path d="M267.562 99.2666V97.6531H269.241V93.6084L267.562 94.8076V92.8453L269.252 91.6351H271.214V97.6531H272.577V99.2666H267.562ZM276.28 99.4083C275.851 99.4083 275.451 99.3393 275.081 99.2012C274.71 99.0558 274.387 98.8269 274.11 98.5144C273.834 98.2018 273.616 97.7948 273.456 97.2933C273.304 96.7846 273.227 96.1704 273.227 95.4509V95.2328C273.227 94.5642 273.304 93.9936 273.456 93.5212C273.616 93.0488 273.834 92.6636 274.11 92.3656C274.387 92.0676 274.71 91.8495 275.081 91.7115C275.451 91.5661 275.851 91.4934 276.28 91.4934C276.709 91.4934 277.108 91.5661 277.479 91.7115C277.85 91.8495 278.173 92.0676 278.449 92.3656C278.726 92.6636 278.94 93.0488 279.093 93.5212C279.253 93.9936 279.332 94.5642 279.332 95.2328V95.4509C279.332 96.1704 279.253 96.7846 279.093 97.2933C278.94 97.7948 278.726 98.2018 278.449 98.5144C278.173 98.8269 277.85 99.0558 277.479 99.2012C277.108 99.3393 276.709 99.4083 276.28 99.4083ZM276.28 97.7948C276.425 97.7948 276.563 97.7585 276.694 97.6858C276.825 97.6131 276.938 97.4896 277.032 97.3151C277.134 97.1334 277.214 96.8936 277.272 96.5956C277.33 96.2903 277.359 95.9088 277.359 95.4509V95.2328C277.359 94.695 277.312 94.2734 277.217 93.9682C277.123 93.6557 276.992 93.434 276.825 93.3032C276.658 93.1723 276.476 93.1069 276.28 93.1069C276.084 93.1069 275.902 93.1723 275.735 93.3032C275.575 93.434 275.444 93.6557 275.342 93.9682C275.241 94.2734 275.19 94.695 275.19 95.2328V95.4509C275.19 95.9088 275.219 96.2903 275.277 96.5956C275.335 96.8936 275.415 97.1334 275.517 97.3151C275.626 97.4896 275.742 97.6131 275.866 97.6858C275.996 97.7585 276.135 97.7948 276.28 97.7948Z" fill="white"/>
<path d="M372.008 40.5798V65.3441L374.324 61.2949H397.134V40.5798H372.008Z" fill="#66A0F7"/>
<path d="M446.741 14.0051V38.7693L449.057 34.7202H471.868V14.0051H446.741Z" fill="#66A0F7"/>
<path d="M379.843 54.4115V52.798H381.522V48.7533L379.843 49.9525V47.9902L381.533 46.78H383.496V52.798H384.858V54.4115H379.843ZM388.289 54.5532C387.773 54.5532 387.322 54.4842 386.937 54.3461C386.559 54.208 386.257 53.99 386.032 53.692C385.814 53.3867 385.676 52.9906 385.618 52.5036H387.471C387.522 52.6708 387.616 52.8016 387.754 52.8961C387.892 52.9833 388.089 53.0269 388.343 53.0269C388.583 53.0269 388.79 52.9688 388.965 52.8525C389.146 52.7362 389.288 52.54 389.39 52.2638C389.499 51.9876 389.561 51.5951 389.575 51.0864C389.401 51.3407 389.157 51.5188 388.845 51.6206C388.532 51.7223 388.201 51.7732 387.853 51.7732C387.344 51.7732 386.908 51.6751 386.544 51.4788C386.188 51.2826 385.916 51.0064 385.727 50.6503C385.545 50.2869 385.454 49.8653 385.454 49.3856V49.2766C385.454 48.746 385.574 48.2809 385.814 47.8811C386.054 47.4814 386.392 47.1761 386.828 46.9654C387.264 46.7473 387.769 46.6383 388.343 46.6383C389.019 46.6383 389.586 46.7619 390.044 47.009C390.509 47.2488 390.858 47.6413 391.09 48.1864C391.33 48.7242 391.45 49.4365 391.45 50.3232V50.5413C391.45 51.5079 391.316 52.2856 391.047 52.8743C390.785 53.4557 390.415 53.8809 389.935 54.1498C389.462 54.4188 388.914 54.5532 388.289 54.5532ZM388.452 50.3559C388.772 50.3559 389.023 50.2651 389.204 50.0834C389.393 49.8944 389.488 49.6364 389.488 49.3093V49.2112C389.488 48.8987 389.39 48.6479 389.193 48.459C389.005 48.2627 388.757 48.1646 388.452 48.1646C388.132 48.1646 387.878 48.2591 387.689 48.4481C387.507 48.6298 387.416 48.8805 387.416 49.2003V49.3093C387.416 49.6364 387.507 49.8944 387.689 50.0834C387.878 50.2651 388.132 50.3559 388.452 50.3559Z" fill="white"/>
<path d="M452.797 27.8369V26.4414L455.326 24.3482C455.653 24.0793 455.919 23.8431 456.122 23.6396C456.333 23.4288 456.482 23.2326 456.569 23.0509C456.664 22.8692 456.711 22.6839 456.711 22.4949C456.711 22.2405 456.642 22.0443 456.504 21.9062C456.366 21.7681 456.166 21.699 455.904 21.699C455.562 21.699 455.304 21.8081 455.13 22.0261C454.956 22.2441 454.868 22.5639 454.868 22.9855H452.906C452.906 22.3604 453.015 21.8335 453.233 21.4047C453.458 20.9686 453.793 20.6379 454.236 20.4126C454.679 20.18 455.235 20.0637 455.904 20.0637C456.529 20.0637 457.045 20.1691 457.452 20.3799C457.866 20.5834 458.175 20.8668 458.379 21.2302C458.582 21.5936 458.684 22.0152 458.684 22.4949C458.684 22.8438 458.604 23.1781 458.444 23.4979C458.284 23.8104 458.066 24.1084 457.79 24.3919C457.521 24.668 457.209 24.9442 456.853 25.2204L455.533 26.2234H458.793V27.8369H452.797ZM462.449 27.9786C461.802 27.9786 461.257 27.8624 460.814 27.6298C460.378 27.3972 460.051 27.0774 459.833 26.6704C459.615 26.2634 459.506 25.7982 459.506 25.2749H461.468C461.468 25.6311 461.548 25.9 461.708 26.0817C461.875 26.2561 462.144 26.3433 462.515 26.3433C462.82 26.3433 463.045 26.267 463.19 26.1144C463.343 25.9545 463.419 25.7437 463.419 25.4821C463.419 25.2059 463.343 24.9951 463.19 24.8497C463.038 24.7044 462.791 24.6317 462.449 24.6317H461.806V23.1926H462.449C462.74 23.1926 462.954 23.1272 463.092 22.9964C463.238 22.8656 463.31 22.673 463.31 22.4186C463.31 22.1933 463.241 22.0188 463.103 21.8953C462.965 21.7644 462.769 21.699 462.515 21.699C462.195 21.699 461.959 21.779 461.806 21.9389C461.653 22.0988 461.577 22.3386 461.577 22.6584H459.615C459.615 22.1133 459.724 21.6482 459.942 21.263C460.16 20.8777 460.48 20.5834 460.901 20.3799C461.33 20.1691 461.846 20.0637 462.449 20.0637C463.052 20.0637 463.565 20.1546 463.986 20.3363C464.408 20.5107 464.728 20.7578 464.946 21.0776C465.171 21.3974 465.284 21.7644 465.284 22.1787C465.284 22.593 465.167 22.9455 464.935 23.2362C464.702 23.527 464.39 23.7341 463.997 23.8577C464.455 23.9812 464.8 24.192 465.033 24.49C465.273 24.788 465.393 25.1768 465.393 25.6565C465.393 26.1144 465.273 26.5214 465.033 26.8775C464.793 27.2264 464.452 27.4989 464.008 27.6952C463.572 27.8842 463.052 27.9786 462.449 27.9786Z" fill="white"/>
<path d="M0 164.921C0 153.4 9.33955 144.06 20.8605 144.06H199.079C210.6 144.06 219.939 153.4 219.939 164.921C219.939 176.442 210.6 185.781 199.079 185.781H20.8605C9.33955 185.781 0 176.442 0 164.921Z" fill="url(#paint1_linear_1_2)"/>
<path d="M23.8106 170.101V160.101H32.5255V170.101H29.9539V162.215H26.3822V170.101H23.8106ZM34.2399 172.959V162.529H36.2686V163.558C36.4686 163.253 36.7639 162.977 37.1544 162.729C37.5544 162.472 38.0449 162.344 38.6259 162.344C39.6926 162.344 40.5022 162.658 41.0546 163.286C41.607 163.915 41.8832 164.853 41.8832 166.101V166.387C41.8832 167.244 41.7499 167.963 41.4832 168.544C41.2165 169.115 40.8403 169.549 40.3546 169.844C39.8688 170.139 39.2926 170.287 38.6259 170.287C38.1973 170.287 37.7877 170.192 37.3972 170.001C37.0163 169.801 36.6972 169.515 36.44 169.144V172.959H34.2399ZM38.0973 168.473C38.5354 168.473 38.8973 168.296 39.1831 167.944C39.4783 167.582 39.626 167.063 39.626 166.387V166.101C39.626 165.444 39.4831 164.958 39.1974 164.644C38.9211 164.32 38.5545 164.158 38.0973 164.158C37.7925 164.158 37.5115 164.225 37.2544 164.358C37.0067 164.482 36.8067 164.672 36.6543 164.929C36.5115 165.187 36.44 165.506 36.44 165.887V166.601C36.44 166.991 36.5115 167.33 36.6543 167.615C36.8067 167.892 37.0067 168.106 37.2544 168.258C37.5115 168.401 37.7925 168.473 38.0973 168.473ZM46.6012 170.287C45.8964 170.287 45.2487 170.149 44.6582 169.873C44.0772 169.596 43.6105 169.168 43.2581 168.587C42.9152 167.996 42.7438 167.263 42.7438 166.387V166.101C42.7438 165.282 42.9152 164.596 43.2581 164.044C43.6105 163.482 44.0772 163.058 44.6582 162.772C45.2487 162.486 45.8964 162.344 46.6012 162.344C47.3155 162.344 47.9632 162.486 48.5442 162.772C49.1252 163.058 49.5871 163.482 49.93 164.044C50.2824 164.596 50.4586 165.282 50.4586 166.101V166.387C50.4586 167.253 50.2824 167.977 49.93 168.558C49.5871 169.13 49.1252 169.563 48.5442 169.858C47.9632 170.144 47.3155 170.287 46.6012 170.287ZM46.6012 168.458C46.9441 168.458 47.2346 168.377 47.4727 168.215C47.7108 168.044 47.8918 167.801 48.0156 167.487C48.1394 167.172 48.2013 166.806 48.2013 166.387V166.101C48.2013 165.72 48.1394 165.387 48.0156 165.101C47.8918 164.815 47.7108 164.591 47.4727 164.429C47.2346 164.258 46.9441 164.172 46.6012 164.172C46.2583 164.172 45.9678 164.258 45.7297 164.429C45.4916 164.591 45.3106 164.815 45.1868 165.101C45.063 165.387 45.0011 165.72 45.0011 166.101V166.387C45.0011 166.825 45.063 167.201 45.1868 167.515C45.3106 167.82 45.4916 168.053 45.7297 168.215C45.9678 168.377 46.2583 168.458 46.6012 168.458ZM51.0262 171.887V168.301H51.8262C51.9595 168.101 52.0643 167.858 52.1405 167.572C52.2262 167.277 52.2881 166.915 52.3262 166.487C52.3643 166.058 52.3834 165.549 52.3834 164.958V162.529H58.5981V168.301H59.4553V171.887H57.598V170.101H52.8834V171.887H51.0262ZM53.9835 168.301H56.3979V164.329H54.4121V165.244C54.4121 165.968 54.3788 166.577 54.3121 167.072C54.2454 167.558 54.1359 167.968 53.9835 168.301ZM60.963 170.287C60.8773 170.287 60.763 170.282 60.6201 170.273C60.4868 170.273 60.382 170.263 60.3058 170.244V168.315C60.3344 168.325 60.4058 168.33 60.5201 168.33C60.7391 168.33 60.9201 168.239 61.063 168.058C61.2154 167.877 61.3249 167.572 61.3916 167.144C61.4678 166.715 61.5059 166.13 61.5059 165.387V162.529H67.8063V170.101H65.6061V164.329H63.5774V165.672C63.5774 166.615 63.5203 167.391 63.406 168.001C63.2917 168.611 63.125 169.082 62.906 169.415C62.6869 169.739 62.4107 169.968 62.0773 170.101C61.7535 170.225 61.382 170.287 60.963 170.287ZM69.245 170.101V162.529H71.388V167.101L74.6025 162.529H76.5312V170.101H74.3882V165.529L71.1737 170.101H69.245ZM79.865 170.101V164.329H77.5363V162.529H84.3939V164.329H82.0652V170.101H79.865ZM85.5301 170.101V162.529H87.7303V164.987H89.2447C90.2352 164.987 90.9829 165.196 91.4877 165.615C91.9925 166.034 92.2449 166.677 92.2449 167.544C92.2449 168.039 92.1448 168.482 91.9448 168.873C91.7448 169.263 91.4258 169.568 90.9876 169.787C90.5495 169.996 89.9685 170.101 89.2447 170.101H85.5301ZM87.7303 168.444H88.9589C89.3494 168.444 89.6256 168.373 89.7875 168.23C89.959 168.077 90.0447 167.849 90.0447 167.544C90.0447 167.23 89.959 167.001 89.7875 166.858C89.6256 166.715 89.3494 166.644 88.9589 166.644H87.7303V168.444ZM99.1711 170.287C98.6282 170.287 98.1615 170.182 97.771 169.973C97.39 169.763 97.0995 169.477 96.8995 169.115C96.6995 168.744 96.5995 168.334 96.5995 167.887C96.5995 167.134 96.8281 166.558 97.2853 166.158C97.752 165.758 98.452 165.558 99.3854 165.558H101.528V165.244C101.528 164.787 101.419 164.472 101.2 164.301C100.99 164.129 100.695 164.044 100.314 164.044C99.9521 164.044 99.6854 164.101 99.514 164.215C99.3425 164.32 99.2473 164.496 99.2282 164.744H97.0281C97.0567 164.287 97.1995 163.877 97.4567 163.515C97.7234 163.153 98.0996 162.867 98.5853 162.658C99.0806 162.448 99.6807 162.344 100.385 162.344C101.052 162.344 101.638 162.444 102.143 162.644C102.648 162.844 103.038 163.167 103.314 163.615C103.6 164.053 103.743 164.644 103.743 165.387V168.172C103.743 168.573 103.752 168.925 103.771 169.23C103.79 169.525 103.819 169.815 103.857 170.101H101.757C101.747 169.939 101.733 169.796 101.714 169.673C101.705 169.549 101.7 169.396 101.7 169.215C101.471 169.52 101.152 169.777 100.743 169.987C100.343 170.187 99.8188 170.287 99.1711 170.287ZM99.8854 168.73C100.2 168.73 100.481 168.673 100.728 168.558C100.976 168.444 101.171 168.273 101.314 168.044C101.457 167.806 101.528 167.539 101.528 167.244V166.93H99.814C99.4902 166.93 99.2473 167.015 99.0854 167.187C98.933 167.358 98.8568 167.553 98.8568 167.772C98.8568 168.058 98.933 168.292 99.0854 168.473C99.2473 168.644 99.514 168.73 99.8854 168.73ZM108.744 170.287C108.011 170.287 107.349 170.125 106.758 169.801C106.177 169.468 105.72 168.977 105.387 168.33C105.054 167.672 104.887 166.858 104.887 165.887V165.601C104.887 164.467 105.015 163.501 105.273 162.701C105.53 161.891 105.954 161.263 106.544 160.815C107.135 160.367 107.935 160.12 108.944 160.072C109.344 160.053 109.74 160.039 110.13 160.029C110.521 160.02 110.883 159.996 111.216 159.958C111.549 159.91 111.821 159.839 112.03 159.743V161.629C111.935 161.686 111.773 161.739 111.544 161.786C111.325 161.834 111.021 161.872 110.63 161.901C110.249 161.92 109.759 161.939 109.159 161.958C108.606 161.958 108.149 162.039 107.787 162.201C107.435 162.353 107.163 162.596 106.973 162.929C106.792 163.263 106.668 163.706 106.601 164.258C106.744 164.001 106.935 163.772 107.173 163.572C107.42 163.372 107.725 163.215 108.087 163.101C108.459 162.977 108.892 162.915 109.387 162.915C110.016 162.915 110.573 163.039 111.059 163.286C111.544 163.525 111.921 163.886 112.187 164.372C112.464 164.858 112.602 165.472 112.602 166.215V166.472C112.602 167.272 112.43 167.958 112.087 168.53C111.744 169.101 111.283 169.539 110.702 169.844C110.121 170.139 109.468 170.287 108.744 170.287ZM108.744 168.458C109.259 168.458 109.654 168.296 109.93 167.972C110.206 167.639 110.344 167.206 110.344 166.672V166.387C110.344 165.815 110.202 165.377 109.916 165.072C109.63 164.758 109.24 164.601 108.744 164.601C108.259 164.601 107.868 164.758 107.573 165.072C107.287 165.377 107.144 165.815 107.144 166.387V166.615C107.144 166.977 107.211 167.301 107.344 167.587C107.487 167.863 107.678 168.077 107.916 168.23C108.163 168.382 108.439 168.458 108.744 168.458ZM117.323 170.287C116.618 170.287 115.971 170.149 115.38 169.873C114.799 169.596 114.332 169.168 113.98 168.587C113.637 167.996 113.466 167.263 113.466 166.387V166.101C113.466 165.282 113.637 164.596 113.98 164.044C114.332 163.482 114.799 163.058 115.38 162.772C115.971 162.486 116.618 162.344 117.323 162.344C118.037 162.344 118.685 162.486 119.266 162.772C119.847 163.058 120.309 163.482 120.652 164.044C121.004 164.596 121.18 165.282 121.18 166.101V166.387C121.18 167.253 121.004 167.977 120.652 168.558C120.309 169.13 119.847 169.563 119.266 169.858C118.685 170.144 118.037 170.287 117.323 170.287ZM117.323 168.458C117.666 168.458 117.956 168.377 118.194 168.215C118.433 168.044 118.614 167.801 118.737 167.487C118.861 167.172 118.923 166.806 118.923 166.387V166.101C118.923 165.72 118.861 165.387 118.737 165.101C118.614 164.815 118.433 164.591 118.194 164.429C117.956 164.258 117.666 164.172 117.323 164.172C116.98 164.172 116.69 164.258 116.451 164.429C116.213 164.591 116.032 164.815 115.909 165.101C115.785 165.387 115.723 165.72 115.723 166.101V166.387C115.723 166.825 115.785 167.201 115.909 167.515C116.032 167.82 116.213 168.053 116.451 168.215C116.69 168.377 116.98 168.458 117.323 168.458ZM122.318 170.101V162.529H124.518V165.344H127.404V162.529H129.604V170.101H127.404V167.144H124.518V170.101H122.318ZM134.681 170.287C133.938 170.287 133.271 170.149 132.681 169.873C132.09 169.587 131.619 169.154 131.266 168.573C130.923 167.992 130.752 167.263 130.752 166.387V166.101C130.752 165.263 130.919 164.567 131.252 164.015C131.585 163.463 132.038 163.048 132.609 162.772C133.19 162.486 133.833 162.344 134.538 162.344C135.786 162.344 136.728 162.667 137.367 163.315C138.005 163.953 138.324 164.882 138.324 166.101V166.901H133.009C133.028 167.272 133.114 167.582 133.266 167.83C133.428 168.077 133.633 168.258 133.881 168.373C134.128 168.477 134.395 168.53 134.681 168.53C135.1 168.53 135.428 168.468 135.666 168.344C135.914 168.211 136.076 168.034 136.152 167.815H138.181C138.029 168.644 137.652 169.263 137.052 169.673C136.452 170.082 135.662 170.287 134.681 170.287ZM134.609 164.101C134.343 164.101 134.09 164.144 133.852 164.229C133.614 164.315 133.419 164.458 133.266 164.658C133.123 164.848 133.043 165.11 133.023 165.444H136.167C136.167 165.091 136.095 164.82 135.952 164.629C135.809 164.429 135.619 164.291 135.381 164.215C135.152 164.139 134.895 164.101 134.609 164.101ZM139.465 170.101V162.529H142.136L143.936 166.287L145.736 162.529H148.322V170.101H146.236V165.458L144.608 168.673H143.179L141.55 165.458V170.101H139.465ZM153.39 170.287C152.647 170.287 151.98 170.149 151.39 169.873C150.799 169.587 150.328 169.154 149.976 168.573C149.633 167.992 149.461 167.263 149.461 166.387V166.101C149.461 165.263 149.628 164.567 149.961 164.015C150.295 163.463 150.747 163.048 151.319 162.772C151.9 162.486 152.542 162.344 153.247 162.344C154.495 162.344 155.438 162.667 156.076 163.315C156.714 163.953 157.033 164.882 157.033 166.101V166.901H151.719C151.738 167.272 151.823 167.582 151.976 167.83C152.138 168.077 152.342 168.258 152.59 168.373C152.838 168.477 153.104 168.53 153.39 168.53C153.809 168.53 154.138 168.468 154.376 168.344C154.624 168.211 154.785 168.034 154.862 167.815H156.89C156.738 168.644 156.362 169.263 155.762 169.673C155.162 170.082 154.371 170.287 153.39 170.287ZM153.319 164.101C153.052 164.101 152.8 164.144 152.561 164.229C152.323 164.315 152.128 164.458 151.976 164.658C151.833 164.848 151.752 165.11 151.733 165.444H154.876C154.876 165.091 154.804 164.82 154.662 164.629C154.519 164.429 154.328 164.291 154.09 164.215C153.862 164.139 153.604 164.101 153.319 164.101ZM158.174 170.101V162.529H160.374V165.344H163.26V162.529H165.46V170.101H163.26V167.144H160.374V170.101H158.174ZM168.794 170.101V164.329H166.465V162.529H173.323V164.329H170.994V170.101H168.794Z" fill="white"/>
<g filter="url(#filter1_d_1_2)">
<path d="M195.304 177.86C202.45 177.732 208.139 171.836 208.012 164.69C207.884 157.544 201.988 151.855 194.842 151.982C187.696 152.11 182.007 158.006 182.134 165.152C182.262 172.298 188.158 177.987 195.304 177.86Z" fill="#FC9F30" stroke="#FC9F30" stroke-width="1.23244"/>
<path d="M192.499 158.804L198.77 164.855L192.719 171.126" stroke="white" stroke-width="1.23244"/>
</g>
<defs>
<filter id="filter0_d_1_2" x="31.446" y="1.69916" width="133.729" height="68.355" filterUnits="userSpaceOnUse" color-interpolation-filters="sRGB">
<feFlood flood-opacity="0" result="BackgroundImageFix"/>
<feColorMatrix in="SourceAlpha" type="matrix" values="0 0 0 0 0 0 0 0 0 0 0 0 0 0 0 0 0 0 127 0" result="hardAlpha"/>
<feOffset dy="3.55348"/>
<feGaussianBlur stdDeviation="3.02045"/>
<feComposite in2="hardAlpha" operator="out"/>
<feColorMatrix type="matrix" values="0 0 0 0 0.0745098 0 0 0 0 0.298039 0 0 0 0 0.458824 0 0 0 0.08 0"/>
<feBlend mode="normal" in2="BackgroundImageFix" result="effect1_dropShadow_1_2"/>
<feBlend mode="normal" in="SourceGraphic" in2="effect1_dropShadow_1_2" result="shape"/>
</filter>
<filter id="filter1_d_1_2" x="159.516" y="129.364" width="71.1137" height="71.1137" filterUnits="userSpaceOnUse" color-interpolation-filters="sRGB">
<feFlood flood-opacity="0" result="BackgroundImageFix"/>
<feColorMatrix in="SourceAlpha" type="matrix" values="0 0 0 0 0 0 0 0 0 0 0 0 0 0 0 0 0 0 127 0" result="hardAlpha"/>
<feOffset/>
<feGaussianBlur stdDeviation="11"/>
<feComposite in2="hardAlpha" operator="out"/>
<feColorMatrix type="matrix" values="0 0 0 0 0.117647 0 0 0 0 0.627451 0 0 0 0 0.870588 0 0 0 0.15 0"/>
<feBlend mode="normal" in2="BackgroundImageFix" result="effect1_dropShadow_1_2"/>
<feBlend mode="normal" in="SourceGraphic" in2="effect1_dropShadow_1_2" result="shape"/>
</filter>
<linearGradient id="paint0_linear_1_2" x1="97.1775" y1="6.55681" x2="99.4443" y2="58.0897" gradientUnits="userSpaceOnUse">
<stop stop-color="#EEF1FF"/>
<stop offset="1" stop-color="#EEF8FF"/>
</linearGradient>
<linearGradient id="paint1_linear_1_2" x1="-60.7175" y1="149.143" x2="204.501" y2="213.838" gradientUnits="userSpaceOnUse">
<stop stop-color="#FA9D2F"/>
<stop offset="0.73888" stop-color="#F28309"/>
<stop offset="0.885" stop-color="#F17E01"/>
</linearGradient>
</defs>
</svg>
