<svg width="642" height="193" viewBox="0 0 642 193" fill="none" xmlns="http://www.w3.org/2000/svg">
<rect x="79.7549" y="55.4025" width="128.52" height="50.4514" rx="6.21858" transform="rotate(-2.51868 79.7549 55.4025)" fill="#F3F5F9"/>
<path d="M92.4044 71.351L92.1257 65.0152L93.2119 64.9675L93.3285 67.6194L93.9621 67.5916L96.1444 64.8385L97.3754 64.7843L94.8379 67.9158L97.7446 71.1161L96.4231 71.1742L93.9995 68.4424L93.366 68.4702L93.4906 71.3032L92.4044 71.351ZM98.6074 71.1779C98.5591 71.18 98.5047 71.1794 98.4441 71.176C98.3898 71.1784 98.3382 71.1746 98.2894 71.1647L98.244 70.1329C98.2624 70.1381 98.3078 70.1391 98.3802 70.1359C98.5129 70.1301 98.6295 70.1008 98.73 70.048C98.8302 69.9892 98.9103 69.8859 98.9703 69.7382C99.0363 69.5902 99.0844 69.3764 99.1144 69.097C99.1505 68.8173 99.1677 68.4538 99.1662 68.0065C99.1644 67.5532 99.149 66.9976 99.1201 66.3399L99.0484 64.7107L103.483 64.5156L103.762 70.8514L102.676 70.8992L102.439 65.5047L100.14 65.6059L100.178 66.4748C100.213 67.2652 100.218 67.933 100.194 68.4782C100.169 69.0234 100.116 69.4731 100.035 69.8273C99.9599 70.1753 99.8539 70.4459 99.7173 70.6394C99.5867 70.8325 99.4265 70.9696 99.2366 71.0505C99.0525 71.1251 98.8427 71.1675 98.6074 71.1779ZM105.389 70.7798L105.11 64.4441L106.196 64.3963L106.399 69.0124L109.31 64.2593L110.36 64.2132L110.638 70.5489L109.552 70.5967L109.349 65.9806L106.439 70.7337L105.389 70.7798ZM112.266 70.4773L111.987 64.1416L116.241 63.9545L116.282 64.8958L113.114 65.0351L113.188 66.7005L116.084 66.5731L116.125 67.5144L113.229 67.6418L113.31 69.4883L116.478 69.3489L116.52 70.2902L112.266 70.4773ZM117.834 70.2324L117.555 63.8966L118.642 63.8489L118.756 66.4556L121.834 66.3202L121.719 63.7135L122.805 63.6657L123.084 70.0015L121.998 70.0493L121.875 67.2615L118.798 67.3969L118.92 70.1846L117.834 70.2324ZM126.204 69.8642L125.967 64.4698L123.84 64.5633L123.799 63.622L129.139 63.3871L129.18 64.3284L127.053 64.422L127.29 69.8164L126.204 69.8642ZM134.806 69.5856C134.281 69.6087 133.828 69.544 133.446 69.3915C133.071 69.2387 132.777 69.0189 132.565 68.732C132.352 68.439 132.225 68.094 132.184 67.6968L133.324 67.6466C133.357 67.8507 133.435 68.0287 133.556 68.1805C133.678 68.3324 133.84 68.4492 134.043 68.5309C134.246 68.6066 134.486 68.6384 134.764 68.6262C135.241 68.6052 135.587 68.5053 135.803 68.3266C136.025 68.1475 136.129 67.9011 136.115 67.5874C136.106 67.3822 136.05 67.2093 135.947 67.0688C135.844 66.9282 135.688 66.8232 135.48 66.7538C135.277 66.6781 135.009 66.6475 134.677 66.6621L133.908 66.6959L133.87 65.827L134.639 65.7932C135.025 65.7762 135.312 65.685 135.498 65.5196C135.69 65.348 135.78 65.1233 135.767 64.8458C135.755 64.5742 135.653 64.3642 135.459 64.2155C135.27 64.0605 134.971 63.9921 134.561 64.0101C134.295 64.0218 134.074 64.0678 133.896 64.1482C133.718 64.2225 133.583 64.3312 133.493 64.4743C133.408 64.611 133.358 64.7764 133.343 64.9706L132.202 65.0207C132.219 64.4517 132.417 63.9896 132.794 63.6344C133.171 63.2793 133.746 63.0847 134.519 63.0507C135.291 63.0167 135.874 63.1513 136.268 63.4544C136.669 63.7572 136.881 64.1892 136.906 64.7504C136.92 65.0822 136.839 65.3669 136.662 65.6045C136.485 65.8359 136.242 66.0099 135.933 66.1263C136.323 66.1998 136.635 66.3583 136.869 66.602C137.11 66.8453 137.239 67.1721 137.257 67.5824C137.273 67.9505 137.191 68.2836 137.011 68.5818C136.836 68.8736 136.566 69.1092 136.199 69.2886C135.831 69.4619 135.367 69.5609 134.806 69.5856ZM137.75 69.3564L139.87 62.9151L140.956 62.8673L143.633 69.0976L142.475 69.1485L141.878 67.7419L139.307 67.855L138.836 69.3086L137.75 69.3564ZM139.619 66.8982L141.483 66.8162L140.445 64.2501L139.619 66.8982ZM144.581 69.0559L144.302 62.7201L149.461 62.4932L149.74 68.8289L148.654 68.8767L148.416 63.4823L145.43 63.6137L145.667 69.0081L144.581 69.0559ZM151.369 68.7573L151.09 62.4215L152.176 62.3737L152.38 66.9898L155.29 62.2368L156.34 62.1906L156.619 68.5264L155.533 68.5741L155.33 63.9581L152.419 68.7111L151.369 68.7573ZM160.694 68.4469C160.175 68.4697 159.703 68.3816 159.277 68.1827C158.851 67.9778 158.503 67.6454 158.235 67.1857C157.973 66.7196 157.825 66.1064 157.792 65.3461L157.784 65.1651C157.76 64.616 157.811 64.1421 157.939 63.7436C158.066 63.3389 158.248 63.0045 158.484 62.7402C158.726 62.4756 159.011 62.2757 159.337 62.1404C159.67 62.0048 160.026 61.9287 160.406 61.912C160.756 61.8966 161.084 61.9275 161.39 62.0047C161.695 62.076 161.967 62.194 162.204 62.3589C162.441 62.5238 162.634 62.7329 162.784 62.9863C162.935 63.2397 163.032 63.5407 163.078 63.8893L161.938 63.9395C161.842 63.5507 161.66 63.2715 161.393 63.1019C161.131 62.932 160.817 62.8552 160.449 62.8714C160.183 62.8831 159.93 62.9637 159.688 63.1134C159.447 63.257 159.252 63.4893 159.102 63.8103C158.959 64.1309 158.9 64.5658 158.924 65.1149L158.932 65.2959C158.951 65.7304 159.015 66.0933 159.125 66.3848C159.234 66.6701 159.371 66.8939 159.535 67.0559C159.706 67.2177 159.886 67.3337 160.077 67.4039C160.273 67.4678 160.465 67.4957 160.652 67.4874C161.086 67.4683 161.417 67.354 161.643 67.1446C161.876 66.9288 162.008 66.6449 162.041 66.2928L163.182 66.2426C163.162 66.6183 163.085 66.9421 162.952 67.2139C162.825 67.4856 162.648 67.711 162.42 67.8903C162.198 68.0633 161.94 68.1955 161.648 68.287C161.356 68.3784 161.038 68.4317 160.694 68.4469ZM163.639 68.2175L165.759 61.7763L166.845 61.7285L169.522 67.9588L168.364 68.0097L167.767 66.6031L165.197 66.7162L164.725 68.1698L163.639 68.2175ZM165.508 65.7594L167.373 65.6774L166.335 63.1113L165.508 65.7594ZM170.47 67.9171L170.191 61.5813L171.277 61.5335L171.392 64.1403L174.469 64.0049L174.355 61.3982L175.441 61.3504L175.72 67.6862L174.634 67.7339L174.511 64.9462L171.434 65.0816L171.556 67.8693L170.47 67.9171Z" fill="#474766" fill-opacity="0.33"/>
<path d="M105.634 96.5672L101.282 96.7587L101.137 93.4704L93.8111 93.7927L93.6803 90.8188L100.827 79.8212L104.889 79.6425L105.332 89.7006L107.169 89.6198L107.327 93.1982L105.489 93.279L105.634 96.5672ZM100.749 84.6454L97.5222 90.0442L100.98 89.8921L100.749 84.6454ZM116.199 96.4174C114.813 96.4784 113.603 96.3297 112.57 95.9714C111.536 95.597 110.728 95.0511 110.148 94.3338C109.566 93.6003 109.253 92.7178 109.208 91.6862C109.167 90.7513 109.412 89.9007 109.943 89.1344C110.475 88.3681 111.29 87.8155 112.39 87.4764C111.539 87.2231 110.825 86.7862 110.249 86.1655C109.688 85.5442 109.388 84.766 109.347 83.8312C109.306 82.8963 109.511 82.0716 109.965 81.3573C110.433 80.626 111.126 80.0465 112.044 79.6185C112.977 79.1737 114.105 78.9222 115.427 78.8641C116.764 78.8052 117.91 78.9567 118.862 79.3186C119.814 79.6643 120.548 80.1811 121.062 80.8691C121.593 81.5402 121.878 82.3432 121.919 83.2781C121.96 84.1969 121.728 84.9903 121.225 85.6585C120.721 86.3266 120.049 86.8326 119.208 87.1765C120.334 87.4499 121.195 87.9208 121.79 88.5891C122.384 89.2574 122.703 90.0912 122.747 91.0906C122.793 92.1222 122.558 93.0288 122.043 93.8105C121.528 94.5761 120.772 95.1907 119.775 95.6545C118.777 96.1021 117.585 96.3565 116.199 96.4174ZM116.052 93.0808C116.632 93.0553 117.113 92.9615 117.493 92.7994C117.889 92.6205 118.177 92.3817 118.358 92.0831C118.554 91.7676 118.643 91.4084 118.625 91.0054C118.596 90.3284 118.307 89.8243 117.759 89.4931C117.227 89.1451 116.596 88.9225 115.865 88.8255C115.161 88.9856 114.552 89.2708 114.037 89.6811C113.522 90.0752 113.278 90.5946 113.306 91.2394C113.324 91.6424 113.444 91.9924 113.667 92.2894C113.906 92.5696 114.222 92.7818 114.616 92.926C115.025 93.0533 115.504 93.1049 116.052 93.0808ZM115.739 85.9725C116.347 85.8327 116.853 85.6004 117.259 85.2758C117.665 84.9511 117.854 84.4825 117.827 83.8699C117.802 83.2897 117.589 82.863 117.189 82.5899C116.789 82.3006 116.25 82.1709 115.573 82.2007C114.896 82.2304 114.371 82.3989 113.997 82.7061C113.623 83.0132 113.449 83.465 113.475 84.0614C113.502 84.6739 113.74 85.1237 114.188 85.4108C114.636 85.6818 115.153 85.869 115.739 85.9725Z" fill="#474766"/>
<path d="M141.734 95.0856L140.049 95.1597L139.916 92.1308L133.894 92.3957L133.837 91.1052L139.318 82.6216L141.182 82.5396L141.536 90.587L143.149 90.516L143.214 91.9857L141.601 92.0567L141.734 95.0856ZM139.591 84.7465L135.622 90.8471L139.852 90.6611L139.591 84.7465ZM152.848 94.5967L151.164 94.6708L151.03 91.6419L145.008 91.9068L144.952 90.6163L150.433 82.1327L152.297 82.0507L152.651 90.0981L154.264 90.0271L154.328 91.4968L152.715 91.5678L152.848 94.5967ZM150.706 84.2576L146.736 90.3582L150.966 90.1722L150.706 84.2576ZM158.517 87.8826C157.681 87.9194 156.982 87.6808 156.421 87.1668C155.859 86.6408 155.558 85.9357 155.519 85.0515L155.512 84.8723C155.486 84.2868 155.583 83.7677 155.802 83.3151C156.034 82.862 156.359 82.5005 156.778 82.2307C157.209 81.9603 157.699 81.813 158.249 81.7888C158.811 81.7641 159.312 81.8678 159.753 82.0998C160.194 82.3318 160.544 82.6636 160.803 83.0952C161.073 83.5262 161.221 84.0345 161.247 84.62L161.255 84.7992C161.294 85.6834 161.056 86.4122 160.543 86.9854C160.029 87.5468 159.354 87.8459 158.517 87.8826ZM158.457 86.5205C158.864 86.5026 159.18 86.357 159.408 86.0836C159.635 85.8102 159.737 85.4047 159.713 84.867L159.706 84.6878C159.682 84.1501 159.545 83.7551 159.294 83.5027C159.044 83.2504 158.715 83.1331 158.309 83.151C157.903 83.1689 157.586 83.3145 157.359 83.5879C157.131 83.8612 157.029 84.2668 157.053 84.8045L157.061 84.9837C157.084 85.5214 157.222 85.9164 157.472 86.1688C157.723 86.4211 158.051 86.5384 158.457 86.5205ZM157.734 94.5614L165.785 81.6369L167.577 81.5581L159.526 94.4826L157.734 94.5614ZM167.061 94.3307C166.225 94.3675 165.526 94.1289 164.965 93.6148C164.403 93.0888 164.102 92.3838 164.064 91.4996L164.056 91.3203C164.03 90.7348 164.127 90.2158 164.346 89.7632C164.578 89.3101 164.903 88.9486 165.322 88.6787C165.753 88.4084 166.244 88.2611 166.793 88.2369C167.355 88.2122 167.856 88.3158 168.297 88.5478C168.739 88.7798 169.088 89.1116 169.347 89.5432C169.617 89.9743 169.765 90.4826 169.791 91.068L169.799 91.2473C169.838 92.1315 169.6 92.8602 169.087 93.4335C168.573 93.9948 167.898 94.2939 167.061 94.3307ZM167.001 92.9686C167.408 92.9507 167.724 92.8051 167.952 92.5317C168.179 92.2583 168.281 91.8528 168.258 91.3151L168.25 91.1358C168.226 90.5982 168.089 90.2031 167.838 89.9508C167.588 89.6984 167.259 89.5812 166.853 89.599C166.447 89.6169 166.13 89.7625 165.903 90.0359C165.675 90.3093 165.573 90.7148 165.597 91.2525L165.605 91.4318C165.629 91.9694 165.766 92.3645 166.016 92.6168C166.267 92.8692 166.595 92.9864 167.001 92.9686Z" fill="#474766"/>
<g filter="url(#filter0_d_4301_758)">
<rect x="26.2197" y="9.19421" width="120.031" height="51.5826" rx="6.21858" transform="rotate(-2.51868 26.2197 9.19421)" fill="url(#paint0_linear_4301_758)"/>
<path d="M38.8996 25.8177L38.6209 19.4819L39.707 19.4341L39.8236 22.0861L40.4572 22.0582L42.6395 19.3051L43.8705 19.251L41.333 22.3825L44.2397 25.5828L42.9182 25.6409L40.4946 22.909L39.8611 22.9369L39.9857 25.7699L38.8996 25.8177ZM45.1025 25.6446C45.0542 25.6467 44.9998 25.6461 44.9392 25.6427C44.8849 25.6451 44.8333 25.6413 44.7845 25.6313L44.7391 24.5995C44.7575 24.6048 44.8029 24.6058 44.8753 24.6026C45.0081 24.5968 45.1247 24.5675 45.2251 24.5147C45.3253 24.4559 45.4054 24.3526 45.4654 24.2048C45.5314 24.0568 45.5795 23.8431 45.6095 23.5637C45.6456 23.284 45.6628 22.9205 45.6613 22.4732C45.6595 22.0198 45.6441 21.4643 45.6152 20.8066L45.5435 19.1774L49.9786 18.9823L50.2572 25.3181L49.1711 25.3658L48.9338 19.9714L46.6349 20.0725L46.6731 20.9414C46.7078 21.7319 46.713 22.3997 46.6887 22.9449C46.6643 23.4901 46.6115 23.9398 46.5304 24.294C46.455 24.6419 46.349 24.9126 46.2124 25.106C46.0818 25.2992 45.9216 25.4362 45.7317 25.5171C45.5476 25.5917 45.3378 25.6342 45.1025 25.6446ZM51.884 25.2465L51.6053 18.9108L52.6914 18.863L52.8945 23.479L55.805 18.726L56.8549 18.6798L57.1336 25.0156L56.0475 25.0634L55.8444 20.4473L52.9339 25.2003L51.884 25.2465ZM58.7607 24.944L58.482 18.6083L62.736 18.4211L62.7774 19.3625L59.6095 19.5018L59.6828 21.1672L62.5791 21.0398L62.6205 21.9811L59.7242 22.1085L59.8054 23.9549L62.9733 23.8156L63.0147 24.7569L58.7607 24.944ZM64.3292 24.6991L64.0505 18.3633L65.1366 18.3155L65.2513 20.9223L68.3287 20.7869L68.214 18.1802L69.3001 18.1324L69.5788 24.4682L68.4927 24.5159L68.3701 21.7282L65.2927 21.8636L65.4153 24.6513L64.3292 24.6991ZM72.6993 24.3309L72.462 18.9365L70.335 19.03L70.2936 18.0887L75.6338 17.8538L75.6752 18.7951L73.5482 18.8887L73.7855 24.2831L72.6993 24.3309ZM79.1698 24.0463L78.8911 17.7105L84.0502 17.4836L84.3289 23.8193L83.2428 23.8671L83.0055 18.4727L80.0186 18.6041L80.2559 23.9985L79.1698 24.0463ZM85.9581 23.7477L85.6794 17.4119L87.9874 17.3104C88.5546 17.2854 89.026 17.3494 89.4015 17.5021C89.7768 17.6488 90.0585 17.8692 90.2468 18.1632C90.4411 18.457 90.5472 18.809 90.5653 19.2193C90.5833 19.6296 90.5085 19.9896 90.3407 20.2993C90.179 20.6087 89.9178 20.8559 89.5572 21.0411C89.1963 21.2202 88.7322 21.3222 88.165 21.3472L86.9431 21.4009L87.0442 23.6999L85.9581 23.7477ZM86.9017 20.4596L88.0331 20.4098C88.6063 20.3846 88.9947 20.2799 89.1982 20.0956C89.4014 19.9053 89.4951 19.6291 89.4791 19.2671C89.4635 18.9111 89.3461 18.6472 89.1269 18.4755C88.9078 18.3037 88.5116 18.2305 87.9383 18.2557L86.807 18.3055L86.9017 20.4596ZM91.9332 23.4848L91.6545 17.1491L92.7407 17.1013L92.9437 21.7174L95.8542 16.9644L96.9042 16.9182L97.1829 23.2539L96.0967 23.3017L95.8937 18.6857L92.9832 23.4387L91.9332 23.4848ZM98.8099 23.1824L98.5312 16.8466L99.6174 16.7988L99.8547 22.1933L101.846 22.1057L101.609 16.7112L102.695 16.6635L102.932 22.0579L104.923 21.9703L104.686 16.5759L105.772 16.5281L106.051 22.8638L98.8099 23.1824ZM107.684 22.792L107.406 16.4562L111.66 16.2691L111.701 17.2104L108.533 17.3498L108.606 19.0152L111.503 18.8878L111.544 19.8291L108.648 19.9565L108.729 21.8029L111.897 21.6636L111.938 22.6049L107.684 22.792ZM112.986 22.6586C112.937 22.6607 112.883 22.6601 112.822 22.6567C112.768 22.6591 112.716 22.6553 112.668 22.6453L112.622 21.6135C112.641 21.6188 112.686 21.6198 112.758 21.6166C112.891 21.6108 113.008 21.5814 113.108 21.5287C113.208 21.4698 113.289 21.3666 113.349 21.2188C113.415 21.0708 113.463 20.8571 113.493 20.5777C113.529 20.298 113.546 19.9345 113.544 19.4872C113.543 19.0338 113.527 18.4783 113.498 17.8206L113.427 16.1914L117.862 15.9963L118.14 22.3321L117.054 22.3798L116.817 16.9854L114.518 17.0865L114.556 17.9554C114.591 18.7459 114.596 19.4137 114.572 19.9589C114.547 20.5041 114.495 20.9538 114.413 21.308C114.338 21.6559 114.232 21.9266 114.096 22.12C113.965 22.3132 113.805 22.4502 113.615 22.5311C113.431 22.6057 113.221 22.6482 112.986 22.6586Z" fill="#474766" fill-opacity="0.33"/>
<path d="M53.2401 50.9843L41.151 51.516L40.9936 47.9376L45.2248 47.7515L44.8302 38.7814L41.1996 41.6059L41.0082 37.2538L44.6377 34.4052L49.014 34.2127L49.6011 47.559L53.0827 47.4059L53.2401 50.9843ZM55.5465 50.8828L55.4104 47.788L60.8155 42.899C61.5146 42.2707 62.0799 41.721 62.5114 41.2498C62.9583 40.7618 63.2696 40.3121 63.4453 39.9006C63.6371 39.4884 63.7238 39.0728 63.7053 38.6537C63.6805 38.0895 63.5082 37.6611 63.1885 37.3683C62.8688 37.0755 62.4188 36.9419 61.8385 36.9674C61.0809 37.0007 60.5193 37.2677 60.1538 37.7682C59.7882 38.2688 59.626 38.9865 59.6671 39.9214L55.315 40.1129C55.254 38.7267 55.4444 37.5474 55.8861 36.5751C56.3433 35.586 57.0525 34.82 58.0138 34.2771C58.9743 33.718 60.1961 33.4059 61.679 33.3406C63.0652 33.2797 64.2199 33.4631 65.1431 33.8908C66.0818 34.3017 66.7945 34.9002 67.2812 35.6863C67.768 36.4724 68.0348 37.3973 68.0816 38.4612C68.1156 39.2349 67.9709 39.9841 67.6475 40.709C67.3234 41.4177 66.8689 42.0998 66.284 42.7554C65.7146 43.3941 65.0484 44.0371 64.2855 44.6844L61.4578 47.0375L68.6871 46.7195L68.8445 50.2979L55.5465 50.8828Z" fill="#474766"/>
<path d="M84.7771 49.8822C83.869 49.9222 83.0855 49.801 82.4266 49.5187C81.7791 49.224 81.2703 48.8154 80.9001 48.2929C80.5414 47.758 80.3473 47.156 80.3179 46.4869L82.0026 46.4127C82.0294 47.0221 82.2606 47.5148 82.6962 47.8907C83.1312 48.2546 83.8027 48.4166 84.7108 48.3767C85.6189 48.3368 86.2734 48.1104 86.6743 47.6977C87.0746 47.2731 87.2606 46.7381 87.2322 46.0929C87.2027 45.4238 86.964 44.8956 86.516 44.5082C86.0794 44.1084 85.413 43.9282 84.5169 43.9677L83.1727 44.0268L83.1096 42.593L84.4538 42.5338C85.3141 42.496 85.9276 42.2894 86.2941 41.9141C86.6602 41.5269 86.8291 41.0107 86.8007 40.3655C86.7733 39.7441 86.5668 39.2684 86.1812 38.9381C85.795 38.596 85.1598 38.4443 84.2756 38.4832C83.4273 38.5206 82.8141 38.7331 82.4361 39.1208C82.0695 39.4961 81.898 39.9526 81.9217 40.4903L80.2369 40.5644C80.2091 39.9311 80.3452 39.3505 80.6452 38.8225C80.9452 38.2945 81.3933 37.8678 81.9895 37.5423C82.5972 37.2043 83.3372 37.0161 84.2094 36.9777C85.0936 36.9388 85.8472 37.0613 86.4703 37.3452C87.1047 37.6165 87.5884 37.9963 87.9211 38.4845C88.2658 38.9722 88.4513 39.5147 88.4775 40.1121C88.5091 40.829 88.3447 41.4468 87.9844 41.9655C87.6356 42.4717 87.1251 42.8413 86.4529 43.0744C87.1798 43.2699 87.7637 43.6153 88.2045 44.1107C88.6453 44.6061 88.8854 45.3019 88.9248 46.198C88.9527 46.8313 88.8112 47.4242 88.5002 47.9766C88.1888 48.517 87.7176 48.9627 87.0865 49.3137C86.4669 49.6523 85.6971 49.8418 84.7771 49.8822ZM95.6197 49.4053C94.628 49.4489 93.791 49.3361 93.1087 49.0668C92.4379 48.785 91.9236 48.3887 91.5659 47.8776C91.2077 47.3547 91.0142 46.7646 90.9853 46.1074C90.9537 45.3905 91.1526 44.7413 91.582 44.1597C92.0108 43.5662 92.662 43.1305 93.5357 42.8526C92.881 42.6659 92.3154 42.3257 91.8387 41.8319C91.3621 41.338 91.1077 40.7267 91.0757 39.9978C91.0483 39.3765 91.179 38.8081 91.4676 38.2926C91.7681 37.7766 92.2167 37.3617 92.8135 37.0482C93.4217 36.7221 94.1679 36.5397 95.0521 36.5008C95.9482 36.4613 96.7076 36.5776 97.3301 36.8495C97.9521 37.1095 98.4295 37.4835 98.7622 37.9717C99.1069 38.4594 99.2929 39.0139 99.3202 39.6352C99.3518 40.3521 99.1515 40.9715 98.7196 41.4933C98.2995 42.0146 97.7665 42.4151 97.1203 42.695C98.0296 42.9543 98.7161 43.3191 99.1797 43.7896C99.6553 44.2595 99.911 44.9007 99.9467 45.7132C99.9756 46.3704 99.8346 46.9752 99.5237 47.5276C99.2123 48.068 98.7288 48.5083 98.0734 48.8484C97.4294 49.176 96.6115 49.3617 95.6197 49.4053ZM95.5535 47.8998C96.2465 47.8693 96.792 47.7495 97.1898 47.5405C97.5876 47.3314 97.8694 47.0676 98.0349 46.7491C98.2 46.4186 98.2741 46.0621 98.2572 45.6798C98.2278 45.0107 97.941 44.4786 97.3969 44.0835C96.8528 43.6884 96.1723 43.4609 95.3556 43.4011C94.5473 43.5324 93.8892 43.8128 93.3814 44.2422C92.8735 44.6715 92.6348 45.2327 92.6653 45.9258C92.6821 46.3081 92.7872 46.6567 92.9806 46.9714C93.1735 47.2742 93.4773 47.5122 93.892 47.6855C94.3066 47.8588 94.8605 47.9302 95.5535 47.8998ZM95.3004 42.1465C96.0131 42.0194 96.5886 41.7666 97.0269 41.3882C97.4647 40.9978 97.6688 40.468 97.6394 39.7989C97.6126 39.1895 97.389 38.7325 96.9685 38.4277C96.5595 38.1105 95.9428 37.97 95.1183 38.0063C94.2819 38.0431 93.6739 38.2374 93.2943 38.5893C92.9142 38.9293 92.7376 39.404 92.7644 40.0133C92.7938 40.6825 93.0437 41.1922 93.514 41.5427C93.9838 41.8812 94.5793 42.0824 95.3004 42.1465ZM104.206 42.3833C103.37 42.4201 102.671 42.1814 102.11 41.6674C101.548 41.1414 101.247 40.4363 101.208 39.5521L101.201 39.3729C101.175 38.7874 101.272 38.2684 101.491 37.8158C101.723 37.3626 102.048 37.0011 102.467 36.7313C102.898 36.4609 103.389 36.3136 103.938 36.2895C104.5 36.2648 105.001 36.3684 105.442 36.6004C105.883 36.8324 106.233 37.1642 106.492 37.5958C106.762 38.0269 106.91 38.5351 106.936 39.1206L106.944 39.2998C106.983 40.184 106.745 40.9128 106.232 41.4861C105.718 42.0474 105.043 42.3465 104.206 42.3833ZM104.146 41.0211C104.553 41.0033 104.869 40.8576 105.097 40.5842C105.324 40.3109 105.426 39.9053 105.402 39.3676L105.395 39.1884C105.371 38.6507 105.234 38.2557 104.983 38.0033C104.733 37.751 104.404 37.6337 103.998 37.6516C103.592 37.6695 103.275 37.8151 103.048 38.0885C102.82 38.3619 102.718 38.7674 102.742 39.3051L102.75 39.4843C102.773 40.022 102.911 40.417 103.161 40.6694C103.412 40.9217 103.74 41.039 104.146 41.0211ZM103.423 49.0621L111.474 36.1376L113.266 36.0587L105.215 48.9832L103.423 49.0621ZM112.75 48.8313C111.914 48.8681 111.215 48.6295 110.654 48.1155C110.092 47.5895 109.791 46.8844 109.753 46.0002L109.745 45.821C109.719 45.2355 109.816 44.7164 110.035 44.2638C110.267 43.8107 110.592 43.4492 111.011 43.1793C111.442 42.909 111.933 42.7617 112.482 42.7375C113.044 42.7128 113.545 42.8165 113.986 43.0485C114.428 43.2805 114.777 43.6123 115.036 44.0439C115.306 44.4749 115.454 44.9832 115.48 45.5687L115.488 45.7479C115.527 46.6321 115.29 47.3608 114.776 47.9341C114.262 48.4955 113.587 48.7945 112.75 48.8313ZM112.69 47.4692C113.097 47.4513 113.413 47.3057 113.641 47.0323C113.868 46.7589 113.97 46.3534 113.947 45.8157L113.939 45.6365C113.915 45.0988 113.778 44.7038 113.527 44.4514C113.277 44.199 112.948 44.0818 112.542 44.0997C112.136 44.1175 111.819 44.2632 111.592 44.5365C111.364 44.8099 111.262 45.2155 111.286 45.7532L111.294 45.9324C111.318 46.4701 111.455 46.8651 111.705 47.1175C111.956 47.3698 112.284 47.4871 112.69 47.4692Z" fill="#474766"/>
</g>
<path d="M247.481 181.459V178.346C247.306 178.461 247.06 178.565 246.743 178.66C246.427 178.754 246.063 178.801 245.652 178.801C244.823 178.801 244.22 178.616 243.842 178.245C243.465 177.868 243.276 177.272 243.276 176.456V174.384H244.226V176.456C244.226 176.989 244.344 177.373 244.58 177.609C244.816 177.838 245.207 177.952 245.753 177.952C246.17 177.952 246.518 177.902 246.794 177.801C247.077 177.699 247.306 177.592 247.481 177.477V174.384H248.431V181.459H247.481ZM250.452 181.459V174.384H255V175.213H251.402V177.406H254.697V178.235H251.402V180.631H255V181.459H250.452ZM258.367 181.459V175.213H255.911V174.384H261.774V175.213H259.317V181.459H258.367ZM262.988 181.459V174.384H265.514C266.357 174.384 266.97 174.563 267.354 174.92C267.745 175.27 267.94 175.722 267.94 176.274C267.94 176.638 267.839 176.952 267.637 177.214C267.435 177.47 267.186 177.656 266.889 177.77C267.307 177.865 267.637 178.057 267.88 178.346C268.122 178.629 268.243 179 268.243 179.458C268.243 179.842 268.159 180.186 267.991 180.489C267.822 180.786 267.553 181.021 267.182 181.197C266.812 181.372 266.323 181.459 265.717 181.459H262.988ZM263.938 180.631H265.717C266.323 180.631 266.737 180.523 266.96 180.307C267.182 180.085 267.293 179.792 267.293 179.428C267.293 179.057 267.182 178.764 266.96 178.549C266.737 178.326 266.32 178.215 265.707 178.215H263.938V180.631ZM263.938 177.427H265.514C266.08 177.427 266.468 177.322 266.677 177.113C266.886 176.904 266.99 176.638 266.99 176.315C266.99 175.985 266.886 175.718 266.677 175.516C266.468 175.314 266.08 175.213 265.514 175.213H263.938V177.427ZM269.759 181.459V174.384H274.307V175.213H270.709V177.406H274.004V178.235H270.709V180.631H274.307V181.459H269.759ZM275.928 181.459V174.384H278.354C278.98 174.384 279.493 174.479 279.89 174.667C280.294 174.849 280.594 175.105 280.79 175.435C280.985 175.759 281.083 176.133 281.083 176.557C281.083 176.975 280.985 177.349 280.79 177.679C280.594 178.009 280.294 178.269 279.89 178.458C279.493 178.639 278.98 178.73 278.354 178.73H276.878V181.459H275.928ZM276.878 177.902H278.303C278.977 177.902 279.449 177.78 279.718 177.538C279.995 177.295 280.133 176.968 280.133 176.557C280.133 176.146 279.995 175.819 279.718 175.577C279.449 175.334 278.977 175.213 278.303 175.213H276.878V177.902ZM282.551 181.459V174.384H286.998V175.213H283.501V181.459H282.551Z" fill="#134C75" fill-opacity="0.44"/>
<path d="M336.212 181.459V174.384H341.771V181.459H340.821V175.213H337.162V181.459H336.212ZM343.237 181.459L345.177 178.488C344.631 178.34 344.22 178.09 343.944 177.74C343.675 177.383 343.54 176.972 343.54 176.507C343.54 176.102 343.641 175.742 343.843 175.425C344.045 175.102 344.345 174.849 344.743 174.667C345.14 174.479 345.632 174.384 346.218 174.384H348.695V181.459H347.745V178.609H346.107L344.308 181.459H343.237ZM344.49 176.507C344.49 176.891 344.631 177.204 344.914 177.447C345.197 177.683 345.666 177.801 346.319 177.801H347.745V175.213H346.319C345.666 175.213 345.197 175.334 344.914 175.577C344.631 175.813 344.49 176.123 344.49 176.507ZM352.359 181.459V175.213H349.903V174.384H355.766V175.213H353.309V181.459H352.359ZM356.98 181.459V174.384H357.93V177.406H361.69V174.384H362.64V181.459H361.69V178.235H357.93V181.459H356.98ZM364.659 181.459V174.384H365.609V179.943L369.369 174.384H370.319V181.459H369.369V175.9L365.609 181.459H364.659ZM377.847 182.773V181.459H372.338V174.384H373.288V180.631H376.846V174.384H377.796V180.631H378.757V182.773H377.847ZM379.564 181.459L382.273 174.384H383.223L385.932 181.459H384.901L384.224 179.701H381.232L380.555 181.459H379.564ZM381.546 178.872H383.911L382.728 175.597L381.546 178.872Z" fill="#134C75" fill-opacity="0.44"/>
<path d="M428.537 181.561C428.012 181.561 427.523 181.436 427.072 181.187C426.62 180.937 426.253 180.55 425.97 180.024C425.694 179.492 425.556 178.808 425.556 177.972V177.77C425.556 177.164 425.637 176.642 425.798 176.204C425.96 175.766 426.179 175.405 426.455 175.122C426.732 174.839 427.048 174.63 427.405 174.495C427.769 174.354 428.147 174.283 428.537 174.283C428.921 174.283 429.272 174.334 429.589 174.435C429.912 174.536 430.195 174.681 430.438 174.869C430.68 175.058 430.876 175.291 431.024 175.567C431.179 175.843 431.277 176.156 431.317 176.507H430.306C430.212 176.049 430.013 175.705 429.71 175.476C429.407 175.247 429.016 175.132 428.537 175.132C428.207 175.132 427.891 175.216 427.587 175.385C427.284 175.553 427.038 175.833 426.849 176.224C426.661 176.608 426.566 177.123 426.566 177.77V177.972C426.566 178.484 426.624 178.916 426.738 179.266C426.86 179.617 427.018 179.9 427.213 180.115C427.409 180.324 427.621 180.476 427.85 180.57C428.086 180.664 428.315 180.712 428.537 180.712C429.063 180.712 429.474 180.583 429.771 180.327C430.067 180.071 430.246 179.741 430.306 179.337H431.317C431.263 179.728 431.155 180.065 430.994 180.348C430.832 180.631 430.626 180.863 430.377 181.045C430.134 181.22 429.855 181.352 429.538 181.439C429.228 181.52 428.895 181.561 428.537 181.561ZM433.585 181.561C433.511 181.561 433.437 181.557 433.363 181.55C433.295 181.55 433.235 181.547 433.181 181.54V180.691C433.235 180.698 433.295 180.705 433.363 180.712C433.437 180.712 433.511 180.712 433.585 180.712C433.781 180.712 433.936 180.688 434.05 180.641C434.171 180.594 434.276 180.509 434.363 180.388C434.451 180.267 434.542 180.092 434.636 179.862L431.715 174.384H432.746L435.111 178.882L437.113 174.384H438.083L435.506 180.075C435.391 180.331 435.273 180.553 435.152 180.742C435.031 180.931 434.896 181.085 434.748 181.207C434.599 181.328 434.431 181.416 434.242 181.47C434.054 181.53 433.835 181.561 433.585 181.561ZM439.295 181.459V174.384H443.894V175.203H440.245V177.214H441.822C442.759 177.214 443.446 177.41 443.884 177.801C444.329 178.191 444.551 178.703 444.551 179.337C444.551 179.97 444.329 180.482 443.884 180.873C443.446 181.264 442.759 181.459 441.822 181.459H439.295ZM440.245 180.631H441.772C442.445 180.631 442.917 180.519 443.187 180.297C443.463 180.068 443.601 179.748 443.601 179.337C443.601 178.926 443.463 178.609 443.187 178.387C442.917 178.158 442.445 178.043 441.772 178.043H440.245V180.631ZM446.017 181.459V174.384H450.616V175.203H446.967V177.214H448.544C449.481 177.214 450.168 177.41 450.606 177.801C451.051 178.191 451.273 178.703 451.273 179.337C451.273 179.97 451.051 180.482 450.606 180.873C450.168 181.264 449.481 181.459 448.544 181.459H446.017ZM446.967 180.631H448.493C449.167 180.631 449.639 180.519 449.908 180.297C450.185 180.068 450.323 179.748 450.323 179.337C450.323 178.926 450.185 178.609 449.908 178.387C449.639 178.158 449.167 178.043 448.493 178.043H446.967V180.631ZM455.468 181.561C455.064 181.561 454.673 181.493 454.296 181.358C453.925 181.217 453.591 181.001 453.295 180.712C452.998 180.422 452.763 180.051 452.587 179.6C452.419 179.148 452.335 178.606 452.335 177.972V177.77C452.335 177.164 452.419 176.642 452.587 176.204C452.763 175.766 452.998 175.405 453.295 175.122C453.591 174.832 453.925 174.62 454.296 174.485C454.673 174.351 455.064 174.283 455.468 174.283C455.872 174.283 456.26 174.351 456.63 174.485C457.008 174.62 457.345 174.832 457.641 175.122C457.938 175.405 458.17 175.766 458.339 176.204C458.514 176.642 458.601 177.164 458.601 177.77V177.972C458.601 178.606 458.514 179.148 458.339 179.6C458.17 180.051 457.938 180.422 457.641 180.712C457.345 181.001 457.008 181.217 456.63 181.358C456.26 181.493 455.872 181.561 455.468 181.561ZM455.468 180.712C455.839 180.712 456.182 180.621 456.499 180.439C456.822 180.257 457.085 179.964 457.287 179.559C457.489 179.155 457.591 178.626 457.591 177.972V177.77C457.591 177.15 457.489 176.648 457.287 176.264C457.085 175.873 456.822 175.587 456.499 175.405C456.182 175.223 455.839 175.132 455.468 175.132C455.104 175.132 454.76 175.223 454.437 175.405C454.114 175.587 453.851 175.873 453.649 176.264C453.446 176.648 453.345 177.15 453.345 177.77V177.972C453.345 178.626 453.446 179.155 453.649 179.559C453.851 179.964 454.114 180.257 454.437 180.439C454.76 180.621 455.104 180.712 455.468 180.712ZM461.671 181.459V175.213H459.215V174.384H465.077V175.213H462.621V181.459H461.671ZM464.673 181.459L467.382 174.384H468.332L471.041 181.459H470.01L469.333 179.701H466.341L465.664 181.459H464.673ZM466.654 178.872H469.02L467.837 175.597L466.654 178.872Z" fill="#134C75" fill-opacity="0.44"/>
<path d="M228.466 165.684C255.965 165.684 252.292 118.454 281.679 118.454C309.493 118.454 297.422 144.168 322.087 144.168C346.752 144.168 336.257 73.3229 361.97 73.3229C382.961 73.3229 375.089 119.503 394.506 119.503C413.922 119.503 405.528 49.7079 433.873 49.7079C462.219 49.7079 446.997 94.8386 472.967 94.8386V165.684H230.566" fill="#F7F8FF"/>
<path d="M284.033 118.62C284.033 121.513 281.687 123.859 278.793 123.859C275.898 123.859 273.554 121.513 273.554 118.62C273.554 115.726 275.899 113.379 278.793 113.379C281.686 113.379 284.033 115.725 284.033 118.62Z" fill="#F17E00"/>
<path d="M366.247 74.5531C366.247 77.4465 363.901 79.7934 361.007 79.7934C358.113 79.7934 355.768 77.4478 355.768 74.5531C355.768 71.6597 358.113 69.3127 361.007 69.3127C363.901 69.3141 366.247 71.6597 366.247 74.5531Z" fill="#F17E00"/>
<path d="M442.98 45.8208C442.98 48.7142 440.635 51.0611 437.74 51.0611C434.847 51.0611 432.501 48.7155 432.501 45.8208C432.501 42.9274 434.847 40.5804 437.74 40.5804C440.635 40.5818 442.98 42.9274 442.98 45.8208Z" fill="#F17E00"/>
<path d="M275.668 85.7253V110.489L273.152 106.44H248.377V85.7253H275.668Z" fill="#66A0F7"/>
<path d="M256.562 99.2666V97.6531H258.241V93.6084L256.562 94.8076V92.8453L258.252 91.6351H260.214V97.6531H261.577V99.2666H256.562ZM265.28 99.4083C264.851 99.4083 264.451 99.3393 264.081 99.2012C263.71 99.0558 263.387 98.8269 263.11 98.5144C262.834 98.2018 262.616 97.7948 262.456 97.2933C262.304 96.7846 262.227 96.1704 262.227 95.4509V95.2328C262.227 94.5642 262.304 93.9936 262.456 93.5212C262.616 93.0488 262.834 92.6636 263.11 92.3656C263.387 92.0676 263.71 91.8495 264.081 91.7115C264.451 91.5661 264.851 91.4934 265.28 91.4934C265.709 91.4934 266.108 91.5661 266.479 91.7115C266.85 91.8495 267.173 92.0676 267.449 92.3656C267.726 92.6636 267.94 93.0488 268.093 93.5212C268.253 93.9936 268.332 94.5642 268.332 95.2328V95.4509C268.332 96.1704 268.253 96.7846 268.093 97.2933C267.94 97.7948 267.726 98.2018 267.449 98.5144C267.173 98.8269 266.85 99.0558 266.479 99.2012C266.108 99.3393 265.709 99.4083 265.28 99.4083ZM265.28 97.7948C265.425 97.7948 265.563 97.7585 265.694 97.6858C265.825 97.6131 265.938 97.4896 266.032 97.3151C266.134 97.1334 266.214 96.8936 266.272 96.5956C266.33 96.2903 266.359 95.9088 266.359 95.4509V95.2328C266.359 94.695 266.312 94.2734 266.217 93.9682C266.123 93.6557 265.992 93.434 265.825 93.3032C265.658 93.1723 265.476 93.1069 265.28 93.1069C265.084 93.1069 264.902 93.1723 264.735 93.3032C264.575 93.434 264.444 93.6557 264.342 93.9682C264.241 94.2734 264.19 94.695 264.19 95.2328V95.4509C264.19 95.9088 264.219 96.2903 264.277 96.5956C264.335 96.8936 264.415 97.1334 264.517 97.3151C264.626 97.4896 264.742 97.6131 264.866 97.6858C264.996 97.7585 265.135 97.7948 265.28 97.7948Z" fill="white"/>
<path d="M361.008 40.5798V65.3441L363.324 61.2949H386.134V40.5798H361.008Z" fill="#66A0F7"/>
<path d="M435.741 14.0051V38.7693L438.057 34.7202H460.868V14.0051H435.741Z" fill="#66A0F7"/>
<path d="M368.843 54.4115V52.798H370.522V48.7533L368.843 49.9525V47.9902L370.533 46.78H372.496V52.798H373.858V54.4115H368.843ZM377.289 54.5532C376.773 54.5532 376.322 54.4842 375.937 54.3461C375.559 54.208 375.257 53.99 375.032 53.692C374.814 53.3867 374.676 52.9906 374.618 52.5036H376.471C376.522 52.6708 376.616 52.8016 376.754 52.8961C376.892 52.9833 377.089 53.0269 377.343 53.0269C377.583 53.0269 377.79 52.9688 377.965 52.8525C378.146 52.7362 378.288 52.54 378.39 52.2638C378.499 51.9876 378.561 51.5951 378.575 51.0864C378.401 51.3407 378.157 51.5188 377.845 51.6206C377.532 51.7223 377.201 51.7732 376.853 51.7732C376.344 51.7732 375.908 51.6751 375.544 51.4788C375.188 51.2826 374.916 51.0064 374.727 50.6503C374.545 50.2869 374.454 49.8653 374.454 49.3856V49.2766C374.454 48.746 374.574 48.2809 374.814 47.8811C375.054 47.4814 375.392 47.1761 375.828 46.9654C376.264 46.7473 376.769 46.6383 377.343 46.6383C378.019 46.6383 378.586 46.7619 379.044 47.009C379.509 47.2488 379.858 47.6413 380.09 48.1864C380.33 48.7242 380.45 49.4365 380.45 50.3232V50.5413C380.45 51.5079 380.316 52.2856 380.047 52.8743C379.785 53.4557 379.415 53.8809 378.935 54.1498C378.462 54.4188 377.914 54.5532 377.289 54.5532ZM377.452 50.3559C377.772 50.3559 378.023 50.2651 378.204 50.0834C378.393 49.8944 378.488 49.6364 378.488 49.3093V49.2112C378.488 48.8987 378.39 48.6479 378.193 48.459C378.005 48.2627 377.757 48.1646 377.452 48.1646C377.132 48.1646 376.878 48.2591 376.689 48.4481C376.507 48.6298 376.416 48.8805 376.416 49.2003V49.3093C376.416 49.6364 376.507 49.8944 376.689 50.0834C376.878 50.2651 377.132 50.3559 377.452 50.3559Z" fill="white"/>
<path d="M441.797 27.8369V26.4414L444.326 24.3482C444.653 24.0793 444.919 23.8431 445.122 23.6396C445.333 23.4288 445.482 23.2326 445.569 23.0509C445.664 22.8692 445.711 22.6839 445.711 22.4949C445.711 22.2405 445.642 22.0443 445.504 21.9062C445.366 21.7681 445.166 21.699 444.904 21.699C444.562 21.699 444.304 21.8081 444.13 22.0261C443.956 22.2441 443.868 22.5639 443.868 22.9855H441.906C441.906 22.3604 442.015 21.8335 442.233 21.4047C442.458 20.9686 442.793 20.6379 443.236 20.4126C443.679 20.18 444.235 20.0637 444.904 20.0637C445.529 20.0637 446.045 20.1691 446.452 20.3799C446.866 20.5834 447.175 20.8668 447.379 21.2302C447.582 21.5936 447.684 22.0152 447.684 22.4949C447.684 22.8438 447.604 23.1781 447.444 23.4979C447.284 23.8104 447.066 24.1084 446.79 24.3919C446.521 24.668 446.209 24.9442 445.853 25.2204L444.533 26.2234H447.793V27.8369H441.797ZM451.449 27.9786C450.802 27.9786 450.257 27.8624 449.814 27.6298C449.378 27.3972 449.051 27.0774 448.833 26.6704C448.615 26.2634 448.506 25.7982 448.506 25.2749H450.468C450.468 25.6311 450.548 25.9 450.708 26.0817C450.875 26.2561 451.144 26.3433 451.515 26.3433C451.82 26.3433 452.045 26.267 452.19 26.1144C452.343 25.9545 452.419 25.7437 452.419 25.4821C452.419 25.2059 452.343 24.9951 452.19 24.8497C452.038 24.7044 451.791 24.6317 451.449 24.6317H450.806V23.1926H451.449C451.74 23.1926 451.954 23.1272 452.092 22.9964C452.238 22.8656 452.31 22.673 452.31 22.4186C452.31 22.1933 452.241 22.0188 452.103 21.8953C451.965 21.7644 451.769 21.699 451.515 21.699C451.195 21.699 450.959 21.779 450.806 21.9389C450.653 22.0988 450.577 22.3386 450.577 22.6584H448.615C448.615 22.1133 448.724 21.6482 448.942 21.263C449.16 20.8777 449.48 20.5834 449.901 20.3799C450.33 20.1691 450.846 20.0637 451.449 20.0637C452.052 20.0637 452.565 20.1546 452.986 20.3363C453.408 20.5107 453.728 20.7578 453.946 21.0776C454.171 21.3974 454.284 21.7644 454.284 22.1787C454.284 22.593 454.167 22.9455 453.935 23.2362C453.702 23.527 453.39 23.7341 452.997 23.8577C453.455 23.9812 453.8 24.192 454.033 24.49C454.273 24.788 454.393 25.1768 454.393 25.6565C454.393 26.1144 454.273 26.5214 454.033 26.8775C453.793 27.2264 453.452 27.4989 453.008 27.6952C452.572 27.8842 452.052 27.9786 451.449 27.9786Z" fill="white"/>
<rect x="0.477539" y="144.06" width="208.461" height="41.7209" rx="20.8605" fill="url(#paint1_linear_4301_758)"/>
<path d="M22.4219 170.101V160.101H31.1368V170.101H28.5652V162.215H24.9935V170.101H22.4219ZM36.4229 170.287C35.7181 170.287 35.0704 170.149 34.4799 169.873C33.8989 169.596 33.4322 169.168 33.0798 168.587C32.7369 167.996 32.5655 167.263 32.5655 166.387V166.101C32.5655 165.282 32.7369 164.596 33.0798 164.044C33.4322 163.482 33.8989 163.058 34.4799 162.772C35.0704 162.486 35.7181 162.344 36.4229 162.344C37.1372 162.344 37.7849 162.486 38.3659 162.772C38.9469 163.058 39.4088 163.482 39.7517 164.044C40.1041 164.596 40.2803 165.282 40.2803 166.101V166.387C40.2803 167.253 40.1041 167.977 39.7517 168.558C39.4088 169.13 38.9469 169.563 38.3659 169.858C37.7849 170.144 37.1372 170.287 36.4229 170.287ZM36.4229 168.458C36.7658 168.458 37.0562 168.377 37.2944 168.215C37.5325 168.044 37.7134 167.801 37.8373 167.487C37.9611 167.172 38.023 166.806 38.023 166.387V166.101C38.023 165.72 37.9611 165.387 37.8373 165.101C37.7134 164.815 37.5325 164.591 37.2944 164.429C37.0562 164.258 36.7658 164.172 36.4229 164.172C36.08 164.172 35.7895 164.258 35.5514 164.429C35.3133 164.591 35.1323 164.815 35.0085 165.101C34.8847 165.387 34.8228 165.72 34.8228 166.101V166.387C34.8228 166.825 34.8847 167.201 35.0085 167.515C35.1323 167.82 35.3133 168.053 35.5514 168.215C35.7895 168.377 36.08 168.458 36.4229 168.458ZM40.8478 171.887V168.301H41.6479C41.7812 168.101 41.886 167.858 41.9622 167.572C42.0479 167.277 42.1098 166.915 42.1479 166.487C42.186 166.058 42.2051 165.549 42.2051 164.958V162.529H48.4198V168.301H49.277V171.887H47.4197V170.101H42.7051V171.887H40.8478ZM43.8052 168.301H46.2196V164.329H44.2338V165.244C44.2338 165.968 44.2004 166.577 44.1338 167.072C44.0671 167.558 43.9576 167.968 43.8052 168.301ZM50.7847 170.287C50.6989 170.287 50.5846 170.282 50.4418 170.273C50.3084 170.273 50.2037 170.263 50.1275 170.244V168.315C50.156 168.325 50.2275 168.33 50.3418 168.33C50.5608 168.33 50.7418 168.239 50.8847 168.058C51.0371 167.877 51.1466 167.572 51.2133 167.144C51.2895 166.715 51.3275 166.13 51.3275 165.387V162.529H57.628V170.101H55.4278V164.329H53.3991V165.672C53.3991 166.615 53.342 167.391 53.2277 168.001C53.1134 168.611 52.9467 169.082 52.7276 169.415C52.5086 169.739 52.2324 169.968 51.899 170.101C51.5752 170.225 51.2037 170.287 50.7847 170.287ZM59.0667 170.101V162.529H61.2097V167.101L64.4242 162.529H66.3529V170.101H64.2099V165.529L60.9954 170.101H59.0667ZM69.6867 170.101V164.329H67.358V162.529H74.2156V164.329H71.8868V170.101H69.6867ZM75.3518 170.101V162.529H77.5519V164.987H79.0663C80.0569 164.987 80.8045 165.196 81.3093 165.615C81.8141 166.034 82.0665 166.677 82.0665 167.544C82.0665 168.039 81.9665 168.482 81.7665 168.873C81.5665 169.263 81.2474 169.568 80.8093 169.787C80.3712 169.996 79.7902 170.101 79.0663 170.101H75.3518ZM77.5519 168.444H78.7806C79.1711 168.444 79.4473 168.373 79.6092 168.23C79.7807 168.077 79.8664 167.849 79.8664 167.544C79.8664 167.23 79.7807 167.001 79.6092 166.858C79.4473 166.715 79.1711 166.644 78.7806 166.644H77.5519V168.444ZM88.9928 170.287C88.4499 170.287 87.9832 170.182 87.5927 169.973C87.2117 169.763 86.9212 169.477 86.7212 169.115C86.5212 168.744 86.4212 168.334 86.4212 167.887C86.4212 167.134 86.6498 166.558 87.1069 166.158C87.5736 165.758 88.2737 165.558 89.2071 165.558H91.3501V165.244C91.3501 164.787 91.2405 164.472 91.0215 164.301C90.8119 164.129 90.5167 164.044 90.1357 164.044C89.7738 164.044 89.5071 164.101 89.3357 164.215C89.1642 164.32 89.069 164.496 89.0499 164.744H86.8498C86.8783 164.287 87.0212 163.877 87.2784 163.515C87.5451 163.153 87.9213 162.867 88.407 162.658C88.9023 162.448 89.5023 162.344 90.2071 162.344C90.8739 162.344 91.4596 162.444 91.9644 162.644C92.4692 162.844 92.8597 163.167 93.1359 163.615C93.4216 164.053 93.5645 164.644 93.5645 165.387V168.172C93.5645 168.573 93.574 168.925 93.5931 169.23C93.6121 169.525 93.6407 169.815 93.6788 170.101H91.5787C91.5691 169.939 91.5549 169.796 91.5358 169.673C91.5263 169.549 91.5215 169.396 91.5215 169.215C91.2929 169.52 90.9739 169.777 90.5643 169.987C90.1643 170.187 89.6404 170.287 88.9928 170.287ZM89.7071 168.73C90.0214 168.73 90.3024 168.673 90.55 168.558C90.7977 168.444 90.9929 168.273 91.1358 168.044C91.2786 167.806 91.3501 167.539 91.3501 167.244V166.93H89.6357C89.3118 166.93 89.069 167.015 88.9071 167.187C88.7547 167.358 88.6785 167.553 88.6785 167.772C88.6785 168.058 88.7547 168.292 88.9071 168.473C89.069 168.644 89.3357 168.73 89.7071 168.73ZM98.566 170.287C97.8326 170.287 97.1706 170.125 96.5801 169.801C95.9991 169.468 95.5419 168.977 95.2086 168.33C94.8752 167.672 94.7086 166.858 94.7086 165.887V165.601C94.7086 164.467 94.8371 163.501 95.0943 162.701C95.3515 161.891 95.7753 161.263 96.3658 160.815C96.9563 160.367 97.7564 160.12 98.766 160.072C99.166 160.053 99.5613 160.039 99.9518 160.029C100.342 160.02 100.704 159.996 101.038 159.958C101.371 159.91 101.642 159.839 101.852 159.743V161.629C101.757 161.686 101.595 161.739 101.366 161.786C101.147 161.834 100.842 161.872 100.452 161.901C100.071 161.92 99.5803 161.939 98.9803 161.958C98.4279 161.958 97.9707 162.039 97.6088 162.201C97.2563 162.353 96.9849 162.596 96.7944 162.929C96.6134 163.263 96.4896 163.706 96.423 164.258C96.5658 164.001 96.7563 163.772 96.9944 163.572C97.2421 163.372 97.5468 163.215 97.9088 163.101C98.2802 162.977 98.7136 162.915 99.2089 162.915C99.8375 162.915 100.395 163.039 100.88 163.286C101.366 163.525 101.742 163.886 102.009 164.372C102.285 164.858 102.423 165.472 102.423 166.215V166.472C102.423 167.272 102.252 167.958 101.909 168.53C101.566 169.101 101.104 169.539 100.523 169.844C99.9422 170.139 99.2898 170.287 98.566 170.287ZM98.566 168.458C99.0803 168.458 99.4755 168.296 99.7518 167.972C100.028 167.639 100.166 167.206 100.166 166.672V166.387C100.166 165.815 100.023 165.377 99.7375 165.072C99.4517 164.758 99.0612 164.601 98.566 164.601C98.0802 164.601 97.6897 164.758 97.3945 165.072C97.1087 165.377 96.9659 165.815 96.9659 166.387V166.615C96.9659 166.977 97.0325 167.301 97.1659 167.587C97.3087 167.863 97.4992 168.077 97.7373 168.23C97.985 168.382 98.2612 168.458 98.566 168.458ZM107.145 170.287C106.44 170.287 105.792 170.149 105.202 169.873C104.621 169.596 104.154 169.168 103.802 168.587C103.459 167.996 103.287 167.263 103.287 166.387V166.101C103.287 165.282 103.459 164.596 103.802 164.044C104.154 163.482 104.621 163.058 105.202 162.772C105.792 162.486 106.44 162.344 107.145 162.344C107.859 162.344 108.507 162.486 109.088 162.772C109.669 163.058 110.131 163.482 110.473 164.044C110.826 164.596 111.002 165.282 111.002 166.101V166.387C111.002 167.253 110.826 167.977 110.473 168.558C110.131 169.13 109.669 169.563 109.088 169.858C108.507 170.144 107.859 170.287 107.145 170.287ZM107.145 168.458C107.488 168.458 107.778 168.377 108.016 168.215C108.254 168.044 108.435 167.801 108.559 167.487C108.683 167.172 108.745 166.806 108.745 166.387V166.101C108.745 165.72 108.683 165.387 108.559 165.101C108.435 164.815 108.254 164.591 108.016 164.429C107.778 164.258 107.488 164.172 107.145 164.172C106.802 164.172 106.511 164.258 106.273 164.429C106.035 164.591 105.854 164.815 105.73 165.101C105.606 165.387 105.545 165.72 105.545 166.101V166.387C105.545 166.825 105.606 167.201 105.73 167.515C105.854 167.82 106.035 168.053 106.273 168.215C106.511 168.377 106.802 168.458 107.145 168.458ZM112.139 170.101V162.529H114.34V165.344H117.225V162.529H119.426V170.101H117.225V167.144H114.34V170.101H112.139ZM124.502 170.287C123.759 170.287 123.093 170.149 122.502 169.873C121.912 169.587 121.44 169.154 121.088 168.573C120.745 167.992 120.574 167.263 120.574 166.387V166.101C120.574 165.263 120.74 164.567 121.074 164.015C121.407 163.463 121.859 163.048 122.431 162.772C123.012 162.486 123.655 162.344 124.36 162.344C125.607 162.344 126.55 162.667 127.188 163.315C127.826 163.953 128.145 164.882 128.145 166.101V166.901H122.831C122.85 167.272 122.936 167.582 123.088 167.83C123.25 168.077 123.455 168.258 123.702 168.373C123.95 168.477 124.217 168.53 124.502 168.53C124.921 168.53 125.25 168.468 125.488 168.344C125.736 168.211 125.898 168.034 125.974 167.815H128.003C127.85 168.644 127.474 169.263 126.874 169.673C126.274 170.082 125.483 170.287 124.502 170.287ZM124.431 164.101C124.164 164.101 123.912 164.144 123.674 164.229C123.436 164.315 123.24 164.458 123.088 164.658C122.945 164.848 122.864 165.11 122.845 165.444H125.988C125.988 165.091 125.917 164.82 125.774 164.629C125.631 164.429 125.441 164.291 125.202 164.215C124.974 164.139 124.717 164.101 124.431 164.101ZM129.286 170.101V162.529H131.958L133.758 166.287L135.558 162.529H138.144V170.101H136.058V165.458L134.429 168.673H133.001L131.372 165.458V170.101H129.286ZM143.212 170.287C142.469 170.287 141.802 170.149 141.212 169.873C140.621 169.587 140.15 169.154 139.797 168.573C139.454 167.992 139.283 167.263 139.283 166.387V166.101C139.283 165.263 139.45 164.567 139.783 164.015C140.116 163.463 140.569 163.048 141.14 162.772C141.721 162.486 142.364 162.344 143.069 162.344C144.317 162.344 145.26 162.667 145.898 163.315C146.536 163.953 146.855 164.882 146.855 166.101V166.901H141.54C141.559 167.272 141.645 167.582 141.797 167.83C141.959 168.077 142.164 168.258 142.412 168.373C142.659 168.477 142.926 168.53 143.212 168.53C143.631 168.53 143.959 168.468 144.198 168.344C144.445 168.211 144.607 168.034 144.683 167.815H146.712C146.56 168.644 146.183 169.263 145.583 169.673C144.983 170.082 144.193 170.287 143.212 170.287ZM143.14 164.101C142.874 164.101 142.621 164.144 142.383 164.229C142.145 164.315 141.95 164.458 141.797 164.658C141.655 164.848 141.574 165.11 141.555 165.444H144.698C144.698 165.091 144.626 164.82 144.483 164.629C144.34 164.429 144.15 164.291 143.912 164.215C143.683 164.139 143.426 164.101 143.14 164.101ZM147.996 170.101V162.529H150.196V165.344H153.082V162.529H155.282V170.101H153.082V167.144H150.196V170.101H147.996Z" fill="white"/>
<g filter="url(#filter1_d_4301_758)">
<circle cx="184.073" cy="164.921" r="12.9406" transform="rotate(-1.02282 184.073 164.921)" fill="#FC9F30" stroke="#FC9F30" stroke-width="1.23244"/>
<path d="M181.499 158.804L187.77 164.855L181.719 171.126" stroke="white" stroke-width="1.23244"/>
</g>
<defs>
<filter id="filter0_d_4301_758" x="20.4464" y="1.69909" width="133.729" height="68.3551" filterUnits="userSpaceOnUse" color-interpolation-filters="sRGB">
<feFlood flood-opacity="0" result="BackgroundImageFix"/>
<feColorMatrix in="SourceAlpha" type="matrix" values="0 0 0 0 0 0 0 0 0 0 0 0 0 0 0 0 0 0 127 0" result="hardAlpha"/>
<feOffset dy="3.55348"/>
<feGaussianBlur stdDeviation="3.02045"/>
<feComposite in2="hardAlpha" operator="out"/>
<feColorMatrix type="matrix" values="0 0 0 0 0.0745098 0 0 0 0 0.298039 0 0 0 0 0.458824 0 0 0 0.08 0"/>
<feBlend mode="normal" in2="BackgroundImageFix" result="effect1_dropShadow_4301_758"/>
<feBlend mode="normal" in="SourceGraphic" in2="effect1_dropShadow_4301_758" result="shape"/>
</filter>
<filter id="filter1_d_4301_758" x="156.72" y="137.567" width="54.7074" height="54.7069" filterUnits="userSpaceOnUse" color-interpolation-filters="sRGB">
<feFlood flood-opacity="0" result="BackgroundImageFix"/>
<feColorMatrix in="SourceAlpha" type="matrix" values="0 0 0 0 0 0 0 0 0 0 0 0 0 0 0 0 0 0 127 0" result="hardAlpha"/>
<feOffset/>
<feGaussianBlur stdDeviation="6.7784"/>
<feComposite in2="hardAlpha" operator="out"/>
<feColorMatrix type="matrix" values="0 0 0 0 0.117647 0 0 0 0 0.627451 0 0 0 0 0.870588 0 0 0 0.15 0"/>
<feBlend mode="normal" in2="BackgroundImageFix" result="effect1_dropShadow_4301_758"/>
<feBlend mode="normal" in="SourceGraphic" in2="effect1_dropShadow_4301_758" result="shape"/>
</filter>
<linearGradient id="paint0_linear_4301_758" x1="86.2354" y1="9.19421" x2="86.2354" y2="60.7769" gradientUnits="userSpaceOnUse">
<stop stop-color="#EEF1FF"/>
<stop offset="1" stop-color="#EEF8FF"/>
</linearGradient>
<linearGradient id="paint1_linear_4301_758" x1="-71.7185" y1="149.143" x2="193.5" y2="213.838" gradientUnits="userSpaceOnUse">
<stop stop-color="#FA9D2F"/>
<stop offset="0.73888" stop-color="#F28309"/>
<stop offset="0.885" stop-color="#F17E01"/>
</linearGradient>
</defs>
</svg>
