<svg width="296" height="237" viewBox="0 0 296 237" fill="none" xmlns="http://www.w3.org/2000/svg">
<rect x="1.23771" y="31.4046" width="293.694" height="46.6005" rx="13.9787" transform="rotate(0.300639 1.23771 31.4046)" fill="#F3F5F9" stroke="#EDF1FF" stroke-width="1.47144"/>
<path d="M1.88757 17.3262L1.94701 5.99871L6.78547 6.0241C8.05847 6.03078 8.99022 6.30538 9.58074 6.8479C10.1821 7.37969 10.4803 8.12026 10.4753 9.06961C10.4723 9.65217 10.324 10.1531 10.0305 10.5723C9.74785 10.9807 9.36332 11.2754 8.87689 11.4562C9.52338 11.6107 10.0288 11.9208 10.3932 12.3866C10.7576 12.8416 10.9379 13.4359 10.934 14.1695C10.9306 14.8168 10.7928 15.3825 10.5206 15.8665C10.2484 16.3398 9.82028 16.7098 9.23631 16.9764C8.65239 17.2323 7.88576 17.3577 6.9364 17.3527L1.88757 17.3262ZM4.30839 15.4941L6.50916 15.5057C7.26433 15.5096 7.78823 15.3829 8.08087 15.1255C8.37351 14.8681 8.52116 14.4859 8.52382 13.9789C8.52648 13.4718 8.38291 13.0773 8.0931 12.7953C7.81414 12.5025 7.28628 12.3541 6.50954 12.3501L4.32495 12.3386L4.30839 15.4941ZM4.33361 10.688L6.27547 10.6982C6.93354 10.7017 7.39272 10.5746 7.65299 10.317C7.92405 10.0595 8.06074 9.70964 8.06306 9.26733C8.06544 8.81423 7.93779 8.46833 7.68012 8.22963C7.42246 7.99093 6.96458 7.86986 6.30651 7.86641L4.34847 7.85613L4.33361 10.688ZM12.5627 17.3822L12.6077 8.8057L14.7276 8.81682L14.6987 14.3188L18.5466 8.83686L20.5046 8.84713L20.4596 17.4237L18.3398 17.4126L18.3686 11.9106L14.5208 17.3925L12.5627 17.3822ZM21.7655 19.4534L21.7854 15.6505L22.7563 15.6556C22.9086 15.4299 23.029 15.0907 23.1177 14.638C23.2172 14.1854 23.29 13.6788 23.336 13.118C23.393 12.5465 23.4229 11.9857 23.4258 11.4355L23.4393 8.86253L30.1549 8.89777L30.1192 15.6943L31.1549 15.6997L31.1349 19.5025L29.274 19.4928L29.2846 17.47L23.637 17.4403L23.6264 19.4631L21.7655 19.4534ZM24.8438 15.6666L27.9832 15.6831L28.0095 10.6666L25.3718 10.6528L25.3659 11.7693C25.362 12.5245 25.3204 13.2579 25.2411 13.9695C25.1727 14.6704 25.0403 15.2361 24.8438 15.6666ZM36.5831 17.5083L36.6281 8.93173L38.748 8.94286L38.7306 12.2602L42.3878 12.2794L42.4052 8.96205L44.525 8.97317L44.48 17.5497L42.3602 17.5386L42.3784 14.0594L38.7212 14.0402L38.703 17.5194L36.5831 17.5083ZM49.0157 17.7677C48.4008 17.7645 47.8781 17.6485 47.4478 17.4196C47.0175 17.18 46.6902 16.8547 46.4658 16.4435C46.2414 16.0324 46.1305 15.5679 46.1333 15.0501C46.1378 14.187 46.3947 13.5411 46.904 13.1122C47.4241 12.6834 48.1966 12.4717 49.2215 12.4771L51.7782 12.4905L51.7804 12.0859C51.7833 11.525 51.6559 11.1305 51.3982 10.9026C51.1513 10.6747 50.7527 10.5594 50.2025 10.5565C49.717 10.5539 49.366 10.6384 49.1493 10.8099C48.9327 10.9706 48.8075 11.1749 48.7739 11.4229L46.6378 11.4116C46.6728 10.9156 46.8315 10.4741 47.1141 10.0872C47.4075 9.68954 47.819 9.37884 48.3488 9.15506C48.8895 8.92055 49.5374 8.80528 50.2926 8.80924C51.0262 8.81309 51.6621 8.92431 52.2004 9.14291C52.7494 9.36155 53.1737 9.7144 53.4732 10.2015C53.7728 10.6777 53.9205 11.3204 53.9162 12.1295L53.899 15.4145C53.8966 15.8676 53.8999 16.2668 53.9089 16.6121C53.9287 16.9466 53.9594 17.2758 54.0008 17.5997L52.0104 17.5892C51.9685 17.3517 51.9425 17.1735 51.9323 17.0548C51.933 16.9253 51.934 16.7365 51.9353 16.4884C51.7069 16.8324 51.3493 17.1326 50.8625 17.389C50.3757 17.6454 49.7601 17.7716 49.0157 17.7677ZM49.6878 16.1206C50.033 16.1224 50.3624 16.0648 50.6759 15.9478C51.0002 15.82 51.2601 15.6272 51.4557 15.3693C51.6621 15.1007 51.7663 14.7614 51.7685 14.3514L51.7706 13.9469L49.6184 13.9356C49.2084 13.9334 48.8843 14.0288 48.6459 14.2218C48.4184 14.404 48.3038 14.6569 48.3021 14.9806C48.3003 15.3258 48.4175 15.6015 48.6538 15.8077C48.89 16.0139 49.2347 16.1182 49.6878 16.1206ZM60.8167 17.6354L60.8332 14.4799C60.5843 14.6296 60.2869 14.7629 59.9411 14.8798C59.5952 14.9967 59.1742 15.0538 58.6779 15.0512C57.6315 15.0457 56.8453 14.7934 56.3192 14.2944C55.7933 13.7846 55.5331 13.0011 55.5386 11.9438L55.5539 9.03104L57.69 9.04225L57.6759 11.7123C57.673 12.2733 57.7842 12.6676 58.0096 12.8954C58.2457 13.1232 58.6605 13.2386 59.2538 13.2417C59.6638 13.2439 59.9985 13.1971 60.2579 13.1014C60.5281 13.0057 60.7228 12.915 60.8419 12.8293L60.8617 9.05889L62.9977 9.0701L62.9527 17.6466L60.8167 17.6354ZM64.9177 17.657L64.9627 9.08041L67.0826 9.09153L67.0537 14.5935L70.9016 9.11157L72.8596 9.12185L72.8146 17.6984L70.6947 17.6873L70.7236 12.1853L66.8757 17.6672L64.9177 17.657ZM78.5801 17.9228C77.7926 17.9187 77.0814 17.7531 76.4466 17.4262C75.8119 17.0884 75.3074 16.5949 74.9332 15.9456C74.5699 15.2856 74.3907 14.4701 74.3958 13.4992L74.3975 13.1756C74.4024 12.2478 74.6007 11.4721 74.9923 10.8484C75.384 10.2247 75.8989 9.75273 76.5371 9.43243C77.1753 9.11213 77.872 8.95396 78.6271 8.95792C79.4363 8.96216 80.1206 9.10061 80.6802 9.37326C81.2397 9.6459 81.6693 10.0204 81.9689 10.4966C82.2792 10.9729 82.4545 11.4971 82.4946 12.0691L80.3262 12.0577C80.242 11.6689 80.0656 11.3605 79.7971 11.1325C79.5394 10.8938 79.1463 10.7731 78.6176 10.7703C78.2508 10.7684 77.9106 10.8529 77.5968 11.0239C77.2938 11.1949 77.0443 11.4579 76.8483 11.8129C76.663 12.168 76.5689 12.626 76.5659 13.1869L76.5643 13.5106C76.5611 14.1147 76.6448 14.6114 76.8154 15.0007C76.9968 15.3793 77.238 15.661 77.5391 15.846C77.8511 16.0203 78.2012 16.1084 78.5896 16.1104C79.0104 16.1126 79.3723 16.0067 79.6755 15.7925C79.9896 15.5676 80.2016 15.2504 80.3116 14.841L82.48 14.8524C82.4121 15.467 82.2043 16.0107 81.8565 16.4836C81.5088 16.9565 81.0484 17.3155 80.4754 17.5606C79.9131 17.8058 79.2813 17.9265 78.5801 17.9228ZM83.9923 17.9512C83.906 17.9508 83.7981 17.9448 83.6687 17.9334C83.5393 17.9327 83.4314 17.9213 83.3452 17.8993L83.3554 15.9736C83.3877 15.9846 83.4685 15.9904 83.598 15.9911C83.8785 15.9925 84.1056 15.8805 84.2794 15.6548C84.4641 15.4184 84.601 15.0146 84.6904 14.4433C84.7797 13.872 84.8269 13.09 84.8321 12.0975L84.8474 9.18475L91.6439 9.22041L91.5989 17.797L89.4629 17.7857L89.4985 10.9892L86.8123 10.9751L86.8046 12.4315C86.7988 13.5427 86.7347 14.4594 86.6122 15.1816C86.5005 15.9038 86.325 16.4693 86.0855 16.878C85.8568 17.276 85.5695 17.5549 85.2234 17.715C84.8773 17.875 84.467 17.9537 83.9923 17.9512ZM97.419 18.0217C96.6423 18.0176 95.9257 17.8574 95.2693 17.5411C94.6237 17.2141 94.1084 16.7259 93.7234 16.0766C93.3385 15.4165 93.1487 14.5901 93.1539 13.5976L93.1556 13.274C93.1605 12.3246 93.3481 11.5381 93.7182 10.9143C94.099 10.2906 94.6031 9.82391 95.2305 9.51434C95.8578 9.20476 96.5491 9.05196 97.3043 9.05592C98.6528 9.063 99.6758 9.42438 100.373 10.1401C101.071 10.8558 101.416 11.8879 101.409 13.2364L101.404 14.1426L95.3358 14.1107C95.3547 14.6179 95.4604 15.0338 95.6529 15.3585C95.8563 15.6724 96.114 15.9057 96.426 16.0584C96.7381 16.2003 97.0722 16.2721 97.4282 16.274C97.9784 16.2769 98.3942 16.1982 98.6755 16.0378C98.9569 15.8775 99.1577 15.6412 99.278 15.3289L101.236 15.3392C101.059 16.2337 100.629 16.9057 99.947 17.3553C99.265 17.8048 98.4223 18.027 97.419 18.0217ZM97.376 10.804C97.0416 10.8023 96.7176 10.8545 96.4042 10.9607C96.0908 11.067 95.8417 11.2599 95.6568 11.5394C95.472 11.8081 95.3676 12.169 95.3436 12.622L99.3406 12.643C99.3324 12.1574 99.2373 11.7847 99.0552 11.5249C98.884 11.2543 98.653 11.0696 98.3623 10.971C98.0716 10.8616 97.7428 10.8059 97.376 10.804ZM102.939 17.8565L102.984 9.27992L105.104 9.29104L105.087 12.6084L108.744 12.6276L108.761 9.31023L110.881 9.32135L110.836 17.8979L108.716 17.8868L108.735 14.4076L105.078 14.3884L105.059 17.8676L102.939 17.8565ZM112.816 17.9083L112.861 9.33174L114.981 9.34287L114.952 14.8448L118.8 9.36291L120.758 9.37318L120.713 17.9497L118.593 17.9386L118.622 12.4367L114.774 17.9186L112.816 17.9083ZM122.191 17.9575L124.425 14.7489C123.768 14.5296 123.29 14.2035 122.99 13.7704C122.69 13.3373 122.542 12.8294 122.545 12.2469C122.548 11.6859 122.68 11.1903 122.941 10.7602C123.202 10.33 123.598 9.99763 124.128 9.76306C124.658 9.51771 125.322 9.39713 126.12 9.40132L130.166 9.42254L130.121 17.9991L127.985 17.9879L128 15.0265L126.463 15.0185L124.586 17.97L122.191 17.9575ZM124.681 12.2581C124.679 12.6249 124.796 12.8952 125.033 13.0691C125.28 13.243 125.609 13.331 126.019 13.3332L128.009 13.3436L128.02 11.1914L126.03 11.1809C125.62 11.1788 125.29 11.2687 125.041 11.4508C124.803 11.6222 124.683 11.8913 124.681 12.2581Z" fill="#3CAAE1"/>
<path d="M14.8616 59.5609L14.9162 49.1508L23.0956 49.1937L23.041 59.6039L21.6431 59.5965L21.6913 50.4058L16.3077 50.3776L16.2595 59.5683L14.8616 59.5609ZM25.7023 62.5922L25.7593 51.7359L26.9787 51.7423L26.9709 53.2295C27.2414 52.7054 27.6153 52.3058 28.0926 52.0307C28.58 51.7458 29.1409 51.6049 29.7754 51.6083C30.7669 51.6135 31.5583 51.9448 32.1497 52.6023C32.7412 53.2498 33.0336 54.2131 33.0269 55.4921L33.0253 55.7895C33.0206 56.6818 32.8779 57.4247 32.5972 58.0181C32.3264 58.6115 31.9424 59.0557 31.4451 59.3505C30.9577 59.6454 30.3868 59.7911 29.7325 59.7877C29.0583 59.7842 28.494 59.6325 28.0395 59.3326C27.5949 59.0329 27.2597 58.6593 27.034 58.212L27.011 62.5991L25.7023 62.5922ZM29.4411 58.6261C30.0856 58.6295 30.6222 58.3894 31.0511 57.9059C31.4899 57.4223 31.7117 56.7146 31.7166 55.7826L31.7182 55.4852C31.7227 54.6226 31.5081 53.9572 31.0743 53.489C30.6505 53.0108 30.1163 52.7701 29.4719 52.7667C28.996 52.7642 28.5741 52.8611 28.2062 53.0575C27.8483 53.2539 27.5643 53.5251 27.3543 53.871C27.1542 54.207 27.053 54.5882 27.0508 55.0146L27.0446 56.2043C27.0421 56.6802 27.139 57.1021 27.3354 57.4699C27.5417 57.828 27.8228 58.112 28.1786 58.3221C28.5444 58.5223 28.9652 58.6236 29.4411 58.6261ZM38.1385 59.8318C37.4742 59.8283 36.8503 59.6813 36.2669 59.3907C35.6934 59.0902 35.2298 58.6416 34.876 58.0449C34.5321 57.4482 34.3625 56.6988 34.3673 55.7965L34.3688 55.4991C34.3733 54.6465 34.5505 53.9335 34.9006 53.3603C35.2605 52.7872 35.7287 52.3583 36.3053 52.0738C36.8918 51.7894 37.5171 51.6489 38.1814 51.6524C38.8556 51.6559 39.4794 51.8029 40.053 52.0935C40.6265 52.384 41.0852 52.8177 41.4292 53.3946C41.7831 53.9715 41.9579 54.6863 41.9534 55.5389L41.9518 55.8363C41.9471 56.7386 41.7647 57.4862 41.4047 58.0792C41.0545 58.6722 40.5912 59.1159 40.0146 59.4104C39.438 59.6949 38.8127 59.8353 38.1385 59.8318ZM38.1447 58.6421C38.5512 58.6442 38.9383 58.557 39.3061 58.3805C39.6838 58.1941 39.9928 57.8933 40.2329 57.4781C40.483 57.063 40.6098 56.5134 40.6134 55.8293L40.6149 55.5319C40.6183 54.8974 40.497 54.3861 40.2512 53.9982C40.0153 53.6003 39.7095 53.3112 39.3337 53.1308C38.9678 52.9405 38.5816 52.8442 38.1751 52.8421C37.7786 52.84 37.3914 52.9322 37.0137 53.1186C36.636 53.2951 36.3222 53.5809 36.0722 53.9762C35.8323 54.3616 35.7106 54.8716 35.7073 55.5061L35.7057 55.8036C35.7021 56.4877 35.8182 57.0385 36.054 57.4562C36.2996 57.8739 36.6104 58.1779 36.9861 58.3683C37.3619 58.5487 37.7481 58.64 38.1447 58.6421ZM50.1846 61.6053L50.1944 59.7463L43.7847 59.7127L43.826 51.8307L45.1347 51.8376L45.0995 58.5596L48.8769 58.5794L48.9122 51.8574L50.2209 51.8643L50.1856 58.5863L51.4497 58.5929L51.4338 61.6119L50.1846 61.6053ZM56.2779 59.927C55.6136 59.9235 54.9897 59.7765 54.4063 59.4859C53.8328 59.1953 53.3691 58.7517 53.0153 58.155C52.6714 57.5583 52.5019 56.8039 52.5066 55.8917L52.5082 55.5943C52.5128 54.7218 52.6851 54.0039 53.0252 53.4406C53.3653 52.8673 53.8137 52.4433 54.3703 52.1686C54.927 51.884 55.5276 51.7434 56.1721 51.7468C57.3321 51.7529 58.2276 52.0748 58.8588 52.7127C59.49 53.3505 59.8026 54.2495 59.7965 55.4095L59.7921 56.2423L53.8137 56.2109C53.8105 56.8256 53.9318 57.317 54.1778 57.6851C54.4336 58.0533 54.7495 58.3227 55.1254 58.4932C55.5112 58.6539 55.8974 58.7352 56.2841 58.7372C56.879 58.7404 57.3356 58.6436 57.6539 58.447C57.9821 58.2504 58.2165 57.979 58.3571 57.6327L59.6361 57.6394C59.4735 58.3921 59.0789 58.9651 58.4522 59.3584C57.8354 59.7418 57.1107 59.9314 56.2779 59.927ZM56.2402 52.9369C55.8337 52.9348 55.4466 53.0121 55.0789 53.1688C54.7113 53.3156 54.4077 53.5519 54.168 53.8778C53.9383 54.2038 53.822 54.6246 53.8193 55.1401L58.5634 55.165C58.5563 54.6197 58.4446 54.1878 58.2281 53.8694C58.0217 53.5411 57.7453 53.3067 57.399 53.1661C57.0528 53.0155 56.6665 52.9391 56.2402 52.9369ZM61.6336 59.8064L61.675 51.9244L62.9837 51.9312L62.9664 55.2179L67.0413 55.2393L67.0585 51.9526L68.3672 51.9595L68.3259 59.8415L67.0172 59.8346L67.0352 56.3993L62.9603 56.3779L62.9423 59.8132L61.6336 59.8064ZM72.51 59.8634L72.5453 53.1414L69.8535 53.1273L69.8596 51.9673L76.5519 52.0024L76.5458 53.1624L73.854 53.1483L73.8187 59.8703L72.51 59.8634ZM84.9901 60.0776C84.3258 60.0742 83.702 59.9271 83.1185 59.6365C82.545 59.3361 82.0814 58.8875 81.7276 58.2907C81.3837 57.6941 81.2141 56.9446 81.2189 56.0424L81.2204 55.745C81.2249 54.8923 81.4022 54.1794 81.7522 53.6062C82.1121 53.033 82.5804 52.6042 83.1569 52.3197C83.7434 52.0352 84.3687 51.8947 85.033 51.8982C85.7072 51.9018 86.331 52.0488 86.9046 52.3393C87.4781 52.6299 87.9369 53.0636 88.2808 53.6404C88.6347 54.2173 88.8095 54.9321 88.805 55.7848L88.8034 56.0822C88.7987 56.9844 88.6163 57.732 88.2563 58.325C87.9061 58.918 87.4428 59.3618 86.8662 59.6562C86.2896 59.9407 85.6643 60.0812 84.9901 60.0776ZM84.9963 58.8879C85.4028 58.89 85.7899 58.8028 86.1577 58.6263C86.5355 58.4399 86.8444 58.1391 87.0845 57.724C87.3346 57.3089 87.4614 56.7593 87.465 56.0752L87.4665 55.7777C87.4699 55.1432 87.3486 54.632 87.1028 54.244C86.8669 53.8462 86.5611 53.557 86.1853 53.3766C85.8194 53.1863 85.4332 53.0901 85.0268 53.0879C84.6302 53.0859 84.243 53.178 83.8653 53.3644C83.4876 53.5409 83.1738 53.8268 82.9238 54.2221C82.6839 54.6075 82.5622 55.1175 82.5589 55.752L82.5573 56.0494C82.5537 56.7335 82.6698 57.2844 82.9056 57.702C83.1513 58.1197 83.462 58.4238 83.8377 58.6141C84.2135 58.7946 84.5997 58.8858 84.9963 58.8879ZM92.2905 59.9672L92.3258 53.2452L89.634 53.2311L89.6401 52.0711L96.3324 52.1062L96.3263 53.2662L93.6345 53.2521L93.5992 59.9741L92.2905 59.9672ZM101.5 60.0155L101.541 52.1336L108.084 52.1679L108.043 60.0499L106.734 60.043L106.77 53.321L102.844 53.3004L102.808 60.0224L101.5 60.0155ZM110.401 63.0367L110.458 52.1803L111.678 52.1867L111.67 53.6739C111.94 53.1499 112.314 52.7503 112.792 52.4752C113.279 52.1902 113.84 52.0494 114.474 52.0527C115.466 52.0579 116.257 52.3892 116.849 53.0467C117.44 53.6943 117.732 54.6575 117.726 55.9365L117.724 56.2339C117.72 57.1262 117.577 57.8691 117.296 58.4625C117.025 59.056 116.641 59.5001 116.144 59.7949C115.657 60.0898 115.086 60.2356 114.431 60.2321C113.757 60.2286 113.193 60.0769 112.738 59.7771C112.294 59.4773 111.959 59.1037 111.733 58.6564L111.71 63.0435L110.401 63.0367ZM114.14 59.0706C114.784 59.074 115.321 58.8339 115.75 58.3503C116.189 57.8668 116.411 57.159 116.415 56.2271L116.417 55.9296C116.422 55.0671 116.207 54.4017 115.773 53.9334C115.349 53.4553 114.815 53.2145 114.171 53.2111C113.695 53.2086 113.273 53.3056 112.905 53.5019C112.547 53.6983 112.263 53.9695 112.053 54.3154C111.853 54.6515 111.752 55.0327 111.75 55.459L111.743 56.6487C111.741 57.1246 111.838 57.5465 112.034 57.9144C112.241 58.2724 112.522 58.5564 112.877 58.7665C113.243 58.9667 113.664 59.0681 114.14 59.0706ZM122.837 60.2762C122.173 60.2727 121.549 60.1257 120.966 59.8351C120.392 59.5347 119.929 59.0861 119.575 58.4893C119.231 57.8926 119.061 57.1432 119.066 56.241L119.068 55.9435C119.072 55.0909 119.249 54.378 119.599 53.8048C119.959 53.2316 120.428 52.8028 121.004 52.5183C121.591 52.2338 122.216 52.0933 122.88 52.0968C123.554 52.1003 124.178 52.2474 124.752 52.5379C125.325 52.8285 125.784 53.2622 126.128 53.839C126.482 54.4159 126.657 55.1307 126.652 55.9833L126.651 56.2808C126.646 57.183 126.464 57.9306 126.104 58.5236C125.753 59.1166 125.29 59.5604 124.713 59.8548C124.137 60.1393 123.512 60.2798 122.837 60.2762ZM122.844 59.0865C123.25 59.0886 123.637 59.0014 124.005 58.8249C124.383 58.6385 124.692 58.3377 124.932 57.9226C125.182 57.5075 125.309 56.9578 125.312 56.2738L125.314 55.9763C125.317 55.3418 125.196 54.8305 124.95 54.4426C124.714 54.0448 124.408 53.7556 124.033 53.5752C123.667 53.3849 123.281 53.2887 122.874 53.2865C122.477 53.2845 122.09 53.3766 121.713 53.563C121.335 53.7395 121.021 54.0254 120.771 54.4207C120.531 54.8061 120.409 55.316 120.406 55.9506L120.405 56.248C120.401 56.9321 120.517 57.483 120.753 57.9006C120.999 58.3183 121.309 58.6224 121.685 58.8127C122.061 58.9932 122.447 59.0844 122.844 59.0865ZM127.436 62.0107L127.452 58.9917L128.419 58.9968C128.569 58.7993 128.699 58.4678 128.811 58.0024C128.922 57.5271 129.009 56.9723 129.072 56.3381C129.145 55.7039 129.183 55.0448 129.187 54.3607L129.198 52.2787L134.7 52.3075L134.665 59.0295L135.78 59.0354L135.764 62.0544L134.515 62.0478L134.525 60.1888L128.695 60.1582L128.685 62.0172L127.436 62.0107ZM129.757 59.0038L133.356 59.0227L133.385 53.4607L130.47 53.4454L130.464 54.6649C130.46 55.4977 130.396 56.3054 130.273 57.088C130.16 57.8608 129.988 58.4994 129.757 59.0038ZM139.733 60.3649C139.158 60.3619 138.667 60.2552 138.262 60.0449C137.867 59.8247 137.566 59.5306 137.36 59.1627C137.153 58.7848 137.051 58.3629 137.054 57.8969C137.058 57.1137 137.289 56.5498 137.747 56.2051C138.215 55.8606 138.88 55.6906 139.742 55.6951L142.3 55.7085L142.303 55.1731C142.307 54.499 142.155 54.0322 141.849 53.7728C141.553 53.5134 141.103 53.3822 140.498 53.379C139.933 53.3761 139.521 53.483 139.262 53.6997C139.003 53.9066 138.858 54.1438 138.827 54.4113L137.518 54.4044C137.55 53.9783 137.696 53.6023 137.956 53.2764C138.215 52.9407 138.568 52.6749 139.016 52.4789C139.463 52.283 139.984 52.1866 140.579 52.1897C141.203 52.193 141.743 52.2949 142.198 52.4956C142.653 52.6864 143.004 52.9906 143.249 53.4083C143.495 53.8161 143.616 54.3571 143.613 55.0313L143.596 58.2287C143.594 58.6451 143.592 59.0119 143.59 59.3292C143.598 59.6366 143.622 59.9391 143.66 60.2368L142.515 60.2308C142.486 60.0026 142.467 59.7893 142.458 59.591C142.45 59.3827 142.446 59.1497 142.447 58.8919C142.237 59.3072 141.898 59.6574 141.43 59.9425C140.963 60.2276 140.397 60.3684 139.733 60.3649ZM140.022 59.1766C140.438 59.1788 140.815 59.1064 141.153 58.9595C141.501 58.8126 141.775 58.5959 141.974 58.3094C142.184 58.023 142.29 57.6716 142.292 57.2552L142.295 56.7198L139.96 56.7075C139.474 56.705 139.092 56.8021 138.813 56.999C138.535 57.1859 138.394 57.4875 138.392 57.904C138.39 58.2708 138.518 58.5739 138.774 58.8132C139.041 59.0525 139.456 59.1737 140.022 59.1766ZM145.079 60.2442L148.074 56.1999L145.269 52.363L146.726 52.3707L149.118 55.6848L150.025 55.6896L150.043 52.3881L151.351 52.3949L151.334 55.6964L152.226 55.7011L154.698 52.4125L156.125 52.42L153.28 56.1825L156.233 60.3027L154.686 60.2946L152.22 56.8314L151.328 56.8267L151.31 60.2769L150.001 60.27L150.019 56.8198L149.112 56.8151L146.596 60.2522L145.079 60.2442Z" fill="#474766"/>
<path d="M272.522 60.6267L268.175 53.0048L276.949 53.0509L272.522 60.6267Z" fill="#3CAAE1"/>
<path d="M74.5893 132.114C73.8953 132.124 73.2632 131.96 72.693 131.621C72.1326 131.273 71.679 130.769 71.3321 130.11C70.9951 129.45 70.8197 128.65 70.8058 127.708L70.8014 127.41C70.7838 126.221 70.8877 125.203 71.1132 124.357C71.3486 123.51 71.7553 122.85 72.3333 122.375C72.9111 121.891 73.7103 121.616 74.7306 121.552C75.1467 121.526 75.5281 121.505 75.875 121.49C76.2216 121.465 76.5335 121.431 76.8105 121.387C77.0873 121.333 77.334 121.25 77.5505 121.138L77.5692 122.402C77.4709 122.463 77.3081 122.515 77.0806 122.558C76.8631 122.601 76.5811 122.64 76.2346 122.675C75.8879 122.7 75.4669 122.726 74.9715 122.753C74.3372 122.772 73.8034 122.884 73.3701 123.089C72.9467 123.294 72.6193 123.616 72.3879 124.055C72.1564 124.495 72.0164 125.087 71.9679 125.832C72.1212 125.472 72.3349 125.167 72.6088 124.915C72.8826 124.653 73.2018 124.45 73.5666 124.306C73.9313 124.161 74.3318 124.086 74.768 124.08C75.4421 124.07 76.0341 124.21 76.5441 124.5C77.064 124.789 77.4718 125.21 77.7675 125.761C78.0731 126.311 78.2317 126.973 78.2431 127.747L78.2475 128.044C78.2595 128.857 78.1064 129.568 77.7882 130.178C77.4798 130.777 77.0455 131.25 76.4854 131.595C75.9351 131.931 75.303 132.103 74.5893 132.114ZM74.5717 130.924C75.2656 130.914 75.8321 130.668 76.2712 130.185C76.7101 129.693 76.9228 128.986 76.9092 128.064L76.9048 127.766C76.8935 127.003 76.6614 126.397 76.2086 125.947C75.7556 125.488 75.1821 125.263 74.4882 125.274C73.7942 125.284 73.2276 125.525 72.7884 125.998C72.349 126.46 72.135 127.073 72.1463 127.837L72.1507 128.134C72.1593 128.719 72.2709 129.223 72.4854 129.646C72.7096 130.06 73.0019 130.377 73.3621 130.6C73.7323 130.823 74.1355 130.931 74.5717 130.924ZM83.433 131.983C82.7688 131.993 82.1421 131.859 81.553 131.58C80.9737 131.301 80.5013 130.867 80.1356 130.277C79.7798 129.687 79.5952 128.936 79.5817 128.024L79.5773 127.727C79.5645 126.855 79.7224 126.133 80.0511 125.563C80.3796 124.983 80.8194 124.55 81.3705 124.265C81.9214 123.969 82.519 123.816 83.1634 123.807C84.3233 123.79 85.2252 124.094 85.869 124.719C86.5128 125.344 86.8433 126.236 86.8605 127.396L86.8728 128.229L80.8949 128.317C80.904 128.932 81.0352 129.421 81.2885 129.784C81.5516 130.147 81.8728 130.41 82.252 130.573C82.641 130.726 83.0288 130.799 83.4154 130.794C84.0102 130.785 84.4648 130.679 84.7791 130.476C85.1033 130.273 85.3322 129.997 85.4659 129.648L86.7447 129.629C86.5973 130.385 86.2142 130.966 85.5955 131.371C84.9866 131.767 84.2657 131.971 83.433 131.983ZM83.2553 124.995C82.8489 125.001 82.4634 125.086 82.099 125.25C81.7344 125.405 81.4355 125.647 81.2024 125.978C80.9793 126.308 80.8715 126.731 80.8791 127.247L85.6227 127.177C85.6048 126.631 85.4844 126.202 85.2616 125.888C85.0486 125.564 84.7676 125.335 84.4185 125.201C84.0694 125.058 83.6816 124.989 83.2553 124.995ZM91.4641 131.865C90.8098 131.874 90.2434 131.788 89.7647 131.607C89.2861 131.426 88.9103 131.159 88.6374 130.806C88.3644 130.453 88.2045 130.029 88.1575 129.534L89.4661 129.514C89.5194 129.771 89.6317 129.988 89.8029 130.164C89.9741 130.34 90.1991 130.47 90.478 130.555C90.7569 130.641 91.0797 130.68 91.4465 130.675C92.1306 130.665 92.6245 130.544 92.9285 130.311C93.2422 130.068 93.3967 129.783 93.3918 129.456C93.3861 129.07 93.2528 128.769 92.9918 128.555C92.7307 128.331 92.2829 128.223 91.6484 128.233L90.2952 128.253L90.2794 127.182L91.5434 127.163C92.0886 127.155 92.4737 127.046 92.6986 126.834C92.9335 126.622 93.0481 126.328 93.0425 125.951C93.0381 125.654 92.8955 125.398 92.6147 125.184C92.3339 124.97 91.916 124.867 91.3608 124.876C90.7561 124.885 90.3164 124.99 90.0417 125.193C89.7769 125.385 89.6173 125.66 89.5631 126.018L88.2545 126.037C88.2876 125.59 88.4304 125.192 88.6831 124.841C88.9357 124.49 89.2885 124.212 89.7416 124.007C90.1947 123.802 90.7286 123.695 91.3432 123.686C92.3544 123.671 93.106 123.873 93.5981 124.292C94.0901 124.711 94.3412 125.258 94.3511 125.932C94.3567 126.309 94.2674 126.642 94.0833 126.932C93.8991 127.213 93.5999 127.435 93.1859 127.6C93.7433 127.741 94.1334 127.973 94.3563 128.297C94.5793 128.621 94.694 129.001 94.7004 129.437C94.7067 129.863 94.5886 130.262 94.3462 130.632C94.1037 130.993 93.7411 131.286 93.2586 131.511C92.7859 131.736 92.1878 131.854 91.4641 131.865ZM101.403 134.692C101.254 134.695 101.105 134.682 100.956 134.654L100.938 133.465C101.087 133.492 101.236 133.505 101.385 133.503C101.583 133.5 101.746 133.448 101.874 133.347C102.011 133.256 102.147 133.07 102.282 132.79C102.416 132.511 102.579 132.097 102.769 131.549L99.3068 123.717L100.764 123.695L103.416 130.052L105.642 123.623L107.039 123.603L104.182 131.528C103.915 132.275 103.656 132.879 103.405 133.339C103.164 133.799 102.887 134.135 102.573 134.348C102.268 134.571 101.878 134.685 101.403 134.692ZM111.397 131.57C110.723 131.58 110.111 131.445 109.561 131.166C109.022 130.876 108.589 130.436 108.263 129.846C107.946 129.256 107.782 128.51 107.768 127.608L107.764 127.31C107.751 126.458 107.909 125.742 108.238 125.162C108.567 124.582 109.001 124.144 109.542 123.848C110.083 123.553 110.661 123.4 111.276 123.391C111.9 123.382 112.437 123.488 112.887 123.71C113.346 123.921 113.717 124.218 114.001 124.6C114.284 124.973 114.478 125.397 114.585 125.871L113.246 125.891C113.082 125.516 112.854 125.202 112.563 124.949C112.282 124.695 111.858 124.573 111.293 124.581C110.907 124.587 110.546 124.686 110.212 124.88C109.878 125.063 109.604 125.355 109.392 125.754C109.19 126.144 109.093 126.656 109.102 127.291L109.107 127.588C109.117 128.262 109.229 128.806 109.443 129.219C109.667 129.632 109.95 129.93 110.289 130.114C110.629 130.297 110.992 130.386 111.379 130.38C111.865 130.373 112.27 130.248 112.593 130.005C112.927 129.763 113.16 129.432 113.292 129.013L114.631 128.994C114.519 129.511 114.313 129.965 114.011 130.356C113.71 130.738 113.337 131.036 112.894 131.25C112.451 131.455 111.952 131.562 111.397 131.57ZM116.08 131.501C116.01 131.502 115.936 131.498 115.856 131.489C115.787 131.48 115.712 131.471 115.633 131.463L115.614 130.154C115.643 130.164 115.718 130.167 115.837 130.166C116.134 130.161 116.375 130.029 116.56 129.768C116.744 129.498 116.871 129.03 116.941 128.365C117.02 127.689 117.05 126.747 117.033 125.537L117.002 123.455L122.653 123.372L122.769 131.253L121.46 131.272L121.361 124.551L118.328 124.596L118.346 125.815C118.362 126.916 118.326 127.833 118.238 128.569C118.149 129.294 118.009 129.871 117.817 130.3C117.635 130.729 117.396 131.035 117.102 131.218C116.807 131.401 116.466 131.495 116.08 131.501ZM128.421 131.318C127.757 131.328 127.13 131.194 126.541 130.915C125.962 130.626 125.489 130.187 125.124 129.597C124.768 129.007 124.583 128.262 124.57 127.359L124.566 127.062C124.553 126.209 124.716 125.493 125.055 124.913C125.403 124.333 125.862 123.895 126.433 123.599C127.014 123.302 127.636 123.15 128.3 123.14C128.975 123.13 129.601 123.264 130.18 123.543C130.76 123.822 131.227 124.247 131.583 124.816C131.948 125.386 132.137 126.097 132.15 126.95L132.154 127.247C132.167 128.149 132 128.901 131.652 129.501C131.314 130.101 130.859 130.553 130.289 130.859C129.718 131.155 129.095 131.308 128.421 131.318ZM128.404 130.129C128.81 130.123 129.196 130.028 129.56 129.844C129.934 129.65 130.236 129.343 130.468 128.923C130.71 128.503 130.826 127.951 130.816 127.267L130.811 126.97C130.802 126.335 130.67 125.827 130.417 125.444C130.173 125.051 129.861 124.768 129.482 124.595C129.113 124.412 128.725 124.323 128.318 124.329C127.922 124.335 127.536 124.435 127.162 124.629C126.788 124.813 126.48 125.105 126.238 125.505C126.006 125.895 125.895 126.408 125.904 127.042L125.908 127.34C125.919 128.024 126.046 128.572 126.29 128.985C126.544 129.398 126.86 129.695 127.24 129.878C127.619 130.051 128.007 130.135 128.404 130.129ZM134.064 131.086L133.948 123.205L137.368 123.154C138.022 123.145 138.559 123.231 138.978 123.413C139.397 123.585 139.708 123.834 139.911 124.158C140.114 124.472 140.219 124.843 140.225 125.269C140.23 125.616 140.121 125.95 139.898 126.27C139.684 126.581 139.405 126.798 139.059 126.922C139.547 127.034 139.917 127.257 140.17 127.59C140.433 127.913 140.567 128.298 140.574 128.744C140.584 129.428 140.364 129.977 139.914 130.39C139.464 130.803 138.753 131.017 137.782 131.031L134.064 131.086ZM135.355 129.907L137.764 129.871C138.32 129.863 138.71 129.758 138.935 129.557C139.16 129.355 139.27 129.071 139.264 128.704C139.259 128.327 139.14 128.041 138.91 127.847C138.678 127.642 138.285 127.543 137.73 127.552L135.321 127.587L135.355 129.907ZM135.305 126.517L137.417 126.485C137.982 126.477 138.372 126.372 138.587 126.171C138.812 125.969 138.922 125.695 138.917 125.348C138.912 125.02 138.795 124.764 138.564 124.579C138.343 124.394 137.95 124.306 137.385 124.314L135.273 124.345L135.305 126.517ZM142.472 130.962L142.356 123.081L143.664 123.061L143.752 129.009L147.739 123.001L149.047 122.982L149.164 130.863L147.855 130.882L147.767 124.934L143.781 130.943L142.472 130.962ZM151.548 130.828L151.432 122.947L152.74 122.927L152.828 128.875L156.815 122.867L158.123 122.848L158.24 130.729L156.931 130.748L156.843 124.8L152.857 130.808L151.548 130.828ZM154.763 121.93C153.99 121.942 153.423 121.787 153.061 121.465C152.699 121.133 152.513 120.655 152.504 120.03L153.783 120.011C153.788 120.348 153.871 120.6 154.032 120.766C154.193 120.932 154.432 121.013 154.75 121.009C155.077 121.004 155.318 120.916 155.475 120.745C155.641 120.574 155.721 120.32 155.716 119.983L156.965 119.964C156.974 120.589 156.803 121.072 156.451 121.415C156.099 121.747 155.537 121.919 154.763 121.93Z" fill="#474766"/>
<rect x="6.20941" y="115.251" width="53.2375" height="27.0503" rx="13.5252" transform="rotate(-0.84683 6.20941 115.251)" fill="#F3F5F9" stroke="#EAEEFF" stroke-width="1.47144"/>
<circle cx="43.8262" cy="128.222" r="10.8025" transform="rotate(-0.84683 43.8262 128.222)" fill="#66A0F7"/>
<path d="M261.24 194.399C277.884 191.451 289.367 177.712 286.888 163.711C284.408 149.711 268.905 140.751 252.261 143.698L125.852 167.402C109.208 170.35 97.7245 184.089 100.204 198.089C102.683 212.09 118.187 221.05 134.831 218.103L261.24 194.399Z" fill="url(#paint0_linear_4301_746)"/>
<path d="M128.722 198.142L126.496 186.075L131.408 185.169C132.535 184.961 133.491 184.957 134.276 185.157C135.059 185.345 135.681 185.717 136.14 186.274C136.609 186.818 136.922 187.52 137.081 188.382C137.238 189.233 137.196 190.001 136.954 190.687C136.724 191.371 136.277 191.947 135.615 192.414C134.95 192.869 134.055 193.201 132.929 193.408L131.119 193.742L131.825 197.569L128.722 198.142ZM130.648 191.191L132.113 190.921C132.906 190.775 133.439 190.54 133.712 190.216C133.985 189.892 134.074 189.472 133.979 188.955C133.883 188.437 133.65 188.076 133.28 187.871C132.909 187.667 132.327 187.637 131.534 187.783L130.069 188.054L130.648 191.191ZM142.558 195.821C141.903 195.941 141.317 195.919 140.799 195.753C140.293 195.585 139.879 195.305 139.557 194.913C139.233 194.509 139.021 194.037 138.921 193.497C138.754 192.589 138.901 191.843 139.364 191.259C139.838 190.672 140.638 190.275 141.764 190.067L144.35 189.59L144.28 189.211C144.178 188.659 143.976 188.304 143.674 188.146C143.383 187.986 143.007 187.948 142.548 188.033C142.111 188.114 141.802 188.242 141.62 188.418C141.437 188.583 141.361 188.816 141.393 189.12L138.739 189.609C138.671 189.051 138.753 188.525 138.982 188.031C139.224 187.535 139.614 187.107 140.153 186.746C140.704 186.383 141.405 186.123 142.255 185.966C143.06 185.818 143.789 185.808 144.442 185.937C145.096 186.066 145.639 186.37 146.072 186.848C146.514 187.313 146.818 187.994 146.984 188.89L147.604 192.252C147.693 192.734 147.783 193.157 147.874 193.521C147.962 193.873 148.062 194.217 148.171 194.553L145.637 195.021C145.59 194.828 145.541 194.658 145.49 194.513C145.451 194.366 145.411 194.183 145.371 193.965C145.163 194.383 144.835 194.765 144.388 195.109C143.95 195.439 143.34 195.676 142.558 195.821ZM143.074 193.783C143.453 193.713 143.779 193.581 144.052 193.388C144.326 193.195 144.523 192.945 144.645 192.637C144.764 192.318 144.791 191.98 144.725 191.624L144.655 191.245L142.587 191.627C142.196 191.699 141.922 191.856 141.765 192.099C141.619 192.34 141.571 192.592 141.619 192.857C141.683 193.201 141.827 193.466 142.051 193.65C142.285 193.821 142.625 193.865 143.074 193.783ZM154.023 193.705C153.127 193.871 152.296 193.846 151.531 193.63C150.767 193.415 150.119 192.994 149.587 192.367C149.056 191.74 148.693 190.904 148.5 189.858L148.437 189.513C148.259 188.548 148.314 187.688 148.603 186.934C148.903 186.177 149.372 185.562 150.009 185.088C150.656 184.6 151.404 184.278 152.255 184.121C153.174 183.951 153.974 183.97 154.654 184.178C155.331 184.373 155.886 184.705 156.317 185.172C156.747 185.639 157.045 186.19 157.21 186.825L154.469 187.331C154.312 186.932 154.087 186.647 153.794 186.475C153.51 186.29 153.133 186.241 152.662 186.328C152.294 186.395 151.977 186.543 151.71 186.771C151.454 186.996 151.272 187.297 151.163 187.673C151.064 188.036 151.063 188.482 151.16 189.011L151.224 189.356C151.328 189.919 151.494 190.369 151.723 190.707C151.952 191.045 152.227 191.28 152.548 191.411C152.867 191.53 153.222 191.554 153.613 191.482C154.015 191.408 154.335 191.242 154.573 190.984C154.82 190.712 154.944 190.357 154.946 189.917L157.687 189.411C157.772 190.132 157.68 190.791 157.41 191.387C157.14 191.984 156.715 192.484 156.136 192.888C155.566 193.278 154.862 193.551 154.023 193.705ZM163.938 191.876C163.042 192.041 162.211 192.016 161.447 191.801C160.682 191.586 160.034 191.164 159.502 190.538C158.971 189.911 158.609 189.075 158.416 188.029L158.352 187.684C158.174 186.719 158.229 185.859 158.518 185.105C158.818 184.348 159.287 183.733 159.924 183.259C160.571 182.771 161.32 182.449 162.17 182.292C163.089 182.122 163.889 182.141 164.569 182.348C165.247 182.544 165.801 182.876 166.232 183.343C166.663 183.81 166.96 184.361 167.125 184.996L164.384 185.502C164.227 185.103 164.003 184.817 163.709 184.646C163.426 184.46 163.048 184.411 162.577 184.498C162.209 184.566 161.892 184.714 161.625 184.941C161.369 185.167 161.187 185.468 161.079 185.844C160.979 186.207 160.978 186.653 161.076 187.182L161.139 187.526C161.243 188.089 161.41 188.54 161.638 188.878C161.867 189.216 162.142 189.451 162.463 189.581C162.782 189.701 163.137 189.724 163.528 189.652C163.93 189.578 164.25 189.412 164.488 189.154C164.735 188.883 164.859 188.527 164.861 188.087L167.602 187.582C167.688 188.303 167.595 188.961 167.325 189.558C167.055 190.154 166.63 190.655 166.051 191.058C165.481 191.449 164.777 191.721 163.938 191.876ZM174.864 189.629L174.272 186.422C174.035 186.621 173.756 186.815 173.435 187.005C173.113 187.195 172.671 187.342 172.108 187.446C170.959 187.658 170.057 187.539 169.404 187.089C168.762 186.637 168.337 185.848 168.13 184.722L167.541 181.532L170.23 181.036L170.771 183.967C170.864 184.472 171.035 184.815 171.282 184.996C171.538 185.162 171.948 185.193 172.511 185.09C172.89 185.02 173.198 184.915 173.434 184.777C173.667 184.627 173.822 184.497 173.897 184.388L173.178 180.493L175.833 180.003L177.518 189.139L174.864 189.629ZM179.435 188.785L177.749 179.649L180.335 179.172L181.353 184.688L184.213 178.457L186.541 178.027L188.226 187.163L185.64 187.64L184.623 182.124L181.762 188.356L179.435 188.785ZM192.249 186.421L190.964 179.457L188.154 179.975L187.753 177.803L196.027 176.277L196.428 178.449L193.618 178.967L194.903 185.931L192.249 186.421ZM201.36 184.972C200.705 185.093 200.118 185.07 199.6 184.904C199.094 184.736 198.68 184.456 198.358 184.064C198.034 183.66 197.822 183.189 197.722 182.648C197.555 181.741 197.702 180.994 198.165 180.41C198.639 179.823 199.439 179.426 200.565 179.218L203.151 178.741L203.081 178.362C202.979 177.811 202.777 177.456 202.475 177.298C202.184 177.137 201.809 177.1 201.349 177.185C200.912 177.265 200.603 177.393 200.422 177.569C200.238 177.734 200.162 177.968 200.195 178.271L197.54 178.761C197.473 178.203 197.554 177.677 197.784 177.183C198.025 176.687 198.415 176.258 198.955 175.897C199.505 175.534 200.206 175.274 201.057 175.117C201.861 174.969 202.59 174.959 203.244 175.088C203.897 175.217 204.44 175.521 204.873 176C205.316 176.465 205.62 177.145 205.785 178.042L206.405 181.403C206.494 181.886 206.584 182.309 206.675 182.672C206.764 183.024 206.863 183.368 206.972 183.705L204.438 184.172C204.391 183.979 204.342 183.81 204.291 183.665C204.252 183.517 204.212 183.335 204.172 183.116C203.964 183.535 203.637 183.916 203.189 184.26C202.751 184.591 202.141 184.828 201.36 184.972ZM201.875 182.934C202.254 182.864 202.58 182.733 202.854 182.54C203.127 182.346 203.324 182.096 203.446 181.789C203.565 181.469 203.592 181.132 203.526 180.776L203.456 180.396L201.388 180.778C200.997 180.85 200.723 181.008 200.566 181.25C200.42 181.491 200.372 181.744 200.421 182.008C200.484 182.353 200.628 182.617 200.852 182.802C201.086 182.973 201.427 183.017 201.875 182.934ZM210.598 183.036L209.313 176.072L206.503 176.59L206.102 174.418L214.377 172.892L214.777 175.064L211.967 175.582L213.252 182.546L210.598 183.036ZM217.433 181.775L215.748 172.639L218.402 172.149L218.949 175.114L220.776 174.777C221.972 174.556 222.92 174.643 223.623 175.036C224.325 175.429 224.773 176.149 224.966 177.194C225.076 177.792 225.054 178.349 224.899 178.864C224.745 179.38 224.428 179.819 223.948 180.181C223.466 180.531 222.788 180.787 221.915 180.948L217.433 181.775ZM219.719 179.285L221.201 179.012C221.673 178.925 221.99 178.777 222.153 178.569C222.326 178.347 222.379 178.052 222.311 177.684C222.241 177.305 222.087 177.048 221.848 176.914C221.621 176.778 221.272 176.753 220.801 176.84L219.318 177.113L219.719 179.285Z" fill="white"/>
<g filter="url(#filter0_d_4301_746)">
<circle cx="254.89" cy="169.741" r="15.8773" transform="rotate(-10.0425 254.89 169.741)" fill="#FC9F30" stroke="#FC9F30" stroke-width="1.51212"/>
<path d="M250.594 162.823L259.357 168.95L253.231 177.713" stroke="white" stroke-width="1.51212"/>
</g>
<defs>
<filter id="filter0_d_4301_746" x="213.611" y="128.462" width="82.5586" height="82.558" filterUnits="userSpaceOnUse" color-interpolation-filters="sRGB">
<feFlood flood-opacity="0" result="BackgroundImageFix"/>
<feColorMatrix in="SourceAlpha" type="matrix" values="0 0 0 0 0 0 0 0 0 0 0 0 0 0 0 0 0 0 127 0" result="hardAlpha"/>
<feOffset/>
<feGaussianBlur stdDeviation="11"/>
<feComposite in2="hardAlpha" operator="out"/>
<feColorMatrix type="matrix" values="0 0 0 0 0.117647 0 0 0 0 0.627451 0 0 0 0 0.870588 0 0 0 0.15 0"/>
<feBlend mode="normal" in2="BackgroundImageFix" result="effect1_dropShadow_4301_746"/>
<feBlend mode="normal" in="SourceGraphic" in2="effect1_dropShadow_4301_746" result="shape"/>
</filter>
<linearGradient id="paint0_linear_4301_746" x1="118.07" y1="193.608" x2="286.887" y2="163.711" gradientUnits="userSpaceOnUse">
<stop stop-color="#F17E00"/>
<stop offset="1" stop-color="#FC9F30"/>
</linearGradient>
</defs>
</svg>
