<svg width="13" height="12" viewBox="0 0 13 12" fill="none" xmlns="http://www.w3.org/2000/svg">
<path d="M5.60118 8.91663H6.76785V5.41663H5.60118V8.91663ZM6.18451 4.24996C6.34979 4.24996 6.48843 4.19396 6.60043 4.08196C6.71243 3.96996 6.76824 3.83151 6.76785 3.66663C6.76746 3.50174 6.71146 3.36329 6.59985 3.25129C6.48824 3.13929 6.34979 3.08329 6.18451 3.08329C6.01924 3.08329 5.88079 3.13929 5.76918 3.25129C5.65757 3.36329 5.60157 3.50174 5.60118 3.66663C5.60079 3.83151 5.65679 3.97015 5.76918 4.08254C5.88157 4.19493 6.02001 4.25074 6.18451 4.24996ZM6.18451 11.8333C5.37757 11.8333 4.61924 11.6801 3.90952 11.3736C3.19979 11.0672 2.58243 10.6517 2.05743 10.127C1.53243 9.60243 1.1169 8.98507 0.810848 8.27496C0.504793 7.56485 0.351571 6.80651 0.351182 5.99996C0.350793 5.1934 0.504015 4.43507 0.810848 3.72496C1.11768 3.01485 1.53321 2.39749 2.05743 1.87288C2.58165 1.34826 3.19902 0.932737 3.90952 0.626293C4.62002 0.319848 5.37835 0.166626 6.18451 0.166626C6.99068 0.166626 7.74901 0.319848 8.45951 0.626293C9.17001 0.932737 9.78738 1.34826 10.3116 1.87288C10.8358 2.39749 11.2515 3.01485 11.5588 3.72496C11.866 4.43507 12.019 5.1934 12.0178 5.99996C12.0167 6.80651 11.8635 7.56485 11.5582 8.27496C11.2529 8.98507 10.8374 9.60243 10.3116 10.127C9.78582 10.6517 9.16846 11.0674 8.45951 11.3742C7.75057 11.681 6.99224 11.8341 6.18451 11.8333ZM6.18451 10.6666C7.48729 10.6666 8.59076 10.2145 9.49493 9.31038C10.3991 8.40621 10.8512 7.30274 10.8512 5.99996C10.8512 4.69718 10.3991 3.59371 9.49493 2.68954C8.59076 1.78538 7.48729 1.33329 6.18451 1.33329C4.88174 1.33329 3.77826 1.78538 2.8741 2.68954C1.96993 3.59371 1.51785 4.69718 1.51785 5.99996C1.51785 7.30274 1.96993 8.40621 2.8741 9.31038C3.77826 10.2145 4.88174 10.6666 6.18451 10.6666Z" fill="#CCD6EB"/>
</svg>
