<svg width="41" height="100" viewBox="0 0 41 100" fill="none" xmlns="http://www.w3.org/2000/svg">
<path d="M6.28851 63.1936L0.267578 0L40.8052 0L32.855 63.1936H6.28851ZM19.5007 99.9889C16.7541 99.9889 14.1969 99.3259 11.8291 98C9.46134 96.5793 7.61447 94.7324 6.28851 92.4594C4.96255 90.0916 4.29957 87.487 4.29957 84.6457C4.29957 80.3837 5.7676 76.7846 8.70365 73.8486C11.6397 70.9125 15.2387 69.4445 19.5007 69.4445C23.7627 69.4445 27.3618 70.9125 30.2978 73.8486C33.3286 76.7846 34.844 80.3837 34.844 84.6457C34.844 87.487 34.1336 90.0916 32.713 92.4594C31.387 94.7324 29.5875 96.5793 27.3144 98C25.0413 99.3259 22.4368 99.9889 19.5007 99.9889Z" fill="white" fill-opacity="0.49"/>
</svg>
