<svg width="41" height="41" viewBox="0 0 41 41" fill="none" xmlns="http://www.w3.org/2000/svg">
<path fill-rule="evenodd" clip-rule="evenodd" d="M34.2337 0.395222L34.7816 0.46398C36.2299 0.66381 38.1465 0.932399 39.2316 2.01965C40.1212 2.90707 40.4628 4.351 40.667 5.64023L40.7873 6.46963C41.058 8.42496 41.1289 10.9862 40.667 13.8311C39.7559 19.4457 36.7671 26.1454 29.2616 31.3324C29.2208 31.7363 29.2186 32.1446 29.2272 32.5529L29.2487 33.1631C29.2831 34.1021 29.3175 35.0411 29.0553 35.9521C28.6471 37.3703 27.1924 38.305 25.8323 38.9754L25.1662 39.2912L24.3067 39.6694C22.6994 40.3527 20.5292 41.0532 19.1691 39.6909C18.3526 38.8765 18.0174 37.6818 17.7445 36.4936L17.6435 36.0488C17.5281 35.4876 17.3846 34.9326 17.2138 34.3857C17.1063 34.0706 16.9903 33.7518 16.8657 33.4295C16.7285 33.5979 16.5829 33.7593 16.4295 33.913C15.6882 34.6543 14.5816 35.1721 13.6705 35.5353C12.6757 35.9285 11.5498 36.2723 10.5076 36.5559L9.97261 36.6977L8.94767 36.9534L8.01943 37.1683L6.90855 37.4046L6.21451 37.54C5.86838 37.6041 5.51184 37.583 5.17567 37.4786C4.83949 37.3742 4.53376 37.1896 4.28484 36.9407C4.03593 36.6917 3.8513 36.386 3.74688 36.0498C3.64246 35.7136 3.62139 35.3571 3.68548 35.011L3.87027 34.0849L4.20117 32.5851L4.46761 31.4892L4.66959 30.7157C4.95322 29.6757 5.29701 28.5498 5.69237 27.5571C6.05336 26.6439 6.5712 25.5373 7.3125 24.796L7.4844 24.6306L7.34688 24.5747C6.97961 24.4352 6.60767 24.3084 6.2317 24.1944L5.63651 24.0117C4.1453 23.5605 2.55096 23.0749 1.5604 22.0822C0.357121 20.881 0.763228 19.0525 1.34338 17.5312L1.57974 16.9425L1.96006 16.083L2.27592 15.4169C2.94632 14.0589 3.88101 12.6042 5.29916 12.196C6.05121 11.9811 6.83334 11.9682 7.61977 11.9897L8.09249 12.0047C8.70702 12.0262 9.3194 12.0498 9.91889 11.9918C15.1059 4.48422 21.8056 1.49536 27.4202 0.584308C29.6725 0.21489 31.9644 0.151287 34.2337 0.395222ZM13.1506 27.6302C12.8125 27.3796 12.4083 27.2338 11.9881 27.2109C11.5679 27.188 11.1503 27.2889 10.787 27.5012L10.5506 27.6602L10.3508 27.8386L10.0822 28.1781C9.52353 28.986 9.20552 30.1033 8.95842 31.1476L8.72636 32.1532L8.61677 32.6109L9.02718 32.512L9.92534 32.3058C11.1673 32.0157 12.5446 31.6397 13.3912 30.8769C13.7593 30.509 13.9814 30.0199 14.0161 29.5007C14.0509 28.9814 13.8961 28.4672 13.5803 28.0535L13.4041 27.8515L13.3525 27.8021L13.1506 27.6302ZM28.5848 12.645C28.1858 12.2459 27.7121 11.9293 27.1907 11.7132C26.6693 11.4971 26.1105 11.3859 25.5462 11.3858C24.9818 11.3857 24.4229 11.4967 23.9015 11.7126C23.3801 11.9285 22.9063 12.245 22.5071 12.644C22.108 13.0429 21.7914 13.5167 21.5753 14.038C21.3592 14.5594 21.248 15.1182 21.2479 15.6826C21.2478 16.2469 21.3588 16.8058 21.5747 17.3272C21.7906 17.8486 22.1071 18.3225 22.5061 18.7216C23.3119 19.5277 24.4049 19.9806 25.5446 19.9808C26.6844 19.9811 27.7776 19.5285 28.5837 18.7227C29.3898 17.9169 29.8427 16.8238 29.8429 15.6841C29.8431 14.5443 29.3906 13.4511 28.5848 12.645Z" fill="white"/>
</svg>
