<svg width="155" height="162" viewBox="0 0 155 162" fill="none" xmlns="http://www.w3.org/2000/svg">
<path fill-rule="evenodd" clip-rule="evenodd" d="M77.903 0H77.097C70.1298 0 64.325 3.4901e-07 59.7215 0.624579C54.8545 1.28039 50.4602 2.73253 46.934 6.28482C43.4 9.84492 41.9585 14.2716 41.3075 19.1667C40.8657 22.5004 40.734 30.456 40.703 37.2795C25.0325 37.8026 15.6162 39.6451 9.083 46.2344C-9.23872e-07 55.3767 0 70.1011 0 99.5422C0 128.983 -9.23872e-07 143.708 9.083 152.85C18.166 161.992 32.7747 162 62 162H93C122.225 162 136.842 162 145.917 152.85C154.992 143.7 155 128.983 155 99.5422C155 70.1011 155 55.3767 145.917 46.2344C139.384 39.6451 129.967 37.8026 114.297 37.2873C114.266 30.456 114.142 22.5004 113.692 19.1746C113.042 14.2716 111.6 9.84492 108.066 6.29263C104.54 2.73253 100.146 1.28039 95.2785 0.624579C90.675 3.4901e-07 84.8625 0 77.903 0ZM102.672 37.1C102.633 30.4872 102.525 23.3748 102.176 20.7282C101.688 17.1291 100.858 15.5832 99.851 14.5683C98.8435 13.5533 97.309 12.718 93.7285 12.2261C89.993 11.7265 84.971 11.7108 77.5 11.7108C70.029 11.7108 65.007 11.7265 61.2637 12.2339C57.691 12.718 56.1565 13.5534 55.149 14.5761C54.1415 15.5988 53.3122 17.1291 52.824 20.7282C52.4753 23.3827 52.359 30.4872 52.328 37.1C55.366 37.0843 58.59 37.0791 62 37.0843H93C96.4203 37.0843 99.6443 37.0895 102.672 37.1ZM77.5 62.4578C79.0416 62.4578 80.52 63.0747 81.6101 64.1729C82.7001 65.271 83.3125 66.7603 83.3125 68.3133V68.3913C91.7523 70.5305 98.8125 77.2369 98.8125 86.5275C98.8125 88.0805 98.2001 89.5698 97.1101 90.6679C96.02 91.766 94.5416 92.3829 93 92.3829C91.4584 92.3829 89.98 91.766 88.8899 90.6679C87.7999 89.5698 87.1875 88.0805 87.1875 86.5275C87.1875 83.5295 83.886 79.3761 77.5 79.3761C71.114 79.3761 67.8125 83.5295 67.8125 86.5275C67.8125 89.5255 71.114 93.6868 77.5 93.6868C88.2337 93.6868 98.8125 101.182 98.8125 112.557C98.8125 121.847 91.7523 128.546 83.3125 130.693V130.771C83.3125 132.324 82.7001 133.813 81.6101 134.911C80.52 136.01 79.0416 136.627 77.5 136.627C75.9584 136.627 74.48 136.01 73.3899 134.911C72.2999 133.813 71.6875 132.324 71.6875 130.771V130.693C63.2477 128.554 56.1875 121.847 56.1875 112.557C56.1875 111.004 56.7999 109.515 57.8899 108.416C58.98 107.318 60.4584 106.701 62 106.701C63.5416 106.701 65.02 107.318 66.1101 108.416C67.2001 109.515 67.8125 111.004 67.8125 112.557C67.8125 115.555 71.114 119.708 77.5 119.708C83.886 119.708 87.1875 115.555 87.1875 112.557C87.1875 109.559 83.886 105.398 77.5 105.398C66.7663 105.398 56.1875 97.9027 56.1875 86.5275C56.1875 77.2369 63.2477 70.5305 71.6875 68.3913V68.3133C71.6875 66.7603 72.2999 65.271 73.3899 64.1729C74.48 63.0747 75.9584 62.4578 77.5 62.4578Z" fill="white" fill-opacity="0.35"/>
</svg>
