<svg width="15" height="16" viewBox="0 0 15 16" fill="none" xmlns="http://www.w3.org/2000/svg">
<g clip-path="url(#clip0_3564_12373)">
<path d="M0 13.9058C0.0213333 13.761 0.036 13.6148 0.0651667 13.4715C0.183333 12.8942 0.4315 12.379 0.837 11.9493C1.0505 11.723 1.32583 11.5768 1.60233 11.4403C2.30083 11.0955 3.038 10.8565 3.78817 10.6557C4.16783 10.554 4.5505 10.4637 4.932 10.3687C4.95783 10.3622 4.9845 10.3595 5.01467 10.3545C5.002 10.5013 4.985 10.641 4.97883 10.7813C4.9495 11.4482 5.12217 12.0652 5.45283 12.64C5.83683 13.3078 6.36467 13.8453 6.9785 14.3023C7.1295 14.4148 7.28833 14.5172 7.447 14.6188C7.472 14.6348 7.52417 14.637 7.54867 14.6217C8.40917 14.0832 9.13567 13.4113 9.61967 12.5053C9.93283 11.919 10.0685 11.2925 10.013 10.6277C10.0057 10.54 9.99133 10.4528 9.97783 10.3477C10.1422 10.3857 10.296 10.4147 10.4462 10.4568C11.0512 10.6267 11.6587 10.7887 12.258 10.9768C12.7495 11.1312 13.2217 11.3368 13.6743 11.5883C14.0982 11.8238 14.3963 12.168 14.6178 12.5903C14.8238 12.9832 14.9543 13.3973 14.9847 13.8413C14.9862 13.863 14.9947 13.8843 15 13.9057V14.3223C14.9837 14.4508 14.9643 14.579 14.9513 14.7077C14.9133 15.0828 14.7158 15.3248 14.3538 15.432C14.2693 15.457 14.1847 15.4812 14.1 15.5057H0.9C0.845 15.4897 0.790167 15.4725 0.734833 15.458C0.292167 15.3417 0.113667 15.1428 0.0483333 14.6913C0.0313333 14.574 0.016 14.4565 0 14.339C0 14.1945 0 14.0502 0 13.9057L0 13.9058Z" fill="#1EA0DE"/>
<path d="M7.75065 0.505859C7.92081 0.527193 8.09215 0.541026 8.26065 0.571193C9.11665 0.724193 9.84781 1.09653 10.3726 1.81053C10.7663 2.34603 10.9801 2.94886 11.0218 3.61503C11.0421 3.94086 11.0265 4.26369 10.9965 4.58719C10.9938 4.61586 11.001 4.65586 11.0196 4.67469C11.4743 5.13403 11.517 5.66653 11.2951 6.24203C11.1958 6.49986 11.038 6.72536 10.8671 6.94136C10.8403 6.97519 10.8181 7.01469 10.802 7.05486C10.6166 7.51519 10.4263 7.97369 10.1703 8.40019C9.71081 9.16586 9.03415 9.62669 8.16331 9.80886C7.46148 9.95569 6.78398 9.87519 6.13381 9.57969C5.49865 9.29103 5.02848 8.82436 4.72048 8.20153C4.53281 7.82186 4.37198 7.42903 4.19198 7.04553C4.14915 6.95453 4.07881 6.87603 4.01898 6.79336C3.81365 6.50953 3.64631 6.20786 3.59315 5.85603C3.52598 5.41169 3.63515 5.02019 3.95931 4.69919C3.99415 4.66469 4.00781 4.63303 4.00231 4.58336C3.94715 4.08436 3.93865 3.58519 4.04815 3.09269C4.21348 2.34936 4.57448 1.71919 5.17498 1.24053C5.60615 0.896859 6.10398 0.693193 6.64265 0.589859C6.83815 0.552526 7.03681 0.533359 7.23398 0.505859C7.40615 0.505859 7.57848 0.505859 7.75065 0.505859ZM5.17281 5.63786C5.11415 5.56036 5.05131 5.45819 4.96981 5.37403C4.83931 5.23936 4.63865 5.28086 4.55398 5.44919C4.50665 5.54336 4.50481 5.64186 4.52748 5.74103C4.58965 6.01269 4.75748 6.22286 4.93048 6.43053C4.96848 6.47619 4.99865 6.53036 5.02331 6.58469C5.21298 7.00286 5.38931 7.42769 5.59198 7.83953C5.76481 8.19069 6.03548 8.46353 6.37998 8.65253C6.91048 8.94353 7.47398 9.01819 8.06165 8.87319C8.61015 8.73786 9.04831 8.44136 9.34631 7.95436C9.56548 7.59619 9.72498 7.20903 9.88581 6.82269C9.94681 6.67619 9.98298 6.51819 10.0981 6.39553C10.1775 6.31119 10.2451 6.21469 10.3088 6.11753C10.41 5.96319 10.4908 5.79953 10.4856 5.60719C10.482 5.46853 10.408 5.35069 10.2953 5.31119C10.1651 5.26553 10.0663 5.32403 9.98831 5.41986C9.92748 5.49469 9.87865 5.57953 9.83731 5.64086C9.90898 5.31236 9.98531 4.96286 10.0631 4.60636C10.016 4.60336 9.99431 4.60103 9.97248 4.60069C9.39615 4.59419 8.82865 4.52669 8.27598 4.35519C7.51448 4.11886 6.83031 3.75086 6.26731 3.17736C6.23065 3.14003 6.19381 3.12803 6.14965 3.14503C6.02865 3.19186 5.90215 3.23019 5.78981 3.29319C5.44698 3.48536 5.18481 3.76736 4.95548 4.08103C4.93181 4.11353 4.91331 4.16286 4.91798 4.20119C4.95631 4.50603 4.99431 4.81136 5.04615 5.11419C5.07765 5.29869 5.13331 5.47903 5.17248 5.63786H5.17281Z" fill="#1EA0DE"/>
<path d="M7.19621 11.5611C6.89554 11.3896 6.70554 11.1243 6.54688 10.8255C6.68454 10.6751 6.82038 10.5253 6.95888 10.3781C6.97504 10.361 7.00704 10.351 7.03171 10.3508C7.34504 10.3496 7.65854 10.3496 7.97188 10.353C8.00038 10.3533 8.03554 10.3711 8.05571 10.3923C8.17804 10.5211 8.29521 10.6548 8.41788 10.7831C8.45421 10.8211 8.44271 10.8476 8.42188 10.8845C8.26854 11.156 8.08554 11.4 7.80104 11.5623C7.82654 11.6265 7.85171 11.6896 7.87671 11.7528C8.06204 12.2215 8.24771 12.69 8.43138 13.1593C8.44054 13.183 8.44121 13.2225 8.42738 13.2405C8.19938 13.5398 7.95238 13.8195 7.62054 14.0113C7.53754 14.0593 7.46988 14.0623 7.38338 14.0133C7.08971 13.847 6.86988 13.6033 6.65254 13.3531C6.56854 13.2565 6.55138 13.18 6.60371 13.0551C6.80121 12.5851 6.98221 12.1083 7.16938 11.634C7.17838 11.6113 7.18604 11.5883 7.19588 11.5608L7.19621 11.5611Z" fill="#1EA0DE"/>
</g>
<defs>
<clipPath id="clip0_3564_12373">
<rect width="15" height="15" fill="white" transform="translate(0 0.505859)"/>
</clipPath>
</defs>
</svg>
