<svg width="44" height="44" viewBox="0 0 44 44" fill="none" xmlns="http://www.w3.org/2000/svg">
<path d="M21.7466 0.137695C17.4588 0.137695 13.2673 1.40917 9.7022 3.79132C6.13706 6.17347 3.35837 9.55932 1.71751 13.5207C0.076654 17.4821 -0.352669 21.8411 0.483832 26.0464C1.32033 30.2518 3.38509 34.1147 6.41699 37.1466C9.4489 40.1785 13.3118 42.2433 17.5172 43.0798C21.7225 43.9163 26.0815 43.4869 30.0429 41.8461C34.0043 40.2052 37.3901 37.4265 39.7723 33.8614C42.1544 30.2962 43.4259 26.1048 43.4259 21.817C43.4259 18.97 42.8651 16.151 41.7757 13.5207C40.6862 10.8904 39.0893 8.50053 37.0762 6.48742C35.0631 4.47431 32.6732 2.87742 30.0429 1.78794C27.4126 0.698447 24.5936 0.137695 21.7466 0.137695ZM6.57106 30.0552C7.98758 30.4238 9.44337 30.6203 10.9069 30.6405C13.3558 30.7079 15.7553 29.9437 17.7142 28.4726C21.4214 25.5675 21.4214 21.8387 21.4214 18.8469C21.257 17.1154 21.5329 15.3703 22.2235 13.774C22.851 12.9196 23.6869 12.2404 24.6516 11.8012C25.3403 11.3974 26.0061 10.9559 26.6461 10.4787C27.9934 9.41455 29.0396 8.01715 29.6812 6.4247C32.7314 7.9853 35.251 10.4144 36.9221 13.4054C33.822 13.839 29.4211 14.8579 28.5539 18.8903C28.3582 19.8537 28.2565 20.8339 28.2504 21.817C28.3206 22.9158 28.1039 24.014 27.6217 25.0039L27.4049 25.3724C25.9957 27.7138 24.4131 30.3803 26.5594 34.0441C26.8195 34.4994 27.1014 34.933 27.3832 35.3666C27.9593 36.0337 28.3483 36.8416 28.5105 37.708C26.3782 38.6472 24.0766 39.1414 21.7466 39.1605C18.6326 39.1449 15.5803 38.2913 12.91 36.6891C10.2398 35.087 8.05018 32.7955 6.57106 30.0552Z" fill="#1EA0DE"/>
</svg>
