<svg width="15" height="15" viewBox="0 0 15 15" fill="none" xmlns="http://www.w3.org/2000/svg">
<path fill-rule="evenodd" clip-rule="evenodd" d="M5.16162 0.644331C3.80864 1.03846 2.60584 1.83122 1.71017 2.91919C0.814497 4.00716 0.267529 5.33983 0.140625 6.74333H3.34062C3.52716 4.60758 4.14639 2.53213 5.16062 0.643331L5.16162 0.644331ZM3.34062 7.99333H0.140625C0.267265 9.39688 0.813999 10.7297 1.7095 11.8178C2.60499 12.906 3.80767 13.699 5.16062 14.0933C4.14639 12.2045 3.52716 10.1291 3.34062 7.99333ZM6.76463 14.3603C5.5522 12.4374 4.80887 10.2564 4.59462 7.99333H9.62963C9.41538 10.2564 8.67205 12.4374 7.45963 14.3603C7.2281 14.3718 6.99615 14.3718 6.76463 14.3603ZM9.06462 14.0923C10.4174 13.698 11.62 12.9052 12.5155 11.8172C13.411 10.7293 13.9578 9.39671 14.0846 7.99333H10.8846C10.6981 10.1291 10.0789 12.2045 9.06462 14.0933V14.0923ZM10.8846 6.74333H14.0846C13.958 5.33978 13.4113 4.00698 12.5158 2.91883C11.6203 1.83067 10.4176 1.03769 9.06462 0.643331C10.0789 2.53213 10.6981 4.60758 10.8846 6.74333ZM6.76463 0.376331C6.99648 0.364791 7.22877 0.364791 7.46063 0.376331C8.67269 2.29931 9.41568 4.48032 9.62963 6.74333H4.59562C4.81262 4.46633 5.55762 2.28333 6.76463 0.376331Z" fill="#3CAAE1"/>
</svg>
