<svg width="15" height="15" viewBox="0 0 15 15" fill="none" xmlns="http://www.w3.org/2000/svg">
<g clip-path="url(#clip0_8504_12641)">
<path d="M1.24527 0.0537112C1.1463 0.0536343 1.04829 0.0730803 0.956854 0.110936C0.865413 0.148791 0.782337 0.204312 0.712384 0.274319C0.64243 0.344326 0.586974 0.427445 0.549189 0.518915C0.511405 0.610386 0.492035 0.708411 0.492188 0.807378V2.76271C0.492112 2.86163 0.511538 2.95959 0.549357 3.05099C0.587176 3.1424 0.642645 3.22545 0.71259 3.29539C0.782536 3.36534 0.865586 3.42081 0.956988 3.45863C1.04839 3.49644 1.14635 3.51587 1.24527 3.51579H3.20177C3.30059 3.51572 3.39843 3.49618 3.4897 3.45829C3.58096 3.4204 3.66388 3.36491 3.7337 3.29498C3.80352 3.22505 3.85889 3.14205 3.89663 3.05072C3.93438 2.9594 3.95376 2.86153 3.95369 2.76271V0.806794C3.95353 0.60732 3.87418 0.416069 3.73308 0.275074C3.59198 0.134079 3.40066 0.0548778 3.20119 0.0548778L1.24527 0.0537112ZM6.51452 0.0537112C6.41565 0.0537111 6.31775 0.0731944 6.22642 0.111048C6.13508 0.148901 6.0521 0.204382 5.98222 0.27432C5.91233 0.344257 5.85692 0.427281 5.81914 0.518646C5.78135 0.610011 5.76195 0.707926 5.76202 0.806794V2.76213C5.76195 2.861 5.78135 2.95891 5.81914 3.05028C5.85692 3.14164 5.91233 3.22466 5.98222 3.2946C6.0521 3.36454 6.13508 3.42002 6.22642 3.45787C6.31775 3.49573 6.41565 3.51521 6.51452 3.51521H13.7397C13.8386 3.51521 13.9365 3.49573 14.0278 3.45787C14.1191 3.42002 14.2021 3.36454 14.272 3.2946C14.3419 3.22466 14.3973 3.14164 14.4351 3.05028C14.4729 2.95891 14.4923 2.861 14.4922 2.76213V0.806794C14.4921 0.707975 14.4726 0.610138 14.4347 0.51887C14.3968 0.427601 14.3413 0.344689 14.2714 0.274867C14.2014 0.205046 14.1184 0.149681 14.0271 0.111935C13.9358 0.0741893 13.8379 0.0548012 13.7391 0.0548778L6.51452 0.0537112ZM1.24527 5.28329C1.1464 5.28322 1.04849 5.30262 0.957123 5.34041C0.865758 5.37819 0.782735 5.43361 0.712797 5.50349C0.642859 5.57337 0.587378 5.65635 0.549525 5.74769C0.511672 5.83903 0.492188 5.93693 0.492188 6.03579V7.99171C0.492188 8.09058 0.511672 8.18848 0.549525 8.27981C0.587378 8.37115 0.642859 8.45413 0.712797 8.52402C0.782735 8.5939 0.865758 8.64931 0.957123 8.6871C1.04849 8.72488 1.1464 8.74429 1.24527 8.74421H13.7391C13.8379 8.74429 13.9358 8.7249 14.0271 8.68715C14.1184 8.64941 14.2014 8.59404 14.2714 8.52422C14.3413 8.4544 14.3968 8.37149 14.4347 8.28022C14.4726 8.18895 14.4921 8.09111 14.4922 7.99229V6.03579C14.4921 5.93697 14.4726 5.83914 14.4347 5.74787C14.3968 5.6566 14.3413 5.57369 14.2714 5.50387C14.2014 5.43405 14.1184 5.37868 14.0271 5.34094C13.9358 5.30319 13.8379 5.2838 13.7391 5.28388L1.24527 5.28329ZM1.24527 10.5129C1.14635 10.5128 1.04839 10.5322 0.956988 10.57C0.865586 10.6079 0.782536 10.6633 0.71259 10.7333C0.642645 10.8032 0.587176 10.8863 0.549357 10.9777C0.511538 11.0691 0.492112 11.167 0.492188 11.266V13.2213C0.492188 13.3202 0.511672 13.4181 0.549525 13.5094C0.587378 13.6007 0.642859 13.6837 0.712797 13.7536C0.782735 13.8235 0.865758 13.8789 0.957123 13.9167C1.04849 13.9545 1.1464 13.9739 1.24527 13.9738H8.46985C8.66943 13.9738 8.86083 13.8945 9.00195 13.7534C9.14307 13.6123 9.22235 13.4209 9.22235 13.2213V11.266C9.22243 11.1671 9.20302 11.0692 9.16524 10.9778C9.12746 10.8864 9.07204 10.8034 9.00216 10.7335C8.93228 10.6635 8.84929 10.6081 8.75796 10.5702C8.66662 10.5324 8.56872 10.5129 8.46985 10.5129H1.24527ZM11.7826 10.5129C11.6838 10.513 11.5859 10.5325 11.4947 10.5704C11.4034 10.6083 11.3205 10.6638 11.2507 10.7337C11.1809 10.8036 11.1255 10.8866 11.0877 10.9779C11.05 11.0693 11.0306 11.1671 11.0307 11.266V13.2213C11.0307 13.4209 11.11 13.6123 11.2511 13.7534C11.3922 13.8945 11.5836 13.9738 11.7832 13.9738H13.7391C13.8379 13.9739 13.9358 13.9545 14.0271 13.9167C14.1184 13.879 14.2014 13.8236 14.2714 13.7538C14.3413 13.684 14.3968 13.6011 14.4347 13.5098C14.4726 13.4185 14.4921 13.3207 14.4922 13.2219V11.2665C14.4923 11.1676 14.4728 11.0697 14.435 10.9783C14.3972 10.8869 14.3417 10.8038 14.2718 10.7339C14.2018 10.6639 14.1188 10.6084 14.0274 10.5706C13.936 10.5328 13.838 10.5134 13.7391 10.5135L11.7826 10.5129Z" fill="#3CAAE1"/>
</g>
<defs>
<clipPath id="clip0_8504_12641">
<rect width="14" height="14" fill="white" transform="translate(0.492188 0.0136719)"/>
</clipPath>
</defs>
</svg>
