<svg width="16" height="16" viewBox="0 0 16 16" fill="none" xmlns="http://www.w3.org/2000/svg">
<path d="M8.0262 15.5957C6.76459 15.5954 5.52299 15.2819 4.41389 14.6835L4.17106 14.552L0.697463 15.4564L1.62595 12.0903L1.48068 11.8404C0.819554 10.7009 0.471869 9.40822 0.472658 8.09247C0.474318 3.95874 3.86273 0.595708 8.026 0.595708C9.01702 0.594566 9.99856 0.787746 10.9146 1.16421C11.8305 1.54068 12.663 2.09306 13.3645 2.7898C14.0659 3.48653 14.6225 4.31397 15.0026 5.22486C15.3826 6.13574 15.5786 7.11221 15.5794 8.09849C15.5777 12.2322 12.1891 15.5953 8.0262 15.5957Z" fill="#25D366"/>
<path fill-rule="evenodd" clip-rule="evenodd" d="M11.6736 9.84974C11.4696 9.7481 10.4664 9.25687 10.2793 9.18903C10.0923 9.12128 9.95624 9.08743 9.82019 9.29066C9.68414 9.4939 9.29312 9.95142 9.17406 10.087C9.05506 10.2224 8.93601 10.2395 8.73199 10.1378C8.52796 10.0361 7.87043 9.82173 7.09104 9.12981C6.48442 8.59131 6.07489 7.92631 5.95585 7.72297C5.83681 7.51963 5.94316 7.4098 6.04532 7.30854C6.13712 7.21752 6.24938 7.07132 6.35141 6.95274C6.45343 6.83416 6.48743 6.74942 6.55545 6.61397C6.62346 6.47839 6.58946 6.35982 6.53844 6.25819C6.48741 6.15655 6.07935 5.15692 5.9093 4.75027C5.74367 4.35433 5.57544 4.40796 5.45019 4.40167C5.3313 4.39579 5.19512 4.39453 5.0591 4.39453C4.9557 4.39723 4.85397 4.4212 4.76032 4.46493C4.66668 4.50865 4.58314 4.5712 4.51496 4.64862C4.32792 4.85195 3.80078 5.34327 3.80078 6.34279C3.80078 7.34239 4.53196 8.30804 4.63399 8.44358C4.73602 8.57912 6.07285 10.6303 8.11982 11.51C8.49972 11.6729 8.88802 11.8157 9.28309 11.9378C9.77193 12.0924 10.2168 12.0705 10.5684 12.0182C10.9604 11.96 11.7756 11.527 11.9457 11.0527C12.1157 10.5782 12.1157 10.1716 12.0647 10.0869C12.0137 10.0023 11.8777 9.95142 11.6736 9.84974Z" fill="white"/>
</svg>
