<svg width="15" height="16" viewBox="0 0 15 16" fill="none" xmlns="http://www.w3.org/2000/svg">
<path fill-rule="evenodd" clip-rule="evenodd" d="M2.9391 0.585938C2.41239 0.585938 1.90725 0.823595 1.5348 1.24663C1.16236 1.66966 0.953125 2.24342 0.953125 2.84168V3.59359H14.193V2.84168C14.193 2.24342 13.9838 1.66966 13.6113 1.24663C13.2389 0.823595 12.7337 0.585938 12.207 0.585938H2.9391ZM14.193 5.09742H0.953125V10.3608C0.953125 10.9591 1.16236 11.5328 1.5348 11.9559C1.90725 12.3789 2.41239 12.6166 2.9391 12.6166H12.207C12.7337 12.6166 13.2389 12.3789 13.6113 11.9559C13.9838 11.5328 14.193 10.9591 14.193 10.3608V5.09742ZM4.92508 8.85699C4.92508 8.65757 4.99483 8.46632 5.11898 8.32531C5.24312 8.1843 5.41151 8.10508 5.58708 8.10508H8.50911L8.42901 8.01409C8.3048 7.8731 8.23498 7.68184 8.23492 7.48238C8.23485 7.28292 8.30455 7.0916 8.42868 6.95051C8.55281 6.80942 8.7212 6.73012 8.89681 6.73005C9.07241 6.72998 9.24085 6.80915 9.36507 6.95014L10.5752 8.32539C10.6993 8.46639 10.769 8.65761 10.769 8.85699C10.769 9.05637 10.6993 9.24759 10.5752 9.38859L9.36507 10.7631C9.304 10.8349 9.23096 10.8922 9.15019 10.9316C9.06943 10.971 8.98256 10.9917 8.89466 10.9926C8.80676 10.9935 8.71959 10.9745 8.63823 10.9366C8.55688 10.8988 8.48296 10.843 8.42081 10.7724C8.35865 10.7018 8.3095 10.6179 8.27621 10.5255C8.24293 10.433 8.22618 10.334 8.22694 10.2342C8.2277 10.1344 8.24596 10.0357 8.28066 9.94395C8.31535 9.85222 8.36579 9.76925 8.42901 9.69989L8.50911 9.6089H5.58708C5.41151 9.6089 5.24312 9.52968 5.11898 9.38867C4.99483 9.24766 4.92508 9.05641 4.92508 8.85699Z" fill="#1EA0DE"/>
</svg>
