<svg width="46" height="46" viewBox="0 0 46 46" fill="none" xmlns="http://www.w3.org/2000/svg">
<g clip-path="url(#clip0_2408_5213)">
<path d="M0.764648 23.2402C0.764648 10.8874 10.7785 0.873535 23.1314 0.873535C35.4842 0.873535 45.4981 10.8874 45.4981 23.2402C45.4981 35.5931 35.4842 45.6069 23.1314 45.6069C10.7785 45.6069 0.764648 35.5931 0.764648 23.2402Z" fill="black"/>
<path fill-rule="evenodd" clip-rule="evenodd" d="M22.6787 0.873535C22.5731 10.0754 21.9713 15.2251 18.5438 18.6527C15.1162 22.0802 9.96647 22.682 0.764648 22.7876V24.123C9.96647 24.2286 15.1162 24.8304 18.5438 28.2579C21.9176 31.6317 22.5535 36.6741 22.6734 45.6069H24.0195C24.1393 36.6741 24.7752 31.6317 28.149 28.2579C31.5228 24.8841 36.5652 24.2482 45.4981 24.1284V22.7822C36.5652 22.6624 31.5228 22.0264 28.149 18.6527C24.7215 15.2251 24.1197 10.0754 24.0141 0.873535H22.6787Z" fill="white"/>
</g>
<defs>
<clipPath id="clip0_2408_5213">
<rect width="44.7334" height="44.7334" fill="white" transform="translate(0.764648 0.873535)"/>
</clipPath>
</defs>
</svg>
