<svg width="42" height="42" viewBox="0 0 42 42" fill="none" xmlns="http://www.w3.org/2000/svg">
<rect x="0.5" y="0.5" width="41" height="41" rx="20.5" stroke="white"/>
<path d="M19.9676 23.628L19.4636 13.8H22.5716L22.0466 23.628H19.9676ZM21.0176 28.647C20.5276 28.647 20.1216 28.486 19.7996 28.164C19.4776 27.842 19.3166 27.457 19.3166 27.009C19.3166 26.561 19.4776 26.183 19.7996 25.875C20.1216 25.553 20.5276 25.392 21.0176 25.392C21.5076 25.392 21.9066 25.553 22.2146 25.875C22.5226 26.183 22.6766 26.561 22.6766 27.009C22.6766 27.457 22.5226 27.842 22.2146 28.164C21.9066 28.486 21.5076 28.647 21.0176 28.647Z" fill="white"/>
</svg>
