<svg width="18" height="16" viewBox="0 0 18 16" fill="none" xmlns="http://www.w3.org/2000/svg">
<g clip-path="url(#clip0_2164_4574)">
<path d="M9.22165 13.7714C8.13006 13.6321 7.1546 13.3534 6.29527 12.9354C5.43593 12.5174 4.70735 11.9717 4.10953 11.2982C3.51079 10.6247 3.05487 9.844 2.7418 8.95598C2.42872 8.06795 2.27195 7.08378 2.27148 6.00347C3.54888 6.13119 4.62885 6.36342 5.51141 6.70014C6.39397 7.03687 7.11117 7.51293 7.663 8.12833C8.21437 8.74372 8.61199 9.51308 8.85585 10.4364C9.09972 11.3597 9.22165 12.4714 9.22165 13.7714ZM9.22165 7.90191C8.95456 7.49551 8.59178 7.09492 8.13331 6.70014C7.67485 6.30536 7.14345 5.94541 6.53913 5.62029C6.60881 5.13262 6.72493 4.62753 6.88751 4.10503C7.05009 3.58252 7.2475 3.06884 7.47975 2.56398C7.71201 2.05866 7.97631 1.57377 8.27267 1.10932C8.56902 0.644873 8.88535 0.221062 9.22165 -0.162109C9.55842 0.221062 9.87498 0.644873 10.1713 1.10932C10.4677 1.57377 10.7318 2.05866 10.9635 2.56398C11.1958 3.06884 11.3932 3.58229 11.5558 4.10433C11.7184 4.62637 11.8345 5.13146 11.9042 5.6196C11.3003 5.9331 10.7692 6.28725 10.3107 6.68203C9.85222 7.07681 9.48921 7.48344 9.22165 7.90191ZM10.6152 13.4927C10.5919 12.6799 10.5311 11.928 10.4326 11.2369C10.3341 10.5458 10.1802 9.89277 9.97067 9.27784C10.5165 8.33733 11.2685 7.57099 12.2268 6.97881C13.185 6.38664 14.5001 6.06152 16.1718 6.00347C16.1834 7.83804 15.6927 9.42019 14.6996 10.7499C13.7065 12.0796 12.345 12.9939 10.6152 13.4927Z" fill="#3CAAE1"/>
</g>
<defs>
<clipPath id="clip0_2164_4574">
<rect width="16.7024" height="14.918" fill="white" transform="translate(0.507812 0.587891)"/>
</clipPath>
</defs>
</svg>
