<svg width="12" height="12" viewBox="0 0 12 12" fill="none" xmlns="http://www.w3.org/2000/svg">
<path d="M10.6706 0H1.33724C0.603906 0 0.00390625 0.6 0.00390625 1.33333V10.6667C0.00390625 11.4 0.603906 12 1.33724 12H10.6706C11.4039 12 12.0039 11.4 12.0039 10.6667V1.33333C12.0039 0.6 11.4039 0 10.6706 0ZM2.67057 2.66667H4.00391V4H2.67057V2.66667ZM2.67057 5.33333H4.00391V6.66667H2.67057V5.33333ZM2.67057 8H4.00391V9.33333H2.67057V8ZM9.33724 9.33333H5.33724V8H9.33724V9.33333ZM9.33724 6.66667H5.33724V5.33333H9.33724V6.66667ZM9.33724 4H5.33724V2.66667H9.33724V4Z" fill="#ffffff"/>
</svg>
