<svg width="37" height="28" viewBox="0 0 37 28" fill="none" xmlns="http://www.w3.org/2000/svg">
<path fill-rule="evenodd" clip-rule="evenodd" d="M5.57373 0.636292C4.14819 0.636292 2.78104 1.17625 1.77303 2.13737C0.765024 3.09849 0.19873 4.40206 0.19873 5.76129V7.46963H36.0321V5.76129C36.0321 4.40206 35.4658 3.09849 34.4578 2.13737C33.4498 1.17625 32.0826 0.636292 30.6571 0.636292H5.57373ZM36.0321 10.8863H0.19873V22.8446C0.19873 24.2039 0.765024 25.5074 1.77303 26.4685C2.78104 27.4297 4.14819 27.9696 5.57373 27.9696H30.6571C32.0826 27.9696 33.4498 27.4297 34.4578 26.4685C35.4658 25.5074 36.0321 24.2039 36.0321 22.8446V10.8863ZM10.9487 19.428C10.9487 18.9749 11.1375 18.5404 11.4735 18.22C11.8095 17.8996 12.2652 17.7196 12.7404 17.7196H20.6488L20.432 17.5129C20.0958 17.1926 19.9069 16.758 19.9067 16.3049C19.9065 15.8517 20.0952 15.417 20.4311 15.0965C20.7671 14.7759 21.2228 14.5958 21.6981 14.5956C22.1734 14.5954 22.6292 14.7753 22.9654 15.0956L26.2406 18.2202C26.5765 18.5405 26.7652 18.975 26.7652 19.428C26.7652 19.8809 26.5765 20.3154 26.2406 20.6358L22.9654 23.7586C22.8002 23.9217 22.6025 24.0519 22.3839 24.1414C22.1653 24.231 21.9302 24.2781 21.6923 24.2801C21.4544 24.282 21.2185 24.2388 20.9983 24.1529C20.7781 24.067 20.578 23.9402 20.4098 23.7798C20.2416 23.6194 20.1086 23.4286 20.0185 23.2187C19.9284 23.0087 19.883 22.7838 19.8851 22.5569C19.8872 22.3301 19.9366 22.1059 20.0305 21.8975C20.1244 21.6891 20.2609 21.5006 20.432 21.343L20.6488 21.1363H12.7404C12.2652 21.1363 11.8095 20.9563 11.4735 20.6359C11.1375 20.3156 10.9487 19.881 10.9487 19.428Z" fill="#474766"/>
</svg>
