<svg width="11" height="15" viewBox="0 0 11 15" fill="none" xmlns="http://www.w3.org/2000/svg">
<path d="M1.62538 13.7945C1.62538 14.2223 1.95352 14.5723 2.35457 14.5723H8.18812C8.58917 14.5723 8.91731 14.2223 8.91731 13.7945V11.4612H1.62538V13.7945ZM9.6465 3.68338C9.24545 3.68338 8.91731 4.03338 8.91731 4.46115V2.12782C8.91731 1.27227 8.26104 0.572266 7.45892 0.572266H1.62538C0.823266 0.572266 0.166992 1.27227 0.166992 2.12782V6.63893C0.166992 6.74004 0.174284 6.84115 0.19616 6.94227L0.779514 10.0534C0.845142 10.4189 1.14411 10.6756 1.49412 10.6756H9.04856C9.3767 10.6756 9.69755 10.3956 9.76317 10.0534L10.3465 6.94227C10.3684 6.84115 10.3757 6.74004 10.3757 6.63893V4.46115C10.3757 4.03338 10.0476 3.68338 9.6465 3.68338ZM7.45892 6.01671H1.62538V3.68338H7.45892V6.01671Z" fill="#3CAAE1"/>
</svg>
