<svg width="68" height="68" viewBox="0 0 68 68" fill="none" xmlns="http://www.w3.org/2000/svg">
<circle cx="33.7908" cy="33.9202" r="33.6287" fill="#F17E00"/>
<path d="M16.5 24.875C16.5 23.0516 17.2243 21.303 18.5136 20.0136C19.803 18.7243 21.5516 18 23.375 18H42.625C44.4484 18 46.197 18.7243 47.4864 20.0136C48.7757 21.303 49.5 23.0516 49.5 24.875V44.125C49.5 45.9484 48.7757 47.697 47.4864 48.9864C46.197 50.2757 44.4484 51 42.625 51H23.375C21.5516 51 19.803 50.2757 18.5136 48.9864C17.2243 47.697 16.5 45.9484 16.5 44.125V24.875ZM34.375 41.375C34.375 41.7397 34.5199 42.0894 34.7777 42.3473C35.0356 42.6051 35.3853 42.75 35.75 42.75H41.9375C42.3022 42.75 42.6519 42.6051 42.9098 42.3473C43.1676 42.0894 43.3125 41.7397 43.3125 41.375C43.3125 41.0103 43.1676 40.6606 42.9098 40.4027C42.6519 40.1449 42.3022 40 41.9375 40H35.75C35.3853 40 35.0356 40.1449 34.7777 40.4027C34.5199 40.6606 34.375 41.0103 34.375 41.375ZM35.75 29C35.3853 29 35.0356 29.1449 34.7777 29.4027C34.5199 29.6606 34.375 30.0103 34.375 30.375C34.375 30.7397 34.5199 31.0894 34.7777 31.3473C35.0356 31.6051 35.3853 31.75 35.75 31.75H41.9375C42.3022 31.75 42.6519 31.6051 42.9098 31.3473C43.1676 31.0894 43.3125 30.7397 43.3125 30.375C43.3125 30.0103 43.1676 29.6606 42.9098 29.4027C42.6519 29.1449 42.3022 29 41.9375 29H35.75ZM31.2235 37.6515C31.0958 37.5235 30.944 37.4219 30.777 37.3525C30.6099 37.2832 30.4309 37.2475 30.25 37.2475C30.0691 37.2475 29.8901 37.2832 29.723 37.3525C29.556 37.4219 29.4042 37.5235 29.2765 37.6515L26.125 40.8057L25.0415 39.7195C24.7837 39.4613 24.4338 39.3161 24.069 39.3159C23.7041 39.3156 23.3541 39.4603 23.0959 39.7181C22.8377 39.9759 22.6925 40.3258 22.6922 40.6907C22.692 41.0555 22.8367 41.4056 23.0945 41.6637L25.1515 43.7235C25.2792 43.8515 25.431 43.9531 25.598 44.0225C25.7651 44.0918 25.9441 44.1275 26.125 44.1275C26.3059 44.1275 26.4849 44.0918 26.652 44.0225C26.819 43.9531 26.9708 43.8515 27.0985 43.7235L31.2235 39.5985C31.3515 39.4708 31.4531 39.319 31.5225 39.152C31.5918 38.9849 31.6275 38.8059 31.6275 38.625C31.6275 38.4441 31.5918 38.2651 31.5225 38.098C31.4531 37.931 31.3515 37.7792 31.2235 37.6515ZM31.2235 28.5985C31.3513 28.4707 31.4528 28.3189 31.5219 28.1519C31.5911 27.9848 31.6267 27.8058 31.6267 27.625C31.6267 27.4442 31.5911 27.2652 31.5219 27.0981C31.4528 26.9311 31.3513 26.7793 31.2235 26.6515C31.0957 26.5237 30.9439 26.4222 30.7769 26.3531C30.6098 26.2839 30.4308 26.2483 30.25 26.2483C30.0692 26.2483 29.8902 26.2839 29.7231 26.3531C29.5561 26.4222 29.4043 26.5237 29.2765 26.6515L26.125 29.8058L25.0415 28.7195C24.7833 28.4613 24.4331 28.3163 24.068 28.3163C23.7029 28.3163 23.3527 28.4613 23.0945 28.7195C22.8363 28.9777 22.6913 29.3279 22.6913 29.693C22.6913 30.0581 22.8363 30.4083 23.0945 30.6665L25.1515 32.7235C25.2792 32.8515 25.431 32.9531 25.598 33.0225C25.7651 33.0918 25.9441 33.1275 26.125 33.1275C26.3059 33.1275 26.4849 33.0918 26.652 33.0225C26.819 32.9531 26.9708 32.8515 27.0985 32.7235L31.2235 28.5985Z" fill="#F8F8F8"/>
</svg>
