<svg width="16" height="16" viewBox="0 0 16 16" fill="none" xmlns="http://www.w3.org/2000/svg">
<g clip-path="url(#clip0_3564_12321)">
<path d="M4.90567 7.97266C6.07785 8.86813 7.24576 8.87652 8.40787 7.97769C8.51227 8.12956 8.60919 8.28707 8.7232 8.43115C8.81234 8.54394 8.91842 8.64483 9.02449 8.74267C9.15926 8.86691 9.31815 8.9449 9.50069 8.98244C9.82991 9.05036 10.1457 9.16102 10.4455 9.31472C10.528 9.35699 10.5279 9.3573 10.5468 9.45712C9.4433 10.0481 8.75556 10.9471 8.6037 12.1985C8.45214 13.4474 8.90101 14.4832 9.84441 15.3235C9.71483 15.3386 9.59318 15.3548 9.47123 15.3667C8.38284 15.4731 7.29063 15.5053 6.19812 15.502C5.71368 15.5004 5.22908 15.4542 4.74495 15.4234C4.35971 15.3988 3.97433 15.3731 3.59001 15.3373C2.78886 15.2625 2.00161 15.1193 1.24411 14.8379C1.23694 14.8353 1.22961 14.8334 1.22244 14.8305C1.0431 14.7605 1.01685 14.7117 1.037 14.5183C1.10309 13.8844 1.16368 13.2498 1.23282 12.6162C1.28105 12.1748 1.31264 11.7291 1.39934 11.2949C1.62248 10.1762 2.30885 9.45849 3.38396 9.10363C3.53781 9.05281 3.69548 9.0116 3.85375 8.97741C4.04728 8.93559 4.2048 8.83439 4.34735 8.70481C4.56347 8.50823 4.74083 8.28097 4.87697 8.02195C4.88628 8.0044 4.89697 7.98746 4.90567 7.97266Z" fill="#1EA0DE"/>
<path d="M7.74774 0.784711H7.19003C7.18881 0.790358 7.18774 0.796158 7.18652 0.801806C7.21018 0.808521 7.23445 0.813558 7.25734 0.821952C7.56046 0.933829 7.88464 0.937645 8.19631 1.00556C8.39839 1.04967 8.58948 1.124 8.76912 1.22718C8.79171 1.24015 8.81339 1.25481 8.83246 1.27572C8.57941 1.17559 8.32375 1.08966 8.04536 1.07776C8.06993 1.08905 8.0942 1.10111 8.11923 1.11149C8.31841 1.19498 8.52873 1.2661 8.66976 1.43933C8.85002 1.66049 9.06858 1.85418 9.18152 2.1257C9.19175 2.15028 9.20045 2.17546 9.19541 2.20751C9.14138 2.12311 9.08735 2.03855 9.03332 1.95415C9.02844 1.95644 9.02371 1.95873 9.01882 1.96086L9.39124 2.97386C9.38208 2.97737 9.37307 2.98088 9.36392 2.98439C9.33522 2.91113 9.30653 2.83771 9.28104 2.77285C9.28104 3.26477 9.28165 3.76234 9.28073 4.2599C9.28027 4.46824 9.28363 4.67688 9.27295 4.88476C9.24807 5.36982 9.04324 5.78283 8.75325 6.16226C8.68823 6.24728 8.63328 6.34496 8.59543 6.44508C8.41472 6.92342 8.13419 7.32575 7.71233 7.62047C7.01787 8.10568 6.18192 8.06905 5.51768 7.53119C5.15 7.23356 4.90137 6.8555 4.74096 6.41364C4.71135 6.33229 4.66724 6.25231 4.61382 6.18424C4.36748 5.87013 4.17211 5.53084 4.10633 5.13263C4.07077 4.91773 4.06024 4.69856 4.03948 4.48121C4.0114 4.18802 3.98346 3.89466 3.95721 3.60131C3.91707 3.15274 3.94454 2.70844 4.04406 2.26887C4.04711 2.25528 4.04772 2.24124 4.05215 2.20705C4.0172 2.26154 3.99308 2.29894 3.96912 2.33633C3.96759 2.33557 3.96622 2.33496 3.96469 2.33419C4.03536 2.1663 4.10602 1.99841 4.17669 1.83037C4.16631 1.82457 4.15578 1.81861 4.1454 1.81282C4.09091 1.87997 4.03643 1.94713 3.98453 2.01108C4.00254 1.84945 4.16982 1.65423 4.3658 1.57151C4.38915 1.56159 4.41281 1.55152 4.43738 1.54572C4.50988 1.52877 4.55857 1.48802 4.58482 1.41705C4.61748 1.32914 4.67685 1.26274 4.7518 1.2052C4.93892 1.06143 5.11642 0.904372 5.30935 0.769143C5.42275 0.689624 5.55813 0.641699 5.69015 0.594384C5.52883 0.693134 5.36765 0.791885 5.20632 0.890635C5.2109 0.901472 5.21533 0.912461 5.21991 0.923298C5.63902 0.582174 6.13583 0.522496 6.64454 0.505859C6.35592 0.553174 6.06974 0.609341 5.80325 0.740907C6.01693 0.737244 6.22741 0.714807 6.43757 0.672072C6.6479 0.629336 6.86264 0.608578 7.07556 0.578205C7.07693 0.587058 7.07831 0.595757 7.07953 0.60461C6.9092 0.636967 6.73871 0.669477 6.56838 0.701834C6.96078 0.752201 7.3596 0.672682 7.74758 0.784559L7.74774 0.784711ZM6.64378 3.0459C6.64378 3.04956 6.64378 3.05323 6.64378 3.05674C6.16635 3.05674 5.68878 3.05567 5.21136 3.05719C4.98516 3.05796 4.81773 3.22386 4.81224 3.45113C4.80613 3.70006 4.80384 3.949 4.7988 4.19794C4.79667 4.30523 4.77927 4.41955 4.68372 4.47465C4.58772 4.5299 4.58574 4.6053 4.58558 4.69077C4.58558 4.77701 4.58421 4.86385 4.59398 4.94933C4.63336 5.29686 4.79255 5.59189 5.01111 5.8564C5.10833 5.97407 5.1787 6.10121 5.22769 6.24544C5.33636 6.56612 5.51249 6.84451 5.76631 7.07193C6.23443 7.49165 6.80434 7.56797 7.31061 7.2708C7.70179 7.04125 7.95684 6.69814 8.10916 6.27597C8.1667 6.11647 8.24637 5.97285 8.35199 5.83961C8.43349 5.73658 8.50538 5.62455 8.5704 5.51008C8.72761 5.23291 8.78912 4.93284 8.75966 4.61568C8.75676 4.58393 8.73829 4.53784 8.71387 4.52639C8.59864 4.47221 8.5469 4.38674 8.54812 4.26082C8.54995 4.05248 8.55148 3.84399 8.54461 3.63581C8.54155 3.54331 8.52461 3.44991 8.50233 3.3597C8.45929 3.18647 8.34207 3.08726 8.16762 3.05857C8.10794 3.0488 8.04643 3.04651 7.98568 3.04636C7.53848 3.04544 7.09128 3.0459 6.64423 3.0459H6.64378Z" fill="#1EA0DE"/>
<path d="M11.6834 9.75085V9.36394C11.5725 9.36394 11.4641 9.3673 11.3559 9.36318C11.1956 9.35707 11.0831 9.22993 11.0915 9.07044C11.0996 8.91857 11.2171 8.81127 11.3829 8.81082C11.8124 8.80944 12.2417 8.81036 12.6712 8.81036C12.7094 8.81036 12.7475 8.80975 12.7856 8.81097C12.9454 8.81555 13.0623 8.93093 13.0636 9.08433C13.065 9.24184 12.9489 9.35997 12.7846 9.36409C12.6833 9.36669 12.5819 9.36455 12.4743 9.36455V9.74994C13.3582 9.89448 14.0531 10.3365 14.5324 11.0976C14.8885 11.6631 15.0229 12.2852 14.9468 12.949C14.7807 14.3985 13.5461 15.5081 12.0703 15.506C10.6572 15.504 9.4233 14.4483 9.22214 13.0643C9.1063 12.2677 9.27968 11.5377 9.76229 10.8917C10.2423 10.2495 10.8896 9.87616 11.6833 9.75101L11.6834 9.75085ZM9.98315 12.6143C9.98482 13.7699 10.9223 14.7093 12.0757 14.7113C13.2263 14.7133 14.1711 13.7702 14.1728 12.6178C14.1743 11.463 13.2288 10.5196 12.0717 10.5213C10.9236 10.523 9.98147 11.4672 9.98315 12.6143Z" fill="#1EA0DE"/>
<path d="M11.7508 12.7409C11.7139 12.5344 11.7745 12.3744 11.9408 12.2551C11.9567 12.2436 11.963 12.2119 11.9648 12.1888C11.9901 11.8801 12.0129 11.571 12.039 11.2622C12.0428 11.2175 12.0513 11.1682 12.0742 11.1313C12.1002 11.0894 12.1441 11.0327 12.1814 11.0317C12.2174 11.0308 12.2661 11.0868 12.289 11.1288C12.3146 11.1758 12.3248 11.2347 12.3294 11.2895C12.3528 11.5705 12.3729 11.8518 12.3926 12.133C12.3972 12.1975 12.4097 12.2474 12.4686 12.2941C12.6084 12.4049 12.6452 12.5589 12.6168 12.7328C12.6122 12.7612 12.6237 12.8025 12.6432 12.8227C12.8242 13.0081 13.0112 13.1878 13.191 13.3744C13.2499 13.4355 13.3041 13.5066 13.3404 13.5826C13.389 13.684 13.3279 13.7551 13.2203 13.7224C13.1397 13.698 13.0613 13.6554 12.9923 13.6061C12.765 13.4437 12.5432 13.2736 12.3169 13.1096C12.2855 13.0869 12.24 13.0733 12.2011 13.0732C12.078 13.0728 11.9692 13.0387 11.883 12.9512C11.8456 12.9134 11.8161 12.9126 11.7706 12.9317C11.5089 13.042 11.2459 13.1496 10.9834 13.2581C10.9669 13.2649 10.9507 13.2723 10.9341 13.2783C10.8791 13.2984 10.8303 13.29 10.8063 13.233C10.781 13.1727 10.8083 13.1308 10.8671 13.1066C11.111 13.0063 11.3549 12.9056 11.5986 12.8047C11.6476 12.7844 11.6963 12.7633 11.7502 12.7404L11.7508 12.7409Z" fill="#1EA0DE"/>
</g>
<defs>
<clipPath id="clip0_3564_12321">
<rect width="13.9365" height="15" fill="white" transform="translate(1.03125 0.505859)"/>
</clipPath>
</defs>
</svg>
