<svg width="16" height="13" viewBox="0 0 16 13" fill="none" xmlns="http://www.w3.org/2000/svg">
<path d="M13.6388 4.96224C13.9332 5.11748 14.0506 5.47871 13.8997 5.76498L10.6068 12.0109C10.4559 12.2971 10.0915 12.4043 9.79704 12.2491L7.65565 11.1201C7.36121 10.9649 7.24379 10.6037 7.39471 10.3174L8.21794 8.75593L6.07655 7.62696L5.25333 9.18843C5.1024 9.4747 4.73801 9.58191 4.44357 9.42668L2.30218 8.29771C2.00774 8.14248 1.89032 7.78125 2.04124 7.49498L5.33416 1.2491C5.48508 0.96283 5.84947 0.855619 6.14391 1.01085L8.2853 2.13982C8.57974 2.29505 8.69716 2.65628 8.54624 2.94255L7.72301 4.50402L9.8644 5.63299L10.6876 4.07152C10.8386 3.78525 11.2029 3.67804 11.4974 3.83327L13.6388 4.96224ZM2.64395 1.16111C2.71673 1.02307 2.84293 0.920416 2.99479 0.875736C3.14665 0.831056 3.31172 0.848008 3.45371 0.922863L3.98905 1.20511L1.24496 6.41001L0.709613 6.12776C0.56763 6.05291 0.460373 5.92628 0.411437 5.77574C0.362502 5.6252 0.375897 5.46307 0.448675 5.32503L0.997494 4.28405C0.713528 4.13434 0.499014 3.88109 0.401144 3.58C0.303273 3.27892 0.330062 2.95467 0.475618 2.67859C0.621174 2.4025 0.873573 2.1972 1.17729 2.10784C1.48101 2.01848 1.81117 2.05238 2.09513 2.20209L2.64395 1.16111ZM14.9435 8.9759C15.2274 9.12562 15.4419 9.37887 15.5398 9.67995C15.6377 9.98103 15.6109 10.3053 15.4653 10.5814C15.3198 10.8575 15.0674 11.0628 14.7637 11.1521C14.4599 11.2415 14.1298 11.2076 13.8458 11.0579L13.297 12.0988C13.2242 12.2369 13.098 12.3395 12.9462 12.3842C12.7943 12.4289 12.6292 12.4119 12.4872 12.3371L11.9519 12.0549L14.696 6.84995L15.2313 7.13219C15.3733 7.20705 15.4806 7.33367 15.5295 7.48422C15.5785 7.63476 15.5651 7.79688 15.4923 7.93492L14.9435 8.9759Z" fill="#3CAAE1"/>
</svg>
