<svg width="14" height="13" viewBox="0 0 14 13" fill="none" xmlns="http://www.w3.org/2000/svg">
<path d="M13.2448 3.00627H9.24479C9.06798 3.00627 8.89841 3.0765 8.77339 3.20153C8.64836 3.32655 8.57812 3.49612 8.57812 3.67293V5.67293H7.24479V1.00627C7.24479 0.829455 7.17455 0.659886 7.04953 0.534862C6.92451 0.409837 6.75494 0.3396 6.57812 0.3396H1.24479C1.06798 0.3396 0.898411 0.409837 0.773387 0.534862C0.648363 0.659886 0.578125 0.829455 0.578125 1.00627V11.6729C0.578125 11.8497 0.648363 12.0193 0.773387 12.1443C0.898411 12.2694 1.06798 12.3396 1.24479 12.3396H13.2448C13.4216 12.3396 13.5912 12.2694 13.7162 12.1443C13.8412 12.0193 13.9115 11.8497 13.9115 11.6729V3.67293C13.9115 3.49612 13.8412 3.32655 13.7162 3.20153C13.5912 3.0765 13.4216 3.00627 13.2448 3.00627ZM4.57812 2.3396H5.91146V3.67293H4.57812V2.3396ZM3.24479 9.00627H1.91146V7.67293H3.24479V9.00627ZM3.24479 6.3396H1.91146V5.00627H3.24479V6.3396ZM3.24479 3.67293H1.91146V2.3396H3.24479V3.67293ZM5.91146 9.00627H4.57812V7.67293H5.91146V9.00627ZM5.91146 6.3396H4.57812V5.00627H5.91146V6.3396ZM11.9115 9.00627H10.5781V7.67293H11.9115V9.00627ZM11.9115 6.3396H10.5781V5.00627H11.9115V6.3396Z" fill="#3CAAE1"/>
</svg>
