<svg width="20" height="23" viewBox="0 0 20 23" fill="none" xmlns="http://www.w3.org/2000/svg">
<path d="M19.2731 14.2417L14.5565 11.9918L12.562 11.0403C13.4331 10.4916 14.1405 9.64464 14.6035 8.62451C14.99 7.77418 15.1897 6.85088 15.1893 5.91683C15.1893 5.36656 15.1019 4.844 14.9803 4.33981C14.3869 1.89658 12.4789 0.0966797 10.1884 0.0966797C7.9412 0.0966797 6.06209 1.83243 5.43201 4.20609C5.28653 4.75063 5.18654 5.31687 5.18654 5.91683C5.18654 6.95864 5.4299 7.92997 5.84343 8.77481C6.32141 9.75487 7.03011 10.563 7.89271 11.0825L5.98258 11.9719L1.11297 14.2399C0.690106 14.438 0.412109 14.9151 0.412109 15.4479V20.7985C0.412109 21.5157 0.91178 22.0969 1.52861 22.0969H8.76103V18.0002C8.76232 17.958 8.77468 17.9168 8.79688 17.8809L8.79387 17.8791L9.97844 15.8274L9.98145 15.8292C10.0236 15.7569 10.0986 15.7057 10.1884 15.7057C10.2781 15.7057 10.3531 15.7566 10.3953 15.8292L10.3965 15.8283L10.4073 15.8473L10.4121 15.8557L11.5811 17.88L11.5796 17.8809C11.6018 17.9169 11.6142 17.9582 11.6154 18.0005V22.0972H18.8478C19.4646 22.0972 19.9646 21.516 19.9646 20.7988V15.4479C19.9655 14.9169 19.692 14.4444 19.2731 14.2417ZM11.5805 12.8698L11.5835 12.8716L10.3986 14.9233L10.3956 14.9214C10.3749 14.9583 10.3449 14.9891 10.3086 15.0107C10.2723 15.0324 10.2309 15.0441 10.1887 15.0446C10.1464 15.0441 10.105 15.0324 10.0687 15.0107C10.0324 14.9891 10.0024 14.9583 9.98175 14.9214L9.98024 14.9223L9.9682 14.9016L9.96458 14.8955L8.79567 12.8707L8.79688 12.8698C8.77463 12.8337 8.76227 12.7925 8.76103 12.7502C8.76103 12.6162 8.86976 12.5074 9.00379 12.5074H11.3729C11.507 12.5074 11.6157 12.6162 11.6157 12.7502C11.6152 12.7925 11.603 12.8339 11.5805 12.8698Z" fill="#474766"/>
</svg>
