<svg width="44" height="45" viewBox="0 0 44 45" fill="none" xmlns="http://www.w3.org/2000/svg">
<path fill-rule="evenodd" clip-rule="evenodd" d="M21.9591 5.99644C20.6453 5.97382 19.3397 6.19844 18.117 6.65746C16.8944 7.11648 15.7786 7.80088 14.8337 8.6715C13.8888 9.54212 13.1332 10.5819 12.6102 11.7312C12.0871 12.8806 11.807 14.117 11.7857 15.3697V28.4707C11.7857 29.2654 11.4546 30.0276 10.8652 30.5896C10.2758 31.1515 9.47639 31.4672 8.64286 31.4672H4.71429C3.46398 31.4672 2.26488 30.9937 1.38078 30.1507C0.496682 29.3078 0 28.1645 0 26.9724L0 20.9793C0 19.7871 0.496682 18.6439 1.38078 17.8009C2.26488 16.958 3.46398 16.4844 4.71429 16.4844H7.07143V15.3158C7.1001 13.474 7.50901 11.6558 8.27481 9.96475C9.0406 8.27373 10.1483 6.74312 11.5346 5.46031C12.9208 4.17751 14.5586 3.16765 16.3543 2.4884C18.15 1.80916 20.0684 1.47384 22 1.50159C23.9316 1.47384 25.85 1.80916 27.6457 2.4884C29.4414 3.16765 31.0792 4.17751 32.4654 5.46031C33.8517 6.74312 34.9594 8.27373 35.7252 9.96475C36.491 11.6558 36.8999 13.474 36.9286 15.3158V16.4844H39.2857C40.536 16.4844 41.7351 16.958 42.6192 17.8009C43.5033 18.6439 44 19.7871 44 20.9793V26.9724C44 28.1645 43.5033 29.3078 42.6192 30.1507C41.7351 30.9937 40.536 31.4672 39.2857 31.4672H36.9286V32.9655C36.929 34.9905 36.1474 36.9447 34.733 38.4552C33.3185 39.9657 31.3703 40.9268 29.26 41.1551C28.8502 41.8528 28.2526 42.4335 27.5289 42.8375C26.8052 43.2415 25.9815 43.4542 25.1429 43.4535H20.4286C19.1783 43.4535 17.9792 42.9799 17.0951 42.137C16.211 41.294 15.7143 40.1507 15.7143 38.9586C15.7143 37.7665 16.211 36.6232 17.0951 35.7803C17.9792 34.9374 19.1783 34.4638 20.4286 34.4638H25.1429C26.8463 34.4638 28.3391 35.3238 29.1657 36.6153C30.032 36.4255 30.8051 35.9612 31.3588 35.2983C31.9125 34.6353 32.2141 33.813 32.2143 32.9655V15.3667C32.1927 14.1075 31.9096 12.8649 31.3813 11.7107C30.853 10.5565 30.09 9.51364 29.1364 8.64231C28.1828 7.77098 27.0575 7.08852 25.8255 6.63437C24.5936 6.18022 23.2795 5.9634 21.9591 5.99644Z" fill="#66BCF7"/>
</svg>
