<svg width="19" height="17" viewBox="0 0 19 17" fill="none" xmlns="http://www.w3.org/2000/svg">
<path fill-rule="evenodd" clip-rule="evenodd" d="M10.466 2.83913C10.8206 2.90055 11.3385 3.06038 11.5883 3.51079C12.1355 4.49748 11.6835 5.43529 11.1986 6.01846C10.8821 6.39887 10.4748 6.75682 10.0008 6.97609C9.90193 7.02232 9.70048 7.10817 9.46826 7.10817C9.03531 7.10817 8.61116 6.93052 8.26319 6.70861C8.19726 6.9107 8.13353 7.13261 8.07858 7.36772C7.96992 7.81884 7.91103 8.27854 7.90277 8.7401C8.67416 8.51556 9.46313 8.53933 10.1429 8.8854C10.6535 8.52316 11.2412 8.25947 11.8696 8.11071C12.8219 7.8855 13.9647 7.91654 15.0028 8.53999C15.7463 8.98711 16.3097 9.82916 16.4232 10.7505C16.5419 11.7107 16.1719 12.7608 15.0533 13.5679C14.2636 14.1372 13.06 14.3571 11.9524 14.437C10.8059 14.5202 9.59499 14.4634 8.65511 14.369C6.91308 14.1946 5.57542 13.7561 4.64067 13.3037C4.02751 13.0065 3.18873 12.5957 2.92281 11.9663C2.74333 11.5397 2.79022 11.0219 2.83417 10.5781C2.89277 9.99625 3.03636 9.26977 3.30521 8.48254C3.84144 6.91136 4.8912 5.05224 6.80393 3.62703C7.39217 3.1885 8.37674 2.9164 9.20087 2.82526C9.62576 2.77837 10.0726 2.77177 10.466 2.83913Z" fill="#3CAAE1"/>
</svg>
