<svg width="17" height="13" viewBox="0 0 17 13" fill="none" xmlns="http://www.w3.org/2000/svg">
<path d="M2.46515 12.5C2.05095 12.5 1.6965 12.3526 1.4018 12.0579C1.10709 11.7632 0.959486 11.4085 0.958984 10.9938V1.95685C0.958984 1.54265 1.10659 1.1882 1.4018 0.893496C1.69701 0.59879 2.05146 0.451186 2.46515 0.450684H14.5145C14.9287 0.450684 15.2834 0.598288 15.5786 0.893496C15.8738 1.1887 16.0211 1.54316 16.0206 1.95685V10.9938C16.0206 11.408 15.8733 11.7627 15.5786 12.0579C15.2839 12.3532 14.9292 12.5005 14.5145 12.5H2.46515ZM7.73673 10.2408H9.24289L9.46882 9.11113C9.61943 9.04837 9.76076 8.9826 9.8928 8.91382C10.0248 8.84504 10.1596 8.76019 10.2972 8.65928L11.3892 8.99817L12.1423 7.71793L11.2762 6.96485C11.3013 6.80168 11.3139 6.63851 11.3139 6.47534C11.3139 6.31217 11.3013 6.14901 11.2762 5.98584L12.1423 5.23276L11.3892 3.95252L10.2972 4.2914C10.1591 4.19099 10.0243 4.10615 9.8928 4.03686C9.76126 3.96758 9.61994 3.90181 9.46882 3.83955L9.24289 2.70993H7.73673L7.5108 3.83955C7.36019 3.90231 7.21911 3.96833 7.08757 4.03761C6.95603 4.1069 6.82098 4.1915 6.68241 4.2914L5.59044 3.95252L4.83736 5.23276L5.7034 5.98584C5.6783 6.14901 5.66575 6.31217 5.66575 6.47534C5.66575 6.63851 5.6783 6.80168 5.7034 6.96485L4.83736 7.71793L5.59044 8.99817L6.68241 8.65928C6.82048 8.75969 6.95553 8.84454 7.08757 8.91382C7.21961 8.98311 7.36069 9.04888 7.5108 9.11113L7.73673 10.2408ZM8.48981 7.98151C8.07561 7.98151 7.72116 7.83415 7.42646 7.53945C7.13175 7.24474 6.98415 6.89004 6.98364 6.47534C6.98314 6.06065 7.13075 5.70619 7.42646 5.41199C7.72217 5.11779 8.07662 4.97018 8.48981 4.96918C8.903 4.96817 9.2577 5.11578 9.55391 5.41199C9.85013 5.7082 9.99748 6.06265 9.99597 6.47534C9.99447 6.88803 9.84711 7.24273 9.55391 7.53945C9.26071 7.83616 8.90601 7.98352 8.48981 7.98151Z" fill="#ffffff"/>
</svg>
