<svg width="15" height="15" viewBox="0 0 15 15" fill="none" xmlns="http://www.w3.org/2000/svg">
<path d="M6.00781 2.54002C6.75448 1.71227 7.92465 1.17969 9.23948 1.17969C11.4946 1.17969 13.3228 2.74652 13.3228 4.67969C13.3228 5.83994 12.6636 6.86835 11.6498 7.50535L11.5728 7.54969V9.91219C11.5728 10.0283 11.5381 10.1418 11.4732 10.2381C11.4083 10.3345 11.3162 10.4092 11.2085 10.4528C11.1009 10.4964 10.9827 10.5069 10.869 10.4829C10.7554 10.4589 10.6515 10.4016 10.5706 10.3182L9.90565 9.63335C10.5292 8.89602 10.8961 7.99069 10.8961 7.01244C10.8961 4.64002 8.73898 2.69869 6.00781 2.54002Z" fill="#3CAAE1"/>
<path d="M6.5475 10.4462L4.40842 12.6512C4.32758 12.7346 4.22369 12.7919 4.11005 12.8159C3.99641 12.8399 3.8782 12.8294 3.77055 12.7858C3.66291 12.7422 3.57073 12.6675 3.50583 12.5711C3.44093 12.4748 3.40625 12.3613 3.40625 12.2452V9.8827L3.32925 9.83836C2.31483 9.20136 1.65625 8.17295 1.65625 7.0127C1.65625 5.07953 3.48442 3.5127 5.73958 3.5127C7.99475 3.5127 9.82292 5.07953 9.82292 7.0127C9.82292 8.60286 8.58567 9.9457 6.89108 10.3715C6.77753 10.4007 6.66293 10.4256 6.5475 10.4462Z" fill="#3CAAE1"/>
</svg>
