<svg width="17" height="16" viewBox="0 0 17 16" fill="none" xmlns="http://www.w3.org/2000/svg">
<path d="M14.5 9.98035V3.98075C14.5 2.56635 14.5 1.8599 14.0605 1.42043C13.6211 0.980957 12.9146 0.980957 11.5002 0.980957H5.50054C4.08612 0.980957 3.37966 0.980957 2.94018 1.42043C2.50071 1.8599 2.50071 2.56635 2.50071 3.98075V9.98035M2.12423 10.7415L2.51571 9.98035H14.464L14.8765 10.7415C15.9587 12.7379 16.2287 13.7361 15.8169 14.483C15.4052 15.23 14.3155 15.23 12.1347 15.23H4.86607C2.68445 15.23 1.59401 15.23 1.18303 14.483C0.771308 13.7361 1.04129 12.7379 2.12423 10.7415Z" stroke="#1EA0DE" stroke-linecap="round" stroke-linejoin="round"/>
<rect x="2.875" y="0.980957" width="11.25" height="9.375" fill="#1EA0DE"/>
<path d="M11.1265 4.35591L11.8165 4.95062C12.1067 5.20035 12.2514 5.32559 12.2514 5.48083C12.2514 5.63607 12.1067 5.76131 11.8165 6.01104L11.1265 6.60575M5.87688 4.35591L5.18692 4.95062C4.89669 5.20035 4.75195 5.32559 4.75195 5.48083C4.75195 5.63607 4.89669 5.76131 5.18692 6.01104L5.87688 6.60575M9.25165 3.60596L7.75175 7.3557" stroke="white" stroke-linecap="round" stroke-linejoin="round"/>
</svg>
