<svg width="88" height="64" viewBox="0 0 88 64" fill="none" xmlns="http://www.w3.org/2000/svg">
<path d="M21.9901 63.5504C15.9866 63.5504 10.8579 61.4722 6.60403 57.316C2.35014 53.1597 0.221877 48.0799 0.219238 42.0764C0.219238 36.9306 1.76959 32.3455 4.87028 28.3212C7.97097 24.2969 12.0283 21.724 17.0422 20.6025C18.6915 14.533 21.9901 9.61808 26.938 5.85767C31.8859 2.09725 37.4935 0.217041 43.7609 0.217041C51.4797 0.217041 58.0281 2.90607 63.4061 8.28412C68.7842 13.6622 71.4719 20.2093 71.4692 27.9254C76.0213 28.4532 79.7989 30.4165 82.802 33.8154C85.805 37.2143 87.3052 41.1884 87.3026 45.7379C87.3026 50.6858 85.5715 54.8922 82.1092 58.357C78.647 61.8219 74.4406 63.553 69.4901 63.5504H21.9901Z" fill="#3CAAE1"/>
</svg>
