<svg width="22" height="29" viewBox="0 0 22 29" fill="none" xmlns="http://www.w3.org/2000/svg">
<path d="M3.63092 26.6397C3.63092 27.4746 4.31406 28.1577 5.14901 28.1577H17.2938C18.1287 28.1577 18.8119 27.4746 18.8119 26.6397V22.0854H3.63092V26.6397ZM20.33 6.90441C19.495 6.90441 18.8119 7.58755 18.8119 8.42251V3.86822C18.8119 2.19832 17.4456 0.832031 15.7757 0.832031H3.63092C1.96101 0.832031 0.594727 2.19832 0.594727 3.86822V12.6732C0.594727 12.8705 0.609907 13.0679 0.65545 13.2652L1.86993 19.3376C2.00656 20.0511 2.62897 20.5521 3.35766 20.5521H19.0851C19.7683 20.5521 20.4362 20.0056 20.5729 19.3376L21.7873 13.2652C21.8329 13.0679 21.8481 12.8705 21.8481 12.6732V8.42251C21.8481 7.58755 21.1649 6.90441 20.33 6.90441ZM15.7757 11.4587H3.63092V6.90441H15.7757V11.4587Z" fill="#3CAAE1"/>
</svg>
