<svg width="19" height="17" viewBox="0 0 19 17" fill="none" xmlns="http://www.w3.org/2000/svg">
<path d="M17.5285 4.22274C17.2729 3.69072 16.9375 3.19416 16.5319 2.74752L14.3821 4.7209C14.8854 4.9943 15.4783 5.09432 16.0545 5.00304C16.6308 4.91176 17.1529 4.63515 17.5272 4.22274M13.5089 3.92045L15.6587 1.94707C15.1725 1.57485 14.632 1.26693 14.0528 1.03227C13.6032 1.37597 13.3017 1.85541 13.2023 2.38466C13.1028 2.91391 13.212 3.45837 13.5101 3.92045M11.9363 2.77016C11.9363 3.50381 12.1904 4.18312 12.6209 4.73788L11.628 5.64929L7.32597 1.69913C8.09911 1.18372 8.98173 0.823414 9.91648 0.641621C10.8512 0.459828 11.8172 0.460617 12.7516 0.643939C12.223 1.24624 11.9352 1.9967 11.9363 2.77016ZM12.5 6.44973L13.4929 5.53833C14.0972 5.93459 14.8372 6.16669 15.6365 6.16669C16.4789 6.16777 17.2963 5.90407 17.9528 5.41945C18.0514 5.84289 18.1032 6.28217 18.1032 6.73278C18.1032 8.10271 17.621 9.37074 16.8033 10.3999L12.5 6.44973ZM15.9868 11.2513L11.628 7.25018L10.8818 7.93515C12.1646 9.27727 12.9516 10.9577 13.1303 12.7356C14.2156 12.4605 15.1925 11.9419 15.9868 11.2513ZM4.77905 5.07074C5.07876 4.07443 5.64241 3.17775 6.39477 2.44863L10.756 6.44973L10.0098 7.1347C8.54771 5.95718 6.71588 5.23469 4.77905 5.07074ZM2.68601 6.16669C2.19534 6.16669 1.72476 6.34561 1.37781 6.6641C1.03085 6.98258 0.835938 7.41454 0.835938 7.86495V8.99713C0.835938 10.9489 1.68058 12.8207 3.18405 14.2008C4.68752 15.5809 6.72667 16.3563 8.8529 16.3563H10.0863C10.5769 16.3563 11.0475 16.1773 11.3945 15.8589C11.7414 15.5404 11.9363 15.1084 11.9363 14.658V13.5258C11.9363 11.5741 11.0917 9.70224 9.58823 8.32213C8.08476 6.94202 6.04561 6.16669 3.91938 6.16669H2.68601ZM5.02449 10.0116C5.08178 9.95884 5.14983 9.91701 5.22475 9.88847C5.29967 9.85994 5.37999 9.84525 5.46111 9.84525C5.54222 9.84525 5.62254 9.85994 5.69746 9.88847C5.77239 9.91701 5.84044 9.95884 5.89772 10.0116L7.74779 11.7098C7.80513 11.7625 7.85061 11.8249 7.88164 11.8937C7.91267 11.9625 7.92864 12.0362 7.92864 12.1106C7.92864 12.185 7.91267 12.2587 7.88164 12.3275C7.85061 12.3963 7.80513 12.4588 7.74779 12.5114C7.69045 12.564 7.62238 12.6058 7.54747 12.6343C7.47255 12.6627 7.39226 12.6774 7.31117 12.6774C7.23009 12.6774 7.14979 12.6627 7.07488 12.6343C6.99996 12.6058 6.9319 12.564 6.87456 12.5114L5.02449 10.8131C4.96706 10.7606 4.9215 10.6981 4.89041 10.6293C4.85932 10.5605 4.84332 10.4868 4.84332 10.4123C4.84332 10.3379 4.85932 10.2642 4.89041 10.1954C4.9215 10.1266 4.96706 10.0641 5.02449 10.0116Z" fill="#3CAAE1"/>
</svg>
