<svg width="17" height="18" viewBox="0 0 17 18" fill="none" xmlns="http://www.w3.org/2000/svg">
<g clip-path="url(#clip0_2164_4597)">
<path d="M10.2239 3.09028C10.2254 2.90826 10.1905 2.72771 10.121 2.55912C10.0516 2.39054 9.94902 2.23723 9.8193 2.108C9.68959 1.97877 9.53544 1.8762 9.36542 1.8062C9.1954 1.7362 9.01311 1.7002 8.82892 1.7002C8.64474 1.7002 8.46212 1.7362 8.2921 1.8062C8.12208 1.8762 7.96793 1.97877 7.83822 2.108C7.70851 2.23723 7.60595 2.39054 7.5365 2.55912C7.46705 2.72771 7.43215 2.90826 7.43364 3.09028C7.43215 3.27229 7.46705 3.45277 7.5365 3.62135C7.60595 3.78994 7.70851 3.94325 7.83822 4.07248C7.96793 4.2017 8.12208 4.30428 8.2921 4.37428C8.46212 4.44427 8.64474 4.48036 8.82892 4.48036C9.01311 4.48036 9.1954 4.44427 9.36542 4.37428C9.53544 4.30428 9.68959 4.2017 9.8193 4.07248C9.94902 3.94325 10.0516 3.78994 10.121 3.62135C10.1905 3.45277 10.2254 3.27229 10.2239 3.09028Z" fill="#3CAAE1"/>
<path d="M3.45631 11.8046L5.82336 9.38186C5.92028 9.28278 6.00239 9.17057 6.06729 9.0486C6.36476 8.48895 6.5323 7.87083 6.55774 7.23917C6.55858 7.21951 6.55385 7.2 6.54435 7.1827C6.53485 7.1654 6.52068 7.15102 6.50354 7.14099C6.4864 7.13097 6.46696 7.12573 6.44705 7.12583C6.42713 7.12593 6.40759 7.13137 6.39055 7.14156L5.75708 7.51766C5.59017 7.61664 5.3905 7.64604 5.20164 7.59946C5.01278 7.55288 4.8503 7.43407 4.75004 7.26918L3.37762 5.01146C3.27837 4.84653 3.24922 4.64953 3.29664 4.46345C3.34406 4.27736 3.46422 4.11741 3.63068 4.01861C3.79714 3.91981 3.99631 3.89019 4.18481 3.93625C4.37331 3.9823 4.53571 4.10027 4.63641 4.26434L5.63103 5.90008L7.10632 5.02396C7.27759 4.92231 7.47372 4.86865 7.67351 4.86867H14.2872C14.4814 4.86933 14.6676 4.94605 14.8047 5.08205C14.9418 5.21805 15.0189 5.40217 15.0189 5.59416C15.0189 5.78616 14.9418 5.97036 14.8047 6.10636C14.6676 6.24236 14.4814 6.31907 14.2872 6.31974H10.5186C10.4456 6.31975 10.3741 6.34126 10.3135 6.38154C10.253 6.42181 10.2059 6.47904 10.1784 6.54587L9.14422 9.06029C9.13076 9.09456 9.12493 9.13131 9.12724 9.16799C9.12955 9.20468 9.13996 9.24044 9.15761 9.27279L10.5029 11.8385C10.5146 11.8607 10.5202 11.8854 10.5193 11.9104C10.5184 11.9354 10.5109 11.9597 10.4977 11.981C10.4845 12.0023 10.4659 12.0199 10.4438 12.0321C10.4218 12.0442 10.3969 12.0505 10.3717 12.0504H9.01785L9.15533 13.8707L10.7364 15.9412C10.8522 16.0949 10.9017 16.2876 10.8742 16.4773C10.8467 16.667 10.7446 16.8383 10.5898 16.9537C10.435 17.0691 10.2402 17.1194 10.0481 17.0934C9.85593 17.0675 9.68195 16.9675 9.56415 16.8153L7.91776 14.6595C7.79059 14.4925 7.71472 14.2928 7.69931 14.0844L7.54584 12.0504H6.73962L4.81666 16.6322C4.73925 16.8058 4.59582 16.9426 4.41763 17.0132C4.23945 17.0837 4.04048 17.0825 3.86317 17.0098C3.68587 16.9371 3.54464 16.7987 3.46937 16.6241C3.39411 16.4496 3.39084 16.2529 3.46056 16.0761L5.1507 12.0504H3.56537C3.53655 12.0504 3.50844 12.042 3.48439 12.0263C3.46035 12.0106 3.44146 11.9883 3.43019 11.962C3.41892 11.9358 3.41579 11.9069 3.42105 11.8789C3.4263 11.8508 3.43988 11.825 3.4599 11.8045L3.45631 11.8046Z" fill="#3CAAE1"/>
</g>
<defs>
<clipPath id="clip0_2164_4597">
<rect width="17" height="18" fill="white"/>
</clipPath>
</defs>
</svg>
