<svg width="26" height="28" viewBox="0 0 26 28" fill="none" xmlns="http://www.w3.org/2000/svg">
<path d="M12.9795 5.08203C11.592 5.08203 10.4795 6.19453 10.4795 7.58203C10.4795 8.96953 11.592 10.082 12.9795 10.082C14.367 10.082 15.4795 8.96953 15.4795 7.58203C15.4795 6.19453 14.367 5.08203 12.9795 5.08203ZM25.4795 0.0820312V6.33203H22.9795V3.83203H2.97949V6.33203H0.479492V0.0820312H2.97949V2.58203H22.9795V0.0820312H25.4795ZM16.7295 12.907V27.582H14.2295V21.332H11.7295V27.582H9.22949V12.907C6.64199 11.5445 4.85449 8.83203 4.85449 5.70703V5.08203H7.35449V5.70703C7.35449 8.83203 9.85449 11.332 12.9795 11.332C16.1045 11.332 18.6045 8.83203 18.6045 5.70703V5.08203H21.1045V5.70703C21.1045 8.83203 19.317 11.5445 16.7295 12.907Z" fill="#3CAAE1"/>
</svg>
