<svg width="68" height="78" viewBox="0 0 68 78" fill="none" xmlns="http://www.w3.org/2000/svg">
<path d="M41.3175 44.8923H63.3464C64.3201 44.8923 65.254 44.5055 65.9425 43.8169C66.6311 43.1284 67.0179 42.1945 67.0179 41.2208V30.2064C67.0179 29.2326 66.6311 28.2988 65.9425 27.6102C65.254 26.9217 64.3201 26.5349 63.3464 26.5349H52.3319L48.6605 22.8634H41.3175C40.3438 22.8634 39.4099 23.2502 38.7214 23.9387C38.0328 24.6273 37.646 25.5611 37.646 26.5349V30.2064H19.2886V22.8634H26.6315C27.6053 22.8634 28.5391 22.4766 29.2277 21.788C29.9162 21.0995 30.303 20.1656 30.303 19.1919V8.17744C30.303 7.2037 29.9162 6.26985 29.2277 5.58131C28.5391 4.89277 27.6053 4.50596 26.6315 4.50596H15.6171L11.9456 0.834473H4.60264C3.6289 0.834473 2.69504 1.22129 2.00651 1.90983C1.31797 2.59836 0.931152 3.53222 0.931152 4.50596V19.1919C0.931152 20.1656 1.31797 21.0995 2.00651 21.788C2.69504 22.4766 3.6289 22.8634 4.60264 22.8634H11.9456V70.5927H37.646V74.2642C37.646 75.2379 38.0328 76.1718 38.7214 76.8603C39.4099 77.5489 40.3438 77.9357 41.3175 77.9357H63.3464C64.3201 77.9357 65.254 77.5489 65.9425 76.8603C66.6311 76.1718 67.0179 75.2379 67.0179 74.2642V63.2497C67.0179 62.276 66.6311 61.3421 65.9425 60.6536C65.254 59.9651 64.3201 59.5782 63.3464 59.5782H52.3319L48.6605 55.9068H41.3175C40.3438 55.9068 39.4099 56.2936 38.7214 56.9821C38.0328 57.6706 37.646 58.6045 37.646 59.5782V63.2497H19.2886V37.5493H37.646V41.2208C37.646 42.1945 38.0328 43.1284 38.7214 43.8169C39.4099 44.5055 40.3438 44.8923 41.3175 44.8923Z" fill="#3CAAE1"/>
</svg>
