<svg width="26" height="24" viewBox="0 0 26 24" fill="none" xmlns="http://www.w3.org/2000/svg">
<path d="M10.1455 6.83199L6.08301 10.8945C6.47051 11.0445 6.78301 11.232 7.04551 11.382C7.50801 11.6695 7.78301 11.832 8.48301 11.832C9.18301 11.832 9.45801 11.6695 9.92051 11.382C10.4955 11.0445 11.2705 10.582 12.658 10.582C14.0455 10.582 14.8205 11.0445 15.383 11.382C15.8455 11.657 16.133 11.832 16.8205 11.832C17.508 11.832 17.7955 11.6695 18.258 11.382C18.408 11.2945 18.583 11.1945 18.7705 11.0945L10.7455 3.08199C8.80801 1.14449 7.02051 0.569486 3.89551 0.581986V3.70699C6.17051 3.69449 7.50801 4.19449 8.89551 5.58199L10.1455 6.83199ZM4.33301 16.207C5.02051 16.207 5.30801 16.382 5.77051 16.657C6.33301 16.9945 7.10801 17.457 8.49551 17.457C9.88301 17.457 10.658 16.9945 11.2205 16.657C11.683 16.3695 11.958 16.207 12.658 16.207C13.3455 16.207 13.633 16.382 14.0955 16.657C14.658 16.9945 15.433 17.457 16.8205 17.457C18.208 17.457 18.983 16.9945 19.5455 16.657C20.008 16.3695 20.283 16.207 20.983 16.207C21.6705 16.207 21.958 16.382 22.4205 16.657C22.983 16.9945 23.7455 17.4445 25.1205 17.457V14.957C24.433 14.957 24.1455 14.782 23.683 14.507C23.1205 14.1695 22.3455 13.707 20.958 13.707C19.5705 13.707 18.7955 14.1695 18.233 14.507C17.7705 14.7945 17.483 14.957 16.7955 14.957C16.108 14.957 15.8205 14.782 15.358 14.507C14.7955 14.1695 14.0205 13.707 12.633 13.707C11.2455 13.707 10.4705 14.1695 9.90801 14.507C9.44551 14.7945 9.17051 14.957 8.47051 14.957C7.78301 14.957 7.49551 14.782 7.03301 14.507C6.47051 14.1695 5.69551 13.707 4.30801 13.707C2.92051 13.707 2.14551 14.1695 1.58301 14.507C1.12051 14.7945 0.845508 14.957 0.145508 14.957V17.457C1.53301 17.457 2.30801 16.9945 2.89551 16.657C3.35801 16.3695 3.64551 16.207 4.33301 16.207ZM20.983 19.332C19.5955 19.332 18.8205 19.7945 18.258 20.132C17.7955 20.4195 17.508 20.582 16.8205 20.582C16.133 20.582 15.8455 20.407 15.383 20.132C14.8205 19.7945 14.0455 19.332 12.658 19.332C11.2705 19.332 10.4955 19.7945 9.92051 20.132C9.45801 20.4195 9.18301 20.582 8.48301 20.582C7.78301 20.582 7.50801 20.4195 7.04551 20.132C6.48301 19.7945 5.70801 19.332 4.32051 19.332C2.93301 19.332 2.15801 19.7945 1.58301 20.132C1.12051 20.4195 0.845508 20.582 0.145508 20.582V23.082C1.53301 23.082 2.30801 22.6195 2.88301 22.282C3.34551 21.9945 3.63301 21.832 4.32051 21.832C5.00801 21.832 5.29551 21.9945 5.75801 22.282C6.32051 22.6195 7.09551 23.082 8.48301 23.082C9.87051 23.082 10.6455 22.6195 11.2205 22.282C11.683 21.9945 11.958 21.832 12.658 21.832C13.3455 21.832 13.633 22.007 14.0955 22.282C14.658 22.6195 15.433 23.082 16.8205 23.082C18.208 23.082 18.9705 22.6195 19.5455 22.282C20.008 21.9945 20.283 21.832 20.983 21.832C21.6705 21.832 21.958 22.007 22.4205 22.282C22.983 22.6195 23.758 23.082 25.1455 23.082V20.582C24.4455 20.582 24.1705 20.4195 23.708 20.132C23.1455 19.7945 22.3705 19.332 20.983 19.332Z" fill="#3CAAE1"/>
<path d="M18.2705 6.83203C19.9964 6.83203 21.3955 5.43292 21.3955 3.70703C21.3955 1.98114 19.9964 0.582031 18.2705 0.582031C16.5446 0.582031 15.1455 1.98114 15.1455 3.70703C15.1455 5.43292 16.5446 6.83203 18.2705 6.83203Z" fill="#3CAAE1"/>
</svg>
