<svg width="15" height="15" viewBox="0 0 15 15" fill="none" xmlns="http://www.w3.org/2000/svg">
<g clip-path="url(#clip0_8504_12653)">
<path fill-rule="evenodd" clip-rule="evenodd" d="M5.54053 0.790328C4.18754 1.18445 2.98475 1.97721 2.08908 3.06519C1.1934 4.15316 0.646435 5.48583 0.519531 6.88933H3.71953C3.90606 4.75358 4.5253 2.67813 5.53953 0.789328L5.54053 0.790328ZM3.71953 8.13933H0.519531C0.646171 9.54288 1.19291 10.8757 2.0884 11.9638C2.9839 13.052 4.18658 13.845 5.53953 14.2393C4.5253 12.3505 3.90606 10.2751 3.71953 8.13933ZM7.14353 14.5063C5.93111 12.5834 5.18778 10.4024 4.97353 8.13933H10.0085C9.79429 10.4024 9.05095 12.5834 7.83853 14.5063C7.60701 14.5178 7.37506 14.5178 7.14353 14.5063ZM9.44353 14.2383C10.7963 13.844 11.9989 13.0512 12.8944 11.9632C13.7899 10.8753 14.3367 9.5427 14.4635 8.13933H11.2635C11.077 10.2751 10.4578 12.3505 9.44353 14.2393V14.2383ZM11.2635 6.88933H14.4635C14.3369 5.48578 13.7902 4.15298 12.8947 3.06482C11.9992 1.97667 10.7965 1.18368 9.44353 0.789328C10.4578 2.67813 11.077 4.75358 11.2635 6.88933ZM7.14353 0.522328C7.37539 0.510787 7.60768 0.510787 7.83953 0.522328C9.0516 2.44531 9.79459 4.62632 10.0085 6.88933H4.97453C5.19153 4.61233 5.93653 2.42933 7.14353 0.522328Z" fill="#3CAAE1"/>
</g>
<defs>
<clipPath id="clip0_8504_12653">
<rect width="14" height="14" fill="white" transform="translate(0.492188 0.513672)"/>
</clipPath>
</defs>
</svg>
