<svg width="61" height="60" viewBox="0 0 61 60" fill="none" xmlns="http://www.w3.org/2000/svg">
<circle cx="30.3786" cy="29.8396" r="29.8396" fill="#F17E00"/>
<path d="M43.0704 13.5225H17.6885C15.6761 13.5225 14.0625 15.136 14.0625 17.1484V42.5304C14.0625 43.492 14.4445 44.4143 15.1245 45.0943C15.8045 45.7743 16.7268 46.1563 17.6885 46.1563H43.0704C45.0828 46.1563 46.6964 44.5428 46.6964 42.5304V17.1484C46.6964 16.1868 46.3144 15.2645 45.6343 14.5845C44.9543 13.9045 44.0321 13.5225 43.0704 13.5225ZM37.8127 36.9101C35.9453 36.9101 34.1686 36.1849 32.827 34.8433L31.6667 33.6829L34.2411 31.1266L35.3833 32.2688C35.864 32.7507 36.4768 33.079 37.1442 33.2124C37.8117 33.3458 38.5036 33.2781 39.1326 33.018C39.7615 32.7579 40.2991 32.317 40.6774 31.7512C41.0556 31.1853 41.2575 30.52 41.2574 29.8394C41.2574 28.9258 40.8945 28.0496 40.2485 27.4036C39.6025 26.7576 38.7263 26.3947 37.8127 26.3947C36.9062 26.3947 36.036 26.7573 35.3833 27.41L27.9319 34.8433C27.2796 35.5015 26.5029 36.0232 25.6469 36.378C24.7909 36.7329 23.8728 36.9138 22.9462 36.9101C19.0482 36.9101 15.8755 33.7373 15.8755 29.8394C15.8755 25.9415 19.0482 22.7687 22.9462 22.7687C24.8317 22.7687 26.5903 23.4939 27.9319 24.8355L29.0922 25.9959L26.5178 28.5703L25.3756 27.41C24.7229 26.7573 23.8527 26.3947 22.9462 26.3947C22.0326 26.3947 21.1564 26.7576 20.5104 27.4036C19.8644 28.0496 19.5015 28.9258 19.5015 29.8394C19.5015 30.753 19.8644 31.6292 20.5104 32.2752C21.1564 32.9212 22.0326 33.2841 22.9462 33.2841C23.8527 33.2841 24.7229 32.9215 25.3756 32.2688L32.827 24.8355C33.4792 24.1773 34.256 23.6556 35.112 23.3008C35.968 22.9459 36.8861 22.765 37.8127 22.7687C41.7106 22.7687 44.8834 25.9415 44.8834 29.8394C44.8834 33.7373 41.7106 36.9101 37.8127 36.9101Z" fill="white"/>
</svg>
