<svg width="15" height="14" viewBox="0 0 15 14" fill="none" xmlns="http://www.w3.org/2000/svg">
<path d="M11.362 1.75C11.6563 1.74991 11.9398 1.86107 12.1556 2.06121C12.3715 2.26134 12.5037 2.53566 12.5257 2.82917L12.5286 2.91667V11.6667C12.5287 11.961 12.4176 12.2445 12.2174 12.4603C12.0173 12.6761 11.743 12.8083 11.4495 12.8304L11.362 12.8333H4.36198C4.06764 12.8334 3.78415 12.7223 3.56833 12.5221C3.3525 12.322 3.2203 12.0477 3.19823 11.7542L3.19531 11.6667V2.91667C3.19522 2.62233 3.30638 2.33884 3.50652 2.12301C3.70666 1.90719 3.98097 1.77499 4.27448 1.75292L4.36198 1.75H11.362ZM6.40365 9.91667C6.17158 9.91667 5.94902 10.0089 5.78493 10.1729C5.62083 10.337 5.52865 10.5596 5.52865 10.7917C5.52865 11.0237 5.62083 11.2463 5.78493 11.4104C5.94902 11.5745 6.17158 11.6667 6.40365 11.6667C6.63571 11.6667 6.85827 11.5745 7.02236 11.4104C7.18646 11.2463 7.27865 11.0237 7.27865 10.7917C7.27865 10.5596 7.18646 10.337 7.02236 10.1729C6.85827 10.0089 6.63571 9.91667 6.40365 9.91667ZM9.32031 9.91667C9.08825 9.91667 8.86569 10.0089 8.70159 10.1729C8.5375 10.337 8.44531 10.5596 8.44531 10.7917C8.44531 11.0237 8.5375 11.2463 8.70159 11.4104C8.86569 11.5745 9.08825 11.6667 9.32031 11.6667C9.55238 11.6667 9.77494 11.5745 9.93903 11.4104C10.1031 11.2463 10.1953 11.0237 10.1953 10.7917C10.1953 10.5596 10.1031 10.337 9.93903 10.1729C9.77494 10.0089 9.55238 9.91667 9.32031 9.91667ZM6.40365 7.58333C6.17158 7.58333 5.94902 7.67552 5.78493 7.83961C5.62083 8.00371 5.52865 8.22627 5.52865 8.45833C5.52865 8.6904 5.62083 8.91296 5.78493 9.07705C5.94902 9.24115 6.17158 9.33333 6.40365 9.33333C6.63571 9.33333 6.85827 9.24115 7.02236 9.07705C7.18646 8.91296 7.27865 8.6904 7.27865 8.45833C7.27865 8.22627 7.18646 8.00371 7.02236 7.83961C6.85827 7.67552 6.63571 7.58333 6.40365 7.58333ZM9.32031 7.58333C9.08825 7.58333 8.86569 7.67552 8.70159 7.83961C8.5375 8.00371 8.44531 8.22627 8.44531 8.45833C8.44531 8.6904 8.5375 8.91296 8.70159 9.07705C8.86569 9.24115 9.08825 9.33333 9.32031 9.33333C9.55238 9.33333 9.77494 9.24115 9.93903 9.07705C10.1031 8.91296 10.1953 8.6904 10.1953 8.45833C10.1953 8.22627 10.1031 8.00371 9.93903 7.83961C9.77494 7.67552 9.55238 7.58333 9.32031 7.58333ZM9.90365 3.5H5.82031C5.58825 3.5 5.36569 3.59219 5.20159 3.75628C5.0375 3.92038 4.94531 4.14294 4.94531 4.375V5.54167C4.94531 5.77373 5.0375 5.99629 5.20159 6.16039C5.36569 6.32448 5.58825 6.41667 5.82031 6.41667H9.90365C10.1357 6.41667 10.3583 6.32448 10.5224 6.16039C10.6865 5.99629 10.7786 5.77373 10.7786 5.54167V4.375C10.7786 4.14294 10.6865 3.92038 10.5224 3.75628C10.3583 3.59219 10.1357 3.5 9.90365 3.5ZM9.61198 4.66667V5.25H6.11198V4.66667H9.61198Z" fill="#3CAAE1"/>
</svg>
