<svg width="15" height="14" viewBox="0 0 15 14" fill="none" xmlns="http://www.w3.org/2000/svg">
<path d="M6.45312 2.52733C7.19979 1.69958 8.36996 1.16699 9.68479 1.16699C11.94 1.16699 13.7681 2.73383 13.7681 4.66699C13.7681 5.82724 13.109 6.85566 12.0951 7.49266L12.0181 7.53699V9.89949C12.0181 10.0156 11.9834 10.1291 11.9185 10.2254C11.8536 10.3218 11.7615 10.3965 11.6538 10.4401C11.5462 10.4837 11.428 10.4942 11.3143 10.4702C11.2007 10.4462 11.0968 10.3889 11.016 10.3055L10.351 9.62066C10.9745 8.88333 11.3415 7.97799 11.3415 6.99974C11.3415 4.62733 9.18429 2.68599 6.45312 2.52733Z" fill="#3CAAE1"/>
<path d="M6.99281 10.4335L4.85373 12.6385C4.77289 12.7219 4.669 12.7793 4.55536 12.8032C4.44172 12.8272 4.32351 12.8167 4.21587 12.7731C4.10822 12.7295 4.01605 12.6548 3.95114 12.5585C3.88624 12.4621 3.85157 12.3486 3.85156 12.2325V9.87L3.77456 9.82567C2.76015 9.18867 2.10156 8.16025 2.10156 7C2.10156 5.06683 3.92973 3.5 6.1849 3.5C8.44006 3.5 10.2682 5.06683 10.2682 7C10.2682 8.59017 9.03098 9.933 7.3364 10.3588C7.22285 10.388 7.10824 10.4129 6.99281 10.4335Z" fill="#3CAAE1"/>
</svg>
