<svg width="17" height="16" viewBox="0 0 17 16" fill="none" xmlns="http://www.w3.org/2000/svg">
<path d="M5.23377 9.21697V4.39475H2.27821C1.42266 4.39475 0.722656 5.09475 0.722656 5.9503V10.617C0.722656 11.4725 1.42266 12.1725 2.27821 12.1725H3.05599V14.5059L5.38932 12.1725H9.27821C10.1338 12.1725 10.8338 11.4725 10.8338 10.617V9.20142C10.7826 9.21207 10.7305 9.21754 10.6782 9.21775H5.23377V9.21697ZM14.7227 0.505859H7.72266C6.8671 0.505859 6.1671 1.20586 6.1671 2.06141V8.28364H11.6115L13.9449 10.617V8.28364H14.7227C15.5782 8.28364 16.2782 7.58441 16.2782 6.72808V2.06141C16.2782 1.20586 15.5782 0.505859 14.7227 0.505859Z" fill="#1EA0DE"/>
</svg>
