<svg width="15" height="15" viewBox="0 0 15 15" fill="none" xmlns="http://www.w3.org/2000/svg">
<g clip-path="url(#clip0_8504_12603)">
<path d="M3.36432 10.119C3.15043 9.74957 2.99002 9.3704 2.88307 8.98151C2.77613 8.59262 2.72266 8.19401 2.72266 7.78568C2.72266 6.4829 3.17474 5.37457 4.07891 4.46068C4.98307 3.54679 6.08654 3.08984 7.38932 3.08984H7.49141L6.55807 2.15651L7.37474 1.33984L9.70807 3.67318L7.37474 6.00651L6.55807 5.18984L7.49141 4.25651H7.38932C6.4171 4.25651 5.59071 4.59932 4.91016 5.28493C4.2296 5.97054 3.88932 6.80412 3.88932 7.78568C3.88932 8.03845 3.91849 8.28637 3.97682 8.52943C4.03516 8.77248 4.12266 9.01068 4.23932 9.24401L3.36432 10.119ZM7.40391 14.1732L5.07057 11.8398L7.40391 9.50651L8.22057 10.3232L7.28724 11.2565H7.38932C8.36155 11.2565 9.18793 10.9137 9.86849 10.2281C10.549 9.54248 10.8893 8.7089 10.8893 7.72734C10.8893 7.47457 10.8602 7.22665 10.8018 6.98359C10.7435 6.74054 10.656 6.50234 10.5393 6.26901L11.4143 5.39401C11.6282 5.76345 11.7886 6.14262 11.8956 6.53151C12.0025 6.9204 12.056 7.31901 12.056 7.72734C12.056 9.03012 11.6039 10.1385 10.6997 11.0523C9.79557 11.9662 8.6921 12.4232 7.38932 12.4232H7.28724L8.22057 13.3565L7.40391 14.1732Z" fill="#3CAAE1"/>
</g>
<defs>
<clipPath id="clip0_8504_12603">
<rect width="14" height="14" fill="white" transform="translate(0.390625 0.756836)"/>
</clipPath>
</defs>
</svg>
