<svg width="15" height="15" viewBox="0 0 15 15" fill="none" xmlns="http://www.w3.org/2000/svg">
<path d="M7.22852 0.595703C8.14408 0.595703 9.02215 0.95941 9.66955 1.60681C10.317 2.25422 10.6807 3.13228 10.6807 4.04785C10.6807 4.96342 10.317 5.84149 9.66955 6.48889C9.02215 7.13629 8.14408 7.5 7.22852 7.5C6.31295 7.5 5.43488 7.13629 4.78748 6.48889C4.14007 5.84149 3.77637 4.96342 3.77637 4.04785C3.77637 3.13228 4.14007 2.25422 4.78748 1.60681C5.43488 0.95941 6.31295 0.595703 7.22852 0.595703ZM7.22852 9.22607C11.0431 9.22607 14.1328 10.7709 14.1328 12.6782V14.4043H0.324219V12.6782C0.324219 10.7709 3.41389 9.22607 7.22852 9.22607Z" fill="#3CAAE1"/>
</svg>
