<svg width="17" height="16" viewBox="0 0 17 16" fill="none" xmlns="http://www.w3.org/2000/svg">
<path d="M14.25 14.0059H3.75V5.75586H14.25M12 0.505859V2.00586H6V0.505859H4.5V2.00586H3.75C2.9175 2.00586 2.25 2.67336 2.25 3.50586V14.0059C2.25 14.4037 2.40804 14.7852 2.68934 15.0665C2.97064 15.3478 3.35218 15.5059 3.75 15.5059H14.25C14.6478 15.5059 15.0294 15.3478 15.3107 15.0665C15.592 14.7852 15.75 14.4037 15.75 14.0059V3.50586C15.75 3.10803 15.592 2.7265 15.3107 2.4452C15.0294 2.16389 14.6478 2.00586 14.25 2.00586H13.5V0.505859M12.75 8.75586H9V12.5059H12.75V8.75586Z" fill="#1EA0DE"/>
</svg>
