<svg width="69" height="70" viewBox="0 0 69 70" fill="none" xmlns="http://www.w3.org/2000/svg">
<path d="M24.695 2.37354H5.25428C4.39494 2.37354 3.57081 2.7149 2.96317 3.32254C2.35553 3.93018 2.01416 4.75432 2.01416 5.61365V25.0544C2.01416 25.9137 2.35553 26.7378 2.96317 27.3455C3.57081 27.9531 4.39494 28.2945 5.25428 28.2945H24.695C25.5543 28.2945 26.3785 27.9531 26.9861 27.3455C27.5937 26.7378 27.9351 25.9137 27.9351 25.0544V5.61365C27.9351 4.75432 27.5937 3.93018 26.9861 3.32254C26.3785 2.7149 25.5543 2.37354 24.695 2.37354ZM24.695 41.2549H5.25428C4.39494 41.2549 3.57081 41.5963 2.96317 42.204C2.35553 42.8116 2.01416 43.6357 2.01416 44.4951V63.9358C2.01416 64.7951 2.35553 65.6192 2.96317 66.2269C3.57081 66.8345 4.39494 67.1759 5.25428 67.1759H24.695C25.5543 67.1759 26.3785 66.8345 26.9861 66.2269C27.5937 65.6192 27.9351 64.7951 27.9351 63.9358V44.4951C27.9351 43.6357 27.5937 42.8116 26.9861 42.204C26.3785 41.5963 25.5543 41.2549 24.695 41.2549ZM63.5764 2.37354H44.1357C43.2764 2.37354 42.4522 2.7149 41.8446 3.32254C41.2369 3.93018 40.8956 4.75432 40.8956 5.61365V25.0544C40.8956 25.9137 41.2369 26.7378 41.8446 27.3455C42.4522 27.9531 43.2764 28.2945 44.1357 28.2945H63.5764C64.4357 28.2945 65.2599 27.9531 65.8675 27.3455C66.4751 26.7378 66.8165 25.9137 66.8165 25.0544V5.61365C66.8165 4.75432 66.4751 3.93018 65.8675 3.32254C65.2599 2.7149 64.4357 2.37354 63.5764 2.37354Z" fill="#3CAAE1" stroke="#3CAAE1" stroke-width="4" stroke-linejoin="round"/>
<path d="M40.8955 41.2559H66.8164M53.856 54.2163H66.8164M40.8955 67.1768H66.8164" stroke="#3CAAE1" stroke-width="4" stroke-linecap="round" stroke-linejoin="round"/>
</svg>
