<svg width="104" height="28" viewBox="0 0 104 28" fill="none" xmlns="http://www.w3.org/2000/svg">
<g clip-path="url(#clip0_6028_2588)">
<path d="M6.57725 15.9775H0.353516V26.8246H6.57725V15.9775Z" stroke="black" stroke-width="1.01351"/>
<path d="M22.5812 10.2871H16.3574V26.8245H22.5812V10.2871Z" stroke="black" stroke-width="1.01351"/>
<path d="M15.023 7.17529H7.91016V27.0913H15.023V7.17529Z" fill="#EB4A42"/>
<path d="M13.2198 4.30679C13.143 4.38119 13.1078 4.48877 13.1253 4.59429L13.3887 6.05242C13.411 6.17601 13.3588 6.30105 13.2554 6.3725C13.154 6.44658 13.0192 6.45547 12.9086 6.39618L11.596 5.71157C11.5504 5.68728 11.4997 5.67423 11.4478 5.67277H11.3675C11.3397 5.6769 11.3124 5.68579 11.2875 5.69944L9.97456 6.38729C9.90965 6.4199 9.83618 6.43146 9.76416 6.4199C9.58869 6.38672 9.47165 6.21957 9.50038 6.04321L9.76416 4.58508C9.78162 4.4787 9.74638 4.37052 9.6696 4.29494L8.59943 3.25764C8.50992 3.17083 8.4788 3.04042 8.5197 2.92277C8.55942 2.80541 8.66078 2.71973 8.78316 2.70049L10.2561 2.48679C10.3681 2.47523 10.4666 2.40709 10.5169 2.3063L11.166 0.975628C11.1814 0.945968 11.2012 0.918726 11.2252 0.895609L11.2519 0.874839C11.2659 0.85944 11.2819 0.846708 11.2996 0.836324L11.3319 0.82448L11.3823 0.803711H11.5071C11.6185 0.815269 11.7166 0.881952 11.7679 0.981532L12.4255 2.3063C12.4729 2.40321 12.5651 2.4705 12.6715 2.48679L14.1445 2.70049C14.2689 2.71827 14.373 2.8042 14.4142 2.92277C14.453 3.04159 14.4195 3.172 14.3282 3.25764L13.2198 4.30679Z" fill="#EB4A42"/>
<path fill-rule="evenodd" clip-rule="evenodd" d="M19.7785 4.14549L20.293 5.22746C20.3434 5.33365 20.4407 5.4073 20.5536 5.42434L21.7046 5.59875C21.989 5.64196 22.1021 6.00475 21.8963 6.21262L21.064 7.05446C20.9822 7.13726 20.945 7.25625 20.9643 7.37312L21.1607 8.5616C21.2091 8.85561 20.9119 9.07992 20.6577 8.94082L19.6289 8.3793C19.5281 8.32421 19.4073 8.32421 19.3062 8.3793L18.2774 8.94082C18.0233 9.07992 17.726 8.85561 17.7747 8.5616L17.9708 7.37312C17.9902 7.25625 17.9529 7.13726 17.8711 7.05446L17.0388 6.21262C16.833 6.00475 16.9462 5.64196 17.2305 5.59875L18.3815 5.42434C18.4944 5.4073 18.592 5.33365 18.6424 5.22746L19.1567 4.14549C19.2839 3.87794 19.6512 3.87794 19.7785 4.14549Z" stroke="black" stroke-width="1.01351" stroke-linecap="round" stroke-linejoin="round"/>
<path fill-rule="evenodd" clip-rule="evenodd" d="M3.77456 9.83592L4.28906 10.9179C4.33949 11.0241 4.43683 11.0977 4.54968 11.1148L5.70068 11.2892C5.98505 11.3324 6.09821 11.6952 5.8924 11.9031L5.06009 12.7449C4.9783 12.8277 4.94106 12.9467 4.96041 13.0635L5.15683 14.252C5.2052 14.546 4.90795 14.7703 4.65377 14.6313L3.62504 14.0697C3.52418 14.0146 3.40341 14.0146 3.30226 14.0697L2.27353 14.6313C2.01935 14.7703 1.72211 14.546 1.77076 14.252L1.9669 13.0635C1.98624 12.9467 1.94901 12.8277 1.86721 12.7449L1.0349 11.9031C0.829091 11.6952 0.942257 11.3324 1.22663 11.2892L2.37763 11.1148C2.49047 11.0977 2.5881 11.0241 2.63853 10.9179L3.15275 9.83592C3.28 9.56837 3.64731 9.56837 3.77456 9.83592Z" stroke="black" stroke-width="1.01351" stroke-linecap="round" stroke-linejoin="round"/>
<path d="M33.0635 26.9731C31.998 26.9731 31.032 26.744 30.1657 26.286C29.3093 25.8179 28.6322 25.1756 28.1343 24.3591C27.6463 23.5326 27.4023 22.6015 27.4023 21.5659C27.4023 20.5302 27.6463 19.6042 28.1343 18.7876C28.6322 17.9611 29.3093 17.3188 30.1657 16.8607C31.032 16.3927 32.0029 16.1587 33.0784 16.1587C33.9846 16.1587 34.8011 16.318 35.5281 16.6367C36.2649 16.9553 36.8823 17.4134 37.3802 18.0109L35.8268 19.4448C35.1198 18.6283 34.2435 18.22 33.1979 18.22C32.5506 18.22 31.9731 18.3644 31.4652 18.6532C30.9573 18.932 30.559 19.3253 30.2702 19.8332C29.9914 20.341 29.852 20.9186 29.852 21.5659C29.852 22.2131 29.9914 22.7907 30.2702 23.2986C30.559 23.8064 30.9573 24.2047 31.4652 24.4935C31.9731 24.7723 32.5506 24.9118 33.1979 24.9118C34.2435 24.9118 35.1198 24.4985 35.8268 23.672L37.3802 25.1059C36.8823 25.7134 36.2649 26.1764 35.5281 26.4951C34.7912 26.8137 33.9696 26.9731 33.0635 26.9731Z" fill="black"/>
<path d="M45.6756 26.7943L43.6591 23.8815H41.4335V26.7943H39.0137V16.3384H43.5396C44.4657 16.3384 45.2673 16.4927 45.9444 16.8014C46.6315 17.1101 47.1593 17.5483 47.5277 18.1159C47.8962 18.6835 48.0804 19.3556 48.0804 20.1324C48.0804 20.9091 47.8912 21.5813 47.5128 22.1489C47.1444 22.7065 46.6166 23.1347 45.9295 23.4334L48.2746 26.7943H45.6756ZM45.6307 20.1324C45.6307 19.5448 45.4415 19.0967 45.0631 18.788C44.6847 18.4694 44.1321 18.3101 43.4051 18.3101H41.4335V21.9547H43.4051C44.1321 21.9547 44.6847 21.7954 45.0631 21.4767C45.4415 21.158 45.6307 20.7099 45.6307 20.1324Z" fill="black"/>
<path d="M59.5129 26.794L59.4983 20.5205L56.4209 25.6887H55.3309L52.2688 20.6549V26.794H49.998V16.3381H51.9996L55.9134 22.8357L59.7672 16.3381H61.7538L61.7837 26.794H59.5129Z" fill="black"/>
<path d="M64.6531 18.8787H65.7136V26.7356H64.6531V18.8787ZM65.1908 17.161C64.9717 17.161 64.7875 17.0863 64.6381 16.9369C64.4887 16.7876 64.4141 16.6083 64.4141 16.3992C64.4141 16.2 64.4887 16.0258 64.6381 15.8764C64.7875 15.727 64.9717 15.6523 65.1908 15.6523C65.4099 15.6523 65.5941 15.727 65.7435 15.8764C65.8928 16.0158 65.9675 16.1851 65.9675 16.3843C65.9675 16.6033 65.8928 16.7876 65.7435 16.9369C65.5941 17.0863 65.4099 17.161 65.1908 17.161Z" fill="#EB4A42"/>
<path d="M72.6672 18.8188C73.653 18.8188 74.4347 19.1076 75.0123 19.6852C75.5998 20.2528 75.8936 21.0843 75.8936 22.1797V26.7354H74.833V22.2842C74.833 21.4677 74.6289 20.8453 74.2206 20.4171C73.8123 19.9889 73.2298 19.7748 72.473 19.7748C71.6266 19.7748 70.9544 20.0287 70.4565 20.5366C69.9686 21.0345 69.7246 21.7266 69.7246 22.6128V26.7354H68.6641V18.8786H69.6798V20.3275C69.9686 19.8495 70.3669 19.4811 70.8747 19.2221C71.3925 18.9533 71.99 18.8188 72.6672 18.8188Z" fill="#EB4A42"/>
<path d="M85.9712 15.6523V26.7356H84.9555V25.1821C84.6368 25.7099 84.2136 26.1132 83.6858 26.392C83.168 26.6708 82.5805 26.8103 81.9233 26.8103C81.1864 26.8103 80.5192 26.641 79.9217 26.3024C79.3242 25.9638 78.8562 25.4908 78.5176 24.8834C78.1791 24.276 78.0098 23.5839 78.0098 22.8072C78.0098 22.0304 78.1791 21.3383 78.5176 20.7309C78.8562 20.1235 79.3242 19.6555 79.9217 19.3268C80.5192 18.9883 81.1864 18.819 81.9233 18.819C82.5606 18.819 83.1331 18.9534 83.641 19.2223C84.1588 19.4812 84.582 19.8646 84.9106 20.3724V15.6523H85.9712ZM82.0129 25.8692C82.5606 25.8692 83.0535 25.7448 83.4916 25.4958C83.9397 25.2369 84.2883 24.8734 84.5372 24.4054C84.7961 23.9374 84.9256 23.4046 84.9256 22.8072C84.9256 22.2097 84.7961 21.6769 84.5372 21.2089C84.2883 20.7409 83.9397 20.3824 83.4916 20.1334C83.0535 19.8745 82.5606 19.7451 82.0129 19.7451C81.4552 19.7451 80.9524 19.8745 80.5042 20.1334C80.0661 20.3824 79.7176 20.7409 79.4587 21.2089C79.2097 21.6769 79.0852 22.2097 79.0852 22.8072C79.0852 23.4046 79.2097 23.9374 79.4587 24.4054C79.7176 24.8734 80.0661 25.2369 80.5042 25.4958C80.9524 25.7448 81.4552 25.8692 82.0129 25.8692Z" fill="#EB4A42"/>
<path d="M95.7656 23.1356H89.1933C89.2531 23.9522 89.5668 24.6144 90.1344 25.1222C90.702 25.6201 91.4189 25.8691 92.2853 25.8691C92.7732 25.8691 93.2213 25.7845 93.6296 25.6152C94.0379 25.4359 94.3914 25.177 94.6901 24.8384L95.2876 25.5255C94.9391 25.9438 94.5009 26.2624 93.9732 26.4815C93.4554 26.7006 92.8828 26.8101 92.2554 26.8101C91.4488 26.8101 90.7318 26.6408 90.1045 26.3023C89.4871 25.9537 89.0041 25.4758 88.6556 24.8683C88.3071 24.2609 88.1328 23.5738 88.1328 22.807C88.1328 22.0403 88.2971 21.3532 88.6257 20.7457C88.9643 20.1383 89.4224 19.6653 89.9999 19.3267C90.5875 18.9881 91.2447 18.8188 91.9716 18.8188C92.6985 18.8188 93.3508 18.9881 93.9284 19.3267C94.5059 19.6653 94.959 20.1383 95.2876 20.7457C95.6162 21.3432 95.7805 22.0303 95.7805 22.807L95.7656 23.1356ZM91.9716 19.73C91.2148 19.73 90.5775 19.974 90.0597 20.4619C89.5518 20.9399 89.263 21.5673 89.1933 22.344H94.7648C94.6951 21.5673 94.4014 20.9399 93.8835 20.4619C93.3757 19.974 92.7384 19.73 91.9716 19.73Z" fill="#EB4A42"/>
<path d="M102.724 26.7353L100.23 23.4491L97.7203 26.7353H96.5254L99.6323 22.7023L96.6748 18.8784H97.8697L100.23 21.9554L102.59 18.8784H103.755L100.797 22.7023L103.934 26.7353H102.724Z" fill="#EB4A42"/>
</g>
<defs>
<clipPath id="clip0_6028_2588">
<rect width="103.847" height="26.3175" fill="white" transform="translate(0.0859375 0.773926)"/>
</clipPath>
</defs>
</svg>
