<svg width="17" height="17" viewBox="0 0 17 17" fill="none" xmlns="http://www.w3.org/2000/svg">
<g clip-path="url(#clip0_2164_4568)">
<path d="M15.8416 13.5058H14.8585V6.50581C14.8585 6.24059 14.7532 5.98624 14.5656 5.7987C14.3781 5.61117 14.1237 5.50581 13.8585 5.50581H11.1085C11.0422 5.50581 10.9786 5.53215 10.9317 5.57903C10.8849 5.62592 10.8585 5.68951 10.8585 5.75581V13.5058H9.85852V2.53143C9.86018 2.37567 9.82637 2.22158 9.75967 2.08081C9.69297 1.94004 9.59512 1.81629 9.47352 1.71893C9.30777 1.58971 9.10552 1.51599 8.89549 1.50825C8.68546 1.50051 8.47833 1.55914 8.30352 1.67581L3.30352 5.00581C3.16636 5.09732 3.05395 5.22133 2.97631 5.3668C2.89867 5.51226 2.85821 5.67467 2.85852 5.83956V13.5058H1.8754C1.74619 13.5039 1.62105 13.551 1.52515 13.6376C1.42926 13.7242 1.36972 13.8439 1.35852 13.9727C1.35398 14.0411 1.36355 14.1097 1.38663 14.1742C1.40972 14.2388 1.44583 14.2979 1.49272 14.3479C1.53961 14.3978 1.59628 14.4377 1.65921 14.4648C1.72213 14.492 1.78998 14.506 1.85852 14.5058H15.8585C15.9271 14.506 15.9949 14.492 16.0578 14.4648C16.1208 14.4377 16.1774 14.3978 16.2243 14.3479C16.2712 14.2979 16.3073 14.2388 16.3304 14.1742C16.3535 14.1097 16.3631 14.0411 16.3585 13.9727C16.3473 13.8439 16.2878 13.7242 16.1919 13.6376C16.096 13.551 15.9709 13.5039 15.8416 13.5058ZM5.60852 12.0058C5.60867 12.0744 5.59473 12.1422 5.56755 12.2051C5.54038 12.2681 5.50056 12.3247 5.45056 12.3716C5.40057 12.4185 5.34146 12.4546 5.27692 12.4777C5.21239 12.5008 5.14379 12.5104 5.0754 12.5058C4.94655 12.4946 4.82674 12.435 4.74011 12.3389C4.65347 12.2429 4.60645 12.1176 4.60852 11.9883V11.0227C4.60676 10.8935 4.6539 10.7685 4.74049 10.6726C4.82708 10.5767 4.94671 10.5172 5.0754 10.5058C5.14379 10.5013 5.21239 10.5108 5.27692 10.5339C5.34146 10.557 5.40057 10.5931 5.45056 10.64C5.50056 10.6869 5.54038 10.7436 5.56755 10.8065C5.59473 10.8694 5.60867 10.9373 5.60852 11.0058V12.0058ZM5.60852 8.50581C5.60867 8.57435 5.59473 8.6422 5.56755 8.70512C5.54038 8.76805 5.50056 8.82472 5.45056 8.87161C5.40057 8.9185 5.34146 8.95461 5.27692 8.9777C5.21239 9.00078 5.14379 9.01035 5.0754 9.00581C4.94661 8.99446 4.82688 8.93479 4.74028 8.83879C4.65367 8.7428 4.6066 8.61759 4.60852 8.48831V7.52268C4.60676 7.39352 4.6539 7.26846 4.74049 7.1726C4.82708 7.07673 4.94671 7.01715 5.0754 7.00581C5.14379 7.00127 5.21239 7.01084 5.27692 7.03392C5.34146 7.05701 5.40057 7.09312 5.45056 7.14001C5.50056 7.1869 5.54038 7.24357 5.56755 7.3065C5.59473 7.36942 5.60867 7.43727 5.60852 7.50581V8.50581ZM8.10852 12.0058C8.10867 12.0744 8.09473 12.1422 8.06755 12.2051C8.04038 12.2681 8.00056 12.3247 7.95056 12.3716C7.90057 12.4185 7.84146 12.4546 7.77692 12.4777C7.71239 12.5008 7.64379 12.5104 7.5754 12.5058C7.44677 12.4946 7.32714 12.4352 7.24054 12.3394C7.15393 12.2436 7.10677 12.1187 7.10852 11.9896V11.0227C7.10692 10.8936 7.15413 10.7687 7.24071 10.673C7.32728 10.5773 7.44682 10.5178 7.5754 10.5064C7.64379 10.5019 7.71239 10.5115 7.77692 10.5345C7.84146 10.5576 7.90057 10.5937 7.95056 10.6406C8.00056 10.6875 8.04038 10.7442 8.06755 10.8071C8.09473 10.87 8.10867 10.9379 8.10852 11.0064V12.0058ZM8.10852 8.50581C8.10867 8.57435 8.09473 8.6422 8.06755 8.70512C8.04038 8.76805 8.00056 8.82472 7.95056 8.87161C7.90057 8.9185 7.84146 8.95461 7.77692 8.9777C7.71239 9.00078 7.64379 9.01035 7.5754 9.00581C7.44682 8.99447 7.32728 8.93498 7.24071 8.83925C7.15413 8.74352 7.10692 8.61862 7.10852 8.48956V7.52268C7.10692 7.39362 7.15413 7.26872 7.24071 7.17299C7.32728 7.07726 7.44682 7.01777 7.5754 7.00643C7.64379 7.00189 7.71239 7.01146 7.77692 7.03455C7.84146 7.05764 7.90057 7.09374 7.95056 7.14063C8.00056 7.18752 8.04038 7.24419 8.06755 7.30712C8.09473 7.37005 8.10867 7.43789 8.10852 7.50643V8.50581Z" fill="#3CAAE1"/>
</g>
<defs>
<clipPath id="clip0_2164_4568">
<rect width="16" height="16" fill="white" transform="translate(0.858398 0.505859)"/>
</clipPath>
</defs>
</svg>
