<svg width="36" height="32" viewBox="0 0 36 32" fill="none" xmlns="http://www.w3.org/2000/svg">
<path d="M8.07358 31.561V28.1166H15.9466V22.7777C14.3392 22.462 12.9043 21.8666 11.642 20.9918C10.3797 20.1169 9.45267 19.0187 8.86088 17.6971C6.40056 17.4388 4.34242 16.4991 2.68647 14.8779C1.03051 13.2567 0.201874 11.3548 0.200562 9.17215V7.44992C0.200562 6.5027 0.586339 5.69211 1.35789 5.01815C2.12945 4.34418 3.05584 4.00663 4.13707 4.00548H8.07358V0.561035H27.7561V4.00548H31.6926C32.7752 4.00548 33.7022 4.34303 34.4738 5.01815C35.2453 5.69326 35.6304 6.50385 35.6291 7.44992V9.17215C35.6291 11.3536 34.8005 13.2555 33.1432 14.8779C31.486 16.5002 29.4278 17.44 26.9688 17.6971C26.3783 19.0175 25.4519 20.1157 24.1896 20.9918C22.9273 21.8678 21.4918 22.4631 19.8831 22.7777V28.1166H27.7561V31.561H8.07358ZM8.07358 13.9944V7.44992H4.13707V9.17215C4.13707 10.2629 4.49792 11.2463 5.21961 12.1223C5.9413 12.9984 6.89262 13.6224 8.07358 13.9944ZM27.7561 13.9944C28.9371 13.6212 29.8884 12.9966 30.6101 12.1206C31.3318 11.2446 31.6926 10.2617 31.6926 9.17215V7.44992H27.7561V13.9944Z" fill="#F17E00"/>
</svg>
