<svg width="15" height="15" viewBox="0 0 15 15" fill="none" xmlns="http://www.w3.org/2000/svg">
<path fill-rule="evenodd" clip-rule="evenodd" d="M2.51025 2.53369C1.65625 3.38885 1.65625 4.76319 1.65625 7.51302C1.65625 10.2629 1.65625 11.6378 2.51025 12.4918C3.36542 13.3464 4.73975 13.3464 7.48958 13.3464C10.2394 13.3464 11.6143 13.3464 12.4683 12.4918C13.3229 11.6384 13.3229 10.2629 13.3229 7.51302C13.3229 4.76319 13.3229 3.38827 12.4683 2.53369C11.6149 1.67969 10.2394 1.67969 7.48958 1.67969C4.73975 1.67969 3.36483 1.67969 2.51025 2.53369ZM10.7422 6.62635C10.8132 6.53688 10.8464 6.4232 10.8347 6.30959C10.823 6.19597 10.7674 6.09144 10.6796 6.01832C10.5919 5.94521 10.479 5.9093 10.3651 5.91827C10.2513 5.92725 10.1455 5.98039 10.0702 6.06635L9.022 7.32402C8.80617 7.5836 8.67258 7.74169 8.5635 7.84027C8.53497 7.86795 8.50301 7.89186 8.46842 7.91144L8.462 7.91435L8.45733 7.91202L8.45558 7.91144C8.42078 7.8919 8.38863 7.86799 8.35992 7.84027C8.25083 7.7411 8.11783 7.5836 7.90142 7.32402L7.73108 7.11985C7.53975 6.88944 7.3665 6.68235 7.2055 6.53652C7.02992 6.37785 6.80883 6.23669 6.51717 6.23669C6.2255 6.23669 6.005 6.37785 5.82883 6.53652C5.66783 6.68235 5.49517 6.88944 5.30383 7.11985L4.23633 8.39969C4.19956 8.44385 4.17185 8.49482 4.15478 8.54969C4.13771 8.60457 4.13161 8.66226 4.13684 8.71949C4.1474 8.83507 4.20343 8.94172 4.29262 9.01598C4.38181 9.09024 4.49685 9.12603 4.61243 9.11547C4.72801 9.10491 4.83466 9.04888 4.90892 8.95969L5.95717 7.70202C6.173 7.44244 6.30658 7.28435 6.41567 7.18577C6.4442 7.1581 6.47615 7.13418 6.51075 7.1146L6.51483 7.11285L6.51717 7.11169L6.52358 7.1146C6.55838 7.13414 6.59054 7.15806 6.61925 7.18577C6.72833 7.28494 6.86133 7.44244 7.07775 7.70202L7.24808 7.90619C7.44 8.1366 7.61267 8.34369 7.77367 8.48952C7.94925 8.64819 8.17033 8.78935 8.462 8.78935C8.75367 8.78935 8.97417 8.64819 9.15033 8.48952C9.31133 8.34369 9.484 8.1366 9.67533 7.90619L10.7422 6.62635Z" fill="#3CAAE1"/>
</svg>
