<svg width="14" height="12" viewBox="0 0 14 12" fill="none" xmlns="http://www.w3.org/2000/svg">
<path d="M1.25844 6C0.568446 6 0.00390625 5.4 0.00390625 4.66667V1.33333C0.00390625 0.6 0.568446 0 1.25844 0H6.27657C6.96656 0 7.5311 0.6 7.5311 1.33333V4.66667C7.5311 5.4 6.96656 6 6.27657 6H5.02204V8L3.14024 6H1.25844ZM12.5492 10C13.2392 10 13.8038 9.4 13.8038 8.66667V5.33333C13.8038 4.6 13.2392 4 12.5492 4H8.78563V4.66667C8.78563 6.13333 7.65656 7.33333 6.27657 7.33333V8.66667C6.27657 9.4 6.84111 10 7.5311 10H8.78563V12L10.6674 10H12.5492Z" fill="#ffffff"/>
</svg>
