<svg width="21" height="21" viewBox="0 0 21 21" fill="none" xmlns="http://www.w3.org/2000/svg">
<path fill-rule="evenodd" clip-rule="evenodd" d="M16.8013 1.05074L17.0738 1.08494C17.7941 1.18432 18.7473 1.3179 19.287 1.85863C19.7294 2.29998 19.8993 3.01811 20.0008 3.65929L20.0607 4.07179C20.1953 5.04425 20.2306 6.31807 20.0008 7.73295C19.5477 10.5253 18.0612 13.8573 14.3285 16.437C14.3082 16.6379 14.3071 16.841 14.3114 17.044L14.3221 17.3475C14.3392 17.8145 14.3563 18.2815 14.2259 18.7346C14.0228 19.4399 13.2994 19.9048 12.6229 20.2382L12.2916 20.3953L11.8642 20.5833C11.0648 20.9232 9.98552 21.2716 9.30907 20.594C8.90299 20.189 8.73628 19.5949 8.60056 19.0039L8.55034 18.7827C8.49292 18.5036 8.42159 18.2275 8.33661 17.9556C8.28318 17.7988 8.22547 17.6403 8.16349 17.48C8.09527 17.5638 8.02287 17.644 7.94656 17.7205C7.57787 18.0891 7.02752 18.3467 6.57442 18.5273C6.07964 18.7228 5.51967 18.8938 5.00138 19.0349L4.73529 19.1054L4.22555 19.2326L3.7639 19.3395L3.21141 19.457L2.86624 19.5243C2.69409 19.5562 2.51677 19.5457 2.34958 19.4938C2.18239 19.4419 2.03033 19.35 1.90654 19.2262C1.78274 19.1024 1.69092 18.9504 1.63899 18.7832C1.58706 18.616 1.57658 18.4387 1.60845 18.2665L1.70035 17.806L1.86492 17.06L1.99743 16.515L2.09789 16.1303C2.23895 15.6131 2.40993 15.0531 2.60656 14.5594C2.78609 14.1053 3.04363 13.5549 3.41231 13.1862L3.49781 13.1039L3.42941 13.0761C3.24675 13.0068 3.06177 12.9437 2.87479 12.887L2.57878 12.7962C1.83714 12.5718 1.04421 12.3302 0.551565 11.8365C-0.0468736 11.2392 0.155099 10.3297 0.443632 9.57315L0.561183 9.28034L0.750332 8.85288L0.907422 8.5216C1.24084 7.84622 1.7057 7.12275 2.411 6.91971C2.78502 6.81285 3.17401 6.80644 3.56513 6.81712L3.80023 6.8246C4.10586 6.83529 4.41042 6.84704 4.70858 6.81819C7.28827 3.08436 10.6203 1.59788 13.4127 1.14478C14.5328 0.961054 15.6727 0.929422 16.8013 1.05074ZM6.31581 14.5958C6.14768 14.4711 5.94665 14.3986 5.73768 14.3872C5.52871 14.3758 5.321 14.426 5.14031 14.5316L5.02276 14.6107L4.92337 14.6994L4.78979 14.8683C4.51195 15.2701 4.35379 15.8258 4.23089 16.3451L4.11548 16.8452L4.06098 17.0729L4.26509 17.0237L4.71178 16.9211C5.32946 16.7769 6.01445 16.5898 6.4355 16.2105C6.61857 16.0275 6.72901 15.7843 6.7463 15.526C6.7636 15.2678 6.68658 15.012 6.52954 14.8063L6.44191 14.7058L6.41626 14.6812L6.31581 14.5958ZM13.9919 7.14306C13.7934 6.94455 13.5578 6.78708 13.2985 6.67962C13.0392 6.57216 12.7613 6.51683 12.4806 6.51678C12.2 6.51673 11.922 6.57196 11.6627 6.67933C11.4034 6.7867 11.1677 6.94409 10.9692 7.14252C10.7707 7.34096 10.6132 7.57655 10.5058 7.83584C10.3983 8.09514 10.343 8.37306 10.3429 8.65374C10.3429 8.93442 10.3981 9.21236 10.5055 9.47169C10.6128 9.73102 10.7702 9.96667 10.9687 10.1652C11.3694 10.5661 11.913 10.7914 12.4799 10.7915C13.0467 10.7916 13.5904 10.5665 13.9913 10.1657C14.3922 9.76495 14.6175 9.22135 14.6176 8.65449C14.6177 8.08764 14.3926 7.54396 13.9919 7.14306Z" fill="#474766"/>
</svg>
