<svg width="74" height="74" viewBox="0 0 74 74" fill="none" xmlns="http://www.w3.org/2000/svg">
<path fill-rule="evenodd" clip-rule="evenodd" d="M36.9748 73.7751C16.6189 73.7751 0.117676 57.2738 0.117676 36.9179C0.117676 16.562 16.6189 0.060791 36.9748 0.060791C57.3307 0.060791 73.832 16.562 73.832 36.9179C73.832 57.2738 57.3307 73.7751 36.9748 73.7751ZM32.7055 24.3727H37.8348C42.5479 24.3727 44.916 26.8406 44.916 30.7474C44.916 34.6789 42.5479 37.1713 37.8087 37.1713H32.7055V24.3727ZM39.1525 41.5681C45.9419 41.5681 50.4123 36.9763 50.4123 30.7229C50.4123 24.4464 46.0401 19.8055 39.3245 19.8055H27.3075V38.7838H22.493V41.5681H27.306V46.3058H22.493V49.0654H27.306V54.3898H32.7025V49.0654H42.4972V46.3058H32.7025V41.5681H39.1525Z" fill="#3CAAE1"/>
</svg>
