<svg width="15" height="15" viewBox="0 0 15 15" fill="none" xmlns="http://www.w3.org/2000/svg">
<path fill-rule="evenodd" clip-rule="evenodd" d="M7.39062 13.0068C8.08006 13.0068 8.76275 12.871 9.39971 12.6072C10.0367 12.3434 10.6154 11.9567 11.1029 11.4691C11.5904 10.9816 11.9772 10.4029 12.241 9.76592C12.5048 9.12896 12.6406 8.44628 12.6406 7.75684C12.6406 7.0674 12.5048 6.38471 12.241 5.74775C11.9772 5.11079 11.5904 4.53203 11.1029 4.04453C10.6154 3.55702 10.0367 3.17031 9.39971 2.90647C8.76275 2.64263 8.08006 2.50684 7.39062 2.50684C5.99824 2.50684 4.66288 3.05996 3.67831 4.04453C2.69375 5.02909 2.14063 6.36445 2.14062 7.75684C2.14062 9.14922 2.69375 10.4846 3.67831 11.4691C4.66288 12.4537 5.99824 13.0068 7.39062 13.0068ZM7.97396 4.5485C7.97396 4.39379 7.9125 4.24542 7.8031 4.13602C7.69371 4.02663 7.54533 3.96517 7.39062 3.96517C7.23592 3.96517 7.08754 4.02663 6.97815 4.13602C6.86875 4.24542 6.80729 4.39379 6.80729 4.5485V7.611C6.80729 8.0135 7.13396 8.34017 7.53646 8.34017H9.43229C9.587 8.34017 9.73537 8.27871 9.84477 8.16931C9.95417 8.05992 10.0156 7.91155 10.0156 7.75684C10.0156 7.60213 9.95417 7.45375 9.84477 7.34436C9.73537 7.23496 9.587 7.1735 9.43229 7.1735H7.97396V4.5485Z" fill="#3CAAE1"/>
</svg>
