<svg width="31" height="32" viewBox="0 0 31 32" fill="none" xmlns="http://www.w3.org/2000/svg">
<g clip-path="url(#clip0_2200_5465)">
<path d="M8.02173 2.50983C6.63423 2.50983 5.52173 3.62669 5.52173 5.01963V25.0981C5.52173 25.7637 5.78512 26.4021 6.25396 26.8728C6.7228 27.3434 7.35869 27.6079 8.02173 27.6079H13.8455L15.6342 25.7475V22.5883H8.02173V20.0785H18.1342L20.6342 17.5687H8.02173V15.0588H25.5217V12.662V10.0392L18.0217 2.50983H8.02173ZM16.7717 4.39218L23.6467 11.2941H16.7717V4.39218Z" fill="#F17E00"/>
<path d="M22.1705 18.9932H24.658L27.3859 16.2462C27.463 16.1682 27.5547 16.1063 27.6557 16.064C27.7568 16.0218 27.8651 16 27.9746 16C28.0841 16 28.1924 16.0218 28.2935 16.064C28.3945 16.1063 28.4862 16.1682 28.5633 16.2462L30.7025 18.4022C30.857 18.5581 30.9436 18.7691 30.9436 18.989C30.9436 19.2089 30.857 19.4199 30.7025 19.5759L28.8038 21.4904H22.1705V23.1552C22.1705 23.376 22.0831 23.5877 21.9276 23.7438C21.7721 23.8999 21.5612 23.9876 21.3413 23.9876C21.1214 23.9876 20.9105 23.8999 20.755 23.7438C20.5995 23.5877 20.5122 23.376 20.5122 23.1552V20.658C20.5122 20.2165 20.6869 19.793 20.9979 19.4808C21.3089 19.1686 21.7307 18.9932 22.1705 18.9932ZM17.1955 23.1552V26.4849L15.2968 28.3911C15.1423 28.547 15.0557 28.758 15.0557 28.9779C15.0557 29.1978 15.1423 29.4088 15.2968 29.5648L17.436 31.7207C17.5131 31.7987 17.6048 31.8607 17.7058 31.9029C17.8069 31.9452 17.9152 31.9669 18.0247 31.9669C18.1342 31.9669 18.2425 31.9452 18.3436 31.9029C18.4446 31.8607 18.5363 31.7987 18.6134 31.7207L22.1705 28.1497H25.4871C25.707 28.1497 25.9179 28.062 26.0734 27.9059C26.2289 27.7498 26.3163 27.538 26.3163 27.3173V26.4849H27.1454C27.3653 26.4849 27.5762 26.3972 27.7317 26.241C27.8872 26.0849 27.9746 25.8732 27.9746 25.6524V24.82H28.8038C29.0237 24.82 29.2346 24.7323 29.3901 24.5762C29.5456 24.4201 29.6329 24.2084 29.6329 23.9876V23.1552H23.8288V23.9876C23.8288 24.4292 23.6541 24.8526 23.3431 25.1648C23.0321 25.477 22.6103 25.6524 22.1705 25.6524H20.5122C20.0724 25.6524 19.6506 25.477 19.3396 25.1648C19.0286 24.8526 18.8539 24.4292 18.8539 23.9876V21.4904L17.1955 23.1552Z" fill="#F17E00"/>
</g>
<defs>
<clipPath id="clip0_2200_5465">
<rect width="30" height="32" fill="white" transform="translate(0.521729)"/>
</clipPath>
</defs>
</svg>
