<svg width="111" height="27" viewBox="0 0 111 27" fill="none" xmlns="http://www.w3.org/2000/svg">
<g clip-path="url(#clip0_6028_2542)">
<path d="M8.52643 0.38623L12.849 5.97231H12.2505L11.8515 6.57082L7.79492 0.785236L8.06093 0.38623H8.52643Z" fill="#00B4F3"/>
<path d="M25.0845 0.852131L21.5599 6.37171L21.3604 5.9727H20.6289L24.2865 0.453125H24.8185L25.0845 0.852131Z" fill="#02B1F3"/>
<path d="M32.2007 14.0856H25.6836L25.8831 13.6866L25.6836 13.2876H32.2672L32.4667 13.6866L32.2007 14.0856Z" fill="#02B1F3"/>
<path d="M21.0944 21.135L24.4195 26.5216L24.1535 26.9871H23.5549L20.6289 21.8L21.0944 21.135Z" fill="#02B1F3"/>
<path d="M16.7055 14.1525L13.2474 19.7386L12.9814 19.2731H12.3164L15.841 13.687H16.4395L16.7055 14.1525Z" fill="#00B4F3"/>
<path d="M0.611707 13.2214L7.3283 13.2879L7.0623 13.6869L7.2618 14.2189H0.678208L0.345703 13.6869L0.611707 13.2214Z" fill="#02B1F3"/>
<path d="M7.99414 0.38623L12.2502 5.97231H21.2943L24.8189 0.38623H7.99414Z" fill="#00B4F3"/>
<path d="M25.8815 13.6864H32.5316L24.8175 0.38623L21.293 5.97231L25.8815 13.6864Z" fill="url(#paint0_linear_6028_2542)"/>
<path d="M25.8821 13.6868H32.5322L24.1531 26.987L20.8945 21.4009L25.8821 13.6868Z" fill="url(#paint1_linear_6028_2542)"/>
<path d="M12.9141 19.2731L17.8351 26.9872H24.1527L16.4386 13.687L12.9141 19.2731Z" fill="#47D4F8"/>
<path d="M0.345703 13.6868L3.87025 19.2728H12.9144L16.4389 13.6868H0.345703Z" fill="#00B4F3"/>
<path d="M12.2494 5.97255L7.0623 13.6867H0.345703L7.99331 0.386475L12.2494 5.97255Z" fill="url(#paint2_linear_6028_2542)"/>
<path d="M11.9836 0.120605H0.212891V13.8863H11.9836V0.120605Z" fill="url(#paint3_linear_6028_2542)"/>
<path d="M45.4785 9.00311C44.8864 8.80573 43.6363 8.60835 42.5836 8.60835C40.6756 8.60835 39.6229 9.00311 39.6229 10.4506C39.6229 11.4375 40.1492 11.9638 42.3204 12.1612C45.018 12.4244 46.2022 13.4113 46.2022 15.5167C46.2022 18.0827 44.4916 19.0038 41.3993 19.0038C40.215 19.0038 38.8991 18.8064 37.978 18.4774L38.3728 17.03C39.0965 17.2931 40.3466 17.4247 41.3335 17.4247C43.2415 17.4247 44.36 17.03 44.36 15.5825C44.36 14.5956 43.8337 13.8719 41.5967 13.6745C38.9649 13.4771 37.7148 12.6876 37.7148 10.5822C37.7148 8.0162 39.4255 7.0293 42.452 7.0293C43.5705 7.0293 44.8864 7.22668 45.7417 7.48985L45.4785 9.00311Z" fill="#00B4F3"/>
<path d="M50.2824 11.832V15.9113C50.2824 17.0955 50.6113 17.6219 51.664 17.6219C52.1904 17.6219 52.7167 17.5561 53.1773 17.4245L53.4405 18.6746C52.9141 18.872 52.0588 19.0036 51.4009 19.0036C49.5586 19.0036 48.7033 18.4772 48.7033 15.977V11.832H47.2559V10.4504H48.7033V8.87132L50.2824 8.21338V10.4504H53.1773V11.832H50.2824Z" fill="#00B4F3"/>
<path d="M61.6636 18.4114C60.6767 18.8061 59.2292 19.0693 58.1107 19.0693C55.6106 19.0693 54.6895 18.4772 54.6895 16.306C54.6895 13.9374 56.0711 13.5426 57.9791 13.5426C58.7687 13.5426 59.4266 13.6084 60.2161 13.8058C60.2161 12.0952 59.7556 11.7004 57.9791 11.7004C57.1238 11.7004 56.2027 11.832 55.5448 12.0952L55.2158 10.7793C55.9395 10.5819 57.058 10.3845 58.2423 10.3845C60.6767 10.3845 61.7952 11.1083 61.7952 13.6084V18.4114H61.6636ZM60.1503 14.9243C59.624 14.7927 58.9003 14.7269 58.2423 14.7269C56.8606 14.7269 56.3343 14.8585 56.3343 16.1744C56.3343 17.556 56.7291 17.8192 58.1765 17.8192C58.8345 17.8192 59.5582 17.6876 60.1503 17.4903V14.9243Z" fill="#00B4F3"/>
<path d="M64.0332 10.4502H65.5465V11.0423C65.8754 10.6476 66.5992 10.187 67.7834 10.187C68.0466 10.187 68.3756 10.187 68.6388 10.2528V11.7661C68.3756 11.7003 67.9808 11.7003 67.6519 11.7003C66.5334 11.7003 65.5465 12.0292 65.5465 12.6872V18.806H64.0332V10.4502Z" fill="#00B4F3"/>
<path d="M71.9269 11.832V15.9113C71.9269 17.0955 72.2559 17.6219 73.3086 17.6219C73.8349 17.6219 74.3613 17.5561 74.8218 17.4245L75.085 18.6746C74.5587 18.872 73.7033 19.0036 73.0454 19.0036C71.2032 19.0036 70.3479 18.4772 70.3479 15.977V11.832H68.9004V10.4504H70.3479V8.87132L71.9269 8.21338V10.4504H74.8218V11.832H71.9269Z" fill="#00B4F3"/>
<path d="M76.5996 10.8456C77.5207 10.4508 78.9682 10.2534 80.0867 10.2534C82.7184 10.2534 83.9685 11.2403 83.9685 14.5958C83.9685 18.0171 82.7184 19.004 80.2841 19.004C79.2314 19.004 78.5734 18.7408 78.1787 18.4118V21.8989H76.6654V10.8456H76.5996ZM78.1129 16.7012C78.1129 17.3591 78.9682 17.6881 80.0867 17.6881C81.7973 17.6881 82.3237 17.0302 82.3237 14.6616C82.3237 12.0956 81.7973 11.6351 80.0867 11.6351C79.4287 11.6351 78.6392 11.7009 78.1129 11.8983V16.7012Z" fill="#00B4F3"/>
<path d="M92.8491 18.4111C91.8622 18.8059 90.4148 19.0691 89.2963 19.0691C86.7961 19.0691 85.875 18.4769 85.875 16.3057C85.875 13.9371 87.2567 13.5424 89.1647 13.5424C89.9542 13.5424 90.6121 13.6082 91.4017 13.8056C91.4017 12.0949 90.9411 11.7002 89.1647 11.7002C88.3094 11.7002 87.3883 11.8317 86.7303 12.0949L86.4014 10.779C87.1251 10.5817 88.2436 10.3843 89.4279 10.3843C91.8622 10.3843 92.9807 11.108 92.9807 13.6082V18.4111H92.8491ZM91.3359 14.924C90.8095 14.7925 90.0858 14.7267 89.4279 14.7267C88.0462 14.7267 87.5198 14.8583 87.5198 16.1741C87.5198 17.5558 87.9146 17.819 89.3621 17.819C90.02 17.819 90.7437 17.6874 91.3359 17.49V14.924Z" fill="#00B4F3"/>
<path d="M101.469 18.6089C100.811 18.872 99.758 19.0694 99.0343 19.0694C96.4683 19.0694 94.9551 18.0825 94.9551 14.6612C94.9551 11.24 96.4683 10.3188 99.0343 10.3188C99.758 10.3188 100.877 10.5162 101.469 10.7136L101.074 12.0953C100.548 11.8321 99.758 11.7005 99.1001 11.7005C97.3894 11.7005 96.5999 12.0953 96.5999 14.6612C96.5999 17.0956 97.3894 17.6878 99.1001 17.6878C99.8238 17.6878 100.548 17.4904 101.074 17.293L101.469 18.6089Z" fill="#00B4F3"/>
<path d="M108.312 18.8063C106.272 16.1087 104.956 14.5955 104.496 14.3981V18.8063H102.982V6.96338H104.496V14.3981C105.022 14.0033 106.272 12.6874 108.049 10.4504H109.957C108.18 12.6216 106.93 13.8717 106.469 14.2007C106.93 14.4639 108.246 15.9771 110.22 18.7405H108.312V18.8063Z" fill="#00B4F3"/>
</g>
<defs>
<linearGradient id="paint0_linear_6028_2542" x1="26.9123" y1="0.38623" x2="26.9123" y2="13.6864" gradientUnits="userSpaceOnUse">
<stop stop-color="#0280DD"/>
<stop offset="1" stop-color="#02B1F3"/>
</linearGradient>
<linearGradient id="paint1_linear_6028_2542" x1="32.5322" y1="20.3369" x2="20.8945" y2="20.3369" gradientUnits="userSpaceOnUse">
<stop stop-color="#0280DD"/>
<stop offset="1" stop-color="#02B1F3"/>
</linearGradient>
<linearGradient id="paint2_linear_6028_2542" x1="12.2494" y1="7.03657" x2="0.345703" y2="7.03657" gradientUnits="userSpaceOnUse">
<stop stop-color="#0280DD"/>
<stop offset="1" stop-color="#02B1F3"/>
</linearGradient>
<linearGradient id="paint3_linear_6028_2542" x1="11.9685" y1="7.00346" x2="0.197795" y2="7.00346" gradientUnits="userSpaceOnUse">
<stop stop-color="#0280DD"/>
<stop offset="1" stop-color="#02B1F3"/>
</linearGradient>
<clipPath id="clip0_6028_2542">
<rect width="109.876" height="26.3175" fill="white" transform="translate(0.34375 0.669434)"/>
</clipPath>
</defs>
</svg>
