<svg width="14" height="16" viewBox="0 0 14 16" fill="none" xmlns="http://www.w3.org/2000/svg">
<path d="M8.2236 0.92334H5.37212C4.98004 0.92334 4.65925 1.23826 4.65925 1.62317C4.65925 2.00808 4.98004 2.32301 5.37212 2.32301H8.2236C8.61567 2.32301 8.93646 2.00808 8.93646 1.62317C8.93646 1.23826 8.61567 0.92334 8.2236 0.92334ZM6.79786 10.0212C7.18994 10.0212 7.51073 9.70625 7.51073 9.32134V6.52201C7.51073 6.1371 7.18994 5.82218 6.79786 5.82218C6.40578 5.82218 6.08499 6.1371 6.08499 6.52201V9.32134C6.08499 9.70625 6.40578 10.0212 6.79786 10.0212ZM11.8093 5.39528L12.344 4.8704C12.6149 4.60446 12.622 4.16357 12.344 3.89063L12.3368 3.88364C12.0588 3.6107 11.6168 3.6177 11.3388 3.88364L10.8042 4.40851C9.69923 3.54072 8.30914 3.02284 6.79786 3.02284C3.37609 3.02284 0.467587 5.79418 0.382043 9.15338C0.28937 12.7085 3.19074 15.6198 6.79786 15.6198C10.3479 15.6198 13.2137 12.7995 13.2137 9.32134C13.2137 7.8377 12.6862 6.47302 11.8093 5.39528ZM6.79786 14.2202C4.03906 14.2202 1.80778 12.0297 1.80778 9.32134C1.80778 6.61299 4.03906 4.42251 6.79786 4.42251C9.55666 4.42251 11.7879 6.61299 11.7879 9.32134C11.7879 12.0297 9.55666 14.2202 6.79786 14.2202Z" fill="#3CAAE1"/>
</svg>
