<svg width="15" height="11" viewBox="0 0 15 11" fill="none" xmlns="http://www.w3.org/2000/svg">
<path fill-rule="evenodd" clip-rule="evenodd" d="M0.863281 6.19574C0.863322 6.82991 1.0799 7.44506 1.47718 7.93938C1.87445 8.43369 2.4286 8.77754 3.04791 8.91401C3.18204 9.33654 3.44717 9.7054 3.80491 9.96721C4.16265 10.229 4.59444 10.3702 5.03774 10.3702C5.40678 10.3702 5.76071 10.2236 6.02167 9.96264C6.28262 9.70169 6.42922 9.34776 6.42922 8.97871V6.89149H9.2122V8.97871C9.2122 9.34776 9.3588 9.70169 9.61975 9.96264C9.88071 10.2236 10.2346 10.3702 10.6037 10.3702C11.536 10.3702 12.3263 9.75795 12.5935 8.91401C13.2128 8.77754 13.767 8.43369 14.1642 7.93938C14.5615 7.44506 14.7781 6.82991 14.7781 6.19574V4.80426C14.7781 4.17008 14.5615 3.55494 14.1642 3.06062C13.767 2.56631 13.2128 2.22246 12.5935 2.08599C12.4594 1.66346 12.1942 1.29459 11.8365 1.03279C11.4788 0.770993 11.047 0.629849 10.6037 0.629799C10.2346 0.629799 9.88071 0.776401 9.61975 1.03736C9.3588 1.29831 9.2122 1.65224 9.2122 2.02128V4.10851H6.42922V2.02128C6.42922 1.65224 6.28262 1.29831 6.02167 1.03736C5.76071 0.776401 5.40678 0.629799 5.03774 0.629799C4.10544 0.629799 3.31508 1.24205 3.04791 2.08599C2.4286 2.22246 1.87445 2.56631 1.47718 3.06062C1.0799 3.55494 0.863322 4.17008 0.863281 4.80426V6.19574Z" fill="#3CAAE1"/>
</svg>
