<svg width="14" height="12" viewBox="0 0 14 12" fill="none" xmlns="http://www.w3.org/2000/svg">
<path d="M12.8331 5.49191L10.1868 7.64948L10.993 10.8761C11.0375 11.0513 11.0261 11.235 10.9601 11.404C10.8942 11.573 10.7767 11.7197 10.6225 11.8257C10.4684 11.9316 10.2844 11.992 10.0939 11.9993C9.90344 12.0065 9.71496 11.9602 9.5523 11.8663L6.58258 10.1393L3.61111 11.8663C3.44846 11.9597 3.26021 12.0055 3.07005 11.998C2.87989 11.9905 2.69633 11.93 2.54248 11.8242C2.38863 11.7183 2.27137 11.5718 2.20546 11.4031C2.13956 11.2344 2.12796 11.051 2.17212 10.8761L2.98129 7.64948L0.335012 5.49191C0.191112 5.3744 0.0870406 5.21944 0.0357954 5.04637C-0.0154497 4.8733 -0.0115978 4.68981 0.0468702 4.5188C0.105338 4.34779 0.215831 4.19684 0.364549 4.08481C0.513268 3.97278 0.693621 3.90464 0.883086 3.88888L4.35265 3.62439L5.69108 0.563902C5.76353 0.397107 5.88683 0.254435 6.04531 0.154024C6.20379 0.0536135 6.3903 0 6.58111 0C6.77193 0 6.95843 0.0536135 7.11691 0.154024C7.2754 0.254435 7.3987 0.397107 7.47114 0.563902L8.80899 3.62439L12.2786 3.88888C12.4684 3.90405 12.6493 3.97182 12.7985 4.08369C12.9478 4.19557 13.0588 4.34657 13.1176 4.51779C13.1765 4.68901 13.1805 4.87282 13.1293 5.0462C13.078 5.21959 12.9738 5.37483 12.8296 5.49247L12.8331 5.49191Z" fill="#3CAAE1"/>
</svg>
