<svg width="30" height="30" viewBox="0 0 30 30" fill="none" xmlns="http://www.w3.org/2000/svg">
<rect x="0.246094" y="0.967773" width="28.9565" height="28.9565" rx="14.4782" fill="#2AABEE"/>
<path d="M19.6343 14.6568L18.7968 19.961C18.7968 19.961 18.7038 20.7054 18.1454 20.8915C17.494 20.8915 16.9357 20.7054 16.4704 20.3332C16.3774 20.2401 13.9579 18.7513 13.1204 18.0068C12.8413 17.8207 12.7482 17.4485 12.9343 17.0763C13.0274 16.9832 13.0274 16.8901 13.1204 16.8901C14.3302 15.7735 15.726 14.3777 16.6565 13.5402C17.0288 13.1679 17.494 12.2374 15.8191 13.354L11.0732 16.5179C10.608 16.704 10.0496 16.704 9.49129 16.5179C8.37463 16.2388 7.25796 15.7735 7.25796 15.7735C7.25796 15.7735 6.42046 15.3082 7.81629 14.7499L15.6329 11.4929C16.3774 11.1207 19.076 10.0971 19.076 10.0971C19.076 10.0971 20.2857 9.63183 20.1927 10.7485C20.1927 11.2138 19.9135 12.8888 19.6343 14.6568Z" fill="white"/>
</svg>
