<svg width="8" height="12" viewBox="0 0 8 12" fill="none" xmlns="http://www.w3.org/2000/svg">
<path d="M6.46797 0H1.44984C1.11712 0 0.798027 0.126428 0.562756 0.351472C0.327486 0.576515 0.195313 0.88174 0.195312 1.2V10.8C0.195313 11.1183 0.327486 11.4235 0.562756 11.6485C0.798027 11.8736 1.11712 12 1.44984 12H6.46797C6.8007 12 7.11979 11.8736 7.35506 11.6485C7.59033 11.4235 7.72251 11.1183 7.72251 10.8V1.2C7.72251 0.88174 7.59033 0.576515 7.35506 0.351472C7.11979 0.126428 6.8007 0 6.46797 0ZM4.58618 11.4H3.33164V10.8H4.58618V11.4ZM6.46797 10.2H1.44984V1.8H6.46797V10.2Z" fill="#ffffff"/>
</svg>
