<svg width="14" height="14" viewBox="0 0 14 14" fill="none" xmlns="http://www.w3.org/2000/svg">
<rect x="1.81004" y="7.43797" width="10.2538" height="5.88506" rx="0.544416" stroke="#F17E00" stroke-width="1.08883" stroke-linejoin="round"/>
<rect x="0.88426" y="3.85399" width="12.1402" height="3.49411" rx="0.544416" stroke="#F17E00" stroke-width="1.08883" stroke-linejoin="round"/>
<path d="M7.12077 3.09674C7.7761 1.90923 8.65995 1.03903 9.82404 1.20381C10.5036 1.3 10.8675 1.88142 10.8464 2.55073C10.836 2.87906 10.7279 3.17613 10.5548 3.38098C10.3916 3.57411 10.1545 3.70731 9.81038 3.70731L7.56368 3.70731C7.37125 3.70731 7.21854 3.61223 7.1365 3.48909C7.05887 3.37256 7.04414 3.2356 7.12077 3.09674Z" stroke="#F17E00" stroke-width="1.08883"/>
<path d="M6.78548 3.09674C6.13015 1.90923 5.2463 1.03903 4.08221 1.20381C3.40266 1.3 3.0388 1.88142 3.05988 2.55073C3.07022 2.87906 3.17835 3.17613 3.35145 3.38098C3.51465 3.57411 3.75175 3.70731 4.09587 3.70731L6.34257 3.70731C6.535 3.70731 6.68771 3.61223 6.76975 3.48909C6.84738 3.37256 6.86211 3.2356 6.78548 3.09674Z" stroke="#F17E00" stroke-width="1.08883"/>
<path d="M6.96484 3.80176V13.8637" stroke="#F17E00" stroke-width="1.08883"/>
</svg>
