<svg width="15" height="14" viewBox="0 0 15 14" fill="none" xmlns="http://www.w3.org/2000/svg">
<path d="M13.7231 4.53294L13.6939 8.20794C13.6944 8.5703 13.623 8.92916 13.4839 9.26377C13.3461 9.59743 13.1438 9.9006 12.8885 10.1559C12.6332 10.4111 12.3301 10.6135 11.9964 10.7513C11.6618 10.8904 11.3029 10.9617 10.9406 10.9613H9.58142L8.41475 12.1279C8.34219 12.2034 8.2548 12.2629 8.15808 12.3029C8.05754 12.3494 7.94802 12.3733 7.83725 12.3729C7.72707 12.3734 7.61794 12.3516 7.51642 12.3088C7.4148 12.2635 7.32349 12.198 7.24808 12.1163L6.11058 10.9846H4.75142C4.39012 10.9846 4.03237 10.9133 3.69864 10.7749C3.36492 10.6365 3.06178 10.4336 2.80658 10.1778C2.55137 9.92207 2.34911 9.6185 2.21138 9.28448C2.07365 8.95047 2.00315 8.59257 2.00392 8.23127V4.38127C2.0029 4.01946 2.07351 3.66103 2.21167 3.32664C2.34983 2.99225 2.55282 2.68851 2.80892 2.43294C3.32655 1.92139 4.02368 1.63249 4.75142 1.62794H10.9698C11.3315 1.62717 11.6899 1.69786 12.0243 1.83595C12.3587 1.97405 12.6625 2.17683 12.9184 2.43265C13.1742 2.68848 13.377 2.99231 13.5151 3.3267C13.6532 3.6611 13.7239 4.01948 13.7231 4.38127V4.53294Z" fill="#3CAAE1"/>
</svg>
