<svg width="34" height="33" viewBox="0 0 34 33" fill="none" xmlns="http://www.w3.org/2000/svg">
<path d="M6.92196 14.3682C9.59639 19.4175 13.9052 23.539 19.1612 26.1261L23.2471 22.2009C23.7486 21.7191 24.4915 21.5585 25.1415 21.7726C27.2217 22.4328 29.4689 22.7896 31.7719 22.7896C32.7934 22.7896 33.6291 23.5925 33.6291 24.5738V30.8007C33.6291 31.782 32.7934 32.5849 31.7719 32.5849C14.3324 32.5849 0.19873 19.0071 0.19873 2.2535C0.19873 1.27219 1.03449 0.469299 2.05598 0.469299H8.55633C9.57782 0.469299 10.4136 1.27219 10.4136 2.2535C10.4136 4.48375 10.785 6.62479 11.4722 8.62309C11.6765 9.24756 11.5279 9.9434 11.0079 10.443L6.92196 14.3682Z" fill="#474766"/>
</svg>
