<svg width="15" height="14" viewBox="0 0 15 14" fill="none" xmlns="http://www.w3.org/2000/svg">
<path fill-rule="evenodd" clip-rule="evenodd" d="M3.05078 1.75C2.93475 1.75 2.82347 1.79609 2.74142 1.87814C2.65937 1.96019 2.61328 2.07147 2.61328 2.1875V3.9375C2.61328 4.05353 2.65937 4.16481 2.74142 4.24686C2.82347 4.32891 2.93475 4.375 3.05078 4.375H8.30078C8.41681 4.375 8.52809 4.32891 8.61014 4.24686C8.69219 4.16481 8.73828 4.05353 8.73828 3.9375V2.1875C8.73828 2.07147 8.69219 1.96019 8.61014 1.87814C8.52809 1.79609 8.41681 1.75 8.30078 1.75H3.05078ZM10.0508 1.75C9.93475 1.75 9.82347 1.79609 9.74142 1.87814C9.65937 1.96019 9.61328 2.07147 9.61328 2.1875V11.8125C9.61328 11.9285 9.65937 12.0398 9.74142 12.1219C9.82347 12.2039 9.93475 12.25 10.0508 12.25H12.6758C12.7918 12.25 12.9031 12.2039 12.9851 12.1219C13.0672 12.0398 13.1133 11.9285 13.1133 11.8125V2.1875C13.1133 2.07147 13.0672 1.96019 12.9851 1.87814C12.9031 1.79609 12.7918 1.75 12.6758 1.75H10.0508ZM2.61328 6.125C2.61328 6.00897 2.65937 5.89769 2.74142 5.81564C2.82347 5.73359 2.93475 5.6875 3.05078 5.6875H8.30078C8.41681 5.6875 8.52809 5.73359 8.61014 5.81564C8.69219 5.89769 8.73828 6.00897 8.73828 6.125V7.875C8.73828 7.99103 8.69219 8.10231 8.61014 8.18436C8.52809 8.26641 8.41681 8.3125 8.30078 8.3125H3.05078C2.93475 8.3125 2.82347 8.26641 2.74142 8.18436C2.65937 8.10231 2.61328 7.99103 2.61328 7.875V6.125ZM3.05078 9.625C2.93475 9.625 2.82347 9.67109 2.74142 9.75314C2.65937 9.83519 2.61328 9.94647 2.61328 10.0625V11.8125C2.61328 11.9285 2.65937 12.0398 2.74142 12.1219C2.82347 12.2039 2.93475 12.25 3.05078 12.25H8.30078C8.41681 12.25 8.52809 12.2039 8.61014 12.1219C8.69219 12.0398 8.73828 11.9285 8.73828 11.8125V10.0625C8.73828 9.94647 8.69219 9.83519 8.61014 9.75314C8.52809 9.67109 8.41681 9.625 8.30078 9.625H3.05078Z" fill="#3CAAE1"/>
</svg>
