<svg width="59" height="58" viewBox="0 0 59 58" fill="none" xmlns="http://www.w3.org/2000/svg">
<ellipse cx="29.3717" cy="28.9642" rx="28.748" ry="28.8568" fill="#FC9F30"/>
<path d="M42.933 24.7858L37.0672 29.8473L38.8543 37.4167C38.9529 37.8277 38.9275 38.2586 38.7814 38.6551C38.6352 39.0515 38.3748 39.3958 38.033 39.6444C37.6913 39.8929 37.2836 40.0346 36.8613 40.0516C36.4391 40.0685 36.0213 39.96 35.6607 39.7396L29.078 35.6883L22.4914 39.7396C22.1309 39.9587 21.7136 40.0662 21.2921 40.0487C20.8706 40.0311 20.4637 39.8892 20.1227 39.6409C19.7817 39.3925 19.5217 39.0488 19.3757 38.653C19.2296 38.2573 19.2039 37.8271 19.3017 37.4167L21.0954 29.8473L15.2296 24.7858C14.9106 24.5101 14.6799 24.1466 14.5663 23.7406C14.4528 23.3345 14.4613 22.9041 14.5909 22.5029C14.7205 22.1017 14.9654 21.7476 15.2951 21.4848C15.6247 21.222 16.0245 21.0621 16.4445 21.0252L24.1351 20.4047L27.1019 13.225C27.2625 12.8337 27.5358 12.499 27.8871 12.2634C28.2384 12.0279 28.6518 11.9021 29.0748 11.9021C29.4977 11.9021 29.9111 12.0279 30.2624 12.2634C30.6137 12.499 30.887 12.8337 31.0476 13.225L34.0131 20.4047L41.7038 21.0252C42.1246 21.0607 42.5255 21.2197 42.8564 21.4822C43.1872 21.7446 43.4333 22.0989 43.5637 22.5005C43.6941 22.9022 43.7031 23.3334 43.5895 23.7402C43.4759 24.1469 43.2448 24.5111 42.9252 24.7871L42.933 24.7858Z" fill="white"/>
</svg>
