<svg width="21" height="21" viewBox="0 0 21 21" fill="none" xmlns="http://www.w3.org/2000/svg">
<path d="M20.3275 9.6785L16.1579 13.2763L17.4282 18.6569C17.4983 18.949 17.4803 19.2553 17.3764 19.5371C17.2725 19.8189 17.0874 20.0636 16.8445 20.2403C16.6015 20.417 16.3117 20.5177 16.0116 20.5298C15.7114 20.5418 15.4145 20.4646 15.1582 20.308L10.479 17.4282L5.79714 20.308C5.54088 20.4637 5.24426 20.5402 4.94465 20.5277C4.64503 20.5152 4.35581 20.4143 4.1134 20.2378C3.87099 20.0613 3.68623 19.817 3.58239 19.5356C3.47855 19.2543 3.46026 18.9486 3.52985 18.6569L4.80479 13.2763L0.635272 9.6785C0.408541 9.48254 0.244564 9.22413 0.163822 8.93553C0.083079 8.64694 0.0891482 8.34095 0.181271 8.05579C0.273394 7.77062 0.447488 7.51891 0.681812 7.3321C0.916135 7.14529 1.2003 7.03165 1.49883 7.00537L6.96553 6.56433L9.07438 1.46084C9.18853 1.1827 9.38281 0.944789 9.63251 0.77735C9.88222 0.609911 10.1761 0.520508 10.4767 0.520508C10.7774 0.520508 11.0712 0.609911 11.3209 0.77735C11.5707 0.944789 11.7649 1.1827 11.8791 1.46084L13.987 6.56433L19.4537 7.00537C19.7528 7.03067 20.0378 7.14368 20.273 7.33023C20.5082 7.51679 20.6831 7.76859 20.7758 8.05411C20.8685 8.33962 20.8748 8.64614 20.7941 8.93526C20.7134 9.22438 20.5491 9.48325 20.3219 9.67943L20.3275 9.6785Z" fill="#474766"/>
</svg>
