<svg width="14" height="12" viewBox="0 0 14 12" fill="none" xmlns="http://www.w3.org/2000/svg">
<path d="M1.4518 6C0.761805 6 0.197266 5.4 0.197266 4.66667V1.33333C0.197266 0.6 0.761805 0 1.4518 0H6.46993C7.15992 0 7.72446 0.6 7.72446 1.33333V4.66667C7.72446 5.4 7.15992 6 6.46993 6H5.2154V8L3.3336 6H1.4518ZM12.7426 10C13.4326 10 13.9971 9.4 13.9971 8.66667V5.33333C13.9971 4.6 13.4326 4 12.7426 4H8.97899V4.66667C8.97899 6.13333 7.84991 7.33333 6.46993 7.33333V8.66667C6.46993 9.4 7.03447 10 7.72446 10H8.97899V12L10.8608 10H12.7426Z" fill="#3CAAE1"/>
</svg>
