<svg width="20" height="12" viewBox="0 0 20 12" fill="none" xmlns="http://www.w3.org/2000/svg">
<path d="M18.2093 4.9698C18.6556 5.42858 18.6556 6.11928 18.2093 6.57805C17.4425 7.36628 16.282 8.4217 14.8705 9.27754C13.4572 10.1345 11.8212 10.7739 10.0938 10.7739C8.36634 10.7739 6.73033 10.1345 5.31701 9.27754C3.90551 8.4217 2.74495 7.36628 1.97816 6.57805C1.53186 6.11928 1.53186 5.42857 1.97816 4.9698C2.74495 4.18157 3.90551 3.12615 5.31701 2.27031C6.73033 1.41337 8.36634 0.773926 10.0938 0.773926C11.8212 0.773926 13.4572 1.41337 14.8705 2.27031C16.282 3.12615 17.4425 4.18157 18.2093 4.9698Z" stroke="#9B9BA4"/>
<circle cx="10.0938" cy="5.77393" r="2.5" stroke="#9B9BA4"/>
</svg>
