<svg width="13" height="12" viewBox="0 0 13 12" fill="none" xmlns="http://www.w3.org/2000/svg">
<path d="M10.3901 1.27651C10.3901 0.937955 10.5116 0.613271 10.728 0.37388C10.9444 0.134489 11.2378 0 11.5438 0C11.8498 0 12.1433 0.134489 12.3597 0.37388C12.5761 0.613271 12.6976 0.937955 12.6976 1.27651V10.6375C12.6976 10.9761 12.5761 11.3008 12.3597 11.5402C12.1433 11.7796 11.8498 11.914 11.5438 11.914C11.2378 11.914 10.9444 11.7796 10.728 11.5402C10.5116 11.3008 10.3901 10.9761 10.3901 10.6375V1.27651ZM9.62088 1.89263C8.03097 2.70109 6.12953 3.15297 4.23656 3.30189V8.6096C4.51596 8.62697 4.79499 8.65109 5.07344 8.68194C6.65258 8.85554 8.17942 9.25041 9.62088 10.0095V1.89263ZM3.46738 8.56535V3.34785C2.94433 3.37082 2.39128 3.38444 1.92285 3.39295C1.51544 3.3992 1.12655 3.58225 0.839956 3.90267C0.553362 4.22309 0.391998 4.65524 0.390625 5.10602L0.390625 6.80803C0.390625 7.74924 1.07982 8.50663 1.92439 8.51769L2.3059 8.5245C2.69319 8.53306 3.08038 8.54668 3.46738 8.56535ZM4.53655 9.48528C4.75602 9.50344 4.97396 9.52557 5.19036 9.55166L5.38496 10.9899C5.40614 11.1129 5.40249 11.2397 5.37428 11.361C5.34607 11.4823 5.29399 11.5953 5.22176 11.6918C5.14953 11.7883 5.05894 11.8659 4.95644 11.9192C4.85395 11.9725 4.74209 12.0001 4.62885 12H4.20733C4.05782 12 3.91155 11.9518 3.78642 11.8612C3.66129 11.7707 3.56271 11.6418 3.50276 11.4902L2.49205 9.37976C2.92606 9.39176 3.35992 9.40991 3.79351 9.43423C4.04529 9.44898 4.29297 9.46599 4.53655 9.48528Z" fill="#ffffff"/>
</svg>
