<svg width="60" height="60" viewBox="0 0 60 60" fill="none" xmlns="http://www.w3.org/2000/svg">
<rect width="60" height="60" rx="22" fill="white"/>
<path fill-rule="evenodd" clip-rule="evenodd" d="M20.5124 28.7489C26.418 26.2087 30.3559 24.534 32.3263 23.7249C37.9521 21.4147 39.1211 21.0134 39.883 21.0001C40.0506 20.9972 40.4253 21.0382 40.668 21.2327C40.873 21.3968 40.9294 21.6186 40.9563 21.7743C40.9833 21.93 41.0169 22.2846 40.9902 22.5616C40.6854 25.7241 39.3662 33.3986 38.6951 36.9406C38.4111 38.4394 37.852 38.9419 37.3107 38.9911C36.1343 39.098 35.2409 38.2235 34.1015 37.4861C32.3186 36.3323 31.3113 35.614 29.5807 34.488C27.5806 33.1868 28.8772 32.4716 30.017 31.3027C30.3153 30.9969 35.4986 26.3423 35.5989 25.92C35.6115 25.8672 35.6231 25.6704 35.5046 25.5664C35.3862 25.4625 35.2114 25.498 35.0852 25.5263C34.9064 25.5664 32.0581 27.425 26.5404 31.1022C25.7319 31.6503 24.9996 31.9174 24.3435 31.9034C23.6202 31.888 22.2288 31.4996 21.1945 31.1677C19.9258 30.7606 18.9175 30.5453 19.0053 29.8539C19.0511 29.4937 19.5534 29.1254 20.5124 28.7489Z" fill="#66BAF7"/>
</svg>
