<svg width="17" height="16" viewBox="0 0 17 16" fill="none" xmlns="http://www.w3.org/2000/svg">
<g clip-path="url(#clip0_3564_12281)">
<path d="M11.3125 7.06836C11.3125 8.62461 10.0563 9.88086 8.5 9.88086C6.94375 9.88086 5.6875 8.62461 5.6875 7.06836C5.6875 5.51211 6.94375 4.25586 8.5 4.25586C10.0563 4.25586 11.3125 5.51211 11.3125 7.06836Z" fill="#1EA0DE"/>
<path fill-rule="evenodd" clip-rule="evenodd" d="M16 8.00586C16 12.1496 12.6438 15.5059 8.5 15.5059C4.35625 15.5059 1 12.1496 1 8.00586C1 3.86211 4.35625 0.505859 8.5 0.505859C12.6438 0.505859 16 3.86211 16 8.00586ZM4.75 13.3965C4.9 13.1471 6.35312 10.8184 8.49062 10.8184C10.6187 10.8184 12.0812 13.1527 12.2312 13.3965C13.103 12.7937 13.8153 11.9881 14.3068 11.0491C14.7984 10.1101 15.0545 9.06574 15.0531 8.00586C15.0531 4.37773 12.1187 1.44336 8.49062 1.44336C4.8625 1.44336 1.92813 4.37773 1.92813 8.00586C1.92813 10.2371 3.04375 12.2152 4.75 13.3965Z" fill="#1EA0DE"/>
</g>
<defs>
<clipPath id="clip0_3564_12281">
<rect width="15" height="15" fill="white" transform="translate(1 0.505859)"/>
</clipPath>
</defs>
</svg>
