<svg width="71" height="70" viewBox="0 0 71 70" fill="none" xmlns="http://www.w3.org/2000/svg">
<path d="M66.5365 54.7569V51.5069L70.0657 48.9069C70.3865 48.5819 70.7074 48.2569 70.3865 47.9319L67.1782 42.4069C67.1782 42.0819 66.5365 42.0819 66.2157 42.0819L62.3657 43.7069C61.4032 43.0569 60.4407 42.4069 59.4782 42.0819L58.8365 37.8569C58.8365 37.5319 58.5157 37.2069 58.1949 37.2069H51.7782C51.1365 37.2069 50.8157 37.5319 50.8157 37.8569L50.174 42.0819C49.2115 42.7319 48.5699 43.0569 47.6074 43.7069L43.7574 42.0819C43.4365 42.0819 43.1157 42.0819 42.7949 42.4069L39.5865 47.9319C39.5865 48.2569 39.5865 48.5819 39.9074 48.9069L43.4365 51.5069V54.7569L39.9074 57.3569C39.5865 57.6819 39.2657 58.0069 39.5865 58.3319L42.7949 63.8569C43.1157 64.1819 43.4365 64.1819 43.7574 64.1819L47.6074 62.5569C48.249 63.2069 49.2115 63.8569 50.174 64.1819L50.8157 68.4069C51.1365 68.7319 51.4574 69.0569 51.7782 69.0569H58.1949C58.5157 69.0569 58.8365 68.7319 58.8365 68.4069L59.4782 64.1819C60.4407 63.5319 61.0824 63.2069 62.0449 62.5569L65.8949 63.8569C66.2157 63.8569 66.5365 63.8569 66.8574 63.5319L70.0657 58.0069C70.3865 57.6819 70.3865 57.3569 70.0657 57.3569L66.5365 54.7569ZM54.6657 57.6819C52.099 57.6819 49.8532 55.4069 49.8532 52.8069C49.8532 50.2069 52.099 47.9319 54.6657 47.9319C57.2324 47.9319 59.4782 50.2069 59.4782 52.8069C59.4782 55.4069 57.2324 57.6819 54.6657 57.6819ZM36.3782 65.8069H6.54069C3.01152 65.8069 0.124023 62.8819 0.124023 59.3069V7.30688C0.124023 3.73188 3.01152 0.806885 6.54069 0.806885H64.2907C67.8199 0.806885 70.7074 3.73188 70.7074 7.30688V36.8819C68.7824 34.9319 66.5365 33.3069 64.2907 32.3319V13.8069H6.54069V59.3069H33.1699C33.8115 61.5819 34.774 63.8569 36.3782 65.8069Z" fill="#3CAAE1"/>
</svg>
