<svg width="72" height="72" viewBox="0 0 72 72" fill="none" xmlns="http://www.w3.org/2000/svg">
<path d="M71.3314 12.8214C71.3314 19.6568 65.771 25.2172 58.9355 25.2172C52.1001 25.2172 46.5397 19.6568 46.5397 12.8214C46.5397 5.98595 52.1001 0.425537 58.9355 0.425537C65.771 0.425537 71.3314 5.98595 71.3314 12.8214ZM58.9355 32.3005C53.7722 32.2912 48.8231 30.2359 45.172 26.5849C41.521 22.9339 39.4657 17.9847 39.4564 12.8214C39.4564 11.0505 39.7397 9.2797 40.2001 7.50887H7.58138C3.65013 7.50887 0.498047 10.661 0.498047 14.5922V64.1755C0.498047 66.0542 1.24432 67.8558 2.57271 69.1842C3.90109 70.5126 5.70276 71.2589 7.58138 71.2589H57.1647C61.096 71.2589 64.248 68.1068 64.248 64.1755V31.5568C62.4772 32.0172 60.7064 32.3005 58.9355 32.3005Z" fill="#3CAAE1"/>
</svg>
