<svg width="22" height="21" viewBox="0 0 22 21" fill="none" xmlns="http://www.w3.org/2000/svg">
<path d="M20.6185 10.1346L16.4489 13.7324L17.7193 19.1129C17.7894 19.405 17.7713 19.7113 17.6674 19.9931C17.5635 20.275 17.3784 20.5197 17.1355 20.6964C16.8926 20.8731 16.6027 20.9738 16.3026 20.9858C16.0025 20.9979 15.7055 20.9207 15.4492 20.7641L10.7701 17.8843L6.08815 20.7641C5.83189 20.9198 5.53528 20.9962 5.23566 20.9838C4.93604 20.9713 4.64682 20.8704 4.40441 20.6939C4.162 20.5173 3.97724 20.273 3.8734 19.9917C3.76956 19.7104 3.75128 19.4046 3.82086 19.1129L5.09581 13.7324L0.926288 10.1346C0.699556 9.9386 0.53558 9.68018 0.454837 9.39159C0.374095 9.10299 0.380164 8.79701 0.472287 8.51184C0.56441 8.22667 0.738504 7.97497 0.972827 7.78816C1.20715 7.60134 1.49132 7.4877 1.78984 7.46143L7.25655 7.02039L9.3654 1.91689C9.47954 1.63876 9.67382 1.40084 9.92353 1.2334C10.1732 1.06597 10.4671 0.976562 10.7677 0.976562C11.0684 0.976562 11.3623 1.06597 11.612 1.2334C11.8617 1.40084 12.0559 1.63876 12.1701 1.91689L14.278 7.02039L19.7447 7.46143C20.0438 7.48673 20.3288 7.59973 20.564 7.78629C20.7992 7.97284 20.9741 8.22465 21.0668 8.51016C21.1595 8.79567 21.1659 9.10219 21.0851 9.39131C21.0044 9.68044 20.8401 9.9393 20.6129 10.1355L20.6185 10.1346Z" fill="white"/>
</svg>
