<svg width="15" height="15" viewBox="0 0 15 15" fill="none" xmlns="http://www.w3.org/2000/svg">
<path d="M10.2519 6.06879L12.108 7.92496C12.4092 8.22214 12.6487 8.57598 12.8125 8.96608C12.9764 9.35619 13.0615 9.77486 13.063 10.198C13.0644 10.6211 12.9821 11.0404 12.8208 11.4315C12.6595 11.8227 12.4225 12.1782 12.1233 12.4774C11.8241 12.7766 11.4686 13.0136 11.0774 13.1749C10.6863 13.3362 10.267 13.4185 9.84389 13.4171C9.42076 13.4156 9.00209 13.3305 8.61198 13.1666C8.22188 13.0028 7.86805 12.7633 7.57086 12.4621L6.95252 11.8438C6.86891 11.7631 6.80221 11.6666 6.7563 11.5599C6.7104 11.4531 6.6862 11.3383 6.68514 11.2221C6.68408 11.106 6.70616 10.9907 6.75011 10.8832C6.79405 10.7756 6.85898 10.6779 6.94109 10.5957C7.02321 10.5135 7.12087 10.4485 7.22839 10.4044C7.3359 10.3604 7.45111 10.3382 7.56729 10.3392C7.68347 10.3401 7.7983 10.3642 7.90508 10.41C8.01185 10.4558 8.10843 10.5224 8.18919 10.606L8.80869 11.2249C9.08263 11.4963 9.45295 11.6483 9.83861 11.6474C10.2243 11.6465 10.5939 11.4928 10.8666 11.2201C11.1392 10.9473 11.2928 10.5777 11.2935 10.192C11.2943 9.80634 11.1423 9.43607 10.8708 9.16221L9.01461 7.30604C8.81398 7.10533 8.55915 6.96751 8.28136 6.90949C8.00357 6.85146 7.71488 6.87575 7.45069 6.97937C7.35658 7.01671 7.2683 7.05482 7.18586 7.09371L6.91519 7.22029C6.55352 7.38362 6.27527 7.45362 5.92119 7.10012C5.41252 6.59146 5.54436 6.12187 6.16444 5.69429C6.78214 5.26925 7.52919 5.07398 8.27587 5.14239C9.02255 5.2108 9.72168 5.53858 10.2519 6.06879ZM6.74602 2.56296L7.36436 3.18129C7.52382 3.34624 7.61212 3.56723 7.61024 3.79665C7.60836 4.02607 7.51644 4.24558 7.35428 4.40789C7.19212 4.5702 6.9727 4.66232 6.74328 4.66443C6.51386 4.66653 6.29279 4.57843 6.12769 4.41912L5.50877 3.80079C5.37429 3.66147 5.2134 3.55032 5.0355 3.47384C4.8576 3.39736 4.66625 3.35708 4.47261 3.35534C4.27897 3.3536 4.08693 3.39045 3.90769 3.46372C3.72844 3.537 3.56559 3.64524 3.42862 3.78213C3.29166 3.91901 3.18332 4.08181 3.10995 4.26101C3.03657 4.44022 2.99962 4.63224 3.00125 4.82587C3.00287 5.01951 3.04305 5.21088 3.11943 5.38883C3.19581 5.56677 3.30686 5.72772 3.44611 5.86229L5.30227 7.71846C5.5029 7.91917 5.75773 8.05698 6.03552 8.11501C6.31331 8.17303 6.602 8.14874 6.86619 8.04512C6.9603 8.00779 7.04858 7.96968 7.13102 7.93079L7.40169 7.8042C7.76336 7.64087 8.04219 7.57087 8.39569 7.92437C8.90436 8.43304 8.77252 8.90262 8.15244 9.3302C7.53474 9.75525 6.78769 9.95052 6.04101 9.8821C5.29433 9.81369 4.5952 9.48592 4.06502 8.95571L2.20886 7.09954C1.90766 6.80235 1.66822 6.44852 1.50433 6.05841C1.34044 5.66831 1.25534 5.24963 1.25392 4.8265C1.25251 4.40337 1.3348 3.98414 1.49607 3.59295C1.65734 3.20175 1.89441 2.84632 2.19361 2.54712C2.49281 2.24792 2.84824 2.01086 3.23943 1.84959C3.63063 1.68832 4.04986 1.60602 4.47299 1.60744C4.89612 1.60886 5.31479 1.69396 5.7049 1.85785C6.095 2.02174 6.44883 2.26176 6.74602 2.56296Z" fill="#3CAAE1"/>
</svg>
