<svg width="24" height="20" viewBox="0 0 24 20" fill="none" xmlns="http://www.w3.org/2000/svg">
<path d="M22.8846 9.085L21.4184 18.3709C21.4184 18.3709 21.2555 19.6742 20.278 20C19.1376 20 18.1602 19.6742 17.3456 19.0225C17.1827 18.8596 12.947 16.2531 11.4808 14.9498C10.9921 14.624 10.8292 13.9723 11.155 13.3207C11.3179 13.1578 11.3179 12.9948 11.4808 12.9948C13.5987 11.0399 16.0423 8.59626 17.6714 7.13007C18.3231 6.47843 19.1376 4.84932 16.2052 6.80425L7.89681 12.3432C7.08225 12.669 6.10479 12.669 5.12733 12.3432C3.1724 11.8545 1.21747 11.0399 1.21747 11.0399C1.21747 11.0399 -0.248722 10.2254 2.19494 9.2479L15.8794 3.54604C17.1827 2.89439 21.9071 1.10238 21.9071 1.10238C21.9071 1.10238 24.025 0.287826 23.862 2.24275C23.862 3.05731 23.3733 5.9897 22.8846 9.085Z" fill="white"/>
</svg>
