<svg width="30" height="30" viewBox="0 0 30 30" fill="none" xmlns="http://www.w3.org/2000/svg">
<g clip-path="url(#clip0_4301_446)">
<path d="M0.251953 15.446C0.251953 7.44989 6.73407 0.967773 14.7302 0.967773C22.7263 0.967773 29.2084 7.44989 29.2084 15.446C29.2084 23.4421 22.7263 29.9243 14.7302 29.9243C6.73407 29.9243 0.251953 23.4421 0.251953 15.446Z" fill="black"/>
<path fill-rule="evenodd" clip-rule="evenodd" d="M14.4372 0.967773C14.3688 6.92423 13.9793 10.2577 11.7606 12.4764C9.54192 14.6951 6.20841 15.0846 0.251953 15.153V16.0174C6.20841 16.0858 9.54192 16.4753 11.7606 18.694C13.9445 20.8779 14.3561 24.1419 14.4338 29.9243H15.3051C15.3826 24.1419 15.7943 20.8779 17.9782 18.694C20.1621 16.5101 23.4261 16.0985 29.2084 16.0209V15.1495C23.4261 15.072 20.1621 14.6603 17.9782 12.4764C15.7595 10.2577 15.37 6.92423 15.3016 0.967773H14.4372Z" fill="white"/>
</g>
<defs>
<clipPath id="clip0_4301_446">
<rect width="28.9565" height="28.9565" fill="white" transform="translate(0.251953 0.967773)"/>
</clipPath>
</defs>
</svg>
