<svg width="68" height="68" viewBox="0 0 68 68" fill="none" xmlns="http://www.w3.org/2000/svg">
<circle cx="33.6658" cy="33.9202" r="33.6287" fill="#F17E00"/>
<path d="M38.6 35.5H41.3V40.576L45.692 43.114L44.342 45.454L38.6 42.142V35.5ZM20.6 17.5H45.8C46.7548 17.5 47.6705 17.8793 48.3456 18.5544C49.0207 19.2295 49.4 20.1452 49.4 21.1V32.08C51.632 34.348 53 37.462 53 40.9C53 44.2417 51.6725 47.4466 49.3095 49.8095C46.9466 52.1725 43.7417 53.5 40.4 53.5C36.962 53.5 33.848 52.132 31.58 49.9H20.6C19.6452 49.9 18.7295 49.5207 18.0544 48.8456C17.3793 48.1705 17 47.2548 17 46.3V21.1C17 20.1452 17.3793 19.2295 18.0544 18.5544C18.7295 17.8793 19.6452 17.5 20.6 17.5ZM20.6 40.9V46.3H29.006C28.232 44.662 27.8 42.826 27.8 40.9H20.6ZM20.6 28.3H31.4V22.9H20.6V28.3ZM45.8 28.3V22.9H35V28.3H45.8ZM20.6 37.3H28.322C28.934 35.23 30.068 33.376 31.58 31.9H20.6V37.3ZM40.4 32.17C38.0847 32.17 35.8641 33.0898 34.227 34.727C32.5898 36.3641 31.67 38.5847 31.67 40.9C31.67 45.724 35.576 49.63 40.4 49.63C41.5464 49.63 42.6817 49.4042 43.7408 48.9655C44.8 48.5267 45.7624 47.8837 46.573 47.073C47.3837 46.2624 48.0267 45.3 48.4655 44.2408C48.9042 43.1817 49.13 42.0464 49.13 40.9C49.13 36.076 45.224 32.17 40.4 32.17Z" fill="white"/>
</svg>
