<svg width="31" height="31" viewBox="0 0 31 31" fill="none" xmlns="http://www.w3.org/2000/svg">
<path d="M15.6836 3.29956C22.5873 3.29956 28.1836 8.89581 28.1836 15.7996C28.1836 22.7033 22.5873 28.2996 15.6836 28.2996C8.77984 28.2996 3.18359 22.7033 3.18359 15.7996C3.18359 8.89581 8.77984 3.29956 15.6836 3.29956ZM18.1836 17.5496L16.2286 19.1133C16.16 19.1682 16.1037 19.237 16.0635 19.3152C16.0232 19.3933 15.9999 19.4791 15.9951 19.5669C15.9903 19.6546 16.004 19.7424 16.0354 19.8245C16.0668 19.9066 16.1152 19.9812 16.1773 20.0433L17.7261 21.5921C18.026 21.8923 18.2445 22.264 18.3611 22.6721L18.5798 23.4383C18.6705 23.7598 18.8317 24.0571 19.0516 24.3085C19.2715 24.56 19.5446 24.7593 19.8511 24.8921C21.0468 24.3427 22.1227 23.5633 23.0173 22.5983L22.7248 20.2521C22.6737 19.8439 22.5225 19.4546 22.2849 19.1188C22.0472 18.783 21.7303 18.5111 21.3623 18.3271L19.5248 17.4071C19.3111 17.3001 19.0711 17.2566 18.8334 17.2819C18.5956 17.3071 18.3701 17.4 18.1836 17.5496ZM15.6836 5.79956C14.1537 5.79826 12.6439 6.14859 11.2709 6.82351C9.89783 7.49843 8.69828 8.47987 7.76484 9.69206L7.55859 9.96831V12.0746C7.55843 12.8377 7.7911 13.5827 8.22553 14.2101C8.65996 14.8375 9.27546 15.3174 9.98984 15.5858L10.2123 15.6608L11.8248 16.1546C13.5411 16.6796 15.2123 15.2833 15.0461 13.5346L15.0223 13.3533L14.8036 12.0421C14.7553 11.7516 14.811 11.4534 14.961 11.2C15.111 10.9466 15.3457 10.7544 15.6236 10.6571L15.7586 10.6196L16.5236 10.4446C16.9576 10.3454 17.3674 10.1602 17.7287 9.90004C18.0901 9.63988 18.3956 9.30997 18.6274 8.9298C18.8591 8.54962 19.0123 8.12687 19.078 7.6865C19.1437 7.24614 19.1205 6.79707 19.0098 6.36581C17.9412 5.98971 16.8164 5.79823 15.6836 5.79956Z" fill="white"/>
</svg>
