<svg width="68" height="68" viewBox="0 0 68 68" fill="none" xmlns="http://www.w3.org/2000/svg">
<circle cx="34.1853" cy="33.9202" r="33.6287" fill="#3CAAE1"/>
<path d="M15 25.3333C15 23.7862 15.6256 22.3025 16.7391 21.2085C17.8526 20.1146 19.3628 19.5 20.9375 19.5H47.0625C48.6372 19.5 50.1475 20.1146 51.2609 21.2085C52.3744 22.3025 53 23.7862 53 25.3333V41.6667C53 43.2138 52.3744 44.6975 51.2609 45.7915C50.1475 46.8854 48.6372 47.5 47.0625 47.5H20.9375C19.3628 47.5 17.8526 46.8854 16.7391 45.7915C15.6256 44.6975 15 43.2138 15 41.6667V25.3333ZM32.8125 24.1667H20.9375C20.6226 24.1667 20.3205 24.2896 20.0978 24.5084C19.8751 24.7272 19.75 25.0239 19.75 25.3333C19.75 25.6428 19.8751 25.9395 20.0978 26.1583C20.3205 26.3771 20.6226 26.5 20.9375 26.5H32.8125C33.1274 26.5 33.4295 26.3771 33.6522 26.1583C33.8749 25.9395 34 25.6428 34 25.3333C34 25.0239 33.8749 24.7272 33.6522 24.5084C33.4295 24.2896 33.1274 24.1667 32.8125 24.1667ZM39.9375 28.8333H20.9375C20.6226 28.8333 20.3205 28.9562 20.0978 29.175C19.8751 29.3938 19.75 29.6906 19.75 30C19.75 30.3094 19.8751 30.6062 20.0978 30.825C20.3205 31.0438 20.6226 31.1667 20.9375 31.1667H39.9375C40.2524 31.1667 40.5545 31.0438 40.7772 30.825C40.9999 30.6062 41.125 30.3094 41.125 30C41.125 29.6906 40.9999 29.3938 40.7772 29.175C40.5545 28.9562 40.2524 28.8333 39.9375 28.8333ZM22.125 35.8333C21.4951 35.8333 20.891 36.0792 20.4456 36.5168C20.0002 36.9543 19.75 37.5478 19.75 38.1667V40.5C19.75 41.1188 20.0002 41.7123 20.4456 42.1499C20.891 42.5875 21.4951 42.8333 22.125 42.8333H31.625C32.2549 42.8333 32.859 42.5875 33.3044 42.1499C33.7498 41.7123 34 41.1188 34 40.5V38.1667C34 37.5478 33.7498 36.9543 33.3044 36.5168C32.859 36.0792 32.2549 35.8333 31.625 35.8333H22.125Z" fill="white"/>
</svg>
