<svg width="18" height="15" viewBox="0 0 18 15" fill="none" xmlns="http://www.w3.org/2000/svg">
<path d="M16.8754 6.46926L15.7819 13.3952C15.7819 13.3952 15.6604 14.3672 14.9313 14.6102C14.0808 14.6102 13.3517 14.3672 12.7442 13.8812C12.6227 13.7597 9.46351 11.8156 8.36995 10.8435C8.00543 10.6005 7.88392 10.1145 8.12693 9.62844C8.24844 9.50693 8.24844 9.38543 8.36995 9.38543C9.94954 7.92734 11.7721 6.10474 12.9872 5.01118C13.4732 4.52515 14.0808 3.31008 11.8937 4.76816L5.69679 8.8994C5.08926 9.14241 4.36022 9.14241 3.63117 8.8994C2.17309 8.53488 0.715006 7.92734 0.715006 7.92734C0.715006 7.92734 -0.378557 7.31981 1.44405 6.59077L11.6506 2.33802C12.6227 1.85199 16.1464 0.515416 16.1464 0.515416C16.1464 0.515416 17.726 -0.0921182 17.6045 1.36597C17.6045 1.9735 17.24 4.16063 16.8754 6.46926Z" fill="white"/>
</svg>
