<svg width="14" height="14" viewBox="0 0 14 14" fill="none" xmlns="http://www.w3.org/2000/svg">
<path d="M12.4909 0.173828H1.8724C1.0305 0.173828 0.355469 0.848861 0.355469 1.69076V12.3092C0.355469 12.7116 0.515287 13.0974 0.799766 13.3819C1.08425 13.6664 1.47008 13.8262 1.8724 13.8262H12.4909C13.3328 13.8262 14.0078 13.1511 14.0078 12.3092V1.69076C14.0078 1.28844 13.848 0.902605 13.5635 0.618126C13.279 0.333647 12.8932 0.173828 12.4909 0.173828ZM4.77731 3.24561C5.52061 3.24561 6.11979 3.84479 6.11979 4.59567C6.11979 5.33896 5.52061 5.93815 4.77731 5.93815C4.02643 5.93815 3.42725 5.33896 3.42725 4.59567C3.42725 3.84479 4.02643 3.24561 4.77731 3.24561ZM9.62389 10.7923C8.8806 10.7923 8.28141 10.1855 8.28141 9.44225C8.28141 8.69896 8.8806 8.09977 9.62389 8.09977C10.3672 8.09977 10.974 8.69896 10.974 9.44225C10.974 10.1855 10.3672 10.7923 9.62389 10.7923ZM4.52702 10.8151L3.38932 9.67738L9.85902 3.20768L10.9967 4.34538L4.52702 10.8151Z" fill="#3CAAE1"/>
</svg>
