<svg width="27" height="36" viewBox="0 0 27 36" fill="none" xmlns="http://www.w3.org/2000/svg">
<path d="M12.1701 0.935278C12.922 0.436288 13.9063 0.436288 14.6582 0.935278L15.8749 1.73503C16.2851 2.00161 16.7635 2.13149 17.2489 2.10415L18.7048 2.01528C19.6071 1.9606 20.4547 2.45275 20.858 3.25934L21.5142 4.56492C21.7329 5.00239 22.0884 5.351 22.519 5.56974L23.8383 6.23278C24.6449 6.63607 25.137 7.48367 25.0823 8.38595L24.9935 9.84191C24.9661 10.3272 25.096 10.8126 25.3626 11.2158L26.1692 12.4326C26.6682 13.1845 26.6682 14.1688 26.1692 14.9207L25.3626 16.1442C25.096 16.5544 24.9661 17.0328 24.9935 17.5182L25.0823 18.9741C25.137 19.8764 24.6449 20.724 23.8383 21.1273L22.5327 21.7835C22.0952 22.0022 21.7466 22.3577 21.5279 22.7883L20.8648 24.1076C20.4615 24.9142 19.6139 25.4063 18.7117 25.3516L17.2557 25.2628C16.7704 25.2354 16.2851 25.3653 15.8818 25.6319L14.6651 26.4385C13.9132 26.9375 12.9288 26.9375 12.1769 26.4385L10.9534 25.6319C10.5433 25.3653 10.0648 25.2354 9.57946 25.2628L8.1235 25.3516C7.22121 25.4063 6.37361 24.9142 5.97032 24.1076L5.31412 22.802C5.09538 22.3645 4.73993 22.0159 4.3093 21.7972L2.99005 21.1341C2.18346 20.7308 1.69131 19.8832 1.74599 18.981L1.83485 17.525C1.8622 17.0397 1.73232 16.5544 1.46574 16.1511L0.665986 14.9275C0.166996 14.1756 0.166996 13.1913 0.665986 12.4394L1.46574 11.2227C1.73232 10.8126 1.8622 10.3341 1.83485 9.84875L1.74599 8.39279C1.69131 7.49051 2.18346 6.64291 2.99005 6.23961L4.29563 5.58341C4.7331 5.35784 5.08854 5.00239 5.30728 4.56492L5.96349 3.25934C6.36678 2.45275 7.21438 1.9606 8.11666 2.01528L9.57262 2.10415C10.0579 2.13149 10.5433 2.00161 10.9466 1.73503L12.1701 0.935278ZM18.8825 13.6835C18.8825 12.2331 18.3064 10.8422 17.2809 9.81672C16.2554 8.7912 14.8645 8.21507 13.4142 8.21507C11.9639 8.21507 10.573 8.7912 9.54743 9.81672C8.52191 10.8422 7.94578 12.2331 7.94578 13.6835C7.94578 15.1338 8.52191 16.5247 9.54743 17.5502C10.573 18.5757 11.9639 19.1518 13.4142 19.1518C14.8645 19.1518 16.2554 18.5757 17.2809 17.5502C18.3064 16.5247 18.8825 15.1338 18.8825 13.6835ZM0.378896 30.7585L3.32499 23.7521C3.33866 23.759 3.3455 23.7658 3.35233 23.7795L4.00854 25.085C4.80829 26.6709 6.46931 27.6347 8.24654 27.5321L9.70249 27.4433C9.71617 27.4433 9.73667 27.4433 9.75034 27.457L10.9671 28.2635C11.3157 28.4891 11.6848 28.6668 12.0676 28.7899L9.49743 34.894C9.34021 35.2699 8.9916 35.5228 8.58831 35.557C8.18502 35.5912 7.79539 35.4066 7.57666 35.0648L5.37563 31.695L1.54093 32.2623C1.15131 32.317 0.761683 32.1598 0.515606 31.8522C0.269528 31.5446 0.22168 31.1208 0.37206 30.7585H0.378896ZM17.3309 34.8871L14.7608 28.7899C15.1435 28.6668 15.5127 28.4959 15.8613 28.2635L17.078 27.457C17.0917 27.4501 17.1053 27.4433 17.1258 27.4433L18.5818 27.5321C20.359 27.6347 22.02 26.6709 22.8198 25.085L23.476 23.7795C23.4828 23.7658 23.4897 23.759 23.5033 23.7521L26.4563 30.7585C26.6066 31.1208 26.552 31.5377 26.3127 31.8522C26.0735 32.1666 25.677 32.3238 25.2874 32.2623L21.4527 31.695L19.2517 35.058C19.0329 35.3998 18.6433 35.5843 18.24 35.5502C17.8367 35.516 17.4881 35.2562 17.3309 34.8871Z" fill="#F17E00"/>
</svg>
