<svg width="26" height="26" viewBox="0 0 26 26" fill="none" xmlns="http://www.w3.org/2000/svg">
<path d="M12.707 25.332C10.7487 25.082 8.9987 24.582 7.45703 23.832C5.91536 23.082 4.60828 22.1029 3.53578 20.8945C2.46161 19.6862 1.6437 18.2854 1.08203 16.692C0.520365 15.0987 0.239115 13.3329 0.238281 11.3945C2.52995 11.6237 4.46745 12.0404 6.05078 12.6445C7.63411 13.2487 8.92078 14.1029 9.91078 15.207C10.8999 16.3112 11.6133 17.6916 12.0508 19.3483C12.4883 21.0049 12.707 22.9995 12.707 25.332ZM12.707 14.8008C12.2279 14.0716 11.577 13.3529 10.7545 12.6445C9.93203 11.9362 8.9787 11.2904 7.89453 10.707C8.01953 9.83203 8.22786 8.92578 8.51953 7.98828C8.8112 7.05078 9.16536 6.12911 9.58203 5.22328C9.9987 4.31661 10.4729 3.44661 11.0045 2.61328C11.5362 1.77995 12.1037 1.01953 12.707 0.332031C13.3112 1.01953 13.8791 1.77995 14.4108 2.61328C14.9424 3.44661 15.4162 4.31661 15.832 5.22328C16.2487 6.12911 16.6029 7.05036 16.8945 7.98703C17.1862 8.9237 17.3945 9.82995 17.5195 10.7058C16.4362 11.2683 15.4833 11.9037 14.6608 12.612C13.8383 13.3204 13.187 14.0499 12.707 14.8008ZM15.207 24.832C15.1654 23.3737 15.0562 22.0245 14.8795 20.7845C14.7029 19.5445 14.4266 18.3729 14.0508 17.2695C15.0299 15.582 16.3791 14.207 18.0983 13.1445C19.8174 12.082 22.1766 11.4987 25.1758 11.3945C25.1966 14.6862 24.3162 17.5249 22.5345 19.9108C20.7529 22.2966 18.3104 23.937 15.207 24.832Z" fill="#3CAAE1"/>
</svg>
