<svg width="70" height="70" viewBox="0 0 70 70" fill="none" xmlns="http://www.w3.org/2000/svg">
<path d="M17.4863 11.8835C15.9448 11.8835 14.4663 12.4893 13.3763 13.5677C12.2862 14.646 11.6738 16.1086 11.6738 17.6335V26.2585C11.6738 27.7835 12.2862 29.2461 13.3763 30.3244C14.4663 31.4027 15.9448 32.0085 17.4863 32.0085H26.2051C27.7466 32.0085 29.2251 31.4027 30.3151 30.3244C31.4052 29.2461 32.0176 27.7835 32.0176 26.2585V17.6335C32.0176 16.1086 31.4052 14.646 30.3151 13.5677C29.2251 12.4893 27.7466 11.8835 26.2051 11.8835H17.4863ZM17.4863 37.7585C15.9448 37.7585 14.4663 38.3643 13.3763 39.4427C12.2862 40.521 11.6738 41.9836 11.6738 43.5085V52.1335C11.6738 53.6585 12.2862 55.1211 13.3763 56.1994C14.4663 57.2777 15.9448 57.8835 17.4863 57.8835H26.2051C27.7466 57.8835 29.2251 57.2777 30.3151 56.1994C31.4052 55.1211 32.0176 53.6585 32.0176 52.1335V43.5085C32.0176 41.9836 31.4052 40.521 30.3151 39.4427C29.2251 38.3643 27.7466 37.7585 26.2051 37.7585H17.4863ZM43.6426 11.8835C42.101 11.8835 40.6226 12.4893 39.5325 13.5677C38.4425 14.646 37.8301 16.1086 37.8301 17.6335V26.2585C37.8301 27.7835 38.4425 29.2461 39.5325 30.3244C40.6226 31.4027 42.101 32.0085 43.6426 32.0085H52.3613C53.9029 32.0085 55.3813 31.4027 56.4714 30.3244C57.5614 29.2461 58.1738 27.7835 58.1738 26.2585V17.6335C58.1738 16.1086 57.5614 14.646 56.4714 13.5677C55.3813 12.4893 53.9029 11.8835 52.3613 11.8835H43.6426ZM43.6426 37.7585C42.101 37.7585 40.6226 38.3643 39.5325 39.4427C38.4425 40.521 37.8301 41.9836 37.8301 43.5085V52.1335C37.8301 53.6585 38.4425 55.1211 39.5325 56.1994C40.6226 57.2777 42.101 57.8835 43.6426 57.8835H52.3613C53.9029 57.8835 55.3813 57.2777 56.4714 56.1994C57.5614 55.1211 58.1738 53.6585 58.1738 52.1335V43.5085C58.1738 41.9836 57.5614 40.521 56.4714 39.4427C55.3813 38.3643 53.9029 37.7585 52.3613 37.7585H43.6426ZM0.0488281 14.7585C0.0488281 10.9461 1.57979 7.28972 4.30493 4.59388C7.03007 1.89805 10.7262 0.383545 14.5801 0.383545H55.2676C59.1215 0.383545 62.8176 1.89805 65.5427 4.59388C68.2679 7.28972 69.7988 10.9461 69.7988 14.7585V55.0085C69.7988 58.821 68.2679 62.4774 65.5427 65.1732C62.8176 67.869 59.1215 69.3835 55.2676 69.3835H14.5801C10.7262 69.3835 7.03007 67.869 4.30493 65.1732C1.57979 62.4774 0.0488281 58.821 0.0488281 55.0085V14.7585ZM14.5801 6.13354C12.2677 6.13354 10.0501 7.04225 8.41499 8.65975C6.77991 10.2773 5.86133 12.4711 5.86133 14.7585V55.0085C5.86133 57.296 6.77991 59.4898 8.41499 61.1073C10.0501 62.7248 12.2677 63.6335 14.5801 63.6335H55.2676C57.5799 63.6335 59.7976 62.7248 61.4327 61.1073C63.0677 59.4898 63.9863 57.296 63.9863 55.0085V14.7585C63.9863 12.4711 63.0677 10.2773 61.4327 8.65975C59.7976 7.04225 57.5799 6.13354 55.2676 6.13354H14.5801Z" fill="#3CAAE1"/>
</svg>
