<svg width="45" height="38" viewBox="0 0 45 38" fill="none" xmlns="http://www.w3.org/2000/svg">
<path d="M31.2344 7.27589H35.6111V37.9126H9.35106V7.27589H13.7277V5.08755C13.7277 3.92678 14.1888 2.81356 15.0096 1.99277C15.8304 1.17199 16.9436 0.710876 18.1044 0.710876H26.8578C28.0185 0.710876 29.1317 1.17199 29.9525 1.99277C30.7733 2.81356 31.2344 3.92678 31.2344 5.08755V7.27589ZM37.7994 7.27589H39.9878C41.1485 7.27589 42.2618 7.737 43.0826 8.55778C43.9033 9.37857 44.3644 10.4918 44.3644 11.6526V33.5359C44.3644 34.6967 43.9033 35.8099 43.0826 36.6307C42.2618 37.4515 41.1485 37.9126 39.9878 37.9126H37.7994V7.27589ZM7.16273 7.27589V37.9126H4.97439C3.81362 37.9126 2.7004 37.4515 1.87962 36.6307C1.05883 35.8099 0.597717 34.6967 0.597717 33.5359V11.6526C0.597717 9.24539 2.56722 7.27589 4.97439 7.27589H7.16273ZM18.1044 5.08755V7.27589H26.8578V5.08755H18.1044Z" fill="#F79E1B"/>
</svg>
