<svg width="15" height="14" viewBox="0 0 15 14" fill="none" xmlns="http://www.w3.org/2000/svg">
<path fill-rule="evenodd" clip-rule="evenodd" d="M7.86328 12.25C8.55272 12.25 9.23541 12.1142 9.87237 11.8504C10.5093 11.5865 11.0881 11.1998 11.5756 10.7123C12.0631 10.2248 12.4498 9.64605 12.7136 9.00909C12.9775 8.37213 13.1133 7.68944 13.1133 7C13.1133 6.31056 12.9775 5.62787 12.7136 4.99091C12.4498 4.35395 12.0631 3.7752 11.5756 3.28769C11.0881 2.80018 10.5093 2.41347 9.87237 2.14963C9.23541 1.8858 8.55272 1.75 7.86328 1.75C6.47089 1.75 5.13554 2.30312 4.15097 3.28769C3.1664 4.27226 2.61328 5.60761 2.61328 7C2.61328 8.39239 3.1664 9.72774 4.15097 10.7123C5.13554 11.6969 6.47089 12.25 7.86328 12.25ZM8.44661 3.79167C8.44661 3.63696 8.38516 3.48858 8.27576 3.37919C8.16636 3.26979 8.01799 3.20833 7.86328 3.20833C7.70857 3.20833 7.5602 3.26979 7.4508 3.37919C7.34141 3.48858 7.27995 3.63696 7.27995 3.79167V6.85417C7.27995 7.25667 7.60661 7.58333 8.00911 7.58333H9.90495C10.0597 7.58333 10.208 7.52187 10.3174 7.41248C10.4268 7.30308 10.4883 7.15471 10.4883 7C10.4883 6.84529 10.4268 6.69692 10.3174 6.58752C10.208 6.47812 10.0597 6.41667 9.90495 6.41667H8.44661V3.79167Z" fill="#3CAAE1"/>
</svg>
