<svg width="39" height="20" viewBox="0 0 39 20" fill="none" xmlns="http://www.w3.org/2000/svg">
<path d="M28.751 0.832031C29.4974 0.832031 30.1081 1.44275 30.1081 2.18917V18.4749C30.1081 19.2213 29.4974 19.832 28.751 19.832H23.3224C22.576 19.832 21.9653 19.2213 21.9653 18.4749V14.4035H16.5367V18.4749C16.5367 19.2213 15.926 19.832 15.1795 19.832H9.75098C9.00455 19.832 8.39383 19.2213 8.39383 18.4749V2.18917C8.39383 1.44275 9.00455 0.832031 9.75098 0.832031H15.1795C15.926 0.832031 16.5367 1.44275 16.5367 2.18917V6.2606H21.9653V2.18917C21.9653 1.44275 22.576 0.832031 23.3224 0.832031H28.751ZM2.96526 4.90346C2.96526 4.54352 3.10825 4.19833 3.36276 3.94381C3.61727 3.6893 3.96247 3.54632 4.3224 3.54632H5.67955V17.1177H4.3224C3.96247 17.1177 3.61727 16.9748 3.36276 16.7202C3.10825 16.4657 2.96526 16.1205 2.96526 15.7606V13.0463C2.24539 13.0463 1.555 12.7603 1.04597 12.2513C0.536945 11.7423 0.250977 11.0519 0.250977 10.332C0.250977 9.61216 0.536945 8.92177 1.04597 8.41274C1.555 7.90371 2.24539 7.61775 2.96526 7.61775V4.90346ZM35.5367 7.61775C36.2566 7.61775 36.947 7.90371 37.456 8.41274C37.965 8.92177 38.251 9.61216 38.251 10.332C38.251 11.0519 37.965 11.7423 37.456 12.2513C36.947 12.7603 36.2566 13.0463 35.5367 13.0463V15.7606C35.5367 16.1205 35.3937 16.4657 35.1392 16.7202C34.8847 16.9748 34.5395 17.1177 34.1795 17.1177H32.8224V3.54632H34.1795C34.5395 3.54632 34.8847 3.6893 35.1392 3.94381C35.3937 4.19833 35.5367 4.54352 35.5367 4.90346V7.61775Z" fill="#3CAAE1"/>
</svg>
