<svg width="31" height="31" viewBox="0 0 31 31" fill="none" xmlns="http://www.w3.org/2000/svg">
<path d="M29.7388 7.67947C29.2948 6.6725 28.712 5.73266 28.0074 4.88731L24.2724 8.62233C25.1468 9.13979 26.1768 9.32909 27.178 9.15633C28.1792 8.98357 29.0863 8.46003 29.7367 7.67947M22.7552 7.10732L26.4902 3.37231C25.6456 2.6678 24.7065 2.08501 23.7002 1.64088C22.9191 2.29138 22.3952 3.19882 22.2225 4.20053C22.0497 5.20224 22.2393 6.23273 22.7574 7.10732M20.0231 4.93017C20.0231 6.31875 20.4645 7.60447 21.2124 8.65447L19.4874 10.3795L12.0131 2.90302C13.3563 1.92752 14.8897 1.24556 16.5138 0.901486C18.1378 0.557407 19.8161 0.558902 21.4395 0.905874C20.521 2.04586 20.0211 3.46623 20.0231 4.93017ZM21.0024 11.8945L22.7274 10.1695C23.7774 10.9195 25.0631 11.3588 26.4517 11.3588C27.9153 11.3608 29.3354 10.8617 30.476 9.94447C30.6474 10.7459 30.7374 11.5773 30.7374 12.4302C30.7374 15.0231 29.8995 17.4231 28.4788 19.3709L21.0024 11.8945ZM27.0602 20.9824L19.4874 13.4095L18.1909 14.7059C20.4196 17.2461 21.7871 20.4266 22.0974 23.7917C23.9831 23.2709 25.6802 22.2895 27.0602 20.9824ZM7.58804 9.28447C8.10876 7.39875 9.08804 5.7016 10.3952 4.3216L17.9724 11.8945L16.6759 13.1909C14.1357 10.9622 10.9531 9.59478 7.58804 9.28447ZM3.9516 11.3588C3.09912 11.3588 2.28155 11.6974 1.67875 12.3002C1.07595 12.903 0.737305 13.7206 0.737305 14.5731V16.7159C0.737305 20.41 2.20478 23.9528 4.8169 26.5649C7.42902 29.1771 10.9718 30.6445 14.6659 30.6445H16.8088C17.6613 30.6445 18.4788 30.3059 19.0816 29.7031C19.6844 29.1003 20.0231 28.2827 20.0231 27.4302V25.2874C20.0231 21.5933 18.5556 18.0505 15.9435 15.4384C13.3314 12.8262 9.78856 11.3588 6.09446 11.3588H3.9516ZM8.01447 18.6359C8.114 18.5361 8.23223 18.457 8.3624 18.403C8.49257 18.349 8.63211 18.3212 8.77304 18.3212C8.91397 18.3212 9.05352 18.349 9.18369 18.403C9.31386 18.457 9.43209 18.5361 9.53162 18.6359L12.7459 21.8502C12.8455 21.9498 12.9246 22.0681 12.9785 22.1983C13.0324 22.3284 13.0601 22.4679 13.0601 22.6088C13.0601 22.7497 13.0324 22.8892 12.9785 23.0193C12.9246 23.1495 12.8455 23.2678 12.7459 23.3674C12.6463 23.467 12.528 23.546 12.3979 23.5999C12.2677 23.6538 12.1282 23.6816 11.9873 23.6816C11.8465 23.6816 11.707 23.6538 11.5768 23.5999C11.4466 23.546 11.3284 23.467 11.2288 23.3674L8.01447 20.1531C7.91469 20.0535 7.83553 19.9353 7.78151 19.8051C7.7275 19.675 7.6997 19.5354 7.6997 19.3945C7.6997 19.2536 7.7275 19.114 7.78151 18.9839C7.83553 18.8537 7.91469 18.7355 8.01447 18.6359Z" fill="#3CAAE1"/>
</svg>
