<svg width="15" height="14" viewBox="0 0 15 14" fill="none" xmlns="http://www.w3.org/2000/svg">
<path d="M7.92756 0C7.54085 0 7.16999 0.148121 6.89654 0.411778C6.6231 0.675435 6.46948 1.03303 6.46948 1.4059C6.46948 1.77876 6.6231 2.13636 6.89654 2.40002C7.16999 2.66367 7.54085 2.81179 7.92756 2.81179C8.73679 2.81179 9.38564 2.18617 9.38564 1.4059C9.38564 1.03303 9.23202 0.675435 8.95858 0.411778C8.68513 0.148121 8.31427 0 7.92756 0ZM2.06916 3.51474C1.68093 3.51474 1.36621 3.82946 1.36621 4.21769C1.36621 4.60592 1.68093 4.92064 2.06916 4.92064H5.74044V9.13833L2.57673 12.1888C2.2852 12.4699 2.28356 12.9363 2.5731 13.2195C2.85101 13.4912 3.29467 13.4926 3.57428 13.2226L7.9713 8.97665L10.8437 10.6356V12.627C10.8437 13.0296 11.1701 13.356 11.5728 13.356C11.9754 13.356 12.3018 13.0296 12.3018 12.627V10.242C12.3018 9.9889 12.1706 9.76396 11.9373 9.63743L9.38564 8.1542V4.92064H13.0569C13.4452 4.92064 13.7599 4.60592 13.7599 4.21769C13.7599 3.82946 13.4451 3.51474 13.0569 3.51474H2.06916Z" fill="#3CAAE1"/>
</svg>
