<svg width="15" height="15" viewBox="0 0 15 15" fill="none" xmlns="http://www.w3.org/2000/svg">
<path d="M10.4062 1.96129C11.293 2.47328 12.0294 3.20967 12.5414 4.09646C13.0534 4.98324 13.3229 5.98917 13.3229 7.01314C13.3229 8.03711 13.0534 9.04304 12.5414 9.92982C12.0294 10.8166 11.293 11.553 10.4062 12.065C9.51939 12.5769 8.51346 12.8465 7.48949 12.8464C6.46552 12.8464 5.45959 12.5769 4.57282 12.0649C3.68605 11.5529 2.94967 10.8165 2.4377 9.92966C1.92574 9.04286 1.65622 8.03693 1.65625 7.01296L1.65917 6.82396C1.69184 5.81654 1.98499 4.83477 2.51004 3.97437C3.03509 3.11397 3.77413 2.40431 4.6551 1.91456C5.53608 1.42481 6.52892 1.17169 7.53684 1.17988C8.54475 1.18807 9.53335 1.45729 10.4062 1.96129ZM8.94792 7.59629C8.71585 7.59629 8.49329 7.68848 8.3292 7.85257C8.1651 8.01667 8.07292 8.23923 8.07292 8.47129C8.07292 8.70336 8.1651 8.92592 8.3292 9.09001C8.49329 9.2541 8.71585 9.34629 8.94792 9.34629C9.17998 9.34629 9.40254 9.2541 9.56664 9.09001C9.73073 8.92592 9.82292 8.70336 9.82292 8.47129C9.82292 8.23923 9.73073 8.01667 9.56664 7.85257C9.40254 7.68848 9.17998 7.59629 8.94792 7.59629ZM9.652 4.85054C9.54261 4.74118 9.39426 4.67975 9.23958 4.67975C9.0849 4.67975 8.93656 4.74118 8.82717 4.85054L5.32717 8.35054C5.22091 8.46056 5.16211 8.60791 5.16344 8.76086C5.16477 8.91381 5.22612 9.06011 5.33427 9.16827C5.44243 9.27642 5.58873 9.33777 5.74168 9.3391C5.89463 9.34043 6.04198 9.28163 6.152 9.17537L9.652 5.67537C9.76136 5.56598 9.82279 5.41764 9.82279 5.26296C9.82279 5.10828 9.76136 4.95993 9.652 4.85054ZM6.03125 4.67962C5.79919 4.67962 5.57663 4.77181 5.41253 4.93591C5.24844 5.1 5.15625 5.32256 5.15625 5.55462C5.15625 5.78669 5.24844 6.00925 5.41253 6.17334C5.57663 6.33744 5.79919 6.42962 6.03125 6.42962C6.26331 6.42962 6.48587 6.33744 6.64997 6.17334C6.81406 6.00925 6.90625 5.78669 6.90625 5.55462C6.90625 5.32256 6.81406 5.1 6.64997 4.93591C6.48587 4.77181 6.26331 4.67962 6.03125 4.67962Z" fill="#3CAAE1"/>
</svg>
