<svg width="17" height="17" viewBox="0 0 17 17" fill="none" xmlns="http://www.w3.org/2000/svg">
<path d="M14.5856 11.5117C14.4869 11.4562 14.3897 11.398 14.2943 11.337C13.9535 11.1182 13.6275 10.8772 13.3183 10.6157C12.5343 9.95771 11.5383 8.92571 10.671 7.42438C9.80429 5.92238 9.40895 4.54438 9.23095 3.53571C9.15904 3.13691 9.11339 2.73382 9.09429 2.32904C9.08915 2.21623 9.08715 2.1033 9.08829 1.99038C9.08895 1.95038 9.09362 1.86904 9.09429 1.84704C7.82305 1.78778 6.56159 2.09533 5.46029 2.73304C4.35821 3.36716 3.46152 4.30457 2.87695 5.43371L3.00295 5.50238C3.07295 5.54238 3.17162 5.59971 3.29429 5.67704C3.53895 5.83305 3.87829 6.06905 4.27029 6.39838C5.05429 7.05704 6.05029 8.08838 6.91695 9.59038C7.78429 11.0917 8.17962 12.4704 8.35829 13.4784C8.44695 13.983 8.48162 14.395 8.49429 14.685C8.50095 14.8297 8.50095 14.9444 8.50029 15.0244V15.1677C9.76912 15.2254 11.0278 14.9176 12.127 14.281C13.2283 13.6478 14.1247 12.7116 14.7096 11.5837L14.5856 11.5117Z" fill="#3CAAE1"/>
<path d="M7.50103 15.0461C7.50222 14.9399 7.50066 14.8336 7.49637 14.7275C7.47923 14.3667 7.43848 14.0075 7.37437 13.6521C7.2137 12.7395 6.85237 11.4748 6.05303 10.0901C5.25303 8.7048 4.33837 7.76013 3.62837 7.16346C3.35293 6.9305 3.06253 6.71581 2.75903 6.5208C2.65303 6.45413 2.53903 6.38813 2.48437 6.35746C2.17704 7.25667 2.06598 8.2113 2.15867 9.15705C2.25135 10.1028 2.54564 11.0177 3.0217 11.8401C3.49591 12.6636 4.14107 13.3759 4.91374 13.9291C5.68642 14.4822 6.56866 14.8627 7.50103 15.0461ZM10.0897 1.9668C10.0884 2.07326 10.0897 2.17974 10.0937 2.28613C10.105 2.53613 10.1357 2.90413 10.2164 3.3608C10.377 4.27413 10.7384 5.53813 11.5377 6.92346C12.3377 8.30813 13.2524 9.2528 13.9624 9.84946C14.317 10.1475 14.6204 10.3575 14.8317 10.4921C14.9377 10.5595 15.0517 10.6255 15.1064 10.6555C15.4136 9.75635 15.5246 8.80184 15.4319 7.85622C15.3392 6.9106 15.045 5.99581 14.569 5.17346C14.0948 4.34998 13.4497 3.63769 12.677 3.08454C11.9043 2.5314 11.0221 2.15026 10.0897 1.9668Z" fill="#3CAAE1"/>
</svg>
