<svg width="14" height="23" viewBox="0 0 14 23" fill="none" xmlns="http://www.w3.org/2000/svg">
<path d="M11.4482 0.898926H2.64824C2.06477 0.898926 1.50519 1.13071 1.09261 1.54329C0.680027 1.95587 0.448242 2.51545 0.448242 3.09893V20.6989C0.448242 21.2824 0.680027 21.842 1.09261 22.2546C1.50519 22.6671 2.06477 22.8989 2.64824 22.8989H11.4482C12.0317 22.8989 12.5913 22.6671 13.0039 22.2546C13.4165 21.842 13.6482 21.2824 13.6482 20.6989V3.09893C13.6482 2.51545 13.4165 1.95587 13.0039 1.54329C12.5913 1.13071 12.0317 0.898926 11.4482 0.898926ZM8.14824 21.7989H5.94824V20.6989H8.14824V21.7989ZM11.4482 19.5989H2.64824V4.19893H11.4482V19.5989Z" fill="#3CAAE1"/>
</svg>
