<svg width="60" height="61" viewBox="0 0 60 61" fill="none" xmlns="http://www.w3.org/2000/svg">
<rect y="0.5" width="60" height="60" rx="22" fill="#2AD348"/>
<path d="M41 30C41 28.5555 40.7155 27.1251 40.1627 25.7905C39.6099 24.4559 38.7996 23.2433 37.7782 22.2218C36.7567 21.2004 35.5441 20.3901 34.2095 19.8373C32.8749 19.2845 31.4445 19 30 19V21.2C31.7404 21.2 33.4417 21.716 34.8889 22.6828C36.336 23.6497 37.464 25.0239 38.1301 26.6318C38.5724 27.6996 38.8001 28.8442 38.8 30H41ZM19 27.8V22.3C19 22.0083 19.1159 21.7285 19.3222 21.5222C19.5285 21.3159 19.8083 21.2 20.1 21.2H25.6C25.8917 21.2 26.1715 21.3159 26.3778 21.5222C26.5841 21.7285 26.7 22.0083 26.7 22.3V26.7C26.7 26.9917 26.5841 27.2715 26.3778 27.4778C26.1715 27.6841 25.8917 27.8 25.6 27.8H23.4C23.4 30.1339 24.3271 32.3722 25.9775 34.0225C27.6278 35.6729 29.8661 36.6 32.2 36.6V34.4C32.2 34.1083 32.3159 33.8285 32.5222 33.6222C32.7285 33.4159 33.0083 33.3 33.3 33.3H37.7C37.9917 33.3 38.2715 33.4159 38.4778 33.6222C38.6841 33.8285 38.8 34.1083 38.8 34.4V39.9C38.8 40.1917 38.6841 40.4715 38.4778 40.6778C38.2715 40.8841 37.9917 41 37.7 41H32.2C24.9103 41 19 35.0897 19 27.8Z" fill="white"/>
<path d="M36.0973 27.4743C36.4291 28.275 36.5999 29.1332 36.6 29.9999H34.62C34.62 28.7746 34.1333 27.5995 33.2668 26.7331C32.4004 25.8667 31.2253 25.3799 30 25.3799V23.3999C31.3053 23.4 32.5813 23.7871 33.6666 24.5123C34.7519 25.2376 35.5978 26.2683 36.0973 27.4743Z" fill="white"/>
</svg>
