<svg width="13" height="13" viewBox="0 0 13 13" fill="none" xmlns="http://www.w3.org/2000/svg">
<path d="M1.71322 12.3782C1.34655 12.3782 1.03277 12.2477 0.771883 11.9868C0.510994 11.726 0.380327 11.412 0.379883 11.0448V1.71151C0.379883 1.34484 0.51055 1.03106 0.771883 0.770174C1.03322 0.509285 1.34699 0.378618 1.71322 0.378174H9.04655L12.3799 3.71151V11.0448C12.3799 11.4115 12.2494 11.7255 11.9886 11.9868C11.7277 12.2482 11.4137 12.3786 11.0465 12.3782H1.71322ZM3.04655 9.71151H9.71322V8.37817H3.04655V9.71151ZM3.04655 7.04484H9.71322V5.71151H3.04655V7.04484ZM8.37988 4.37817H11.0465L8.37988 1.71151V4.37817ZM3.04655 4.37817H6.37988V3.04484H3.04655V4.37817Z" fill="#3CAAE1"/>
</svg>
