<svg width="14" height="10" viewBox="0 0 14 10" fill="none" xmlns="http://www.w3.org/2000/svg">
<g clip-path="url(#clip0_9330_18740)">
<path d="M10.1825 1.875C8.83984 1.875 7.78969 2.68164 7.11328 3.41016C6.43687 2.68164 5.38672 1.875 4.04406 1.875C2.15297 1.875 0.613281 3.27734 0.613281 5C0.613281 6.72266 2.15297 8.125 4.04406 8.125C5.38672 8.125 6.43687 7.31836 7.11328 6.58984C7.78969 7.31836 8.83984 8.125 10.1825 8.125C12.0736 8.125 13.6133 6.72266 13.6133 5C13.6133 3.27734 12.0736 1.875 10.1825 1.875ZM4.04406 6.25C3.2275 6.25 2.56328 5.68945 2.56328 5C2.56328 4.31055 3.2275 3.75 4.04406 3.75C4.82 3.75 5.535 4.45508 5.95344 5C5.53906 5.53906 4.81797 6.25 4.04406 6.25ZM10.1825 6.25C9.40656 6.25 8.69156 5.54492 8.27312 5C8.6875 4.46094 9.40859 3.75 10.1825 3.75C10.9991 3.75 11.6633 4.31055 11.6633 5C11.6633 5.68945 10.9991 6.25 10.1825 6.25Z" fill="#1EA0DE"/>
</g>
<defs>
<clipPath id="clip0_9330_18740">
<rect width="13" height="10" fill="white" transform="translate(0.613281)"/>
</clipPath>
</defs>
</svg>
