<svg width="14" height="12" viewBox="0 0 14 12" fill="none" xmlns="http://www.w3.org/2000/svg">
<path d="M13.1726 3.87591C13.1726 8.25195 7.06909 11.794 6.80917 11.9403C6.74066 11.9795 6.66409 12 6.5863 12C6.5085 12 6.43193 11.9795 6.36342 11.9403C6.1035 11.794 0 8.25195 0 3.87591C0.00108952 2.84831 0.385569 1.86313 1.06909 1.13651C1.75261 0.409884 2.67934 0.00115823 3.64598 0C4.86033 0 5.92355 0.555131 6.5863 1.49348C7.24904 0.555131 8.31226 0 9.52661 0C10.4932 0.00115823 11.42 0.409884 12.1035 1.13651C12.787 1.86313 13.1715 2.84831 13.1726 3.87591Z" fill="#3CAAE1"/>
</svg>
