<svg width="15" height="16" viewBox="0 0 15 16" fill="none" xmlns="http://www.w3.org/2000/svg">
<g clip-path="url(#clip0_8504_12670)">
<path d="M12.5315 2.07001C12.1614 1.72848 10.6656 0.642631 7.33386 0.627879C7.33386 0.627879 3.40487 0.39095 1.48955 2.1478C0.42337 3.2142 0.0483069 4.77458 0.00874425 6.70912C-0.0308184 8.64367 -0.0820043 12.2691 3.41269 13.2522H3.41605L3.41381 14.7522C3.41381 14.7522 3.39146 15.3595 3.79133 15.4833C4.27503 15.6335 4.55889 15.1719 5.02068 14.6744C5.27415 14.4013 5.62418 14 5.88793 13.6934C8.278 13.8945 10.1162 13.4348 10.325 13.3668C10.8076 13.2104 13.5383 12.8606 13.9824 9.23532C14.4408 5.49878 13.7607 3.1353 12.5315 2.07001Z" fill="white"/>
<path d="M11.754 2.82488C11.441 2.54057 10.0903 1.69187 7.272 1.67958C7.272 1.67958 3.93466 1.46031 2.3146 2.9277C1.41293 3.81797 1.10917 5.14187 1.07587 6.75745C1.04256 8.37304 0.870006 11.4594 3.82513 12.2804C3.82513 12.2804 3.81351 14.5716 3.81217 14.773C3.81217 14.9138 3.83452 15.0102 3.91499 15.0301C3.97288 15.0441 4.0596 15.0142 4.13336 14.9407C4.60588 14.4661 6.11865 12.6411 6.11865 12.6411C8.14841 12.7737 9.76333 12.3729 9.937 12.3161C10.3465 12.1845 12.5613 11.9942 12.9362 8.96648C13.3235 5.8455 12.7938 3.71515 11.754 2.82488Z" fill="#7360F2"/>
<path d="M8.70421 6.62426C8.66755 5.88531 8.29219 5.49721 7.57812 5.45996" stroke="white" stroke-width="0.413775" stroke-linecap="round" stroke-linejoin="round"/>
<path d="M9.67164 6.94882C9.68655 6.26038 9.48262 5.6852 9.05988 5.22326C8.63519 4.75968 8.04734 4.50443 7.29297 4.44922" stroke="white" stroke-width="0.413775" stroke-linecap="round" stroke-linejoin="round"/>
<path d="M10.6615 7.33585C10.6524 6.14123 10.2954 5.20037 9.59062 4.51327C8.8858 3.82618 8.00924 3.47898 6.96094 3.47168" stroke="white" stroke-width="0.413775" stroke-linecap="round" stroke-linejoin="round"/>
<path d="M7.61605 9.148C7.61605 9.148 7.88092 9.17035 8.02352 8.99466L8.30158 8.64486C8.43569 8.47141 8.75934 8.36077 9.07629 8.53735C9.3138 8.6728 9.54439 8.82006 9.76718 8.97857C9.97751 9.13324 10.4082 9.49266 10.4096 9.49266C10.6148 9.66589 10.6621 9.92025 10.5224 10.1885C10.5224 10.19 10.5213 10.1927 10.5213 10.1941C10.3675 10.4608 10.1721 10.7013 9.94265 10.9066C9.93996 10.908 9.93996 10.9093 9.9375 10.9107C9.73813 11.0773 9.54225 11.1719 9.34988 11.1947C9.32155 11.1997 9.29277 11.2015 9.26405 11.2001C9.17921 11.2009 9.09481 11.1879 9.01415 11.1617L9.00789 11.1525C8.71151 11.0689 8.21664 10.8597 7.39253 10.4051C6.91563 10.1451 6.46161 9.84515 6.03533 9.50853C5.82167 9.3399 5.61786 9.15915 5.42491 8.96717L5.40434 8.94661L5.38378 8.92604L5.36322 8.90548C5.35629 8.89877 5.34958 8.89185 5.34265 8.88492C5.15067 8.69196 4.96992 8.48815 4.80129 8.27449C4.46472 7.84826 4.16481 7.39431 3.90476 6.91751C3.45013 6.09318 3.24091 5.59876 3.15732 5.30193L3.14815 5.29567C3.12195 5.215 3.10904 5.1306 3.10993 5.04578C3.10837 5.01706 3.11009 4.98827 3.11507 4.95995C3.13907 4.76787 3.23391 4.57185 3.39961 4.37187C3.40095 4.36941 3.40229 4.36941 3.40364 4.36673C3.60889 4.13725 3.84944 3.94197 4.11621 3.78827C4.11755 3.78827 4.12023 3.78693 4.1218 3.78693C4.39002 3.64723 4.64438 3.69461 4.81739 3.89869C4.81873 3.90003 5.17747 4.33074 5.33148 4.54107C5.49 4.76409 5.63726 4.9949 5.7727 5.23264C5.94928 5.54936 5.83864 5.87369 5.66519 6.00735L5.31538 6.28541C5.1388 6.42801 5.16205 6.69288 5.16205 6.69288C5.16205 6.69288 5.68016 8.6538 7.61605 9.148Z" fill="white"/>
</g>
<defs>
<clipPath id="clip0_8504_12670">
<rect width="14.1261" height="14.8959" fill="white" transform="translate(0 0.617188)"/>
</clipPath>
</defs>
</svg>
