<svg width="45" height="43" viewBox="0 0 45 43" fill="none" xmlns="http://www.w3.org/2000/svg">
<path d="M43.7047 19.7969L34.8053 27.4762L37.5166 38.9605C37.6662 39.5839 37.6277 40.2377 37.4059 40.8392C37.1842 41.4407 36.7891 41.9631 36.2706 42.3402C35.7521 42.7173 35.1335 42.9323 34.4929 42.958C33.8523 42.9837 33.2184 42.819 32.6714 42.4846L22.6842 36.3381L12.6911 42.4846C12.1441 42.8171 11.511 42.9802 10.8715 42.9536C10.232 42.9269 9.61467 42.7116 9.09727 42.3348C8.57987 41.958 8.18552 41.4366 7.96388 40.8361C7.74224 40.2357 7.70322 39.583 7.85174 38.9605L10.573 27.4762L1.67352 19.7969C1.18959 19.3787 0.839594 18.8271 0.667256 18.2111C0.494917 17.5951 0.507871 16.942 0.7045 16.3334C0.901129 15.7247 1.27272 15.1875 1.77286 14.7887C2.273 14.39 2.87953 14.1475 3.5167 14.0914L15.1849 13.15L19.6861 2.25705C19.9297 1.66339 20.3444 1.15559 20.8773 0.798206C21.4103 0.440822 22.0375 0.25 22.6792 0.25C23.321 0.25 23.9482 0.440822 24.4811 0.798206C25.0141 1.15559 25.4288 1.66339 25.6724 2.25705L30.1716 13.15L41.8398 14.0914C42.4782 14.1454 43.0865 14.3866 43.5885 14.7848C44.0905 15.1829 44.4638 15.7204 44.6616 16.3298C44.8595 16.9392 44.8731 17.5934 44.7008 18.2105C44.5284 18.8276 44.1778 19.3802 43.6929 19.7989L43.7047 19.7969Z" fill="white"/>
</svg>
