<svg width="18" height="13" viewBox="0 0 18 13" fill="none" xmlns="http://www.w3.org/2000/svg">
<path fill-rule="evenodd" clip-rule="evenodd" d="M0.548828 7.36779C0.54888 8.15889 0.819052 8.92625 1.31463 9.54288C1.81021 10.1595 2.50148 10.5884 3.27405 10.7587C3.44136 11.2858 3.7721 11.7459 4.21836 12.0725C4.66463 12.3991 5.20325 12.5752 5.75625 12.5752C6.21662 12.5752 6.65812 12.3923 6.98365 12.0668C7.30918 11.7413 7.49206 11.2998 7.49206 10.8394V8.23569H10.9637V10.8394C10.9637 11.2998 11.1466 11.7413 11.4721 12.0668C11.7976 12.3923 12.2391 12.5752 12.6995 12.5752C13.8625 12.5752 14.8484 11.8115 15.1817 10.7587C15.9542 10.5884 16.6455 10.1595 17.1411 9.54288C17.6367 8.92625 17.9069 8.15889 17.9069 7.36779V5.63198C17.9069 4.84089 17.6367 4.07352 17.1411 3.45689C16.6455 2.84026 15.9542 2.41132 15.1817 2.24108C15.0144 1.714 14.6836 1.25386 14.2374 0.927276C13.7911 0.600693 13.2525 0.424623 12.6995 0.424561C12.2391 0.424561 11.7976 0.60744 11.4721 0.932967C11.1466 1.25849 10.9637 1.7 10.9637 2.16037V4.76408H7.49206V2.16037C7.49206 1.7 7.30918 1.25849 6.98365 0.932967C6.65812 0.60744 6.21662 0.424561 5.75625 0.424561C4.59326 0.424561 3.60732 1.18832 3.27405 2.24108C2.50148 2.41132 1.81021 2.84026 1.31463 3.45689C0.819052 4.07352 0.54888 4.84089 0.548828 5.63198V7.36779Z" fill="#F17E00"/>
</svg>
