<svg width="20" height="21" viewBox="0 0 20 21" fill="none" xmlns="http://www.w3.org/2000/svg">
<g clip-path="url(#clip0_1397_3358)">
<path fill-rule="evenodd" clip-rule="evenodd" d="M2.92732 1.83754C2.92732 1.55338 2.82008 1.28086 2.62919 1.07993C2.43831 0.878996 2.17941 0.766113 1.90946 0.766113C1.63951 0.766113 1.38061 0.878996 1.18973 1.07993C0.99884 1.28086 0.891602 1.55338 0.891602 1.83754L0.891602 19.6947C0.891602 20.2861 1.3476 20.7661 1.90946 20.7661H18.8737C19.1437 20.7661 19.4026 20.6532 19.5935 20.4523C19.7844 20.2514 19.8916 19.9788 19.8916 19.6947C19.8916 19.4105 19.7844 19.138 19.5935 18.9371C19.4026 18.7361 19.1437 18.6233 18.8737 18.6233H2.92732V14.6518L5.91574 11.2918C6.31067 11.529 6.76803 11.6633 7.25389 11.6633C7.87003 11.6633 8.43732 11.449 8.89332 11.0833L10.8245 12.9804C10.6741 13.4577 10.6458 13.9683 10.7426 14.4607C10.8394 14.9532 11.0578 15.41 11.3759 15.7853C11.6939 16.1605 12.1004 16.4408 12.5542 16.598C13.008 16.7551 13.4931 16.7835 13.9607 16.6804C14.4282 16.5772 14.8617 16.3461 15.2173 16.0103C15.573 15.6746 15.8382 15.246 15.9864 14.7679C16.1345 14.2898 16.1602 13.7791 16.061 13.2872C15.9618 12.7953 15.7411 12.3396 15.4212 11.9661L15.4239 11.959L16.9968 7.41183C17.6237 7.35271 18.2115 7.06599 18.6597 6.60078C19.1078 6.13557 19.3883 5.52083 19.4532 4.86184C19.5181 4.20284 19.3633 3.54061 19.0153 2.98857C18.6673 2.43653 18.1478 2.02903 17.5457 1.83586C16.9437 1.6427 16.2965 1.67589 15.7152 1.92976C15.1338 2.18363 14.6544 2.64237 14.3591 3.22741C14.0637 3.81245 13.9708 4.48739 14.0962 5.13662C14.2216 5.78585 14.5576 6.36898 15.0466 6.78611L13.5795 11.029C13.0828 10.9968 12.5871 11.1068 12.145 11.3475L10.0523 9.2904C10.0182 9.25689 9.98189 9.22587 9.94374 9.19754C9.99831 8.77711 9.96313 8.34915 9.84078 7.94483C9.71842 7.54051 9.51195 7.16999 9.23641 6.86025C8.96087 6.5505 8.62319 6.30933 8.24794 6.15427C7.87269 5.99922 7.46932 5.93419 7.06719 5.96391C6.66506 5.99363 6.27428 6.11737 5.9233 6.3261C5.57232 6.53484 5.26997 6.82332 5.03825 7.17056C4.80654 7.5178 4.65129 7.91505 4.58382 8.33341C4.51634 8.75176 4.53832 9.18069 4.64817 9.58897L4.60746 9.6304L2.92732 11.5161V1.83754Z" fill="#3CAAE1"/>
</g>
<defs>
<clipPath id="clip0_1397_3358">
<rect width="19" height="20" fill="white" transform="translate(0.891602 0.766113)"/>
</clipPath>
</defs>
</svg>
