<svg width="31" height="32" viewBox="0 0 31 32" fill="none" xmlns="http://www.w3.org/2000/svg">
<circle cx="15.5469" cy="15.8535" r="14.3535" stroke="#3CAAE1" stroke-width="2"/>
<path d="M9.56836 14.8555C9.01607 14.8555 8.56836 15.3032 8.56836 15.8555C8.56836 16.4078 9.01607 16.8555 9.56836 16.8555V14.8555ZM22.2345 16.5626C22.625 16.1721 22.625 15.5389 22.2345 15.1484L15.8706 8.7844C15.48 8.39388 14.8469 8.39388 14.4563 8.7844C14.0658 9.17493 14.0658 9.80809 14.4563 10.1986L20.1132 15.8555L14.4563 21.5123C14.0658 21.9028 14.0658 22.536 14.4563 22.9265C14.8469 23.3171 15.48 23.3171 15.8706 22.9265L22.2345 16.5626ZM9.56836 16.8555H21.5274V14.8555H9.56836V16.8555Z" fill="#3CAAE1"/>
</svg>
