<svg width="32" height="30" viewBox="0 0 32 30" fill="none" xmlns="http://www.w3.org/2000/svg">
<g clip-path="url(#clip0_2200_5461)">
<path d="M16.4631 -6.10352e-05C7.90274 -6.10352e-05 0.963135 6.71569 0.963135 14.9999C0.963135 23.2842 7.90274 29.9999 16.4631 29.9999C25.0235 29.9999 31.9631 23.2842 31.9631 14.9999C31.9631 6.71569 25.0235 -6.10352e-05 16.4631 -6.10352e-05ZM16.4631 3.25921C23.1635 3.25921 28.5933 8.51734 28.5933 14.9999C28.5933 21.4826 23.1635 26.7388 16.4631 26.7388C9.76274 26.7388 4.33294 21.4826 4.33294 14.9999C4.33296 8.51734 9.76274 3.25921 16.4631 3.25921ZM22.4024 7.87714L13.4188 16.5728L10.5049 13.753L7.64599 16.5179L10.5598 19.3377L13.4377 22.1227L16.2948 19.356L25.2803 10.6622L22.4024 7.87714Z" fill="#3CAAE1"/>
</g>
<defs>
<clipPath id="clip0_2200_5461">
<rect width="31" height="30" fill="white" transform="translate(0.963135)"/>
</clipPath>
</defs>
</svg>
