<svg width="41" height="39" viewBox="0 0 41 39" fill="none" xmlns="http://www.w3.org/2000/svg">
<path d="M18.3714 21.9L15.5214 19.05C15.1214 18.65 14.6547 18.45 14.1214 18.45C13.588 18.45 13.1214 18.65 12.7214 19.05C12.3214 19.45 12.1214 19.9253 12.1214 20.476C12.1214 21.0267 12.3214 21.5013 12.7214 21.9L16.9714 26.2C17.3714 26.6 17.838 26.8 18.3714 26.8C18.9047 26.8 19.3714 26.6 19.7714 26.2L28.2714 17.7C28.6714 17.3 28.8714 16.8253 28.8714 16.276C28.8714 15.7267 28.6714 15.2513 28.2714 14.85C27.8714 14.4487 27.3967 14.2487 26.8474 14.25C26.298 14.2513 25.8227 14.4513 25.4214 14.85L18.3714 21.9ZM20.4714 38.5C17.9714 38.5 15.63 38.0253 13.4474 37.076C11.2647 36.1267 9.3647 34.8433 7.74736 33.226C6.13003 31.6087 4.8467 29.7087 3.89736 27.526C2.94803 25.3433 2.4727 23.0013 2.47136 20.5C2.47003 17.9987 2.94536 15.6573 3.89736 13.476C4.84936 11.2947 6.13203 9.39465 7.74536 7.77599C9.3587 6.15732 11.2587 4.87399 13.4454 3.92599C15.632 2.97799 17.974 2.50265 20.4714 2.49999C22.9687 2.49732 25.3107 2.97265 27.4974 3.92599C29.684 4.87932 31.584 6.16265 33.1974 7.77599C34.8107 9.38932 36.094 11.2893 37.0474 13.476C38.0007 15.6627 38.4754 18.004 38.4714 20.5C38.4674 22.996 37.9927 25.338 37.0474 27.526C36.102 29.714 34.8187 31.614 33.1974 33.226C31.576 34.838 29.676 36.1213 27.4974 37.076C25.3187 38.0307 22.9767 38.5053 20.4714 38.5ZM0.571362 9.09999C0.204696 8.73332 0.0213623 8.26665 0.0213623 7.69999C0.0213623 7.13332 0.204696 6.66665 0.571362 6.29999L6.27136 0.599988C6.63803 0.233321 7.1047 0.0499878 7.67136 0.0499878C8.23803 0.0499878 8.7047 0.233321 9.07136 0.599988C9.43803 0.966654 9.62136 1.43332 9.62136 1.99999C9.62136 2.56665 9.43803 3.03332 9.07136 3.39999L3.37136 9.09999C3.0047 9.46665 2.53803 9.64999 1.97136 9.64999C1.4047 9.64999 0.938029 9.46665 0.571362 9.09999ZM40.3714 9.09999C40.0047 9.46665 39.538 9.64999 38.9714 9.64999C38.4047 9.64999 37.938 9.46665 37.5714 9.09999L31.8714 3.39999C31.5047 3.03332 31.3214 2.56665 31.3214 1.99999C31.3214 1.43332 31.5047 0.966654 31.8714 0.599988C32.238 0.233321 32.7047 0.0499878 33.2714 0.0499878C33.838 0.0499878 34.3047 0.233321 34.6714 0.599988L40.3714 6.29999C40.738 6.66665 40.9214 7.13332 40.9214 7.69999C40.9214 8.26665 40.738 8.73332 40.3714 9.09999Z" fill="white"/>
</svg>
