<svg width="15" height="14" viewBox="0 0 15 14" fill="none" xmlns="http://www.w3.org/2000/svg">
<path d="M1.73828 7C1.73828 5.37555 2.38359 3.81763 3.53225 2.66897C4.68091 1.52031 6.23883 0.875 7.86328 0.875C9.48773 0.875 11.0456 1.52031 12.1943 2.66897C13.343 3.81763 13.9883 5.37555 13.9883 7C13.9883 8.62445 13.343 10.1824 12.1943 11.331C11.0456 12.4797 9.48773 13.125 7.86328 13.125C6.23883 13.125 4.68091 12.4797 3.53225 11.331C2.38359 10.1824 1.73828 8.62445 1.73828 7ZM9.49428 3.626C9.41014 3.54494 9.29786 3.49966 9.18103 3.49966C9.0642 3.49966 8.95192 3.54494 8.86778 3.626C8.82676 3.66558 8.79414 3.71302 8.77186 3.76549C8.74958 3.81796 8.73809 3.87437 8.73809 3.93138C8.73809 3.98838 8.74958 4.04479 8.77186 4.09726C8.79414 4.14973 8.82676 4.19717 8.86778 4.23675C9.23923 4.59475 9.53468 5.02397 9.73649 5.49875C9.93829 5.97352 10.0423 6.48411 10.0423 7C10.0423 7.51589 9.93829 8.02648 9.73649 8.50125C9.53468 8.97603 9.23923 9.40525 8.86778 9.76325C8.82676 9.80283 8.79414 9.85027 8.77186 9.90274C8.74958 9.95521 8.73809 10.0116 8.73809 10.0686C8.73809 10.1256 8.74958 10.182 8.77186 10.2345C8.79414 10.287 8.82676 10.3344 8.86778 10.374C8.95192 10.4551 9.0642 10.5003 9.18103 10.5003C9.29786 10.5003 9.41014 10.4551 9.49428 10.374C9.94788 9.9369 10.3087 9.41282 10.5551 8.8331C10.8016 8.25338 10.9286 7.62993 10.9286 7C10.9286 6.37007 10.8016 5.74662 10.5551 5.1669C10.3087 4.58718 9.94788 4.0631 9.49428 3.626ZM7.72678 4.5045C7.68711 4.46332 7.63954 4.43057 7.58692 4.40819C7.5343 4.38582 7.47771 4.37429 7.42053 4.37429C7.36335 4.37429 7.30676 4.38582 7.25414 4.40819C7.20152 4.43057 7.15395 4.46332 7.11428 4.5045C7.03302 4.58853 6.9876 4.70085 6.9876 4.81775C6.9876 4.93465 7.03302 5.04697 7.11428 5.131C7.59915 5.63201 7.87023 6.30191 7.87023 6.99913C7.87023 7.69634 7.59915 8.36624 7.11428 8.86725C7.03302 8.95128 6.9876 9.0636 6.9876 9.1805C6.9876 9.2974 7.03302 9.40972 7.11428 9.49375C7.15395 9.53493 7.20152 9.56768 7.25414 9.59006C7.30676 9.61243 7.36335 9.62396 7.42053 9.62396C7.47771 9.62396 7.5343 9.61243 7.58692 9.59006C7.63954 9.56768 7.68711 9.53493 7.72678 9.49375C9.07078 8.11563 9.07078 5.88262 7.72678 4.5045ZM5.35903 5.38387C5.28004 5.4734 5.23646 5.58868 5.23646 5.70806C5.23646 5.82745 5.28004 5.94273 5.35903 6.03225C5.84291 6.566 5.84291 7.43313 5.35903 7.96775C5.28028 8.05722 5.23684 8.17231 5.23684 8.2915C5.23684 8.41069 5.28028 8.52578 5.35903 8.61525C5.3955 8.65732 5.44059 8.69106 5.49124 8.71419C5.54189 8.73732 5.59691 8.74928 5.65259 8.74928C5.70827 8.74928 5.7633 8.73732 5.81395 8.71419C5.8646 8.69106 5.90969 8.65732 5.94616 8.61525C6.75553 7.72275 6.75553 6.27637 5.94616 5.38387C5.90969 5.34195 5.86465 5.30834 5.81408 5.2853C5.76352 5.26227 5.7086 5.25035 5.65303 5.25035C5.59746 5.25035 5.54255 5.26227 5.49198 5.2853C5.44141 5.30834 5.3955 5.34195 5.35903 5.38387Z" fill="#3CAAE1"/>
</svg>
