<svg width="17" height="17" viewBox="0 0 17 17" fill="none" xmlns="http://www.w3.org/2000/svg">
<path d="M2.85807 4.6397V3.0397C2.85807 2.91748 2.91096 2.82304 3.01674 2.75637C3.12252 2.6897 3.23074 2.68415 3.34141 2.7397L4.92474 3.5397C5.04696 3.59526 5.10807 3.69526 5.10807 3.8397C5.10807 3.98415 5.04696 4.08415 4.92474 4.1397L3.34141 4.9397C3.2303 4.99526 3.12185 4.9897 3.01607 4.92304C2.9103 4.85637 2.85763 4.76192 2.85807 4.6397ZM12.8581 4.6397V3.0397C12.8581 2.91748 12.911 2.82304 13.0167 2.75637C13.1225 2.6897 13.2307 2.68415 13.3414 2.7397L14.9247 3.5397C15.047 3.59526 15.1081 3.69526 15.1081 3.8397C15.1081 3.98415 15.047 4.08415 14.9247 4.1397L13.3414 4.9397C13.2303 4.99526 13.1219 4.9897 13.0161 4.92304C12.9103 4.85637 12.8576 4.76192 12.8581 4.6397ZM8.19141 3.97304V2.37304C8.19141 2.25081 8.2443 2.15637 8.35007 2.0897C8.45585 2.02304 8.56407 2.01748 8.67474 2.07304L10.2581 2.87304C10.3803 2.92859 10.4414 3.02859 10.4414 3.17304C10.4414 3.31748 10.3803 3.41748 10.2581 3.47304L8.67474 4.27304C8.56363 4.32859 8.45541 4.32304 8.35007 4.25637C8.24474 4.1897 8.19185 4.09526 8.19141 3.97304ZM6.45807 15.0397C5.36918 14.9175 4.38585 14.6981 3.50807 14.3817C2.6303 14.0653 2.19141 13.6624 2.19141 13.173V7.17304C2.19141 6.89526 2.36652 6.63704 2.71674 6.39837C3.06696 6.1597 3.54185 5.94859 4.14141 5.76504C4.74141 5.58148 5.44696 5.43704 6.25807 5.3317C7.06918 5.22637 7.93585 5.17348 8.85807 5.17304C9.7803 5.17304 10.647 5.22592 11.4581 5.3317C12.2692 5.43748 12.9747 5.58192 13.5747 5.76504C14.1747 5.94815 14.6499 6.15926 15.0001 6.39837C15.3503 6.63748 15.5252 6.8957 15.5247 7.17304V13.173C15.5247 13.673 15.0832 14.0815 14.2001 14.3984C13.317 14.7153 12.3307 14.9346 11.2414 15.0564C11.1414 15.0675 11.0525 15.037 10.9747 14.965C10.897 14.893 10.8581 14.8068 10.8581 14.7064V13.8397C10.8581 13.2841 10.6636 12.8119 10.2747 12.423C9.88585 12.0341 9.41363 11.8397 8.85807 11.8397C8.30252 11.8397 7.8303 12.0341 7.44141 12.423C7.05252 12.8119 6.85807 13.2841 6.85807 13.8397V14.6897C6.85807 14.8008 6.81918 14.8897 6.74141 14.9564C6.66363 15.023 6.56918 15.0508 6.45807 15.0397ZM8.85807 7.8397C9.93585 7.8397 10.8663 7.7757 11.6494 7.6477C12.4325 7.5197 13.0576 7.37259 13.5247 7.20637C13.5247 7.15081 13.1025 7.02037 12.2581 6.81504C11.4136 6.6097 10.2803 6.50681 8.85807 6.50637C7.43585 6.50637 6.30252 6.60926 5.45807 6.81504C4.61363 7.02081 4.19141 7.15126 4.19141 7.20637C4.65807 7.37304 5.28318 7.52037 6.06674 7.64837C6.8503 7.77637 7.78074 7.84015 8.85807 7.8397Z" fill="#3CAAE1"/>
</svg>
