<svg width="24" height="23" viewBox="0 0 24 23" fill="none" xmlns="http://www.w3.org/2000/svg">
<path fill-rule="evenodd" clip-rule="evenodd" d="M13.682 0.867738C14.287 0.983988 15.1707 1.28649 15.597 2.13899C16.5307 4.00649 15.7595 5.78149 14.932 6.88524C14.392 7.60524 13.697 8.28274 12.8882 8.69774C12.7195 8.78524 12.3757 8.94774 11.9795 8.94774C11.2407 8.94774 10.517 8.61149 9.9232 8.19149C9.81071 8.57399 9.70195 8.99399 9.6082 9.43899C9.42278 10.2928 9.3223 11.1629 9.30821 12.0365C10.6245 11.6115 11.9707 11.6565 13.1307 12.3115C14.0019 11.6259 15.0047 11.1268 16.077 10.8452C17.702 10.419 19.652 10.4777 21.4232 11.6577C22.692 12.504 23.6532 14.0977 23.847 15.8415C24.0495 17.659 23.4182 19.6465 21.5095 21.174C20.162 22.2515 18.1082 22.6677 16.2182 22.819C14.262 22.9765 12.1957 22.869 10.592 22.6902C7.61946 22.3602 5.33696 21.5302 3.74196 20.674C2.69571 20.1115 1.26446 19.334 0.810706 18.1427C0.504456 17.3352 0.584455 16.3552 0.659455 15.5152C0.759455 14.414 1.00446 13.039 1.46321 11.549C2.37821 8.57524 4.16946 5.05649 7.43321 2.35899C8.43696 1.52899 10.117 1.01399 11.5232 0.841489C12.2482 0.752739 13.0107 0.740238 13.682 0.867738Z" fill="#3CAAE1"/>
</svg>
