<svg width="14" height="13" viewBox="0 0 14 13" fill="none" xmlns="http://www.w3.org/2000/svg">
<g clip-path="url(#clip0_8504_12663)">
<path d="M0.867188 5.95836C0.867188 3.14955 0.867188 1.74516 1.73977 0.872581C2.61235 0 4.01674 0 6.82554 0H7.32207C10.1309 0 11.5353 0 12.4079 0.872581C13.2804 1.74516 13.2804 3.14955 13.2804 5.95836V6.45489C13.2804 9.26369 13.2804 10.6681 12.4079 11.5407C11.5353 12.4132 10.1309 12.4132 7.32207 12.4132H6.82554C4.01674 12.4132 2.61235 12.4132 1.73977 11.5407C0.867188 10.6681 0.867188 9.26369 0.867188 6.45489V5.95836Z" fill="#0077FF"/>
<path d="M7.47106 8.9424C4.64187 8.9424 3.02818 7.00283 2.96094 3.77539H4.37812C4.42467 6.14425 5.46942 7.14765 6.29697 7.35454V3.77539H7.63144V5.8184C8.44865 5.73048 9.30713 4.79948 9.59677 3.77539H10.9312C10.7088 5.0374 9.77782 5.9684 9.11578 6.35114C9.77782 6.66147 10.8382 7.4735 11.2416 8.9424H9.77265C9.45715 7.95969 8.67105 7.19938 7.63144 7.09593V8.9424H7.47106Z" fill="white"/>
</g>
<defs>
<clipPath id="clip0_8504_12663">
<rect width="12.4132" height="12.4132" fill="white" transform="translate(0.867188)"/>
</clipPath>
</defs>
</svg>
