<svg width="15" height="14" viewBox="0 0 15 14" fill="none" xmlns="http://www.w3.org/2000/svg">
<path d="M1.981 1.56337C1.981 0.707812 2.5753 0.0078125 3.30167 0.0078125C4.02804 0.0078125 4.62234 0.707812 4.62234 1.56337C4.62234 2.41892 4.02804 3.11892 3.30167 3.11892C2.5753 3.11892 1.981 2.41892 1.981 1.56337ZM0 4.67448C0 4.24492 0.348223 3.8967 0.777778 3.8967H3.96201L7.99357 0.504845C8.31381 0.235421 8.79492 0.291809 9.04418 0.627982C9.2721 0.935378 9.22229 1.36691 8.93034 1.6143L6.69579 3.50781H8.58434L13.1558 0.40134C13.4786 0.181979 13.9173 0.258371 14.1469 0.573947C14.3636 0.871633 14.3219 1.28456 14.0503 1.53303L8.91451 6.23003L8.61235 13.3481C8.59669 13.7169 8.29315 14.0078 7.92401 14.0078C7.55487 14.0078 7.25133 13.7169 7.23567 13.3481L6.93351 6.23003L4.62234 5.45226H0.777777C0.348222 5.45226 0 5.10403 0 4.67448Z" fill="#3CAAE1"/>
</svg>
