<svg width="16" height="14" viewBox="0 0 16 14" fill="none" xmlns="http://www.w3.org/2000/svg">
<path d="M14.857 9.002L16.001 8.001L14.857 7L12.001 9.499L5.14498 3.5L8.00098 1.001L6.85698 0L5.71298 1.001L4.56898 0L2.85698 1.498L1.71298 0.497L0.568977 1.498L1.71298 2.499L0.000976562 3.997L1.14498 4.998L0.000976562 5.999L1.14498 7L4.00098 4.501L10.857 10.5L8.00098 12.999L9.14498 14L10.289 12.999L11.433 14L13.145 12.502L14.289 13.503L15.433 12.502L14.289 11.501L16.001 10.003L14.857 9.002Z" fill="#3CAAE1"/>
</svg>
