<svg width="17" height="15" viewBox="0 0 17 15" fill="none" xmlns="http://www.w3.org/2000/svg">
<g clip-path="url(#clip0_3564_12364)">
<path d="M11.9479 14.5059H5.04018V14.2828C5.04018 12.7993 5.03451 11.3153 5.04625 9.83176C5.04787 9.60994 4.97298 9.47555 4.80945 9.34197C3.61937 8.36886 2.43375 7.39008 1.25014 6.40928C0.692752 5.94742 0.59034 5.20989 0.997962 4.65817C1.43028 4.07325 2.25281 3.97246 2.82558 4.44322C4.06018 5.45762 5.29236 6.47526 6.5213 7.49695C6.65366 7.60705 6.78319 7.65805 6.95685 7.65684C7.99553 7.64955 9.03382 7.65765 10.0725 7.64753C10.1943 7.64631 10.3393 7.59733 10.4328 7.52083C11.6759 6.50562 12.9113 5.48191 14.1491 4.46023C14.7057 4.00079 15.4967 4.05706 15.9444 4.58773C16.4066 5.13622 16.3378 5.91706 15.7695 6.38985C14.5822 7.37713 13.3918 8.36036 12.1944 9.33549C12.0212 9.47676 11.9507 9.61804 11.9523 9.8431C11.9625 11.3266 11.9576 12.8102 11.9572 14.2941C11.9572 14.3601 11.9515 14.4257 11.9479 14.5054V14.5059ZM8.49828 12.6993C8.982 12.1722 9.42848 11.7148 9.83732 11.2254C9.99114 11.0417 10.0875 10.7935 10.1571 10.5592C10.2753 10.1609 10.0851 9.79412 9.71629 9.62411C9.32607 9.44438 8.89214 9.55367 8.63469 9.89815C8.58895 9.95927 8.54605 10.0224 8.50031 10.0868C8.41692 9.97911 8.35013 9.87669 8.26755 9.78926C8.00727 9.514 7.57739 9.46179 7.22482 9.65487C6.88844 9.83905 6.72693 10.1811 6.84067 10.5624C6.90868 10.7907 7.00016 11.0332 7.14953 11.2117C7.56322 11.7055 8.01294 12.1694 8.49788 12.6989L8.49828 12.6993Z" fill="#1EA0DE"/>
<path d="M8.40568 0.505859C9.95723 0.505859 11.2125 1.75868 11.2137 3.3078C11.2149 4.85369 9.95723 6.11501 8.41013 6.11865C6.85089 6.1227 5.59442 4.86381 5.59766 3.30214C5.6009 1.74815 6.84886 0.505859 8.40568 0.505859Z" fill="#1EA0DE"/>
</g>
<defs>
<clipPath id="clip0_3564_12364">
<rect width="15.4989" height="14" fill="white" transform="translate(0.75 0.505859)"/>
</clipPath>
</defs>
</svg>
