<svg width="26" height="26" viewBox="0 0 26 26" fill="none" xmlns="http://www.w3.org/2000/svg">
<path fill-rule="evenodd" clip-rule="evenodd" d="M2.60001 6.50002C2.60001 5.81046 2.87393 5.14914 3.36153 4.66155C3.84912 4.17395 4.51044 3.90002 5.20001 3.90002H20.8C21.4896 3.90002 22.1509 4.17395 22.6385 4.66155C23.1261 5.14914 23.4 5.81046 23.4 6.50002V9.10002C23.4 9.78959 23.1261 10.4509 22.6385 10.9385C22.1509 11.4261 21.4896 11.7 20.8 11.7H5.20001C4.51044 11.7 3.84912 11.4261 3.36153 10.9385C2.87393 10.4509 2.60001 9.78959 2.60001 9.10002V6.50002ZM20.8 7.80002C20.8 8.14481 20.663 8.47547 20.4192 8.71926C20.1754 8.96306 19.8448 9.10002 19.5 9.10002C19.1552 9.10002 18.8246 8.96306 18.5808 8.71926C18.337 8.47547 18.2 8.14481 18.2 7.80002C18.2 7.45524 18.337 7.12458 18.5808 6.88079C18.8246 6.63699 19.1552 6.50002 19.5 6.50002C19.8448 6.50002 20.1754 6.63699 20.4192 6.88079C20.663 7.12458 20.8 7.45524 20.8 7.80002ZM2.60001 16.9C2.60001 16.2105 2.87393 15.5491 3.36153 15.0615C3.84912 14.574 4.51044 14.3 5.20001 14.3H20.8C21.4896 14.3 22.1509 14.574 22.6385 15.0615C23.1261 15.5491 23.4 16.2105 23.4 16.9V19.5C23.4 20.1896 23.1261 20.8509 22.6385 21.3385C22.1509 21.8261 21.4896 22.1 20.8 22.1H5.20001C4.51044 22.1 3.84912 21.8261 3.36153 21.3385C2.87393 20.8509 2.60001 20.1896 2.60001 19.5V16.9ZM20.8 18.2C20.8 18.5448 20.663 18.8755 20.4192 19.1193C20.1754 19.3631 19.8448 19.5 19.5 19.5C19.1552 19.5 18.8246 19.3631 18.5808 19.1193C18.337 18.8755 18.2 18.5448 18.2 18.2C18.2 17.8552 18.337 17.5246 18.5808 17.2808C18.8246 17.037 19.1552 16.9 19.5 16.9C19.8448 16.9 20.1754 17.037 20.4192 17.2808C20.663 17.5246 20.8 17.8552 20.8 18.2Z" fill="#1EA0DE"/>
</svg>
