<svg width="30" height="35" viewBox="0 0 30 35" fill="none" xmlns="http://www.w3.org/2000/svg">
<path d="M16.001 0.332031C15.0727 0.332031 14.1825 0.70078 13.5261 1.35716C12.8697 2.01353 12.501 2.90377 12.501 3.83203C12.501 4.76029 12.8697 5.65053 13.5261 6.30691C14.1825 6.96328 15.0727 7.33203 16.001 7.33203C17.9435 7.33203 19.501 5.77453 19.501 3.83203C19.501 2.90377 19.1322 2.01353 18.4758 1.35716C17.8195 0.70078 16.9292 0.332031 16.001 0.332031ZM0.250977 9.08203V12.582H10.751V23.082L1.87848 31.9545L4.34598 34.457L16.106 22.6795L23.001 26.8095V33.582H26.501V25.8295C26.501 25.1995 26.186 24.6395 25.626 24.3245L19.501 20.632V12.582H30.001V9.08203H0.250977Z" fill="#3CAAE1"/>
</svg>
