<svg width="13" height="12" viewBox="0 0 13 12" fill="none" xmlns="http://www.w3.org/2000/svg">
<path d="M1.80664 12C1.80664 12 0.806641 12 0.806641 11C0.806641 10 1.80664 7 6.80664 7C11.8066 7 12.8066 10 12.8066 11C12.8066 12 11.8066 12 11.8066 12H1.80664ZM6.80664 6C7.60229 6 8.36535 5.68393 8.92796 5.12132C9.49057 4.55871 9.80664 3.79565 9.80664 3C9.80664 2.20435 9.49057 1.44129 8.92796 0.87868C8.36535 0.316071 7.60229 0 6.80664 0C6.01099 0 5.24793 0.316071 4.68532 0.87868C4.12271 1.44129 3.80664 2.20435 3.80664 3C3.80664 3.79565 4.12271 4.55871 4.68532 5.12132C5.24793 5.68393 6.01099 6 6.80664 6Z" fill="#3CAAE1"/>
</svg>
