<svg width="15" height="14" viewBox="0 0 15 14" fill="none" xmlns="http://www.w3.org/2000/svg">
<path d="M6.07724 4.41449L3.81545 6.68716C4.03119 6.77108 4.20518 6.87597 4.35132 6.95988C4.60882 7.12072 4.76192 7.21162 5.15165 7.21162C5.54137 7.21162 5.69448 7.12072 5.95197 6.95988C6.2721 6.77108 6.70358 6.51234 7.47607 6.51234C8.24856 6.51234 8.68003 6.77108 8.9932 6.95988C9.2507 7.11372 9.41077 7.21162 9.79353 7.21162C10.1763 7.21162 10.3364 7.12072 10.5939 6.95988C10.6774 6.91093 10.7748 6.85499 10.8792 6.79905L6.41129 2.31664C5.33259 1.23276 4.3374 0.911087 2.59757 0.91808V2.66629C3.86417 2.65929 4.60882 2.93901 5.38131 3.71521L6.07724 4.41449ZM2.84115 9.65911C3.22391 9.65911 3.38397 9.75701 3.64147 9.91085C3.95464 10.0997 4.38612 10.3584 5.15861 10.3584C5.93109 10.3584 6.36257 10.0997 6.67574 9.91085C6.93324 9.75002 7.08634 9.65911 7.47607 9.65911C7.85883 9.65911 8.0189 9.75701 8.27639 9.91085C8.58956 10.0997 9.02104 10.3584 9.79353 10.3584C10.566 10.3584 10.9975 10.0997 11.3107 9.91085C11.5682 9.75002 11.7213 9.65911 12.111 9.65911C12.4938 9.65911 12.6538 9.75701 12.9113 9.91085C13.2245 10.0997 13.649 10.3514 14.4145 10.3584V8.95983C14.0318 8.95983 13.8717 8.86193 13.6142 8.70809C13.301 8.51928 12.8696 8.26055 12.0971 8.26055C11.3246 8.26055 10.8931 8.51928 10.5799 8.70809C10.3224 8.86892 10.1624 8.95983 9.77961 8.95983C9.39685 8.95983 9.23678 8.86193 8.97929 8.70809C8.66612 8.51928 8.23464 8.26055 7.46215 8.26055C6.68966 8.26055 6.25818 8.51928 5.94501 8.70809C5.68752 8.86892 5.53441 8.95983 5.14469 8.95983C4.76192 8.95983 4.60186 8.86193 4.34436 8.70809C4.03119 8.51928 3.59971 8.26055 2.82723 8.26055C2.05474 8.26055 1.62326 8.51928 1.31009 8.70809C1.05259 8.86892 0.899489 8.95983 0.509766 8.95983V10.3584C1.28225 10.3584 1.71373 10.0997 2.04082 9.91085C2.29832 9.75002 2.45838 9.65911 2.84115 9.65911ZM12.111 11.4073C11.3385 11.4073 10.907 11.6661 10.5939 11.8549C10.3364 12.0157 10.1763 12.1066 9.79353 12.1066C9.41077 12.1066 9.2507 12.0087 8.9932 11.8549C8.68003 11.6661 8.24856 11.4073 7.47607 11.4073C6.70358 11.4073 6.2721 11.6661 5.95197 11.8549C5.69448 12.0157 5.54137 12.1066 5.15165 12.1066C4.76192 12.1066 4.60882 12.0157 4.35132 11.8549C4.03815 11.6661 3.60667 11.4073 2.83419 11.4073C2.0617 11.4073 1.63022 11.6661 1.31009 11.8549C1.05259 12.0157 0.899489 12.1066 0.509766 12.1066V13.5052C1.28225 13.5052 1.71373 13.2464 2.03386 13.0576C2.29136 12.8968 2.45142 12.8059 2.83419 12.8059C3.21695 12.8059 3.37701 12.8968 3.63451 13.0576C3.94768 13.2464 4.37916 13.5052 5.15165 13.5052C5.92413 13.5052 6.35561 13.2464 6.67574 13.0576C6.93324 12.8968 7.08634 12.8059 7.47607 12.8059C7.85883 12.8059 8.0189 12.9038 8.27639 13.0576C8.58956 13.2464 9.02104 13.5052 9.79353 13.5052C10.566 13.5052 10.9905 13.2464 11.3107 13.0576C11.5682 12.8968 11.7213 12.8059 12.111 12.8059C12.4938 12.8059 12.6538 12.9038 12.9113 13.0576C13.2245 13.2464 13.656 13.5052 14.4285 13.5052V12.1066C14.0387 12.1066 13.8856 12.0157 13.6281 11.8549C13.315 11.6661 12.8835 11.4073 12.111 11.4073Z" fill="#3CAAE1"/>
</svg>
