<svg width="15" height="15" viewBox="0 0 15 15" fill="none" xmlns="http://www.w3.org/2000/svg">
<path fill-rule="evenodd" clip-rule="evenodd" d="M10.5874 12.925C9.74738 12.8941 7.3668 12.5651 4.87363 10.0725C2.38105 7.57935 2.05263 5.19935 2.02113 4.35877C1.97446 3.07777 2.95563 1.83352 4.08905 1.3476C4.22553 1.28867 4.375 1.26623 4.52277 1.28249C4.67055 1.29875 4.81156 1.35315 4.93196 1.44035C5.8653 2.12052 6.5093 3.14952 7.0623 3.9586C7.18397 4.13636 7.23599 4.35267 7.20846 4.56632C7.18092 4.77996 7.07574 4.97601 6.91296 5.1171L5.77488 5.96235C5.7199 6.00206 5.68119 6.06037 5.66596 6.12646C5.65072 6.19255 5.65999 6.26192 5.69205 6.32169C5.94988 6.7901 6.40838 7.48777 6.93338 8.01277C7.45838 8.53777 8.1893 9.0266 8.69038 9.3136C8.75321 9.34887 8.82716 9.35873 8.89703 9.34115C8.9669 9.32358 9.02739 9.2799 9.06605 9.2191L9.80688 8.09152C9.94308 7.9106 10.144 7.78939 10.3676 7.75329C10.5911 7.71719 10.82 7.769 11.0062 7.89785C11.827 8.46602 12.7848 9.09894 13.486 9.99669C13.5802 10.118 13.6402 10.2623 13.6596 10.4147C13.679 10.5671 13.6571 10.7219 13.5962 10.8629C13.108 12.0022 11.8725 12.9723 10.5874 12.925Z" fill="#3CAAE1"/>
</svg>
