<svg width="13" height="10" viewBox="0 0 13 10" fill="none" xmlns="http://www.w3.org/2000/svg">
<path d="M10.0417 3.875V1.25C10.0417 1.05109 9.96704 0.860322 9.8342 0.71967C9.70136 0.579018 9.52119 0.5 9.33333 0.5H0.833333C0.645472 0.5 0.465304 0.579018 0.332466 0.71967C0.199628 0.860322 0.125 1.05109 0.125 1.25V8.75C0.125 8.94891 0.199628 9.13968 0.332466 9.28033C0.465304 9.42098 0.645472 9.5 0.833333 9.5H9.33333C9.52119 9.5 9.70136 9.42098 9.8342 9.28033C9.96704 9.13968 10.0417 8.94891 10.0417 8.75V6.125L12.875 9.125V0.875L10.0417 3.875Z" fill="#3CAAE1"/>
</svg>
