<svg width="15" height="15" viewBox="0 0 15 15" fill="none" xmlns="http://www.w3.org/2000/svg">
<g clip-path="url(#clip0_8504_12579)">
<path d="M2.68229 7.9873C2.04062 7.9873 1.51562 7.4623 1.51562 6.82064V3.90397C1.51562 3.2623 2.04062 2.7373 2.68229 2.7373H7.34896C7.99062 2.7373 8.51562 3.2623 8.51562 3.90397V6.82064C8.51562 7.4623 7.99062 7.9873 7.34896 7.9873H6.18229V9.7373L4.43229 7.9873H2.68229ZM13.1823 11.4873C13.824 11.4873 14.349 10.9623 14.349 10.3206V7.40397C14.349 6.7623 13.824 6.2373 13.1823 6.2373H9.68229V6.82064C9.68229 8.10397 8.63229 9.15397 7.34896 9.15397V10.3206C7.34896 10.9623 7.87396 11.4873 8.51562 11.4873H9.68229V13.2373L11.4323 11.4873H13.1823Z" fill="#3CAAE1"/>
</g>
<defs>
<clipPath id="clip0_8504_12579">
<rect width="14" height="14" fill="white" transform="translate(0.933594 0.987305)"/>
</clipPath>
</defs>
</svg>
