<svg width="15" height="15" viewBox="0 0 15 15" fill="none" xmlns="http://www.w3.org/2000/svg">
<g clip-path="url(#clip0_8504_12599)">
<path d="M10.6003 10.326L12.0236 11.1485L11.5861 11.9068L9.72526 10.8335V8.68099H10.6003V10.326ZM14.3919 10.431C14.3919 12.6885 12.5661 14.5143 10.3086 14.5143C8.05109 14.5143 6.22526 12.6885 6.22526 10.431C6.22526 10.2327 6.24276 10.0402 6.27193 9.84766H1.55859V2.84766H12.0586V6.74432C13.4353 7.40349 14.3919 8.80349 14.3919 10.431ZM6.62193 8.68099C6.72693 8.47099 6.83776 8.27266 6.97193 8.08016C6.91943 8.09766 6.86693 8.09766 6.80859 8.09766C5.84026 8.09766 5.05859 7.31599 5.05859 6.34766C5.05859 5.37932 5.84026 4.59766 6.80859 4.59766C7.77693 4.59766 8.55859 5.37932 8.55859 6.34766C8.55859 6.49349 8.53526 6.63932 8.50026 6.77349C9.04859 6.50516 9.66109 6.34766 10.3086 6.34766C10.5069 6.34766 10.6994 6.36516 10.8919 6.39432V5.18099C10.5825 5.18099 10.2858 5.05807 10.067 4.83928C9.84818 4.62049 9.72526 4.32374 9.72526 4.01432H3.89193C3.89193 4.66182 3.37276 5.18099 2.72526 5.18099V7.51432C3.03468 7.51432 3.33143 7.63724 3.55022 7.85603C3.76901 8.07482 3.89193 8.37157 3.89193 8.68099H6.62193ZM13.2253 10.431C13.2253 8.82099 11.9186 7.51432 10.3086 7.51432C8.69859 7.51432 7.39193 8.82099 7.39193 10.431C7.39193 12.041 8.69859 13.3477 10.3086 13.3477C11.9186 13.3477 13.2253 12.041 13.2253 10.431Z" fill="#3CAAE1"/>
</g>
<defs>
<clipPath id="clip0_8504_12599">
<rect width="14" height="14" fill="white" transform="translate(0.390625 0.513672)"/>
</clipPath>
</defs>
</svg>
