<svg width="18" height="18" viewBox="0 0 18 18" fill="none" xmlns="http://www.w3.org/2000/svg">
<path d="M17.5666 13.5605C17.4133 14.7122 16.8411 15.7695 15.957 16.5347C15.0728 17.2999 13.9372 17.7208 12.7621 17.7187C5.93551 17.7187 0.381355 12.2277 0.381355 5.47861C0.379249 4.3169 0.804956 3.19415 1.57897 2.32007C2.35298 1.44599 3.42236 0.88034 4.58738 0.728778C4.88198 0.693215 5.18032 0.752801 5.43786 0.898642C5.69539 1.04448 5.89831 1.26876 6.01633 1.53798L7.83217 5.54576V5.55596C7.92252 5.76205 7.95984 5.98705 7.94079 6.21087C7.92173 6.43469 7.8469 6.65036 7.72298 6.83862C7.70751 6.86157 7.69117 6.88282 7.67397 6.90407L5.88392 9.00188C6.52789 10.2956 7.89666 11.6369 9.22243 12.2753L11.3151 10.5149C11.3357 10.4978 11.3572 10.4819 11.3796 10.4673C11.5699 10.3418 11.7888 10.2653 12.0165 10.2445C12.2442 10.2237 12.4736 10.2594 12.6839 10.3483L12.6951 10.3534L16.7455 12.1478C17.0183 12.264 17.2457 12.4645 17.3937 12.7191C17.5417 12.9737 17.6023 13.2689 17.5666 13.5605Z" fill="#3CAAE1"/>
</svg>
