<svg width="76" height="50" viewBox="0 0 76 50" fill="none" xmlns="http://www.w3.org/2000/svg">
<path d="M66.1519 29.6567C66.3771 28.5986 66.4904 27.5198 66.4901 26.4381C66.4901 24.431 66.0948 22.4436 65.3268 20.5894C64.5587 18.7351 63.4329 17.0503 62.0138 15.6311C60.5946 14.2119 58.9097 13.0862 57.0555 12.3181C55.2012 11.5501 53.2139 11.1547 51.2068 11.1547C50.2595 11.1557 49.3142 11.2432 48.3828 11.4161C47.9933 11.3444 47.5987 11.4161 47.1938 11.37C45.7533 8.24009 43.4401 5.5925 40.5317 3.74513C37.6234 1.89776 34.2437 0.929149 30.7983 0.955606C28.4387 0.944139 26.1001 1.3983 23.9164 2.29208C21.7326 3.18586 19.7467 4.50169 18.0722 6.1642C16.3978 7.82671 15.0679 9.80324 14.1585 11.9806C13.2492 14.1579 12.7784 16.4932 12.773 18.8528C12.773 18.986 12.773 19.0527 12.773 19.1859C9.0446 19.8444 5.70001 21.8805 3.40294 24.8901C1.10588 27.8998 0.0242339 31.663 0.372654 35.4331C0.721074 39.2031 2.47409 42.7044 5.28383 45.2421C8.09357 47.7798 11.7547 49.1684 15.5406 49.1324H65.255C67.8376 49.25 70.3612 48.3368 72.2705 46.5937C74.1799 44.8507 75.3186 42.4205 75.4362 39.8379C75.5537 37.2552 74.6405 34.7317 72.8975 32.8223C71.1544 30.913 68.7243 29.7743 66.1416 29.6567H66.1519Z" fill="#3CAAE1"/>
</svg>
