<svg width="28" height="36" viewBox="0 0 28 36" fill="none" xmlns="http://www.w3.org/2000/svg">
<path d="M12.6561 1.29807C13.408 0.799081 14.3923 0.799081 15.1442 1.29807L16.3609 2.09782C16.771 2.36441 17.2495 2.49428 17.7348 2.46694L19.1908 2.37808C20.0931 2.32339 20.9407 2.81555 21.344 3.62213L22.0002 4.92771C22.2189 5.36518 22.5744 5.71379 23.005 5.93253L24.3242 6.59557C25.1308 6.99886 25.623 7.84646 25.5683 8.74875L25.4794 10.2047C25.4521 10.69 25.582 11.1753 25.8485 11.5786L26.6551 12.7954C27.1541 13.5473 27.1541 14.5316 26.6551 15.2835L25.8485 16.507C25.582 16.9171 25.4521 17.3956 25.4794 17.881L25.5683 19.3369C25.623 20.2392 25.1308 21.0868 24.3242 21.4901L23.0187 22.1463C22.5812 22.365 22.2326 22.7205 22.0138 23.1511L21.3508 24.4704C20.9475 25.2769 20.0999 25.7691 19.1976 25.7144L17.7417 25.6256C17.2563 25.5982 16.771 25.7281 16.3677 25.9947L15.151 26.8013C14.3991 27.3002 13.4148 27.3002 12.6629 26.8013L11.4394 25.9947C11.0292 25.7281 10.5507 25.5982 10.0654 25.6256L8.60946 25.7144C7.70718 25.7691 6.85958 25.2769 6.45628 24.4704L5.80008 23.1648C5.58134 22.7273 5.2259 22.3787 4.79526 22.16L3.47601 21.4969C2.66943 21.0936 2.17727 20.246 2.23195 19.3437L2.32082 17.8878C2.34816 17.4025 2.21828 16.9172 1.9517 16.5139L1.15195 15.2903C0.652958 14.5384 0.652958 13.5541 1.15195 12.8022L1.9517 11.5855C2.21828 11.1753 2.34816 10.6969 2.32082 10.2115L2.23195 8.75558C2.17727 7.8533 2.66943 7.0057 3.47601 6.60241L4.78159 5.9462C5.21906 5.72063 5.57451 5.36518 5.79324 4.92771L6.44945 3.62213C6.85274 2.81555 7.70034 2.32339 8.60262 2.37808L10.0586 2.46694C10.5439 2.49428 11.0292 2.36441 11.4325 2.09782L12.6561 1.29807ZM19.3685 14.0462C19.3685 12.5959 18.7924 11.205 17.7669 10.1795C16.7413 9.15399 15.3504 8.57786 13.9001 8.57786C12.4498 8.57786 11.0589 9.15399 10.0334 10.1795C9.00787 11.205 8.43174 12.5959 8.43174 14.0462C8.43174 15.4966 9.00787 16.8875 10.0334 17.913C11.0589 18.9385 12.4498 19.5146 13.9001 19.5146C15.3504 19.5146 16.7413 18.9385 17.7669 17.913C18.7924 16.8875 19.3685 15.4966 19.3685 14.0462ZM0.864858 31.1213L3.81095 24.1149C3.82462 24.1217 3.83146 24.1286 3.83829 24.1423L4.4945 25.4478C5.29425 27.0337 6.95527 27.9975 8.7325 27.8949L10.1885 27.8061C10.2021 27.8061 10.2226 27.8061 10.2363 27.8197L11.453 28.6263C11.8016 28.8519 12.1707 29.0296 12.5535 29.1527L9.98339 35.2567C9.82618 35.6327 9.47757 35.8856 9.07427 35.9198C8.67098 35.954 8.28136 35.7694 8.06262 35.4276L5.8616 32.0577L2.02689 32.6251C1.63727 32.6798 1.24764 32.5226 1.00157 32.215C0.75549 31.9074 0.707642 31.4836 0.858022 31.1213H0.864858ZM17.8169 35.2499L15.2467 29.1527C15.6295 29.0296 15.9986 28.8587 16.3472 28.6263L17.5639 27.8197C17.5776 27.8129 17.5913 27.8061 17.6118 27.8061L19.0677 27.8949C20.845 27.9975 22.506 27.0337 23.3057 25.4478L23.962 24.1423C23.9688 24.1286 23.9756 24.1217 23.9893 24.1149L26.9422 31.1213C27.0926 31.4836 27.0379 31.9005 26.7987 32.215C26.5594 32.5294 26.163 32.6866 25.7734 32.6251L21.9387 32.0577L19.7376 35.4208C19.5189 35.7626 19.1293 35.9471 18.726 35.913C18.3227 35.8788 17.9741 35.619 17.8169 35.2499Z" fill="#3CAAE1"/>
</svg>
