<svg width="34" height="34" viewBox="0 0 34 34" fill="none" xmlns="http://www.w3.org/2000/svg">
<rect x="0.731445" y="0.714844" width="33.2235" height="33.2235" rx="14.4782" fill="#2AABEE"/>
<path d="M22.9772 16.4208L22.0163 22.5065C22.0163 22.5065 21.9095 23.3607 21.2689 23.5742C20.5216 23.5742 19.8809 23.3607 19.3471 22.9336C19.2403 22.8268 16.4644 21.1186 15.5035 20.2644C15.1832 20.0509 15.0764 19.6238 15.2899 19.1967C15.3967 19.09 15.3967 18.9832 15.5035 18.9832C16.8915 17.702 18.493 16.1005 19.5606 15.1396C19.9877 14.7125 20.5216 13.6448 18.5997 14.926L13.1546 18.5561C12.6207 18.7697 11.9801 18.7697 11.3395 18.5561C10.0583 18.2358 8.7771 17.702 8.7771 17.702C8.7771 17.702 7.81619 17.1681 9.41771 16.5275L18.3862 12.7907C19.2403 12.3636 22.3366 11.1892 22.3366 11.1892C22.3366 11.1892 23.7246 10.6553 23.6178 11.9365C23.6178 12.4704 23.2975 14.3922 22.9772 16.4208Z" fill="white"/>
</svg>
