<svg width="36" height="32" viewBox="0 0 36 32" fill="none" xmlns="http://www.w3.org/2000/svg">
<path d="M7.90329 31.9238V28.4794H15.7763V23.1405C14.1689 22.8248 12.734 22.2294 11.4717 21.3545C10.2094 20.4797 9.28238 19.3815 8.69059 18.0599C6.23027 17.8016 4.17214 16.8618 2.51618 15.2407C0.86022 13.6195 0.0315856 11.7176 0.0302734 9.53494V7.81272C0.0302734 6.86549 0.416051 6.0549 1.18761 5.38094C1.95916 4.70698 2.88555 4.36942 3.96678 4.36827H7.90329V0.923828H27.5858V4.36827H31.5223C32.6049 4.36827 33.5319 4.70583 34.3035 5.38094C35.075 6.05605 35.4602 6.86664 35.4588 7.81272V9.53494C35.4588 11.7164 34.6302 13.6183 32.9729 15.2407C31.3157 16.863 29.2575 17.8028 26.7985 18.0599C26.208 19.3803 25.2817 20.4785 24.0194 21.3545C22.757 22.2306 21.3215 22.8259 19.7128 23.1405V28.4794H27.5858V31.9238H7.90329ZM7.90329 14.3572V7.81272H3.96678V9.53494C3.96678 10.6257 4.32763 11.6091 5.04932 12.4851C5.77101 13.3611 6.72234 13.9852 7.90329 14.3572ZM27.5858 14.3572C28.7668 13.984 29.7181 13.3594 30.4398 12.4834C31.1615 11.6073 31.5223 10.6245 31.5223 9.53494V7.81272H27.5858V14.3572Z" fill="#FC9F30"/>
</svg>
