<svg width="30" height="29" viewBox="0 0 30 29" fill="none" xmlns="http://www.w3.org/2000/svg">
<path d="M15.25 20.5417C15.891 20.5417 16.5056 20.2871 16.9589 19.8339C17.4121 19.3807 17.6667 18.766 17.6667 18.125C17.6667 17.4841 17.4121 16.8694 16.9589 16.4162C16.5056 15.963 15.891 15.7084 15.25 15.7084C14.6091 15.7084 13.9944 15.963 13.5412 16.4162C13.088 16.8694 12.8333 17.4841 12.8333 18.125C12.8333 18.766 13.088 19.3807 13.5412 19.8339C13.9944 20.2871 14.6091 20.5417 15.25 20.5417ZM22.5 9.66671C23.141 9.66671 23.7556 9.92132 24.2089 10.3745C24.6621 10.8277 24.9167 11.4424 24.9167 12.0834V24.1667C24.9167 24.8076 24.6621 25.4223 24.2089 25.8755C23.7556 26.3288 23.141 26.5834 22.5 26.5834H8.00001C7.35907 26.5834 6.74438 26.3288 6.29117 25.8755C5.83796 25.4223 5.58334 24.8076 5.58334 24.1667V12.0834C5.58334 11.4424 5.83796 10.8277 6.29117 10.3745C6.74438 9.92132 7.35907 9.66671 8.00001 9.66671H9.20834V7.25004C9.20834 5.64769 9.84487 4.11097 10.9779 2.97794C12.1109 1.8449 13.6477 1.20837 15.25 1.20837C16.0434 1.20837 16.829 1.36465 17.5621 1.66827C18.2951 1.97189 18.9611 2.41692 19.5221 2.97794C20.0831 3.53896 20.5282 4.20499 20.8318 4.93799C21.1354 5.671 21.2917 6.45664 21.2917 7.25004V9.66671H22.5ZM15.25 3.62504C14.2886 3.62504 13.3666 4.00696 12.6867 4.68678C12.0069 5.3666 11.625 6.28863 11.625 7.25004V9.66671H18.875V7.25004C18.875 6.28863 18.4931 5.3666 17.8133 4.68678C17.1335 4.00696 16.2114 3.62504 15.25 3.62504Z" fill="#1EA0DE"/>
</svg>
