<svg width="15" height="15" viewBox="0 0 15 15" fill="none" xmlns="http://www.w3.org/2000/svg">
<path d="M9.0996 7.5V12.0967C9.12294 12.2717 9.0646 12.4583 8.93044 12.5808C8.87647 12.6349 8.81237 12.6778 8.7418 12.7071C8.67123 12.7364 8.59559 12.7514 8.51919 12.7514C8.44279 12.7514 8.36714 12.7364 8.29657 12.7071C8.22601 12.6778 8.1619 12.6349 8.10794 12.5808L6.93544 11.4083C6.87185 11.3461 6.8235 11.27 6.79416 11.1861C6.76481 11.1021 6.75527 11.0124 6.76627 10.9242V7.5H6.74877L3.38877 3.195C3.29404 3.07339 3.2513 2.91923 3.26988 2.76621C3.28846 2.61318 3.36686 2.47374 3.48794 2.37833C3.59877 2.29667 3.72127 2.25 3.8496 2.25H12.0163C12.1446 2.25 12.2671 2.29667 12.3779 2.37833C12.499 2.47374 12.5774 2.61318 12.596 2.76621C12.6146 2.91923 12.5718 3.07339 12.4771 3.195L9.1171 7.5H9.0996Z" fill="#3CAAE1"/>
</svg>
