<svg width="16" height="14" viewBox="0 0 16 14" fill="none" xmlns="http://www.w3.org/2000/svg">
<path d="M10.3333 1.30469L15 2.80254V6.54717H12.6667V12.5386C12.6667 12.7372 12.5847 12.9277 12.4389 13.0682C12.293 13.2086 12.0952 13.2875 11.8889 13.2875H4.11111C3.90483 13.2875 3.707 13.2086 3.56114 13.0682C3.41528 12.9277 3.33333 12.7372 3.33333 12.5386V6.54717H1V2.80254L5.66667 1.30469C5.66667 1.90057 5.9125 2.47205 6.35008 2.8934C6.78767 3.31475 7.38116 3.55147 8 3.55147C8.61884 3.55147 9.21233 3.31475 9.64992 2.8934C10.0875 2.47205 10.3333 1.90057 10.3333 1.30469Z" stroke="#3CAAE1" stroke-width="1.06221" stroke-linecap="round" stroke-linejoin="round"/>
<path d="M6.83301 6.54688H8.77745L7.61079 10.2915" stroke="#3CAAE1" stroke-width="1.06221" stroke-linecap="round" stroke-linejoin="round"/>
</svg>
