<svg width="83" height="60" viewBox="0 0 83 60" fill="none" xmlns="http://www.w3.org/2000/svg">
<path fill-rule="evenodd" clip-rule="evenodd" d="M21.0529 9.11357C25.0723 5.09397 30.1716 2.32692 35.7324 1.14799C41.2932 -0.0309411 47.0767 0.428896 52.3813 2.47173C57.686 4.51457 62.284 8.05265 65.6177 12.6569C68.9514 17.2611 70.8776 22.7337 71.1627 28.411C74.8504 29.3667 78.0638 31.6326 80.2023 34.7852C82.3408 37.9379 83.2579 41.7614 82.7824 45.5411C82.3068 49.3207 80.471 52.7979 77.6182 55.3225C74.7654 57.847 71.0908 59.2463 67.2813 59.2587H20.2813C15.6597 59.2615 11.186 57.6297 7.65158 54.6519C4.11716 51.6741 1.74976 47.5423 0.96816 42.9872C0.186559 38.4322 1.04112 33.7475 3.38069 29.7618C5.72025 25.7761 9.39405 22.7463 13.7522 21.2082C15.1657 16.6428 17.6717 12.4912 21.0529 9.11357ZM36.7587 23.1979C36.02 22.4844 35.0307 22.0897 34.0037 22.0986C32.9768 22.1075 31.9945 22.5194 31.2683 23.2456C30.5421 23.9718 30.1302 24.9541 30.1213 25.9811C30.1123 27.008 30.5071 27.9974 31.2206 28.7361L36.2848 33.8003L31.2206 38.8646C30.8465 39.2259 30.5481 39.6581 30.3428 40.1359C30.1376 40.6138 30.0295 41.1277 30.025 41.6477C30.0205 42.1678 30.1196 42.6835 30.3165 43.1649C30.5134 43.6462 30.8043 44.0835 31.172 44.4513C31.5398 44.819 31.9771 45.1099 32.4584 45.3068C32.9398 45.5037 33.4555 45.6028 33.9755 45.5983C34.4956 45.5938 35.0095 45.4857 35.4874 45.2805C35.9652 45.0752 36.3974 44.7768 36.7587 44.4027L41.823 39.3385L46.8872 44.4027C47.6259 45.1162 48.6153 45.511 49.6422 45.502C50.6691 45.4931 51.6515 45.0812 52.3777 44.355C53.1039 43.6288 53.5158 42.6465 53.5247 41.6196C53.5336 40.5926 53.1388 39.6033 52.4254 38.8646L47.3611 33.8003L52.4254 28.7361C53.1388 27.9974 53.5336 27.008 53.5247 25.9811C53.5158 24.9541 53.1039 23.9718 52.3777 23.2456C51.6515 22.5194 50.6691 22.1075 49.6422 22.0986C48.6153 22.0897 47.6259 22.4844 46.8872 23.1979L41.823 28.2622L36.7587 23.1979Z" fill="#3CAAE1"/>
</svg>
