<svg width="72" height="66" viewBox="0 0 72 66" fill="none" xmlns="http://www.w3.org/2000/svg">
<path d="M65.2378 0.396729H6.73779C5.01547 0.401872 3.36515 1.08834 2.14728 2.30622C0.929408 3.52409 0.242937 5.1744 0.237793 6.89673V45.8967C0.242937 47.6191 0.929408 49.2694 2.14728 50.4872C3.36515 51.7051 5.01547 52.3916 6.73779 52.3967H29.4878V58.8967H22.9878V65.3967H48.9878V58.8967H42.4878V52.3967H65.2378C66.9601 52.3916 68.6104 51.7051 69.8283 50.4872C71.0462 49.2694 71.7327 47.6191 71.7378 45.8967V6.89673C71.7327 5.1744 71.0462 3.52409 69.8283 2.30622C68.6104 1.08834 66.9601 0.401872 65.2378 0.396729ZM31.9318 38.3112L16.4943 22.8737L21.0898 18.2815L31.9318 29.1235L50.8955 10.1565L55.4943 14.7552L31.9318 38.3112Z" fill="#3CAAE1"/>
</svg>
