<svg width="15" height="15" viewBox="0 0 15 15" fill="none" xmlns="http://www.w3.org/2000/svg">
<path d="M7.31979 11.013L10.6156 7.71719L9.76979 6.87135L7.30521 9.33594L6.08021 8.11094L5.24896 8.94219L7.31979 11.013ZM4.43229 13.3464C4.11146 13.3464 3.8369 13.2322 3.60862 13.0039C3.38035 12.7757 3.26601 12.5009 3.26562 12.1797V2.84635C3.26562 2.52552 3.37996 2.25097 3.60862 2.02269C3.83729 1.79441 4.11185 1.68008 4.43229 1.67969H9.09896L12.599 5.17969V12.1797C12.599 12.5005 12.4848 12.7753 12.2565 13.0039C12.0283 13.2326 11.7535 13.3467 11.4323 13.3464H4.43229ZM8.51562 5.76302H11.4323L8.51562 2.84635V5.76302Z" fill="#3CAAE1"/>
</svg>
