<svg width="69" height="69" viewBox="0 0 69 69" fill="none" xmlns="http://www.w3.org/2000/svg">
<path d="M21.7189 0.805176C19.465 0.805176 17.3034 1.70053 15.7097 3.29427C14.116 4.88801 13.2206 7.04959 13.2206 9.30348V60.2933C13.2206 62.5472 14.116 64.7088 15.7097 66.3025C17.3034 67.8962 19.465 68.7916 21.7189 68.7916H47.2138C49.4677 68.7916 51.6293 67.8962 53.223 66.3025C54.8168 64.7088 55.7121 62.5472 55.7121 60.2933V9.30348C55.7121 7.04959 54.8168 4.88801 53.223 3.29427C51.6293 1.70053 49.4677 0.805176 47.2138 0.805176H21.7189ZM0.473145 17.8018C0.473145 15.5479 1.3685 13.3863 2.96224 11.7926C4.55598 10.1988 6.71756 9.30348 8.97145 9.30348V60.2933C6.71756 60.2933 4.55598 59.3979 2.96224 57.8042C1.3685 56.2105 0.473145 54.0489 0.473145 51.795V17.8018ZM59.9613 60.2933V9.30348C62.2152 9.30348 64.3767 10.1988 65.9705 11.7926C67.5642 13.3863 68.4596 15.5479 68.4596 17.8018V51.795C68.4596 54.0489 67.5642 56.2105 65.9705 57.8042C64.3767 59.3979 62.2152 60.2933 59.9613 60.2933Z" fill="#3CAAE1"/>
</svg>
