<svg width="15" height="15" viewBox="0 0 15 15" fill="none" xmlns="http://www.w3.org/2000/svg">
<path fill-rule="evenodd" clip-rule="evenodd" d="M11.4323 6.7845V5.18034H12.3073V6.7845H13.9115V7.6595H12.3073V9.26367H11.4323V7.6595H9.82812V6.7845H11.4323ZM5.06346 7.71784C4.63412 7.20917 4.28646 6.25951 4.28646 5.59451V4.59701C4.28646 3.97817 4.53229 3.38467 4.96988 2.94709C5.40746 2.5095 6.00095 2.26367 6.61979 2.26367C7.23863 2.26367 7.83212 2.5095 8.26971 2.94709C8.70729 3.38467 8.95312 3.97817 8.95312 4.59701V5.59451C8.95312 6.25951 8.60313 7.21209 8.17613 7.71901L7.96554 7.96867C7.62138 8.37642 7.72871 8.89501 8.20996 9.12951L11.5116 10.7407C11.8704 10.9157 12.1615 11.3783 12.1615 11.7808V12.1815C12.1611 12.3361 12.0995 12.4843 11.99 12.5934C11.8805 12.7026 11.7322 12.7638 11.5775 12.7637H1.66146C1.50695 12.7637 1.35875 12.7024 1.24939 12.5932C1.14003 12.4841 1.07843 12.336 1.07812 12.1815V11.7808C1.07812 11.3812 1.36863 10.9157 1.72796 10.7401L5.02962 9.12892C5.50854 8.89559 5.61996 8.37759 5.27462 7.96809L5.06346 7.71784Z" fill="#3CAAE1"/>
</svg>
