<svg width="44" height="44" viewBox="0 0 44 44" fill="none" xmlns="http://www.w3.org/2000/svg">
<path d="M22.0416 0.333313C33.9583 0.333313 43.7083 10.0833 43.7083 22C43.7083 33.9166 33.9583 43.6666 22.0416 43.6666C10.1249 43.6666 0.374939 33.9166 0.374939 22C0.374939 10.0833 10.1249 0.333313 22.0416 0.333313ZM28.3683 23.755C26.0283 23.755 24.0999 25.38 23.5799 27.5466C22.4099 27.0483 21.3049 27.1783 20.5033 27.525C19.9833 25.3583 18.0333 23.755 15.7149 23.755C13.0066 23.755 10.8183 25.9433 10.8183 28.6516C10.8183 31.36 13.0066 33.5483 15.7149 33.5483C18.3149 33.5483 20.3949 31.5766 20.5899 29.0416C21.0233 28.76 22.1283 28.1966 23.4933 29.0633C23.5846 30.3323 24.1668 31.5159 25.1162 32.3628C26.0657 33.2098 27.3077 33.6536 28.5789 33.6C29.8501 33.5465 31.0504 32.9998 31.9253 32.076C32.8001 31.1522 33.2806 29.9239 33.2649 28.6516C33.2649 25.9433 31.0766 23.755 28.3683 23.755ZM15.7149 25.1416C17.7083 25.1416 19.2249 26.7233 19.2249 28.6516C19.2249 30.58 17.7083 32.1616 15.7149 32.1616C13.7866 32.1616 12.2049 30.58 12.2049 28.6516C12.2049 26.7233 13.7866 25.1416 15.7149 25.1416ZM28.3683 25.1416C30.2966 25.1416 31.8783 26.7233 31.8783 28.6516C31.8783 30.58 30.2966 32.1616 28.3683 32.1616C26.3749 32.1616 24.8583 30.58 24.8583 28.6516C24.8583 26.7233 26.3749 25.1416 28.3683 25.1416ZM34.6733 20.9166H9.40994V22.3683H34.6733V20.9166ZM26.6999 10.9283C26.5531 10.6116 26.297 10.3584 25.9787 10.2152C25.6603 10.0719 25.301 10.0482 24.9666 10.1483L22.0416 11.1666L19.1166 10.1483L19.0299 10.0833C18.6889 10.0091 18.3326 10.0603 18.0262 10.2274C17.7198 10.3945 17.4839 10.6664 17.3616 10.9933L14.1549 19.465H29.9283L26.7216 10.9933L26.6999 10.9283Z" fill="white"/>
</svg>
