<svg width="32" height="35" viewBox="0 0 32 35" fill="none" xmlns="http://www.w3.org/2000/svg">
<path d="M29.9362 22.3797L22.576 18.8688L19.4637 17.3841C20.8229 16.5278 21.927 15.2061 22.6494 13.6142C23.2525 12.2873 23.5642 10.8465 23.5635 9.38892C23.5635 8.53023 23.4272 7.71478 23.2373 6.928C22.3114 3.11536 19.334 0.306641 15.7596 0.306641C12.253 0.306641 9.32064 3.01525 8.3374 6.71932C8.11039 7.56908 7.95435 8.45268 7.95435 9.38892C7.95435 11.0146 8.33411 12.5304 8.97942 13.8488C9.72531 15.3781 10.8312 16.6391 12.1773 17.4499L9.19656 18.8378L1.5976 22.3769C0.937716 22.6862 0.503906 23.4306 0.503906 24.2621V32.6116C0.503906 33.7307 1.28364 34.6378 2.2462 34.6378H13.5323V28.2448C13.5343 28.179 13.5536 28.1148 13.5882 28.0587L13.5835 28.0559L15.432 24.8543L15.4367 24.8571C15.5025 24.7443 15.6196 24.6644 15.7596 24.6644C15.8997 24.6644 16.0167 24.7438 16.0825 24.8571L16.0844 24.8557L16.1013 24.8853L16.1088 24.8985L17.9329 28.0573L17.9306 28.0587C17.9653 28.1149 17.9846 28.1793 17.9865 28.2453V34.6383H29.2726C30.2352 34.6383 31.0154 33.7312 31.0154 32.6121V24.2621C31.0168 23.4335 30.59 22.696 29.9362 22.3797ZM17.932 20.2389L17.9367 20.2417L16.0877 23.4433L16.083 23.4405C16.0508 23.4981 16.004 23.5461 15.9473 23.5799C15.8906 23.6136 15.8261 23.6318 15.7601 23.6327C15.6942 23.6318 15.6296 23.6136 15.5729 23.5799C15.5163 23.5461 15.4694 23.4981 15.4372 23.4405L15.4349 23.4419L15.4161 23.4095L15.4104 23.4001L13.5864 20.2403L13.5882 20.2389C13.5535 20.1827 13.5342 20.1183 13.5323 20.0523C13.5323 19.8431 13.702 19.6735 13.9111 19.6735H17.6081C17.8173 19.6735 17.987 19.8431 17.987 20.0523C17.9862 20.1184 17.9672 20.183 17.932 20.2389Z" fill="white"/>
</svg>
