<svg width="15" height="14" viewBox="0 0 15 14" fill="none" xmlns="http://www.w3.org/2000/svg">
<path d="M1.03516 11.375C1.03516 11.491 1.08125 11.6023 1.1633 11.6844C1.24534 11.7664 1.35662 11.8125 1.47266 11.8125H12.8477C12.9637 11.8125 13.075 11.7664 13.157 11.6844C13.2391 11.6023 13.2852 11.491 13.2852 11.375V6.07031H1.03516V11.375ZM2.83984 7.60156C2.83984 7.54355 2.86289 7.48791 2.90391 7.44688C2.94494 7.40586 3.00058 7.38281 3.05859 7.38281H5.57422C5.63224 7.38281 5.68787 7.40586 5.7289 7.44688C5.76992 7.48791 5.79297 7.54355 5.79297 7.60156V9.35156C5.79297 9.40958 5.76992 9.46522 5.7289 9.50624C5.68787 9.54727 5.63224 9.57031 5.57422 9.57031H3.05859C3.00058 9.57031 2.94494 9.54727 2.90391 9.50624C2.86289 9.46522 2.83984 9.40958 2.83984 9.35156V7.60156ZM12.8477 2.1875H1.47266C1.35662 2.1875 1.24534 2.23359 1.1633 2.31564C1.08125 2.39769 1.03516 2.50897 1.03516 2.625V4.42969H13.2852V2.625C13.2852 2.50897 13.2391 2.39769 13.157 2.31564C13.075 2.23359 12.9637 2.1875 12.8477 2.1875Z" fill="#3CAAE1"/>
</svg>
