<svg width="91" height="62" viewBox="0 0 91 62" fill="none" xmlns="http://www.w3.org/2000/svg">
<path d="M79.0275 34.0989C79.2947 32.8438 79.4291 31.5642 79.4288 30.281C79.4288 27.9003 78.9599 25.543 78.0488 23.3435C77.1378 21.144 75.8024 19.1455 74.119 17.4621C72.4356 15.7787 70.4371 14.4433 68.2376 13.5323C66.0382 12.6212 63.6808 12.1523 61.3001 12.1523C60.1764 12.1535 59.0551 12.2573 57.9503 12.4624C57.4883 12.3773 57.0202 12.4624 56.5399 12.4076C54.8313 8.69502 52.0873 5.55451 48.6376 3.3632C45.1878 1.1719 41.1788 0.0229549 37.092 0.054337C34.2931 0.0407353 31.5191 0.579454 28.9288 1.63963C26.3385 2.69981 23.9828 4.26062 21.9966 6.23265C20.0105 8.20469 18.4329 10.5492 17.3543 13.1319C16.2756 15.7146 15.7171 18.4847 15.7108 21.2835C15.7108 21.4416 15.7108 21.5206 15.7108 21.6787C11.2882 22.4598 7.32095 24.8749 4.59623 28.4449C1.8715 32.0149 0.58848 36.4788 1.00177 40.9507C1.41506 45.4226 3.49444 49.5758 6.82729 52.5859C10.1601 55.5961 14.5028 57.2432 18.9936 57.2005H77.9637C81.0271 57.34 84.0205 56.2568 86.2854 54.1892C88.5502 52.1217 89.9009 49.2391 90.0404 46.1756C90.1798 43.1121 89.0966 40.1187 87.029 37.8539C84.9615 35.5891 82.0789 34.2384 79.0154 34.0989H79.0275Z" fill="#66B0F7"/>
<g clip-path="url(#clip0_8504_11412)">
<path d="M62.3188 50.433C62.53 49.4404 62.6364 48.4284 62.6361 47.4136C62.6361 45.5307 62.2652 43.6664 61.5447 41.9269C60.8242 40.1874 59.7681 38.6068 58.4368 37.2755C57.1054 35.9442 55.5249 34.8881 53.7854 34.1675C52.0459 33.447 50.1815 33.0762 48.2987 33.0762C47.41 33.0771 46.5233 33.1592 45.6495 33.3214C45.2841 33.2541 44.9139 33.3214 44.5341 33.2781C43.1828 30.3419 41.0127 27.8582 38.2844 26.1252C35.556 24.3921 32.3855 23.4835 29.1534 23.5083C26.9399 23.4976 24.746 23.9236 22.6974 24.7621C20.6488 25.6005 18.7857 26.8349 17.215 28.3945C15.6442 29.9541 14.3965 31.8083 13.5435 33.8509C12.6904 35.8934 12.2487 38.0842 12.2437 40.2978C12.2437 40.4228 12.2437 40.4853 12.2437 40.6103C8.74608 41.228 5.6085 43.1381 3.45361 45.9614C1.29872 48.7848 0.284022 52.3151 0.610876 55.8518C0.937731 59.3885 2.58225 62.6731 5.21808 65.0537C7.85392 67.4343 11.2884 68.737 14.84 68.7033H61.4774C63.9002 68.8136 66.2675 67.9569 68.0587 66.3217C69.8499 64.6865 70.9181 62.4068 71.0284 59.984C71.1387 57.5612 70.2821 55.1938 68.6469 53.4027C67.0117 51.6115 64.7319 50.5433 62.3092 50.433H62.3188Z" fill="#5EA2F6"/>
</g>
<defs>
<clipPath id="clip0_8504_11412">
<path d="M0.945312 29.8133C0.945312 26.319 3.77797 23.4863 7.27224 23.4863H56.3059C59.8002 23.4863 62.6328 26.319 62.6328 29.8133V48.0032C62.6328 55.4285 56.6134 61.4479 49.1881 61.4479H7.27224C3.77797 61.4479 0.945312 58.6152 0.945312 55.1209V29.8133Z" fill="white"/>
</clipPath>
</defs>
</svg>
