<svg width="15" height="15" viewBox="0 0 15 15" fill="none" xmlns="http://www.w3.org/2000/svg">
<path d="M13.4684 0.906006H3.46842C3.1148 0.906006 2.77566 1.04648 2.52562 1.29653C2.27557 1.54658 2.13509 1.88572 2.13509 2.23934V4.23934H0.801758V5.57267H2.13509V6.90601H0.801758V8.23934H2.13509V9.57267H0.801758V10.906H2.13509V12.906C2.13509 13.2596 2.27557 13.5988 2.52562 13.8488C2.77566 14.0989 3.1148 14.2393 3.46842 14.2393H13.4684C13.6452 14.2393 13.8148 14.1691 13.9398 14.0441C14.0649 13.9191 14.1351 13.7495 14.1351 13.5727V1.57267C14.1351 1.39586 14.0649 1.22629 13.9398 1.10127C13.8148 0.976244 13.6452 0.906006 13.4684 0.906006ZM8.13509 2.90534C9.23376 2.90534 10.1351 3.80601 10.1351 4.90534C10.1332 5.43524 9.92185 5.94289 9.54721 6.31766C9.17258 6.69242 8.66499 6.9039 8.13509 6.90601C7.03709 6.90601 6.13509 6.00401 6.13509 4.90534C6.13509 3.80601 7.03709 2.90534 8.13509 2.90534ZM12.1351 11.5727H4.13509V11.0727C4.13509 9.59334 5.93842 8.07267 8.13509 8.07267C10.3318 8.07267 12.1351 9.59334 12.1351 11.0727V11.5727Z" fill="#3CAAE1"/>
</svg>
