<svg width="60" height="61" viewBox="0 0 60 61" fill="none" xmlns="http://www.w3.org/2000/svg">
<rect y="0.5" width="60" height="60" rx="22" fill="#1EA0DE"/>
<path fill-rule="evenodd" clip-rule="evenodd" d="M20.5124 29.2489C26.418 26.7087 30.3559 25.034 32.3263 24.2249C37.9521 21.9147 39.1211 21.5134 39.883 21.5001C40.0506 21.4972 40.4253 21.5382 40.668 21.7327C40.873 21.8968 40.9294 22.1186 40.9563 22.2743C40.9833 22.43 41.0169 22.7846 40.9902 23.0616C40.6854 26.2241 39.3662 33.8986 38.6951 37.4406C38.4111 38.9394 37.852 39.4419 37.3107 39.4911C36.1343 39.598 35.2409 38.7235 34.1015 37.9861C32.3186 36.8323 31.3113 36.114 29.5807 34.988C27.5806 33.6868 28.8772 32.9716 30.017 31.8027C30.3153 31.4969 35.4986 26.8423 35.5989 26.42C35.6115 26.3672 35.6231 26.1704 35.5046 26.0664C35.3862 25.9625 35.2114 25.998 35.0852 26.0263C34.9064 26.0664 32.0581 27.925 26.5404 31.6022C25.7319 32.1503 24.9996 32.4174 24.3435 32.4034C23.6202 32.388 22.2288 31.9996 21.1945 31.6677C19.9258 31.2606 18.9175 31.0453 19.0053 30.3539C19.0511 29.9937 19.5534 29.6254 20.5124 29.2489Z" fill="white"/>
</svg>
