<svg width="10" height="12" viewBox="0 0 10 12" fill="none" xmlns="http://www.w3.org/2000/svg">
<path d="M0.421875 2.56641L1.8374 5.09656V6.63988L0.423531 9.16507L0.421875 2.56641Z" fill="#5B57A2"/>
<path d="M5.85938 4.17682L7.18577 3.36386L9.90032 3.36133L5.85938 5.83684V4.17682Z" fill="#D90751"/>
<path d="M5.84884 2.55184L5.85634 5.90168L4.4375 5.02988V0.0224609L5.84884 2.55184Z" fill="#FAB718"/>
<path d="M9.89728 3.36071L7.18263 3.36324L5.84884 2.55184L4.4375 0.0224609L9.89728 3.36071Z" fill="#ED6F26"/>
<path d="M5.85634 9.1797V7.55446L4.4375 6.69922L4.43828 11.7116L5.85634 9.1797Z" fill="#63B22F"/>
<path d="M7.18 8.37354L1.8373 5.09656L0.421875 2.56641L9.89211 8.37023L7.18 8.37354Z" fill="#1487C9"/>
<path d="M4.44141 11.7119L5.85927 9.17996L7.18235 8.37441L9.89446 8.37109L4.44141 11.7119Z" fill="#017F36"/>
<path d="M0.425781 9.16599L4.45192 6.69964L3.09835 5.86914L1.83965 6.6408L0.425781 9.16599Z" fill="#984995"/>
</svg>
