<svg width="30" height="30" viewBox="0 0 30 30" fill="none" xmlns="http://www.w3.org/2000/svg">
<rect x="0.256836" y="0.967773" width="28.9565" height="28.9565" rx="14.4782" fill="#FF0000"/>
<path d="M22.1669 11.7122C22.0785 11.3835 21.9052 11.0838 21.6645 10.8431C21.4238 10.6024 21.1241 10.4292 20.7954 10.3408C19.5857 10.0166 14.7348 10.0166 14.7348 10.0166C14.7348 10.0166 9.88387 10.0166 8.67413 10.3408C8.34544 10.4292 8.04575 10.6024 7.80506 10.8431C7.56438 11.0838 7.39115 11.3835 7.30272 11.7122C6.97852 12.922 6.97852 15.446 6.97852 15.446C6.97852 15.446 6.97852 17.97 7.30266 19.1797C7.39109 19.5084 7.56433 19.8081 7.80503 20.0488C8.04572 20.2895 8.34542 20.4627 8.67413 20.5511C9.88387 20.8753 14.7348 20.8753 14.7348 20.8753C14.7348 20.8753 19.5857 20.8753 20.7954 20.5511C21.1241 20.4627 21.4238 20.2895 21.6645 20.0488C21.9052 19.8081 22.0785 19.5084 22.1669 19.1797C22.4911 17.97 22.4911 15.446 22.4911 15.446C22.4911 15.446 22.4911 12.922 22.1669 11.7122Z" fill="white"/>
<path d="M13.1836 17.7728L17.2137 15.4461L13.1836 13.1191V17.7728Z" fill="#FF0000"/>
</svg>
