<svg width="18" height="18" viewBox="0 0 18 18" fill="none" xmlns="http://www.w3.org/2000/svg">
<path d="M15.5047 0.71875H2.28244C1.24355 0.71875 0.393555 1.56875 0.393555 2.60764V15.8299C0.393555 16.8687 1.24355 17.7188 2.28244 17.7188H15.5047C16.5436 17.7188 17.3936 16.8687 17.3936 15.8299V2.60764C17.3936 1.56875 16.5436 0.71875 15.5047 0.71875ZM4.17133 4.49653H6.06022V6.38542H4.17133V4.49653ZM4.17133 8.27431H6.06022V10.1632H4.17133V8.27431ZM4.17133 12.0521H6.06022V13.941H4.17133V12.0521ZM13.6158 13.941H7.94911V12.0521H13.6158V13.941ZM13.6158 10.1632H7.94911V8.27431H13.6158V10.1632ZM13.6158 6.38542H7.94911V4.49653H13.6158V6.38542Z" fill="#ffffff"/>
</svg>
