<svg width="375" height="227" viewBox="0 0 375 227" fill="none" xmlns="http://www.w3.org/2000/svg">
<path d="M269.38 159.484C238.996 159.484 208.611 159.462 178.229 159.494C168.57 159.505 158.999 158.813 149.558 156.659C132.61 152.793 118.612 144.11 107.377 130.906C98.7039 120.712 93.0043 109.045 90.2803 95.9502C87.6915 83.499 88.089 71.1352 91.4197 58.8403C93.9211 49.6085 97.9805 41.1214 103.564 33.4079C111.971 21.794 122.745 12.9782 135.891 7.19117C152.833 -0.270558 170.351 -1.58749 188.218 3.06814C203.627 7.07988 216.624 15.2199 227.201 27.1253C237.689 38.9274 244.019 52.7194 246.386 68.3106C246.86 71.4426 246.916 74.6382 247.186 77.8046C247.273 78.8354 246.86 79.2223 245.821 79.217C239.682 79.1878 233.545 79.1772 227.405 79.2196C226.205 79.2276 225.805 78.8063 225.752 77.6139C225.156 64.1266 220.614 52.1073 211.684 41.9799C198.597 27.1359 182.023 20.4585 162.293 22.1385C149.166 23.2567 137.695 28.5032 128.275 37.6926C112.098 53.4745 106.552 72.6429 111.99 94.5008C116.012 110.675 125.949 122.708 140.581 130.771C148.437 135.1 157.041 136.841 165.838 137.61C171.193 138.079 176.596 138.164 181.978 138.169C245.44 138.203 308.904 138.19 372.366 138.187C374.523 138.187 374.499 138.187 374.494 140.294C374.481 145.991 374.488 151.688 374.486 157.385C374.486 159.473 374.47 159.484 372.459 159.484C338.099 159.484 303.74 159.484 269.383 159.484H269.38Z" fill="#F13A00"/>
<path d="M270.306 125.715C241.161 125.715 212.016 125.76 182.872 125.686C175.421 125.667 167.946 125.742 160.55 124.454C145.245 121.791 133.978 113.516 127.174 99.6388C120.16 85.3354 120.573 70.7935 128.639 57.1366C138.186 40.9678 152.85 33.3285 171.679 34.5818C184.745 35.451 195.371 41.4474 203.529 51.6383C209.555 59.1663 212.695 67.8681 213.227 77.5C213.315 79.066 213.164 79.1985 211.664 79.1985C205.925 79.1985 200.183 79.1694 194.443 79.2303C193.132 79.2436 192.705 78.8037 192.591 77.5106C191.213 61.7922 175.619 51.4025 160.508 56.0979C143.976 61.2331 137.707 81.4588 148.401 95.0521C152.686 100.497 158.335 103.51 165.097 104.255C170.174 104.814 175.307 105.105 180.413 105.111C243.427 105.166 306.443 105.148 369.457 105.148C370.737 105.148 372.02 105.169 373.299 105.148C374.124 105.134 374.497 105.463 374.494 106.324C374.476 112.374 374.471 118.423 374.492 124.472C374.494 125.389 374.137 125.747 373.239 125.723C372.004 125.689 370.766 125.715 369.529 125.715C336.455 125.715 303.378 125.715 270.303 125.715H270.306Z" fill="#F13A00"/>
<path d="M76.0565 79.9084C76.0565 105.828 76.0565 131.746 76.0565 157.666C76.0565 159.332 75.9743 159.417 74.2228 159.42C68.2609 159.42 62.3016 159.417 56.3396 159.409C54.612 159.409 54.5457 159.335 54.5484 157.623C54.5563 113.955 54.5616 70.2844 54.5696 26.6164C54.5696 25.5564 54.5113 24.4939 54.5802 23.4393C54.6543 22.2601 54.2728 21.8494 53.0088 21.86C43.9573 21.9183 34.9057 21.8918 25.8541 21.8918C23.6654 21.8918 23.6601 21.8839 23.6601 19.6952C23.6601 13.7332 23.676 7.7739 23.6495 1.81193C23.6442 0.775878 23.9171 0.336002 25.0724 0.338652C41.6758 0.365149 58.2766 0.351901 74.88 0.322754C75.7676 0.322754 76.0671 0.680483 76.0538 1.49396C76.0379 2.46377 76.0565 3.43624 76.0565 4.4087C76.0565 29.5761 76.0565 54.7462 76.0565 79.9137V79.9084Z" fill="#F13A00"/>
<path d="M44.3551 95.7279C44.3551 116.213 44.3577 136.699 44.3551 157.184C44.3551 159.423 44.3471 159.41 42.0789 159.407C36.6496 159.404 31.2176 159.418 25.7882 159.415C23.6816 159.415 23.6684 159.399 23.6684 157.314C23.6657 123.847 23.6631 90.3833 23.6631 56.9168C23.6631 56.0345 23.6048 55.1468 23.679 54.2697C23.777 53.1065 23.3186 52.7355 22.1633 52.7435C15.7164 52.7832 9.27223 52.762 2.82536 52.7594C1.2673 52.7594 0.490033 51.9998 0.493566 50.4806C0.493566 44.9187 0.488267 39.3542 0.493566 33.7924C0.493566 32.1283 0.57836 32.0488 2.19206 32.0488C15.6582 32.0488 29.1242 32.0515 42.5903 32.0568C44.2782 32.0568 44.3524 32.1257 44.3524 33.8745C44.3551 54.4923 44.3524 75.1101 44.3577 95.7279H44.3551Z" fill="#F13A00"/>
<path d="M353.722 39.4307C353.722 26.9345 353.72 14.4355 353.725 1.93926C353.725 0.19042 353.749 0.182467 355.519 0.179817C361.216 0.174518 366.913 0.177168 372.61 0.179817C373.866 0.179817 374.493 0.823704 374.491 2.11149C374.489 26.4443 374.486 50.777 374.483 75.1098C374.483 75.9498 374.483 76.7871 374.491 77.6271C374.502 78.4034 374.118 78.7426 373.352 78.7399C367.17 78.732 360.985 78.732 354.804 78.7346C354.022 78.7346 353.685 78.3504 353.699 77.5873C353.715 76.6599 353.709 75.7325 353.709 74.8051C353.709 63.0136 353.709 51.2222 353.709 39.4334H353.717L353.722 39.4307Z" fill="#F13A00"/>
<path d="M344.849 55.825C344.849 62.884 344.849 69.9456 344.849 77.0046C344.849 78.6315 344.748 78.7428 343.132 78.7428C337.307 78.7454 331.481 78.711 325.656 78.7587C324.392 78.7693 323.982 78.348 323.984 77.0787C324.019 62.8707 324.006 48.6627 324.008 34.4547C324.008 32.8039 324.096 32.7111 325.712 32.7085C331.494 32.7005 337.273 32.7005 343.055 32.7058C344.759 32.7058 344.83 32.7986 344.83 34.513C344.83 41.617 344.83 48.721 344.83 55.825H344.849Z" fill="#F13A00"/>
<path d="M332.292 196.201C332.292 200.613 332.329 205.028 332.268 209.44C332.252 210.669 332.554 211.199 333.881 211.128C335.755 211.027 335.771 211.114 335.771 213.043C335.771 217.06 335.776 221.075 335.781 225.092C335.781 226.698 335.691 226.796 334.043 226.801C332.676 226.806 331.306 226.769 329.939 226.801C328.974 226.825 328.582 226.403 328.593 225.46C328.614 223.298 328.569 221.136 328.606 218.974C328.622 218.091 328.354 217.702 327.405 217.704C320.434 217.72 313.46 217.71 306.488 217.678C305.553 217.672 305.248 218.078 305.259 218.955C305.285 221.03 305.214 223.105 305.28 225.177C305.317 226.356 304.943 226.888 303.701 226.825C302.249 226.751 300.789 226.785 299.334 226.809C298.436 226.825 298.07 226.435 298.075 225.537C298.096 221.125 298.091 216.711 298.081 212.299C298.081 211.56 298.34 211.03 299.135 211.125C302.18 211.493 303.218 209.275 304.117 207.121C305.566 203.655 305.855 199.93 306.032 196.223C306.25 191.729 306.398 187.229 306.509 182.73C306.539 181.548 306.915 181.114 308.139 181.122C315.598 181.169 323.057 181.143 330.514 181.148C332.212 181.148 332.27 181.228 332.27 182.963C332.265 187.378 332.27 191.79 332.27 196.204H332.294L332.292 196.201ZM310.619 210.844C310.884 210.892 311.218 211.006 311.555 211.006C315.527 211.022 319.496 211 323.468 211.038C324.488 211.045 324.591 210.497 324.591 209.691C324.581 202.852 324.576 196.013 324.607 189.174C324.613 188.122 324.207 187.791 323.198 187.81C320.683 187.852 318.168 187.81 315.654 187.818C313.576 187.826 313.653 187.842 313.515 189.953C313.2 194.789 312.938 199.636 312.384 204.448C312.138 206.591 311.245 208.658 310.622 210.844H310.619Z" fill="#F13A00"/>
<path d="M89.3584 200.43C89.5068 195.229 90.1613 191.177 92.4242 187.518C94.0591 184.874 96.2822 182.902 99.144 181.752C104.502 179.598 113.026 179.807 117.764 186.167C119.203 188.098 120.278 190.457 120.928 192.783C122.306 197.728 122.178 202.77 120.522 207.659C118.077 214.872 112.062 218.767 104.383 218.285C97.1752 217.831 91.8863 213.303 90.1957 205.984C89.7029 203.846 89.5333 201.633 89.3584 200.433V200.43ZM113.985 199.4C113.62 197.373 113.455 195.282 112.851 193.326C111.1 187.643 104.992 185.716 100.683 189.429C98.8922 190.971 98.1689 193.138 97.8111 195.383C97.0957 199.874 97.1593 204.312 99.8303 208.247C102.822 212.651 109.335 212.145 111.905 207.466C113.294 204.935 113.71 202.251 113.985 199.402V199.4Z" fill="#F13A00"/>
<path d="M296.048 198.417C295.998 203.626 295.434 207.373 293.428 210.727C289.983 216.488 284.734 218.796 278.192 218.221C271.435 217.627 266.742 213.732 264.808 207.201C263.141 201.578 263.202 195.947 265.255 190.425C267.569 184.203 272.773 180.695 279.402 180.592C285.468 180.496 290.248 182.772 293.369 188.046C295.5 191.641 296.093 195.653 296.051 198.419L296.048 198.417ZM271.694 198.894C271.686 201.583 271.888 204.482 273.327 207.129C274.736 209.721 276.843 211.281 279.895 211.268C282.905 211.255 285.046 209.713 286.3 207.113C288.738 202.057 288.772 196.835 286.44 191.771C284.045 186.567 277.214 186.077 273.835 190.727C272.118 193.091 271.851 195.857 271.694 198.894Z" fill="#F13A00"/>
<path d="M21.9069 199.476C21.9069 193.915 21.9361 188.353 21.8831 182.791C21.8698 181.511 22.3177 181.116 23.571 181.122C32.4874 181.159 41.4039 181.156 50.3203 181.116C51.6081 181.111 51.9923 181.591 51.9897 182.828C51.9579 193.864 51.9738 204.898 51.9658 215.934C51.9658 217.524 51.7671 217.707 50.2303 217.707C48.7729 217.707 47.3182 217.699 45.8608 217.691C44.263 217.68 44.1861 217.601 44.1861 215.926C44.1861 207.717 44.2047 199.506 44.1808 191.297C44.1702 187.481 44.6631 188.051 40.8766 188C37.6995 187.958 34.5198 188.006 31.3427 187.939C30.0391 187.913 29.6045 188.35 29.6125 189.701C29.6681 198.398 29.6363 207.092 29.6363 215.788C29.6363 217.585 29.5462 217.688 27.8027 217.699C26.3453 217.707 24.8879 217.656 23.4332 217.712C22.2991 217.755 21.8778 217.328 21.8884 216.167C21.9308 210.605 21.9069 205.044 21.9069 199.482V199.476Z" fill="#F13A00"/>
<path d="M355.901 181.146C356.828 181.146 357.759 181.204 358.681 181.132C359.775 181.045 360.371 181.479 360.758 182.51C364.947 193.658 369.174 204.795 373.376 215.937C373.962 217.49 373.798 217.688 372.147 217.691C370.647 217.694 369.142 217.625 367.647 217.715C366.232 217.8 365.469 217.299 365.093 215.873C364.656 214.215 363.954 212.63 363.397 211C363.151 210.277 362.732 209.964 361.94 209.97C357.835 210.002 353.731 210.002 349.626 209.98C348.792 209.978 348.344 210.309 348.084 211.104C347.509 212.863 346.791 214.583 346.277 216.358C345.967 217.423 345.379 217.736 344.361 217.71C342.729 217.665 341.097 217.707 339.465 217.696C337.946 217.688 337.753 217.394 338.304 215.958C340.371 210.563 342.451 205.171 344.504 199.771C346.667 194.082 348.839 188.393 350.927 182.675C351.37 181.464 351.995 180.981 353.259 181.122C354.131 181.22 355.021 181.14 355.906 181.143L355.901 181.146ZM355.935 189.765C355.819 189.771 355.705 189.773 355.588 189.779C354.006 194.349 352.427 198.923 350.808 203.602H360.758C359.099 198.849 357.517 194.307 355.935 189.765Z" fill="#F13A00"/>
<path d="M127.192 199.312C127.192 193.835 127.187 188.361 127.195 182.884C127.195 181.249 127.319 181.14 128.92 181.14C136.384 181.14 143.846 181.143 151.31 181.148C153.062 181.148 153.12 181.212 153.117 182.91C153.117 184.058 153.067 185.21 153.128 186.355C153.189 187.5 152.741 187.913 151.586 187.902C146.774 187.857 141.959 187.884 137.145 187.886C135.687 187.886 134.955 188.597 134.948 190.017C134.943 191.254 134.996 192.492 134.932 193.727C134.876 194.805 135.255 195.197 136.368 195.176C139.635 195.115 142.905 195.189 146.172 195.136C147.253 195.12 147.696 195.467 147.643 196.572C147.582 197.85 147.595 199.135 147.662 200.412C147.722 201.58 147.216 201.954 146.09 201.938C142.868 201.885 139.643 201.946 136.419 201.888C135.343 201.869 134.903 202.19 134.937 203.313C135.001 205.298 135.012 207.291 134.932 209.273C134.884 210.47 135.271 210.894 136.503 210.881C141.58 210.825 146.66 210.868 151.739 210.855C153.658 210.849 153.732 210.9 153.735 212.86C153.735 213.92 153.676 214.983 153.748 216.04C153.835 217.317 153.308 217.728 152.05 217.72C144.808 217.675 137.566 217.699 130.321 217.691C127.052 217.688 127.184 218.125 127.189 214.548C127.197 209.469 127.189 204.392 127.189 199.312H127.192Z" fill="#F13A00"/>
<path d="M165.759 196.977C166.771 195.714 167.786 194.452 168.793 193.186C171.676 189.561 174.577 185.949 177.418 182.29C178.088 181.426 178.827 181.092 179.895 181.129C181.702 181.193 183.515 181.137 185.325 181.143C185.749 181.143 186.173 181.201 186.994 181.259C186.448 182.062 186.112 182.64 185.696 183.154C181.671 188.125 177.648 193.098 173.586 198.037C172.929 198.838 173.279 199.336 173.774 199.982C177.818 205.279 181.843 210.589 185.852 215.91C186.151 216.308 186.292 216.822 186.506 217.283C185.977 217.418 185.452 217.662 184.919 217.672C182.935 217.72 180.942 217.765 178.963 217.646C178.324 217.606 177.503 217.216 177.129 216.716C173.44 211.761 169.832 206.75 166.196 201.758C166.003 201.493 165.769 201.257 165.34 200.753C165.282 201.487 165.218 201.906 165.218 202.325C165.229 206.914 165.221 211.506 165.29 216.096C165.308 217.338 164.805 217.744 163.642 217.701C162.187 217.651 160.724 217.63 159.272 217.701C158.011 217.765 157.582 217.299 157.587 216.019C157.632 207.985 157.611 199.951 157.611 191.916C157.611 188.827 157.643 185.735 157.59 182.645C157.568 181.487 157.998 181.066 159.142 181.119C160.597 181.188 162.054 181.132 163.512 181.135C165.136 181.135 165.266 181.248 165.261 182.846C165.253 186.643 165.216 190.438 165.213 194.235C165.213 195.099 165.29 195.963 165.33 196.826C165.47 196.874 165.61 196.922 165.754 196.972L165.759 196.977Z" fill="#F13A00"/>
<path d="M58.2455 199.479C58.2455 193.917 58.2747 188.356 58.2243 182.794C58.2111 181.506 58.6774 181.111 59.9255 181.124C64.9574 181.172 69.9893 181.13 75.0212 181.143C80.2624 181.156 84.2821 183.687 85.9594 188C87.801 192.728 86.696 198.549 83.3282 201.655C81.158 203.658 78.5056 204.588 75.6147 204.734C72.8828 204.872 70.1429 204.885 67.4084 204.819C66.0968 204.787 65.7576 205.261 65.7867 206.504C65.8636 209.723 65.7867 212.948 65.8424 216.17C65.8609 217.323 65.429 217.76 64.2896 217.715C62.8349 217.657 61.3749 217.651 59.9202 217.718C58.6721 217.776 58.2058 217.315 58.219 216.032C58.272 210.515 58.2402 204.996 58.2429 199.479H58.2455ZM65.8159 192.934H65.8238C65.8238 194.257 65.845 195.579 65.8159 196.901C65.8 197.699 66.0438 198.152 66.9341 198.138C69.3586 198.099 71.7884 198.191 74.205 198.038C75.8055 197.934 77.3079 197.389 78.1717 195.804C80.1856 192.105 78.124 188.175 73.9374 187.929C71.6083 187.791 69.2659 187.913 66.9314 187.879C66.0411 187.865 65.7894 188.292 65.8106 189.1C65.845 190.377 65.8185 191.657 65.8185 192.934H65.8159Z" fill="#F13A00"/>
<path d="M315.221 66.9991C315.221 70.3537 315.184 73.711 315.24 77.0656C315.261 78.311 314.84 78.78 313.56 78.7694C307.688 78.719 301.816 78.7217 295.944 78.7614C294.747 78.7694 294.317 78.3745 294.325 77.153C294.37 70.5736 294.339 63.9969 294.352 57.4176C294.354 55.5654 294.384 55.5654 296.185 55.5654C301.97 55.5654 307.754 55.5972 313.536 55.5389C314.816 55.5256 315.221 55.9205 315.192 57.2003C315.115 60.4648 315.166 63.7346 315.166 67.0018C315.184 67.0018 315.203 67.0018 315.219 67.0018L315.221 66.9991Z" fill="#F13A00"/>
<path d="M206.677 202.653C206.677 207.113 206.64 211.572 206.701 216.029C206.717 217.288 206.319 217.789 205.037 217.715C203.54 217.63 202.035 217.638 200.535 217.699C199.327 217.749 198.927 217.283 198.932 216.072C198.972 207.285 198.953 198.501 198.953 189.715C198.953 188.496 198.347 187.884 197.135 187.881C194.751 187.878 192.366 187.831 189.984 187.899C188.744 187.937 188.333 187.446 188.404 186.259C188.476 185.072 188.465 183.872 188.394 182.685C188.325 181.543 188.752 181.113 189.915 181.129C193.402 181.18 196.892 181.143 200.379 181.143C205.411 181.143 210.445 181.14 215.477 181.14C217.16 181.14 217.255 181.23 217.271 182.952C217.282 184.057 217.229 185.162 217.282 186.262C217.34 187.444 216.887 187.931 215.663 187.899C213.148 187.836 210.628 187.915 208.113 187.862C207.056 187.839 206.643 188.133 206.659 189.275C206.72 193.732 206.682 198.191 206.682 202.651H206.677V202.653Z" fill="#F13A00"/>
<path d="M235.353 199.476C235.353 193.957 235.353 188.438 235.353 182.921C235.353 181.233 235.424 181.151 237.028 181.148C244.534 181.143 252.038 181.143 259.545 181.148C261.188 181.148 261.236 181.214 261.236 182.889C261.236 184.036 261.162 185.192 261.249 186.331C261.344 187.568 260.825 187.979 259.649 187.974C255.279 187.95 250.907 187.974 246.538 187.976C243.061 187.976 243.05 187.976 243.048 191.474C243.045 199.553 243.053 207.632 243.053 215.714C243.053 217.659 243.024 217.683 241.031 217.683C239.794 217.683 238.559 217.696 237.322 217.694C235.456 217.688 235.353 217.603 235.35 215.767C235.34 210.338 235.348 204.906 235.348 199.476H235.353Z" fill="#F13A00"/>
<path d="M275.136 66.9167C278.136 66.9167 281.135 66.9459 284.135 66.9008C285.221 66.8849 285.624 67.3009 285.608 68.382C285.566 71.2915 285.568 74.2036 285.611 77.1156C285.627 78.2789 285.229 78.777 284 78.7664C278.046 78.7214 272.089 78.7241 266.135 78.7532C265.027 78.7585 264.659 78.308 264.672 77.2534C264.709 74.2989 264.72 71.3418 264.677 68.3873C264.662 67.3089 265.041 66.8876 266.138 66.9035C269.137 66.9485 272.137 66.9194 275.136 66.9194V66.9141V66.9167Z" fill="#F13A00"/>
<path d="M310.619 210.847C311.242 208.661 312.135 206.594 312.381 204.45C312.935 199.638 313.197 194.792 313.512 189.956C313.65 187.844 313.573 187.828 315.651 187.82C318.165 187.81 320.68 187.857 323.195 187.812C324.204 187.794 324.61 188.128 324.604 189.177C324.57 196.016 324.575 202.855 324.588 209.694C324.588 210.5 324.485 211.048 323.465 211.04C319.493 211.003 315.524 211.024 311.552 211.008C311.218 211.008 310.884 210.894 310.616 210.847H310.619Z" fill="white"/>
<path d="M113.986 199.399C113.71 202.248 113.294 204.935 111.906 207.463C109.335 212.142 102.825 212.648 99.8306 208.244C97.157 204.312 97.0961 199.871 97.8115 195.38C98.1692 193.135 98.8926 190.968 100.684 189.426C104.995 185.716 111.1 187.64 112.852 193.324C113.453 195.279 113.62 197.37 113.986 199.397V199.399Z" fill="white"/>
<path d="M271.692 198.894C271.848 195.857 272.115 193.091 273.833 190.727C277.211 186.079 284.042 186.567 286.437 191.771C288.769 196.837 288.735 202.057 286.297 207.113C285.044 209.712 282.903 211.255 279.893 211.268C276.84 211.281 274.733 209.72 273.324 207.129C271.885 204.485 271.686 201.583 271.692 198.894Z" fill="white"/>
<path d="M355.933 189.765C357.515 194.307 359.099 198.849 360.756 203.602H350.806C352.425 198.923 354.004 194.349 355.586 189.778C355.702 189.773 355.816 189.77 355.933 189.765Z" fill="white"/>
<path d="M65.8129 192.934C65.8129 191.657 65.8367 190.377 65.8049 189.1C65.7837 188.292 66.0355 187.865 66.9258 187.878C69.2602 187.913 71.6053 187.791 73.9317 187.929C78.121 188.175 80.1825 192.105 78.1661 195.804C77.3022 197.388 75.8025 197.934 74.1994 198.038C71.7828 198.191 69.353 198.099 66.9284 198.138C66.0381 198.154 65.7943 197.698 65.8102 196.901C65.8367 195.579 65.8182 194.256 65.8182 192.934H65.8102H65.8129Z" fill="white"/>
</svg>
