<svg width="31" height="31" viewBox="0 0 31 31" fill="none" xmlns="http://www.w3.org/2000/svg">
<path d="M28.106 20.122L30.251 17.977L28.106 15.832L22.751 21.187L9.89598 8.33203L15.251 2.97703L13.106 0.832031L10.961 2.97703L8.81598 0.832031L5.60598 4.04203L3.46098 1.89703L1.31598 4.04203L3.46098 6.18703L0.250977 9.39703L2.39598 11.542L0.250977 13.687L2.39598 15.832L7.75098 10.477L20.606 23.332L15.251 28.687L17.396 30.832L19.541 28.687L21.686 30.832L24.896 27.622L27.041 29.767L29.186 27.622L27.041 25.477L30.251 22.267L28.106 20.122Z" fill="#3CAAE1"/>
</svg>
