<svg width="66" height="66" viewBox="0 0 66 66" fill="none" xmlns="http://www.w3.org/2000/svg">
<path d="M54.2961 0.892822C57.1606 0.892822 59.9078 2.03073 61.9333 4.05623C63.9588 6.08172 65.0967 8.82888 65.0967 11.6934V54.8955C65.0967 57.76 63.9588 60.5071 61.9333 62.5326C59.9078 64.5581 57.1606 65.696 54.2961 65.696H11.094C8.22951 65.696 5.48236 64.5581 3.45686 62.5326C1.43137 60.5071 0.293457 57.76 0.293457 54.8955V11.6934C0.293457 8.82888 1.43137 6.08172 3.45686 4.05623C5.48236 2.03073 8.22951 0.892822 11.094 0.892822H54.2961ZM46.0409 23.5487C45.3658 22.8738 44.4502 22.4947 43.4956 22.4947C42.541 22.4947 41.6254 22.8738 40.9503 23.5487L32.6951 31.8004L28.04 27.1489C27.3649 26.474 26.4493 26.0948 25.4947 26.0948C24.5401 26.0948 23.6245 26.474 22.9494 27.1489L12.1488 37.9495C11.4739 38.6246 11.0948 39.5402 11.0948 40.4948C11.0948 41.4494 11.4739 42.365 12.1488 43.0401L12.4873 43.3389C13.18 43.8763 14.0449 44.1424 14.9198 44.0874C15.7948 44.0324 16.6196 43.66 17.2395 43.0401L25.4947 34.7885L30.1497 39.4399L30.4882 39.7388C31.1808 40.2761 32.0458 40.5422 32.9207 40.4872C33.7957 40.4322 34.6205 40.0598 35.2404 39.4399L43.4956 31.1883L48.1506 35.8398C48.8296 36.4956 49.739 36.8584 50.683 36.8502C51.627 36.842 52.5299 36.4634 53.1974 35.7959C53.8649 35.1284 54.2436 34.2254 54.2518 33.2815C54.26 32.3375 53.8971 31.4281 53.2413 30.7491L46.0409 23.5487Z" fill="#3CAAE1"/>
</svg>
