<svg width="15" height="15" viewBox="0 0 15 15" fill="none" xmlns="http://www.w3.org/2000/svg">
<g clip-path="url(#clip0_8504_12589)">
<path fill-rule="evenodd" clip-rule="evenodd" d="M5.98194 0.790328C4.62895 1.18445 3.42616 1.97721 2.53048 3.06519C1.63481 4.15316 1.08784 5.48583 0.960938 6.88933H4.16094C4.34747 4.75358 4.9667 2.67813 5.98094 0.789328L5.98194 0.790328ZM4.16094 8.13933H0.960938C1.08758 9.54288 1.63431 10.8757 2.52981 11.9638C3.42531 13.052 4.62799 13.845 5.98094 14.2393C4.9667 12.3505 4.34747 10.2751 4.16094 8.13933ZM7.58494 14.5063C6.37252 12.5834 5.62918 10.4024 5.41494 8.13933H10.4499C10.2357 10.4024 9.49236 12.5834 8.27994 14.5063C8.04841 14.5178 7.81646 14.5178 7.58494 14.5063ZM9.88494 14.2383C11.2377 13.844 12.4403 13.0512 13.3358 11.9632C14.2313 10.8753 14.7781 9.5427 14.9049 8.13933H11.7049C11.5184 10.2751 10.8992 12.3505 9.88494 14.2393V14.2383ZM11.7049 6.88933H14.9049C14.7783 5.48578 14.2316 4.15298 13.3361 3.06482C12.4406 1.97667 11.2379 1.18368 9.88494 0.789328C10.8992 2.67813 11.5184 4.75358 11.7049 6.88933ZM7.58494 0.522328C7.81679 0.510787 8.04908 0.510787 8.28094 0.522328C9.49301 2.44531 10.236 4.62632 10.4499 6.88933H5.41594C5.63294 4.61233 6.37794 2.42933 7.58494 0.522328Z" fill="#3CAAE1"/>
</g>
<defs>
<clipPath id="clip0_8504_12589">
<rect width="14" height="14" fill="white" transform="translate(0.933594 0.513672)"/>
</clipPath>
</defs>
</svg>
