<svg width="45" height="46" viewBox="0 0 45 46" fill="none" xmlns="http://www.w3.org/2000/svg">
<rect x="0.0517578" y="0.873535" width="44.7334" height="44.7334" rx="22.3667" fill="#2AABEE"/>
<path d="M30.0036 22.0212L28.7098 30.2153C28.7098 30.2153 28.566 31.3654 27.7035 31.6529C26.6972 31.6529 25.8346 31.3654 25.1158 30.7903C24.9721 30.6466 21.2344 28.3465 19.9406 27.1964C19.5093 26.9089 19.3656 26.3339 19.6531 25.7589C19.7969 25.6151 19.7969 25.4713 19.9406 25.4713C21.8095 23.7463 23.9658 21.5899 25.4034 20.2961C25.9784 19.7211 26.6972 18.2835 24.1096 20.0086L16.778 24.8963C16.0592 25.1838 15.1967 25.1838 14.3341 24.8963C12.609 24.465 10.884 23.7463 10.884 23.7463C10.884 23.7463 9.59015 23.0275 11.7465 22.1649L23.822 17.1335C24.9721 16.5584 29.141 14.9771 29.141 14.9771C29.141 14.9771 31.0099 14.2583 30.8661 15.9834C30.8661 16.7022 30.4348 19.2898 30.0036 22.0212Z" fill="white"/>
</svg>
