<svg width="16" height="13" viewBox="0 0 16 13" fill="none" xmlns="http://www.w3.org/2000/svg">
<path d="M14.5795 5.34899L13.6481 11.2475C13.6481 11.2475 13.5446 12.0754 12.9237 12.2824C12.1994 12.2824 11.5785 12.0754 11.061 11.6615C10.9576 11.558 8.26698 9.90226 7.33563 9.07439C7.02517 8.86743 6.92169 8.45349 7.12866 8.03956C7.23214 7.93607 7.23214 7.83259 7.33563 7.83259C8.68091 6.59079 10.2332 5.03854 11.268 4.10718C11.6819 3.69325 12.1994 2.65841 10.3366 3.90022L5.05899 7.41866C4.54157 7.62562 3.92067 7.62562 3.29976 7.41866C2.05796 7.10821 0.816159 6.59079 0.816159 6.59079C0.816159 6.59079 -0.115193 6.07337 1.43706 5.45247L10.1297 1.83054C10.9576 1.41661 13.9586 0.278291 13.9586 0.278291C13.9586 0.278291 15.3039 -0.239126 15.2004 1.00268C15.2004 1.52009 14.8899 3.3828 14.5795 5.34899Z" fill="#3CAAE1"/>
</svg>
