<svg width="14" height="13" viewBox="0 0 14 13" fill="none" xmlns="http://www.w3.org/2000/svg">
<g clip-path="url(#clip0_8504_12666)">
<path d="M7.06209 12.4132C10.4899 12.4132 13.2687 9.63444 13.2687 6.20662C13.2687 2.7788 10.4899 0 7.06209 0C3.63427 0 0.855469 2.7788 0.855469 6.20662C0.855469 9.63444 3.63427 12.4132 7.06209 12.4132Z" fill="url(#paint0_linear_8504_12666)"/>
<path fill-rule="evenodd" clip-rule="evenodd" d="M3.66649 6.14105C5.47585 5.35274 6.68237 4.83304 7.28605 4.58194C9.0097 3.86502 9.36786 3.74048 9.6013 3.73637C9.65264 3.73547 9.76745 3.74819 9.84181 3.80853C9.9046 3.85948 9.92187 3.92831 9.93014 3.97662C9.93841 4.02492 9.9487 4.13496 9.94052 4.22095C9.84712 5.20236 9.44295 7.58399 9.23734 8.68319C9.15034 9.14831 8.97902 9.30426 8.81317 9.31952C8.45274 9.35268 8.17905 9.08132 7.82996 8.85249C7.28369 8.4944 6.97509 8.27149 6.44484 7.92207C5.83206 7.51825 6.2293 7.29631 6.57853 6.93359C6.66992 6.83866 8.25799 5.3942 8.28872 5.26316C8.29257 5.24677 8.29613 5.18569 8.25984 5.15343C8.22355 5.12117 8.16999 5.1322 8.13134 5.14098C8.07655 5.15341 7.20389 5.73021 5.51335 6.87137C5.26565 7.04146 5.04128 7.12433 4.84026 7.11999C4.61866 7.1152 4.19237 6.99469 3.87547 6.89168C3.48678 6.76533 3.17786 6.69853 3.20476 6.48395C3.21877 6.37219 3.37268 6.25789 3.66649 6.14105Z" fill="white"/>
</g>
<defs>
<linearGradient id="paint0_linear_8504_12666" x1="7.06209" y1="0" x2="7.06209" y2="12.3212" gradientUnits="userSpaceOnUse">
<stop stop-color="#2AABEE"/>
<stop offset="1" stop-color="#229ED9"/>
</linearGradient>
<clipPath id="clip0_8504_12666">
<rect width="12.4132" height="12.4132" fill="white" transform="translate(0.855469)"/>
</clipPath>
</defs>
</svg>
