<svg width="26" height="26" viewBox="0 0 26 26" fill="none" xmlns="http://www.w3.org/2000/svg">
<path d="M14.0721 12.7945C13.4346 8.50703 11.6721 0.332031 7.50964 0.332031C3.34714 0.332031 1.59714 8.50703 0.947144 12.7945C0.684644 14.607 0.597144 16.4445 0.797144 18.2695C1.22214 22.0695 2.53464 23.882 3.43464 24.707C3.89714 25.1195 4.48464 25.332 5.09714 25.332H9.93464C10.5471 25.332 11.1346 25.1195 11.5971 24.707C12.4721 23.882 13.7846 22.0695 14.2346 18.2695C14.4471 16.4445 14.3471 14.607 14.0721 12.7945ZM7.50964 2.83203C7.95964 2.66953 8.83464 3.74453 9.68464 5.71953L3.82214 10.7445C4.85964 5.65703 6.77214 2.56953 7.50964 2.83203ZM10.2846 14.082H4.73464C4.48642 14.0759 4.24622 13.9929 4.04714 13.8445L10.5971 8.24453C10.9596 9.51953 11.2971 10.957 11.5346 12.6195C11.6471 13.382 11.0596 14.082 10.2846 14.082ZM25.3221 12.7945C24.6846 8.50703 22.9221 0.332031 18.7596 0.332031C16.8971 0.332031 15.5221 1.98203 14.5096 4.18203C14.9721 5.38203 15.3971 6.75703 15.7596 8.29453L22.2346 13.8445C22.0346 13.982 21.8096 14.082 21.5346 14.082H16.7471C16.8971 15.6695 16.8846 17.1445 16.7096 18.5695C16.3721 21.4195 15.5971 23.3945 14.7471 24.7445C15.1971 25.132 15.7596 25.332 16.3471 25.332H21.1846C21.7971 25.332 22.3846 25.1195 22.8471 24.707C23.7221 23.882 25.0346 22.0695 25.4846 18.2695C25.6971 16.4445 25.5971 14.607 25.3221 12.7945ZM16.5971 5.71953C17.4721 3.74453 18.3221 2.66953 18.7596 2.83203C19.5096 2.56953 21.4096 5.65703 22.4721 10.7445L16.5971 5.71953Z" fill="#3CAAE1"/>
</svg>
