<svg width="15" height="15" viewBox="0 0 15 15" fill="none" xmlns="http://www.w3.org/2000/svg">
<g clip-path="url(#clip0_8504_12655)">
<path d="M0.492188 6.11328V11.7133C0.492188 12.0846 0.639687 12.4407 0.902238 12.7032C1.16479 12.9658 1.52088 13.1133 1.89219 13.1133H13.0922C13.4635 13.1133 13.8196 12.9658 14.0821 12.7032C14.3447 12.4407 14.4922 12.0846 14.4922 11.7133V6.11328L7.49219 8.91328L0.492188 6.11328Z" fill="#3CAAE1"/>
<path d="M1.89219 1.91406C1.52088 1.91406 1.16479 2.06156 0.902238 2.32411C0.639687 2.58666 0.492188 2.94276 0.492188 3.31406L0.492188 4.71406L7.49219 7.51406L14.4922 4.71406V3.31406C14.4922 2.94276 14.3447 2.58666 14.0821 2.32411C13.8196 2.06156 13.4635 1.91406 13.0922 1.91406H1.89219Z" fill="#3CAAE1"/>
</g>
<defs>
<clipPath id="clip0_8504_12655">
<rect width="14" height="14" fill="white" transform="translate(0.492188 0.513672)"/>
</clipPath>
</defs>
</svg>
