<svg width="36" height="35" viewBox="0 0 36 35" fill="none" xmlns="http://www.w3.org/2000/svg">
<g clip-path="url(#clip0_684_5686)">
<path fill-rule="evenodd" clip-rule="evenodd" d="M18.0858 4.21553C17.0286 4.19719 15.978 4.37932 14.9941 4.75148C14.0102 5.12364 13.1124 5.67854 12.352 6.38442C11.5916 7.0903 10.9836 7.9333 10.5628 8.86517C10.1419 9.79705 9.91646 10.7995 9.89935 11.8152V22.4372C9.89935 23.0815 9.6329 23.6995 9.15861 24.1551C8.68433 24.6108 8.04106 24.8667 7.37033 24.8667H4.20905C3.20295 24.8667 2.23805 24.4828 1.52663 23.7993C0.815201 23.1159 0.415527 22.1889 0.415527 21.2224L0.415527 16.3633C0.415527 15.3968 0.815201 14.4698 1.52663 13.7864C2.23805 13.1029 3.20295 12.719 4.20905 12.719H6.10582V11.7714C6.12889 10.2782 6.45794 8.804 7.07416 7.43296C7.69038 6.06192 8.58171 4.82093 9.69724 3.78086C10.8128 2.74079 12.1307 1.92201 13.5756 1.37129C15.0206 0.820577 16.5643 0.548705 18.1187 0.571207C19.673 0.548705 21.2167 0.820577 22.6617 1.37129C24.1067 1.92201 25.4245 2.74079 26.5401 3.78086C27.6556 4.82093 28.5469 6.06192 29.1631 7.43296C29.7794 8.804 30.1084 10.2782 30.1315 11.7714V12.719H32.0283C33.0344 12.719 33.9993 13.1029 34.7107 13.7864C35.4221 14.4698 35.8218 15.3968 35.8218 16.3633V21.2224C35.8218 22.1889 35.4221 23.1159 34.7107 23.7993C33.9993 24.4828 33.0344 24.8667 32.0283 24.8667H30.1315V26.0815C30.1318 27.7233 29.5029 29.3077 28.3647 30.5324C27.2265 31.7571 25.6588 32.5364 23.9607 32.7215C23.6309 33.2871 23.15 33.758 22.5677 34.0855C21.9853 34.4131 21.3225 34.5855 20.6477 34.5849H16.8541C15.848 34.5849 14.8831 34.201 14.1717 33.5175C13.4603 32.8341 13.0606 31.9071 13.0606 30.9406C13.0606 29.9741 13.4603 29.0471 14.1717 28.3637C14.8831 27.6802 15.848 27.2963 16.8541 27.2963H20.6477C22.0184 27.2963 23.2197 27.9936 23.8848 29.0407C24.5819 28.8868 25.204 28.5103 25.6496 27.9729C26.0952 27.4354 26.3378 26.7686 26.338 26.0815V11.8127C26.3206 10.7918 26.0928 9.78438 25.6677 8.84858C25.2426 7.91278 24.6286 7.06721 23.8612 6.36075C23.0939 5.6543 22.1883 5.10097 21.197 4.73276C20.2057 4.36454 19.1482 4.18875 18.0858 4.21553Z" fill="#474766"/>
</g>
<defs>
<clipPath id="clip0_684_5686">
<rect width="35.4063" height="34.0137" fill="white" transform="translate(0.415527 0.570984)"/>
</clipPath>
</defs>
</svg>
