<svg width="69" height="69" viewBox="0 0 69 69" fill="none" xmlns="http://www.w3.org/2000/svg">
<path d="M7.18597 68.4442C5.29651 68.4442 3.68041 67.7714 2.33768 66.4258C0.994951 65.0803 0.322169 63.467 0.319336 61.5861V35.5133H27.9388V68.4442H7.18597ZM32.188 68.4442V35.5133H68.3058V61.5818C68.3058 63.4684 67.633 65.0831 66.2874 66.4258C64.9418 67.7686 63.3272 68.4414 61.4434 68.4442H32.188ZM0.319336 31.2641V7.32439C0.319336 5.43494 0.992118 3.81884 2.33768 2.47611C3.68325 1.13338 5.29792 0.460596 7.18171 0.457764H61.4434C63.33 0.457764 64.9447 1.13055 66.2874 2.47611C67.6301 3.82167 68.3029 5.43635 68.3058 7.32014V31.2641H0.319336Z" fill="#3CAAE1"/>
</svg>
