<svg width="82" height="57" viewBox="0 0 82 57" fill="none" xmlns="http://www.w3.org/2000/svg">
<path d="M29.0905 19.0633L19.9355 5.0524C24.4506 3.12187 29.7683 1.72012 35.5014 0.94922C41.2345 0.178325 47.2387 0.057711 53.0767 0.596148L60.7058 13.7127L29.0905 19.0633Z" fill="#FFB462"/>
<path opacity="0.7" d="M29.0905 19.0633L19.9355 5.0524C24.4506 3.12187 29.7683 1.72012 35.5014 0.94922C41.2345 0.178325 47.2387 0.057711 53.0767 0.596148L60.7058 13.7127L29.0905 19.0633Z" fill="#F17E00"/>
<path d="M22.534 19.1628L31.951 12.0236C32.0659 11.9353 32.1982 11.8726 32.3393 11.8397C32.4804 11.8067 32.6268 11.8043 32.7689 11.8325L43.5236 13.8734C43.7343 13.912 43.9278 14.0153 44.0772 14.1689C44.2266 14.3225 44.3244 14.5188 44.3572 14.7305C44.39 14.9423 44.356 15.159 44.26 15.3505C44.1641 15.5421 44.0109 15.699 43.8217 15.7996L34.9473 20.6075C34.8027 20.6817 34.6436 20.7235 34.4811 20.7298L23.1684 21.0202C22.9505 21.0235 22.7372 20.9577 22.559 20.8322C22.3808 20.7068 22.2469 20.5282 22.1765 20.322C22.1061 20.1158 22.1027 19.8925 22.1669 19.6843C22.2312 19.4761 22.3597 19.2935 22.534 19.1628Z" fill="#FFB462"/>
<path d="M72.8452 19.958H11.3594V56.2655H72.8452V19.958Z" fill="#FFB462"/>
<path opacity="0.2" d="M72.8452 19.958H11.3594V56.2655H72.8452V19.958Z" fill="#F17E00"/>
<path opacity="0.4" d="M72.8464 19.9583H34.6738V56.2657H72.8464V19.9583Z" fill="#F17E00"/>
<path d="M34.6738 20.3397L49.151 8.68311L81.4455 10.8845L72.8464 20.3397H34.6738Z" fill="#FFB462"/>
<path d="M34.6735 20.3401L23.7354 7.72803L0.613281 10.2122L11.3603 19.9579L34.6735 20.3401Z" fill="#FFB462"/>
<path opacity="0.1" d="M34.6735 20.3401L23.7354 7.72803L0.613281 10.2122L11.3603 19.9579L34.6735 20.3401Z" fill="#F17E00"/>
<path opacity="0.4" d="M34.6738 20.3397L49.151 8.68311L81.4455 10.8845L72.8464 20.3397H34.6738Z" fill="#F17E00"/>
</svg>
