<svg width="14" height="13" viewBox="0 0 14 13" fill="none" xmlns="http://www.w3.org/2000/svg">
<path fill-rule="evenodd" clip-rule="evenodd" d="M6.53906 0.3396C6.00863 0.3396 5.49992 0.550313 5.12485 0.925386C4.74978 1.30046 4.53906 1.80917 4.53906 2.3396V3.00627H2.53906C2.00863 3.00627 1.49992 3.21698 1.12485 3.59205C0.749776 3.96713 0.539063 4.47583 0.539062 5.00627V10.3396C0.539063 10.87 0.749776 11.3787 1.12485 11.7538C1.49992 12.1289 2.00863 12.3396 2.53906 12.3396H11.8724C12.4028 12.3396 12.9115 12.1289 13.2866 11.7538C13.6617 11.3787 13.8724 10.87 13.8724 10.3396V5.00627C13.8724 4.47583 13.6617 3.96713 13.2866 3.59205C12.9115 3.21698 12.4028 3.00627 11.8724 3.00627H9.8724V2.3396C9.8724 1.80917 9.66168 1.30046 9.28661 0.925386C8.91154 0.550313 8.40283 0.3396 7.8724 0.3396H6.53906ZM8.53906 3.00627H5.8724V2.3396C5.8724 2.16279 5.94263 1.99322 6.06766 1.8682C6.19268 1.74317 6.36225 1.67293 6.53906 1.67293H7.8724C8.04921 1.67293 8.21878 1.74317 8.3438 1.8682C8.46882 1.99322 8.53906 2.16279 8.53906 2.3396V3.00627Z" fill="#3CAAE1"/>
</svg>
