<svg width="14" height="12" viewBox="0 0 14 12" fill="none" xmlns="http://www.w3.org/2000/svg">
<path d="M2.93819 0C2.31433 0 1.71603 0.316071 1.2749 0.87868C0.833763 1.44129 0.585938 2.20435 0.585938 3V3.6H13.7585V3C13.7585 2.20435 13.5107 1.44129 13.0696 0.87868C12.6284 0.316071 12.0301 0 11.4063 0H2.93819ZM13.7585 4.8H0.585938V9C0.585938 9.79565 0.833763 10.5587 1.2749 11.1213C1.71603 11.6839 2.31433 12 2.93819 12H11.4063C12.0301 12 12.6284 11.6839 13.0696 11.1213C13.5107 10.5587 13.7585 9.79565 13.7585 9V4.8ZM9.52448 8.4H11.4063C11.5311 8.4 11.6507 8.46321 11.7389 8.57574C11.8272 8.68826 11.8767 8.84087 11.8767 9C11.8767 9.15913 11.8272 9.31174 11.7389 9.42426C11.6507 9.53679 11.5311 9.6 11.4063 9.6H9.52448C9.39971 9.6 9.28005 9.53679 9.19182 9.42426C9.1036 9.31174 9.05403 9.15913 9.05403 9C9.05403 8.84087 9.1036 8.68826 9.19182 8.57574C9.28005 8.46321 9.39971 8.4 9.52448 8.4Z" fill="#ffffff"/>
</svg>
