<svg width="15" height="14" viewBox="0 0 15 14" fill="none" xmlns="http://www.w3.org/2000/svg">
<mask id="mask0_8504_12632" style="mask-type:luminance" maskUnits="userSpaceOnUse" x="2" y="2" width="12" height="10">
<path d="M9.0314 2.33301H6.69806C4.49831 2.33301 3.39815 2.33301 2.71506 3.01667C2.22273 3.50842 2.08506 4.21659 2.04656 5.39551H13.6829C13.6444 4.21659 13.5067 3.50842 13.0144 3.01667C12.3313 2.33301 11.2311 2.33301 9.0314 2.33301ZM6.69806 11.6663H9.0314C11.2311 11.6663 12.3313 11.6663 13.0144 10.9827C13.6975 10.299 13.6981 9.19942 13.6981 6.99967C13.6981 6.74223 13.6977 6.49917 13.6969 6.27051H2.03256C2.0314 6.49917 2.03101 6.74223 2.0314 6.99967C2.0314 9.19942 2.0314 10.2996 2.71506 10.9827C3.39873 11.6658 4.49831 11.6663 6.69806 11.6663Z" fill="white"/>
<path fill-rule="evenodd" clip-rule="evenodd" d="M3.92578 9.33301C3.92578 9.21698 3.97187 9.1057 4.05392 9.02365C4.13597 8.9416 4.24725 8.89551 4.36328 8.89551H6.69661C6.81265 8.89551 6.92393 8.9416 7.00597 9.02365C7.08802 9.1057 7.13411 9.21698 7.13411 9.33301C7.13411 9.44904 7.08802 9.56032 7.00597 9.64237C6.92393 9.72441 6.81265 9.77051 6.69661 9.77051H4.36328C4.24725 9.77051 4.13597 9.72441 4.05392 9.64237C3.97187 9.56032 3.92578 9.44904 3.92578 9.33301ZM7.71745 9.33301C7.71745 9.21698 7.76354 9.1057 7.84559 9.02365C7.92764 8.9416 8.03892 8.89551 8.15495 8.89551H9.02995C9.14598 8.89551 9.25726 8.9416 9.33931 9.02365C9.42135 9.1057 9.46745 9.21698 9.46745 9.33301C9.46745 9.44904 9.42135 9.56032 9.33931 9.64237C9.25726 9.72441 9.14598 9.77051 9.02995 9.77051H8.15495C8.03892 9.77051 7.92764 9.72441 7.84559 9.64237C7.76354 9.56032 7.71745 9.44904 7.71745 9.33301Z" fill="black"/>
</mask>
<g mask="url(#mask0_8504_12632)">
<path d="M0.863281 0H14.8633V14H0.863281V0Z" fill="#3CAAE1"/>
</g>
</svg>
