<svg width="88" height="87" viewBox="0 0 88 87" fill="none" xmlns="http://www.w3.org/2000/svg">
<path d="M26.8027 43.918C33.5596 43.918 39.0371 38.5034 39.0371 31.8242C39.0371 25.145 33.5596 19.7305 26.8027 19.7305C20.0459 19.7305 14.5684 25.145 14.5684 31.8242C14.5684 38.5034 20.0459 43.918 26.8027 43.918Z" fill="#3CAAE1"/>
<path d="M40.7363 50.6367C35.9513 48.2348 30.6702 47.2773 26.8027 47.2773C19.2276 47.2773 3.69336 51.8696 3.69336 61.0508V68.1055H29.1816V65.4062C29.1816 62.2148 30.541 59.015 32.9199 56.3477C34.8179 54.2178 37.4755 52.2408 40.7363 50.6367Z" fill="#3CAAE1"/>
<path d="M58.748 49.293C49.9002 49.293 32.2402 54.6948 32.2402 65.418V73.4805H85.2559V65.418C85.2559 54.6948 67.5959 49.293 58.748 49.293Z" fill="#3CAAE1"/>
<path d="M58.748 43.918C67.0064 43.918 73.7012 37.3002 73.7012 29.1367C73.7012 20.9733 67.0064 14.3555 58.748 14.3555C50.4897 14.3555 43.7949 20.9733 43.7949 29.1367C43.7949 37.3002 50.4897 43.918 58.748 43.918Z" fill="#3CAAE1"/>
</svg>
