<svg width="15" height="15" viewBox="0 0 15 15" fill="none" xmlns="http://www.w3.org/2000/svg">
<path d="M4.27744 13.7949H10.4999C11.7129 13.7949 12.3164 13.1797 12.3164 11.9609V6.64067H8.07419C7.32419 6.64067 6.97269 6.28317 6.97269 5.53317V1.23242H4.27744C3.07044 1.23242 2.46094 1.85342 2.46094 3.07242V11.9609C2.46094 13.1854 3.07044 13.7949 4.27744 13.7949ZM8.09194 5.83792H12.2519C12.2109 5.59767 12.0409 5.36317 11.7657 5.07617L8.53119 1.78917C8.26169 1.50792 8.01569 1.33792 7.76944 1.29667V5.52167C7.76944 5.73242 7.88094 5.83792 8.09194 5.83792ZM5.13294 9.17792C4.89269 9.17792 4.72269 9.00792 4.72269 8.77942C4.72269 8.55067 4.89269 8.38092 5.13269 8.38092H9.65019C9.88469 8.38092 10.0664 8.55092 10.0664 8.77917C10.0664 9.00792 9.88469 9.17767 9.65044 9.17767L5.13294 9.17792ZM5.13294 11.4102C4.89269 11.4102 4.72269 11.2402 4.72269 11.0117C4.72269 10.7832 4.89269 10.6132 5.13269 10.6132H9.65019C9.88469 10.6132 10.0664 10.7832 10.0664 11.0117C10.0664 11.2402 9.88469 11.4102 9.65044 11.4102H5.13294Z" fill="#3CAAE1"/>
</svg>
