<svg width="58" height="58" viewBox="0 0 58 58" fill="none" xmlns="http://www.w3.org/2000/svg">
<ellipse cx="28.9993" cy="28.9642" rx="28.748" ry="28.8568" fill="#FC9F30"/>
<path fill-rule="evenodd" clip-rule="evenodd" d="M14.7864 30.3908C14.7863 31.6913 15.2286 32.9528 16.0402 33.9665C16.8518 34.9802 17.984 35.6852 19.2493 35.9648C19.5231 36.8313 20.0646 37.5879 20.7955 38.1247C21.5263 38.6616 22.4085 38.9509 23.3141 38.9508C24.068 38.9508 24.791 38.6502 25.3241 38.1151C25.8572 37.58 26.1567 36.8542 26.1567 36.0975V31.8175H31.8418V36.0975C31.8418 36.8542 32.1413 37.58 32.6744 38.1151C33.2075 38.6502 33.9305 38.9508 34.6844 38.9508C36.5889 38.9508 38.2035 37.6954 38.7493 35.9648C40.0145 35.6852 41.1467 34.9802 41.9583 33.9665C42.7699 32.9528 43.2123 31.6913 43.2121 30.3908V27.5375C43.2123 26.237 42.7699 24.9755 41.9583 23.9618C41.1467 22.9482 40.0145 22.2431 38.7493 21.9635C38.4755 21.097 37.9339 20.3405 37.203 19.8036C36.4722 19.2668 35.59 18.9774 34.6844 18.9775C33.9305 18.9775 33.2075 19.2782 32.6744 19.8133C32.1413 20.3484 31.8418 21.0741 31.8418 21.8309V26.1109H26.1567V21.8309C26.1567 21.0741 25.8572 20.3484 25.3241 19.8133C24.791 19.2782 24.068 18.9775 23.3141 18.9775C21.4096 18.9775 19.795 20.233 19.2493 21.9635C17.984 22.2431 16.8518 22.9482 16.0402 23.9618C15.2286 24.9755 14.7863 26.237 14.7864 27.5375V30.3908Z" fill="white"/>
</svg>
