<svg width="38" height="38" viewBox="0 0 38 38" fill="none" xmlns="http://www.w3.org/2000/svg">
<path d="M12.9212 19.5623C13.4257 20.7345 14.9201 22.2044 15.6879 22.9722C16.4557 23.74 17.9256 25.2343 19.0978 25.7389C19.3819 25.8612 19.7007 25.816 19.983 25.6895L21.9759 24.7961C22.4624 24.578 23.0281 24.6346 23.4619 24.9447L28.3936 28.4706C29.1205 28.9903 29.2347 30.0264 28.6383 30.6919L26.8856 32.6478C25.9555 33.6857 24.5453 34.1746 23.2374 33.6931C20.4961 32.6838 16.2906 30.4749 12.2379 26.4222C8.1852 22.3695 5.97633 18.164 4.96702 15.4227C4.4855 14.1148 4.97442 12.7046 6.01231 11.7745L7.96822 10.0218C8.63372 9.42543 9.66977 9.53957 10.1895 10.2665L13.7154 15.1982C14.0255 15.632 14.0821 16.1977 13.864 16.6842L12.9706 18.6771C12.8441 18.9594 12.7989 19.2782 12.9212 19.5623Z" fill="white"/>
<mask id="mask0_1397_3647" style="mask-type:alpha" maskUnits="userSpaceOnUse" x="7" y="7" width="24" height="24">
<circle cx="19.0703" cy="19.0148" r="2.36575" transform="rotate(45 19.0703 19.0148)" stroke="#FF8947" stroke-width="2"/>
<circle cx="19.0703" cy="19.0148" r="6.3838" transform="rotate(45 19.0703 19.0148)" stroke="#FF8947" stroke-width="2"/>
<circle cx="19.0703" cy="19.0149" r="10.4371" transform="rotate(45 19.0703 19.0149)" stroke="#FF8947" stroke-width="2"/>
</mask>
<g mask="url(#mask0_1397_3647)">
<path d="M19.0701 19.0149L23.0177 4.28214L33.8028 15.0673L19.0701 19.0149Z" fill="white"/>
</g>
</svg>
