<svg width="16" height="11" viewBox="0 0 16 11" fill="none" xmlns="http://www.w3.org/2000/svg">
<path d="M14.8364 2.00887C14.7516 1.69375 14.5855 1.40643 14.3548 1.17569C14.124 0.944945 13.8367 0.778878 13.5216 0.694116C12.3618 0.383301 7.71126 0.383301 7.71126 0.383301C7.71126 0.383301 3.06073 0.383301 1.90096 0.694067C1.58585 0.778842 1.29853 0.944914 1.06779 1.17565C0.837053 1.4064 0.67098 1.69371 0.586206 2.00882C0.275391 3.16864 0.275391 5.58845 0.275391 5.58845C0.275391 5.58845 0.275391 8.00818 0.586145 9.16791C0.670925 9.48303 0.837006 9.77034 1.06776 10.0011C1.29851 10.2318 1.58583 10.3979 1.90096 10.4827C3.06073 10.7934 7.71126 10.7934 7.71126 10.7934C7.71126 10.7934 12.3618 10.7934 13.5216 10.4827C13.8367 10.3979 14.124 10.2318 14.3548 10.0011C14.5855 9.77035 14.7516 9.48303 14.8364 9.16791C15.1471 8.00815 15.1471 5.58838 15.1471 5.58838C15.1471 5.58838 15.1471 3.16864 14.8364 2.00887Z" fill="#3CAAE1"/>
<path d="M6.22363 7.81938L10.0872 5.58871L6.22363 3.35791V7.81938Z" fill="white"/>
</svg>
