<svg width="16" height="17" viewBox="0 0 16 17" fill="none" xmlns="http://www.w3.org/2000/svg">
<path d="M8.66634 10.6784H7.33301C6.96634 10.6784 6.66634 10.3784 6.66634 10.0117H2.00634V12.6784C2.00634 13.4117 2.60634 14.0117 3.33967 14.0117H12.6663C13.3997 14.0117 13.9997 13.4117 13.9997 12.6784V10.0117H9.33301C9.33301 10.3784 9.03301 10.6784 8.66634 10.6784ZM13.333 4.67839H10.6663C10.6663 3.20505 9.47301 2.01172 7.99967 2.01172C6.52634 2.01172 5.33301 3.20505 5.33301 4.67839H2.66634C1.93301 4.67839 1.33301 5.27839 1.33301 6.01172V8.01172C1.33301 8.75172 1.92634 9.34505 2.66634 9.34505H6.66634V8.67839C6.66634 8.31172 6.96634 8.01172 7.33301 8.01172H8.66634C9.03301 8.01172 9.33301 8.31172 9.33301 8.67839V9.34505H13.333C14.0663 9.34505 14.6663 8.74505 14.6663 8.01172V6.01172C14.6663 5.27839 14.0663 4.67839 13.333 4.67839ZM6.66634 4.67839C6.66634 3.94505 7.26634 3.34505 7.99967 3.34505C8.73301 3.34505 9.33301 3.94505 9.33301 4.67839H6.65967H6.66634Z" fill="#3CAAE1"/>
</svg>
