<svg width="15" height="15" viewBox="0 0 15 15" fill="none" xmlns="http://www.w3.org/2000/svg">
<path d="M1.55859 4.01432C1.55859 3.7049 1.68151 3.40816 1.9003 3.18936C2.11909 2.97057 2.41584 2.84766 2.72526 2.84766H12.0586C12.368 2.84766 12.6648 2.97057 12.8836 3.18936C13.1023 3.40816 13.2253 3.7049 13.2253 4.01432V10.431C13.2253 10.7404 13.1023 11.0372 12.8836 11.2559C12.6648 11.4747 12.368 11.5977 12.0586 11.5977H9.38343L7.80434 13.1767C7.69495 13.2861 7.54661 13.3475 7.39193 13.3475C7.23725 13.3475 7.0889 13.2861 6.97951 13.1767L5.40043 11.5977H2.72526C2.41584 11.5977 2.11909 11.4747 1.9003 11.2559C1.68151 11.0372 1.55859 10.7404 1.55859 10.431V4.01432ZM12.0586 4.01432H2.72526V10.431H5.64193C5.79662 10.431 5.94497 10.4925 6.05434 10.6019L7.39193 11.9395L8.72951 10.6019C8.83888 10.4925 8.98723 10.431 9.14193 10.431H12.0586V4.01432ZM3.89193 6.05599C3.89193 5.90128 3.95339 5.75291 4.06278 5.64351C4.17218 5.53411 4.32055 5.47266 4.47526 5.47266H10.3086C10.4633 5.47266 10.6117 5.53411 10.7211 5.64351C10.8305 5.75291 10.8919 5.90128 10.8919 6.05599C10.8919 6.2107 10.8305 6.35907 10.7211 6.46847C10.6117 6.57786 10.4633 6.63932 10.3086 6.63932H4.47526C4.32055 6.63932 4.17218 6.57786 4.06278 6.46847C3.95339 6.35907 3.89193 6.2107 3.89193 6.05599ZM3.89193 8.38932C3.89193 8.23461 3.95339 8.08624 4.06278 7.97684C4.17218 7.86745 4.32055 7.80599 4.47526 7.80599H7.97526C8.12997 7.80599 8.27834 7.86745 8.38774 7.97684C8.49714 8.08624 8.55859 8.23461 8.55859 8.38932C8.55859 8.54403 8.49714 8.69241 8.38774 8.8018C8.27834 8.9112 8.12997 8.97266 7.97526 8.97266H4.47526C4.32055 8.97266 4.17218 8.9112 4.06278 8.8018C3.95339 8.69241 3.89193 8.54403 3.89193 8.38932Z" fill="#3CAAE1"/>
</svg>
