<svg width="88" height="64" viewBox="0 0 88 64" fill="none" xmlns="http://www.w3.org/2000/svg">
<path d="M37.512 51.5011L59.6411 29.372L53.962 23.6928L37.414 40.2407L29.189 32.0157L23.6078 37.597L37.512 51.5011ZM22.4328 63.2511C16.4925 63.2511 11.4178 61.1949 7.2087 57.0824C2.99959 52.9699 0.893724 47.9435 0.891113 42.0032C0.891113 36.9116 2.42514 32.3748 5.4932 28.3928C8.56125 24.4109 12.5758 21.865 17.5369 20.7553C19.1689 14.7497 22.4328 9.88656 27.3286 6.16572C32.2244 2.44489 37.7731 0.584473 43.9744 0.584473C51.6119 0.584473 58.0914 3.2452 63.4129 8.56664C68.7343 13.8881 71.3937 20.3663 71.3911 28.0011C75.8953 28.5234 79.6331 30.466 82.6045 33.8291C85.576 37.1922 87.0604 41.1246 87.0578 45.6261C87.0578 50.522 85.3449 54.6841 81.9191 58.1125C78.4933 61.5409 74.3312 63.2537 69.4328 63.2511H22.4328Z" fill="#3CAAE1"/>
</svg>
