<svg width="15" height="14" viewBox="0 0 15 14" fill="none" xmlns="http://www.w3.org/2000/svg">
<path d="M6.7627 10.3389H8.09603V6.33887H6.7627V10.3389ZM7.42936 5.00553C7.61825 5.00553 7.7767 4.94153 7.9047 4.81353C8.0327 4.68553 8.09647 4.52731 8.09603 4.33887C8.09603 4.14998 8.03203 3.99176 7.90403 3.8642C7.77603 3.73665 7.61781 3.67265 7.42936 3.6722C7.24047 3.6722 7.08225 3.7362 6.9547 3.8642C6.82714 3.9922 6.76314 4.15042 6.7627 4.33887C6.7627 4.52776 6.8267 4.6862 6.9547 4.8142C7.0827 4.9422 7.24092 5.00598 7.42936 5.00553ZM7.42936 13.6722C6.50714 13.6722 5.64047 13.4971 4.82936 13.1469C4.01825 12.7966 3.3127 12.3218 2.7127 11.7222C2.1127 11.1222 1.63781 10.4166 1.28803 9.60553C0.938251 8.79442 0.76314 7.92776 0.762695 7.00553C0.762695 6.08331 0.937806 5.21665 1.28803 4.40553C1.63825 3.59442 2.11314 2.88887 2.7127 2.28887C3.3127 1.68887 4.01825 1.21398 4.82936 0.864201C5.64047 0.514423 6.50714 0.339312 7.42936 0.338867C8.35158 0.338867 9.21825 0.513978 10.0294 0.864201C10.8405 1.21442 11.546 1.68931 12.146 2.28887C12.746 2.88887 13.2211 3.59442 13.5714 4.40553C13.9216 5.21665 14.0965 6.08331 14.096 7.00553C14.096 7.92776 13.9209 8.79442 13.5707 9.60553C13.2205 10.4166 12.7456 11.1222 12.146 11.7222C11.546 12.3222 10.8405 12.7973 10.0294 13.1475C9.21825 13.4978 8.35158 13.6726 7.42936 13.6722Z" fill="#3CAAE1"/>
</svg>
