<svg width="43" height="40" viewBox="0 0 43 40" fill="none" xmlns="http://www.w3.org/2000/svg">
<path d="M23.1495 3.29615C25.2442 1.78793 27.6742 1.03381 30.4183 1.03381C31.9265 1.03381 33.5814 1.43182 35.3829 2.26972C37.1843 3.08667 38.6088 4.05026 39.6562 5.16048C41.8138 7.84177 42.7145 10.963 42.4003 14.524C42.0651 18.0851 40.8921 20.8711 38.8602 22.8402L22.961 38.7394C22.563 39.1374 22.0602 39.3259 21.4737 39.3259C20.8872 39.3259 20.4054 39.1374 20.0074 38.7394C19.8137 38.5487 19.6616 38.32 19.5606 38.0676C19.4597 37.8153 19.4121 37.5447 19.4208 37.2731C19.4208 36.6865 19.6094 36.1838 20.0074 35.7858L29.6223 26.1709C30.146 25.71 30.146 25.2282 29.6223 24.7045C29.0986 24.1809 28.6168 24.1809 28.156 24.7045L18.541 34.3195C18.3472 34.5147 18.1149 34.6677 17.8589 34.7687C17.6029 34.8696 17.3287 34.9164 17.0538 34.906C16.4672 34.906 15.9854 34.7175 15.5874 34.3195C15.3938 34.1288 15.2417 33.9 15.1407 33.6477C15.0398 33.3953 14.9922 33.1248 15.0009 32.8531C15.0009 32.2666 15.1894 31.7639 15.5874 31.3659L25.2024 21.7509C25.7679 21.2272 25.7679 20.7036 25.2024 20.1799C24.7206 19.6562 24.2597 19.6562 23.736 20.1799L14.1211 29.8995C13.925 30.0918 13.6924 30.2428 13.4369 30.3435C13.1814 30.4443 12.9084 30.4927 12.6338 30.4861C12.0473 30.4861 11.5446 30.2975 11.1047 29.8995C10.6857 29.5015 10.4762 29.0197 10.4762 28.4332C10.4762 27.8467 10.7067 27.323 11.1675 26.8621L20.8034 17.2263C21.3271 16.7026 21.3271 16.2208 20.8034 15.7599C20.2797 15.2991 19.7769 15.2991 19.3161 15.7599L9.59643 25.4168C9.13559 25.8357 8.65379 26.0661 8.1301 26.0661C7.54357 26.0661 7.04083 25.8567 6.66377 25.4168C6.26577 24.9978 6.0563 24.4951 6.0563 23.9085C6.0563 23.322 6.26577 22.8402 6.66377 22.4422C13.0737 15.9904 17.0328 12.0941 18.541 10.6487L25.9984 18.0223C26.8153 18.7973 27.758 19.1953 28.9101 19.1953C30.3764 19.1953 31.5285 18.6088 32.3874 17.4357C32.9739 16.5769 33.1834 15.6343 33.0158 14.5869C32.8482 13.5395 32.4083 12.6597 31.6961 11.9265L23.1495 3.29615ZM27.4647 16.5559L18.541 7.61134L3.71017 22.4422C1.95058 20.6617 0.945094 17.9385 0.714671 14.2308C0.484248 10.544 1.48973 7.33903 3.71017 4.65774C6.20293 2.18593 9.17748 0.929077 12.6338 0.929077C16.1111 0.929077 19.0647 2.18593 21.4737 4.65774L30.4183 13.6023C30.8163 14.0003 31.0048 14.4821 31.0048 15.0687C31.0048 15.6552 30.8163 16.1579 30.4183 16.5559C30.0203 16.933 29.5385 17.1425 28.9101 17.1425C28.3445 17.1425 27.8627 16.933 27.4647 16.5559Z" fill="white"/>
</svg>
