<svg width="15" height="14" viewBox="0 0 15 14" fill="none" xmlns="http://www.w3.org/2000/svg">
<path d="M6.69818 5.25033C6.69818 5.09562 6.75964 4.94724 6.86903 4.83785C6.97843 4.72845 7.1268 4.66699 7.28151 4.66699C7.43622 4.66699 7.58459 4.72845 7.69399 4.83785C7.80339 4.94724 7.86484 5.09562 7.86484 5.25033V7.85783L8.57068 7.93366L11.4523 9.21116C11.7615 9.35116 11.9482 9.66033 11.9482 9.99866V12.542C11.9307 13.0203 11.5515 13.3995 11.0732 13.417H7.28151C7.05984 13.417 6.84984 13.3295 6.69818 13.1662L3.83984 10.7162L4.27151 10.267C4.38234 10.1445 4.53984 10.0803 4.70318 10.0803H4.83151L6.69818 11.0837V5.25033ZM6.11484 7.25699V5.25033C6.11484 4.94091 6.23776 4.64416 6.45655 4.42537C6.67535 4.20658 6.97209 4.08366 7.28151 4.08366C7.59093 4.08366 7.88768 4.20658 8.10647 4.42537C8.32526 4.64416 8.44818 4.94091 8.44818 5.25033V7.25699C9.14234 6.85449 9.61484 6.10783 9.61484 5.25033C9.61484 4.63149 9.36901 4.03799 8.93143 3.60041C8.49384 3.16282 7.90035 2.91699 7.28151 2.91699C6.66267 2.91699 6.06918 3.16282 5.63159 3.60041C5.19401 4.03799 4.94818 4.63149 4.94818 5.25033C4.94818 6.10783 5.42068 6.85449 6.11484 7.25699Z" fill="#3CAAE1"/>
</svg>
