<svg width="21" height="21" viewBox="0 0 21 21" fill="none" xmlns="http://www.w3.org/2000/svg">
<path fill-rule="evenodd" clip-rule="evenodd" d="M16.9986 0.594685L17.2711 0.628882C17.9913 0.728265 18.9446 0.861845 19.4842 1.40258C19.9266 1.84393 20.0966 2.56205 20.1981 3.20324L20.2579 3.61573C20.3926 4.58819 20.4278 5.86201 20.1981 7.27689C19.745 10.0693 18.2585 13.4013 14.5257 15.981C14.5054 16.1819 14.5044 16.3849 14.5086 16.588L14.5193 16.8915C14.5364 17.3584 14.5535 17.8254 14.4232 18.2785C14.2201 18.9838 13.4966 19.4487 12.8202 19.7821L12.4889 19.9392L12.0615 20.1273C11.2621 20.4671 10.1828 20.8155 9.50634 20.138C9.10025 19.733 8.93355 19.1388 8.79783 18.5478L8.7476 18.3266C8.69019 18.0475 8.61886 17.7715 8.53388 17.4995C8.48044 17.3428 8.42274 17.1843 8.36075 17.024C8.29254 17.1077 8.22014 17.188 8.14382 17.2644C7.77514 17.6331 7.22479 17.8906 6.77169 18.0712C6.27691 18.2668 5.71694 18.4378 5.19865 18.5788L4.93256 18.6494L4.42282 18.7765L3.96116 18.8834L3.40868 19.0009L3.06351 19.0683C2.89136 19.1001 2.71404 19.0897 2.54685 19.0377C2.37965 18.9858 2.2276 18.894 2.1038 18.7702C1.98001 18.6464 1.88819 18.4943 1.83625 18.3271C1.78432 18.1599 1.77384 17.9826 1.80572 17.8105L1.89762 17.3499L2.06219 16.604L2.1947 16.059L2.29515 15.6743C2.43621 15.157 2.6072 14.5971 2.80383 14.1034C2.98336 13.6492 3.2409 13.0988 3.60958 12.7302L3.69507 12.6479L3.62668 12.6201C3.44402 12.5507 3.25904 12.4876 3.07205 12.4309L2.77604 12.3401C2.0344 12.1157 1.24147 11.8742 0.748831 11.3805C0.150392 10.7831 0.352365 9.87369 0.640898 9.11709L0.758448 8.82428L0.947598 8.39683L1.10469 8.06555C1.4381 7.39017 1.90296 6.6667 2.60826 6.46366C2.98229 6.35679 3.37127 6.35038 3.7624 6.36107L3.9975 6.36855C4.30313 6.37924 4.60769 6.39099 4.90584 6.36214C7.48554 2.62831 10.8176 1.14183 13.6099 0.688726C14.7301 0.505 15.8699 0.473367 16.9986 0.594685ZM6.51308 14.1397C6.34494 14.0151 6.14392 13.9426 5.93495 13.9312C5.72598 13.9198 5.51826 13.97 5.33757 14.0756L5.22002 14.1547L5.12064 14.2434L4.98706 14.4122C4.70921 14.814 4.55105 15.3697 4.42816 15.8891L4.31275 16.3892L4.25824 16.6168L4.46236 16.5677L4.90905 16.4651C5.52672 16.3208 6.21172 16.1338 6.63276 15.7544C6.81583 15.5714 6.92627 15.3282 6.94357 15.07C6.96086 14.8117 6.88384 14.556 6.7268 14.3502L6.63918 14.2498L6.61353 14.2252L6.51308 14.1397ZM14.1891 6.687C13.9907 6.4885 13.7551 6.33102 13.4958 6.22357C13.2365 6.11611 12.9586 6.06078 12.6779 6.06073C12.3972 6.06068 12.1193 6.11591 11.86 6.22328C11.6006 6.33064 11.365 6.48803 11.1665 6.68647C10.968 6.8849 10.8105 7.12049 10.703 7.37979C10.5956 7.63908 10.5402 7.917 10.5402 8.19768C10.5401 8.47836 10.5954 8.7563 10.7027 9.01563C10.8101 9.27497 10.9675 9.51061 11.1659 9.70912C11.5667 10.11 12.1103 10.3353 12.6771 10.3354C13.244 10.3355 13.7877 10.1104 14.1886 9.70965C14.5895 9.3089 14.8148 8.7653 14.8149 8.19844C14.815 7.63158 14.5899 7.0879 14.1891 6.687Z" fill="white"/>
</svg>
