<svg width="22" height="22" viewBox="0 0 22 22" fill="none" xmlns="http://www.w3.org/2000/svg">
<path d="M18.781 3.28476L19.2632 3.76697C19.9277 4.43226 19.8272 5.61164 19.0368 6.40117L9.0926 16.3454L5.87076 17.5239C5.46619 17.6727 5.07224 17.4798 4.99215 17.0949C4.96508 16.9552 4.97782 16.8108 5.02893 16.678L6.23037 13.4284L16.1468 3.51115C16.9371 2.72163 18.1165 2.61947 18.781 3.28476ZM8.6586 4.27371C8.76594 4.27371 8.87221 4.29485 8.97138 4.33592C9.07054 4.37699 9.16064 4.4372 9.23653 4.51309C9.31243 4.58898 9.37263 4.67908 9.4137 4.77824C9.45478 4.87741 9.47592 4.98369 9.47592 5.09102C9.47592 5.19835 9.45478 5.30463 9.4137 5.40379C9.37263 5.50295 9.31243 5.59305 9.23653 5.66894C9.16064 5.74484 9.07054 5.80504 8.97138 5.84611C8.87221 5.88719 8.76594 5.90833 8.6586 5.90833H5.38936C4.95583 5.90833 4.54006 6.08055 4.23351 6.3871C3.92696 6.69365 3.75474 7.10942 3.75474 7.54295V17.3507C3.75474 17.7842 3.92696 18.2 4.23351 18.5065C4.54006 18.8131 4.95583 18.9853 5.38936 18.9853H15.1971C15.6306 18.9853 16.0464 18.8131 16.3529 18.5065C16.6595 18.2 16.8317 17.7842 16.8317 17.3507V14.0814C16.8317 13.8647 16.9178 13.6568 17.0711 13.5035C17.2244 13.3502 17.4323 13.2641 17.649 13.2641C17.8658 13.2641 18.0737 13.3502 18.227 13.5035C18.3802 13.6568 18.4663 13.8647 18.4663 14.0814V17.3507C18.4663 18.2177 18.1219 19.0493 17.5088 19.6624C16.8957 20.2755 16.0641 20.6199 15.1971 20.6199H5.38936C4.5223 20.6199 3.69076 20.2755 3.07766 19.6624C2.46455 19.0493 2.12012 18.2177 2.12012 17.3507V7.54295C2.12012 6.67589 2.46455 5.84435 3.07766 5.23124C3.69076 4.61814 4.5223 4.27371 5.38936 4.27371H8.6586Z" fill="#3CAAE1"/>
</svg>
