<svg width="17" height="17" viewBox="0 0 17 17" fill="none" xmlns="http://www.w3.org/2000/svg">
<g clip-path="url(#clip0_7775_3418)">
<path d="M13.9849 2.71875C13.9849 2.32093 14.1429 1.93939 14.4242 1.65809C14.7055 1.37679 15.087 1.21875 15.4849 1.21875C15.8827 1.21875 16.2642 1.37679 16.5455 1.65809C16.8268 1.93939 16.9849 2.32093 16.9849 2.71875V13.7188C16.9849 14.1166 16.8268 14.4981 16.5455 14.7794C16.2642 15.0607 15.8827 15.2188 15.4849 15.2188C15.087 15.2188 14.7055 15.0607 14.4242 14.7794C14.1429 14.4981 13.9849 14.1166 13.9849 13.7188V2.71875ZM12.9849 3.44275C10.9179 4.39275 8.44586 4.92375 5.98486 5.09875V11.3357C6.34811 11.3562 6.71086 11.3845 7.07286 11.4207C9.12586 11.6248 11.1109 12.0887 12.9849 12.9808V3.44275ZM4.98486 11.2837V5.15275C4.30486 5.17975 3.58586 5.19575 2.97686 5.20575C2.4472 5.21309 1.94162 5.42819 1.56903 5.80471C1.19643 6.18123 0.986648 6.68904 0.984863 7.21875V9.21875C0.984863 10.3247 1.88086 11.2148 2.97886 11.2277L3.47486 11.2358C3.97837 11.2458 4.48174 11.2618 4.98486 11.2837ZM6.37486 12.3647C6.6602 12.3861 6.94353 12.4121 7.22486 12.4427L7.47786 14.1327C7.50539 14.2774 7.50065 14.4263 7.46397 14.5689C7.4273 14.7115 7.35959 14.8442 7.26569 14.9576C7.17179 15.071 7.05401 15.1622 6.92076 15.2248C6.78751 15.2874 6.64209 15.3198 6.49486 15.3197H5.94686C5.75249 15.3197 5.56233 15.2631 5.39964 15.1567C5.23696 15.0503 5.10881 14.8988 5.03086 14.7207L3.71686 12.2408C4.28111 12.2548 4.84516 12.2762 5.40886 12.3048C5.7362 12.3221 6.0582 12.3421 6.37486 12.3647Z" fill="#3CAAE1"/>
</g>
<defs>
<clipPath id="clip0_7775_3418">
<rect width="16" height="16" fill="white" transform="translate(0.984863 0.21875)"/>
</clipPath>
</defs>
</svg>
