<svg width="72" height="51" viewBox="0 0 72 51" fill="none" xmlns="http://www.w3.org/2000/svg">
<path fill-rule="evenodd" clip-rule="evenodd" d="M0.570801 28.7255C0.571012 31.9809 1.68277 35.1386 3.72208 37.676C5.76139 40.2135 8.60599 41.9785 11.7851 42.6791C12.4736 44.848 13.8346 46.7415 15.671 48.0854C17.5073 49.4293 19.7238 50.1538 21.9994 50.1541C23.8938 50.1541 25.7106 49.4015 27.0501 48.062C28.3897 46.7224 29.1422 44.9056 29.1422 43.0112V32.2969H43.428V43.0112C43.428 44.9056 44.1805 46.7224 45.5201 48.062C46.8596 49.4015 48.6764 50.1541 50.5708 50.1541C55.3565 50.1541 59.4137 47.0112 60.7851 42.6791C63.9642 41.9785 66.8088 40.2135 68.8481 37.676C70.8874 35.1386 71.9992 31.9809 71.9994 28.7255V21.5826C71.9992 18.3273 70.8874 15.1696 68.8481 12.6321C66.8088 10.0947 63.9642 8.3296 60.7851 7.62906C60.0966 5.46012 58.7356 3.56662 56.8993 2.22273C55.0629 0.878839 52.8464 0.15431 50.5708 0.154053C48.6764 0.154053 46.8596 0.906602 45.5201 2.24615C44.1805 3.58569 43.428 5.40251 43.428 7.29691V18.0112H29.1422V7.29691C29.1422 5.40251 28.3897 3.58569 27.0501 2.24615C25.7106 0.906602 23.8938 0.154053 21.9994 0.154053C17.2137 0.154053 13.1565 3.29691 11.7851 7.62906C8.60599 8.3296 5.76139 10.0947 3.72208 12.6321C1.68277 15.1696 0.571012 18.3273 0.570801 21.5826V28.7255Z" fill="white" fill-opacity="0.53"/>
</svg>
