<svg width="61" height="60" viewBox="0 0 61 60" fill="none" xmlns="http://www.w3.org/2000/svg">
<circle cx="30.3005" cy="29.8396" r="29.8396" fill="#F17E00"/>
<path fill-rule="evenodd" clip-rule="evenodd" d="M30.3043 49.6125C19.3838 49.6125 10.5312 40.7599 10.5312 29.8395C10.5312 18.919 19.3838 10.0664 30.3043 10.0664C41.2248 10.0664 50.0773 18.919 50.0773 29.8395C50.0773 40.7599 41.2248 49.6125 30.3043 49.6125ZM28.0139 23.1092H30.7657C33.2941 23.1092 34.5646 24.4332 34.5646 26.5291C34.5646 28.6382 33.2941 29.9754 30.7517 29.9754H28.0139V23.1092ZM31.4726 32.3342C35.1149 32.3342 37.5132 29.8708 37.5132 26.5159C37.5132 23.1487 35.1676 20.659 31.5648 20.659H25.118V30.8405H22.5351V32.3342H25.1172V34.8758H22.5351V36.3563H25.1172V39.2127H28.0123V36.3563H33.267V34.8758H28.0123V32.3342H31.4726Z" fill="white"/>
</svg>
