<svg width="16" height="13" viewBox="0 0 16 13" fill="none" xmlns="http://www.w3.org/2000/svg">
<path d="M6.7907 1.31835C5.66164 0.779289 4.08352 0.515227 1.9707 0.505852C1.77144 0.503144 1.57609 0.561248 1.4107 0.672414C1.27495 0.764173 1.16383 0.887885 1.0871 1.03267C1.01038 1.17745 0.970407 1.33887 0.970705 1.50273V10.4434C0.970705 11.0477 1.4007 11.5037 1.9707 11.5037C4.19164 11.5037 6.41945 11.7112 7.75383 12.9724C7.77208 12.9897 7.79503 13.0013 7.81981 13.0057C7.8446 13.0101 7.87013 13.0072 7.89323 12.9972C7.91634 12.9872 7.936 12.9706 7.94977 12.9496C7.96355 12.9285 7.97082 12.9038 7.9707 12.8787V2.34398C7.97076 2.2729 7.95555 2.20264 7.92612 2.13795C7.89668 2.07325 7.8537 2.01563 7.80008 1.96898C7.49443 1.70767 7.1549 1.48882 6.7907 1.31835ZM15.5307 0.671477C15.3652 0.560587 15.1699 0.502808 14.9707 0.505852C12.8579 0.515227 11.2798 0.778039 10.1507 1.31835C9.78652 1.48852 9.44691 1.70694 9.14102 1.96773C9.08752 2.01446 9.04464 2.07211 9.01526 2.13679C8.98588 2.20147 8.97069 2.27169 8.97071 2.34273V12.878C8.97069 12.9022 8.97782 12.9259 8.99119 12.946C9.00457 12.9662 9.0236 12.9819 9.0459 12.9913C9.06819 13.0007 9.09276 13.0033 9.11652 12.9988C9.14028 12.9942 9.16218 12.9828 9.17945 12.9659C9.98164 12.169 11.3895 11.5027 14.972 11.503C15.2372 11.503 15.4915 11.3977 15.6791 11.2101C15.8666 11.0226 15.972 10.7683 15.972 10.503V1.50304C15.9723 1.33886 15.9323 1.17712 15.8553 1.03209C15.7783 0.887061 15.6669 0.763212 15.5307 0.671477Z" fill="#3CAAE1"/>
</svg>
