<svg width="36" height="33" viewBox="0 0 36 33" fill="none" xmlns="http://www.w3.org/2000/svg">
<path d="M23.7217 1.83203L34.9717 5.58203V14.957H29.3467V29.957C29.3467 30.4543 29.1491 30.9312 28.7975 31.2829C28.4459 31.6345 27.969 31.832 27.4717 31.832H8.72168C8.2244 31.832 7.74749 31.6345 7.39585 31.2829C7.04422 30.9312 6.84668 30.4543 6.84668 29.957V14.957H1.22168V5.58203L12.4717 1.83203C12.4717 3.32387 13.0643 4.75461 14.1192 5.80951C15.1741 6.8644 16.6048 7.45703 18.0967 7.45703C19.5885 7.45703 21.0193 6.8644 22.0742 5.80951C23.129 4.75461 23.7217 3.32387 23.7217 1.83203Z" stroke="#3CAAE1" stroke-width="2" stroke-linecap="round" stroke-linejoin="round"/>
<path d="M15.2842 14.957H19.9717L17.1592 24.332" stroke="#3CAAE1" stroke-width="2" stroke-linecap="round" stroke-linejoin="round"/>
</svg>
