<svg width="99" height="94" viewBox="0 0 99 94" fill="none" xmlns="http://www.w3.org/2000/svg">
<g clip-path="url(#clip0_4905_24170)">
<path d="M7.08594 78.6753C7.08594 57.7392 7.08594 36.8031 7.08594 15.8671C7.57691 15.7767 8.06788 15.6873 8.55837 15.5955C11.9713 14.959 15.3848 14.3229 18.7977 13.685C21.969 13.0921 25.1393 12.4958 28.3106 11.9019C31.03 11.3927 33.7494 10.8859 36.4688 10.3767C39.6477 9.78138 42.8262 9.18511 46.0051 8.58932C49.0748 8.01387 52.1441 7.43748 55.2138 6.86251C55.3812 6.83128 55.5504 6.80856 55.7534 6.77686V14.8979C55.9069 14.8979 56.0318 14.8979 56.1562 14.8979C66.9628 14.8979 77.7689 14.8946 88.5755 14.906C89.1079 14.9064 89.6642 14.9604 90.1676 15.1189C91.8826 15.6593 92.9213 17.1552 92.9213 18.9823C92.9213 37.8452 92.9213 56.708 92.9213 75.5709C92.9213 75.6263 92.9237 75.6812 92.9208 75.7365C92.8388 77.346 92.0904 78.5319 90.6347 79.2616C89.9559 79.6018 89.2233 79.6478 88.4782 79.6478C77.7036 79.6444 66.929 79.6454 56.1543 79.6449C56.0299 79.6449 55.9055 79.6449 55.7425 79.6449V87.7773C55.6095 87.756 55.5161 87.7428 55.4236 87.7257C53.7877 87.4191 52.1517 87.111 50.5153 86.8053C47.3517 86.2143 44.1875 85.6256 41.0243 85.0336C37.6038 84.3938 34.1841 83.7506 30.7636 83.1104C27.608 82.5198 24.452 81.9311 21.2964 81.3405C18.1332 80.7485 14.9701 80.156 11.8069 79.5626C10.2334 79.2677 8.6599 78.971 7.08641 78.6753H7.08594ZM67.552 40.8502H55.762V43.778H67.5686C67.5686 43.885 67.5686 43.9702 67.5686 44.0549C67.5686 46.3093 67.5644 48.5633 67.5744 50.8178C67.5753 51.0596 67.5105 51.1221 67.2698 51.1206C65.6186 51.1102 63.9669 51.115 62.3158 51.1145C60.2513 51.1145 58.1873 51.1145 56.1229 51.1145C55.8702 51.1145 55.7437 51.2427 55.7434 51.4992C55.743 52.2166 55.7425 52.9336 55.7434 53.651C55.7434 53.7277 55.7511 53.8043 55.7568 53.9094H67.571V61.2288H55.7615V63.7927H67.5138V71.1571H55.7668V76.3442H89.4916V18.193H55.7601V23.398H67.5153V30.7624H55.7477C55.7477 30.8741 55.7477 30.9597 55.7477 31.0449C55.7472 31.7543 55.7477 32.4636 55.7458 33.173C55.7453 33.5057 55.7439 33.5057 56.0804 33.5057C59.8199 33.5057 63.5594 33.5057 67.2989 33.5066C67.3823 33.5066 67.4657 33.5137 67.5529 33.5175V40.8497L67.552 40.8502ZM29.6858 43.4898C29.4522 42.7696 29.2597 42.0531 28.9894 41.367C28.4179 39.9175 27.8053 38.4841 27.2105 37.0435C26.7381 35.9007 26.2638 34.7593 25.7976 33.6141C25.7299 33.447 25.6589 33.358 25.4549 33.3926C25.2218 33.4323 24.9815 33.4314 24.7442 33.4465C23.471 33.5294 22.1973 33.6098 20.9246 33.6945C20.5247 33.721 20.1257 33.7598 19.7043 33.7948C19.7401 33.8857 19.7606 33.9519 19.7911 34.0139C20.2039 34.8553 20.6181 35.6963 21.0323 36.5372C22.6783 39.8805 24.3252 43.2229 25.9644 46.5696C26.0059 46.6539 25.9935 46.7987 25.9478 46.8848C25.2552 48.1862 24.5521 49.4819 23.8533 50.7804C22.3742 53.5289 20.896 56.2779 19.4179 59.0273C19.3187 59.2119 19.2253 59.3993 19.1195 59.6037C19.5752 59.6416 19.9918 59.6813 20.4093 59.7102C21.8165 59.8082 23.2245 59.8967 24.6312 60.0031C24.8881 60.0225 25.0044 59.9293 25.1064 59.7069C26.0197 57.7165 26.9511 55.7346 27.8625 53.7433C28.3497 52.6785 28.9274 51.6502 29.2225 50.5054C29.2897 50.2447 29.3607 49.9849 29.416 49.7776C29.6129 50.3999 29.7611 51.0762 30.0352 51.698C31.2574 54.473 32.5234 57.2295 33.7527 60.0017C33.9477 60.4418 34.1379 60.7887 34.6994 60.6718C34.707 60.6704 34.7151 60.6727 34.7232 60.6732C35.7509 60.7485 36.7786 60.8246 37.8063 60.898C38.6839 60.9605 39.5619 61.0206 40.4399 61.0788C40.5596 61.0868 40.6807 61.0797 40.8308 61.0797C40.7622 60.9434 40.715 60.845 40.6635 60.7485C39.7621 59.0581 38.8617 57.3668 37.9579 55.6774C36.3854 52.7367 34.8138 49.7951 33.2303 46.8602C33.1202 46.6557 33.1378 46.5133 33.2384 46.325C34.1217 44.6696 34.9978 43.0105 35.8749 41.3518C37.3893 38.4874 38.9027 35.6224 40.4166 32.758C40.4805 32.6373 40.5396 32.5143 40.6087 32.3775C40.4061 32.3775 40.2402 32.3681 40.0753 32.3789C39.0395 32.4495 38.0037 32.5247 36.9684 32.598C36.138 32.6567 35.3081 32.7225 34.4773 32.7675C34.2857 32.7779 34.2032 32.8597 34.1317 33.0173C33.2337 34.9968 32.3256 36.9716 31.4323 38.953C30.9566 40.0083 30.407 41.0333 30.0886 42.1544C29.9623 42.5997 29.8221 43.0408 29.6872 43.488L29.6858 43.4898Z" fill="#309446"/>
<path d="M70.6172 30.7351V23.4119H84.0574V30.7351H70.6172Z" fill="#309446"/>
<path d="M70.6172 71.1249V63.8013H84.0569V71.1249H70.6172Z" fill="#309446"/>
<path d="M70.6172 51.098V43.7871H84.0502V51.098H70.6172Z" fill="#309446"/>
<path d="M84.058 40.828H70.625V33.5251H84.058V40.828Z" fill="#309446"/>
<path d="M84.0595 53.9187V61.1979H70.625V53.9187H84.0595Z" fill="#309446"/>
</g>
<defs>
<clipPath id="clip0_4905_24170">
<rect width="85.8358" height="81" fill="white" transform="translate(7.08594 6.77686)"/>
</clipPath>
</defs>
</svg>
