<svg width="15" height="15" viewBox="0 0 15 15" fill="none" xmlns="http://www.w3.org/2000/svg">
<path d="M2.24479 7.51367C1.60312 7.51367 1.07812 6.98867 1.07812 6.347V3.43034C1.07812 2.78867 1.60312 2.26367 2.24479 2.26367H6.91146C7.55312 2.26367 8.07812 2.78867 8.07812 3.43034V6.347C8.07812 6.98867 7.55312 7.51367 6.91146 7.51367H5.74479V9.26367L3.99479 7.51367H2.24479ZM12.7448 11.0137C13.3865 11.0137 13.9115 10.4887 13.9115 9.847V6.93034C13.9115 6.28867 13.3865 5.76367 12.7448 5.76367H9.24479V6.347C9.24479 7.63034 8.19479 8.68034 6.91146 8.68034V9.847C6.91146 10.4887 7.43646 11.0137 8.07812 11.0137H9.24479V12.7637L10.9948 11.0137H12.7448Z" fill="#3CAAE1"/>
</svg>
