<svg width="15" height="15" viewBox="0 0 15 15" fill="none" xmlns="http://www.w3.org/2000/svg">
<path d="M7.48958 2.34635V1.17969H13.3229V2.34635H7.48958ZM7.48958 4.67969V3.51302H13.3229V4.67969H7.48958ZM7.48958 7.01302V5.84635H13.3229V7.01302H7.48958ZM11.5437 12.8464C10.3285 12.8464 9.12778 12.5815 7.94167 12.0519C6.75556 11.5222 5.67639 10.771 4.70417 9.79844C3.73194 8.82583 2.981 7.74666 2.45133 6.56094C1.92167 5.37522 1.65664 4.17452 1.65625 2.95885C1.65625 2.78385 1.71458 2.63802 1.83125 2.52135C1.94792 2.40469 2.09375 2.34635 2.26875 2.34635H4.63125C4.76736 2.34635 4.88889 2.39263 4.99583 2.48519C5.10278 2.57774 5.16597 2.68702 5.18542 2.81302L5.56458 4.85469C5.58403 5.01024 5.57917 5.14149 5.55 5.24844C5.52083 5.35538 5.46736 5.44774 5.38958 5.52552L3.975 6.95469C4.16944 7.31441 4.40025 7.66208 4.66742 7.99769C4.93458 8.3333 5.22878 8.65647 5.55 8.96719C5.85139 9.26858 6.16736 9.54819 6.49792 9.80602C6.82847 10.0639 7.17847 10.2995 7.54792 10.513L8.91875 9.14219C9.00625 9.05469 9.12058 8.98916 9.26175 8.9456C9.40292 8.90205 9.54136 8.8898 9.67708 8.90885L11.6896 9.31719C11.8257 9.35608 11.9375 9.42666 12.025 9.52894C12.1125 9.63122 12.1562 9.74535 12.1562 9.87135V12.2339C12.1562 12.4089 12.0979 12.5547 11.9812 12.6714C11.8646 12.788 11.7188 12.8464 11.5437 12.8464ZM3.42083 5.84635L4.38333 4.88385L4.13542 3.51302H2.8375C2.88611 3.91163 2.95417 4.30538 3.04167 4.69427C3.12917 5.08316 3.25556 5.46719 3.42083 5.84635ZM8.64167 11.0672C9.02083 11.2325 9.40739 11.3637 9.80133 11.4609C10.1953 11.5582 10.5914 11.6214 10.9896 11.6505V10.3672L9.61875 10.0901L8.64167 11.0672Z" fill="#3CAAE1"/>
</svg>
