<svg width="15" height="13" viewBox="0 0 15 13" fill="none" xmlns="http://www.w3.org/2000/svg">
<path d="M5.80618 1.49795C4.7677 1.00214 3.31619 0.759262 1.3729 0.750639C1.18962 0.748149 1.00995 0.801591 0.857825 0.903838C0.732963 0.988235 0.630753 1.10202 0.560184 1.23519C0.489616 1.36836 0.452852 1.51682 0.453127 1.66753V9.89084C0.453127 10.4467 0.848627 10.8661 1.3729 10.8661C3.41564 10.8661 5.46472 11.0569 6.69203 12.217C6.70882 12.2329 6.72992 12.2436 6.75272 12.2476C6.77552 12.2517 6.799 12.2489 6.82025 12.2398C6.8415 12.2306 6.85958 12.2153 6.87225 12.196C6.88492 12.1766 6.89162 12.1539 6.89151 12.1308V2.44129C6.89156 2.37592 6.87757 2.31129 6.8505 2.25179C6.82342 2.19228 6.78389 2.13929 6.73457 2.09638C6.45344 1.85604 6.14116 1.65475 5.80618 1.49795ZM13.845 0.902976C13.6928 0.800983 13.5131 0.74784 13.3299 0.750639C11.3866 0.759262 9.93508 1.00099 8.8966 1.49795C8.56164 1.65446 8.24928 1.85536 7.96792 2.09523C7.91872 2.13821 7.87928 2.19123 7.85226 2.25072C7.82524 2.31021 7.81126 2.3748 7.81128 2.44014V12.1302C7.81126 12.1524 7.81782 12.1742 7.83012 12.1927C7.84242 12.2113 7.85993 12.2258 7.88044 12.2344C7.90094 12.243 7.92354 12.2454 7.94539 12.2412C7.96725 12.2371 7.98738 12.2265 8.00328 12.211C8.7411 11.478 10.036 10.8652 13.331 10.8655C13.575 10.8655 13.8089 10.7686 13.9814 10.5961C14.1539 10.4236 14.2508 10.1897 14.2508 9.94574V1.66782C14.2511 1.51681 14.2143 1.36805 14.1435 1.23466C14.0727 1.10126 13.9702 0.987351 13.845 0.902976Z" fill="#ffffff"/>
</svg>
