<svg width="60" height="60" viewBox="0 0 60 60" fill="none" xmlns="http://www.w3.org/2000/svg">
<circle cx="29.8981" cy="29.8396" r="29.8396" fill="#F17E00"/>
<path d="M16.5088 40.2569C16.5088 41.5483 17.0218 42.7868 17.9349 43.6999C18.8481 44.6131 20.0866 45.126 21.3779 45.126H28.3773C28.458 45.126 28.5354 45.094 28.5925 45.0369C28.6496 44.9798 28.6817 44.9024 28.6817 44.8217V30.8229C28.6817 30.7422 28.6496 30.6648 28.5925 30.6078C28.5354 30.5507 28.458 30.5186 28.3773 30.5186H17.1174C16.956 30.5186 16.8012 30.5827 16.6871 30.6969C16.5729 30.811 16.5088 30.9658 16.5088 31.1273V40.2569ZM28.6817 27.7797V19.563H31.1162V27.7797C31.1162 27.8604 31.1483 27.9378 31.2054 27.9949C31.2624 28.052 31.3398 28.084 31.4205 28.084H42.0718C42.4865 28.0841 42.8982 28.0133 43.2891 27.8748C44.0005 27.6223 44.6163 27.1558 45.0522 26.5395C45.488 25.9231 45.7226 25.1871 45.7237 24.4322V23.2149C45.7237 22.2464 45.3389 21.3175 44.6541 20.6326C43.9692 19.9478 43.0403 19.563 42.0718 19.563H38.9875C38.961 19.5626 38.9351 19.5553 38.9123 19.5418C38.8895 19.5282 38.8706 19.509 38.8575 19.4859C38.8445 19.4629 38.8377 19.4368 38.8378 19.4103C38.8379 19.3838 38.8449 19.3578 38.8582 19.3348C39.5625 18.1456 39.7913 16.734 39.4986 15.3832C39.2059 14.0324 38.4134 12.8421 37.2799 12.0511C36.1465 11.2601 34.7559 10.9269 33.387 11.1182C32.0181 11.3094 30.7722 12.0111 29.8989 13.0825C29.0257 12.0111 27.7798 11.3094 26.4109 11.1182C25.042 10.9269 23.6514 11.2601 22.518 12.0511C21.3845 12.8421 20.592 14.0324 20.2993 15.3832C20.0066 16.734 20.2353 18.1456 20.9397 19.3348C20.953 19.3578 20.96 19.3838 20.9601 19.4103C20.9602 19.4368 20.9534 19.4629 20.9403 19.4859C20.9273 19.509 20.9084 19.5282 20.8856 19.5418C20.8628 19.5553 20.8369 19.5626 20.8104 19.563H17.7261C16.7575 19.563 15.8287 19.9478 15.1438 20.6326C14.459 21.3175 14.0742 22.2464 14.0742 23.2149V24.4322C14.0753 25.1871 14.3098 25.9231 14.7457 26.5395C15.1816 27.1558 15.7974 27.6223 16.5088 27.8748C16.8997 28.0133 17.3114 28.0841 17.7261 28.084H28.3773C28.458 28.084 28.5354 28.052 28.5925 27.9949C28.6496 27.9378 28.6817 27.8604 28.6817 27.7797ZM31.1162 16.5198C31.1162 15.9179 31.2947 15.3296 31.6291 14.8291C31.9635 14.3287 32.4388 13.9386 32.9949 13.7083C33.5509 13.4779 34.1628 13.4177 34.7531 13.5351C35.3435 13.6525 35.8857 13.9423 36.3113 14.368C36.7369 14.7936 37.0268 15.3358 37.1442 15.9261C37.2616 16.5165 37.2013 17.1283 36.971 17.6844C36.7407 18.2405 36.3506 18.7158 35.8502 19.0502C35.3497 19.3846 34.7613 19.563 34.1594 19.563H31.1162V16.5198ZM25.4208 13.4842C25.8378 13.4543 26.2564 13.5107 26.6506 13.6497C27.0448 13.7887 27.4061 14.0074 27.712 14.2922C28.018 14.577 28.2619 14.9218 28.4288 15.3051C28.5956 15.6883 28.6817 16.1018 28.6817 16.5198V19.563H25.6384C24.8515 19.561 24.096 19.2543 23.5304 18.7072C22.9648 18.16 22.6331 17.4151 22.605 16.6287C22.5768 15.8423 22.8544 15.0756 23.3794 14.4894C23.9044 13.9033 24.6361 13.5433 25.4208 13.485V13.4842ZM31.4205 45.126H38.4199C39.7113 45.126 40.9498 44.6131 41.8629 43.6999C42.7761 42.7868 43.2891 41.5483 43.2891 40.2569V31.1273C43.2891 30.9658 43.225 30.811 43.1108 30.6969C42.9967 30.5827 42.8419 30.5186 42.6804 30.5186H31.4205C31.3398 30.5186 31.2624 30.5507 31.2054 30.6078C31.1483 30.6648 31.1162 30.7422 31.1162 30.8229V44.8217C31.1162 44.9024 31.1483 44.9798 31.2054 45.0369C31.2624 45.094 31.3398 45.126 31.4205 45.126Z" fill="white"/>
</svg>
