<svg width="99" height="94" viewBox="0 0 99 94" fill="none" xmlns="http://www.w3.org/2000/svg">
<g clip-path="url(#clip0_4905_24196)">
<path d="M93.0203 46.5686C92.7695 55.9273 90.288 64.3135 84.8734 71.7272C84.0745 72.8193 84.0861 73.5372 85.1088 74.4943C87.2662 76.5165 89.3502 78.6275 91.3647 80.7887C93.5298 83.1159 93.5259 85.9486 91.4959 88.0519C89.3463 90.2787 86.5522 90.3867 84.1015 88.1445C81.8709 86.1068 79.7444 83.9495 77.6759 81.7458C76.7689 80.781 76.1167 80.7656 75.0824 81.5297C67.4063 87.1874 58.669 89.9429 49.2408 89.7152C27.9183 89.2058 11.1497 73.8999 7.62237 54.0401C3.93676 33.2541 16.3289 12.441 37.0686 5.74907C54.1768 0.22645 73.7973 6.6174 84.4373 21.082C90.0911 28.7735 92.8042 37.3565 93.0242 46.5724L93.0203 46.5686ZM17.7877 41.5129H39.0909C39.0909 44.5425 39.0214 47.298 39.1179 50.0496C39.1719 51.5355 38.7397 52.0603 37.1805 52.0372C31.519 51.9484 25.8536 51.9986 20.192 52.0102C19.5128 52.0102 18.8297 52.0719 17.8842 52.1221C18.2276 53.4844 18.5866 54.5727 18.7641 55.6919C19.0149 57.2665 19.8177 57.7373 21.4038 57.6794C24.9389 57.5482 28.4817 57.5984 32.0207 57.6678C32.5764 57.6794 33.5914 58.1811 33.603 58.486C33.7188 61.666 33.6763 64.8499 33.6763 68.3117H26.0079C33.109 77.1379 47.1066 81.9658 59.9232 77.6743C74.079 72.9351 83.1329 59.8715 82.4575 45.2487C81.7706 30.4214 71.4161 18.1798 56.4769 14.9033C43.7837 12.1169 31.3414 18.0717 26.0234 25.3503H44.3974C44.3974 28.3104 44.3047 30.9424 44.4282 33.5628C44.5131 35.3034 43.9883 35.89 42.1706 35.8668C35.1583 35.7665 28.1421 35.8012 21.1298 35.8707C20.4467 35.8784 19.4009 36.2991 19.1616 36.8201C18.5557 38.1284 18.3164 39.6065 17.7915 41.5129H17.7877Z" fill="url(#paint0_linear_4905_24196)"/>
<path d="M65.832 57.6176V68.0415H39.4345C39.4345 64.8731 39.4075 61.6892 39.4809 58.5091C39.4886 58.2042 40.1176 57.6562 40.4611 57.6524C48.8666 57.606 57.2721 57.6138 65.8358 57.6138L65.832 57.6176Z" fill="url(#paint1_linear_4905_24196)"/>
<path d="M61.0039 51.987V41.6711H76.796C76.796 44.7856 76.8307 47.8537 76.7497 50.918C76.742 51.2807 76.1206 51.9368 75.7733 51.9407C70.9067 52.0101 66.0363 51.987 61 51.987H61.0039Z" fill="url(#paint2_linear_4905_24196)"/>
<path d="M50.2188 25.4543H65.9298C65.9298 28.6575 65.9569 31.7797 65.8874 34.9018C65.8797 35.2144 65.2738 35.774 64.9419 35.7779C60.0715 35.8358 55.2011 35.8165 50.2188 35.8165V25.4543Z" fill="url(#paint3_linear_4905_24196)"/>
<path d="M44.6993 41.6094H55.2815C55.2815 44.7778 55.3162 47.8961 55.2313 51.0106C55.2236 51.3502 54.5482 51.9484 54.1661 51.9599C51.4106 52.0448 48.6474 52.0564 45.8918 51.9677C45.4828 51.9561 44.7611 51.2961 44.7495 50.9179C44.6569 47.8575 44.6955 44.7971 44.6955 41.6094H44.6993Z" fill="url(#paint4_linear_4905_24196)"/>
</g>
<defs>
<linearGradient id="paint0_linear_4905_24196" x1="23.4908" y1="46.7767" x2="82.9544" y2="46.7767" gradientUnits="userSpaceOnUse">
<stop stop-color="#66BCF7"/>
<stop offset="1" stop-color="#66A0F7"/>
</linearGradient>
<linearGradient id="paint1_linear_4905_24196" x1="44.4975" y1="62.8274" x2="62.7456" y2="62.8274" gradientUnits="userSpaceOnUse">
<stop stop-color="#66BCF7"/>
<stop offset="1" stop-color="#66A0F7"/>
</linearGradient>
<linearGradient id="paint2_linear_4905_24196" x1="64.033" y1="46.8309" x2="74.954" y2="46.8309" gradientUnits="userSpaceOnUse">
<stop stop-color="#66BCF7"/>
<stop offset="1" stop-color="#66A0F7"/>
</linearGradient>
<linearGradient id="paint3_linear_4905_24196" x1="53.235" y1="30.637" x2="64.0958" y2="30.637" gradientUnits="userSpaceOnUse">
<stop stop-color="#66BCF7"/>
<stop offset="1" stop-color="#66A0F7"/>
</linearGradient>
<linearGradient id="paint4_linear_4905_24196" x1="46.722" y1="46.8193" x2="54.0479" y2="46.8193" gradientUnits="userSpaceOnUse">
<stop stop-color="#66BCF7"/>
<stop offset="1" stop-color="#66A0F7"/>
</linearGradient>
<clipPath id="clip0_4905_24196">
<rect width="86.0424" height="86" fill="white" transform="translate(6.97656 3.77686)"/>
</clipPath>
</defs>
</svg>
