<svg width="17" height="16" viewBox="0 0 17 16" fill="none" xmlns="http://www.w3.org/2000/svg">
<g clip-path="url(#clip0_2164_4570)">
<path d="M12.8047 8.88521C12.6381 8.85854 11.9981 8.67188 11.8314 8.59854L10.4514 12.9185L8.39141 12.1652L9.85807 8.31854L7.82474 6.00521L9.52474 5.03188C9.82474 5.78521 10.3047 6.41854 10.9381 6.93854C11.5714 7.45854 12.2981 7.78521 13.1114 7.91187L13.8581 5.62521L12.8981 5.31188L12.5514 6.37854C12.1114 6.19188 11.7247 5.91187 11.3914 5.55188C11.0581 5.18521 10.8181 4.75854 10.6714 4.27854L10.4514 3.55854C10.3714 3.29188 10.2181 3.07854 9.99807 2.91854C9.77807 2.76521 9.52474 2.67188 9.27807 2.65188C9.01807 2.63188 8.76474 2.67188 8.52474 2.81188L6.19141 4.15854C5.94474 4.29854 5.76474 4.49854 5.65141 4.75187C5.52474 5.00521 5.49807 5.25854 5.52474 5.53188C5.55141 5.80521 5.69807 6.04521 5.88474 6.25187L8.26474 8.72521L7.13807 11.6985L2.50474 10.0385L2.19141 10.9785L11.5514 14.3919C12.4783 14.7151 13.4797 14.7591 14.4314 14.5185C14.8247 14.4119 15.1914 14.2652 15.5247 14.0785L14.7714 13.3385C14.2714 13.5585 13.7514 13.6719 13.2114 13.6719C12.7714 13.6719 12.3314 13.5985 11.8914 13.4519L11.3914 13.2652L12.8047 8.88521ZM13.5247 2.00521C13.5247 2.74521 12.9314 3.33854 12.1914 3.33854C11.4514 3.33854 10.8581 2.74521 10.8581 2.00521C10.8581 1.26521 11.4581 0.671875 12.1914 0.671875C12.9247 0.671875 13.5247 1.27188 13.5247 2.00521Z" fill="#3CAAE1"/>
</g>
<defs>
<clipPath id="clip0_2164_4570">
<rect width="16" height="16" fill="white" transform="translate(0.858398 0.00585938)"/>
</clipPath>
</defs>
</svg>
