<svg width="46" height="46" viewBox="0 0 46 46" fill="none" xmlns="http://www.w3.org/2000/svg">
<rect x="0.477539" y="0.873535" width="44.7334" height="44.7334" rx="22.3667" fill="#FF0000"/>
<path d="M34.3261 17.4718C34.1895 16.964 33.9218 16.501 33.55 16.1292C33.1782 15.7573 32.7152 15.4897 32.2074 15.3531C30.3385 14.8523 22.8446 14.8523 22.8446 14.8523C22.8446 14.8523 15.3506 14.8523 13.4818 15.3531C12.974 15.4897 12.511 15.7573 12.1392 16.1291C11.7674 16.5009 11.4998 16.9639 11.3632 17.4717C10.8623 19.3406 10.8623 23.2399 10.8623 23.2399C10.8623 23.2399 10.8623 27.1391 11.3631 29.0079C11.4997 29.5157 11.7673 29.9787 12.1391 30.3505C12.511 30.7224 12.974 30.99 13.4818 31.1266C15.3506 31.6273 22.8446 31.6273 22.8446 31.6273C22.8446 31.6273 30.3385 31.6273 32.2074 31.1266C32.7152 30.99 33.1782 30.7224 33.55 30.3505C33.9218 29.9787 34.1895 29.5157 34.3261 29.0079C34.8268 27.1391 34.8268 23.2398 34.8268 23.2398C34.8268 23.2398 34.8268 19.3406 34.3261 17.4718Z" fill="white"/>
<path d="M20.4473 26.8348L26.6731 23.2402L20.4473 19.6455V26.8348Z" fill="#FF0000"/>
</svg>
