<svg width="91" height="63" viewBox="0 0 91 63" fill="none" xmlns="http://www.w3.org/2000/svg">
<path d="M31.9217 21.0744L21.7188 5.45973C26.7506 3.3082 32.6771 1.74599 39.0665 0.886847C45.4559 0.0277064 52.1473 -0.106714 58.6536 0.493358L67.156 15.1114L31.9217 21.0744Z" fill="#474766"/>
<path opacity="0.7" d="M31.9217 21.0744L21.7188 5.45973C26.7506 3.3082 32.6771 1.74599 39.0665 0.886847C45.4559 0.0277064 52.1473 -0.106714 58.6536 0.493358L67.156 15.1114L31.9217 21.0744Z" fill="#FFF7EF"/>
<path d="M24.6125 21.1853L35.1075 13.2289C35.2355 13.1305 35.383 13.0606 35.5402 13.0239C35.6974 12.9871 35.8607 12.9844 36.019 13.0159L48.0048 15.2904C48.2396 15.3335 48.4553 15.4486 48.6218 15.6198C48.7883 15.7909 48.8973 16.0097 48.9339 16.2457C48.9704 16.4816 48.9325 16.7231 48.8256 16.9366C48.7186 17.1501 48.5479 17.325 48.337 17.4371L38.4468 22.7953C38.2856 22.8781 38.1083 22.9246 37.9272 22.9316L25.3196 23.2554C25.0767 23.259 24.839 23.1856 24.6404 23.0458C24.4418 22.9061 24.2926 22.707 24.2141 22.4772C24.1356 22.2473 24.1318 21.9986 24.2034 21.7665C24.275 21.5344 24.4182 21.331 24.6125 21.1853Z" fill="#474766"/>
<path d="M80.6765 22.0713H12.1523V62.5349H80.6765V22.0713Z" fill="#474766"/>
<path opacity="0.2" d="M80.6765 22.0713H12.1523V62.5349H80.6765V22.0713Z" fill="#FFF7EF"/>
<path opacity="0.4" d="M80.6789 22.0713H38.1367V62.5349H80.6789V22.0713Z" fill="#FFF7EF"/>
<path d="M38.1367 22.4968L54.2711 9.50586L90.2624 11.9592L80.6789 22.4968H38.1367Z" fill="#474766"/>
<path d="M38.1388 22.4972L25.9486 8.44141L0.179688 11.21L12.1569 22.0713L38.1388 22.4972Z" fill="#474766"/>
<path opacity="0.1" d="M38.1388 22.4972L25.9486 8.44141L0.179688 11.21L12.1569 22.0713L38.1388 22.4972Z" fill="#FFF7EF"/>
<path opacity="0.4" d="M38.1367 22.4968L54.2711 9.50586L90.2624 11.9592L80.6789 22.4968H38.1367Z" fill="#FFF7EF"/>
</svg>
