<svg width="14" height="14" viewBox="0 0 14 14" fill="none" xmlns="http://www.w3.org/2000/svg">
<path d="M0.608398 13.7667V1.76668C0.608398 1.40002 0.739065 1.08624 1.0004 0.82535C1.26173 0.564461 1.57551 0.433794 1.94173 0.43335H12.6084C12.9751 0.43335 13.2891 0.564016 13.5504 0.82535C13.8117 1.08668 13.9422 1.40046 13.9417 1.76668V9.76668C13.9417 10.1334 13.8113 10.4473 13.5504 10.7087C13.2895 10.97 12.9755 11.1005 12.6084 11.1H3.27507L0.608398 13.7667ZM5.32507 8.60002L7.27507 7.41668L9.22507 8.60002L8.7084 6.38335L10.4417 4.88335L8.1584 4.70002L7.27507 2.60002L6.39173 4.70002L4.1084 4.88335L5.84173 6.38335L5.32507 8.60002Z" fill="#3CAAE1"/>
</svg>
