<svg width="15" height="14" viewBox="0 0 15 14" fill="none" xmlns="http://www.w3.org/2000/svg">
<path d="M7.38932 6.99967C6.74766 6.99967 6.19835 6.7712 5.74141 6.31426C5.28446 5.85731 5.05599 5.30801 5.05599 4.66634C5.05599 4.02467 5.28446 3.47537 5.74141 3.01842C6.19835 2.56148 6.74766 2.33301 7.38932 2.33301C8.03099 2.33301 8.58029 2.56148 9.03724 3.01842C9.49418 3.47537 9.72266 4.02467 9.72266 4.66634C9.72266 5.30801 9.49418 5.85731 9.03724 6.31426C8.58029 6.7712 8.03099 6.99967 7.38932 6.99967ZM2.72266 11.6663V10.033C2.72266 9.70245 2.80782 9.39873 2.97816 9.12184C3.14849 8.84495 3.37443 8.6334 3.65599 8.48717C4.25877 8.18579 4.87127 7.95984 5.49349 7.80934C6.11571 7.65884 6.74766 7.5834 7.38932 7.58301C8.03099 7.58262 8.66293 7.65806 9.28516 7.80934C9.90738 7.96062 10.5199 8.18656 11.1227 8.48717C11.4046 8.63301 11.6307 8.84456 11.8011 9.12184C11.9714 9.39912 12.0564 9.70284 12.056 10.033V11.6663H2.72266Z" fill="#3CAAE1"/>
</svg>
