<svg width="35" height="34" viewBox="0 0 35 34" fill="none" xmlns="http://www.w3.org/2000/svg">
<rect x="0.943359" y="0.714844" width="33.2235" height="33.2235" rx="14.4782" fill="#FF0000"/>
<path d="M26.0818 13.0426C25.9803 12.6655 25.7816 12.3216 25.5054 12.0455C25.2292 11.7693 24.8854 11.5706 24.5082 11.4692C23.1202 11.0972 17.5545 11.0972 17.5545 11.0972C17.5545 11.0972 11.9888 11.0972 10.6007 11.4691C10.2236 11.5705 9.87977 11.7693 9.60362 12.0455C9.32747 12.3216 9.12871 12.6655 9.02726 13.0426C8.65527 14.4307 8.65527 17.3267 8.65527 17.3267C8.65527 17.3267 8.65527 20.2226 9.02718 21.6105C9.12865 21.9877 9.32741 22.3315 9.60358 22.6077C9.87974 22.8838 10.2236 23.0826 10.6007 23.184C11.9888 23.556 17.5545 23.556 17.5545 23.556C17.5545 23.556 23.1202 23.556 24.5082 23.184C24.8854 23.0826 25.2292 22.8839 25.5054 22.6077C25.7816 22.3315 25.9803 21.9877 26.0818 21.6105C26.4537 20.2226 26.4537 17.3266 26.4537 17.3266C26.4537 17.3266 26.4537 14.4307 26.0818 13.0426Z" fill="white"/>
<path d="M15.7744 19.9962L20.3983 17.3265L15.7744 14.6567V19.9962Z" fill="#FF0000"/>
</svg>
