<svg width="156" height="162" viewBox="0 0 156 162" fill="none" xmlns="http://www.w3.org/2000/svg">
<path fill-rule="evenodd" clip-rule="evenodd" d="M115.284 2.73602C115.893 1.7619 116.778 0.989461 117.827 0.516314C118.876 0.0431675 120.043 -0.109448 121.179 0.0777534L151.133 5.05765C152.656 5.31076 154.016 6.15597 154.914 7.40754C155.812 8.65911 156.174 10.2147 155.921 11.7323L150.935 41.5885C150.745 42.7203 150.222 43.7705 149.433 44.6063C148.644 45.4422 147.624 46.0262 146.501 46.2846C145.379 46.543 144.205 46.4642 143.128 46.0581C142.051 45.652 141.119 44.9368 140.449 44.003L132.364 32.7431L90.7242 59.2562C88.9485 60.3883 86.8219 60.8426 84.7365 60.5354C82.651 60.2282 80.7474 59.1802 79.3764 57.5846L56.1566 30.5376L12.7345 52.7672C10.6735 53.8232 8.2759 54.0202 6.06912 53.3148C3.86234 52.6095 2.02717 51.0596 0.967312 49.0062C-0.092542 46.9527 -0.290259 44.5638 0.417658 42.3651C1.12557 40.1664 2.68114 38.3379 4.74214 37.2819L54.3158 11.8949C56.066 10.999 58.0684 10.7179 59.9989 11.0971C61.9294 11.4764 63.6749 12.4936 64.9529 13.9843L87.7183 40.509L122.204 18.5463L115.482 9.17855C114.814 8.2444 114.438 7.13386 114.403 5.9872C114.368 4.84053 114.674 3.70918 115.284 2.73602ZM39.0185 59.7321L5.20816 79.0016C3.87249 79.7618 2.76188 80.8598 1.9886 82.1847C1.21531 83.5096 0.806751 85.0143 0.804203 86.547V153.294C0.804203 158.1 4.71883 162 9.54222 162H39.0185V59.7321ZM53.5818 162H96.3165V82.9252L77.1045 92.4903L57.9042 59.0124C56.9324 57.3116 55.4138 55.9866 53.5935 55.2513L53.5818 162ZM143.525 162H110.88V75.6701L139.622 61.3456C140.954 60.683 142.434 60.3705 143.922 60.4379C145.409 60.5052 146.855 60.9501 148.121 61.7305C149.387 62.5108 150.433 63.6005 151.158 64.8964C151.883 66.1922 152.263 67.6512 152.263 69.1347V153.294C152.263 155.603 151.343 157.817 149.704 159.45C148.065 161.083 145.843 162 143.525 162Z" fill="white" fill-opacity="0.35"/>
</svg>
