<svg width="14" height="14" viewBox="0 0 14 14" fill="none" xmlns="http://www.w3.org/2000/svg">
<path d="M1.83822 0.338867C1.66141 0.338867 1.49184 0.409105 1.36681 0.534129C1.24179 0.659154 1.17155 0.828723 1.17155 1.00553V2.33887H2.50488V3.6722H0.504883V5.00553H2.50488V6.33887H0.504883V7.6722H2.50488V9.00553H0.504883V10.3389H2.50488V11.6722H1.17155V13.0055C1.17155 13.1823 1.24179 13.3519 1.36681 13.4769C1.49184 13.602 1.66141 13.6722 1.83822 13.6722H12.5049C12.6817 13.6722 12.8513 13.602 12.9763 13.4769C13.1013 13.3519 13.1715 13.1823 13.1715 13.0055V1.00553C13.1715 0.828723 13.1013 0.659154 12.9763 0.534129C12.8513 0.409105 12.6817 0.338867 12.5049 0.338867H1.83822ZM5.17155 9.6722C5.17155 9.14177 5.38226 8.63306 5.75734 8.25799C6.13241 7.88291 6.64112 7.6722 7.17155 7.6722C7.70198 7.6722 8.21069 7.88291 8.58576 8.25799C8.96084 8.63306 9.17155 9.14177 9.17155 9.6722H5.17155ZM7.17155 7.00553C6.81793 7.00553 6.47879 6.86506 6.22874 6.61501C5.97869 6.36496 5.83822 6.02582 5.83822 5.6722C5.83822 5.31858 5.97869 4.97944 6.22874 4.72939C6.47879 4.47934 6.81793 4.33887 7.17155 4.33887C7.52517 4.33887 7.86431 4.47934 8.11436 4.72939C8.36441 4.97944 8.50488 5.31858 8.50488 5.6722C8.50488 6.02582 8.36441 6.36496 8.11436 6.61501C7.86431 6.86506 7.52517 7.00553 7.17155 7.00553Z" fill="#3CAAE1"/>
</svg>
