<svg width="14" height="16" viewBox="0 0 14 16" fill="none" xmlns="http://www.w3.org/2000/svg">
<path d="M8.06897 8.35686L13.3962 13.8121L13.2876 13.9111L13.2417 13.9546C11.75 15.2852 9.7954 15.9767 7.79883 15.8802C5.80226 15.7837 3.92345 14.907 2.56701 13.4388C1.21057 11.9705 0.485011 10.0283 0.546591 8.03039C0.608172 6.03245 1.45196 4.13861 2.89625 2.75672C4.38119 1.3978 6.34174 0.678641 8.35317 0.75503C10.3646 0.83142 12.265 1.69721 13.6426 3.16484L8.06897 8.35686Z" fill="#01B94F"/>
<path d="M2.89906 2.75518C4.38378 1.39745 6.34359 0.679237 8.35404 0.756076C10.3645 0.832914 12.2638 1.69862 13.6405 3.16571C13.6405 3.16571 9.20918 7.31451 9.11983 7.38696C9.11983 7.38696 8.12731 8.32152 8.13455 8.33601C8.1418 8.3505 13.3845 13.7913 13.3845 13.7913L13.2783 13.8927L13.2324 13.9362C10.1027 16.6891 5.30671 16.5636 2.47404 13.5015C1.1137 12.0161 0.395123 10.0535 0.474723 8.04085C0.554323 6.02823 1.42565 4.12851 2.89906 2.75518Z" fill="url(#paint0_radial_9330_18393)"/>
<path d="M2.9041 2.75003C4.39001 1.39409 6.34992 0.677506 8.36 0.755235C10.3701 0.832963 12.2688 1.69875 13.6456 3.16539C13.6456 3.16539 9.33256 7.22242 9.15627 7.36489C9.15627 7.36489 8.19031 8.28739 8.20722 8.31636C8.24344 8.4033 13.3799 13.7668 13.3799 13.7668L13.2737 13.8682L13.2278 13.9117C10.1053 16.6598 5.30693 16.5246 2.48391 13.4722C1.12561 11.9909 0.407617 10.0328 0.486319 8.02458C0.565021 6.01632 1.43404 4.1205 2.9041 2.75003Z" fill="url(#paint1_radial_9330_18393)"/>
<path d="M2.90472 2.74751C4.39069 1.39336 6.34973 0.678113 8.35865 0.756283C10.3676 0.834453 12.2651 1.69976 13.6414 3.16529C13.6414 3.16529 9.45151 7.12814 9.18104 7.34307C9.18104 7.34307 8.24889 8.25107 8.26579 8.29454C8.32133 8.42494 13.3661 13.745 13.3661 13.745L13.2574 13.8464L13.2115 13.8874C10.0987 16.6283 5.30271 16.4883 2.48453 13.4431C1.12841 11.9659 0.411517 10.0124 0.490235 8.0087C0.568954 6.005 1.4369 4.11373 2.90472 2.74751Z" fill="url(#paint2_radial_9330_18393)"/>
<path d="M2.90956 2.74522C4.39572 1.3921 6.35441 0.677736 8.36275 0.756353C10.3711 0.834969 12.2679 1.70026 13.6438 3.16541C13.6438 3.16541 9.57468 7.02925 9.21486 7.32145C9.21486 7.32145 8.31169 8.21738 8.33584 8.27534C8.40829 8.44921 13.3588 13.7234 13.3588 13.7234L13.2526 13.8224C13.2526 13.8224 13.2067 13.8634 13.2067 13.8658C10.1011 16.5971 5.30514 16.4474 2.4942 13.4142C1.14026 11.9416 0.42401 9.99303 0.501832 7.99408C0.579655 5.99513 1.44523 4.10816 2.90956 2.74522Z" fill="url(#paint3_radial_9330_18393)"/>
<path d="M2.91591 2.74062C4.40244 1.38959 6.36045 0.676984 8.36762 0.756494C10.3748 0.836003 12.2703 1.70126 13.6453 3.16564C13.6453 3.16564 9.69936 6.94254 9.24777 7.29995C9.24777 7.29995 8.37358 8.18139 8.40256 8.25383C8.49432 8.47117 13.3531 13.6994 13.3507 13.7018L13.2444 13.8009L13.1985 13.8443C10.1002 16.5635 5.30666 16.4114 2.50296 13.3855C1.15137 11.9166 0.436119 9.97247 0.513496 7.97787C0.590873 5.98327 1.45459 4.10038 2.91591 2.74062Z" fill="url(#paint4_radial_9330_18393)"/>
<path d="M2.91424 2.73833C4.40096 1.38834 6.35862 0.676608 8.36521 0.756565C10.3718 0.836521 12.2666 1.70176 13.6412 3.16576C13.6412 3.16576 9.81602 6.8509 9.27508 7.27109C9.27508 7.27109 8.42987 8.13804 8.46609 8.22497C8.57476 8.48578 13.3394 13.6682 13.3394 13.6682L13.2331 13.7913L13.1872 13.8324C10.0937 16.5322 5.30258 16.3753 2.50371 13.3566C1.1546 11.8919 0.440415 9.95259 0.517348 7.96274C0.594281 5.97289 1.45607 4.09448 2.91424 2.73833Z" fill="url(#paint5_radial_9330_18393)"/>
<path d="M2.92138 2.73505C4.40829 1.38611 6.3656 0.675257 8.37161 0.75566C10.3776 0.836063 12.2718 1.70128 13.6459 3.16491C13.6459 3.16491 9.94149 6.75827 9.3112 7.27023C9.3112 7.27023 8.49255 8.12269 8.5336 8.22411C8.67125 8.51632 13.3344 13.6552 13.332 13.6552L13.2258 13.7542L13.1799 13.7977C10.096 16.5 5.30489 16.3358 2.51326 13.3268C1.16604 11.8666 0.452514 9.9319 0.529011 7.9466C0.605508 5.96131 1.46579 4.08727 2.92138 2.73505Z" fill="url(#paint6_radial_9330_18393)"/>
<path d="M2.92182 2.73019C4.40922 1.38258 6.36637 0.673035 8.3718 0.754336C10.3772 0.835638 12.2705 1.70129 13.644 3.16487C13.644 3.16487 10.0603 6.66405 9.34061 7.23638C9.34061 7.23638 8.55094 8.07677 8.59924 8.20234C8.74413 8.55009 13.3228 13.6431 13.3204 13.6431C13.3179 13.6431 13.2214 13.7373 13.2141 13.7421L13.1682 13.7832C10.0916 16.4685 5.30049 16.2995 2.51612 13.3074C1.16765 11.8508 0.452865 9.91831 0.528944 7.93481C0.605024 5.95131 1.46574 4.07922 2.92182 2.73019Z" fill="url(#paint7_radial_9330_18393)"/>
<path d="M2.9283 2.72818C4.41576 1.38235 6.37204 0.674134 8.37631 0.755877C10.3806 0.837619 12.2727 1.70279 13.6456 3.16527C13.6456 3.16527 10.1851 6.57269 9.37366 7.21506C9.37366 7.21506 8.61297 8.04095 8.66851 8.18102C8.83031 8.57223 13.3148 13.6194 13.3148 13.6218L13.2085 13.7208L13.1626 13.7618C10.0933 16.4472 5.30214 16.2709 2.53709 13.2789C1.19017 11.8277 0.474739 9.90105 0.548102 7.92252C0.621465 5.94398 1.47762 4.07558 2.9283 2.72818Z" fill="url(#paint8_radial_9330_18393)"/>
<path d="M2.92932 2.72589C4.41696 1.3811 6.3729 0.673761 8.37659 0.75595C10.3803 0.838139 12.2717 1.70329 13.6442 3.1654C13.6442 3.1654 10.3044 6.47864 9.394 7.19345C9.394 7.19345 8.66953 8.00727 8.72266 8.15941C8.91102 8.58684 13.3061 13.5881 13.3037 13.5905L13.1975 13.6871C13.1975 13.6871 13.1564 13.7257 13.1516 13.7306C10.0895 16.4063 5.30075 16.2227 2.52603 13.2476C1.86161 12.5303 1.34499 11.6891 1.00567 10.7721C0.666353 9.85511 0.510983 8.88026 0.548432 7.90321C0.585881 6.92617 0.815416 5.96607 1.22393 5.07774C1.63245 4.18941 2.21194 3.39025 2.92932 2.72589Z" fill="url(#paint9_radial_9330_18393)"/>
<path d="M2.93589 2.72082C4.42389 1.37812 6.37914 0.672528 8.38167 0.75561C10.3842 0.838691 12.2743 1.70381 13.646 3.16516C13.646 3.16516 10.4293 6.38664 9.43679 7.17148C9.43679 7.17148 8.73406 7.97323 8.80167 8.13744C8.99969 8.62042 13.2982 13.5734 13.2982 13.5758L13.192 13.6724L13.1461 13.7134C10.0888 16.3747 5.30249 16.1863 2.53743 13.2136C1.19909 11.7692 0.489226 9.85237 0.563948 7.88468C0.63867 5.91699 1.49186 4.05954 2.93589 2.72082Z" fill="url(#paint10_radial_9330_18393)"/>
<path d="M2.93534 2.71875C4.42393 1.37694 6.37923 0.672158 8.38158 0.755684C10.3839 0.839209 12.2737 1.70438 13.6454 3.16551C13.6454 3.16551 10.5471 6.30488 9.46522 7.15251C9.46522 7.15251 8.79388 7.93735 8.86391 8.11847C9.08125 8.63284 13.288 13.5496 13.2856 13.5496L13.1793 13.6486L13.1334 13.6896C10.0858 16.346 5.29952 16.1528 2.54171 13.1898C1.87938 12.4767 1.36412 11.6401 1.02541 10.7277C0.686693 9.81535 0.531167 8.84517 0.567726 7.87265C0.604285 6.90013 0.832212 5.94436 1.23847 5.06001C1.64473 4.17565 2.22134 3.38007 2.93534 2.71875Z" fill="url(#paint11_radial_9330_18393)"/>
<path d="M2.94202 2.71578C4.43066 1.37573 6.38509 0.672284 8.38628 0.75625C10.3875 0.840216 12.2761 1.70491 13.6473 3.16495C13.6473 3.16495 10.6721 6.20048 9.49847 7.13021C9.49847 7.13021 8.8561 7.90298 8.93338 8.09617C9.17487 8.66126 13.2802 13.5273 13.2802 13.5297L13.1739 13.6287C13.1739 13.6287 13.1329 13.6649 13.1305 13.6698C10.0877 16.3261 5.30379 16.116 2.5508 13.1626C-0.202183 10.2092 -0.0645334 5.4422 2.94202 2.71578Z" fill="url(#paint12_radial_9330_18393)"/>
<path d="M2.9462 2.71092C4.43534 1.37222 6.3896 0.67007 8.39021 0.754934C10.3908 0.839797 12.2786 1.70492 13.649 3.16492C13.649 3.16492 10.7946 6.10385 9.5437 7.10362C9.5437 7.10362 8.9279 7.8619 9.01242 8.06958C9.26599 8.67813 13.282 13.4983 13.282 13.5007L13.1757 13.5973L13.1298 13.6383C10.0846 16.2778 5.29107 16.0725 2.5574 13.1264C-0.176258 10.1802 -0.0530981 5.4301 2.9462 2.71092Z" fill="url(#paint13_radial_9330_18393)"/>
<path d="M2.9465 2.70893C4.43569 1.372 6.38908 0.671174 8.38853 0.756478C10.388 0.841782 12.2746 1.70643 13.6445 3.16534C13.6445 3.16534 10.9132 6.01492 9.5609 7.08714C9.5609 7.08714 8.97408 7.83334 9.06343 8.0531C9.33632 8.7027 13.2557 13.477 13.2557 13.4794L13.1494 13.576L13.1036 13.617C10.0801 16.2468 5.28653 16.0343 2.5577 13.0978C-0.171138 10.1613 -0.0479774 5.41844 2.9465 2.70893Z" fill="url(#paint14_radial_9330_18393)"/>
<path d="M2.95108 2.70665C4.44045 1.37076 6.3935 0.670806 8.39237 0.756555C10.3912 0.842305 12.2772 1.70694 13.6467 3.16548C13.6467 3.16548 11.0362 5.92329 9.59447 7.06554C9.59447 7.06554 9.03662 7.79001 9.13322 8.0315C9.42301 8.71974 13.2579 13.4554 13.2579 13.4578L13.154 13.5544L13.1081 13.5954C10.0799 16.2059 5.2887 15.9982 2.56711 13.0666C-0.154478 10.1349 -0.0385631 5.40892 2.95108 2.70665Z" fill="url(#paint15_radial_9330_18393)"/>
<path d="M2.95522 2.70135C4.44562 1.36797 6.39825 0.670081 8.39617 0.756712C10.3941 0.843343 12.279 1.70763 13.6484 3.16501C13.6484 3.16501 11.1586 5.8214 9.63482 7.04334C9.63482 7.04334 9.10596 7.76781 9.20739 8.0093C9.50683 8.74826 13.2572 13.4307 13.2427 13.4332L13.1364 13.5298C13.1223 13.5447 13.1069 13.5584 13.0905 13.5708C10.0792 16.1837 5.28801 15.964 2.57367 13.0395C-0.140673 10.1151 -0.0247585 5.39638 2.95522 2.70135Z" fill="url(#paint16_radial_9330_18393)"/>
<path d="M2.96073 2.69915C4.45291 1.36776 6.40672 0.672928 8.40448 0.763181C10.4022 0.853435 12.2854 1.72161 13.6515 3.18213C13.6515 3.18213 11.2825 5.73709 9.65965 7.02906C9.65965 7.02906 9.15977 7.73421 9.26844 7.99502C9.59445 8.77986 13.2385 13.4189 13.2361 13.4213C13.2337 13.4237 13.1468 13.5058 13.1299 13.5179L13.0864 13.5589C10.0798 16.1525 5.29111 15.9207 2.58159 13.0108C-0.127923 10.1008 -0.0216674 5.38451 2.96073 2.69915Z" fill="url(#paint17_radial_9330_18393)"/>
<path d="M2.96184 2.69678C4.45349 1.36627 6.40637 0.671959 8.40315 0.762209C10.3999 0.852459 12.2822 1.72012 13.6478 3.17976C13.6478 3.17976 11.4019 5.6502 9.68733 7.00978C9.68733 7.00978 9.21642 7.70044 9.32992 7.97574C9.67525 8.80405 13.2276 13.3972 13.2227 13.3996L13.1189 13.4962L13.073 13.5373C10.0737 16.1212 5.28738 15.8845 2.58511 12.9818C-0.117159 10.0791 -0.0133188 5.37248 2.96184 2.69678Z" fill="url(#paint18_radial_9330_18393)"/>
<path d="M2.96779 2.68244C4.45958 1.35325 6.41181 0.659773 8.40782 0.750008C10.4038 0.840244 12.2855 1.70705 13.6513 3.16542C13.6513 3.16542 11.5262 5.5441 9.72467 6.97372C9.72467 6.97372 9.28033 7.64989 9.40107 7.93968C9.76331 8.81146 13.2214 13.3611 13.219 13.3635L13.1128 13.4601L13.0669 13.4988C10.0772 16.09 5.29092 15.8461 2.59348 12.9554C-0.103961 10.0648 -0.000120401 5.36057 2.96779 2.68244Z" fill="url(#paint19_radial_9330_18393)"/>
<path d="M2.97063 2.68203C4.46189 1.35372 6.4132 0.660757 8.40822 0.750989C10.4033 0.841221 12.284 1.7075 13.6493 3.16501C12.4487 4.52631 11.1466 5.79456 9.75407 6.95881C9.75407 6.95881 9.33871 7.62291 9.4667 7.92477C9.84584 8.84002 13.2098 13.3414 13.2074 13.3462L13.1035 13.4404L13.0577 13.4815C10.0728 16.0581 5.28893 15.8094 2.59873 12.926C-0.091464 10.0426 0.00513202 5.33842 2.97063 2.68203Z" fill="url(#paint20_radial_9330_18393)"/>
<path d="M2.97658 2.68254C4.46812 1.35481 6.41929 0.662233 8.41414 0.752457C10.409 0.84268 12.2897 1.70857 13.6553 3.16552C12.4715 4.52311 11.1793 5.7822 9.79142 6.93034C9.79142 6.93034 9.40745 7.57995 9.54993 7.8963C9.94839 8.86226 13.2206 13.3129 13.2157 13.3153L13.1119 13.4119L13.066 13.453C10.0764 16.0248 5.29247 15.7713 2.6071 12.8976C-0.0782658 10.0238 0.01833 5.33892 2.97658 2.68254Z" fill="url(#paint21_radial_9330_18393)"/>
<path d="M2.97942 2.68217C4.47097 1.35649 6.42097 0.665192 8.41446 0.755396C10.408 0.845599 12.2875 1.71018 13.6533 3.16515C12.4881 4.52372 11.2048 5.77632 9.81841 6.90825C9.81841 6.90825 9.46342 7.54578 9.60107 7.87421C10.0164 8.88605 13.1944 13.3077 13.192 13.3077C13.1896 13.3077 13.1075 13.3874 13.0858 13.4043L13.0423 13.443C10.072 15.9931 5.29048 15.7226 2.61236 12.8682C-0.0657659 10.0138 0.0235856 5.33856 2.97942 2.68217Z" fill="url(#paint22_radial_9330_18393)"/>
<path d="M2.97925 2.68247C4.47066 1.35751 6.42014 0.666667 8.41304 0.756864C10.406 0.847061 12.2851 1.71119 13.6507 3.16545C12.5044 4.52648 11.2308 5.775 9.84722 6.89405C9.84722 6.89405 9.5212 7.5171 9.66368 7.86001C10.1008 8.90566 13.1846 13.2742 13.1798 13.2766L13.0759 13.3708L13.0301 13.4119C10.067 15.9644 5.28789 15.6964 2.61701 12.8395C-0.0538635 9.98271 0.0306582 5.31471 2.97925 2.68247Z" fill="url(#paint23_radial_9330_18393)"/>
<path d="M2.98806 2.68276C4.47934 1.35854 6.42829 0.668141 8.42062 0.758333C10.4129 0.848524 12.2915 1.71219 13.6571 3.16574C12.5303 4.52916 11.2654 5.77222 9.8826 6.87503C9.8826 6.87503 9.58556 7.48358 9.73529 7.84099C10.1893 8.93011 13.1789 13.2504 13.1765 13.2552L13.0703 13.3494L13.0244 13.3904C10.0734 15.9309 5.29429 15.658 2.6379 12.8108C-0.0184901 9.96368 0.046712 5.30293 2.98806 2.68276Z" fill="url(#paint24_radial_9330_18393)"/>
<path d="M2.98974 2.68238C4.48076 1.35961 6.42866 0.670113 8.41983 0.760293C10.411 0.850472 12.2886 1.71323 13.6539 3.16536C12.5483 4.52924 11.2945 5.76602 9.91567 6.8529C9.91567 6.8529 9.6452 7.44938 9.80217 7.81886C10.2852 8.95145 13.183 13.2282 13.1661 13.2331L13.0623 13.3272L13.0164 13.3659C10.0678 15.8991 5.29114 15.619 2.63475 12.7815C-0.0216391 9.94397 0.0508078 5.29047 2.98974 2.68238Z" fill="url(#paint25_radial_9330_18393)"/>
<path d="M2.99232 2.68222C4.48347 1.36076 6.43072 0.672087 8.42112 0.762252C10.4115 0.852417 12.2885 1.71433 13.6541 3.1652C12.5707 4.53204 11.326 5.76291 9.94723 6.83101C9.94723 6.83101 9.70574 7.41301 9.86754 7.79697C10.3505 8.97303 13.1615 13.2039 13.1566 13.2063C13.1518 13.2088 13.0769 13.2812 13.0528 13.3005L13.0069 13.3416C10.068 15.8676 5.2913 15.5826 2.63491 12.7523C-0.0214774 9.92209 0.060629 5.27823 2.99232 2.68222Z" fill="url(#paint26_radial_9330_18393)"/>
<path d="M2.99401 2.66764C4.48686 1.34873 6.43466 0.663032 8.42451 0.755897C10.4144 0.848763 12.2898 1.71289 13.6534 3.1651C13.6534 3.1651 12.499 4.80723 9.97547 6.80918C9.97547 6.80918 9.76296 7.3791 9.932 7.77514C10.4391 8.98259 13.1486 13.1821 13.1462 13.1845L13.04 13.2787L12.9965 13.3197C10.0624 15.8361 5.28816 15.5439 2.63177 12.7233C-0.0246152 9.90267 0.0647361 5.26607 2.99401 2.66764Z" fill="url(#paint27_radial_9330_18393)"/>
<path d="M3.0006 2.66334C4.49419 1.34634 6.4417 0.662313 8.4308 0.756066C10.4199 0.849819 12.2944 1.714 13.6575 3.16564C13.6575 3.16564 12.6264 4.70634 10.011 6.78798C9.9136 7.1026 9.9136 7.43933 10.011 7.75394C10.5375 9.01694 13.1504 13.1561 13.1504 13.1609L13.0466 13.2551L13.0007 13.2937C10.0642 15.8052 5.29233 15.5082 2.65285 12.6972C0.0133668 9.8863 0.0785693 5.25694 3.0006 2.66334Z" fill="url(#paint28_radial_9330_18393)"/>
<path d="M3.00089 2.66034C4.49399 1.34395 6.44089 0.660477 8.42919 0.754686C10.4175 0.848895 12.291 1.71339 13.653 3.16505C13.653 3.16505 12.7426 4.61399 10.0307 6.756C9.94533 7.07372 9.95456 7.40942 10.0572 7.72196C10.6006 9.04533 13.1314 13.141 13.1266 13.1458L13.0227 13.24L12.9792 13.2786C10.0596 15.7732 5.28779 15.481 2.65314 12.6677C0.0184855 9.85432 0.0836877 5.24428 3.00089 2.66034Z" fill="url(#paint29_radial_9330_18393)"/>
<path d="M3.00583 2.65808C4.49911 1.34272 6.44566 0.660118 8.43339 0.754772C10.4211 0.849426 12.294 1.71391 13.6555 3.16521C13.6555 3.16521 12.8683 4.52962 10.0718 6.7465C10.0046 7.06804 10.0254 7.40179 10.1322 7.71246C10.6949 9.06238 13.1267 13.1122 13.1218 13.117L13.018 13.2088L12.9721 13.2498C10.0597 15.742 5.29032 15.4305 2.66291 12.6388C-0.00554645 9.80859 0.0934643 5.23236 3.00583 2.65808Z" fill="url(#paint30_radial_9330_18393)"/>
<path d="M3.00766 2.6536C4.50155 1.34088 6.44728 0.66039 8.43368 0.755925C10.4201 0.85146 12.2915 1.71554 13.6525 3.16556C13.6525 3.16556 12.986 4.42855 10.1002 6.71546C10.0504 7.04044 10.0837 7.37273 10.1968 7.68142C10.7764 9.07481 13.114 13.0811 13.1092 13.0835L13.0053 13.1777L12.9595 13.2164C10.0616 15.6916 5.29216 15.3898 2.66475 12.5933C0.0373391 9.79687 0.100127 5.22064 3.00766 2.6536Z" fill="url(#paint31_radial_9330_18393)"/>
<path d="M3.01376 2.65059C4.50821 1.33875 6.45399 0.659058 8.44022 0.755035C10.4264 0.851012 12.2976 1.71515 13.6586 3.16497C13.6586 3.16497 13.1129 4.33378 10.1377 6.69313C10.1051 7.02088 10.1498 7.35171 10.2681 7.65909C10.8646 9.11527 13.108 13.066 13.1032 13.0781L12.9994 13.1723L12.9559 13.2109C10.058 15.6765 5.29101 15.3554 2.67568 12.5831C0.0192903 9.76729 0.113471 5.20797 3.01376 2.65059Z" fill="url(#paint32_radial_9330_18393)"/>
<path d="M3.01789 2.64812C4.51211 1.33746 6.45715 0.6587 8.44241 0.755124C10.4277 0.851548 12.2978 1.71561 13.6579 3.16491C13.6579 3.16491 13.2329 4.25161 10.1684 6.681C10.1547 7.01094 10.2107 7.34007 10.3326 7.64696C10.9484 9.13695 13.1001 13.0515 13.0953 13.066L12.9914 13.1578L12.9455 13.1964C10.0549 15.6451 5.29031 15.3191 2.6798 12.5516C0.0306598 9.74551 0.120011 5.19584 3.01789 2.64812Z" fill="url(#paint33_radial_9330_18393)"/>
<path d="M3.02257 2.64384C4.51752 1.33509 6.46227 0.65799 8.44677 0.7553C10.4313 0.852611 12.3004 1.71673 13.6602 3.16545C13.6602 3.16545 13.3583 4.15798 10.2021 6.65981C10.2073 6.99547 10.2752 7.32719 10.4025 7.63784C11.0376 9.16164 13.0927 13.0303 13.0879 13.0351L12.984 13.1269L12.9406 13.1655C10.0572 15.6142 5.29257 15.281 2.68931 12.5232C0.0449986 9.72673 0.131935 5.18431 3.02257 2.64384Z" fill="url(#paint34_radial_9330_18393)"/>
<path d="M3.02245 2.6409C4.51824 1.3373 6.46126 0.664521 8.4429 0.764053C10.4245 0.863585 12.2904 1.72767 13.648 3.1746C13.648 3.1746 13.4669 4.06569 10.2213 6.63756C10.2493 6.97433 10.3308 7.30448 10.4628 7.61559C11.1172 9.18527 13.0805 13.0081 13.0757 13.0129L12.9718 13.1046C12.9555 13.1162 12.9401 13.1291 12.9259 13.1433C10.0498 15.5823 5.28762 15.2394 2.69161 12.4937C0.0521268 9.70447 0.134233 5.17413 3.02245 2.6409Z" fill="url(#paint35_radial_9330_18393)"/>
<path d="M3.02747 2.6388C4.52331 1.33493 6.46663 0.662193 8.44846 0.762184C10.4303 0.862176 12.296 1.7271 13.653 3.17491C13.653 3.17491 13.5951 3.97424 10.2577 6.61614C10.3051 6.95327 10.396 7.28283 10.5281 7.59659C11.2043 9.2025 13.0734 12.9842 13.0686 12.9891L12.9648 13.0808C12.9503 13.0808 12.9334 13.1098 12.9189 13.1195C10.05 15.5513 5.29023 15.2059 2.69904 12.465C0.0668042 9.68548 0.146495 5.16237 3.02747 2.6388Z" fill="url(#paint36_radial_9330_18393)"/>
<path d="M3.03523 2.63427C4.53219 1.33215 6.47562 0.661003 8.4571 0.761878C10.4386 0.862753 12.3038 1.7278 13.6608 3.17521C13.6608 3.17521 13.7236 3.89002 10.2968 6.59712C10.367 6.93262 10.4706 7.26026 10.6059 7.57515C11.2942 9.23177 13.0715 12.9628 13.0643 12.9676C13.0571 12.9724 12.9943 13.0328 12.9605 13.0594L12.917 13.098C10.0553 15.525 5.29316 15.1676 2.70922 12.4363C0.0793992 9.66404 0.159091 5.1506 3.03523 2.63427Z" fill="url(#paint37_radial_9330_18393)"/>
<path d="M3.03331 2.63157C4.53062 1.32949 6.47453 0.658802 8.4562 0.760588C10.4379 0.862374 12.3028 1.7287 13.6588 3.17734C13.6588 3.17734 13.8424 3.78831 10.3263 6.57511C10.4166 6.90923 10.5295 7.2368 10.6644 7.55555C11.3719 9.24598 13.0551 12.9408 13.0503 12.9456L12.9465 13.0374L12.9006 13.076C10.0486 15.4813 5.28882 15.1287 2.70971 12.4095C0.0871369 9.64203 0.161999 5.13824 3.03331 2.63157Z" fill="url(#paint38_radial_9330_18393)"/>
<path d="M3.04014 2.62902C4.53775 1.32724 6.48185 0.656976 8.46352 0.759212C10.4452 0.861449 12.31 1.72822 13.6657 3.17721C13.6657 3.17721 13.9651 3.69399 10.3621 6.54599C10.3621 6.54599 10.4949 6.95169 10.7364 7.52644C11.4609 9.26999 13.0499 12.9117 13.0451 12.9165L12.9412 13.0083L12.8978 13.0445C10.0482 15.457 5.29083 15.0923 2.71896 12.3804C0.101209 9.62015 0.173656 5.12603 3.04014 2.62902Z" fill="url(#paint39_radial_9330_18393)"/>
<path d="M13.0335 12.9022C10.2129 15.4378 5.33721 15.1021 2.7243 12.3419C0.111377 9.58167 0.181409 5.09721 3.04306 2.61469C4.54154 1.31409 6.48586 0.645037 8.46737 0.748165C10.4489 0.851294 12.3132 1.71857 13.6686 3.16771C13.6686 3.16771 14.096 3.59273 10.3988 6.522C10.3916 6.53166 13.0432 12.8949 13.0335 12.9022Z" fill="url(#paint40_radial_9330_18393)"/>
<path d="M10.2841 6.61328C9.12736 7.56234 7.70499 8.68044 6.05078 9.93377C7.27965 11.2627 8.70884 12.3912 10.2865 13.2784C11.6413 14.0029 12.7014 14.1381 13.2206 13.6793C13.7398 13.2204 13.677 12.1627 13.0733 10.7814C12.3585 9.25965 11.4182 7.85446 10.2841 6.61328Z" fill="url(#paint41_linear_9330_18393)"/>
<path d="M10.3861 6.51904L9.80652 7.00202C10.8677 8.16858 11.7499 9.48617 12.4243 10.9117C13.0159 12.2737 13.0014 12.9572 12.8107 13.1286C12.6199 13.3001 11.7964 13.3435 10.4803 12.6456C9.02235 11.8188 7.70376 10.7675 6.57297 9.53042L5.92578 10.0134L6.07792 10.1607C8.81883 12.9934 11.7843 14.6065 13.0884 14.0197C13.127 14.0004 13.1656 13.9811 13.2019 13.9593H13.2164C13.2668 13.9281 13.3145 13.8925 13.3588 13.8531C13.4058 13.8106 13.4487 13.7637 13.4868 13.713C14.3393 12.5949 13.0449 9.58355 10.4658 6.63254L10.3861 6.51904Z" fill="#84EEB1"/>
<defs>
<radialGradient id="paint0_radial_9330_18393" cx="0" cy="0" r="1" gradientUnits="userSpaceOnUse" gradientTransform="translate(9.99127 1.59738) rotate(-2.29061) scale(34.7661 25.7275)">
<stop stop-color="#03BA50"/>
<stop offset="0.8" stop-color="#01B64E"/>
</radialGradient>
<radialGradient id="paint1_radial_9330_18393" cx="0" cy="0" r="1" gradientUnits="userSpaceOnUse" gradientTransform="translate(9.99038 1.59426) rotate(-2.29061) scale(34.6936 25.6738)">
<stop stop-color="#04BC50"/>
<stop offset="0.8" stop-color="#01B34D"/>
</radialGradient>
<radialGradient id="paint2_radial_9330_18393" cx="0" cy="0" r="1" gradientUnits="userSpaceOnUse" gradientTransform="translate(9.97788 1.60068) rotate(-2.29061) scale(34.6211 25.6202)">
<stop stop-color="#06BD51"/>
<stop offset="0.72" stop-color="#02B24C"/>
<stop offset="0.8" stop-color="#01B04B"/>
</radialGradient>
<radialGradient id="paint3_radial_9330_18393" cx="0" cy="0" r="1" gradientUnits="userSpaceOnUse" gradientTransform="translate(9.96727 1.61171) rotate(-2.29061) scale(34.5486 25.5665)">
<stop stop-color="#08BF52"/>
<stop offset="0.56" stop-color="#04B44D"/>
<stop offset="0.8" stop-color="#01AD4A"/>
</radialGradient>
<radialGradient id="paint4_radial_9330_18393" cx="0" cy="0" r="1" gradientUnits="userSpaceOnUse" gradientTransform="translate(9.95582 1.62243) rotate(-2.29061) scale(34.4761 25.5128)">
<stop stop-color="#0AC053"/>
<stop offset="0.48" stop-color="#05B54E"/>
<stop offset="0.8" stop-color="#01AA49"/>
</radialGradient>
<radialGradient id="paint5_radial_9330_18393" cx="0" cy="0" r="1" gradientUnits="userSpaceOnUse" gradientTransform="translate(9.9365 1.64865) rotate(-1.71836) scale(34.3891 25.456)">
<stop stop-color="#0BC253"/>
<stop offset="0.42" stop-color="#07B74E"/>
<stop offset="0.8" stop-color="#01A848"/>
</radialGradient>
<radialGradient id="paint6_radial_9330_18393" cx="0" cy="0" r="1" gradientUnits="userSpaceOnUse" gradientTransform="translate(9.91881 1.65439) rotate(-1.71836) scale(34.3166 25.4023)">
<stop stop-color="#0DC354"/>
<stop offset="0.37" stop-color="#08B84F"/>
<stop offset="0.8" stop-color="#01A546"/>
</radialGradient>
<radialGradient id="paint7_radial_9330_18393" cx="0" cy="0" r="1" gradientUnits="userSpaceOnUse" gradientTransform="translate(10.1719 1.66109) rotate(-1.71836) scale(34.2441 25.3384)">
<stop stop-color="#0FC555"/>
<stop offset="0.33" stop-color="#0ABA50"/>
<stop offset="0.8" stop-color="#01A245"/>
</radialGradient>
<radialGradient id="paint8_radial_9330_18393" cx="0" cy="0" r="1" gradientUnits="userSpaceOnUse" gradientTransform="translate(10.1481 1.67374) rotate(-1.70136) scale(34.5131 25.2848)">
<stop stop-color="#11C656"/>
<stop offset="0.3" stop-color="#0CBB51"/>
<stop offset="0.8" stop-color="#019F44"/>
</radialGradient>
<radialGradient id="paint9_radial_9330_18393" cx="0" cy="0" r="1" gradientUnits="userSpaceOnUse" gradientTransform="translate(10.1382 1.68625) rotate(-1.70135) scale(34.4399 25.2312)">
<stop stop-color="#12C856"/>
<stop offset="0.28" stop-color="#0EBD51"/>
<stop offset="0.77" stop-color="#029E44"/>
<stop offset="0.8" stop-color="#019C43"/>
</radialGradient>
<radialGradient id="paint10_radial_9330_18393" cx="0" cy="0" r="1" gradientUnits="userSpaceOnUse" gradientTransform="translate(10.1315 1.70275) rotate(-1.70135) scale(34.3642 25.1758)">
<stop stop-color="#14C957"/>
<stop offset="0.26" stop-color="#0FBE52"/>
<stop offset="0.72" stop-color="#049F44"/>
<stop offset="0.8" stop-color="#019941"/>
</radialGradient>
<radialGradient id="paint11_radial_9330_18393" cx="0" cy="0" r="1" gradientUnits="userSpaceOnUse" gradientTransform="translate(10.1128 1.72362) rotate(-1.70136) scale(34.291 25.1221)">
<stop stop-color="#16CB58"/>
<stop offset="0.24" stop-color="#11C053"/>
<stop offset="0.66" stop-color="#06A145"/>
<stop offset="0.8" stop-color="#019640"/>
</radialGradient>
<radialGradient id="paint12_radial_9330_18393" cx="0" cy="0" r="1" gradientUnits="userSpaceOnUse" gradientTransform="translate(10.0966 1.74545) rotate(-1.70135) scale(34.2178 25.0685)">
<stop stop-color="#18CC59"/>
<stop offset="0.23" stop-color="#13C154"/>
<stop offset="0.62" stop-color="#07A246"/>
<stop offset="0.8" stop-color="#01933F"/>
</radialGradient>
<radialGradient id="paint13_radial_9330_18393" cx="0" cy="0" r="1" gradientUnits="userSpaceOnUse" gradientTransform="translate(10.0802 1.77216) rotate(-1.70135) scale(34.1422 25.0131)">
<stop stop-color="#19CD59"/>
<stop offset="0.21" stop-color="#15C254"/>
<stop offset="0.59" stop-color="#09A347"/>
<stop offset="0.8" stop-color="#01903E"/>
</radialGradient>
<radialGradient id="paint14_radial_9330_18393" cx="0" cy="0" r="1" gradientUnits="userSpaceOnUse" gradientTransform="translate(10.0528 1.80124) rotate(-1.70135) scale(34.069 24.9594)">
<stop stop-color="#1BCF5A"/>
<stop offset="0.2" stop-color="#17C455"/>
<stop offset="0.56" stop-color="#0BA547"/>
<stop offset="0.8" stop-color="#018D3C"/>
</radialGradient>
<radialGradient id="paint15_radial_9330_18393" cx="0" cy="0" r="1" gradientUnits="userSpaceOnUse" gradientTransform="translate(10.0297 1.69645) rotate(-1.13442) scale(33.9875 24.9053)">
<stop stop-color="#1DD05B"/>
<stop offset="0.19" stop-color="#18C556"/>
<stop offset="0.54" stop-color="#0CA648"/>
<stop offset="0.8" stop-color="#018B3B"/>
</radialGradient>
<radialGradient id="paint16_radial_9330_18393" cx="0" cy="0" r="1" gradientUnits="userSpaceOnUse" gradientTransform="translate(10.0013 1.71777) rotate(-1.13442) scale(33.9118 24.8499)">
<stop stop-color="#1ED25B"/>
<stop offset="0.18" stop-color="#1AC756"/>
<stop offset="0.51" stop-color="#0EA848"/>
<stop offset="0.8" stop-color="#01883A"/>
</radialGradient>
<radialGradient id="paint17_radial_9330_18393" cx="0" cy="0" r="1" gradientUnits="userSpaceOnUse" gradientTransform="translate(9.9767 1.73918) rotate(-1.13442) scale(33.8386 24.7962)">
<stop stop-color="#20D35C"/>
<stop offset="0.18" stop-color="#1BC857"/>
<stop offset="0.49" stop-color="#0FA949"/>
<stop offset="0.8" stop-color="#018539"/>
</radialGradient>
<radialGradient id="paint18_radial_9330_18393" cx="0" cy="0" r="1" gradientUnits="userSpaceOnUse" gradientTransform="translate(9.9405 1.76897) rotate(-1.13442) scale(33.7655 24.7426)">
<stop stop-color="#22D55D"/>
<stop offset="0.17" stop-color="#1DCA58"/>
<stop offset="0.47" stop-color="#11AB4A"/>
<stop offset="0.8" stop-color="#018237"/>
</radialGradient>
<radialGradient id="paint19_radial_9330_18393" cx="0" cy="0" r="1" gradientUnits="userSpaceOnUse" gradientTransform="translate(9.90668 1.79656) rotate(-1.13442) scale(33.6898 24.6872)">
<stop stop-color="#24D65E"/>
<stop offset="0.16" stop-color="#1FCB59"/>
<stop offset="0.45" stop-color="#13AC4B"/>
<stop offset="0.8" stop-color="#017F36"/>
</radialGradient>
<radialGradient id="paint20_radial_9330_18393" cx="0" cy="0" r="1" gradientUnits="userSpaceOnUse" gradientTransform="translate(9.86496 1.82966) rotate(-1.13442) scale(33.6166 24.6336)">
<stop stop-color="#25D85E"/>
<stop offset="0.15" stop-color="#20CD59"/>
<stop offset="0.43" stop-color="#14AE4B"/>
<stop offset="0.79" stop-color="#017D36"/>
<stop offset="0.8" stop-color="#007C35"/>
</radialGradient>
<radialGradient id="paint21_radial_9330_18393" cx="0" cy="0" r="1" gradientUnits="userSpaceOnUse" gradientTransform="translate(10.5994 1.86799) rotate(-1.13442) scale(33.5435 24.5733)">
<stop stop-color="#27D95F"/>
<stop offset="0.15" stop-color="#22CE5A"/>
<stop offset="0.42" stop-color="#16AF4C"/>
<stop offset="0.77" stop-color="#027E36"/>
<stop offset="0.8" stop-color="#007934"/>
</radialGradient>
<radialGradient id="paint22_radial_9330_18393" cx="0" cy="0" r="1" gradientUnits="userSpaceOnUse" gradientTransform="translate(10.3476 1.90665) rotate(-1.1233) scale(33.7991 24.518)">
<stop stop-color="#29DB60"/>
<stop offset="0.14" stop-color="#24D05B"/>
<stop offset="0.4" stop-color="#18B14D"/>
<stop offset="0.74" stop-color="#048037"/>
<stop offset="0.8" stop-color="#007632"/>
</radialGradient>
<radialGradient id="paint23_radial_9330_18393" cx="0" cy="0" r="1" gradientUnits="userSpaceOnUse" gradientTransform="translate(10.3155 1.95032) rotate(-1.1233) scale(33.7252 24.4644)">
<stop stop-color="#2BDC61"/>
<stop offset="0.14" stop-color="#26D15C"/>
<stop offset="0.39" stop-color="#1AB24E"/>
<stop offset="0.71" stop-color="#068138"/>
<stop offset="0.8" stop-color="#007331"/>
</radialGradient>
<radialGradient id="paint24_radial_9330_18393" cx="0" cy="0" r="1" gradientUnits="userSpaceOnUse" gradientTransform="translate(10.2924 1.99824) rotate(-1.1233) scale(33.6488 24.409)">
<stop stop-color="#2CDE61"/>
<stop offset="0.13" stop-color="#27D35C"/>
<stop offset="0.37" stop-color="#1BB44E"/>
<stop offset="0.69" stop-color="#088339"/>
<stop offset="0.8" stop-color="#007030"/>
</radialGradient>
<radialGradient id="paint25_radial_9330_18393" cx="0" cy="0" r="1" gradientUnits="userSpaceOnUse" gradientTransform="translate(10.2573 1.75607) rotate(-0.561705) scale(33.5701 24.3556)">
<stop stop-color="#2EDF62"/>
<stop offset="0.13" stop-color="#29D45D"/>
<stop offset="0.37" stop-color="#1DB54F"/>
<stop offset="0.67" stop-color="#098439"/>
<stop offset="0.8" stop-color="#006E2F"/>
</radialGradient>
<radialGradient id="paint26_radial_9330_18393" cx="0" cy="0" r="1" gradientUnits="userSpaceOnUse" gradientTransform="translate(10.2205 1.79371) rotate(-0.561705) scale(33.4962 24.302)">
<stop stop-color="#30E163"/>
<stop offset="0.13" stop-color="#2BD65E"/>
<stop offset="0.35" stop-color="#1FB750"/>
<stop offset="0.65" stop-color="#0B8639"/>
<stop offset="0.8" stop-color="#006B2D"/>
</radialGradient>
<radialGradient id="paint27_radial_9330_18393" cx="0" cy="0" r="1" gradientUnits="userSpaceOnUse" gradientTransform="translate(10.1804 1.83563) rotate(-0.561706) scale(33.4198 24.2466)">
<stop stop-color="#31E263"/>
<stop offset="0.12" stop-color="#2CD75E"/>
<stop offset="0.34" stop-color="#20B850"/>
<stop offset="0.63" stop-color="#0D873A"/>
<stop offset="0.8" stop-color="#00682C"/>
</radialGradient>
<radialGradient id="paint28_radial_9330_18393" cx="0" cy="0" r="1" gradientUnits="userSpaceOnUse" gradientTransform="translate(10.1428 1.88002) rotate(-0.561705) scale(33.3459 24.193)">
<stop stop-color="#33E364"/>
<stop offset="0.12" stop-color="#2ED85F"/>
<stop offset="0.34" stop-color="#22B951"/>
<stop offset="0.62" stop-color="#0E883B"/>
<stop offset="0.8" stop-color="#00652B"/>
</radialGradient>
<radialGradient id="paint29_radial_9330_18393" cx="0" cy="0" r="1" gradientUnits="userSpaceOnUse" gradientTransform="translate(10.0939 1.92691) rotate(-0.561705) scale(33.2695 24.1376)">
<stop stop-color="#35E565"/>
<stop offset="0.12" stop-color="#30DA60"/>
<stop offset="0.33" stop-color="#24BB52"/>
<stop offset="0.6" stop-color="#108A3C"/>
<stop offset="0.8" stop-color="#00622A"/>
</radialGradient>
<radialGradient id="paint30_radial_9330_18393" cx="0" cy="0" r="1" gradientUnits="userSpaceOnUse" gradientTransform="translate(10.0521 1.97635) rotate(-0.561705) scale(33.1956 24.084)">
<stop stop-color="#37E666"/>
<stop offset="0.11" stop-color="#32DB61"/>
<stop offset="0.32" stop-color="#26BC53"/>
<stop offset="0.59" stop-color="#128B3C"/>
<stop offset="0.8" stop-color="#005F28"/>
</radialGradient>
<radialGradient id="paint31_radial_9330_18393" cx="0" cy="0" r="1" gradientUnits="userSpaceOnUse" gradientTransform="translate(9.99981 2.03027) rotate(-0.561705) scale(33.1193 24.0286)">
<stop stop-color="#38E866"/>
<stop offset="0.11" stop-color="#33DD61"/>
<stop offset="0.31" stop-color="#27BE53"/>
<stop offset="0.57" stop-color="#148D3D"/>
<stop offset="0.8" stop-color="#005C27"/>
</radialGradient>
<radialGradient id="paint32_radial_9330_18393" cx="0" cy="0" r="1" gradientUnits="userSpaceOnUse" gradientTransform="translate(9.95179 2.08683) rotate(-0.561705) scale(33.0453 23.975)">
<stop stop-color="#3AE967"/>
<stop offset="0.11" stop-color="#35DE62"/>
<stop offset="0.3" stop-color="#29BF54"/>
<stop offset="0.56" stop-color="#158E3E"/>
<stop offset="0.8" stop-color="#005926"/>
</radialGradient>
<radialGradient id="paint33_radial_9330_18393" cx="0" cy="0" r="1" gradientUnits="userSpaceOnUse" gradientTransform="translate(9.89931 2.14577) rotate(-0.561705) scale(32.9715 23.9213)">
<stop stop-color="#3CEB68"/>
<stop offset="0.11" stop-color="#37E063"/>
<stop offset="0.29" stop-color="#2BC155"/>
<stop offset="0.54" stop-color="#17903F"/>
<stop offset="0.8" stop-color="#005625"/>
</radialGradient>
<radialGradient id="paint34_radial_9330_18393" cx="0" cy="0" r="1" gradientUnits="userSpaceOnUse" gradientTransform="translate(9.84243 2.20959) rotate(-0.561705) scale(32.8951 23.8659)">
<stop stop-color="#3EEC69"/>
<stop offset="0.1" stop-color="#39E164"/>
<stop offset="0.29" stop-color="#2DC256"/>
<stop offset="0.53" stop-color="#19913F"/>
<stop offset="0.8" stop-color="#005323"/>
</radialGradient>
<radialGradient id="paint35_radial_9330_18393" cx="0" cy="0" r="1" gradientUnits="userSpaceOnUse" gradientTransform="translate(9.77839 1.83331) scale(32.8196 23.8103)">
<stop stop-color="#3FEE69"/>
<stop offset="0.1" stop-color="#3AE364"/>
<stop offset="0.28" stop-color="#2EC456"/>
<stop offset="0.52" stop-color="#1A9340"/>
<stop offset="0.8" stop-color="#005122"/>
</radialGradient>
<radialGradient id="paint36_radial_9330_18393" cx="0" cy="0" r="1" gradientUnits="userSpaceOnUse" gradientTransform="translate(10.5558 1.88646) scale(33.0643 23.7549)">
<stop stop-color="#41EF6A"/>
<stop offset="0.1" stop-color="#3CE465"/>
<stop offset="0.28" stop-color="#30C557"/>
<stop offset="0.51" stop-color="#1C9441"/>
<stop offset="0.79" stop-color="#015022"/>
<stop offset="0.8" stop-color="#004E21"/>
</radialGradient>
<radialGradient id="paint37_radial_9330_18393" cx="0" cy="0" r="1" gradientUnits="userSpaceOnUse" gradientTransform="translate(10.511 1.9438) scale(32.9921 23.7031)">
<stop stop-color="#43F16B"/>
<stop offset="0.1" stop-color="#3EE666"/>
<stop offset="0.27" stop-color="#32C758"/>
<stop offset="0.5" stop-color="#1E9642"/>
<stop offset="0.77" stop-color="#035223"/>
<stop offset="0.8" stop-color="#004B20"/>
</radialGradient>
<radialGradient id="paint38_radial_9330_18393" cx="0" cy="0" r="1" gradientUnits="userSpaceOnUse" gradientTransform="translate(10.4613 2.00413) scale(32.9175 23.6495)">
<stop stop-color="#45F26C"/>
<stop offset="0.1" stop-color="#40E767"/>
<stop offset="0.27" stop-color="#34C859"/>
<stop offset="0.49" stop-color="#209742"/>
<stop offset="0.76" stop-color="#055323"/>
<stop offset="0.8" stop-color="#00481E"/>
</radialGradient>
<radialGradient id="paint39_radial_9330_18393" cx="0" cy="0" r="1" gradientUnits="userSpaceOnUse" gradientTransform="translate(10.4154 2.06882) scale(32.8404 23.5941)">
<stop stop-color="#46F46C"/>
<stop offset="0.09" stop-color="#41E967"/>
<stop offset="0.26" stop-color="#35CA59"/>
<stop offset="0.48" stop-color="#229943"/>
<stop offset="0.74" stop-color="#065524"/>
<stop offset="0.8" stop-color="#00451D"/>
</radialGradient>
<radialGradient id="paint40_radial_9330_18393" cx="0" cy="0" r="1" gradientUnits="userSpaceOnUse" gradientTransform="translate(10.3705 2.13737) scale(32.7633 23.5387)">
<stop stop-color="#48F56D"/>
<stop offset="0.09" stop-color="#43EA68"/>
<stop offset="0.25" stop-color="#37CB5A"/>
<stop offset="0.47" stop-color="#239A44"/>
<stop offset="0.73" stop-color="#085625"/>
<stop offset="0.8" stop-color="#00421C"/>
</radialGradient>
<linearGradient id="paint41_linear_9330_18393" x1="10.9023" y1="19.0621" x2="8.07688" y2="-1.19892" gradientUnits="userSpaceOnUse">
<stop offset="0.1" stop-color="#FF8475"/>
<stop offset="0.37" stop-color="#E84E43"/>
<stop offset="0.6" stop-color="#D6261F"/>
<stop offset="0.79" stop-color="#CC0E08"/>
<stop offset="0.9" stop-color="#C80500"/>
</linearGradient>
</defs>
</svg>
