<svg width="13" height="12" viewBox="0 0 13 12" fill="none" xmlns="http://www.w3.org/2000/svg">
<path d="M7.52915 6H8.47005V7.692L10.0006 8.538L9.53013 9.318L7.52915 8.214V6ZM1.25649 0H10.0382C10.3709 0 10.69 0.126428 10.9253 0.351472C11.1606 0.576515 11.2927 0.88174 11.2927 1.2V4.86C12.0706 5.616 12.5473 6.654 12.5473 7.8C12.5473 8.91391 12.0847 9.9822 11.2612 10.7698C10.4378 11.5575 9.32094 12 8.15641 12C6.95834 12 5.87317 11.544 5.08281 10.8H1.25649C0.923763 10.8 0.604668 10.6736 0.369397 10.4485C0.134127 10.2235 0.00195313 9.91826 0.00195312 9.6V1.2C0.00195312 0.88174 0.134127 0.576515 0.369397 0.351472C0.604668 0.126428 0.923763 0 1.25649 0ZM1.25649 7.8V9.6H4.18582C3.91609 9.054 3.76555 8.442 3.76555 7.8H1.25649ZM1.25649 3.6H5.02008V1.8H1.25649V3.6ZM10.0382 3.6V1.8H6.27462V3.6H10.0382ZM1.25649 6.6H3.94746C4.16073 5.91 4.55591 5.292 5.08281 4.8H1.25649V6.6ZM8.15641 4.89C7.34956 4.89 6.57576 5.19659 6.00522 5.74232C5.43469 6.28805 5.11417 7.02822 5.11417 7.8C5.11417 9.408 6.47534 10.71 8.15641 10.71C8.55593 10.71 8.95153 10.6347 9.32063 10.4885C9.68973 10.3422 10.0251 10.1279 10.3076 9.85768C10.5901 9.58746 10.8142 9.26667 10.9671 8.91361C11.12 8.56055 11.1987 8.18215 11.1987 7.8C11.1987 6.192 9.83749 4.89 8.15641 4.89Z" fill="#3CAAE1"/>
</svg>
