<svg width="12" height="12" viewBox="0 0 12 12" fill="none" xmlns="http://www.w3.org/2000/svg">
<path d="M9.42836 0.439058C9.16373 0.157915 8.80501 0 8.431 0C8.057 0 7.69828 0.157915 7.43365 0.439058L5.80684 2.16554C5.73726 1.83207 5.56285 1.5338 5.31242 1.31999C5.06198 1.10619 4.75048 0.989615 4.42936 0.989531H1.60666C1.23235 0.989531 0.873366 1.1477 0.608687 1.42925C0.344008 1.7108 0.195313 2.09265 0.195312 2.49082V10.4977C0.195312 11.0081 0.435242 11.4585 0.801252 11.7298C1.02989 11.8999 1.30934 12 1.60948 12H9.13668C9.51099 12 9.86997 11.8418 10.1347 11.5603C10.3993 11.2787 10.548 10.8969 10.548 10.4987V7.49613C10.548 7.16336 10.4439 6.84005 10.2523 6.577C10.0607 6.31395 9.79241 6.12607 9.48952 6.04288L11.0937 4.33241C11.3583 4.05087 11.507 3.66908 11.507 3.27099C11.507 2.8729 11.3583 2.49111 11.0937 2.20958L9.42836 0.439058ZM5.84071 4.41247L7.32733 5.99383H5.84071V4.41247ZM4.89981 5.99383H1.13621V2.49082C1.13621 2.3581 1.18578 2.23081 1.274 2.13696C1.36223 2.04312 1.48189 1.99039 1.60666 1.99039H4.42936C4.55413 1.99039 4.67379 2.04312 4.76202 2.13696C4.85024 2.23081 4.89981 2.3581 4.89981 2.49082V5.99383ZM1.33756 10.9081C1.27594 10.8616 1.22573 10.8001 1.19117 10.7287C1.15662 10.6573 1.13874 10.578 1.13903 10.4977V6.9947H4.89981V10.9981H1.60666C1.51041 10.9981 1.41649 10.9667 1.33756 10.9081ZM5.84071 10.9981V6.9947H9.13668C9.26145 6.9947 9.38111 7.04742 9.46934 7.14127C9.55756 7.23512 9.60713 7.3624 9.60713 7.49513V10.4977C9.60713 10.6304 9.55756 10.7577 9.46934 10.8516C9.38111 10.9454 9.26145 10.9981 9.13668 10.9981H5.84071Z" fill="#ffffff"/>
</svg>
