<svg width="12" height="12" viewBox="0 0 12 12" fill="none" xmlns="http://www.w3.org/2000/svg">
<path d="M0.00351462 6.30878C0.00351462 6.08862 0.0113592 5.86822 0.0014902 5.64831C-0.0106563 5.37729 0.0898055 5.14347 0.219115 4.918C0.409411 4.5865 0.701686 4.37748 1.05621 4.25349C1.14529 4.22236 1.1835 4.18364 1.20096 4.0842C1.30977 3.47155 1.50791 2.89004 1.83739 2.35787C2.25062 1.69057 2.7838 1.14094 3.45591 0.733528C4.26821 0.241088 5.14402 -0.0119648 6.10233 0.000434731C6.95056 0.011316 7.73781 0.218313 8.47394 0.628258C9.27991 1.07717 9.90951 1.70727 10.3612 2.51223C10.6388 3.00695 10.8167 3.53785 10.9106 4.09609C10.9291 4.20642 10.9769 4.26184 11.0784 4.30562C11.4929 4.48452 11.7705 4.79679 11.9256 5.21838C11.9985 5.41652 12.0005 5.62655 12.0017 5.83329C12.0045 6.29613 12.0035 6.75947 11.9914 7.2223C11.9734 7.90706 11.3919 8.54045 10.7084 8.63737C10.4543 8.6733 10.5103 8.63205 10.3994 8.87119C9.93608 9.87226 9.2379 10.6547 8.25024 11.1621C7.57054 11.511 6.84529 11.6735 6.08209 11.6462C5.90191 11.6396 5.75793 11.6573 5.62862 11.8074C5.48033 11.9797 5.26625 12.0214 5.04407 11.9908C4.70295 11.9438 4.3755 11.8468 4.07336 11.6811C3.76969 11.5148 3.62216 11.1623 3.70314 10.8331C3.7907 10.476 4.07665 10.2356 4.43497 10.2265C4.52733 10.224 4.62425 10.2296 4.71231 10.2551C4.94765 10.3232 5.1797 10.4029 5.41226 10.4798C5.5646 10.5302 5.68176 10.6297 5.77159 10.7592C5.82878 10.8417 5.89989 10.8756 6.00035 10.8784C7.02724 10.9085 7.91495 10.5641 8.67765 9.88542C9.0714 9.53495 9.37481 9.11361 9.62356 8.65103C9.63444 8.63104 9.64456 8.61055 9.65392 8.5898C9.70276 8.4825 9.69998 8.4863 9.60407 8.41595C9.28118 8.17884 9.03141 7.88555 8.94993 7.48218C8.92007 7.33465 8.91476 7.18029 8.91374 7.02897C8.91071 6.56335 8.90742 6.09773 8.9183 5.63237C8.93045 5.12196 9.17464 4.73302 9.58357 4.43999C9.59395 4.43265 9.60483 4.42632 9.61521 4.41924C9.7392 4.3359 9.78526 4.22017 9.75337 4.07205C9.43377 2.58511 8.23151 1.42107 6.72712 1.17688C5.68125 1.00733 4.6989 1.19231 3.82891 1.82494C3.12441 2.33712 2.64285 3.01201 2.41131 3.85721C2.37209 4.00094 2.34627 4.14822 2.31085 4.29322C2.29921 4.34079 2.31338 4.3666 2.35235 4.39292C2.58642 4.55057 2.78304 4.74314 2.91665 4.99594C3.00421 5.16169 3.07228 5.33427 3.07304 5.52204C3.07608 6.13417 3.07734 6.74656 3.06849 7.35869C3.06444 7.63958 2.91817 7.86935 2.74913 8.08167C2.55681 8.32308 2.31034 8.49212 2.01781 8.59005C1.9467 8.61383 1.87028 8.62876 1.79563 8.63231C1.64405 8.63914 1.49197 8.64142 1.34039 8.63484C1.01016 8.62092 0.739391 8.46453 0.502281 8.25045C0.170276 7.95033 0.00123715 7.57151 0.000224936 7.12108C-0.000281169 6.85031 0.000224936 6.57955 0.000224936 6.30878C0.0014902 6.30878 0.00250241 6.30878 0.00376767 6.30878H0.00351462Z" fill="#3CAAE1"/>
</svg>
