<svg width="365" height="283" viewBox="0 0 365 283" fill="none" xmlns="http://www.w3.org/2000/svg">
<path fill-rule="evenodd" clip-rule="evenodd" d="M25.4403 121.962C123.27 82.2939 188.505 56.142 221.145 43.5067C314.34 7.43033 333.705 1.16349 346.327 0.956552C349.103 0.911039 355.31 1.55135 359.331 4.58773C362.726 7.1516 363.66 10.615 364.107 13.0458C364.554 15.4767 365.111 21.0142 364.668 25.341C359.618 74.7268 337.765 194.573 326.648 249.886C321.944 273.291 312.681 281.138 303.714 281.906C284.226 283.575 269.428 269.92 250.553 258.405C221.017 240.386 204.331 229.169 175.662 211.585C142.529 191.265 164.008 180.096 182.89 161.844C187.831 157.067 273.696 84.3801 275.358 77.7862C275.566 76.9615 275.758 73.8875 273.796 72.2644C271.834 70.6412 268.938 71.1963 266.848 71.6377C263.886 72.2634 216.702 101.289 125.297 158.713C111.904 167.272 99.7734 171.442 88.9045 171.224C76.9225 170.983 53.8738 164.919 36.7395 159.735C15.7236 153.377 -0.979451 150.016 0.475009 139.218C1.23258 133.594 9.55434 127.842 25.4403 121.962Z" fill="white" fill-opacity="0.78"/>
</svg>
