<svg width="38" height="27" viewBox="0 0 38 27" fill="none" xmlns="http://www.w3.org/2000/svg">
<path fill-rule="evenodd" clip-rule="evenodd" d="M0.927734 15.2077C0.927843 16.8788 1.49855 18.4997 2.54539 19.8023C3.59224 21.1048 5.05246 22.0109 6.6844 22.3705C7.03784 23.4839 7.73647 24.4559 8.67915 25.1458C9.62182 25.8356 10.7596 26.2076 11.9277 26.2077C12.9002 26.2077 13.8328 25.8214 14.5205 25.1337C15.2081 24.4461 15.5944 23.5135 15.5944 22.541V17.041H22.9277V22.541C22.9277 23.5135 23.314 24.4461 24.0017 25.1337C24.6893 25.8214 25.6219 26.2077 26.5944 26.2077C29.0511 26.2077 31.1337 24.5943 31.8377 22.3705C33.4697 22.0109 34.9299 21.1048 35.9767 19.8023C37.0236 18.4997 37.5943 16.8788 37.5944 15.2077V11.541C37.5943 9.86993 37.0236 8.24897 35.9767 6.94641C34.9299 5.64386 33.4697 4.73779 31.8377 4.37818C31.4843 3.2648 30.7857 2.2928 29.843 1.60294C28.9003 0.913072 27.7625 0.541147 26.5944 0.541016C25.6219 0.541016 24.6893 0.927324 24.0017 1.61496C23.314 2.30259 22.9277 3.23522 22.9277 4.20768V9.70768H15.5944V4.20768C15.5944 3.23522 15.2081 2.30259 14.5205 1.61496C13.8328 0.927324 12.9002 0.541016 11.9277 0.541016C9.47107 0.541016 7.3884 2.15435 6.6844 4.37818C5.05246 4.73779 3.59224 5.64386 2.54539 6.94641C1.49855 8.24897 0.927843 9.86993 0.927734 11.541V15.2077Z" fill="#F17E00"/>
</svg>
