<svg width="220" height="40" viewBox="0 0 220 40" fill="none" xmlns="http://www.w3.org/2000/svg">
<g clip-path="url(#clip0_6022_169)">
<path d="M96.3323 15.8905V15.0848C96.3323 10.8904 93.433 8.04674 88.4801 8.04674V6.98038H85.5811V8.04674C80.6764 8.04674 77.7289 10.9378 77.7289 15.0848V15.8905C77.7289 20.0849 80.6283 22.9285 85.5811 22.9285V23.9949H88.4801V22.9285C93.3848 22.9285 96.3323 20.0375 96.3323 15.8905ZM93.2882 15.0848V15.8905C93.2882 18.7104 91.621 20.3455 88.4801 20.3455V10.606C91.5728 10.606 93.2882 12.2885 93.2882 15.0848ZM80.7731 15.8905V15.0848C80.7731 12.2411 82.4403 10.606 85.5811 10.606V20.3455C82.4885 20.3455 80.7731 18.663 80.7731 15.8905ZM106.814 23.7816H109.617V11.9331H106.089L102.634 18.0943L101.547 20.2981V11.9331H98.7446V23.7816H102.272L105.727 17.6204L106.814 15.4165V23.7816ZM111.551 14.3502H115.224V23.7816H118.026V14.3502H121.698V11.9331H111.551V14.3502ZM131.705 23.7816H134.508V11.9331H131.705V16.5303H126.438V11.9331H123.636V23.7816H126.438V18.9474H131.705V23.7816ZM142.604 23.9949C145.986 23.9949 147.677 22.3361 148.16 20.1086H145.261C145.019 20.8906 144.319 21.5778 142.604 21.5778C140.888 21.5778 139.874 20.7484 139.728 18.7815H148.281V17.8573C148.281 13.9473 146.107 11.7198 142.604 11.7198C139.149 11.7198 136.926 13.8999 136.926 17.4782V18.2365C136.926 21.8147 139.149 23.9949 142.604 23.9949ZM142.604 14.1369C144.246 14.1369 145.213 14.8478 145.43 16.6014H139.777C140.018 14.8952 140.985 14.1369 142.604 14.1369ZM155.651 23.9949C158.695 23.9949 160.362 22.3598 160.845 19.8716H157.85C157.608 20.7484 156.907 21.4356 155.53 21.4356C154.153 21.4356 152.921 20.464 152.921 18.2365V17.4782C152.921 15.2033 154.105 14.2791 155.53 14.2791C156.762 14.2791 157.608 14.8715 157.85 15.7246H160.845C160.362 13.3549 158.695 11.7198 155.651 11.7198C152.22 11.7198 149.973 13.9236 149.973 17.4782V18.2365C149.973 21.8385 152.172 23.9949 155.651 23.9949ZM176.184 23.7816H179.566L175.266 17.5256L179.083 11.9331H175.846L172.947 16.4118H171.739V11.9331H168.936V23.7816H171.739V18.8289H172.947L176.184 23.7816ZM180.395 23.9949H180.757C183.584 23.9949 185.372 22.3598 185.372 17.5256V14.3502H188.948V23.7816H191.751V11.9331H182.57V17.5256C182.57 20.6299 181.627 21.4356 180.757 21.4356H180.395V23.9949ZM196.46 28.521H199.359L205.761 11.9331H202.862L199.77 20.4166L196.484 11.9331H193.44L198.296 23.7816L196.46 28.521ZM212.515 23.9949C216.091 23.9949 218.313 21.8147 218.313 18.355V17.5967C218.313 14.0184 216.211 11.9568 213.119 11.9568C211.597 11.9568 210.292 12.5255 209.398 13.6156C209.664 11.9094 210.22 11.0089 211.234 10.4402C212.853 9.56337 214.931 10.1321 217.347 9.35008V6.98038C214.085 7.88088 212.201 7.19367 210.026 8.33112C207.562 9.63446 206.716 12.5492 206.716 16.0563V17.2886C206.716 21.8385 208.915 23.9949 212.515 23.9949ZM212.515 14.5161C214.254 14.5161 215.366 15.6061 215.366 17.5967V18.355C215.366 20.3455 214.254 21.4356 212.515 21.4356C210.775 21.4356 209.664 20.3455 209.664 18.355V17.4545C209.712 15.5587 210.824 14.5161 212.515 14.5161Z" fill="#1EA0DE"/>
<path d="M81.8965 36.3146C82.6537 36.3146 83.276 35.9788 83.6495 35.399L83.7635 36.2333H84.4895V32.7744C84.4895 31.7266 83.8155 31.0654 82.5189 31.0654C81.1499 31.0654 80.4965 31.7064 80.4448 32.571H81.4817C81.5337 32.164 81.824 31.8793 82.5189 31.8793C83.2243 31.8793 83.5561 32.2047 83.5561 32.7744V33.1508H82.5189C80.8699 33.1508 80.2373 33.7713 80.2373 34.8091C80.2373 35.7448 80.8179 36.3146 81.8965 36.3146ZM82.0003 35.5007C81.5025 35.5007 81.2122 35.216 81.2122 34.7886C81.2122 34.2699 81.5648 33.924 82.5189 33.924H83.5561V34.107C83.5561 34.8598 82.9026 35.5007 82.0003 35.5007ZM85.9885 36.2333H88.1666C89.567 36.2333 90.1373 35.6737 90.1373 34.7581C90.1373 34.2598 89.8676 33.8223 89.287 33.5883C89.7224 33.3442 89.9299 32.9779 89.9299 32.5609C89.9299 31.7064 89.3596 31.1468 87.9592 31.1468H85.9885V36.2333ZM88.1666 34.0359C88.9135 34.0359 89.1624 34.28 89.1624 34.7074C89.1624 35.1549 88.9135 35.399 88.1666 35.399H86.922V34.0359H88.1666ZM87.9592 31.9811C88.7164 31.9811 88.955 32.2151 88.955 32.6116C88.955 33.0085 88.7164 33.2425 87.9592 33.2425H86.922V31.9811H87.9592ZM90.7053 31.9811H92.3649V36.2333H93.2983V31.9811H94.9579V31.1468H90.7053V31.9811ZM97.8167 36.3146C99.2586 36.3146 100.202 35.3889 100.202 33.8834V33.4966C100.202 31.9811 99.2688 31.0654 97.8167 31.0654C96.3753 31.0654 95.4315 31.9911 95.4315 33.4966V33.8834C95.4315 35.399 96.3647 36.3146 97.8167 36.3146ZM97.8167 35.4396C96.9562 35.4396 96.4064 34.9007 96.4064 33.8834V33.4966C96.4064 32.4692 96.9456 31.9401 97.8167 31.9401C98.6777 31.9401 99.2274 32.4793 99.2274 33.4966V33.8834C99.2274 34.9108 98.6879 35.4396 97.8167 35.4396ZM103.727 35.0126H104.66L105.49 33.2831L106.008 32.1741V36.2333H106.942V31.1468H105.614L104.214 34.0359L102.814 31.1468H101.445V36.2333H102.378V32.1845L102.886 33.2831L103.727 35.0126ZM109.791 36.3146C110.548 36.3146 111.17 35.9788 111.544 35.399L111.658 36.2333H112.384V32.7744C112.384 31.7266 111.71 31.0654 110.413 31.0654C109.044 31.0654 108.391 31.7064 108.339 32.571H109.376C109.428 32.164 109.718 31.8793 110.413 31.8793C111.119 31.8793 111.45 32.2047 111.45 32.7744V33.1508H110.413C108.764 33.1508 108.132 33.7713 108.132 34.8091C108.132 35.7448 108.712 36.3146 109.791 36.3146ZM109.895 35.5007C109.397 35.5007 109.106 35.216 109.106 34.7886C109.106 34.2699 109.459 33.924 110.413 33.924H111.45V34.107C111.45 34.8598 110.797 35.5007 109.895 35.5007ZM113.211 31.9811H114.87V36.2333H115.804V31.9811H117.463V31.1468H113.211V31.9811ZM121.977 36.2333H122.911V31.1468H121.708L119.955 34.097L119.384 35.1448V31.1468H118.451V36.2333H119.654L121.407 33.2831L121.977 32.2352V36.2333ZM126.179 31.0654C124.882 31.0654 124.26 31.6759 124.156 32.622H125.111C125.214 32.1845 125.484 31.92 126.179 31.92C126.873 31.92 127.143 32.1845 127.143 32.571C127.143 32.9779 126.873 33.222 126.179 33.222H125.608V34.0563H126.179C126.998 34.0563 127.299 34.331 127.299 34.7581C127.299 35.165 126.998 35.4601 126.179 35.4601C125.359 35.4601 125.058 35.165 124.955 34.6563H124.001C124.104 35.684 124.747 36.3146 126.179 36.3146C127.61 36.3146 128.253 35.684 128.253 34.8091C128.253 34.3004 127.994 33.8834 127.434 33.639C127.879 33.4053 128.098 33.0085 128.098 32.5203C128.098 31.6759 127.475 31.0654 126.179 31.0654ZM130.798 36.3146C131.555 36.3146 132.177 35.9788 132.55 35.399L132.665 36.2333H133.391V32.7744C133.391 31.7266 132.716 31.0654 131.42 31.0654C130.051 31.0654 129.397 31.7064 129.346 32.571H130.383C130.435 32.164 130.725 31.8793 131.42 31.8793C132.125 31.8793 132.457 32.2047 132.457 32.7744V33.1508H131.42C129.771 33.1508 129.138 33.7713 129.138 34.8091C129.138 35.7448 129.719 36.3146 130.798 36.3146ZM130.901 35.5007C130.403 35.5007 130.113 35.216 130.113 34.7886C130.113 34.2699 130.466 33.924 131.42 33.924H132.457V34.107C132.457 34.8598 131.804 35.5007 130.901 35.5007ZM134.89 36.2333H138.883V37.5559H139.816V35.399H139.09V31.1468H138.157V35.399H135.823V31.1468H134.89V36.2333ZM144.28 36.2333H145.214V31.1468H144.011L142.258 34.097L141.688 35.1448V31.1468H140.754V36.2333H141.957L143.71 33.2831L144.28 32.2352V36.2333ZM146.459 32.8151C146.459 33.507 146.719 34.0053 147.372 34.2699L146.252 36.2333H147.289L148.254 34.4529C148.388 34.4633 148.534 34.4633 148.689 34.4633H149.571V36.2333H150.504V31.1468H148.689C147.071 31.1468 146.459 31.747 146.459 32.8151ZM147.434 32.8151C147.434 32.2658 147.725 31.9811 148.689 31.9811H149.571V33.6289H148.689C147.725 33.6289 147.434 33.3442 147.434 32.8151ZM158.177 36.2333H159.11V31.1468H157.907L156.155 34.097L155.584 35.1448V31.1468H154.65V36.2333H155.854L157.607 33.2831L158.177 32.2352V36.2333ZM163.934 38.268H164.93L167.72 31.1468H166.724L165.231 35.0837L163.654 31.1468H162.638L164.733 36.2333L163.934 38.268ZM171.967 36.2333H172.901V31.1468H168.649V36.2333H169.582V31.9811H171.967V36.2333ZM176.962 36.3146C178.134 36.3146 179.016 35.45 179.016 33.8834V33.4966C179.016 31.92 178.145 31.0654 176.972 31.0654C176.226 31.0654 175.634 31.34 175.271 31.8793L175.178 31.1468H174.452V38.268H175.385V35.6535C175.749 36.091 176.288 36.3146 176.962 36.3146ZM176.713 35.4396C175.946 35.4396 175.385 34.8803 175.385 33.8834V33.4255C175.406 32.4592 175.966 31.9401 176.713 31.9401C177.532 31.9401 178.041 32.4488 178.041 33.4966V33.8834C178.041 34.9514 177.543 35.4396 176.713 35.4396ZM181.552 36.3146C182.309 36.3146 182.932 35.9788 183.305 35.399L183.419 36.2333H184.145V32.7744C184.145 31.7266 183.471 31.0654 182.174 31.0654C180.806 31.0654 180.152 31.7064 180.1 32.571H181.137C181.189 32.164 181.48 31.8793 182.174 31.8793C182.88 31.8793 183.212 32.2047 183.212 32.7744V33.1508H182.174C180.526 33.1508 179.893 33.7713 179.893 34.8091C179.893 35.7448 180.474 36.3146 181.552 36.3146ZM181.656 35.5007C181.158 35.5007 180.868 35.216 180.868 34.7886C180.868 34.2699 181.22 33.924 182.174 33.924H183.212V34.107C183.212 34.8598 182.558 35.5007 181.656 35.5007ZM185.644 36.2333H187.822C189.223 36.2333 189.793 35.6737 189.793 34.7581C189.793 34.2598 189.523 33.8223 188.942 33.5883C189.378 33.3442 189.585 32.9779 189.585 32.5609C189.585 31.7064 189.015 31.1468 187.615 31.1468H185.644V36.2333ZM187.822 34.0359C188.569 34.0359 188.818 34.28 188.818 34.7074C188.818 35.1549 188.569 35.399 187.822 35.399H186.578V34.0359H187.822ZM187.615 31.9811C188.372 31.9811 188.611 32.2151 188.611 32.6116C188.611 33.0085 188.372 33.2425 187.615 33.2425H186.578V31.9811H187.615ZM190.41 36.3146H190.566C191.644 36.3146 192.329 35.6535 192.329 33.6494V31.9811H194.196V36.2333H195.13V31.1468H191.396V33.6494C191.396 35.0633 191.012 35.4396 190.566 35.4396H190.41V36.3146ZM198.707 36.3146C200.107 36.3146 200.781 35.6535 200.989 34.6563H200.035C199.827 35.1855 199.526 35.4806 198.707 35.4806C197.929 35.4806 197.379 34.9719 197.348 33.9851H201.041V33.4966C201.041 32.0012 200.086 31.0654 198.707 31.0654C197.338 31.0654 196.373 32.0116 196.373 33.4966V33.8834C196.373 35.3889 197.317 36.3146 198.707 36.3146ZM198.707 31.8995C199.485 31.8995 199.962 32.2963 200.045 33.1914H197.359C197.452 32.3269 197.97 31.8995 198.707 31.8995ZM205.812 36.2333H206.746V31.1468H205.812V33.222H203.219V31.1468H202.286V36.2333H203.219V34.0563H205.812V36.2333ZM211.828 36.2333H212.762V31.1468H211.559L209.806 34.097L209.235 35.1448V31.1468H208.302V36.2333H209.505L211.258 33.2831L211.828 32.2352V36.2333ZM216.341 36.3146C217.741 36.3146 218.415 35.6535 218.623 34.6563H217.669C217.461 35.1855 217.16 35.4806 216.341 35.4806C215.563 35.4806 215.013 34.9719 214.982 33.9851H218.675V33.4966C218.675 32.0012 217.72 31.0654 216.341 31.0654C214.972 31.0654 214.007 32.0116 214.007 33.4966V33.8834C214.007 35.3889 214.951 36.3146 216.341 36.3146ZM216.341 31.8995C217.119 31.8995 217.596 32.2963 217.679 33.1914H214.993C215.086 32.3269 215.604 31.8995 216.341 31.8995Z" fill="#474766"/>
<path fill-rule="evenodd" clip-rule="evenodd" d="M13.713 39.1498V1.40262H12.094L0.679993 4.61189L2.50138 11.3361L9.42265 9.73145V39.1498H13.713Z" fill="#3CAAE1"/>
<path d="M18.043 1.40262H13.7122V39.1498H18.043V1.40262Z" fill="#66BCF7"/>
<path fill-rule="evenodd" clip-rule="evenodd" d="M46.5798 4.53567C51.5584 4.53567 56.2938 6.637 59.451 10.2665L62.0415 7.43933C54.513 -0.622075 41.5203 -1.38619 32.9803 5.68185C24.4399 12.7499 23.59 25.0521 31.1183 33.1134C38.6467 41.1748 51.6393 41.9773 60.1797 34.8709C60.7461 34.4126 61.2724 33.9159 61.7583 33.4192L59.1678 30.6301C53.0965 37.2016 42.573 37.8892 35.6112 32.1584C28.6494 26.4275 27.9208 16.4941 33.9921 9.9227C37.1898 6.52238 41.7634 4.53567 46.5798 4.53567Z" fill="#3CAAE1"/>
<path fill-rule="evenodd" clip-rule="evenodd" d="M59.4504 10.2661C53.5814 3.54193 43.0983 2.58678 35.9747 8.12659C28.8511 13.6664 27.8392 23.5617 33.7082 30.2859C39.5769 37.01 50.06 37.9653 57.1836 32.4255C57.9122 31.8522 58.5599 31.241 59.1672 30.5915L56.4149 27.5733C52.1649 32.6929 44.2723 33.6097 38.8483 29.5599C33.4247 25.5101 32.4534 18.0983 36.7437 12.9787C41.0342 7.85915 48.8864 6.94221 54.31 10.992C55.2004 11.6415 56.01 12.4056 56.6577 13.2844L59.4504 10.2661Z" fill="#66BCF7"/>
<path d="M67.8692 18.0989C68.9867 18.0989 69.8929 17.2436 69.8929 16.1886C69.8929 15.1336 68.9867 14.2783 67.8692 14.2783C66.7514 14.2783 65.8453 15.1336 65.8453 16.1886C65.8453 17.2436 66.7514 18.0989 67.8692 18.0989Z" fill="#3CAAE1"/>
<path d="M67.8689 31.4699C68.9867 31.4699 69.8926 30.6146 69.8926 29.5596C69.8926 28.5046 68.9867 27.6493 67.8689 27.6493C66.7511 27.6493 65.8453 28.5046 65.8453 29.5596C65.8453 30.6146 66.7511 31.4699 67.8689 31.4699Z" fill="#3CAAE1"/>
</g>
<defs>
<clipPath id="clip0_6022_169">
<rect width="219" height="40" fill="white" transform="translate(0.474854)"/>
</clipPath>
</defs>
</svg>
