<svg width="184" height="34" viewBox="0 0 184 34" fill="none" xmlns="http://www.w3.org/2000/svg">
<g clip-path="url(#clip0_6489_644)">
<path d="M80.5378 13.6096V12.9449C80.5378 9.48455 78.1018 7.13854 73.9405 7.13854V6.25879H71.5048V7.13854C67.384 7.13854 64.9075 9.52366 64.9075 12.9449V13.6096C64.9075 17.07 67.3435 19.416 71.5048 19.416V20.2957H73.9405V19.416C78.0614 19.416 80.5378 17.0309 80.5378 13.6096ZM77.9802 12.9449V13.6096C77.9802 15.9361 76.5794 17.2851 73.9405 17.2851V9.24997C76.5389 9.24997 77.9802 10.638 77.9802 12.9449ZM67.4652 13.6096V12.9449C67.4652 10.5989 68.866 9.24997 71.5048 9.24997V17.2851C68.9064 17.2851 67.4652 15.897 67.4652 13.6096ZM89.3442 20.1198H91.699V10.3448H88.7353L85.8325 15.4278L84.919 17.2459V10.3448H82.5645V20.1198H85.5282L88.4309 15.0368L89.3442 13.2186V20.1198ZM93.3245 12.3389H96.4098V20.1198H98.7646V12.3389H101.85V10.3448H93.3245V12.3389ZM110.258 20.1198H112.612V10.3448H110.258V14.1375H105.832V10.3448H103.478V20.1198H105.832V16.1316H110.258V20.1198ZM119.414 20.2957C122.256 20.2957 123.677 18.9273 124.083 17.0895H121.647C121.444 17.7347 120.855 18.3016 119.414 18.3016C117.973 18.3016 117.12 17.6174 116.998 15.9947H124.184V15.2323C124.184 12.0065 122.357 10.1688 119.414 10.1688C116.511 10.1688 114.644 11.9674 114.644 14.9195V15.5451C114.644 18.4971 116.511 20.2957 119.414 20.2957ZM119.414 12.1629C120.794 12.1629 121.606 12.7494 121.789 14.1961H117.039C117.242 12.7885 118.054 12.1629 119.414 12.1629ZM130.376 20.2957C132.934 20.2957 134.335 18.9468 134.74 16.894H132.223C132.02 17.6174 131.432 18.1843 130.275 18.1843C129.118 18.1843 128.082 17.3828 128.082 15.5451V14.9195C128.082 13.0427 129.077 12.2802 130.275 12.2802C131.31 12.2802 132.02 12.769 132.223 13.4728H134.74C134.335 11.5178 132.934 10.1688 130.376 10.1688C127.494 10.1688 125.606 11.987 125.606 14.9195V15.5451C125.606 18.5167 127.453 20.2957 130.376 20.2957ZM147.628 20.1198H150.47L146.857 14.9586L150.064 10.3448H147.344L144.908 14.0397H143.893V10.3448H141.538V20.1198H143.893V16.0338H144.908L147.628 20.1198ZM151.166 20.2957H151.47C153.845 20.2957 155.348 18.9468 155.348 14.9586V12.3389H158.352V20.1198H160.707V10.3448H152.993V14.9586C152.993 17.5196 152.201 18.1843 151.47 18.1843H151.166V20.2957ZM164.663 24.0298H167.099L172.478 10.3448H170.042L167.444 17.3437L164.683 10.3448H162.126L166.206 20.1198L164.663 24.0298ZM178.152 20.2957C181.157 20.2957 183.024 18.4971 183.024 15.6428V15.0172C183.024 12.0652 181.258 10.3643 178.66 10.3643C177.381 10.3643 176.285 10.8335 175.534 11.7328C175.757 10.3252 176.224 9.5823 177.077 9.11311C178.437 8.38976 180.182 8.85896 182.212 8.21379V6.25879C179.472 7.0017 177.888 6.43475 176.062 7.37315C173.991 8.4484 173.281 10.8531 173.281 13.7465V14.7631C173.281 18.5167 175.128 20.2957 178.152 20.2957ZM178.152 12.4757C179.614 12.4757 180.547 13.375 180.547 15.0172V15.6428C180.547 17.2851 179.614 18.1843 178.152 18.1843C176.691 18.1843 175.757 17.2851 175.757 15.6428V14.8999C175.798 13.3359 176.731 12.4757 178.152 12.4757Z" fill="white"/>
<path d="M68.4091 30.4595C69.0453 30.4595 69.5681 30.1825 69.8819 29.7041L69.9777 30.3925H70.5877V27.5389C70.5877 26.6744 70.0214 26.1289 68.9319 26.1289C67.7818 26.1289 67.2328 26.6577 67.1893 27.371H68.0605C68.1042 27.0353 68.3481 26.8004 68.9319 26.8004C69.5247 26.8004 69.8034 27.0688 69.8034 27.5389V27.8494H68.9319C67.5465 27.8494 67.015 28.3613 67.015 29.2174C67.015 29.9894 67.5028 30.4595 68.4091 30.4595ZM68.4962 29.7881C68.078 29.7881 67.8341 29.5532 67.8341 29.2006C67.8341 28.7726 68.1304 28.4873 68.9319 28.4873H69.8034V28.6383C69.8034 29.2593 69.2543 29.7881 68.4962 29.7881ZM71.8471 30.3925H73.6771C74.8537 30.3925 75.3328 29.9307 75.3328 29.1754C75.3328 28.7643 75.1062 28.4034 74.6184 28.2103C74.9842 28.0089 75.1585 27.7067 75.1585 27.3627C75.1585 26.6577 74.6794 26.196 73.5028 26.196H71.8471V30.3925ZM73.6771 28.5795C74.3046 28.5795 74.5137 28.7809 74.5137 29.1335C74.5137 29.5028 74.3046 29.7041 73.6771 29.7041H72.6314V28.5795H73.6771ZM73.5028 26.8843C74.139 26.8843 74.3394 27.0774 74.3394 27.4045C74.3394 27.7319 74.139 27.925 73.5028 27.925H72.6314V26.8843H73.5028ZM75.8101 26.8843H77.2044V30.3925H77.9887V26.8843H79.383V26.196H75.8101V26.8843ZM81.785 30.4595C82.9963 30.4595 83.7893 29.6958 83.7893 28.4538V28.1347C83.7893 26.8843 83.005 26.1289 81.785 26.1289C80.5739 26.1289 79.7809 26.8926 79.7809 28.1347V28.4538C79.7809 29.7041 80.5649 30.4595 81.785 30.4595ZM81.785 29.7377C81.0619 29.7377 80.6 29.2931 80.6 28.4538V28.1347C80.6 27.2871 81.053 26.8505 81.785 26.8505C82.5083 26.8505 82.9702 27.2954 82.9702 28.1347V28.4538C82.9702 29.3014 82.5169 29.7377 81.785 29.7377ZM86.7505 29.3853H87.5346L88.2317 27.9585L88.6674 27.0436V30.3925H89.4517V26.196H88.3364L87.1601 28.5795L85.9835 26.196H84.8334V30.3925H85.6177V27.0522L86.0445 27.9585L86.7505 29.3853ZM91.8453 30.4595C92.4815 30.4595 93.0044 30.1825 93.3182 29.7041L93.4139 30.3925H94.0239V27.5389C94.0239 26.6744 93.4576 26.1289 92.3682 26.1289C91.2181 26.1289 90.669 26.6577 90.6256 27.371H91.4968C91.5405 27.0353 91.7844 26.8004 92.3682 26.8004C92.9609 26.8004 93.2396 27.0688 93.2396 27.5389V27.8494H92.3682C90.9828 27.8494 90.4513 28.3613 90.4513 29.2174C90.4513 29.9894 90.9391 30.4595 91.8453 30.4595ZM91.9325 29.7881C91.5143 29.7881 91.2704 29.5532 91.2704 29.2006C91.2704 28.7726 91.5666 28.4873 92.3682 28.4873H93.2396V28.6383C93.2396 29.2593 92.6906 29.7881 91.9325 29.7881ZM94.7192 26.8843H96.1132V30.3925H96.8975V26.8843H98.2918V26.196H94.7192V26.8843ZM102.084 30.3925H102.869V26.196H101.858L100.385 28.6299L99.9057 29.4944V26.196H99.1214V30.3925H100.132L101.605 27.9585L102.084 27.094V30.3925ZM105.614 26.1289C104.525 26.1289 104.002 26.6325 103.915 27.4131H104.717C104.804 27.0522 105.03 26.8339 105.614 26.8339C106.198 26.8339 106.425 27.0522 106.425 27.371C106.425 27.7067 106.198 27.9081 105.614 27.9081H105.135V28.5964H105.614C106.303 28.5964 106.555 28.823 106.555 29.1754C106.555 29.5111 106.303 29.7545 105.614 29.7545C104.926 29.7545 104.673 29.5111 104.586 29.0914H103.784C103.871 29.9393 104.412 30.4595 105.614 30.4595C106.817 30.4595 107.357 29.9393 107.357 29.2174C107.357 28.7978 107.139 28.4538 106.669 28.2521C107.043 28.0593 107.226 27.7319 107.226 27.3292C107.226 26.6325 106.703 26.1289 105.614 26.1289ZM109.495 30.4595C110.131 30.4595 110.654 30.1825 110.968 29.7041L111.064 30.3925H111.674V27.5389C111.674 26.6744 111.107 26.1289 110.018 26.1289C108.868 26.1289 108.318 26.6577 108.275 27.371H109.146C109.19 27.0353 109.434 26.8004 110.018 26.8004C110.61 26.8004 110.889 27.0688 110.889 27.5389V27.8494H110.018C108.632 27.8494 108.101 28.3613 108.101 29.2174C108.101 29.9894 108.589 30.4595 109.495 30.4595ZM109.582 29.7881C109.164 29.7881 108.92 29.5532 108.92 29.2006C108.92 28.7726 109.216 28.4873 110.018 28.4873H110.889V28.6383C110.889 29.2593 110.34 29.7881 109.582 29.7881ZM112.933 30.3925H116.288V31.4835H117.072V29.7041H116.462V26.196H115.678V29.7041H113.717V26.196H112.933V30.3925ZM120.823 30.3925H121.607V26.196H120.597L119.124 28.6299L118.645 29.4944V26.196H117.86V30.3925H118.871L120.344 27.9585L120.823 27.094V30.3925ZM122.654 27.5724C122.654 28.1433 122.871 28.5543 123.421 28.7726L122.479 30.3925H123.351L124.161 28.9236C124.274 28.9321 124.397 28.9321 124.527 28.9321H125.268V30.3925H126.052V26.196H124.527C123.168 26.196 122.654 26.6913 122.654 27.5724ZM123.473 27.5724C123.473 27.1192 123.717 26.8843 124.527 26.8843H125.268V28.2438H124.527C123.717 28.2438 123.473 28.0089 123.473 27.5724ZM132.499 30.3925H133.283V26.196H132.272L130.799 28.6299L130.32 29.4944V26.196H129.536V30.3925H130.547L132.019 27.9585L132.499 27.094V30.3925ZM137.336 32.071H138.172L140.516 26.196H139.68L138.425 29.444L137.1 26.196H136.246L138.007 30.3925L137.336 32.071ZM144.085 30.3925H144.869V26.196H141.297V30.3925H142.081V26.8843H144.085V30.3925ZM148.282 30.4595C149.266 30.4595 150.007 29.7462 150.007 28.4538V28.1347C150.007 26.8339 149.275 26.1289 148.29 26.1289C147.663 26.1289 147.166 26.3555 146.861 26.8004L146.783 26.196H146.173V32.071H146.957V29.9141C147.262 30.275 147.715 30.4595 148.282 30.4595ZM148.072 29.7377C147.427 29.7377 146.957 29.2762 146.957 28.4538V28.076C146.974 27.2788 147.445 26.8505 148.072 26.8505C148.761 26.8505 149.188 27.2702 149.188 28.1347V28.4538C149.188 29.3349 148.769 29.7377 148.072 29.7377ZM152.138 30.4595C152.774 30.4595 153.297 30.1825 153.611 29.7041L153.707 30.3925H154.317V27.5389C154.317 26.6744 153.75 26.1289 152.661 26.1289C151.511 26.1289 150.962 26.6577 150.918 27.371H151.789C151.833 27.0353 152.077 26.8004 152.661 26.8004C153.254 26.8004 153.532 27.0688 153.532 27.5389V27.8494H152.661C151.275 27.8494 150.744 28.3613 150.744 29.2174C150.744 29.9894 151.232 30.4595 152.138 30.4595ZM152.225 29.7881C151.807 29.7881 151.563 29.5532 151.563 29.2006C151.563 28.7726 151.859 28.4873 152.661 28.4873H153.532V28.6383C153.532 29.2593 152.983 29.7881 152.225 29.7881ZM155.576 30.3925H157.406C158.583 30.3925 159.062 29.9307 159.062 29.1754C159.062 28.7643 158.835 28.4034 158.347 28.2103C158.713 28.0089 158.887 27.7067 158.887 27.3627C158.887 26.6577 158.408 26.196 157.232 26.196H155.576V30.3925ZM157.406 28.5795C158.034 28.5795 158.243 28.7809 158.243 29.1335C158.243 29.5028 158.034 29.7041 157.406 29.7041H156.36V28.5795H157.406ZM157.232 26.8843C157.868 26.8843 158.068 27.0774 158.068 27.4045C158.068 27.7319 157.868 27.925 157.232 27.925H156.36V26.8843H157.232ZM159.581 30.4595H159.711C160.617 30.4595 161.193 29.9141 161.193 28.2607V26.8843H162.761V30.3925H163.545V26.196H160.408V28.2607C160.408 29.4271 160.086 29.7377 159.711 29.7377H159.581V30.4595ZM166.551 30.4595C167.728 30.4595 168.294 29.9141 168.468 29.0914H167.667C167.492 29.528 167.239 29.7714 166.551 29.7714C165.898 29.7714 165.436 29.3518 165.409 28.5377H168.512V28.1347C168.512 26.901 167.71 26.1289 166.551 26.1289C165.401 26.1289 164.59 26.9095 164.59 28.1347V28.4538C164.59 29.6958 165.384 30.4595 166.551 30.4595ZM166.551 26.817C167.205 26.817 167.606 27.1444 167.675 27.8829H165.418C165.497 27.1696 165.932 26.817 166.551 26.817ZM172.521 30.3925H173.305V26.196H172.521V27.9081H170.342V26.196H169.558V30.3925H170.342V28.5964H172.521V30.3925ZM177.576 30.3925H178.36V26.196H177.349L175.876 28.6299L175.397 29.4944V26.196H174.613V30.3925H175.624L177.096 27.9585L177.576 27.094V30.3925ZM181.367 30.4595C182.543 30.4595 183.11 29.9141 183.284 29.0914H182.482C182.308 29.528 182.055 29.7714 181.367 29.7714C180.713 29.7714 180.251 29.3518 180.225 28.5377H183.328V28.1347C183.328 26.901 182.526 26.1289 181.367 26.1289C180.217 26.1289 179.406 26.9095 179.406 28.1347V28.4538C179.406 29.6958 180.199 30.4595 181.367 30.4595ZM181.367 26.817C182.02 26.817 182.421 27.1444 182.491 27.8829H180.234C180.312 27.1696 180.748 26.817 181.367 26.817Z" fill="white"/>
<path fill-rule="evenodd" clip-rule="evenodd" d="M11.1225 32.7987V1.65723H9.76222L0.172363 4.30488L1.70266 9.85233L7.51779 8.52851V32.7987H11.1225Z" fill="white"/>
<path d="M14.7605 1.65723H11.1218V32.7987H14.7605V1.65723Z" fill="white"/>
<path fill-rule="evenodd" clip-rule="evenodd" d="M38.7366 4.24181C42.9195 4.24181 46.8982 5.9754 49.5508 8.96977L51.7272 6.63732C45.4019 -0.0133345 34.4857 -0.643728 27.3105 5.1874C20.1351 11.0186 19.4209 21.1679 25.7461 27.8184C32.0713 34.4691 42.9875 35.1312 50.1629 29.2684C50.6389 28.8903 51.0811 28.4805 51.4893 28.0707L49.3128 25.7697C44.2118 31.1912 35.3701 31.7584 29.521 27.0306C23.6717 22.3026 23.0596 14.1075 28.1606 8.6861C30.8473 5.88084 34.6899 4.24181 38.7366 4.24181Z" fill="white"/>
<path fill-rule="evenodd" clip-rule="evenodd" d="M49.5502 8.96964C44.6192 3.42219 35.8115 2.63419 29.8263 7.20453C23.8412 11.7749 22.9911 19.9385 27.9221 25.4859C32.8529 31.0334 41.6606 31.8215 47.6457 27.2511C48.2579 26.7782 48.8021 26.2739 49.3123 25.7381L46.9998 23.248C43.4291 27.4717 36.7978 28.2281 32.2407 24.887C27.6839 21.546 26.8678 15.4312 30.4725 11.2075C34.0772 6.9839 40.6745 6.22742 45.2313 9.5685C45.9795 10.1044 46.6596 10.7347 47.2038 11.4597L49.5502 8.96964Z" fill="white"/>
<path d="M56.6236 15.4315C57.5625 15.4315 58.3239 14.7259 58.3239 13.8555C58.3239 12.9851 57.5625 12.2795 56.6236 12.2795C55.6845 12.2795 54.9231 12.9851 54.9231 13.8555C54.9231 14.7259 55.6845 15.4315 56.6236 15.4315Z" fill="white"/>
<path d="M56.6233 26.4628C57.5625 26.4628 58.3236 25.7572 58.3236 24.8868C58.3236 24.0164 57.5625 23.3108 56.6233 23.3108C55.6842 23.3108 54.9231 24.0164 54.9231 24.8868C54.9231 25.7572 55.6842 26.4628 56.6233 26.4628Z" fill="white"/>
</g>
<defs>
<clipPath id="clip0_6489_644">
<rect width="184" height="33" fill="white" transform="translate(0 0.5)"/>
</clipPath>
</defs>
</svg>
