<svg width="160" height="58" viewBox="0 0 160 58" fill="none" xmlns="http://www.w3.org/2000/svg">
<path d="M109.753 53.6739V41.7435H112.889L116.195 47.7939L119.467 41.7435H122.535V53.6739H119.467V46.8395L116.996 51.373H115.292L112.821 46.8395V53.6739H109.753Z" fill="#0066AF"/>
<path d="M100.039 53.8954C99.9136 53.8954 99.7887 53.8898 99.6637 53.8784C99.55 53.8784 99.4478 53.8613 99.3569 53.8273V51.2878C99.4478 51.2991 99.5387 51.3105 99.6296 51.3219C99.7205 51.3332 99.8284 51.3389 99.9534 51.3389C100.283 51.3389 100.539 51.3162 100.72 51.2707C100.902 51.2139 101.044 51.123 101.146 50.9981C101.249 50.8617 101.334 50.6799 101.402 50.4527L96.6129 41.7435H99.7318L102.902 47.7939L105.39 41.7435H108.39L104.402 50.7594C104.14 51.3503 103.879 51.8445 103.618 52.2422C103.368 52.6399 103.078 52.9637 102.749 53.2137C102.43 53.4523 102.05 53.6227 101.607 53.725C101.175 53.8386 100.652 53.8954 100.039 53.8954Z" fill="#0066AF"/>
<path d="M86.4864 53.6739V41.7435H91.3438C92.4573 41.7435 93.3719 41.9082 94.0878 42.2377C94.8036 42.5559 95.3319 43.0217 95.6728 43.6353C96.025 44.2375 96.2011 44.9647 96.2011 45.8168C96.2011 46.6577 96.025 47.3848 95.6728 47.9984C95.3319 48.612 94.8036 49.0835 94.0878 49.413C93.3719 49.7312 92.4573 49.8902 91.3438 49.8902H89.5542V53.6739H86.4864ZM89.5542 47.3678H91.0029C91.7869 47.3678 92.338 47.2371 92.6561 46.9758C92.9743 46.7145 93.1333 46.3282 93.1333 45.8168C93.1333 45.3055 92.9743 44.9192 92.6561 44.6579C92.338 44.3966 91.7869 44.2659 91.0029 44.2659H89.5542V47.3678Z" fill="#0066AF"/>
<path d="M78.7386 53.8938C77.966 53.8938 77.2274 53.7802 76.5229 53.5529C75.8185 53.3257 75.1992 52.9678 74.6652 52.4792C74.1312 51.9906 73.7108 51.36 73.404 50.5874C73.0972 49.8034 72.9438 48.8717 72.9438 47.7922V47.4514C72.9438 46.4061 73.0972 45.5084 73.404 44.7585C73.7108 44.0086 74.1312 43.395 74.6652 42.9178C75.1992 42.4406 75.8185 42.0884 76.5229 41.8611C77.2274 41.6339 77.966 41.5203 78.7386 41.5203C79.5339 41.5203 80.2782 41.6339 80.9713 41.8611C81.6644 42.0884 82.2779 42.4406 82.812 42.9178C83.346 43.395 83.7664 44.0086 84.0732 44.7585C84.38 45.5084 84.5334 46.4061 84.5334 47.4514V47.7922C84.5334 48.8717 84.38 49.8034 84.0732 50.5874C83.7664 51.36 83.346 51.9906 82.812 52.4792C82.2779 52.9678 81.6644 53.3257 80.9713 53.5529C80.2782 53.7802 79.5339 53.8938 78.7386 53.8938ZM78.7215 51.3373C79.1874 51.3373 79.6192 51.235 80.0168 51.0305C80.4145 50.8146 80.7327 50.4567 80.9713 49.9568C81.2212 49.4455 81.3462 48.724 81.3462 47.7922V47.4514C81.3462 46.5651 81.2212 45.8777 80.9713 45.3891C80.7327 44.9005 80.4145 44.5597 80.0168 44.3665C79.6192 44.1734 79.1874 44.0768 78.7215 44.0768C78.2784 44.0768 77.858 44.1734 77.4603 44.3665C77.0627 44.5597 76.7388 44.9005 76.4889 45.3891C76.2389 45.8777 76.1139 46.5651 76.1139 47.4514V47.7922C76.1139 48.724 76.2389 49.4455 76.4889 49.9568C76.7388 50.4567 77.0627 50.8146 77.4603 51.0305C77.858 51.235 78.2784 51.3373 78.7215 51.3373Z" fill="#0066AF"/>
<path d="M62.757 54.1858V53.1632C61.5753 53.1632 60.5527 52.936 59.6892 52.4815C58.837 52.027 58.178 51.3907 57.7121 50.5726C57.2463 49.7546 57.0133 48.8001 57.0133 47.7093V47.3685C57.0133 46.3913 57.2463 45.5164 57.7121 44.7438C58.178 43.9712 58.837 43.3633 59.6892 42.9201C60.5527 42.477 61.5753 42.2555 62.757 42.2555V41.2328H65.7396V42.2555C66.9213 42.2555 67.9439 42.477 68.8074 42.9201C69.6709 43.3633 70.3356 43.9712 70.8015 44.7438C71.2673 45.5164 71.5003 46.3913 71.5003 47.3685V47.7093C71.5003 48.8001 71.2673 49.7546 70.8015 50.5726C70.3356 51.3907 69.6709 52.027 68.8074 52.4815C67.9439 52.936 66.9213 53.1632 65.7396 53.1632V54.1858H62.757ZM68.3302 47.7093V47.3685C68.3302 46.7776 68.2279 46.2947 68.0234 45.9198C67.8189 45.5448 67.5235 45.2665 67.1371 45.0847C66.7508 44.9029 66.285 44.812 65.7396 44.812V50.6067C66.3077 50.6067 66.7792 50.5101 67.1542 50.317C67.5405 50.1238 67.8302 49.817 68.0234 49.3966C68.2279 48.9649 68.3302 48.4024 68.3302 47.7093ZM60.1834 47.3685V47.7093C60.1834 48.4024 60.28 48.9649 60.4732 49.3966C60.6663 49.817 60.9561 50.1238 61.3424 50.317C61.7287 50.5101 62.2002 50.6067 62.757 50.6067V44.812C62.2116 44.812 61.7457 44.9029 61.3594 45.0847C60.9731 45.2665 60.6777 45.5448 60.4732 45.9198C60.28 46.2947 60.1834 46.7776 60.1834 47.3685Z" fill="#0066AF"/>
<path d="M126.032 35.5113V23.5809H129.1V30.7391L133.787 23.5809H136.599V35.5113H133.532V28.353L128.845 35.5113H126.032Z" fill="#0066AF"/>
<path d="M113.58 35.7328C113.49 35.7328 113.359 35.7272 113.188 35.7158C113.029 35.7158 112.904 35.7044 112.814 35.6817V32.9888C112.848 33.0002 112.933 33.0059 113.069 33.0059C113.296 33.0059 113.49 32.9775 113.649 32.9207C113.819 32.8525 113.961 32.7162 114.075 32.5116C114.188 32.2957 114.285 31.9833 114.364 31.5742C114.455 31.1652 114.518 30.6198 114.552 29.9381C114.586 29.245 114.603 28.3758 114.603 27.3304V23.5809H123.636V35.5113H120.551V26.0863H117.466V27.6713C117.466 29.0916 117.41 30.2846 117.296 31.2504C117.182 32.2048 117.012 32.9775 116.785 33.5683C116.569 34.1592 116.302 34.6136 115.984 34.9318C115.665 35.2386 115.302 35.4488 114.893 35.5624C114.495 35.676 114.058 35.7328 113.58 35.7328Z" fill="#0066AF"/>
<path d="M100.632 35.5113V23.5809H103.699V30.7391L108.386 23.5809H111.199V35.5113H108.131V28.353L103.444 35.5113H100.632Z" fill="#0066AF"/>
<path d="M85.4708 35.5113V23.5809H88.6068L91.9132 29.6313L95.1856 23.5809H98.2534V35.5113H95.1856V28.6769L92.7143 33.2104H91.0099L88.5386 28.6769V35.5113H85.4708Z" fill="#0066AF"/>
<path d="M77.9686 35.7344C77.2527 35.7344 76.588 35.6605 75.9745 35.5128C75.3609 35.3537 74.8212 35.1094 74.3554 34.7799C73.9009 34.4391 73.5316 33.9959 73.2475 33.4505C72.9748 32.8938 72.8158 32.2177 72.7703 31.4224H75.9404C76.0199 32.0359 76.2358 32.4848 76.588 32.7688C76.9403 33.0415 77.4118 33.1779 78.0026 33.1779C78.2867 33.1779 78.5537 33.1381 78.8037 33.0585C79.0537 32.9677 79.2809 32.8256 79.4854 32.6325C79.6899 32.4393 79.8604 32.178 79.9967 31.8485C80.1331 31.519 80.2297 31.1156 80.2865 30.6384H76.6903V28.2864H80.2694C80.2012 27.7069 80.0592 27.2411 79.8433 26.8888C79.6388 26.5366 79.3775 26.2866 79.0593 26.1389C78.7526 25.9912 78.389 25.9174 77.9686 25.9174C77.5254 25.9174 77.0993 26.0537 76.6903 26.3264C76.2813 26.5991 76.0313 27.0479 75.9404 27.6728H72.7703C72.8271 26.8888 72.9976 26.2241 73.2816 25.6787C73.5657 25.1334 73.9406 24.6902 74.4065 24.3494C74.8723 24.0085 75.4064 23.7585 76.0086 23.5994C76.6221 23.4404 77.2755 23.3608 77.9686 23.3608C78.7412 23.3608 79.4627 23.4745 80.1331 23.7017C80.8035 23.929 81.3886 24.2812 81.8885 24.7584C82.3999 25.2356 82.7975 25.8492 83.0816 26.5991C83.3656 27.349 83.5077 28.2466 83.5077 29.292V29.6158C83.5077 30.7179 83.3713 31.661 83.0986 32.445C82.8373 33.2176 82.4567 33.8482 81.9567 34.3368C81.4681 34.8254 80.883 35.1833 80.2012 35.4105C79.5309 35.6264 78.7866 35.7344 77.9686 35.7344Z" fill="#0066AF"/>
<path d="M62.7569 36.0233V35.0006C61.5753 35.0006 60.5527 34.7734 59.6891 34.3189C58.837 33.8644 58.1779 33.2281 57.7121 32.41C57.2462 31.592 57.0133 30.6375 57.0133 29.5467V29.2059C57.0133 28.2287 57.2462 27.3538 57.7121 26.5812C58.1779 25.8086 58.837 25.2007 59.6891 24.7576C60.5527 24.3144 61.5753 24.0929 62.7569 24.0929V23.0703H65.7395V24.0929C66.9212 24.0929 67.9438 24.3144 68.8074 24.7576C69.6709 25.2007 70.3356 25.8086 70.8014 26.5812C71.2673 27.3538 71.5002 28.2287 71.5002 29.2059V29.5467C71.5002 30.6375 71.2673 31.592 70.8014 32.41C70.3356 33.2281 69.6709 33.8644 68.8074 34.3189C67.9438 34.7734 66.9212 35.0006 65.7395 35.0006V36.0233H62.7569ZM68.3301 29.5467V29.2059C68.3301 28.615 68.2279 28.1321 68.0234 27.7572C67.8188 27.3822 67.5234 27.1039 67.1371 26.9221C66.7508 26.7403 66.2849 26.6494 65.7395 26.6494V32.4441C66.3077 32.4441 66.7792 32.3476 67.1541 32.1544C67.5405 31.9612 67.8302 31.6545 68.0234 31.234C68.2279 30.8023 68.3301 30.2398 68.3301 29.5467ZM60.1834 29.2059V29.5467C60.1834 30.2398 60.28 30.8023 60.4731 31.234C60.6663 31.6545 60.956 31.9612 61.3423 32.1544C61.7287 32.3476 62.2002 32.4441 62.7569 32.4441V26.6494C62.2116 26.6494 61.7457 26.7403 61.3594 26.9221C60.9731 27.1039 60.6776 27.3822 60.4731 27.7572C60.28 28.1321 60.1834 28.615 60.1834 29.2059Z" fill="#0066AF"/>
<path d="M154.122 18.3853C153.031 18.3853 152.066 18.1865 151.225 17.7888C150.395 17.3797 149.748 16.7264 149.282 15.8288C148.816 14.9312 148.583 13.7438 148.583 12.2667V11.9429C148.583 10.8976 148.725 9.99994 149.009 9.25003C149.293 8.50012 149.685 7.88656 150.185 7.40934C150.696 6.93213 151.287 6.57989 151.958 6.35265C152.628 6.1254 153.35 6.01178 154.122 6.01178C154.815 6.01178 155.469 6.09132 156.082 6.25039C156.696 6.40946 157.23 6.65943 157.684 7.0003C158.15 7.34117 158.525 7.7843 158.809 8.32969C159.093 8.87508 159.264 9.53977 159.32 10.3238H156.133C156.031 9.69884 155.792 9.25003 155.417 8.97734C155.042 8.70464 154.611 8.56829 154.122 8.56829C153.668 8.56829 153.259 8.68192 152.895 8.90916C152.543 9.12505 152.264 9.47728 152.06 9.96586C151.855 10.4544 151.753 11.1134 151.753 11.9429V12.3008C151.753 12.9598 151.816 13.5166 151.941 13.9711C152.066 14.4256 152.236 14.7891 152.452 15.0618C152.679 15.3345 152.935 15.5334 153.219 15.6584C153.503 15.772 153.804 15.8288 154.122 15.8288C154.702 15.8288 155.162 15.6924 155.503 15.4198C155.855 15.1357 156.065 14.6869 156.133 14.0733H159.32C159.275 14.8687 159.11 15.5447 158.826 16.1015C158.553 16.6469 158.184 17.09 157.718 17.4309C157.264 17.7604 156.73 18.0047 156.116 18.1637C155.503 18.3115 154.838 18.3853 154.122 18.3853Z" fill="#5EBEFF"/>
<path d="M138.44 18.1598V6.22937H147.132V8.58136H141.508V10.9163H146.621V13.132H141.508V15.8078H147.132V18.1598H138.44Z" fill="#5EBEFF"/>
<path d="M125.489 18.1598V6.22937H128.557V10.7629H132.988V6.22937H136.056V18.1598H132.988V13.2853H128.557V18.1598H125.489Z" fill="#5EBEFF"/>
<path d="M117.216 18.1598V8.7518H113.552V6.22937H123.948V8.7518H120.284V18.1598H117.216Z" fill="#5EBEFF"/>
<path d="M101.457 18.1598V6.22937H104.525V13.3876L109.212 6.22937H112.024V18.1598H108.957V11.0015L104.27 18.1598H101.457Z" fill="#5EBEFF"/>
<path d="M90.8436 18.6741V17.6515C89.662 17.6515 88.6394 17.4242 87.7758 16.9697C86.9237 16.5152 86.2646 15.8789 85.7988 15.0609C85.3329 14.2428 85.1 13.2883 85.1 12.1976V11.8567C85.1 10.8795 85.3329 10.0046 85.7988 9.23201C86.2646 8.45938 86.9237 7.8515 87.7758 7.40837C88.6394 6.96524 89.662 6.74367 90.8436 6.74367V5.72107H93.8262V6.74367C95.0079 6.74367 96.0305 6.96524 96.8941 7.40837C97.7576 7.8515 98.4223 8.45938 98.8881 9.23201C99.354 10.0046 99.5869 10.8795 99.5869 11.8567V12.1976C99.5869 13.2883 99.354 14.2428 98.8881 15.0609C98.4223 15.8789 97.7576 16.5152 96.8941 16.9697C96.0305 17.4242 95.0079 17.6515 93.8262 17.6515V18.6741H90.8436ZM96.4168 12.1976V11.8567C96.4168 11.2659 96.3146 10.783 96.1101 10.408C95.9055 10.0331 95.6101 9.75468 95.2238 9.57288C94.8375 9.39109 94.3716 9.30019 93.8262 9.30019V15.0949C94.3944 15.0949 94.8659 14.9984 95.2408 14.8052C95.6272 14.6121 95.9169 14.3053 96.1101 13.8849C96.3146 13.4531 96.4168 12.8907 96.4168 12.1976ZM88.2701 11.8567V12.1976C88.2701 12.8907 88.3667 13.4531 88.5598 13.8849C88.753 14.3053 89.0427 14.6121 89.429 14.8052C89.8154 14.9984 90.2869 15.0949 90.8436 15.0949V9.30019C90.2982 9.30019 89.8324 9.39109 89.4461 9.57288C89.0598 9.75468 88.7643 10.0331 88.5598 10.408C88.3667 10.783 88.2701 11.2659 88.2701 11.8567Z" fill="#5EBEFF"/>
<path fill-rule="evenodd" clip-rule="evenodd" d="M60.6835 19.419V4.52844H60.0331L55.4476 5.79444L56.1793 8.44701L58.9599 7.81402V19.419H60.6835Z" fill="#5EBEFF"/>
<path d="M62.4237 4.52844H60.6838V19.419H62.4237V4.52844Z" fill="#5EBEFF"/>
<path fill-rule="evenodd" clip-rule="evenodd" d="M73.8882 5.76423C75.8882 5.76423 77.7907 6.59316 79.0591 8.02495L80.0997 6.90967C77.0752 3.72959 71.8556 3.42816 68.4247 6.21638C64.9936 9.0046 64.6522 13.8576 67.6766 17.0376C70.7011 20.2177 75.9208 20.5343 79.3518 17.7309C79.5793 17.5501 79.7908 17.3542 79.986 17.1583L78.9453 16.058C76.5062 18.6503 72.2784 18.9216 69.4816 16.6609C66.6847 14.4002 66.3921 10.4816 68.8312 7.88931C70.1158 6.54795 71.9532 5.76423 73.8882 5.76423Z" fill="#5EBEFF"/>
<path fill-rule="evenodd" clip-rule="evenodd" d="M79.0579 8.02486C76.7001 5.37229 72.4886 4.9955 69.6268 7.18085C66.7649 9.36621 66.3584 13.2697 68.7163 15.9223C71.074 18.5748 75.2855 18.9517 78.1473 16.7663C78.44 16.5402 78.7002 16.2991 78.9442 16.0429L77.8385 14.8522C76.1311 16.8718 72.9603 17.2335 70.7812 15.6359C68.6024 14.0384 68.2121 11.1145 69.9357 9.09493C71.6594 7.07536 74.8139 6.71364 76.9928 8.31121C77.3506 8.56743 77.6758 8.86885 77.936 9.2155L79.0579 8.02486Z" fill="#5EBEFF"/>
<path d="M82.4395 11.1146C82.8884 11.1146 83.2524 10.7772 83.2524 10.3611C83.2524 9.94487 82.8884 9.60748 82.4395 9.60748C81.9904 9.60748 81.6263 9.94487 81.6263 10.3611C81.6263 10.7772 81.9904 11.1146 82.4395 11.1146Z" fill="#5EBEFF"/>
<path d="M82.4393 16.39C82.8884 16.39 83.2523 16.0526 83.2523 15.6364C83.2523 15.2202 82.8884 14.8828 82.4393 14.8828C81.9903 14.8828 81.6263 15.2202 81.6263 15.6364C81.6263 16.0526 81.9903 16.39 82.4393 16.39Z" fill="#5EBEFF"/>
<rect x="0.273567" y="0.387573" width="16.2401" height="16.3994" fill="#5EBEFF"/>
<rect x="16.5174" y="0.387512" width="16.2401" height="16.3994" fill="#5EBEFF"/>
<rect x="16.5174" y="49.4685" width="8.12201" height="16.244" transform="rotate(90 16.5174 49.4685)" fill="#0066AF"/>
<rect x="32.7631" y="0.387512" width="8.12007" height="16.3994" fill="#5EBEFF"/>
<rect x="32.7631" y="24.7531" width="8.12007" height="16.3994" fill="#FE7236"/>
<rect x="0.273479" y="16.7477" width="16.2401" height="16.3994" fill="#FE7236"/>
<rect x="16.5174" y="24.7531" width="16.2401" height="16.3994" fill="#5EBEFF"/>
<rect x="0.273479" y="33.1069" width="16.244" height="16.36" fill="#0066AF"/>
</svg>
