<svg width="182" height="35" viewBox="0 0 182 35" fill="none" xmlns="http://www.w3.org/2000/svg">
<g clip-path="url(#clip0_2516_452)">
<path d="M79.5767 13.9098V13.2207C79.5767 9.63352 77.1807 7.20154 73.0878 7.20154V6.28955H70.6921V7.20154C66.6389 7.20154 64.2031 9.67406 64.2031 13.2207V13.9098C64.2031 17.4969 66.5991 19.9289 70.6921 19.9289V20.8409H73.0878V19.9289C77.1409 19.9289 79.5767 17.4564 79.5767 13.9098ZM77.0611 13.2207V13.9098C77.0611 16.3215 75.6833 17.7199 73.0878 17.7199V9.39034C75.6435 9.39034 77.0611 10.8293 77.0611 13.2207ZM66.7188 13.9098V13.2207C66.7188 10.7887 68.0965 9.39034 70.6921 9.39034V17.7199C68.1363 17.7199 66.7188 16.2809 66.7188 13.9098ZM88.2384 20.6585H90.5545V10.5252H87.6395L84.7845 15.7945L83.8859 17.6793V10.5252H81.5701V20.6585H84.4851L87.3402 15.3892L88.2384 13.5044V20.6585ZM92.1533 12.5924H95.188V20.6585H97.5041V12.5924H100.539V10.5252H92.1533V12.5924ZM108.808 20.6585H111.124V10.5252H108.808V14.4569H104.456V10.5252H102.14V20.6585H104.456V16.5241H108.808V20.6585ZM117.815 20.8409C120.61 20.8409 122.007 19.4222 122.406 17.5172H120.011C119.811 18.186 119.232 18.7737 117.815 18.7737C116.397 18.7737 115.558 18.0644 115.438 16.3823H122.506V15.5919C122.506 12.2479 120.709 10.3429 117.815 10.3429C114.959 10.3429 113.123 12.2074 113.123 15.2676V15.9161C113.123 18.9764 114.959 20.8409 117.815 20.8409ZM117.815 12.41C119.172 12.41 119.971 13.018 120.15 14.5177H115.479C115.678 13.0586 116.477 12.41 117.815 12.41ZM128.597 20.8409C131.112 20.8409 132.49 19.4425 132.889 17.3145H130.413C130.214 18.0644 129.635 18.6521 128.497 18.6521C127.359 18.6521 126.34 17.8212 126.34 15.9161V15.2676C126.34 13.322 127.319 12.5316 128.497 12.5316C129.515 12.5316 130.214 13.0383 130.413 13.7679H132.889C132.49 11.7412 131.112 10.3429 128.597 10.3429C125.761 10.3429 123.905 12.2276 123.905 15.2676V15.9161C123.905 18.9966 125.722 20.8409 128.597 20.8409ZM145.565 20.6585H148.36L144.806 15.3081L147.961 10.5252H145.285L142.89 14.3556H141.891V10.5252H139.575V20.6585H141.891V16.4228H142.89L145.565 20.6585ZM149.045 20.8409H149.344C151.68 20.8409 153.158 19.4425 153.158 15.3081V12.5924H156.113V20.6585H158.429V10.5252H150.842V15.3081C150.842 17.963 150.063 18.6521 149.344 18.6521H149.045V20.8409ZM162.32 24.7118H164.716L170.007 10.5252H167.611L165.056 17.7807L162.34 10.5252H159.825L163.838 20.6585L162.32 24.7118ZM175.588 20.8409C178.543 20.8409 180.38 18.9764 180.38 16.0175V15.3689C180.38 12.3087 178.643 10.5455 176.087 10.5455C174.829 10.5455 173.751 11.0319 173.013 11.9642C173.232 10.505 173.691 9.73485 174.53 9.24846C175.868 8.49861 177.585 8.985 179.581 8.31619V6.28955C176.886 7.05969 175.328 6.47196 173.532 7.44475C171.495 8.5594 170.796 11.0522 170.796 14.0516V15.1055C170.796 18.9966 172.613 20.8409 175.588 20.8409ZM175.588 12.7343C177.025 12.7343 177.944 13.6665 177.944 15.3689V16.0175C177.944 17.7199 177.025 18.6521 175.588 18.6521C174.15 18.6521 173.232 17.7199 173.232 16.0175V15.2473C173.272 13.626 174.191 12.7343 175.588 12.7343Z" fill="#1EA0DE"/>
<path d="M67.6465 31.3775C68.2723 31.3775 68.7865 31.0903 69.0951 30.5944L69.1893 31.308H69.7893V28.3498C69.7893 27.4536 69.2323 26.8882 68.1608 26.8882C67.0296 26.8882 66.4895 27.4364 66.4468 28.1758H67.3037C67.3467 27.8278 67.5866 27.5843 68.1608 27.5843C68.7438 27.5843 69.0179 27.8625 69.0179 28.3498V28.6717H68.1608C66.7982 28.6717 66.2754 29.2023 66.2754 30.0899C66.2754 30.8902 66.7552 31.3775 67.6465 31.3775ZM67.7322 30.6814C67.3209 30.6814 67.081 30.4379 67.081 30.0724C67.081 29.6288 67.3724 29.333 68.1608 29.333H69.0179V29.4895C69.0179 30.1333 68.4779 30.6814 67.7322 30.6814ZM71.0281 31.308H72.828C73.9853 31.308 74.4566 30.8293 74.4566 30.0463C74.4566 29.6201 74.2337 29.246 73.7539 29.0458C74.1137 28.8371 74.2851 28.5238 74.2851 28.1672C74.2851 27.4364 73.8138 26.9578 72.6566 26.9578H71.0281V31.308ZM72.828 29.4286C73.4453 29.4286 73.6509 29.6374 73.6509 30.0029C73.6509 30.3857 73.4453 30.5944 72.828 30.5944H71.7995V29.4286H72.828ZM72.6566 27.6713C73.2823 27.6713 73.4795 27.8714 73.4795 28.2105C73.4795 28.5499 73.2823 28.7501 72.6566 28.7501H71.7995V27.6713H72.6566ZM74.926 27.6713H76.2974V31.308H77.0688V27.6713H78.4402V26.9578H74.926V27.6713ZM80.8027 31.3775C81.9942 31.3775 82.7741 30.5858 82.7741 29.2982V28.9675C82.7741 27.6713 82.0027 26.8882 80.8027 26.8882C79.6115 26.8882 78.8316 27.6799 78.8316 28.9675V29.2982C78.8316 30.5944 79.6028 31.3775 80.8027 31.3775ZM80.8027 30.6292C80.0916 30.6292 79.6372 30.1683 79.6372 29.2982V28.9675C79.6372 28.0888 80.0828 27.6363 80.8027 27.6363C81.5142 27.6363 81.9685 28.0974 81.9685 28.9675V29.2982C81.9685 30.1769 81.5227 30.6292 80.8027 30.6292ZM85.6867 30.2639H86.4579L87.1436 28.7848L87.5722 27.8364V31.308H88.3436V26.9578H87.2466L86.0896 29.4286L84.9323 26.9578H83.8011V31.308H84.5725V27.8453L84.9923 28.7848L85.6867 30.2639ZM90.6979 31.3775C91.3236 31.3775 91.8379 31.0903 92.1465 30.5944L92.2407 31.308H92.8407V28.3498C92.8407 27.4536 92.2837 26.8882 91.2122 26.8882C90.0809 26.8882 89.5409 27.4364 89.4982 28.1758H90.355C90.398 27.8278 90.6379 27.5843 91.2122 27.5843C91.7952 27.5843 92.0693 27.8625 92.0693 28.3498V28.6717H91.2122C89.8495 28.6717 89.3267 29.2023 89.3267 30.0899C89.3267 30.8902 89.8065 31.3775 90.6979 31.3775ZM90.7836 30.6814C90.3723 30.6814 90.1324 30.4379 90.1324 30.0724C90.1324 29.6288 90.4238 29.333 91.2122 29.333H92.0693V29.4895C92.0693 30.1333 91.5293 30.6814 90.7836 30.6814ZM93.5245 27.6713H94.8957V31.308H95.6671V27.6713H97.0385V26.9578H93.5245V27.6713ZM100.769 31.308H101.54V26.9578H100.546L99.0972 29.4809L98.6259 30.377V26.9578H97.8545V31.308H98.8488L100.297 28.7848L100.769 27.8887V31.308ZM104.24 26.8882C103.169 26.8882 102.655 27.4103 102.569 28.2194H103.358C103.443 27.8453 103.666 27.619 104.24 27.619C104.815 27.619 105.038 27.8453 105.038 28.1758C105.038 28.5238 104.815 28.7326 104.24 28.7326H103.769V29.4461H104.24C104.918 29.4461 105.166 29.681 105.166 30.0463C105.166 30.3943 104.918 30.6467 104.24 30.6467C103.564 30.6467 103.315 30.3943 103.229 29.9593H102.441C102.526 30.8382 103.058 31.3775 104.24 31.3775C105.423 31.3775 105.955 30.8382 105.955 30.0899C105.955 29.6549 105.741 29.2982 105.278 29.0892C105.646 28.8893 105.826 28.5499 105.826 28.1324C105.826 27.4103 105.312 26.8882 104.24 26.8882ZM108.058 31.3775C108.683 31.3775 109.198 31.0903 109.506 30.5944L109.601 31.308H110.201V28.3498C110.201 27.4536 109.643 26.8882 108.572 26.8882C107.44 26.8882 106.9 27.4364 106.858 28.1758H107.715C107.758 27.8278 107.998 27.5843 108.572 27.5843C109.155 27.5843 109.429 27.8625 109.429 28.3498V28.6717H108.572C107.209 28.6717 106.686 29.2023 106.686 30.0899C106.686 30.8902 107.166 31.3775 108.058 31.3775ZM108.143 30.6814C107.732 30.6814 107.492 30.4379 107.492 30.0724C107.492 29.6288 107.783 29.333 108.572 29.333H109.429V29.4895C109.429 30.1333 108.889 30.6814 108.143 30.6814ZM111.439 31.308H114.739V32.439H115.51V30.5944H114.91V26.9578H114.139V30.5944H112.211V26.9578H111.439V31.308ZM119.2 31.308H119.971V26.9578H118.977L117.528 29.4809L117.057 30.377V26.9578H116.286V31.308H117.28L118.728 28.7848L119.2 27.8887V31.308ZM121 28.3846C121 28.9764 121.214 29.4025 121.754 29.6288L120.829 31.308H121.686L122.483 29.7853C122.594 29.7941 122.715 29.7941 122.843 29.7941H123.571V31.308H124.343V26.9578H122.843C121.506 26.9578 121 27.4711 121 28.3846ZM121.806 28.3846C121.806 27.9148 122.046 27.6713 122.843 27.6713H123.571V29.0806H122.843C122.046 29.0806 121.806 28.8371 121.806 28.3846ZM130.683 31.308H131.455V26.9578H130.461L129.012 29.4809L128.541 30.377V26.9578H127.769V31.308H128.764L130.212 28.7848L130.683 27.8887V31.308ZM135.441 33.0481H136.264L138.569 26.9578H137.747L136.512 30.3248L135.21 26.9578H134.37L136.101 31.308L135.441 33.0481ZM142.079 31.308H142.851V26.9578H139.337V31.308H140.108V27.6713H142.079V31.308ZM146.207 31.3775C147.176 31.3775 147.904 30.6381 147.904 29.2982V28.9675C147.904 27.619 147.184 26.8882 146.216 26.8882C145.598 26.8882 145.11 27.1231 144.81 27.5843L144.733 26.9578H144.133V33.0481H144.904V30.8121C145.204 31.1862 145.65 31.3775 146.207 31.3775ZM146.002 30.6292C145.367 30.6292 144.904 30.1508 144.904 29.2982V28.9066C144.922 28.0802 145.384 27.6363 146.002 27.6363C146.678 27.6363 147.099 28.0713 147.099 28.9675V29.2982C147.099 30.2117 146.687 30.6292 146.002 30.6292ZM150 31.3775C150.626 31.3775 151.14 31.0903 151.449 30.5944L151.543 31.308H152.143V28.3498C152.143 27.4536 151.586 26.8882 150.515 26.8882C149.383 26.8882 148.843 27.4364 148.8 28.1758H149.657C149.7 27.8278 149.94 27.5843 150.515 27.5843C151.098 27.5843 151.372 27.8625 151.372 28.3498V28.6717H150.515C149.152 28.6717 148.629 29.2023 148.629 30.0899C148.629 30.8902 149.109 31.3775 150 31.3775ZM150.086 30.6814C149.675 30.6814 149.435 30.4379 149.435 30.0724C149.435 29.6288 149.726 29.333 150.515 29.333H151.372V29.4895C151.372 30.1333 150.832 30.6814 150.086 30.6814ZM153.382 31.308H155.182C156.339 31.308 156.81 30.8293 156.81 30.0463C156.81 29.6201 156.587 29.246 156.107 29.0458C156.467 28.8371 156.639 28.5238 156.639 28.1672C156.639 27.4364 156.168 26.9578 155.01 26.9578H153.382V31.308ZM155.182 29.4286C155.799 29.4286 156.005 29.6374 156.005 30.0029C156.005 30.3857 155.799 30.5944 155.182 30.5944H154.153V29.4286H155.182ZM155.01 27.6713C155.636 27.6713 155.833 27.8714 155.833 28.2105C155.833 28.5499 155.636 28.7501 155.01 28.7501H154.153V27.6713H155.01ZM157.321 31.3775H157.449C158.34 31.3775 158.906 30.8121 158.906 29.0981V27.6713H160.449V31.308H161.22V26.9578H158.135V29.0981C158.135 30.3073 157.818 30.6292 157.449 30.6292H157.321V31.3775ZM164.177 31.3775C165.334 31.3775 165.891 30.8121 166.062 29.9593H165.274C165.102 30.4118 164.854 30.6642 164.177 30.6642C163.534 30.6642 163.08 30.2292 163.054 29.3852H166.105V28.9675C166.105 27.6885 165.317 26.8882 164.177 26.8882C163.045 26.8882 162.248 27.6974 162.248 28.9675V29.2982C162.248 30.5858 163.028 31.3775 164.177 31.3775ZM164.177 27.6015C164.82 27.6015 165.214 27.9409 165.282 28.7064H163.063C163.14 27.967 163.568 27.6015 164.177 27.6015ZM170.048 31.308H170.82V26.9578H170.048V28.7326H167.905V26.9578H167.134V31.308H167.905V29.4461H170.048V31.308ZM175.02 31.308H175.792V26.9578H174.797L173.349 29.4809L172.877 30.377V26.9578H172.106V31.308H173.1L174.549 28.7848L175.02 27.8887V31.308ZM178.749 31.3775C179.906 31.3775 180.463 30.8121 180.635 29.9593H179.846C179.675 30.4118 179.426 30.6642 178.749 30.6642C178.106 30.6642 177.652 30.2292 177.626 29.3852H180.678V28.9675C180.678 27.6885 179.889 26.8882 178.749 26.8882C177.618 26.8882 176.821 27.6974 176.821 28.9675V29.2982C176.821 30.5858 177.601 31.3775 178.749 31.3775ZM178.749 27.6015C179.392 27.6015 179.786 27.9409 179.855 28.7064H177.635C177.712 27.967 178.141 27.6015 178.749 27.6015Z" fill="white"/>
<path fill-rule="evenodd" clip-rule="evenodd" d="M11.3015 33.8022V1.51953H9.9636L0.53125 4.2642L2.03641 10.0149L7.75604 8.64261V33.8022H11.3015Z" fill="#3CAAE1"/>
<path d="M14.8797 1.51953H11.3008V33.8022H14.8797V1.51953Z" fill="#66BCF7"/>
<path fill-rule="evenodd" clip-rule="evenodd" d="M38.4622 4.199C42.5764 4.199 46.4898 5.99612 49.0988 9.10022L51.2395 6.6823C45.0181 -0.212065 34.2812 -0.865558 27.2238 5.17925C20.1662 11.2241 19.4638 21.7453 25.6851 28.6396C31.9064 35.534 42.6433 36.2203 49.7009 30.1426C50.169 29.7507 50.604 29.3259 51.0055 28.9011L48.8648 26.5158C43.8475 32.1359 35.151 32.724 29.3979 27.8229C23.6448 22.9216 23.0428 14.4262 28.06 8.80616C30.7025 5.8981 34.4821 4.199 38.4622 4.199Z" fill="#3CAAE1"/>
<path fill-rule="evenodd" clip-rule="evenodd" d="M49.0976 9.10002C44.2475 3.34928 35.5845 2.5324 29.6976 7.27022C23.8108 12.008 22.9746 20.4708 27.8247 26.2215C32.6745 31.9722 41.3375 32.7892 47.2244 28.0514C47.8265 27.5611 48.3617 27.0384 48.8635 26.4829L46.5891 23.9016C43.077 28.2801 36.5546 29.0642 32.0724 25.6007C27.5904 22.1372 26.7877 15.7983 30.3332 11.4199C33.8787 7.04151 40.3676 6.25731 44.8496 9.72082C45.5855 10.2763 46.2545 10.9298 46.7897 11.6813L49.0976 9.10002Z" fill="#66BCF7"/>
<path d="M56.0544 15.7987C56.9779 15.7987 57.7267 15.0673 57.7267 14.165C57.7267 13.2627 56.9779 12.5312 56.0544 12.5312C55.1307 12.5312 54.3818 13.2627 54.3818 14.165C54.3818 15.0673 55.1307 15.7987 56.0544 15.7987Z" fill="#3CAAE1"/>
<path d="M56.0542 27.2338C56.9779 27.2338 57.7265 26.5023 57.7265 25.6001C57.7265 24.6978 56.9779 23.9663 56.0542 23.9663C55.1304 23.9663 54.3818 24.6978 54.3818 25.6001C54.3818 26.5023 55.1304 27.2338 56.0542 27.2338Z" fill="#3CAAE1"/>
</g>
<defs>
<clipPath id="clip0_2516_452">
<rect width="180.978" height="34.2093" fill="white" transform="translate(0.361328 0.319824)"/>
</clipPath>
</defs>
</svg>
