<svg width="250" height="90" viewBox="0 0 250 90" fill="none" xmlns="http://www.w3.org/2000/svg">
<path d="M172.101 83.9V65.2H177.001L182.201 74.7L187.301 65.2H192.101V83.9H187.301V73.2L183.401 80.3H180.701L176.801 73.2V83.9H172.101Z" fill="#0066AC"/>
<path d="M156.901 84.2C156.701 84.2 156.501 84.2 156.301 84.2C156.101 84.2 156.001 84.2 155.801 84.1V80.1C155.901 80.1 156.101 80.1 156.201 80.2C156.301 80.2 156.501 80.2 156.701 80.2C157.201 80.2 157.601 80.2 157.901 80.1C158.201 80 158.401 79.9 158.601 79.7C158.801 79.5 158.901 79.2 159.001 78.8L151.501 65.2H156.401L161.401 74.7L165.301 65.2H170.001L163.801 79.3C163.401 80.2 163.001 81 162.601 81.6C162.201 82.2 161.801 82.7 161.201 83.1C160.701 83.5 160.101 83.7 159.401 83.9C158.601 84.1 157.801 84.2 156.901 84.2Z" fill="#0066AC"/>
<path d="M135.701 83.9V65.2H143.301C145.001 65.2 146.501 65.5 147.601 66C148.701 66.5 149.501 67.2 150.101 68.2C150.701 69.1 150.901 70.3 150.901 71.6C150.901 72.9 150.601 74.1 150.101 75C149.601 76 148.701 76.7 147.601 77.2C146.501 77.7 145.101 77.9 143.301 77.9H140.501V83.8H135.701V83.9ZM140.501 74H142.801C144.001 74 144.901 73.8 145.401 73.4C145.901 73 146.101 72.4 146.101 71.6C146.101 70.8 145.901 70.2 145.401 69.8C144.901 69.4 144.001 69.2 142.801 69.2H140.501V74Z" fill="#0066AC"/>
<path d="M123.501 84.2C122.301 84.2 121.101 84 120.001 83.7C118.901 83.3 117.901 82.8 117.101 82C116.301 81.2 115.601 80.2 115.101 79C114.601 77.8 114.401 76.3 114.401 74.6V74.1C114.401 72.5 114.601 71.1 115.101 69.9C115.601 68.7 116.201 67.8 117.101 67C117.901 66.3 118.901 65.7 120.001 65.3C121.101 64.9 122.301 64.8 123.501 64.8C124.701 64.8 125.901 65 127.001 65.3C128.101 65.7 129.001 66.2 129.901 67C130.701 67.7 131.401 68.7 131.901 69.9C132.401 71.1 132.601 72.5 132.601 74.1V74.6C132.601 76.3 132.401 77.7 131.901 79C131.401 80.2 130.801 81.2 129.901 82C129.101 82.8 128.101 83.3 127.001 83.7C126.001 84.1 124.801 84.2 123.501 84.2ZM123.501 80.2C124.201 80.2 124.901 80 125.501 79.7C126.101 79.4 126.601 78.8 127.001 78C127.401 77.2 127.601 76.1 127.601 74.6V74.1C127.601 72.7 127.401 71.6 127.001 70.9C126.601 70.1 126.101 69.6 125.501 69.3C124.901 69 124.201 68.8 123.501 68.8C122.801 68.8 122.101 69 121.501 69.3C120.901 69.6 120.401 70.1 120.001 70.9C119.601 71.7 119.401 72.7 119.401 74.1V74.6C119.401 76.1 119.601 77.2 120.001 78C120.401 78.8 120.901 79.3 121.501 79.7C122.201 80.1 122.801 80.2 123.501 80.2Z" fill="#0066AC"/>
<path d="M98.5005 84.7V83.1C96.6005 83.1 95.1006 82.7 93.7006 82C92.4006 81.3 91.3006 80.3 90.6006 79C89.9006 77.7 89.5005 76.2 89.5005 74.5V74C89.5005 72.5 89.9006 71.1 90.6006 69.9C91.3006 68.7 92.4006 67.7 93.7006 67C95.1006 66.3 96.7005 66 98.5005 66V64.4H103.201V66C105.101 66 106.601 66.3 108.001 67C109.401 67.7 110.401 68.6 111.101 69.9C111.801 71.1 112.201 72.5 112.201 74V74.5C112.201 76.2 111.801 77.7 111.101 79C110.401 80.3 109.301 81.3 108.001 82C106.601 82.7 105.001 83.1 103.201 83.1V84.7H98.5005ZM107.301 74.6V74C107.301 73.1 107.101 72.3 106.801 71.7C106.501 71.1 106.001 70.7 105.401 70.4C104.801 70.1 104.101 70 103.201 70V79.1C104.101 79.1 104.801 78.9 105.401 78.6C106.001 78.3 106.501 77.8 106.801 77.2C107.101 76.5 107.301 75.6 107.301 74.6ZM94.5005 74V74.5C94.5005 75.6 94.7005 76.5 95.0005 77.1C95.3005 77.8 95.8006 78.2 96.4006 78.5C97.0006 78.8 97.7006 79 98.6006 79V70C97.7006 70 97.0006 70.1 96.4006 70.4C95.8006 70.7 95.3005 71.1 95.0005 71.7C94.7005 72.3 94.5005 73.1 94.5005 74Z" fill="#0066AC"/>
<path d="M197.501 55.5V36.8H202.301V48L209.601 36.8H214.001V55.5H209.201V44.3L201.901 55.5H197.501Z" fill="#0066AC"/>
<path d="M178.101 55.8C178.001 55.8 177.801 55.8 177.501 55.8C177.301 55.8 177.101 55.8 176.901 55.7V51.5C177.001 51.5 177.101 51.5 177.301 51.5C177.701 51.5 178.001 51.5 178.201 51.4C178.501 51.3 178.701 51.1 178.901 50.8C179.101 50.5 179.201 50 179.401 49.3C179.501 48.7 179.601 47.8 179.701 46.7C179.801 45.6 179.801 44.3 179.801 42.6V36.7H193.901V55.4H189.101V40.7H184.301V43.2C184.301 45.4 184.201 47.3 184.001 48.8C183.801 50.3 183.601 51.5 183.201 52.4C182.901 53.3 182.401 54 181.901 54.5C181.401 55 180.801 55.3 180.201 55.5C179.501 55.7 178.801 55.8 178.101 55.8Z" fill="#0066AC"/>
<path d="M157.801 55.5V36.8H162.601V48L169.901 36.8H174.301V55.5H169.501V44.3L162.201 55.5H157.801Z" fill="#0066AC"/>
<path d="M134.101 55.5V36.8H139.001L144.201 46.3L149.301 36.8H154.101V55.5H149.301V44.8L145.401 51.9H142.701L138.801 44.8V55.5H134.101Z" fill="#0066AC"/>
<path d="M122.301 55.8C121.201 55.8 120.101 55.7 119.201 55.5C118.201 55.3 117.401 54.9 116.701 54.4C116.001 53.9 115.401 53.2 115.001 52.3C114.601 51.4 114.301 50.4 114.301 49.1H119.301C119.401 50.1 119.801 50.8 120.301 51.2C120.801 51.6 121.601 51.8 122.501 51.8C122.901 51.8 123.401 51.7 123.801 51.6C124.201 51.5 124.501 51.2 124.901 50.9C125.201 50.6 125.501 50.2 125.701 49.7C125.901 49.2 126.101 48.6 126.201 47.8H120.601V44.1H126.201C126.101 43.2 125.901 42.5 125.501 41.9C125.201 41.3 124.801 41 124.301 40.7C123.801 40.5 123.301 40.4 122.601 40.4C121.901 40.4 121.201 40.6 120.601 41C120.001 41.4 119.601 42.1 119.401 43.1H114.401C114.501 41.9 114.801 40.8 115.201 40C115.601 39.1 116.201 38.5 117.001 37.9C117.701 37.4 118.601 37 119.501 36.7C120.501 36.5 121.501 36.3 122.601 36.3C123.801 36.3 124.901 36.5 126.001 36.8C127.001 37.2 128.001 37.7 128.701 38.5C129.501 39.2 130.101 40.2 130.601 41.4C131.001 42.6 131.301 44 131.301 45.6V46.1C131.301 47.8 131.101 49.3 130.701 50.5C130.301 51.7 129.701 52.7 128.901 53.5C128.101 54.3 127.201 54.8 126.201 55.2C124.801 55.7 123.601 55.8 122.301 55.8Z" fill="#0066AC"/>
<path d="M98.5005 56.3V54.7C96.6005 54.7 95.1006 54.3 93.7006 53.6C92.4006 52.9 91.3006 51.9 90.6006 50.6C89.9006 49.3 89.5005 47.8 89.5005 46.1V45.6C89.5005 44.1 89.9006 42.7 90.6006 41.5C91.3006 40.3 92.4006 39.3 93.7006 38.6C95.1006 37.9 96.7005 37.6 98.5005 37.6V36H103.201V37.6C105.101 37.6 106.601 37.9 108.001 38.6C109.401 39.3 110.401 40.2 111.101 41.5C111.801 42.7 112.201 44.1 112.201 45.6V46.1C112.201 47.8 111.801 49.3 111.101 50.6C110.401 51.9 109.301 52.9 108.001 53.6C106.601 54.3 105.001 54.7 103.201 54.7V56.3H98.5005ZM107.301 46.1V45.6C107.301 44.7 107.101 43.9 106.801 43.3C106.501 42.7 106.001 42.3 105.401 42C104.801 41.7 104.101 41.6 103.201 41.6V50.7C104.101 50.7 104.801 50.5 105.401 50.2C106.001 49.9 106.501 49.4 106.801 48.8C107.101 48.1 107.301 47.2 107.301 46.1ZM94.5005 45.6V46.1C94.5005 47.2 94.7005 48.1 95.0005 48.7C95.3005 49.4 95.8006 49.8 96.4006 50.1C97.0006 50.4 97.7006 50.6 98.6006 50.6V41.5C97.7006 41.5 97.0006 41.6 96.4006 41.9C95.8006 42.2 95.3005 42.6 95.0005 43.2C94.7005 43.9 94.5005 44.7 94.5005 45.6Z" fill="#0066AC"/>
<path d="M241.501 28.7C239.801 28.7 238.301 28.4 237.001 27.8C235.701 27.2 234.701 26.1 234.001 24.7C233.301 23.3 232.901 21.4 232.901 19.1V18.6C232.901 17 233.101 15.6 233.601 14.4C234.001 13.2 234.701 12.3 235.401 11.5C236.201 10.8 237.101 10.2 238.201 9.8C239.201 9.4 240.401 9.3 241.601 9.3C242.701 9.3 243.701 9.4 244.701 9.7C245.701 9.9 246.501 10.3 247.201 10.9C247.901 11.4 248.501 12.1 249.001 13C249.401 13.9 249.701 14.9 249.801 16.1H244.801C244.601 15.1 244.301 14.4 243.701 14C243.101 13.6 242.401 13.4 241.701 13.4C241.001 13.4 240.301 13.6 239.801 13.9C239.201 14.2 238.801 14.8 238.501 15.6C238.201 16.4 238.001 17.4 238.001 18.7V19.3C238.001 20.3 238.101 21.2 238.301 21.9C238.501 22.6 238.801 23.2 239.101 23.6C239.501 24 239.901 24.3 240.301 24.5C240.701 24.7 241.201 24.8 241.701 24.8C242.601 24.8 243.301 24.6 243.901 24.2C244.501 23.8 244.801 23.1 244.901 22.1H249.901C249.801 23.3 249.601 24.4 249.101 25.3C248.701 26.2 248.101 26.8 247.401 27.4C246.701 27.9 245.901 28.3 244.901 28.5C243.601 28.6 242.601 28.7 241.501 28.7Z" fill="#3CAAE1"/>
<path d="M216.901 28.3V9.7H230.501V13.4H221.701V17H229.701V20.5H221.701V24.7H230.501V28.4H216.901V28.3Z" fill="#3CAAE1"/>
<path d="M196.701 28.3V9.7H201.501V16.8H208.401V9.7H213.201V28.4H208.401V20.8H201.501V28.4H196.701V28.3Z" fill="#3CAAE1"/>
<path d="M183.701 28.3V13.6H178.001V9.7H194.301V13.6H188.601V28.3H183.701Z" fill="#3CAAE1"/>
<path d="M159.101 28.3V9.7H163.901V20.9L171.201 9.7H175.601V28.4H170.801V17.1L163.501 28.3H159.101Z" fill="#3CAAE1"/>
<path d="M142.501 29.1V27.5C140.701 27.5 139.101 27.1 137.701 26.4C136.401 25.7 135.301 24.7 134.601 23.4C133.901 22.1 133.501 20.6 133.501 18.9V18.4C133.501 16.9 133.901 15.5 134.601 14.3C135.301 13.1 136.401 12.1 137.701 11.4C139.101 10.7 140.701 10.4 142.501 10.4V8.8H147.201V10.4C149.001 10.4 150.601 10.7 152.001 11.4C153.401 12.1 154.401 13 155.101 14.3C155.801 15.5 156.201 16.9 156.201 18.4V19C156.201 20.7 155.801 22.2 155.101 23.5C154.401 24.8 153.301 25.8 152.001 26.5C150.601 27.2 149.001 27.6 147.201 27.6V29.2H142.501V29.1ZM151.201 19V18.5C151.201 17.6 151.001 16.8 150.701 16.2C150.401 15.6 149.901 15.2 149.301 14.9C148.701 14.6 148.001 14.5 147.101 14.5V23.6C148.001 23.6 148.701 23.4 149.301 23.1C149.901 22.8 150.401 22.3 150.701 21.7C151.001 21 151.201 20.1 151.201 19ZM138.501 18.5V19C138.501 20.1 138.701 21 139.001 21.6C139.301 22.3 139.801 22.7 140.401 23C141.001 23.3 141.701 23.5 142.601 23.5V14.4C141.701 14.4 141.001 14.5 140.401 14.8C139.801 15.1 139.301 15.5 139.001 16.1C138.601 16.8 138.501 17.5 138.501 18.5Z" fill="#3CAAE1"/>
<path fill-rule="evenodd" clip-rule="evenodd" d="M95.3005 30.3V7H94.3005L87.1005 9L88.2005 13.1L92.5005 12.1V30.3H95.3005Z" fill="#3CAAE1"/>
<path d="M98.0005 7H95.3005V30.3H98.0005V7Z" fill="#3CAAE1"/>
<path fill-rule="evenodd" clip-rule="evenodd" d="M116.001 8.90001C119.101 8.90001 122.101 10.2 124.101 12.4L125.701 10.7C121.001 5.70001 112.801 5.30001 107.401 9.60001C102.001 14 101.501 21.6 106.201 26.5C110.901 31.5 119.101 32 124.501 27.6C124.901 27.3 125.201 27 125.501 26.7L123.901 25C120.101 29.1 113.501 29.5 109.101 25.9C104.701 22.4 104.301 16.2 108.101 12.2C110.001 10.2 112.901 8.90001 116.001 8.90001Z" fill="#3CAAE1"/>
<path fill-rule="evenodd" clip-rule="evenodd" d="M124.001 12.5C120.301 8.39999 113.701 7.79999 109.201 11.2C104.701 14.6 104.101 20.7 107.801 24.9C111.501 29 118.101 29.6 122.601 26.2C123.101 25.8 123.501 25.5 123.801 25.1L122.101 23.2C119.401 26.4 114.501 26.9 111.101 24.4C107.701 21.9 107.101 17.3 109.801 14.2C112.501 11 117.401 10.5 120.801 13C121.401 13.4 121.901 13.9 122.301 14.4L124.001 12.5Z" fill="#3CAAE1"/>
<path d="M129.301 17.3C130.001 17.3 130.601 16.8 130.601 16.1C130.601 15.4 130.001 14.9 129.301 14.9C128.601 14.9 128.001 15.4 128.001 16.1C128.101 16.8 128.601 17.3 129.301 17.3Z" fill="#3CAAE1"/>
<path d="M129.301 25.6C130.001 25.6 130.601 25.1 130.601 24.4C130.601 23.7 130.001 23.2 129.301 23.2C128.601 23.2 128.001 23.7 128.001 24.4C128.101 25 128.601 25.6 129.301 25.6Z" fill="#3CAAE1"/>
<path d="M26.2005 0.5H0.800537V26.2H26.2005V0.5Z" fill="#3CAAE1"/>
<path d="M51.6006 0.5H26.2006V26.2H51.6006V0.5Z" fill="#3CAAE1"/>
<path d="M26.2005 77.3H0.800537V90H26.2005V77.3Z" fill="#0066AC"/>
<path d="M64.3005 0.5H51.6005V26.2H64.3005V0.5Z" fill="#3CAAE1"/>
<path d="M64.3005 38.6H51.6005V64.3H64.3005V38.6Z" fill="#FB7236"/>
<path d="M26.2005 26.1H0.800537V51.8H26.2005V26.1Z" fill="#FB7236"/>
<path d="M51.6006 38.6H26.2006V64.3H51.6006V38.6Z" fill="#3CAAE1"/>
<path d="M26.2005 51.7H0.800537V77.3H26.2005V51.7Z" fill="#0066AC"/>
</svg>
