<svg width="15" height="15" viewBox="0 0 15 15" fill="none" xmlns="http://www.w3.org/2000/svg">
<path fill-rule="evenodd" clip-rule="evenodd" d="M0.0625 7.59558C0.0625 7.14624 0.426758 6.78198 0.876093 6.78198H13.6044C14.0537 6.78198 14.418 7.14624 14.418 7.59558C14.418 8.04491 14.0537 8.40917 13.6044 8.40917H0.876093C0.426758 8.40917 0.0625 8.04491 0.0625 7.59558Z" fill="#ffffff"/>
<path fill-rule="evenodd" clip-rule="evenodd" d="M7.24109 0.417725C7.69043 0.417725 8.05469 0.781983 8.05469 1.23132L8.05469 13.9596C8.05469 14.4089 7.69043 14.7732 7.24109 14.7732C6.79176 14.7732 6.4275 14.4089 6.4275 13.9596L6.4275 1.23132C6.4275 0.781983 6.79176 0.417725 7.24109 0.417725Z" fill="#ffffff"/>
</svg>
