<svg width="47" height="46" viewBox="0 0 47 46" fill="none" xmlns="http://www.w3.org/2000/svg">
<rect x="0.657227" y="0.0571289" width="45.5463" height="45.4335" rx="22.7168" fill="#1EA0DE"/>
<path fill-rule="evenodd" clip-rule="evenodd" d="M14.3407 21.5598C19.999 19.0945 23.7722 17.4693 25.6601 16.684C31.0504 14.442 32.1704 14.0525 32.9005 14.0397C33.061 14.0369 33.4201 14.0767 33.6526 14.2654C33.849 14.4247 33.903 14.6399 33.9289 14.791C33.9547 14.9421 33.9869 15.2862 33.9613 15.5551C33.6692 18.6242 32.4053 26.0723 31.7623 29.5098C31.4902 30.9643 30.9544 31.452 30.4358 31.4997C29.3086 31.6035 28.4527 30.7548 27.361 30.0392C25.6527 28.9194 24.6876 28.2223 23.0294 27.1295C21.113 25.8667 22.3553 25.1726 23.4474 24.0383C23.7332 23.7414 28.6996 19.2242 28.7957 18.8144C28.8077 18.7631 28.8189 18.5721 28.7054 18.4712C28.5919 18.3703 28.4244 18.4048 28.3035 18.4323C28.1322 18.4712 25.4031 20.275 20.1163 23.8437C19.3417 24.3756 18.64 24.6348 18.0114 24.6212C17.3184 24.6062 15.9852 24.2294 14.9942 23.9072C13.7787 23.5121 12.8126 23.3032 12.8967 22.6321C12.9405 22.2826 13.4218 21.9252 14.3407 21.5598Z" fill="white"/>
</svg>
