<svg width="29" height="28" viewBox="0 0 29 28" fill="none" xmlns="http://www.w3.org/2000/svg">
<path d="M14.4438 27.9091C12.168 27.9086 9.92829 27.343 7.92761 26.2635L7.48957 26.0264L1.22364 27.6578L2.89852 21.5857L2.63646 21.1349C1.44387 19.0795 0.816695 16.7476 0.818118 14.3742C0.821113 6.91746 6.93338 0.850961 14.4434 0.850961C16.2311 0.848901 18.0016 1.19737 19.654 1.87647C21.3063 2.55557 22.808 3.552 24.0733 4.80882C25.3386 6.06565 26.3427 7.55825 27.0283 9.20136C27.7138 10.8445 28.0674 12.6059 28.0688 14.385C28.0657 21.8418 21.953 27.9084 14.4438 27.9091Z" fill="#25D366"/>
<path fill-rule="evenodd" clip-rule="evenodd" d="M21.0233 17.5441C20.6552 17.3607 18.8455 16.4746 18.508 16.3522C18.1707 16.23 17.9253 16.1689 17.6799 16.5356C17.4345 16.9022 16.7291 17.7275 16.5143 17.972C16.2997 18.2164 16.0849 18.2471 15.7169 18.0636C15.3489 17.8802 14.1628 17.4935 12.7568 16.2454C11.6626 15.274 10.9238 14.0744 10.7091 13.7076C10.4944 13.3408 10.6862 13.1427 10.8705 12.96C11.0361 12.7959 11.2386 12.5321 11.4226 12.3182C11.6067 12.1043 11.668 11.9515 11.7907 11.7071C11.9134 11.4626 11.8521 11.2487 11.76 11.0654C11.668 10.882 10.9319 9.07881 10.6251 8.34527C10.3263 7.63104 10.0229 7.72778 9.79696 7.71643C9.58249 7.70582 9.33684 7.70355 9.09148 7.70355C8.90494 7.70842 8.72144 7.75166 8.55252 7.83054C8.38359 7.90942 8.23289 8.02223 8.10991 8.16189C7.77252 8.52867 6.82162 9.41496 6.82162 11.218C6.82162 13.0211 8.14057 14.763 8.32463 15.0075C8.50868 15.252 10.9202 18.9521 14.6126 20.5389C15.2979 20.8328 15.9984 21.0904 16.711 21.3106C17.5928 21.5895 18.3952 21.5501 19.0295 21.4557C19.7367 21.3506 21.2072 20.5696 21.514 19.714C21.8207 18.8581 21.8207 18.1247 21.7287 17.9719C21.6366 17.8192 21.3913 17.7275 21.0233 17.5441Z" fill="white"/>
</svg>
