<svg width="30" height="30" viewBox="0 0 30 30" fill="none" xmlns="http://www.w3.org/2000/svg">
<rect x="0.702881" y="0.485596" width="28.9565" height="28.9565" rx="14.4782" fill="#2AABEE"/>
<path d="M20.0913 14.1745L19.2538 19.4786C19.2538 19.4786 19.1607 20.2231 18.6024 20.4092C17.951 20.4092 17.3927 20.2231 16.9274 19.8508C16.8343 19.7578 14.4149 18.2689 13.5774 17.5244C13.2982 17.3383 13.2052 16.9661 13.3913 16.5939C13.4843 16.5008 13.4843 16.4078 13.5774 16.4078C14.7871 15.2911 16.1829 13.8953 17.1135 13.0578C17.4857 12.6856 17.951 11.755 16.276 12.8717L11.5302 16.0356C11.0649 16.2217 10.5066 16.2217 9.94823 16.0356C8.83157 15.7564 7.7149 15.2911 7.7149 15.2911C7.7149 15.2911 6.8774 14.8258 8.27323 14.2675L16.0899 11.0106C16.8343 10.6384 19.5329 9.61475 19.5329 9.61475C19.5329 9.61475 20.7426 9.14947 20.6496 10.2661C20.6496 10.7314 20.3704 12.4064 20.0913 14.1745Z" fill="white"/>
</svg>
