<svg width="27" height="30" viewBox="0 0 27 30" fill="none" xmlns="http://www.w3.org/2000/svg">
<path d="M23.9515 2.90243C23.2694 2.28269 20.3252 0.432717 14.1818 0.40592C14.1818 0.40592 6.90715 -0.072042 3.37579 3.12655C1.41034 5.06714 0.748214 7.95294 0.675619 11.4746C0.603023 14.9962 0.226889 21.7237 6.66841 23.5133C6.66841 23.5133 6.64308 28.5077 6.64015 28.9467C6.64015 29.2537 6.68887 29.4637 6.86427 29.507C6.99046 29.5377 7.1795 29.4724 7.34029 29.3121C8.37027 28.2778 11.6678 24.2996 11.6678 24.2996C16.0922 24.5886 19.6124 23.715 19.9909 23.5912C20.8835 23.3042 25.7114 22.8896 26.5284 16.2897C27.3728 9.48671 26.2181 4.84302 23.9515 2.90243Z" fill="#7360F2"/>
<path d="M17.2993 11.1839C17.2194 9.57317 16.4012 8.7272 14.8447 8.646" stroke="white" stroke-width="0.901937" stroke-linecap="round" stroke-linejoin="round"/>
<path d="M19.4096 11.8927C19.4421 10.392 18.9976 9.13825 18.0761 8.13133C17.1504 7.12084 15.869 6.56443 14.2246 6.44409" stroke="white" stroke-width="0.901937" stroke-linecap="round" stroke-linejoin="round"/>
<path d="M21.5654 12.7355C21.5456 10.1315 20.7675 8.08065 19.2312 6.58294C17.6948 5.08523 15.7841 4.32842 13.499 4.3125" stroke="white" stroke-width="0.901937" stroke-linecap="round" stroke-linejoin="round"/>
<path d="M14.9305 16.6868C14.9305 16.6868 15.5078 16.7355 15.8187 16.3525L16.4248 15.59C16.7171 15.2119 17.4226 14.9708 18.1135 15.3557C18.6312 15.6509 19.1338 15.9719 19.6195 16.3174C20.078 16.6546 21.0168 17.4381 21.0197 17.4381C21.467 17.8156 21.5703 18.3701 21.2658 18.9548C21.2658 18.9582 21.2634 18.964 21.2634 18.9669C20.928 19.5484 20.5022 20.0727 20.0019 20.5202C19.9961 20.5231 19.9961 20.526 19.9907 20.529C19.5561 20.8921 19.1292 21.0985 18.7098 21.1482C18.6481 21.159 18.5854 21.163 18.5227 21.1599C18.3378 21.1617 18.1539 21.1334 17.978 21.0761L17.9644 21.0561C17.3183 20.8739 16.2396 20.4179 14.4433 19.4269C13.4037 18.8602 12.4141 18.2064 11.4849 17.4726C11.0191 17.1051 10.5749 16.7111 10.1543 16.2926L10.1095 16.2478L10.0646 16.203L10.0198 16.1581C10.0047 16.1435 9.99008 16.1284 9.97498 16.1133C9.5565 15.6927 9.16251 15.2484 8.79494 14.7827C8.06128 13.8536 7.40754 12.8641 6.8407 11.8248C5.8497 10.0279 5.39366 8.95021 5.21144 8.30318L5.19147 8.28954C5.13435 8.11369 5.10621 7.92972 5.10815 7.74483C5.10474 7.68224 5.1085 7.61947 5.11936 7.55774C5.17165 7.13906 5.37839 6.71176 5.73959 6.27587C5.74251 6.27051 5.74543 6.27051 5.74836 6.26466C6.19577 5.76444 6.72011 5.33878 7.30161 5.00374C7.30453 5.00374 7.31038 5.00081 7.31379 5.00081C7.89845 4.6963 8.45291 4.79959 8.83002 5.24442C8.83294 5.24735 9.61493 6.18622 9.95062 6.64469C10.2962 7.13081 10.6172 7.63392 10.9124 8.15215C11.2973 8.84253 11.0561 9.54949 10.678 9.84085L9.91554 10.4469C9.53064 10.7578 9.58131 11.3351 9.58131 11.3351C9.58131 11.3351 10.7107 15.6095 14.9305 16.6868Z" fill="white"/>
</svg>
