<svg width="19" height="18" viewBox="0 0 19 18" fill="none" xmlns="http://www.w3.org/2000/svg">
<path d="M8.75779 0.977608C9.133 0.266461 10.1515 0.266462 10.5267 0.977609L12.6304 4.9648C12.775 5.23904 13.0388 5.43065 13.3443 5.48351L17.7864 6.25211C18.5787 6.3892 18.8934 7.35783 18.333 7.93443L15.1911 11.1672C14.975 11.3896 14.8742 11.6996 14.9184 12.0065L15.5601 16.4688C15.6745 17.2646 14.8505 17.8633 14.129 17.5085L10.0835 15.5193C9.80523 15.3825 9.47925 15.3825 9.20099 15.5193L5.15548 17.5085C4.43393 17.8633 3.60996 17.2646 3.72442 16.4688L4.36612 12.0065C4.41026 11.6996 4.30953 11.3896 4.09342 11.1672L0.951446 7.93443C0.39105 7.35783 0.70578 6.3892 1.49806 6.25211L5.94017 5.48351C6.24571 5.43065 6.50944 5.23904 6.65413 4.9648L8.75779 0.977608Z" fill="#FF8947"/>
</svg>
