<svg width="149" height="44" viewBox="0 0 149 44" fill="none" xmlns="http://www.w3.org/2000/svg">
<path d="M143.096 43.6339H5.95725C2.94156 43.6339 0.47168 41.2225 0.47168 38.2781V6.14338C0.47168 3.19904 2.94156 0.787593 5.95725 0.787593H143.096C146.112 0.787593 148.582 3.19904 148.582 6.14338V38.2781C148.582 41.2225 146.112 43.6339 143.096 43.6339Z" fill="#474766"/>
<path d="M52.4938 11.7603C52.4938 12.6547 52.2196 13.371 51.6792 13.9053C51.058 14.5386 50.2489 14.8573 49.2574 14.8573C48.3097 14.8573 47.5006 14.5332 46.8368 13.8946C46.1717 13.2465 45.8398 12.4512 45.8398 11.4992C45.8398 10.5472 46.1717 9.75187 46.8368 9.10917C47.5006 8.46514 48.3097 8.14111 49.2574 8.14111C49.7291 8.14111 50.1789 8.23618 50.6082 8.41292C51.036 8.591 51.3844 8.83201 51.6367 9.12926L51.0635 9.69429C50.6233 9.18683 50.024 8.93645 49.2574 8.93645C48.5662 8.93645 47.9669 9.1721 47.4581 9.64743C46.9548 10.1241 46.7024 10.7413 46.7024 11.4992C46.7024 12.257 46.9548 12.8796 47.4581 13.3563C47.9669 13.8263 48.5662 14.0673 49.2574 14.0673C49.991 14.0673 50.6082 13.8263 51.095 13.351C51.4159 13.0363 51.5983 12.6025 51.6463 12.0482H49.2574V11.2743H52.4445C52.4829 11.4416 52.4938 11.6036 52.4938 11.7603Z" fill="white" stroke="white" stroke-width="0.16" stroke-miterlimit="10"/>
<path d="M57.5503 9.07697H54.5565V11.1122H57.2554V11.8861H54.5565V13.9213H57.5503V14.7099H53.709V8.28833H57.5503V9.07697Z" fill="white" stroke="white" stroke-width="0.16" stroke-miterlimit="10"/>
<path d="M61.1184 14.7099H60.2709V9.07697H58.4346V8.28833H62.956V9.07697H61.1184V14.7099Z" fill="white" stroke="white" stroke-width="0.16" stroke-miterlimit="10"/>
<path d="M66.2285 14.7099V8.28833H67.0747V14.7099H66.2285Z" fill="white" stroke="white" stroke-width="0.16" stroke-miterlimit="10"/>
<path d="M70.8254 14.7099H69.9847V9.07697H68.1416V8.28833H72.6686V9.07697H70.8254V14.7099Z" fill="white" stroke="white" stroke-width="0.16" stroke-miterlimit="10"/>
<path d="M81.2285 13.8839C80.5798 14.5332 79.7762 14.8573 78.8176 14.8573C77.8535 14.8573 77.0499 14.5332 76.4012 13.8839C75.7539 13.2358 75.4316 12.4405 75.4316 11.4992C75.4316 10.5579 75.7539 9.76258 76.4012 9.11453C77.0499 8.46514 77.8535 8.14111 78.8176 8.14111C79.7707 8.14111 80.5744 8.46514 81.223 9.11988C81.8758 9.77329 82.1981 10.5633 82.1981 11.4992C82.1981 12.4405 81.8758 13.2358 81.2285 13.8839ZM77.0279 13.3456C77.5162 13.8263 78.11 14.0673 78.8176 14.0673C79.5198 14.0673 80.1191 13.8263 80.6018 13.3456C81.0886 12.8649 81.3355 12.2477 81.3355 11.4992C81.3355 10.7507 81.0886 10.1335 80.6018 9.65279C80.1191 9.1721 79.5198 8.93109 78.8176 8.93109C78.11 8.93109 77.5162 9.1721 77.0279 9.65279C76.5411 10.1335 76.2942 10.7507 76.2942 11.4992C76.2942 12.2477 76.5411 12.8649 77.0279 13.3456Z" fill="white" stroke="white" stroke-width="0.16" stroke-miterlimit="10"/>
<path d="M83.3877 14.7099V8.28833H84.4162L87.6143 13.2826H87.6514L87.6143 12.0481V8.28833H88.4605V14.7099H87.5773L84.2284 9.46928H84.1913L84.2284 10.7091V14.7099H83.3877Z" fill="white" stroke="white" stroke-width="0.16" stroke-miterlimit="10"/>
<path d="M75.2233 24.088C72.6465 24.088 70.5414 26.0027 70.5414 28.6445C70.5414 31.2648 72.6465 33.1996 75.2233 33.1996C77.8057 33.1996 79.9108 31.2648 79.9108 28.6445C79.9108 26.0027 77.8057 24.088 75.2233 24.088ZM75.2233 31.4054C73.8094 31.4054 72.593 30.2659 72.593 28.6445C72.593 27.0016 73.8094 25.8822 75.2233 25.8822C76.6373 25.8822 77.8592 27.0016 77.8592 28.6445C77.8592 30.2659 76.6373 31.4054 75.2233 31.4054ZM65.0079 24.088C62.4255 24.088 60.3259 26.0027 60.3259 28.6445C60.3259 31.2648 62.4255 33.1996 65.0079 33.1996C67.5888 33.1996 69.6898 31.2648 69.6898 28.6445C69.6898 26.0027 67.5888 24.088 65.0079 24.088ZM65.0079 31.4054C63.5926 31.4054 62.372 30.2659 62.372 28.6445C62.372 27.0016 63.5926 25.8822 65.0079 25.8822C66.4218 25.8822 67.6382 27.0016 67.6382 28.6445C67.6382 30.2659 66.4218 31.4054 65.0079 31.4054ZM52.8518 25.4845V27.4207H57.5873C57.4487 28.5025 57.0785 29.2979 56.5107 29.8522C55.8195 30.5217 54.743 31.2648 52.8518 31.2648C49.9376 31.2648 47.6556 28.9685 47.6556 26.1232C47.6556 23.278 49.9376 20.9817 52.8518 20.9817C54.4276 20.9817 55.5741 21.5829 56.4202 22.3621L57.8177 20.9977C56.6341 19.8944 55.0598 19.0469 52.8518 19.0469C48.8556 19.0469 45.4971 22.2215 45.4971 26.1232C45.4971 30.0249 48.8556 33.1996 52.8518 33.1996C55.0118 33.1996 56.6341 32.5087 57.9095 31.2126C59.2165 29.9365 59.6238 28.1424 59.6238 26.6936C59.6238 26.2437 59.5854 25.83 59.5168 25.4845H52.8518ZM102.559 26.9855C102.174 25.9666 100.985 24.088 98.5631 24.088C96.1631 24.088 94.165 25.9344 94.165 28.6445C94.165 31.1965 96.1426 33.1996 98.7935 33.1996C100.937 33.1996 102.174 31.9235 102.683 31.1804L101.092 30.1454C100.561 30.9033 99.8384 31.4054 98.7935 31.4054C97.7553 31.4054 97.0106 30.9408 96.5334 30.0249L102.775 27.5037L102.559 26.9855ZM96.196 28.5025C96.1426 26.7458 97.5935 25.8461 98.633 25.8461C99.4476 25.8461 100.139 26.2437 100.369 26.8128L96.196 28.5025ZM91.1233 32.9224H93.1749V19.5329H91.1233V32.9224ZM87.7634 25.1029H87.6948C87.234 24.57 86.3549 24.088 85.2414 24.088C82.9045 24.088 80.7679 26.0911 80.7679 28.6592C80.7679 31.2126 82.9045 33.1996 85.2414 33.1996C86.3549 33.1996 87.234 32.7135 87.6948 32.1645H87.7634V32.818C87.7634 34.5599 86.8102 35.4958 85.2729 35.4958C84.0194 35.4958 83.2419 34.6121 82.921 33.869L81.1368 34.5961C81.6511 35.8038 83.0128 37.29 85.2729 37.29C87.6783 37.29 89.708 35.9082 89.708 32.5461V24.3652H87.7634V25.1029ZM85.4169 31.4054C84.003 31.4054 82.8195 30.2499 82.8195 28.6592C82.8195 27.0538 84.003 25.8822 85.4169 25.8822C86.8102 25.8822 87.9087 27.0538 87.9087 28.6592C87.9087 30.2499 86.8102 31.4054 85.4169 31.4054ZM112.165 19.5329H107.258V32.9224H109.304V27.8491H112.165C114.437 27.8491 116.665 26.2437 116.665 23.6904C116.665 21.1383 114.431 19.5329 112.165 19.5329ZM112.218 25.9866H109.304V21.3954H112.218C113.746 21.3954 114.618 22.6339 114.618 23.6904C114.618 24.7267 113.746 25.9866 112.218 25.9866ZM124.866 24.0626C123.388 24.0626 121.851 24.6999 121.218 26.1125L123.034 26.8556C123.425 26.1125 124.144 25.8715 124.903 25.8715C125.965 25.8715 127.041 26.4941 127.058 27.5934V27.734C126.688 27.5251 125.895 27.2158 124.92 27.2158C122.964 27.2158 120.972 28.2669 120.972 30.2284C120.972 32.0226 122.573 33.1781 124.374 33.1781C125.751 33.1781 126.511 32.5716 126.988 31.866H127.058V32.901H129.034V27.7648C129.034 25.3908 127.218 24.0626 124.866 24.0626ZM124.619 31.4C123.95 31.4 123.018 31.076 123.018 30.2659C123.018 29.2296 124.181 28.8319 125.187 28.8319C126.088 28.8319 126.511 29.0261 127.058 29.2818C126.897 30.5217 125.804 31.4 124.619 31.4ZM136.234 24.3558L133.882 30.1601H133.812L131.38 24.3558H129.174L132.827 32.4672L130.743 36.9807H132.881L138.51 24.3558H136.234ZM117.79 32.9224H119.842V19.5329H117.79V32.9224Z" fill="white"/>
<path d="M11.9199 8.86275C11.5976 9.19213 11.4111 9.70495 11.4111 10.3691V34.0577C11.4111 34.7219 11.5976 35.2347 11.9199 35.564L11.9995 35.6364L25.5954 22.3674V22.0541L11.9995 8.78509L11.9199 8.86275Z" fill="url(#paint0_linear_3667_5561)"/>
<path d="M30.1227 26.7925L25.5957 22.3673V22.0539L30.1282 17.6287L30.2296 17.6863L35.5973 20.6681C37.1291 21.5143 37.1291 22.9069 35.5973 23.7584L30.2296 26.7349L30.1227 26.7925Z" fill="url(#paint1_linear_3667_5561)"/>
<path d="M30.2294 26.7351L25.5954 22.2108L11.9199 35.5641C12.4287 36.0863 13.2584 36.1492 14.2019 35.6271L30.2294 26.7351Z" fill="url(#paint2_linear_3667_5561)"/>
<path d="M30.2294 17.6865L14.2019 8.79456C13.2584 8.27773 12.4287 8.34066 11.9199 8.86285L25.5954 22.2108L30.2294 17.6865Z" fill="url(#paint3_linear_3667_5561)"/>
<defs>
<linearGradient id="paint0_linear_3667_5561" x1="24.3883" y1="34.3044" x2="6.41682" y2="15.8975" gradientUnits="userSpaceOnUse">
<stop stop-color="#00A0FF"/>
<stop offset="0.0066" stop-color="#00A1FF"/>
<stop offset="0.2601" stop-color="#00BEFF"/>
<stop offset="0.5122" stop-color="#00D2FF"/>
<stop offset="0.7604" stop-color="#00DFFF"/>
<stop offset="1" stop-color="#00E3FF"/>
</linearGradient>
<linearGradient id="paint1_linear_3667_5561" x1="37.592" y1="22.2091" x2="11.0452" y2="22.2091" gradientUnits="userSpaceOnUse">
<stop stop-color="#FFE000"/>
<stop offset="0.4087" stop-color="#FFBD00"/>
<stop offset="0.7754" stop-color="#FFA500"/>
<stop offset="1" stop-color="#FF9C00"/>
</linearGradient>
<linearGradient id="paint2_linear_3667_5561" x1="27.7096" y1="19.7513" x2="3.33883" y2="-5.20997" gradientUnits="userSpaceOnUse">
<stop stop-color="#FF3A44"/>
<stop offset="1" stop-color="#C31162"/>
</linearGradient>
<linearGradient id="paint3_linear_3667_5561" x1="8.47751" y1="43.4452" x2="19.3601" y2="32.299" gradientUnits="userSpaceOnUse">
<stop stop-color="#32A071"/>
<stop offset="0.0685" stop-color="#2DA771"/>
<stop offset="0.4762" stop-color="#15CF74"/>
<stop offset="0.8009" stop-color="#06E775"/>
<stop offset="1" stop-color="#00F076"/>
</linearGradient>
</defs>
</svg>
