<svg width="149" height="44" viewBox="0 0 149 44" fill="none" xmlns="http://www.w3.org/2000/svg">
<path d="M147.563 38.3573C147.563 40.6407 145.675 42.4902 143.339 42.4902H5.12544C2.7912 42.4902 0.896484 40.6407 0.896484 38.3573V5.39901C0.896484 3.11676 2.7912 1.26074 5.12544 1.26074H143.338C145.675 1.26074 147.562 3.11676 147.562 5.39901L147.563 38.3573Z" fill="black"/>
<path d="M142.893 1.31053C145.437 1.31053 147.506 3.32832 147.506 5.80805V37.9428C147.506 40.4225 145.437 42.4403 142.893 42.4403H5.56538C3.02207 42.4403 0.952537 40.4225 0.952537 37.9428V5.80805C0.952537 3.32832 3.02207 1.31053 5.56538 1.31053H142.893ZM142.893 0.452266H5.56538C2.54554 0.452266 0.0722656 2.86371 0.0722656 5.80805V37.9428C0.0722656 40.8871 2.54554 43.2986 5.56538 43.2986H142.893C145.913 43.2986 148.386 40.8871 148.386 37.9428V5.80805C148.386 2.86371 145.913 0.452266 142.893 0.452266Z" fill="#A6A6A6"/>
<path d="M33.1718 21.6441C33.14 18.1918 36.0711 16.5122 36.2051 16.434C34.5451 14.0742 31.9721 13.7518 31.068 13.7261C28.907 13.5044 26.8108 14.9868 25.71 14.9868C24.5872 14.9868 22.892 13.7475 21.065 13.7839C18.7139 13.8193 16.5145 15.1464 15.3082 17.2074C12.8187 21.4095 14.6754 27.5847 17.0605 30.9814C18.2536 32.6449 19.6478 34.5023 21.4726 34.4369C23.2578 34.3652 23.9247 33.3272 26.0791 33.3272C28.2137 33.3272 28.8399 34.4369 30.701 34.3952C32.617 34.3652 33.8233 32.7241 34.9747 31.0456C36.3534 29.139 36.9071 27.2612 36.9291 27.1648C36.8841 27.1498 33.2081 25.782 33.1718 21.6441Z" fill="white"/>
<path d="M29.6562 11.4917C30.6164 10.3209 31.2734 8.72807 31.091 7.11169C29.7013 7.17168 27.9632 8.04896 26.9624 9.19403C26.0769 10.2031 25.2859 11.8569 25.4902 13.4122C27.0514 13.5258 28.6543 12.6442 29.6562 11.4917Z" fill="white"/>
<path d="M59.0081 34.1978H56.5131L55.1464 30.0107H50.396L49.0941 34.1978H46.665L51.3715 19.9429H54.2785L59.0081 34.1978ZM54.7344 28.254L53.4985 24.5317C53.3677 24.1515 53.1227 23.256 52.7613 21.8463H52.7174C52.5734 22.4526 52.3416 23.3481 52.023 24.5317L50.809 28.254H54.7344Z" fill="white"/>
<path d="M71.1114 28.932C71.1114 30.6802 70.6269 32.062 69.6579 33.0764C68.79 33.9793 67.7122 34.4303 66.4257 34.4303C65.0371 34.4303 64.0395 33.944 63.432 32.9714H63.388V38.3861H61.0458V27.3028C61.0458 26.2038 61.0161 25.0759 60.959 23.919H63.0189L63.1496 25.5483H63.1936C63.9747 24.3207 65.1601 23.708 66.7509 23.708C67.9946 23.708 69.0328 24.1868 69.8633 25.1455C70.6961 26.1053 71.1114 27.3671 71.1114 28.932ZM68.7252 29.0156C68.7252 28.0151 68.4944 27.1903 68.0308 26.5412C67.5244 25.8642 66.8443 25.5258 65.9918 25.5258C65.4139 25.5258 64.8888 25.7143 64.4196 26.086C63.9494 26.4609 63.6418 26.9504 63.4979 27.5567C63.4254 27.8395 63.3891 28.0708 63.3891 28.2529V29.9668C63.3891 30.7145 63.6242 31.3454 64.0945 31.8606C64.5647 32.3758 65.1755 32.6329 65.927 32.6329C66.8092 32.6329 67.4958 32.3008 67.9869 31.6389C68.4791 30.9758 68.7252 30.1017 68.7252 29.0156Z" fill="white"/>
<path d="M83.2372 28.932C83.2372 30.6802 82.7527 32.062 81.7826 33.0764C80.9158 33.9793 79.8381 34.4303 78.5516 34.4303C77.1629 34.4303 76.1654 33.944 75.5589 32.9714H75.515V38.3861H73.1727V27.3028C73.1727 26.2038 73.1431 25.0759 73.0859 23.919H75.1459L75.2766 25.5483H75.3205C76.1006 24.3207 77.286 23.708 78.8779 23.708C80.1204 23.708 81.1586 24.1868 81.9914 25.1455C82.8208 26.1053 83.2372 27.3671 83.2372 28.932ZM80.851 29.0156C80.851 28.0151 80.6192 27.1903 80.1556 26.5412C79.6491 25.8642 78.9713 25.5258 78.1176 25.5258C77.5387 25.5258 77.0146 25.7143 76.5444 26.086C76.0742 26.4609 75.7677 26.9504 75.6238 27.5567C75.5523 27.8395 75.515 28.0708 75.515 28.2529V29.9668C75.515 30.7145 75.7501 31.3454 76.2181 31.8606C76.6883 32.3747 77.2992 32.6329 78.0528 32.6329C78.935 32.6329 79.6217 32.3008 80.1127 31.6389C80.6049 30.9758 80.851 30.1017 80.851 29.0156Z" fill="white"/>
<path d="M96.7939 30.2002C96.7939 31.4127 96.3621 32.3993 95.4953 33.1609C94.5428 33.9931 93.2168 34.4088 91.5128 34.4088C89.9396 34.4088 88.6783 34.1131 87.7236 33.5208L88.2664 31.6173C89.2947 32.2236 90.423 32.5278 91.6523 32.5278C92.5345 32.5278 93.2211 32.3328 93.7144 31.9451C94.2055 31.5573 94.4505 31.0367 94.4505 30.3876C94.4505 29.8092 94.2484 29.3218 93.843 28.9266C93.4398 28.5313 92.7663 28.1639 91.8259 27.8243C89.2661 26.8935 87.9873 25.5299 87.9873 23.7368C87.9873 22.565 88.4355 21.6041 89.3331 20.8565C90.2274 20.1077 91.4205 19.7339 92.9124 19.7339C94.2429 19.7339 95.3481 19.9599 96.2303 20.4109L95.6447 22.2725C94.8207 21.8355 93.8891 21.617 92.8465 21.617C92.0225 21.617 91.3788 21.8151 90.9173 22.2093C90.5273 22.5617 90.3318 22.9913 90.3318 23.5001C90.3318 24.0635 90.5548 24.5295 91.003 24.8958C91.393 25.2343 92.1017 25.6006 93.13 25.9959C94.3879 26.4897 95.3118 27.067 95.9062 27.729C96.4983 28.3888 96.7939 29.2147 96.7939 30.2002Z" fill="white"/>
<path d="M104.539 25.6329H101.957V30.6234C101.957 31.8927 102.412 32.5269 103.323 32.5269C103.742 32.5269 104.089 32.4915 104.364 32.4208L104.429 34.155C103.967 34.3232 103.36 34.4078 102.607 34.4078C101.682 34.4078 100.959 34.1325 100.437 33.583C99.9177 33.0325 99.6562 32.1091 99.6562 30.812V25.6308H98.1182V23.9169H99.6562V22.0349L101.957 21.3579V23.9169H104.539V25.6329Z" fill="white"/>
<path d="M116.187 28.9738C116.187 30.5538 115.724 31.851 114.799 32.8654C113.829 33.9097 112.541 34.4303 110.936 34.4303C109.389 34.4303 108.157 33.9301 107.239 32.9296C106.321 31.9292 105.861 30.6663 105.861 29.1442C105.861 27.5513 106.334 26.2467 107.282 25.2323C108.228 24.2168 109.504 23.7091 111.109 23.7091C112.656 23.7091 113.901 24.2093 114.84 25.2109C115.739 26.1824 116.187 27.4367 116.187 28.9738ZM113.757 29.0478C113.757 28.0998 113.549 27.2868 113.129 26.6087C112.638 25.7882 111.936 25.379 111.026 25.379C110.084 25.379 109.369 25.7893 108.878 26.6087C108.457 27.2878 108.25 28.1137 108.25 29.0906C108.25 30.0386 108.457 30.8516 108.878 31.5286C109.385 32.3491 110.092 32.7582 111.005 32.7582C111.899 32.7582 112.601 32.3405 113.108 31.5071C113.54 30.8162 113.757 29.9947 113.757 29.0478Z" fill="white"/>
<path d="M123.801 25.9274C123.569 25.8857 123.322 25.8642 123.062 25.8642C122.238 25.8642 121.601 26.1674 121.153 26.7747C120.763 27.3103 120.567 27.9873 120.567 28.8046V34.1979H118.226L118.248 27.1561C118.248 25.9714 118.218 24.8927 118.16 23.9201H120.2L120.286 25.8867H120.351C120.598 25.2108 120.988 24.6667 121.522 24.2586C122.044 23.8912 122.607 23.708 123.215 23.708C123.431 23.708 123.627 23.723 123.801 23.7498V25.9274Z" fill="white"/>
<path d="M134.276 28.5723C134.276 28.9814 134.249 29.3263 134.191 29.6081H127.164C127.191 30.6235 127.531 31.4001 128.183 31.9357C128.775 32.4145 129.541 32.6544 130.482 32.6544C131.522 32.6544 132.471 32.4927 133.325 32.1681L133.692 33.7534C132.694 34.1776 131.517 34.3886 130.158 34.3886C128.523 34.3886 127.24 33.9195 126.306 32.9822C125.374 32.0449 124.907 30.7863 124.907 29.2074C124.907 27.6575 125.341 26.3667 126.21 25.3374C127.12 24.2383 128.349 23.6888 129.896 23.6888C131.415 23.6888 132.566 24.2383 133.347 25.3374C133.965 26.2103 134.276 27.2901 134.276 28.5723ZM132.043 27.9799C132.058 27.3029 131.905 26.7181 131.588 26.2243C131.183 25.5891 130.56 25.272 129.721 25.272C128.956 25.272 128.333 25.5816 127.857 26.2029C127.467 26.6967 127.235 27.289 127.164 27.9788H132.043V27.9799Z" fill="white"/>
<path d="M53.9597 11.1735C53.9597 12.4342 53.5719 13.3833 52.7973 14.0206C52.0799 14.6087 51.0604 14.9032 49.7399 14.9032C49.0851 14.9032 48.5248 14.8754 48.0557 14.8197V7.93108C48.6676 7.83467 49.3268 7.7854 50.0387 7.7854C51.2966 7.7854 52.2447 8.05212 52.8841 8.58556C53.6004 9.18862 53.9597 10.0509 53.9597 11.1735ZM52.7457 11.2045C52.7457 10.3872 52.5238 9.76062 52.0799 9.32358C51.6361 8.88762 50.9879 8.66911 50.1343 8.66911C49.7717 8.66911 49.463 8.69267 49.207 8.74194V13.9788C49.3487 14.0003 49.608 14.0099 49.9848 14.0099C50.8659 14.0099 51.546 13.771 52.025 13.2933C52.504 12.8156 52.7457 12.1193 52.7457 11.2045Z" fill="white"/>
<path d="M60.3966 12.2747C60.3966 13.0513 60.1692 13.6876 59.7143 14.1868C59.2375 14.6998 58.6058 14.9558 57.817 14.9558C57.0568 14.9558 56.4514 14.7106 55.9999 14.2178C55.5494 13.7262 55.3242 13.106 55.3242 12.3583C55.3242 11.5763 55.556 10.9347 56.0218 10.4366C56.4877 9.93854 57.1139 9.68896 57.9027 9.68896C58.6629 9.68896 59.2738 9.93426 59.7363 10.4259C60.1757 10.9037 60.3966 11.5206 60.3966 12.2747ZM59.2024 12.3112C59.2024 11.8452 59.0991 11.4457 58.8937 11.1125C58.652 10.7098 58.3081 10.5084 57.8609 10.5084C57.3984 10.5084 57.0469 10.7098 56.8052 11.1125C56.5986 11.4457 56.4965 11.8516 56.4965 12.3315C56.4965 12.7975 56.5997 13.197 56.8052 13.5301C57.0546 13.9329 57.4017 14.1343 57.85 14.1343C58.2894 14.1343 58.6344 13.9297 58.8827 13.5194C59.0958 13.1799 59.2024 12.7771 59.2024 12.3112Z" fill="white"/>
<path d="M69.027 9.79163L67.4066 14.8411H66.3519L65.6806 12.6484C65.5103 12.101 65.3719 11.5569 65.2642 11.017H65.2434C65.1434 11.5719 65.005 12.115 64.827 12.6484L64.114 14.8411H63.0472L61.5234 9.79163H62.7067L63.2922 12.1921C63.4339 12.7598 63.5504 13.3007 63.6438 13.8128H63.6647C63.7503 13.3907 63.8921 12.853 64.092 12.2028L64.827 9.7927H65.7652L66.4694 12.1514C66.6397 12.7266 66.7781 13.2804 66.8847 13.8138H66.9166C66.9946 13.2943 67.1121 12.7405 67.2681 12.1514L67.8965 9.7927H69.027V9.79163Z" fill="white"/>
<path d="M74.9965 14.8412H73.8452V11.949C73.8452 11.0578 73.498 10.6122 72.8015 10.6122C72.4598 10.6122 72.1841 10.7343 71.9698 10.9796C71.7578 11.2249 71.6501 11.5141 71.6501 11.8451V14.8401H70.4988V11.2346C70.4988 10.7911 70.4845 10.3102 70.457 9.78957H71.4689L71.5227 10.579H71.5546C71.6886 10.3337 71.8885 10.1313 72.1511 9.96953C72.4631 9.781 72.8125 9.68567 73.1948 9.68567C73.6782 9.68567 74.0803 9.83777 74.4 10.1431C74.7977 10.5169 74.9965 11.075 74.9965 11.8162V14.8412Z" fill="white"/>
<path d="M78.1708 14.8412H77.0205V7.47485H78.1708V14.8412Z" fill="white"/>
<path d="M84.9493 12.2747C84.9493 13.0513 84.7219 13.6876 84.2671 14.1868C83.7903 14.6998 83.1574 14.9558 82.3697 14.9558C81.6084 14.9558 81.003 14.7106 80.5526 14.2178C80.1022 13.7262 79.877 13.106 79.877 12.3583C79.877 11.5763 80.1088 10.9347 80.5746 10.4366C81.0404 9.93854 81.6666 9.68896 82.4543 9.68896C83.2157 9.68896 83.8254 9.93426 84.289 10.4259C84.7285 10.9037 84.9493 11.5206 84.9493 12.2747ZM83.754 12.3112C83.754 11.8452 83.6507 11.4457 83.4453 11.1125C83.2047 10.7098 82.8597 10.5084 82.4137 10.5084C81.9501 10.5084 81.5985 10.7098 81.3579 11.1125C81.1514 11.4457 81.0492 11.8516 81.0492 12.3315C81.0492 12.7975 81.1525 13.197 81.3579 13.5301C81.6073 13.9329 81.9545 14.1343 82.4027 14.1343C82.8421 14.1343 83.186 13.9297 83.4343 13.5194C83.6485 13.1799 83.754 12.7771 83.754 12.3112Z" fill="white"/>
<path d="M90.5222 14.8412H89.4884L89.4027 14.2596H89.3708C89.0171 14.7234 88.5128 14.9558 87.858 14.9558C87.3691 14.9558 86.9736 14.8027 86.6759 14.4985C86.4056 14.2221 86.2705 13.8783 86.2705 13.4702C86.2705 12.8532 86.5342 12.3829 87.0648 12.0573C87.5943 11.7317 88.3392 11.5721 89.2983 11.5796V11.4853C89.2983 10.8201 88.9402 10.488 88.2228 10.488C87.7119 10.488 87.2615 10.6134 86.8726 10.8619L86.6385 10.1249C87.1197 9.83464 87.7141 9.68896 88.415 9.68896C89.7685 9.68896 90.4475 10.3852 90.4475 11.7777V13.6373C90.4475 14.1418 90.4727 14.5435 90.5222 14.8412ZM89.3269 13.106V12.3272C88.0569 12.3058 87.4219 12.6454 87.4219 13.3448C87.4219 13.6083 87.4944 13.8054 87.6427 13.9372C87.791 14.0689 87.98 14.1343 88.2052 14.1343C88.4579 14.1343 88.6941 14.0561 88.9094 13.9008C89.1258 13.7444 89.2588 13.5462 89.3082 13.3031C89.3203 13.2484 89.3269 13.182 89.3269 13.106Z" fill="white"/>
<path d="M97.0639 14.8412H96.0422L95.9884 14.0303H95.9565C95.6302 14.6473 95.0743 14.9558 94.2932 14.9558C93.6692 14.9558 93.1495 14.717 92.7375 14.2392C92.3256 13.7615 92.1201 13.1413 92.1201 12.3797C92.1201 11.5624 92.3431 10.9004 92.7914 10.3948C93.2253 9.92352 93.7571 9.68787 94.3899 9.68787C95.0853 9.68787 95.572 9.91602 95.8488 10.3734H95.8708V7.47485H97.0233V13.4808C97.0233 13.9725 97.0365 14.4256 97.0639 14.8412ZM95.8708 12.7117V11.8698C95.8708 11.7241 95.8598 11.6063 95.8389 11.5163C95.7741 11.2464 95.6346 11.0193 95.4226 10.8361C95.2083 10.653 94.9502 10.5609 94.6524 10.5609C94.2229 10.5609 93.8867 10.7269 93.6395 11.06C93.3945 11.3931 93.2704 11.8184 93.2704 12.3379C93.2704 12.8371 93.3879 13.242 93.6241 13.5537C93.8735 13.8857 94.2097 14.0518 94.6305 14.0518C95.0084 14.0518 95.3105 13.9136 95.5401 13.6362C95.762 13.3801 95.8708 13.0717 95.8708 12.7117Z" fill="white"/>
<path d="M106.911 12.2747C106.911 13.0513 106.684 13.6876 106.229 14.1868C105.752 14.6998 105.122 14.9558 104.332 14.9558C103.572 14.9558 102.967 14.7106 102.515 14.2178C102.064 13.7262 101.839 13.106 101.839 12.3583C101.839 11.5763 102.071 10.9347 102.536 10.4366C103.002 9.93854 103.629 9.68896 104.418 9.68896C105.178 9.68896 105.79 9.93426 106.251 10.4259C106.69 10.9037 106.911 11.5206 106.911 12.2747ZM105.718 12.3112C105.718 11.8452 105.615 11.4457 105.409 11.1125C105.167 10.7098 104.824 10.5084 104.376 10.5084C103.914 10.5084 103.563 10.7098 103.32 11.1125C103.113 11.4457 103.011 11.8516 103.011 12.3315C103.011 12.7975 103.114 13.197 103.32 13.5301C103.569 13.9329 103.916 14.1343 104.365 14.1343C104.804 14.1343 105.15 13.9297 105.398 13.5194C105.61 13.1799 105.718 12.7771 105.718 12.3112Z" fill="white"/>
<path d="M113.102 14.8412H111.952V11.949C111.952 11.0578 111.604 10.6122 110.907 10.6122C110.565 10.6122 110.289 10.7343 110.076 10.9796C109.863 11.2249 109.757 11.5141 109.757 11.8451V14.8401H108.604V11.2346C108.604 10.7911 108.591 10.3102 108.563 9.78957H109.574L109.628 10.579H109.66C109.795 10.3337 109.995 10.1313 110.256 9.96953C110.57 9.781 110.918 9.68567 111.301 9.68567C111.784 9.68567 112.186 9.83777 112.505 10.1431C112.904 10.5169 113.102 11.075 113.102 11.8162V14.8412Z" fill="white"/>
<path d="M120.85 10.6326H119.583V13.0855C119.583 13.7089 119.808 14.0207 120.254 14.0207C120.46 14.0207 120.632 14.0035 120.767 13.9682L120.797 14.8197C120.569 14.9033 120.27 14.9451 119.902 14.9451C119.447 14.9451 119.094 14.8101 118.838 14.5402C118.581 14.2702 118.453 13.8161 118.453 13.1787V10.6326H117.696V9.79172H118.453V8.86624L119.582 8.53418V9.79065H120.849V10.6326H120.85Z" fill="white"/>
<path d="M126.946 14.8412H125.794V11.9705C125.794 11.0654 125.446 10.6123 124.751 10.6123C124.217 10.6123 123.852 10.8747 123.652 11.3996C123.618 11.5099 123.599 11.6449 123.599 11.8034V14.8401H122.448V7.47485H123.599V10.518H123.62C123.983 9.96422 124.503 9.68787 125.176 9.68787C125.653 9.68787 126.047 9.83997 126.36 10.1453C126.75 10.5255 126.946 11.0911 126.946 11.8388V14.8412Z" fill="white"/>
<path d="M133.233 12.0778C133.233 12.2791 133.218 12.4484 133.19 12.5866H129.737C129.753 13.0857 129.918 13.466 130.237 13.7295C130.53 13.9651 130.906 14.083 131.368 14.083C131.879 14.083 132.344 14.0037 132.764 13.8441L132.944 14.6239C132.453 14.8317 131.875 14.9356 131.206 14.9356C130.404 14.9356 129.773 14.7053 129.316 14.2447C128.856 13.7841 128.629 13.1661 128.629 12.3905C128.629 11.629 128.841 10.9948 129.268 10.4892C129.714 9.94937 130.317 9.67944 131.079 9.67944C131.824 9.67944 132.389 9.94937 132.772 10.4892C133.081 10.9177 133.233 11.4479 133.233 12.0778ZM132.135 11.7875C132.143 11.4544 132.068 11.1673 131.912 10.9252C131.712 10.6135 131.407 10.4571 130.995 10.4571C130.62 10.4571 130.313 10.6092 130.079 10.9145C129.888 11.1576 129.775 11.4479 129.737 11.7875H132.135Z" fill="white"/>
</svg>
