<svg width="149" height="44" viewBox="0 0 149 44" fill="none" xmlns="http://www.w3.org/2000/svg">
<path d="M147.633 38.6929C147.633 40.9763 145.745 42.8258 143.41 42.8258H5.19575C2.86151 42.8258 0.966797 40.9763 0.966797 38.6929V5.73458C0.966797 3.45233 2.86151 1.59631 5.19575 1.59631H143.409C145.745 1.59631 147.632 3.45233 147.632 5.73458L147.633 38.6929Z" fill="#474766"/>
<path d="M33.2421 21.9797C33.2103 18.5273 36.1414 16.8477 36.2754 16.7696C34.6154 14.4098 32.0424 14.0874 31.1383 14.0617C28.9773 13.8399 26.8811 15.3224 25.7803 15.3224C24.6575 15.3224 22.9623 14.0831 21.1353 14.1195C18.7842 14.1549 16.5848 15.482 15.3785 17.5429C12.889 21.7451 14.7457 27.9203 17.1308 31.3169C18.3239 32.9805 19.7181 34.8378 21.5429 34.7725C23.3282 34.7007 23.995 33.6628 26.1494 33.6628C28.284 33.6628 28.9103 34.7725 30.7713 34.7307C32.6873 34.7007 33.8936 33.0597 35.045 31.3812C36.4237 29.4746 36.9775 27.5968 36.9994 27.5004C36.9544 27.4854 33.2784 26.1175 33.2421 21.9797Z" fill="white"/>
<path d="M29.7265 11.8272C30.6867 10.6565 31.3437 9.06364 31.1613 7.44727C29.7716 7.50725 28.0336 8.38453 27.0327 9.5296C26.1472 10.5386 25.3562 12.1925 25.5606 13.7478C27.1217 13.8614 28.7246 12.9798 29.7265 11.8272Z" fill="white"/>
<path d="M59.0784 34.5334H56.5834L55.2167 30.3463H50.4663L49.1644 34.5334H46.7354L51.4419 20.2784H54.3488L59.0784 34.5334ZM54.8047 28.5896L53.5688 24.8673C53.4381 24.487 53.1931 23.5915 52.8316 22.1819H52.7877C52.6437 22.7882 52.4119 23.6837 52.0933 24.8673L50.8794 28.5896H54.8047Z" fill="white"/>
<path d="M71.1817 29.2676C71.1817 31.0157 70.6972 32.3975 69.7282 33.4119C68.8603 34.3149 67.7825 34.7659 66.496 34.7659C65.1074 34.7659 64.1098 34.2796 63.5023 33.307H63.4584V38.7217H61.1161V27.6384C61.1161 26.5394 61.0864 25.4114 61.0293 24.2546H63.0892L63.22 25.8838H63.2639C64.045 24.6563 65.2304 24.0436 66.8212 24.0436C68.0649 24.0436 69.1031 24.5224 69.9336 25.4811C70.7664 26.4408 71.1817 27.7027 71.1817 29.2676ZM68.7955 29.3512C68.7955 28.3507 68.5648 27.5259 68.1011 26.8768C67.5947 26.1998 66.9146 25.8613 66.0621 25.8613C65.4842 25.8613 64.9591 26.0499 64.49 26.4215C64.0197 26.7965 63.7121 27.286 63.5682 27.8923C63.4957 28.175 63.4595 28.4064 63.4595 28.5885V30.3024C63.4595 31.05 63.6946 31.6809 64.1648 32.1962C64.635 32.7114 65.2458 32.9685 65.9973 32.9685C66.8795 32.9685 67.5661 32.6364 68.0572 31.9744C68.5494 31.3114 68.7955 30.4373 68.7955 29.3512Z" fill="white"/>
<path d="M83.3075 29.2676C83.3075 31.0157 82.823 32.3975 81.853 33.4119C80.9861 34.3149 79.9084 34.7659 78.6219 34.7659C77.2332 34.7659 76.2357 34.2796 75.6293 33.307H75.5853V38.7217H73.243V27.6384C73.243 26.5394 73.2134 25.4114 73.1562 24.2546H75.2162L75.3469 25.8838H75.3908C76.1709 24.6563 77.3563 24.0436 78.9482 24.0436C80.1907 24.0436 81.2289 24.5224 82.0617 25.4811C82.8912 26.4408 83.3075 27.7027 83.3075 29.2676ZM80.9213 29.3512C80.9213 28.3507 80.6895 27.5259 80.2259 26.8768C79.7194 26.1998 79.0416 25.8613 78.1879 25.8613C77.609 25.8613 77.0849 26.0499 76.6147 26.4215C76.1445 26.7965 75.838 27.286 75.6941 27.8923C75.6227 28.175 75.5853 28.4064 75.5853 28.5885V30.3024C75.5853 31.05 75.8204 31.6809 76.2884 32.1962C76.7586 32.7103 77.3695 32.9685 78.1231 32.9685C79.0053 32.9685 79.692 32.6364 80.1831 31.9744C80.6752 31.3114 80.9213 30.4373 80.9213 29.3512Z" fill="white"/>
<path d="M96.8642 30.5357C96.8642 31.7483 96.4324 32.7348 95.5656 33.4964C94.6131 34.3287 93.2871 34.7443 91.5831 34.7443C90.0099 34.7443 88.7486 34.4487 87.7939 33.8563L88.3367 31.9529C89.365 32.5592 90.4933 32.8634 91.7226 32.8634C92.6048 32.8634 93.2915 32.6684 93.7847 32.2807C94.2758 31.8929 94.5208 31.3723 94.5208 30.7232C94.5208 30.1448 94.3187 29.6574 93.9133 29.2621C93.5101 28.8669 92.8366 28.4995 91.8962 28.1599C89.3364 27.2291 88.0576 25.8655 88.0576 24.0724C88.0576 22.9005 88.5059 21.9397 89.4034 21.192C90.2977 20.4433 91.4908 20.0695 92.9827 20.0695C94.3132 20.0695 95.4184 20.2955 96.3006 20.7464L95.715 22.6081C94.8911 22.1711 93.9594 21.9526 92.9168 21.9526C92.0929 21.9526 91.4491 22.1507 90.9876 22.5449C90.5976 22.8973 90.4021 23.3269 90.4021 23.8357C90.4021 24.3991 90.6251 24.865 91.0733 25.2314C91.4633 25.5699 92.172 25.9362 93.2003 26.3314C94.4582 26.8253 95.3821 27.4026 95.9765 28.0646C96.5687 28.7244 96.8642 29.5503 96.8642 30.5357Z" fill="white"/>
<path d="M104.609 25.9685H102.027V30.959C102.027 32.2283 102.482 32.8624 103.394 32.8624C103.812 32.8624 104.159 32.8271 104.434 32.7564L104.499 34.4906C104.038 34.6588 103.43 34.7434 102.677 34.7434C101.752 34.7434 101.03 34.4681 100.508 33.9186C99.988 33.368 99.7265 32.4447 99.7265 31.1475V25.9663H98.1885V24.2525H99.7265V22.3705L102.027 21.6935V24.2525H104.609V25.9685Z" fill="white"/>
<path d="M116.258 29.3094C116.258 30.8894 115.794 32.1865 114.869 33.2009C113.899 34.2453 112.611 34.7659 111.006 34.7659C109.459 34.7659 108.228 34.2657 107.309 33.2652C106.391 32.2647 105.932 31.0018 105.932 29.4797C105.932 27.8869 106.404 26.5823 107.352 25.5679C108.298 24.5524 109.575 24.0447 111.18 24.0447C112.727 24.0447 113.971 24.5449 114.911 25.5464C115.809 26.518 116.258 27.7723 116.258 29.3094ZM113.827 29.3833C113.827 28.4354 113.62 27.6223 113.199 26.9443C112.708 26.1238 112.006 25.7146 111.096 25.7146C110.155 25.7146 109.44 26.1249 108.948 26.9443C108.528 27.6234 108.32 28.4493 108.32 29.4262C108.32 30.3742 108.528 31.1872 108.948 31.8641C109.455 32.6846 110.162 33.0938 111.075 33.0938C111.97 33.0938 112.672 32.6761 113.178 31.8427C113.61 31.1518 113.827 30.3302 113.827 29.3833Z" fill="white"/>
<path d="M123.871 26.263C123.639 26.2212 123.392 26.1998 123.133 26.1998C122.309 26.1998 121.671 26.503 121.223 27.1103C120.833 27.6459 120.638 28.3229 120.638 29.1401V34.5334H118.296L118.318 27.4916C118.318 26.3069 118.289 25.2283 118.23 24.2557H120.271L120.356 26.2223H120.421C120.668 25.5464 121.058 25.0023 121.592 24.5942C122.114 24.2267 122.678 24.0436 123.285 24.0436C123.502 24.0436 123.697 24.0586 123.871 24.0854V26.263Z" fill="white"/>
<path d="M134.347 28.9078C134.347 29.317 134.319 29.6619 134.261 29.9436H127.234C127.262 30.9591 127.601 31.7357 128.254 32.2713C128.846 32.7501 129.612 32.99 130.552 32.99C131.592 32.99 132.542 32.8283 133.395 32.5037L133.762 34.089C132.765 34.5132 131.587 34.7242 130.228 34.7242C128.593 34.7242 127.31 34.255 126.376 33.3178C125.444 32.3805 124.978 31.1219 124.978 29.543C124.978 27.9931 125.411 26.7023 126.281 25.6729C127.19 24.5739 128.42 24.0244 129.966 24.0244C131.486 24.0244 132.636 24.5739 133.417 25.6729C134.036 26.5459 134.347 27.6256 134.347 28.9078ZM132.113 28.3155C132.128 27.6385 131.976 27.0536 131.658 26.5598C131.253 25.9246 130.63 25.6076 129.792 25.6076C129.026 25.6076 128.403 25.9172 127.927 26.5384C127.537 27.0322 127.306 27.6246 127.234 28.3144H132.113V28.3155Z" fill="white"/>
<path d="M54.03 11.509C54.03 12.7698 53.6422 13.7188 52.8676 14.3562C52.1502 14.9442 51.1307 15.2388 49.8102 15.2388C49.1554 15.2388 48.5951 15.211 48.126 15.1553V8.26665C48.7379 8.17024 49.3971 8.12097 50.109 8.12097C51.3669 8.12097 52.315 8.38769 52.9544 8.92113C53.6707 9.52419 54.03 10.3865 54.03 11.509ZM52.816 11.5401C52.816 10.7228 52.5941 10.0962 52.1502 9.65915C51.7064 9.22319 51.0582 9.00468 50.2046 9.00468C49.842 9.00468 49.5333 9.02824 49.2773 9.07752V14.3144C49.4191 14.3358 49.6783 14.3455 50.0552 14.3455C50.9363 14.3455 51.6163 14.1066 52.0953 13.6289C52.5743 13.1511 52.816 12.4549 52.816 11.5401Z" fill="white"/>
<path d="M60.4669 12.6103C60.4669 13.3869 60.2395 14.0232 59.7846 14.5223C59.3078 15.0354 58.6761 15.2914 57.8873 15.2914C57.1271 15.2914 56.5217 15.0461 56.0702 14.5534C55.6198 14.0617 55.3945 13.4415 55.3945 12.6939C55.3945 11.9119 55.6263 11.2703 56.0922 10.7722C56.558 10.2741 57.1842 10.0245 57.973 10.0245C58.7333 10.0245 59.3441 10.2698 59.8066 10.7615C60.2461 11.2392 60.4669 11.8562 60.4669 12.6103ZM59.2727 12.6467C59.2727 12.1808 59.1694 11.7812 58.964 11.4481C58.7223 11.0453 58.3784 10.844 57.9313 10.844C57.4687 10.844 57.1172 11.0453 56.8755 11.4481C56.6689 11.7812 56.5668 12.1872 56.5668 12.6671C56.5668 13.133 56.67 13.5326 56.8755 13.8657C57.1249 14.2685 57.472 14.4698 57.9203 14.4698C58.3597 14.4698 58.7047 14.2652 58.953 13.855C59.1661 13.5154 59.2727 13.1127 59.2727 12.6467Z" fill="white"/>
<path d="M69.0973 10.1272L67.4769 15.1766H66.4222L65.7509 12.984C65.5807 12.4366 65.4422 11.8925 65.3346 11.3526H65.3137C65.2137 11.9075 65.0753 12.4505 64.8973 12.984L64.1843 15.1766H63.1175L61.5938 10.1272H62.777L63.3625 12.5277C63.5043 13.0954 63.6207 13.6363 63.7141 14.1483H63.735C63.8207 13.7263 63.9624 13.1886 64.1623 12.5384L64.8973 10.1283H65.8355L66.5397 12.487C66.71 13.0622 66.8485 13.616 66.955 14.1494H66.9869C67.0649 13.6299 67.1824 13.0761 67.3384 12.487L67.9669 10.1283H69.0973V10.1272Z" fill="white"/>
<path d="M75.0668 15.1767H73.9155V12.2846C73.9155 11.3934 73.5683 10.9478 72.8718 10.9478C72.5301 10.9478 72.2544 11.0699 72.0401 11.3152C71.8281 11.5605 71.7204 11.8497 71.7204 12.1807V15.1757H70.5691V11.5701C70.5691 11.1267 70.5548 10.6457 70.5273 10.1251H71.5392L71.593 10.9146H71.6249C71.7589 10.6693 71.9588 10.4668 72.2214 10.3051C72.5334 10.1166 72.8828 10.0212 73.2651 10.0212C73.7485 10.0212 74.1506 10.1733 74.4703 10.4786C74.868 10.8525 75.0668 11.4105 75.0668 12.1518V15.1767Z" fill="white"/>
<path d="M78.2411 15.1768H77.0908V7.81042H78.2411V15.1768Z" fill="white"/>
<path d="M85.0196 12.6103C85.0196 13.3869 84.7922 14.0232 84.3374 14.5223C83.8606 15.0354 83.2278 15.2914 82.44 15.2914C81.6787 15.2914 81.0734 15.0461 80.6229 14.5534C80.1725 14.0617 79.9473 13.4415 79.9473 12.6939C79.9473 11.9119 80.1791 11.2703 80.6449 10.7722C81.1107 10.2741 81.7369 10.0245 82.5246 10.0245C83.286 10.0245 83.8957 10.2698 84.3593 10.7615C84.7988 11.2392 85.0196 11.8562 85.0196 12.6103ZM83.8243 12.6467C83.8243 12.1808 83.721 11.7812 83.5156 11.4481C83.275 11.0453 82.93 10.844 82.484 10.844C82.0204 10.844 81.6688 11.0453 81.4282 11.4481C81.2217 11.7812 81.1195 12.1872 81.1195 12.6671C81.1195 13.133 81.2228 13.5326 81.4282 13.8657C81.6776 14.2685 82.0248 14.4698 82.473 14.4698C82.9125 14.4698 83.2563 14.2652 83.5046 13.855C83.7188 13.5154 83.8243 13.1127 83.8243 12.6467Z" fill="white"/>
<path d="M90.5925 15.1768H89.5587L89.473 14.5952H89.4411C89.0874 15.059 88.5831 15.2914 87.9283 15.2914C87.4394 15.2914 87.0439 15.1382 86.7462 14.834C86.476 14.5577 86.3408 14.2138 86.3408 13.8057C86.3408 13.1887 86.6045 12.7185 87.1351 12.3929C87.6647 12.0672 88.4095 11.9076 89.3686 11.9151V11.8209C89.3686 11.1557 89.0105 10.8236 88.2931 10.8236C87.7822 10.8236 87.3318 10.9489 86.9429 11.1975L86.7089 10.4605C87.1901 10.1702 87.7844 10.0245 88.4853 10.0245C89.8388 10.0245 90.5178 10.7208 90.5178 12.1133V13.9728C90.5178 14.4773 90.5431 14.879 90.5925 15.1768ZM89.3972 13.4415V12.6628C88.1272 12.6414 87.4922 12.9809 87.4922 13.6804C87.4922 13.9439 87.5647 14.141 87.713 14.2727C87.8613 14.4045 88.0503 14.4698 88.2755 14.4698C88.5282 14.4698 88.7644 14.3916 88.9797 14.2363C89.1961 14.0799 89.3291 13.8818 89.3785 13.6386C89.3906 13.584 89.3972 13.5176 89.3972 13.4415Z" fill="white"/>
<path d="M97.1342 15.1768H96.1125L96.0587 14.3659H96.0268C95.7005 14.9829 95.1446 15.2914 94.3635 15.2914C93.7395 15.2914 93.2198 15.0525 92.8079 14.5748C92.3959 14.0971 92.1904 13.4769 92.1904 12.7153C92.1904 11.898 92.4135 11.236 92.8617 10.7304C93.2956 10.2591 93.8274 10.0234 94.4602 10.0234C95.1556 10.0234 95.6423 10.2516 95.9192 10.709H95.9411V7.81042H97.0936V13.8164C97.0936 14.3081 97.1068 14.7612 97.1342 15.1768ZM95.9411 13.0473V12.2054C95.9411 12.0597 95.9301 11.9419 95.9093 11.8519C95.8444 11.582 95.7049 11.3549 95.4929 11.1717C95.2787 10.9886 95.0205 10.8964 94.7227 10.8964C94.2932 10.8964 93.957 11.0625 93.7098 11.3956C93.4648 11.7287 93.3407 12.154 93.3407 12.6735C93.3407 13.1726 93.4582 13.5775 93.6944 13.8892C93.9438 14.2213 94.28 14.3873 94.7008 14.3873C95.0787 14.3873 95.3808 14.2492 95.6104 13.9717C95.8324 13.7157 95.9411 13.4072 95.9411 13.0473Z" fill="white"/>
<path d="M106.982 12.6103C106.982 13.3869 106.754 14.0232 106.299 14.5223C105.822 15.0354 105.192 15.2914 104.402 15.2914C103.643 15.2914 103.037 15.0461 102.585 14.5534C102.134 14.0617 101.909 13.4415 101.909 12.6939C101.909 11.9119 102.141 11.2703 102.607 10.7722C103.073 10.2741 103.699 10.0245 104.489 10.0245C105.248 10.0245 105.86 10.2698 106.321 10.7615C106.761 11.2392 106.982 11.8562 106.982 12.6103ZM105.788 12.6467C105.788 12.1808 105.685 11.7812 105.48 11.4481C105.237 11.0453 104.894 10.844 104.446 10.844C103.984 10.844 103.633 11.0453 103.39 11.4481C103.184 11.7812 103.081 12.1872 103.081 12.6671C103.081 13.133 103.185 13.5326 103.39 13.8657C103.64 14.2685 103.987 14.4698 104.435 14.4698C104.874 14.4698 105.22 14.2652 105.469 13.855C105.681 13.5154 105.788 13.1127 105.788 12.6467Z" fill="white"/>
<path d="M113.172 15.1767H112.022V12.2846C112.022 11.3934 111.675 10.9478 110.977 10.9478C110.635 10.9478 110.36 11.0699 110.147 11.3152C109.933 11.5605 109.827 11.8497 109.827 12.1807V15.1757H108.674V11.5701C108.674 11.1267 108.661 10.6457 108.634 10.1251H109.645L109.698 10.9146H109.73C109.865 10.6693 110.065 10.4668 110.327 10.3051C110.64 10.1166 110.988 10.0212 111.372 10.0212C111.854 10.0212 112.256 10.1733 112.576 10.4786C112.974 10.8525 113.172 11.4105 113.172 12.1518V15.1767Z" fill="white"/>
<path d="M120.921 10.9681H119.653V13.4211C119.653 14.0445 119.878 14.3562 120.324 14.3562C120.531 14.3562 120.702 14.3391 120.837 14.3037L120.867 15.1553C120.639 15.2389 120.341 15.2806 119.973 15.2806C119.518 15.2806 119.164 15.1457 118.908 14.8757C118.651 14.6058 118.524 14.1516 118.524 13.5143V10.9681H117.767V10.1273H118.524V9.20181L119.652 8.86975V10.1262H120.92V10.9681H120.921Z" fill="white"/>
<path d="M127.016 15.1768H125.864V12.3061C125.864 11.4009 125.517 10.9478 124.821 10.9478C124.287 10.9478 123.923 11.2103 123.723 11.7351C123.689 11.8455 123.669 11.9804 123.669 12.139V15.1757H122.519V7.81042H123.669V10.8536H123.691C124.053 10.2998 124.573 10.0234 125.246 10.0234C125.723 10.0234 126.118 10.1755 126.431 10.4808C126.821 10.8611 127.016 11.4267 127.016 12.1743V15.1768Z" fill="white"/>
<path d="M133.304 12.4133C133.304 12.6147 133.288 12.784 133.261 12.9221H129.808C129.823 13.4213 129.988 13.8016 130.308 14.0651C130.6 14.3007 130.977 14.4185 131.438 14.4185C131.949 14.4185 132.415 14.3393 132.834 14.1797L133.015 14.9595C132.524 15.1673 131.946 15.2712 131.277 15.2712C130.475 15.2712 129.843 15.0409 129.386 14.5803C128.927 14.1197 128.699 13.5016 128.699 12.7261C128.699 11.9645 128.911 11.3304 129.339 10.8248C129.785 10.2849 130.388 10.015 131.149 10.015C131.894 10.015 132.46 10.2849 132.842 10.8248C133.151 11.2533 133.304 11.7835 133.304 12.4133ZM132.205 12.1231C132.214 11.7899 132.138 11.5029 131.982 11.2608C131.782 10.9491 131.478 10.7927 131.066 10.7927C130.69 10.7927 130.383 10.9448 130.149 11.2501C129.958 11.4932 129.845 11.7835 129.808 12.1231H132.205Z" fill="white"/>
</svg>
