<svg width="149" height="44" viewBox="0 0 149 44" fill="none" xmlns="http://www.w3.org/2000/svg">
<path d="M143.025 43.2988H5.88596C2.87027 43.2988 0.400391 40.8874 0.400391 37.943V5.8083C0.400391 2.86396 2.87027 0.45251 5.88596 0.45251H143.025C146.041 0.45251 148.511 2.86396 148.511 5.8083V37.943C148.511 40.8874 146.041 43.2988 143.025 43.2988Z" fill="black"/>
<path d="M143.025 1.31077C145.565 1.31077 147.632 3.32857 147.632 5.8083V37.943C147.632 40.4228 145.565 42.4406 143.025 42.4406H5.88596C3.34614 42.4406 1.27945 40.4228 1.27945 37.943V5.8083C1.27945 3.32857 3.34614 1.31077 5.88596 1.31077H143.025ZM143.025 0.45251H5.88596C2.87027 0.45251 0.400391 2.86396 0.400391 5.8083V37.943C0.400391 40.8874 2.87027 43.2988 5.88596 43.2988H143.025C146.041 43.2988 148.511 40.8874 148.511 37.943V5.8083C148.511 2.86396 146.041 0.45251 143.025 0.45251Z" fill="#A6A6A6"/>
<path d="M52.4225 11.4252C52.4225 12.3196 52.1483 13.036 51.6079 13.5702C50.9867 14.2035 50.1776 14.5222 49.1861 14.5222C48.2384 14.5222 47.4293 14.1982 46.7656 13.5595C46.1004 12.9114 45.7686 12.1161 45.7686 11.1641C45.7686 10.2121 46.1004 9.41678 46.7656 8.77409C47.4293 8.13006 48.2384 7.80603 49.1861 7.80603C49.6578 7.80603 50.1076 7.9011 50.5369 8.07784C50.9648 8.25592 51.3131 8.49693 51.5654 8.79417L50.9922 9.35921C50.552 8.85175 49.9527 8.60137 49.1861 8.60137C48.4949 8.60137 47.8956 8.83702 47.3868 9.31235C46.8835 9.78901 46.6312 10.4063 46.6312 11.1641C46.6312 11.922 46.8835 12.5446 47.3868 13.0212C47.8956 13.4912 48.4949 13.7322 49.1861 13.7322C49.9198 13.7322 50.5369 13.4912 51.0237 13.0159C51.3446 12.7012 51.527 12.2674 51.575 11.7131H49.1861V10.9392H52.3732C52.4116 11.1065 52.4225 11.2685 52.4225 11.4252Z" fill="white" stroke="white" stroke-width="0.16" stroke-miterlimit="10"/>
<path d="M57.479 8.74189H54.4852V10.7771H57.1841V11.551H54.4852V13.5862H57.479V14.3748H53.6377V7.95325H57.479V8.74189Z" fill="white" stroke="white" stroke-width="0.16" stroke-miterlimit="10"/>
<path d="M61.0471 14.3748H60.1996V8.74189H58.3633V7.95325H62.8848V8.74189H61.0471V14.3748Z" fill="white" stroke="white" stroke-width="0.16" stroke-miterlimit="10"/>
<path d="M66.1572 14.3748V7.95325H67.0034V14.3748H66.1572Z" fill="white" stroke="white" stroke-width="0.16" stroke-miterlimit="10"/>
<path d="M70.7541 14.3748H69.9135V8.74189H68.0703V7.95325H72.5973V8.74189H70.7541V14.3748Z" fill="white" stroke="white" stroke-width="0.16" stroke-miterlimit="10"/>
<path d="M81.1572 13.5488C80.5086 14.1982 79.7049 14.5222 78.7463 14.5222C77.7822 14.5222 76.9786 14.1982 76.3299 13.5488C75.6826 12.9007 75.3604 12.1054 75.3604 11.1641C75.3604 10.2228 75.6826 9.4275 76.3299 8.77945C76.9786 8.13006 77.7822 7.80603 78.7463 7.80603C79.6994 7.80603 80.5031 8.13006 81.1517 8.7848C81.8045 9.43821 82.1268 10.2282 82.1268 11.1641C82.1268 12.1054 81.8045 12.9007 81.1572 13.5488ZM76.9567 13.0105C77.4449 13.4912 78.0387 13.7322 78.7463 13.7322C79.4485 13.7322 80.0478 13.4912 80.5305 13.0105C81.0173 12.5298 81.2642 11.9126 81.2642 11.1641C81.2642 10.4156 81.0173 9.79838 80.5305 9.3177C80.0478 8.83702 79.4485 8.59601 78.7463 8.59601C78.0387 8.59601 77.4449 8.83702 76.9567 9.3177C76.4698 9.79838 76.223 10.4156 76.223 11.1641C76.223 11.9126 76.4698 12.5298 76.9567 13.0105Z" fill="white" stroke="white" stroke-width="0.16" stroke-miterlimit="10"/>
<path d="M83.3164 14.3748V7.95325H84.345L87.543 12.9475H87.5801L87.543 11.713V7.95325H88.3892V14.3748H87.506L84.1571 9.1342H84.12L84.1571 10.3741V14.3748H83.3164Z" fill="white" stroke="white" stroke-width="0.16" stroke-miterlimit="10"/>
<path d="M75.1521 23.7529C72.5752 23.7529 70.4701 25.6676 70.4701 28.3094C70.4701 30.9297 72.5752 32.8645 75.1521 32.8645C77.7344 32.8645 79.8395 30.9297 79.8395 28.3094C79.8395 25.6676 77.7344 23.7529 75.1521 23.7529ZM75.1521 31.0703C73.7382 31.0703 72.5217 29.9308 72.5217 28.3094C72.5217 26.6665 73.7382 25.5471 75.1521 25.5471C76.566 25.5471 77.7879 26.6665 77.7879 28.3094C77.7879 29.9308 76.566 31.0703 75.1521 31.0703ZM64.9366 23.7529C62.3542 23.7529 60.2546 25.6676 60.2546 28.3094C60.2546 30.9297 62.3542 32.8645 64.9366 32.8645C67.5175 32.8645 69.6185 30.9297 69.6185 28.3094C69.6185 25.6676 67.5175 23.7529 64.9366 23.7529ZM64.9366 31.0703C63.5213 31.0703 62.3008 29.9308 62.3008 28.3094C62.3008 26.6665 63.5213 25.5471 64.9366 25.5471C66.3505 25.5471 67.5669 26.6665 67.5669 28.3094C67.5669 29.9308 66.3505 31.0703 64.9366 31.0703ZM52.7806 25.1495V27.0856H57.516C57.3775 28.1674 57.0072 28.9628 56.4394 29.5171C55.7482 30.1866 54.6717 30.9297 52.7806 30.9297C49.8663 30.9297 47.5843 28.6334 47.5843 25.7881C47.5843 22.9429 49.8663 20.6466 52.7806 20.6466C54.3563 20.6466 55.5028 21.2478 56.3489 22.027L57.7464 20.6626C56.5629 19.5594 54.9885 18.7118 52.7806 18.7118C48.7843 18.7118 45.4258 21.8864 45.4258 25.7881C45.4258 29.6898 48.7843 32.8645 52.7806 32.8645C54.9405 32.8645 56.5628 32.1736 57.8382 30.8775C59.1452 29.6015 59.5525 27.8073 59.5525 26.3585C59.5525 25.9086 59.5141 25.4949 59.4455 25.1495H52.7806ZM102.488 26.6504C102.103 25.6315 100.914 23.7529 98.4918 23.7529C96.0918 23.7529 94.0937 25.5993 94.0937 28.3094C94.0937 30.8614 96.0713 32.8645 98.7222 32.8645C100.866 32.8645 102.103 31.5885 102.611 30.8453L101.021 29.8103C100.49 30.5682 99.7672 31.0703 98.7222 31.0703C97.684 31.0703 96.9393 30.6057 96.4621 29.6898L102.703 27.1686L102.488 26.6504ZM96.1247 28.1674C96.0713 26.4107 97.5222 25.511 98.5617 25.511C99.3763 25.511 100.067 25.9086 100.298 26.4777L96.1247 28.1674ZM91.052 32.5873H93.1036V19.1978H91.052V32.5873ZM87.6921 24.7679H87.6235C87.1627 24.235 86.2836 23.7529 85.1701 23.7529C82.8332 23.7529 80.6966 25.756 80.6966 28.3241C80.6966 30.8775 82.8332 32.8645 85.1701 32.8645C86.2836 32.8645 87.1627 32.3784 87.6235 31.8295H87.6921V32.4829C87.6921 34.2248 86.7389 35.1608 85.2016 35.1608C83.9482 35.1608 83.1706 34.2771 82.8497 33.5339L81.0655 34.261C81.5798 35.4687 82.9416 36.955 85.2016 36.955C87.607 36.955 89.6367 35.5732 89.6367 32.2111V24.0301H87.6921V24.7679ZM85.3456 31.0703C83.9317 31.0703 82.7482 29.9148 82.7482 28.3241C82.7482 26.7187 83.9317 25.5471 85.3456 25.5471C86.7389 25.5471 87.8374 26.7187 87.8374 28.3241C87.8374 29.9148 86.7389 31.0703 85.3456 31.0703ZM112.093 19.1978H107.186V32.5873H109.233V27.514H112.093C114.366 27.514 116.594 25.9086 116.594 23.3553C116.594 20.8032 114.36 19.1978 112.093 19.1978ZM112.147 25.6516H109.233V21.0603H112.147C113.674 21.0603 114.547 22.2988 114.547 23.3553C114.547 24.3916 113.674 25.6516 112.147 25.6516ZM124.795 23.7275C123.317 23.7275 121.779 24.3648 121.147 25.7774L122.963 26.5205C123.354 25.7774 124.072 25.5364 124.832 25.5364C125.894 25.5364 126.97 26.159 126.987 27.2583V27.3989C126.616 27.19 125.824 26.8807 124.849 26.8807C122.893 26.8807 120.9 27.9318 120.9 29.8933C120.9 31.6875 122.502 32.843 124.303 32.843C125.68 32.843 126.439 32.2365 126.917 31.5309H126.987V32.5659H128.963V27.4297C128.963 25.0557 127.147 23.7275 124.795 23.7275ZM124.548 31.0649C123.879 31.0649 122.946 30.7409 122.946 29.9308C122.946 28.8945 124.109 28.4968 125.116 28.4968C126.017 28.4968 126.439 28.691 126.987 28.9467C126.826 30.1866 125.733 31.0649 124.548 31.0649ZM136.163 24.0207L133.811 29.8251H133.741L131.309 24.0207H129.103L132.756 32.1321L130.671 36.6457H132.809L138.439 24.0207H136.163ZM117.719 32.5873H119.77V19.1978H117.719V32.5873Z" fill="white"/>
<path d="M11.8486 8.52767C11.5264 8.85705 11.3398 9.36987 11.3398 10.034V33.7226C11.3398 34.3868 11.5264 34.8996 11.8486 35.229L11.9282 35.3013L25.5241 22.0323V21.719L11.9282 8.45001L11.8486 8.52767Z" fill="url(#paint0_linear_4142_5930)"/>
<path d="M30.0514 26.4574L25.5244 22.0322V21.7189L30.0569 17.2936L30.1583 17.3512L35.526 20.3331C37.0578 21.1793 37.0578 22.5718 35.526 23.4233L30.1583 26.3998L30.0514 26.4574Z" fill="url(#paint1_linear_4142_5930)"/>
<path d="M30.1581 26.4L25.5242 21.8757L11.8486 35.229C12.3574 35.7512 13.1871 35.8142 14.1306 35.292L30.1581 26.4Z" fill="url(#paint2_linear_4142_5930)"/>
<path d="M30.1581 17.3514L14.1306 8.45948C13.1871 7.94265 12.3574 8.00558 11.8486 8.52777L25.5242 21.8757L30.1581 17.3514Z" fill="url(#paint3_linear_4142_5930)"/>
<defs>
<linearGradient id="paint0_linear_4142_5930" x1="24.317" y1="33.9693" x2="6.34554" y2="15.5624" gradientUnits="userSpaceOnUse">
<stop stop-color="#00A0FF"/>
<stop offset="0.0066" stop-color="#00A1FF"/>
<stop offset="0.2601" stop-color="#00BEFF"/>
<stop offset="0.5122" stop-color="#00D2FF"/>
<stop offset="0.7604" stop-color="#00DFFF"/>
<stop offset="1" stop-color="#00E3FF"/>
</linearGradient>
<linearGradient id="paint1_linear_4142_5930" x1="37.5207" y1="21.874" x2="10.9739" y2="21.874" gradientUnits="userSpaceOnUse">
<stop stop-color="#FFE000"/>
<stop offset="0.4087" stop-color="#FFBD00"/>
<stop offset="0.7754" stop-color="#FFA500"/>
<stop offset="1" stop-color="#FF9C00"/>
</linearGradient>
<linearGradient id="paint2_linear_4142_5930" x1="27.6383" y1="19.4162" x2="3.26754" y2="-5.54505" gradientUnits="userSpaceOnUse">
<stop stop-color="#FF3A44"/>
<stop offset="1" stop-color="#C31162"/>
</linearGradient>
<linearGradient id="paint3_linear_4142_5930" x1="8.40622" y1="43.1102" x2="19.2889" y2="31.9639" gradientUnits="userSpaceOnUse">
<stop stop-color="#32A071"/>
<stop offset="0.0685" stop-color="#2DA771"/>
<stop offset="0.4762" stop-color="#15CF74"/>
<stop offset="0.8009" stop-color="#06E775"/>
<stop offset="1" stop-color="#00F076"/>
</linearGradient>
</defs>
</svg>
